<?xml version="1.0" encoding="UTF-8"?>
<svg width="76" height="21" version="1.1" viewBox="0 0 76 21" xmlns="http://www.w3.org/2000/svg">
 <path d="m49.77 0.2701c-3.783 4.25-11.42 12.16-23.29 14.26l6e-3 0.03902c-2.652 0.7611-5.224 1.275-7.189 1.449-0.9218 0.08151-1.64 0.06489-2.195 0.01553 0.9145-0.7584 2.732-1.826 5.022-2.919 3.426-1.634 7.532-3.281 10.96-5.211 1.28-0.6541 2.397-1.384 3.322-2.2 0.1544-0.1224 0.3598-0.2274 0.5063-0.3524l-0.01755-0.01752c0.05114-0.05056 0.1313-0.0848 0.1811-0.1363l-3.225-3.433c-1.076 0.918-3.109 1.989-5.332 3.088-2.491 1.015-5.571 1.969-8.837 2.716-6.595 1.509-13.99 2.123-18.49 1.197l-0.9503 4.619c3.719 0.7639 8.221 0.5338 12.82-0.02926-0.5746 0.6272-1.087 1.339-1.268 2.35-0.2426 1.36 0.4343 2.87 1.384 3.758 0.983 0.9185 2.024 1.119 3.081 1.25 1.056 0.1312 2.197 0.1129 3.452 2e-3 2.498-0.221 5.437-0.8304 8.459-1.721 1.934-0.3995 3.741-0.9499 5.474-1.575l1.412 2.888c2.568-1.015 6.025-1.964 9.201-2.204 3.176-0.24 5.937 0.287 7.468 1.55l3.001-3.637c-2.853-2.354-6.607-2.791-10.26-2.586 3.503-3.125 6.638-6.603 9.047-10.3zm8.7 1.349c-4.385 5.443-3.517 11.82 0.1538 15.36s9.829 4.556 15 1.246l-2.625-4.101c-3.332 2.133-6.928 1.337-8.996-0.6542-1.522-1.466-2.355-3.409-1.437-5.902 1.378 1.641 2.917 3.066 4.786 3.964 3.022 1.453 6.574 1.764 10.38 0.993l-0.9658-4.772c-3.01 0.609-5.362 0.3269-7.31-0.6095-1.948-0.9364-3.59-2.582-4.944-5.135z" fill="none" stroke="currentColor" stroke-width="1px" vector-effect="non-scaling-stroke"/>
</svg>
