<?xml version="1.0" encoding="UTF-8"?>
<svg width="76" height="21" version="1.1" viewBox="0 0 76 21" xmlns="http://www.w3.org/2000/svg">
 <path d="m49.82 0.2217c-3.801 4.27-11.47 12.22-23.4 14.33l6e-3 0.0392c-2.665 0.7647-5.248 1.281-7.223 1.456-0.9261 0.0819-1.648 0.0652-2.205 0.0156 0.9187-0.762 2.745-1.835 5.045-2.933 3.442-1.642 7.567-3.296 11.02-5.235 1.286-0.6572 2.408-1.39 3.338-2.211 0.1551-0.123 0.3615-0.2285 0.5087-0.3541l-0.01763-0.0176c0.05138-0.0508 0.1319-0.0852 0.1819-0.1369l-3.24-3.449c-1.081 0.9224-3.124 1.998-5.356 3.103-2.502 1.02-5.597 1.979-8.878 2.729-6.626 1.516-14.05 2.133-18.58 1.203l-0.9547 4.64c3.736 0.7675 8.259 0.5363 12.88-0.0294-0.5773 0.6302-1.092 1.345-1.274 2.361-0.2437 1.366 0.4364 2.884 1.391 3.776 0.9876 0.9229 2.034 1.124 3.095 1.256 1.061 0.1318 2.208 0.1135 3.469 2e-3 2.509-0.222 5.462-0.8343 8.498-1.729 1.943-0.4014 3.758-0.9544 5.499-1.583l1.418 2.901c2.58-1.02 6.053-1.973 9.244-2.215 3.191-0.2412 5.965 0.2884 7.503 1.557l3.015-3.654c-2.867-2.365-6.638-2.804-10.31-2.598 3.52-3.14 6.669-6.634 9.089-10.35zm8.741 1.356c-4.405 5.469-3.533 11.88 0.1546 15.43s9.875 4.578 15.07 1.252l-2.637-4.12c-3.347 2.143-6.96 1.344-9.038-0.6573-1.53-1.473-2.366-3.425-1.444-5.93 1.384 1.649 2.931 3.08 4.809 3.983 3.036 1.46 6.604 1.772 10.43 0.9977l-0.9703-4.795c-3.024 0.6118-5.388 0.3284-7.344-0.6123-1.957-0.9408-3.607-2.595-4.967-5.159z" fill="currentColor"/>
</svg>
