<?xml version="1.0" encoding="UTF-8" standalone="no"?>
<!-- Created with Inkscape (http://www.inkscape.org/) -->

<svg
   xmlns:dc="http://purl.org/dc/elements/1.1/"
   xmlns:cc="http://creativecommons.org/ns#"
   xmlns:rdf="http://www.w3.org/1999/02/22-rdf-syntax-ns#"
   xmlns:svg="http://www.w3.org/2000/svg"
   xmlns="http://www.w3.org/2000/svg"
   xmlns:sodipodi="http://sodipodi.sourceforge.net/DTD/sodipodi-0.dtd"
   xmlns:inkscape="http://www.inkscape.org/namespaces/inkscape"
   width="600"
   height="150"
   viewBox="0 0 600 150"
   version="1.1"
   id="svg8"
   inkscape:version="0.92.3 (2405546, 2018-03-11)"
   sodipodi:docname="zzc-phasor-slowdown.svg">
  <defs
     id="defs2" />
  <sodipodi:namedview
     id="base"
     pagecolor="#f5f5f5"
     bordercolor="#000000"
     borderopacity="0.16470588"
     inkscape:pageopacity="0"
     inkscape:pageshadow="2"
     inkscape:zoom="1.4142136"
     inkscape:cx="522.51045"
     inkscape:cy="-0.95744013"
     inkscape:document-units="px"
     inkscape:current-layer="layer1"
     showgrid="false"
     units="px"
     guidecolor="#00d1ae"
     guideopacity="0.49803922"
     inkscape:window-width="2727"
     inkscape:window-height="1324"
     inkscape:window-x="658"
     inkscape:window-y="479"
     inkscape:window-maximized="0"
     showguides="false"
     inkscape:guide-bbox="true"
     inkscape:snap-global="true">
    <inkscape:grid
       type="xygrid"
       id="grid815"
       color="#3fb6ff"
       opacity="0.1254902"
       empcolor="#3f96ff"
       empopacity="0.29019608" />
    <sodipodi:guide
       position="114,223.00446"
       orientation="0,1"
       id="guide879"
       inkscape:locked="false" />
    <sodipodi:guide
       position="212.98319,129.00446"
       orientation="1,0"
       id="guide853"
       inkscape:locked="false" />
    <sodipodi:guide
       position="338.96638,19.99553"
       orientation="1,0"
       id="guide859"
       inkscape:locked="false" />
    <sodipodi:guide
       position="159.48319,129.00446"
       orientation="1,0"
       id="guide861"
       inkscape:locked="false" />
  </sodipodi:namedview>
  <metadata
     id="metadata5">
    <rdf:RDF>
      <cc:Work
         rdf:about="">
        <dc:format>image/svg+xml</dc:format>
        <dc:type
           rdf:resource="http://purl.org/dc/dcmitype/StillImage" />
        <dc:title></dc:title>
      </cc:Work>
    </rdf:RDF>
  </metadata>
  <g
     inkscape:label="Layer 1"
     inkscape:groupmode="layer"
     id="layer1"
     transform="translate(0,-676.49998)">
    <path
       style="fill:none;stroke:#808080;stroke-width:1.29999995;stroke-linecap:round;stroke-linejoin:round;stroke-miterlimit:4;stroke-dasharray:none;stroke-opacity:1"
       d="M 55.984139,806.49998 H 582.01586"
       id="path815"
       inkscape:connector-curvature="0" />
    <path
       style="fill:none;stroke:#808080;stroke-width:1.29999995;stroke-linecap:round;stroke-linejoin:round;stroke-miterlimit:4;stroke-dasharray:none;stroke-opacity:1"
       d="m 567,801.49998 15,5 -15,5"
       id="path817"
       inkscape:connector-curvature="0" />
    <path
       inkscape:connector-curvature="0"
       id="path819"
       d="M 69.5,815.40143 V 696.59856"
       style="fill:none;stroke:#808080;stroke-width:1.29999995;stroke-linecap:round;stroke-linejoin:round;stroke-miterlimit:4;stroke-dasharray:none;stroke-opacity:1"
       sodipodi:nodetypes="cc" />
    <path
       inkscape:connector-curvature="0"
       id="path821"
       d="m 64.5,711.99998 5,-15 5,15"
       style="fill:none;stroke:#808080;stroke-width:1.29999995;stroke-linecap:round;stroke-linejoin:round;stroke-miterlimit:4;stroke-dasharray:none;stroke-opacity:1" />
    <g
       aria-label="0V"
       style="font-style:normal;font-variant:normal;font-weight:normal;font-stretch:normal;font-size:19.9008255px;line-height:1.25;font-family:agave;-inkscape-font-specification:agave;letter-spacing:0px;word-spacing:0px;fill:#808080;fill-opacity:1;stroke:none;stroke-width:1"
       id="text825"
       transform="translate(0,94)">
      <path
         d="m 31.965522,705.33573 q 1.127196,-1.71023 3.070636,-1.71023 1.94344,0 3.070635,1.71023 1.127195,1.71023 1.127195,4.66426 0,2.95402 -1.127195,4.66425 -1.127195,1.71023 -3.070635,1.71023 -1.94344,0 -3.070636,-1.71023 -1.127195,-1.71023 -1.127195,-4.66425 0,-2.95403 1.127195,-4.66426 z m 4.878035,1.11748 q -0.66077,-1.30211 -1.807399,-1.30211 -1.14663,0 -1.8074,1.30211 -0.660769,1.3021 -0.660769,3.54678 0,2.24467 0.660769,3.54677 0.66077,1.30211 1.8074,1.30211 1.146629,0 1.807399,-1.30211 0.660769,-1.3021 0.660769,-3.54677 0,-2.24468 -0.660769,-3.54678 z m -2.633361,2.30297 h 1.651924 v 2.48761 h -1.651924 z"
         style="stroke-width:1"
         id="path916"
         inkscape:connector-curvature="0" />
      <path
         d="m 40.322314,703.78098 h 1.719945 l 2.652795,8.99813 0.291516,1.71994 0.291516,-1.71994 1.63249,-5.53881 0.767659,-2.21552 h -1.243802 v -1.2438 h 3.216393 l -3.673101,12.43801 h -1.982309 z"
         style="stroke-width:1"
         id="path918"
         inkscape:connector-curvature="0" />
    </g>
    <g
       aria-label="10V"
       style="font-style:normal;font-variant:normal;font-weight:normal;font-stretch:normal;font-size:19.9008255px;line-height:1.25;font-family:agave;-inkscape-font-specification:agave;letter-spacing:0px;word-spacing:0px;fill:#808080;fill-opacity:1;stroke:none;stroke-width:1"
       id="text829"
       transform="translate(0,94)">
      <path
         d="m 25.085745,596.78098 h 1.651924 v 12.43801 h -1.651924 v -10.10588 l -2.254391,2.25439 -1.166064,-1.16607 z"
         style="stroke-width:1"
         id="path921"
         inkscape:connector-curvature="0" />
      <path
         d="m 31.965522,598.33573 q 1.127196,-1.71023 3.070636,-1.71023 1.94344,0 3.070635,1.71023 1.127195,1.71023 1.127195,4.66426 0,2.95402 -1.127195,4.66425 -1.127195,1.71023 -3.070635,1.71023 -1.94344,0 -3.070636,-1.71023 -1.127195,-1.71023 -1.127195,-4.66425 0,-2.95403 1.127195,-4.66426 z m 4.878035,1.11748 q -0.66077,-1.30211 -1.807399,-1.30211 -1.14663,0 -1.8074,1.30211 -0.660769,1.3021 -0.660769,3.54678 0,2.24467 0.660769,3.54677 0.66077,1.30211 1.8074,1.30211 1.146629,0 1.807399,-1.30211 0.660769,-1.3021 0.660769,-3.54677 0,-2.24468 -0.660769,-3.54678 z m -2.633361,2.30297 h 1.651924 v 2.48761 h -1.651924 z"
         style="stroke-width:1"
         id="path923"
         inkscape:connector-curvature="0" />
      <path
         d="m 40.322314,596.78098 h 1.719945 l 2.652795,8.99813 0.291516,1.71994 0.291516,-1.71994 1.63249,-5.53881 0.767659,-2.21552 h -1.243802 v -1.2438 h 3.216393 l -3.673101,12.43801 h -1.982309 z"
         style="stroke-width:1"
         id="path925"
         inkscape:connector-curvature="0" />
    </g>
    <g
       aria-label="t"
       style="font-style:normal;font-variant:normal;font-weight:normal;font-stretch:normal;font-size:19.9008255px;line-height:1.25;font-family:agave;-inkscape-font-specification:agave;letter-spacing:0px;word-spacing:0px;fill:#808080;fill-opacity:1;stroke:none;stroke-width:1"
       id="text833"
       transform="translate(0,46)">
      <path
         d="m 578.18076,742.14126 q -0.59275,0.15547 -1.55476,0.15547 -1.72966,0 -2.62364,-0.71907 -0.89398,-0.71907 -0.89398,-2.40987 v -4.41161 H 570.407 v -1.5256 h 2.70138 v -3.4496 h 1.65192 v 3.4496 h 4.04236 v 1.5256 h -4.04236 v 4.41161 q 0,0.82597 0.47614,1.17578 0.47615,0.34982 1.38956,0.34982 h 1.55476 z"
         style="stroke-width:1"
         id="path950"
         inkscape:connector-curvature="0" />
    </g>
    <path
       style="fill:none;stroke:#ff2a2a;stroke-width:1.70000005;stroke-linecap:butt;stroke-linejoin:miter;stroke-miterlimit:4;stroke-dasharray:none;stroke-opacity:1"
       d="M 120,806.50445 V 697.49552 h 8 v 109.00893 l 31.48319,0"
       id="path873"
       inkscape:connector-curvature="0"
       sodipodi:nodetypes="ccccc" />
    <path
       style="fill:none;stroke:#37c871;stroke-width:1.60000002;stroke-linecap:butt;stroke-linejoin:miter;stroke-miterlimit:4;stroke-dasharray:none;stroke-opacity:1"
       d="M 120.01681,806.50445 159.48319,697.49552"
       id="path881"
       inkscape:connector-curvature="0"
       sodipodi:nodetypes="cc" />
    <path
       sodipodi:nodetypes="ccccc"
       inkscape:connector-curvature="0"
       id="path855"
       d="M 159.48319,806.50445 V 697.49552 h 8 v 109.00893 h 117.98319"
       style="fill:none;stroke:#ff2a2a;stroke-width:1.70000005;stroke-linecap:butt;stroke-linejoin:miter;stroke-miterlimit:4;stroke-dasharray:none;stroke-opacity:1" />
    <path
       inkscape:connector-curvature="0"
       id="path857"
       d="m 159.5,806.50445 c 13.272,-31.16151 77.06444,-85.79234 125.96638,-109.00893"
       style="fill:none;stroke:#37c871;stroke-width:1.60000002;stroke-linecap:butt;stroke-linejoin:miter;stroke-miterlimit:4;stroke-dasharray:none;stroke-opacity:1"
       sodipodi:nodetypes="cc" />
    <path
       style="fill:none;stroke:#ff2a2a;stroke-width:1.70000005;stroke-linecap:butt;stroke-linejoin:miter;stroke-miterlimit:4;stroke-dasharray:none;stroke-opacity:1"
       d="M 285.46638,806.50445 V 697.49552 h 8 v 109.00893 l 249.48319,0"
       id="path863"
       inkscape:connector-curvature="0"
       sodipodi:nodetypes="ccccc" />
    <path
       sodipodi:nodetypes="cc"
       style="fill:none;stroke:#37c871;stroke-width:1.60000002;stroke-linecap:butt;stroke-linejoin:miter;stroke-miterlimit:4;stroke-dasharray:none;stroke-opacity:1"
       d="M 285.48319,806.50445 C 338.96638,758.34294 438.04838,697.90367 542.44957,697.49552"
       id="path865"
       inkscape:connector-curvature="0" />
  </g>
</svg>
