<?xml version="1.0" encoding="UTF-8"?>
<svg width="150" height="380" version="1.1" viewBox="0 0 150 380" xmlns="http://www.w3.org/2000/svg">
 <g transform="translate(0 -446.5)">
  <path d="m0 446.5v380h150v-380z" fill="#fff" fill-opacity=".9935"/>
  <g fill-rule="evenodd" shape-rendering="auto">
   <path d="m73.1 806.2c-0.4718 0.4026-1.742 0.9295-2.746 1.416-0.871 0.319-1.8 0.6356-2.855 0.877-2.607 0.5963-5.528 0.8403-7.309 0.4746l-0.375 1.824c1.492 0.3065 3.301 0.2086 5.146-0.0234-0.2474 0.2578-0.5059 0.5144-0.582 0.9414-0.09587 0.5376 0.1713 1.135 0.5469 1.486 0.3885 0.3631 0.8012 0.4423 1.219 0.4941 0.4175 0.0519 0.8672 0.0439 1.363 0 0.9921-0.0878 2.161-0.3305 3.361-0.6855l-0.5293-1.787c-1.103 0.3262-2.181 0.5431-2.996 0.6152-0.3642 0.0322-0.6481 0.0273-0.8672 8e-3 0.3612-0.2998 1.079-0.7223 1.984-1.154 1.914-0.9131 4.391-1.825 5.848-3.068l-0.01367-0.0137c0.01906-0.0189 0.05954-0.0277 0.07813-0.0469z" color="#000000" color-rendering="auto" dominant-baseline="auto" image-rendering="auto" solid-color="#000000" style="font-feature-settings:normal;font-variant-alternates:normal;font-variant-caps:normal;font-variant-ligatures:normal;font-variant-numeric:normal;font-variant-position:normal;isolation:auto;mix-blend-mode:normal;shape-padding:0;text-decoration-color:#000000;text-decoration-line:none;text-decoration-style:solid;text-indent:0;text-orientation:mixed;text-transform:none;white-space:normal"/>
   <path d="m82.83 806.2c-1.733 2.152-1.388 4.671 0.0625 6.068s3.884 1.803 5.928 0.4941l-1.037-1.621c-1.317 0.8431-2.739 0.5294-3.557-0.2578-0.5509-0.5305-0.6639-1.286-0.4375-2.154 0.5134 0.5727 1.086 1.062 1.762 1.387 1.194 0.5742 2.599 0.6974 4.105 0.3926l-0.3828-1.887c-1.19 0.2407-2.119 0.1299-2.889-0.2402-0.7698-0.3701-1.42-1.02-1.955-2.029z" color="#000000" color-rendering="auto" dominant-baseline="auto" image-rendering="auto" solid-color="#000000" style="font-feature-settings:normal;font-variant-alternates:normal;font-variant-caps:normal;font-variant-ligatures:normal;font-variant-numeric:normal;font-variant-position:normal;isolation:auto;mix-blend-mode:normal;shape-padding:0;text-decoration-color:#000000;text-decoration-line:none;text-decoration-style:solid;text-indent:0;text-orientation:mixed;text-transform:none;white-space:normal"/>
   <path d="m79.39 805.6c-1.495 1.68-4.512 4.806-9.207 5.635l0.3242 1.836c0.907-0.1601 1.677-0.4757 2.471-0.7637l0.5938 1.211c1.015-0.4012 2.381-0.7762 3.637-0.8711 1.255-0.0949 2.346 0.1141 2.951 0.6133l1.188-1.438c-1.14-0.9404-2.644-1.113-4.102-1.025 1.344-1.195 2.548-2.503 3.49-3.916 0.0099-0.0112 0.03707-0.032 0.04687-0.043l-0.0059-4e-3c0.02501-0.0378 0.0652-0.0696 0.08984-0.1074z" color="#000000" color-rendering="auto" dominant-baseline="auto" image-rendering="auto" solid-color="#000000" style="font-feature-settings:normal;font-variant-alternates:normal;font-variant-caps:normal;font-variant-ligatures:normal;font-variant-numeric:normal;font-variant-position:normal;isolation:auto;mix-blend-mode:normal;shape-padding:0;text-decoration-color:#000000;text-decoration-line:none;text-decoration-style:solid;text-indent:0;text-orientation:mixed;text-transform:none;white-space:normal"/>
  </g>
  <path d="m0 446.5v380h150v-380zm1 1h148v378h-148z" fill-opacity=".9935"/>
  <path d="m75 548.5v25" fill="none" stroke="#000" stroke-miterlimit="3.268"/>
  <path d="m127.5 659.5v-21" fill="none" stroke="#000" stroke-miterlimit="3.268"/>
  <g>
   <path d="m116.6 609c0 0.2367 0.188 0.4247 0.4316 0.4247 0.2367 0 0.4247-0.188 0.4247-0.4247v-1.309h1.079l1.183 1.511c0.0975 0.1323 0.2228 0.2228 0.4177 0.2228 0.2088 0 0.4107-0.1601 0.4107-0.3968 0-0.1323-0.0557-0.2228-0.1392-0.3272l-0.9329-1.177c0.6544-0.2019 1.107-0.6753 1.107-1.455v-0.0139c0-0.4247-0.1462-0.7867-0.4038-1.051-0.3133-0.3063-0.7936-0.4873-1.406-0.4873h-1.74c-0.2437 0-0.4316 0.188-0.4316 0.4316zm0.8563-2.068v-1.636h1.246c0.6335 0 1.009 0.2854 1.009 0.8076v0.0139c0 0.4943-0.3899 0.8145-1.002 0.8145z"/>
   <path d="m122.1 609.4h2.868c0.2088 0 0.3829-0.1671 0.3829-0.3829 0-0.2088-0.174-0.3829-0.3829-0.3829h-2.444v-1.309h2.095c0.2088 0 0.3829-0.1671 0.3829-0.3759 0-0.2158-0.174-0.3898-0.3829-0.3898h-2.095v-1.267h2.409c0.2088 0 0.3829-0.1671 0.3829-0.3829 0-0.2088-0.174-0.3829-0.3829-0.3829h-2.833c-0.2437 0-0.4316 0.188-0.4316 0.4316v4.01c0 0.2437 0.188 0.4316 0.4316 0.4316z"/>
   <path d="m128 609.5c1.023 0 1.74-0.543 1.74-1.455v-0.0139c0-0.8076-0.5291-1.177-1.559-1.427-0.9398-0.2228-1.163-0.3898-1.163-0.7658v-0.0139c0-0.3202 0.2924-0.5778 0.7936-0.5778 0.3829 0 0.7449 0.1253 1.121 0.369 0.0696 0.0418 0.1392 0.0627 0.2228 0.0627 0.2228 0 0.4038-0.174 0.4038-0.3968 0-0.1671-0.0905-0.2854-0.188-0.3411-0.4386-0.2924-0.9329-0.4525-1.545-0.4525-0.9677 0-1.664 0.5778-1.664 1.413v0.0139c0 0.898 0.5848 1.204 1.622 1.455 0.905 0.2088 1.1 0.3968 1.1 0.7449v0.0139c0 0.362-0.3342 0.6126-0.8632 0.6126-0.5291 0-0.9607-0.181-1.364-0.5012-0.0557-0.0418-0.1323-0.0766-0.2506-0.0766-0.2228 0-0.4038 0.174-0.4038 0.3968 0 0.1392 0.0696 0.2576 0.1671 0.3272 0.543 0.4038 1.17 0.6126 1.831 0.6126z"/>
   <path d="m131.2 609.4h2.868c0.2088 0 0.3829-0.1671 0.3829-0.3829 0-0.2088-0.174-0.3829-0.3829-0.3829h-2.444v-1.309h2.095c0.2088 0 0.3829-0.1671 0.3829-0.3759 0-0.2158-0.174-0.3898-0.3829-0.3898h-2.095v-1.267h2.409c0.2088 0 0.3829-0.1671 0.3829-0.3829 0-0.2088-0.174-0.3829-0.3829-0.3829h-2.833c-0.2437 0-0.4316 0.188-0.4316 0.4316v4.01c0 0.2437 0.188 0.4316 0.4316 0.4316z"/>
   <path d="m136.7 609c0 0.2367 0.1949 0.4247 0.4316 0.4247 0.2367 0 0.4316-0.188 0.4316-0.4247v-3.69h1.19c0.2158 0 0.3898-0.181 0.3898-0.3968 0-0.2158-0.174-0.3968-0.3898-0.3968h-3.237c-0.2228 0-0.3968 0.181-0.3968 0.3968 0 0.2158 0.174 0.3968 0.3968 0.3968h1.183z"/>
   <path d="m64.65 495c0 0.3487 0.269 0.6177 0.6177 0.6177h2.61c1.554 0 2.58-0.6675 2.58-1.913v-0.0199c0-0.9465-0.5679-1.415-1.385-1.694 0.5181-0.269 0.9963-0.7174 0.9963-1.554v-0.0199c0-0.4683-0.1594-0.8469-0.4683-1.156-0.3985-0.3985-1.026-0.6177-1.823-0.6177h-2.511c-0.3487 0-0.6177 0.269-0.6177 0.6177zm1.206-3.417v-1.853h1.763c0.7871 0 1.225 0.3387 1.225 0.8867v0.0199c0 0.6376-0.528 0.9465-1.315 0.9465zm0 2.949v-1.913h1.943c0.9664 0 1.435 0.3487 1.435 0.9365v0.0199c0 0.6277-0.5081 0.9565-1.345 0.9565z"/>
   <path d="m71.85 495c0 0.3388 0.269 0.6078 0.6177 0.6078 0.3387 0 0.6077-0.269 0.6077-0.6078v-1.684h1.385c1.534 0 2.79-0.817 2.79-2.381v-0.0199c0-1.405-1.016-2.331-2.65-2.331h-2.132c-0.3487 0-0.6177 0.269-0.6177 0.6177zm1.225-2.79v-2.511h1.425c0.9166 0 1.504 0.4284 1.504 1.245v0.0199c0 0.7273-0.5779 1.245-1.504 1.245z"/>
   <path d="m78.5 495c0 0.3387 0.259 0.5978 0.5978 0.5978 0.3387 0 0.6077-0.259 0.6077-0.5978v-4.175l1.694 2.541c0.1295 0.1993 0.2889 0.3188 0.5081 0.3188 0.2292 0 0.3886-0.1196 0.5181-0.3188l1.704-2.561v4.184c0 0.3288 0.279 0.6078 0.6077 0.6078 0.3487 0 0.6177-0.269 0.6177-0.6078v-5.838c0-0.3387-0.269-0.6177-0.6177-0.6177h-0.1295c-0.2491 0-0.4284 0.1096-0.5579 0.3188l-2.122 3.318-2.112-3.308c-0.1196-0.1893-0.2989-0.3288-0.5679-0.3288h-0.1295c-0.3487 0-0.6177 0.279-0.6177 0.6177z"/>
  </g>
  <path d="m57.5 659.5v-21" fill="none" stroke="#000" stroke-miterlimit="3.268"/>
  <g fill="#fff" stroke="#000" stroke-miterlimit="3.268">
   <rect x="43" y="647.5" width="29" height="58" rx="3" ry="3" stroke-linecap="round" stroke-linejoin="round"/>
   <path d="m57.47 702c-6.627 0-12.02-5.389-12.02-12.02 0-6.627 5.389-12.02 12.02-12.02s12.02 5.389 12.02 12.02c0 6.627-5.389 12.02-12.02 12.02"/>
   <path d="m57.47 697.6c-4.2 0-7.616-3.416-7.616-7.616 0-4.2 3.416-7.616 7.616-7.616s7.616 3.416 7.616 7.616c0 4.2-3.416 7.616-7.616 7.616"/>
  </g>
  <g>
   <path d="m62.81 690c0 2.946-2.39 5.336-5.336 5.336s-5.336-2.39-5.336-5.336c0-2.946 2.39-5.336 5.336-5.336s5.336 2.39 5.336 5.336"/>
   <path d="m47.97 672.6c0.7867 0 1.309-0.2506 1.768-0.6544 0.07658-0.0696 0.1392-0.174 0.1392-0.3063 0-0.2158-0.188-0.3968-0.4038-0.3968-0.1044 0-0.1949 0.0418-0.2576 0.0975-0.355 0.2994-0.7031 0.4664-1.218 0.4664-0.9329 0-1.608-0.7727-1.608-1.726v-0.0139c0-0.9538 0.6822-1.72 1.608-1.72 0.4664 0 0.8284 0.1671 1.163 0.4386 0.05569 0.0418 0.1392 0.0835 0.2576 0.0835 0.2367 0 0.4247-0.181 0.4247-0.4177 0-0.1532-0.07658-0.2715-0.1671-0.3411-0.4247-0.3272-0.9189-0.55-1.671-0.55-1.476 0-2.513 1.135-2.513 2.52v0.0139c0 1.399 1.058 2.506 2.478 2.506z"/>
   <path d="m50.84 672c0 0.2436 0.188 0.4316 0.4316 0.4316h2.632c0.2158 0 0.3899-0.174 0.3899-0.3898s-0.174-0.3899-0.3899-0.3899h-2.207v-3.704c0-0.2367-0.188-0.4247-0.4247-0.4247-0.2437 0-0.4316 0.188-0.4316 0.4247z"/>
   <path d="m57.21 672.6c1.497 0 2.555-1.149 2.555-2.52v-0.0139c0-1.371-1.044-2.506-2.541-2.506-1.497 0-2.555 1.149-2.555 2.52v0.0139c0 1.371 1.044 2.506 2.541 2.506zm0.01392-0.7936c-0.9677 0-1.657-0.7797-1.657-1.726v-0.0139c0-0.9468 0.6753-1.72 1.643-1.72s1.657 0.7867 1.657 1.733v0.0139c0 0.9468-0.6753 1.713-1.643 1.713z"/>
   <path d="m63.06 672.6c0.7867 0 1.309-0.2506 1.768-0.6544 0.07658-0.0696 0.1392-0.174 0.1392-0.3063 0-0.2158-0.188-0.3968-0.4038-0.3968-0.1044 0-0.1949 0.0418-0.2576 0.0975-0.355 0.2994-0.7031 0.4664-1.218 0.4664-0.9329 0-1.608-0.7727-1.608-1.726v-0.0139c0-0.9538 0.6822-1.72 1.608-1.72 0.4664 0 0.8284 0.1671 1.163 0.4386 0.05569 0.0418 0.1392 0.0835 0.2576 0.0835 0.2367 0 0.4247-0.181 0.4247-0.4177 0-0.1532-0.07658-0.2715-0.1671-0.3411-0.4247-0.3272-0.9189-0.55-1.671-0.55-1.476 0-2.513 1.135-2.513 2.52v0.0139c0 1.399 1.058 2.506 2.478 2.506z"/>
   <path d="m65.94 672.1c0 0.2367 0.188 0.4247 0.4316 0.4247 0.2367 0 0.4247-0.188 0.4247-0.4247v-1.009l0.7936-0.7658 1.566 1.998c0.0905 0.1184 0.1949 0.2019 0.362 0.2019 0.2437 0 0.4316-0.181 0.4316-0.4177 0-0.1323-0.04873-0.2158-0.1183-0.3063l-1.643-2.04 1.518-1.462c0.09746-0.0905 0.1532-0.188 0.1532-0.3202 0-0.2088-0.1601-0.3968-0.3968-0.3968-0.1532 0-0.2576 0.0557-0.355 0.1601l-2.311 2.325v-2.061c0-0.2367-0.188-0.4247-0.4247-0.4247-0.2437 0-0.4316 0.188-0.4316 0.4247z"/>
  </g>
  <path d="m92.5 659.5v-21" fill="none" stroke="#000" stroke-miterlimit="3.268"/>
  <g fill="#fff" stroke="#000" stroke-miterlimit="3.268">
   <rect x="78" y="647.5" width="29" height="58" rx="3" ry="3" stroke-linecap="round" stroke-linejoin="round"/>
   <path d="m92.47 702c-6.627 0-12.02-5.389-12.02-12.02 0-6.627 5.389-12.02 12.02-12.02s12.02 5.389 12.02 12.02c0 6.627-5.389 12.02-12.02 12.02"/>
   <path d="m92.47 697.6c-4.2 0-7.616-3.416-7.616-7.616 0-4.2 3.416-7.616 7.616-7.616s7.616 3.416 7.616 7.616c0 4.2-3.416 7.616-7.616 7.616"/>
  </g>
  <g>
   <path d="m97.81 690c0 2.946-2.39 5.336-5.336 5.336s-5.336-2.39-5.336-5.336c0-2.946 2.39-5.336 5.336-5.336s5.336 2.39 5.336 5.336"/>
   <path d="m81.11 672.1c0 0.2367 0.188 0.4247 0.4316 0.4247 0.2367 0 0.4247-0.188 0.4247-0.4247v-1.177h0.9677c1.072 0 1.949-0.5709 1.949-1.664v-0.0139c0-0.9816-0.7101-1.629-1.852-1.629h-1.49c-0.2437 0-0.4316 0.188-0.4316 0.4316zm0.8563-1.949v-1.754h0.9955c0.6405 0 1.051 0.2994 1.051 0.8702v0.0139c0 0.5082-0.4038 0.8702-1.051 0.8702z"/>
   <path d="m85.76 672.1c0 0.2367 0.188 0.4247 0.4316 0.4247 0.2367 0 0.4247-0.188 0.4247-0.4247v-1.664h2.325v1.664c0 0.2367 0.188 0.4247 0.4247 0.4247 0.2437 0 0.4316-0.188 0.4316-0.4247v-4.093c0-0.2367-0.188-0.4247-0.4316-0.4247-0.2367 0-0.4247 0.188-0.4247 0.4247v1.636h-2.325v-1.636c0-0.2367-0.188-0.4247-0.4247-0.4247-0.2437 0-0.4316 0.188-0.4316 0.4247z"/>
   <path d="m90.71 672.1c0 0.2228 0.174 0.3968 0.3968 0.3968 0.181 0 0.3272-0.0975 0.3968-0.2715l0.4107-0.9398h2.367l0.3968 0.912c0.07658 0.181 0.2158 0.2994 0.4177 0.2994 0.2297 0 0.4038-0.181 0.4038-0.4107 0-0.0557-0.01392-0.1184-0.04873-0.181l-1.81-4.038c-0.09746-0.2158-0.2645-0.3481-0.5082-0.3481h-0.04177c-0.2437 0-0.4177 0.1323-0.5152 0.3481l-1.81 4.038c-0.03481 0.0696-0.05569 0.1323-0.05569 0.1949zm1.532-1.573 0.8563-1.97 0.8563 1.97z"/>
   <path d="m98.08 672.5c1.023 0 1.74-0.543 1.74-1.455v-0.0139c0-0.8076-0.5291-1.177-1.559-1.427-0.9398-0.2228-1.163-0.3898-1.163-0.7658v-0.0139c0-0.3202 0.2924-0.5778 0.7936-0.5778 0.3829 0 0.7449 0.1253 1.121 0.369 0.06962 0.0418 0.1392 0.0627 0.2228 0.0627 0.2228 0 0.4038-0.174 0.4038-0.3968 0-0.1671-0.0905-0.2854-0.188-0.3411-0.4386-0.2924-0.9329-0.4525-1.545-0.4525-0.9677 0-1.664 0.5778-1.664 1.413v0.0139c0 0.898 0.5848 1.204 1.622 1.455 0.905 0.2088 1.1 0.3968 1.1 0.7449v0.0139c0 0.362-0.3342 0.6126-0.8632 0.6126-0.5291 0-0.9607-0.181-1.364-0.5012-0.05569-0.0418-0.1323-0.0766-0.2506-0.0766-0.2228 0-0.4038 0.174-0.4038 0.3968 0 0.1392 0.06962 0.2576 0.1671 0.3272 0.543 0.4038 1.17 0.6126 1.831 0.6126z"/>
   <path d="m101.3 672.5h2.868c0.2088 0 0.3829-0.1671 0.3829-0.3829 0-0.2088-0.174-0.3829-0.3829-0.3829h-2.444v-1.309h2.095c0.2088 0 0.3829-0.1671 0.3829-0.3759 0-0.2158-0.174-0.3898-0.3829-0.3898h-2.095v-1.267h2.409c0.2088 0 0.3829-0.1671 0.3829-0.3829 0-0.2088-0.174-0.3829-0.3829-0.3829h-2.833c-0.2436 0-0.4316 0.188-0.4316 0.4316v4.01c0 0.2436 0.188 0.4316 0.4316 0.4316z"/>
  </g>
  <path d="m127.5 683.5v-21" fill="none" stroke="#000" stroke-miterlimit="3.268"/>
  <g>
   <path d="m14.18 513.5h0.04873c0.2437 0 0.4038-0.1323 0.4943-0.3481l1.713-4.038c0.02088-0.0487 0.04177-0.1184 0.04177-0.181 0-0.2297-0.188-0.4107-0.4247-0.4107-0.2019 0-0.355 0.1323-0.4107 0.2785l-1.427 3.543-1.406-3.516c-0.06962-0.181-0.2158-0.3063-0.4386-0.3063-0.2437 0-0.4316 0.188-0.4316 0.4177 0 0.0766 0.02088 0.1392 0.04873 0.2019l1.706 4.01c0.0905 0.2158 0.2506 0.3481 0.4873 0.3481z"/>
   <path d="m15.92 514c0 0.174 0.1532 0.3202 0.3342 0.3202 0.1392 0 0.2367-0.0696 0.2994-0.1949l2.854-5.834c0.01392-0.0418 0.03481-0.1044 0.03481-0.1671 0-0.174-0.1462-0.3202-0.3272-0.3202-0.1392 0-0.2437 0.0696-0.3063 0.1949l-2.847 5.834c-0.02088 0.0418-0.04177 0.1044-0.04177 0.1671z"/>
   <path d="m20.18 513c0 0.2436 0.188 0.4316 0.4316 0.4316h1.824c1.086 0 1.803-0.4664 1.803-1.337v-0.0139c0-0.6614-0.3968-0.9886-0.9677-1.183 0.362-0.188 0.6962-0.5012 0.6962-1.086v-0.0139c0-0.3272-0.1114-0.5917-0.3272-0.8076-0.2785-0.2785-0.717-0.4316-1.274-0.4316h-1.754c-0.2437 0-0.4316 0.188-0.4316 0.4316zm0.8424-2.388v-1.295h1.232c0.55 0 0.8563 0.2367 0.8563 0.6196v0.0139c0 0.4455-0.369 0.6614-0.9189 0.6614zm0 2.061v-1.337h1.358c0.6753 0 1.002 0.2437 1.002 0.6544v0.0139c0 0.4386-0.355 0.6683-0.9398 0.6683z"/>
   <path d="m25.21 513c0 0.2367 0.188 0.4247 0.4316 0.4247 0.2367 0 0.4247-0.188 0.4247-0.4247v-1.177h0.9677c1.072 0 1.949-0.5709 1.949-1.664v-0.0139c0-0.9816-0.7101-1.629-1.852-1.629h-1.49c-0.2437 0-0.4316 0.188-0.4316 0.4316zm0.8563-1.949v-1.754h0.9955c0.6405 0 1.051 0.2994 1.051 0.8702v0.0139c0 0.5082-0.4038 0.8702-1.051 0.8702z"/>
   <path d="m31.57 513.5c1.023 0 1.74-0.543 1.74-1.455v-0.0139c0-0.8076-0.5291-1.177-1.559-1.427-0.9398-0.2228-1.163-0.3898-1.163-0.7658v-0.0139c0-0.3202 0.2924-0.5778 0.7936-0.5778 0.3829 0 0.7449 0.1253 1.121 0.369 0.06962 0.0418 0.1392 0.0627 0.2228 0.0627 0.2228 0 0.4038-0.174 0.4038-0.3968 0-0.1671-0.0905-0.2854-0.188-0.3411-0.4386-0.2924-0.9329-0.4525-1.545-0.4525-0.9677 0-1.664 0.5778-1.664 1.413v0.0139c0 0.898 0.5848 1.204 1.622 1.455 0.905 0.2088 1.1 0.3968 1.1 0.7449v0.0139c0 0.362-0.3342 0.6126-0.8632 0.6126-0.5291 0-0.9607-0.181-1.364-0.5012-0.05569-0.0418-0.1323-0.0766-0.2506-0.0766-0.2228 0-0.4038 0.174-0.4038 0.3968 0 0.1392 0.06962 0.2576 0.1671 0.3272 0.543 0.4038 1.17 0.6126 1.831 0.6126z"/>
  </g>
  <g fill="none" stroke-miterlimit="3.268">
   <g stroke="#000">
    <g>
     <path d="m31 531h25"/>
     <path d="m93 531h25"/>
     <path d="m22.5 683.5v-21"/>
    </g>
    <path d="m50.5 661v-6h2v6h5v-6h2v6h6" stroke-linecap="round" stroke-linejoin="round"/>
    <path d="m85.5 661 6-6v6l6-6v6" stroke-linecap="round" stroke-linejoin="round"/>
   </g>
   <path d="m8.086 714h133.9" stroke="#3a3c3b"/>
  </g>
  <circle cx="96.16" cy="492.2" r="3.094" fill="#fff" stroke="#000" stroke-linecap="round" stroke-linejoin="round" stroke-miterlimit="3.268"/>
  <path d="m127.5 560.5v-21" fill="none" stroke="#000" stroke-miterlimit="3.268"/>
  <g fill="#fff" stroke="#000" stroke-miterlimit="3.268">
   <rect x="113" y="505.5" width="29" height="41" rx="3" ry="3" stroke-linecap="round" stroke-linejoin="round"/>
   <path d="m127.5 543c-6.627 0-12.02-5.389-12.02-12.02 0-6.627 5.389-12.02 12.02-12.02s12.02 5.389 12.02 12.02c0 6.627-5.389 12.02-12.02 12.02"/>
   <path d="m127.5 538.6c-4.2 0-7.616-3.416-7.616-7.616 0-4.2 3.416-7.616 7.616-7.616s7.616 3.416 7.616 7.616c0 4.2-3.416 7.616-7.616 7.616"/>
  </g>
  <g>
   <path d="m132.8 531c0 2.946-2.39 5.336-5.336 5.336s-5.336-2.39-5.336-5.336c0-2.946 2.39-5.336 5.336-5.336s5.336 2.39 5.336 5.336"/>
   <path d="m119.2 514.5h0.0487c0.2437 0 0.4038-0.1323 0.4943-0.3481l1.713-4.038c0.0209-0.0487 0.0418-0.1184 0.0418-0.181 0-0.2297-0.188-0.4107-0.4247-0.4107-0.2019 0-0.355 0.1323-0.4107 0.2785l-1.427 3.543-1.406-3.516c-0.0696-0.181-0.2158-0.3063-0.4386-0.3063-0.2437 0-0.4316 0.188-0.4316 0.4177 0 0.0766 0.0209 0.1392 0.0487 0.2019l1.706 4.01c0.0905 0.2158 0.2506 0.3481 0.4873 0.3481z"/>
   <path d="m120.9 515c0 0.174 0.1532 0.3202 0.3342 0.3202 0.1392 0 0.2367-0.0696 0.2994-0.1949l2.854-5.834c0.0139-0.0418 0.0348-0.1044 0.0348-0.1671 0-0.174-0.1462-0.3202-0.3272-0.3202-0.1392 0-0.2437 0.0696-0.3063 0.1949l-2.847 5.834c-0.0209 0.0418-0.0418 0.1044-0.0418 0.1671z"/>
   <path d="m125.2 514c0 0.2437 0.188 0.4316 0.4316 0.4316h1.824c1.086 0 1.803-0.4664 1.803-1.337v-0.0139c0-0.6614-0.3968-0.9886-0.9677-1.183 0.362-0.188 0.6962-0.5012 0.6962-1.086v-0.0139c0-0.3272-0.1114-0.5917-0.3272-0.8076-0.2785-0.2785-0.717-0.4316-1.274-0.4316h-1.754c-0.2437 0-0.4316 0.188-0.4316 0.4316zm0.8424-2.388v-1.295h1.232c0.55 0 0.8563 0.2367 0.8563 0.6196v0.0139c0 0.4455-0.369 0.6614-0.9189 0.6614zm0 2.061v-1.337h1.358c0.6753 0 1.002 0.2436 1.002 0.6544v0.0139c0 0.4386-0.355 0.6683-0.9398 0.6683z"/>
   <path d="m130.2 514c0 0.2367 0.188 0.4247 0.4316 0.4247 0.2367 0 0.4247-0.188 0.4247-0.4247v-1.177h0.9677c1.072 0 1.949-0.5708 1.949-1.664v-0.0139c0-0.9816-0.7101-1.629-1.852-1.629h-1.49c-0.2436 0-0.4316 0.188-0.4316 0.4316zm0.8563-1.949v-1.754h0.9955c0.6405 0 1.051 0.2994 1.051 0.8702v0.0139c0 0.5082-0.4038 0.8702-1.051 0.8702z"/>
   <path d="m136.6 514.5c1.023 0 1.74-0.543 1.74-1.455v-0.0139c0-0.8076-0.5291-1.177-1.559-1.427-0.9398-0.2228-1.163-0.3898-1.163-0.7658v-0.0139c0-0.3202 0.2924-0.5778 0.7936-0.5778 0.3829 0 0.7449 0.1253 1.121 0.369 0.0696 0.0418 0.1392 0.0627 0.2228 0.0627 0.2228 0 0.4038-0.174 0.4038-0.3968 0-0.1671-0.0905-0.2854-0.188-0.3411-0.4386-0.2924-0.9329-0.4525-1.545-0.4525-0.9677 0-1.664 0.5778-1.664 1.413v0.0139c0 0.898 0.5848 1.204 1.622 1.455 0.905 0.2088 1.1 0.3968 1.1 0.7449v0.0139c0 0.362-0.3342 0.6126-0.8632 0.6126-0.5291 0-0.9607-0.181-1.364-0.5012-0.0557-0.0418-0.1323-0.0766-0.2506-0.0766-0.2228 0-0.4038 0.174-0.4038 0.3968 0 0.1392 0.0696 0.2576 0.1671 0.3272 0.543 0.4038 1.17 0.6126 1.831 0.6126z"/>
  </g>
  <path d="m23.5 733h30" fill="none" stroke="#3a3c3b" stroke-miterlimit="3.268"/>
  <path d="m22.5 659.5v-21" fill="none" stroke="#000" stroke-miterlimit="3.268"/>
  <g>
   <path d="m15.4 609c0 0.2367 0.188 0.4247 0.4316 0.4247 0.2367 0 0.4247-0.188 0.4247-0.4247v-1.309h1.079l1.183 1.511c0.09746 0.1323 0.2228 0.2228 0.4177 0.2228 0.2088 0 0.4107-0.1601 0.4107-0.3968 0-0.1323-0.05569-0.2228-0.1392-0.3272l-0.9329-1.177c0.6544-0.2019 1.107-0.6753 1.107-1.455v-0.0139c0-0.4247-0.1462-0.7867-0.4038-1.051-0.3133-0.3063-0.7936-0.4873-1.406-0.4873h-1.74c-0.2437 0-0.4316 0.188-0.4316 0.4316zm0.8563-2.068v-1.636h1.246c0.6335 0 1.009 0.2854 1.009 0.8076v0.0139c0 0.4943-0.3899 0.8145-1.002 0.8145z"/>
   <path d="m22.43 609.5c1.274 0 2.095-0.731 2.095-2.186v-2.374c0-0.2367-0.188-0.4247-0.4247-0.4247-0.2437 0-0.4316 0.188-0.4316 0.4247v2.416c0 0.8981-0.4664 1.351-1.225 1.351-0.7658 0-1.232-0.4804-1.232-1.385v-2.381c0-0.2367-0.188-0.4247-0.4247-0.4247-0.2437 0-0.4316 0.188-0.4316 0.4247v2.416c0 1.413 0.8076 2.144 2.075 2.144z"/>
   <path d="m25.71 609c0 0.2297 0.188 0.4177 0.4247 0.4177 0.2297 0 0.4177-0.188 0.4177-0.4177v-3.091l2.506 3.244c0.1183 0.1532 0.2437 0.2576 0.4455 0.2576h0.03481c0.2367 0 0.4177-0.188 0.4177-0.4247v-4.093c0-0.2297-0.188-0.4177-0.4247-0.4177-0.2297 0-0.4177 0.188-0.4177 0.4177v2.994l-2.437-3.154c-0.1183-0.1462-0.2367-0.2506-0.4455-0.2506h-0.0905c-0.2437 0-0.4316 0.1949-0.4316 0.4316z"/>
  </g>
  <g fill="#fff" stroke="#000" stroke-miterlimit="3.268">
   <rect x="78" y="752.5" width="29" height="41" rx="3" ry="3" stroke-linecap="round" stroke-linejoin="round"/>
   <path d="m92.47 790c-6.627 0-12.02-5.389-12.02-12.02 0-6.627 5.389-12.02 12.02-12.02s12.02 5.389 12.02 12.02c0 6.627-5.389 12.02-12.02 12.02"/>
   <path d="m92.47 785.6c-4.2 0-7.616-3.416-7.616-7.616 0-4.2 3.416-7.616 7.616-7.616s7.616 3.416 7.616 7.616c0 4.2-3.416 7.616-7.616 7.616"/>
  </g>
  <g>
   <path d="m97.81 778c0 2.946-2.39 5.336-5.336 5.336s-5.336-2.39-5.336-5.336c0-2.946 2.39-5.336 5.336-5.336s5.336 2.39 5.336 5.336"/>
   <path d="m83.06 761.1c0 0.2367 0.1949 0.4247 0.4247 0.4247 0.2367 0 0.4247-0.188 0.4247-0.4247v-4.121c0-0.2367-0.181-0.4247-0.4247-0.4247h-0.01392c-0.1253 0-0.2506 0.0279-0.4177 0.0766l-0.7379 0.2367c-0.174 0.0487-0.2854 0.188-0.2854 0.369 0 0.1949 0.174 0.362 0.3759 0.362 0.04177 0 0.1044-7e-3 0.1532-0.0209l0.5012-0.1532z"/>
   <path d="m86.92 761.6c1.023 0 1.81-0.6892 1.81-1.657v-0.0139c0-0.9746-0.7588-1.532-1.699-1.532-0.5778 0-0.912 0.2367-1.17 0.4873 0.04177-0.8911 0.4455-1.545 1.17-1.545 0.3272 0 0.5709 0.0975 0.8354 0.2715 0.06266 0.0348 0.1392 0.0627 0.2158 0.0627 0.2228 0 0.4107-0.174 0.4107-0.3968 0-0.174-0.08354-0.2854-0.2158-0.369-0.3202-0.2158-0.717-0.3481-1.218-0.3481-1.378 0-2.088 1.163-2.088 2.652v0.0139c0 0.9816 0.2228 1.49 0.5917 1.859 0.3272 0.3272 0.7588 0.5152 1.358 0.5152zm-0.02089-0.7449c-0.6057 0-1.009-0.3759-1.009-0.8702v-0.0139c0-0.4664 0.3829-0.8563 0.9886-0.8563 0.6057 0 0.9955 0.362 0.9955 0.8493v0.0139c0 0.5012-0.369 0.8772-0.9746 0.8772z"/>
   <path d="m90.97 761.1c0 0.2367 0.1949 0.4247 0.4316 0.4247s0.4316-0.188 0.4316-0.4247v-3.69h1.19c0.2158 0 0.3899-0.181 0.3899-0.3968s-0.174-0.3968-0.3899-0.3968h-3.237c-0.2228 0-0.3968 0.181-0.3968 0.3968s0.174 0.3968 0.3968 0.3968h1.183z"/>
   <path d="m94.19 761.1c0 0.2367 0.188 0.4247 0.4316 0.4247 0.2367 0 0.4247-0.188 0.4247-0.4247v-1.664h2.325v1.664c0 0.2367 0.188 0.4247 0.4247 0.4247 0.2437 0 0.4316-0.188 0.4316-0.4247v-4.093c0-0.2367-0.188-0.4247-0.4316-0.4247-0.2367 0-0.4247 0.188-0.4247 0.4247v1.636h-2.325v-1.636c0-0.2367-0.188-0.4247-0.4247-0.4247-0.2437 0-0.4316 0.188-0.4316 0.4247z"/>
   <path d="m101.2 761.6c1.023 0 1.74-0.543 1.74-1.455v-0.0139c0-0.8076-0.5291-1.177-1.559-1.427-0.9398-0.2228-1.163-0.3898-1.163-0.7658v-0.0139c0-0.3202 0.2924-0.5778 0.7936-0.5778 0.3829 0 0.7449 0.1253 1.121 0.369 0.0696 0.0418 0.1392 0.0626 0.2228 0.0626 0.2228 0 0.4038-0.174 0.4038-0.3968 0-0.1671-0.0905-0.2854-0.188-0.3411-0.4386-0.2924-0.9329-0.4525-1.545-0.4525-0.9677 0-1.664 0.5778-1.664 1.413v0.0139c0 0.898 0.5848 1.204 1.622 1.455 0.905 0.2088 1.1 0.3968 1.1 0.7449v0.0139c0 0.362-0.3342 0.6126-0.8632 0.6126-0.5291 0-0.9607-0.181-1.364-0.5012-0.05569-0.0418-0.1323-0.0766-0.2506-0.0766-0.2228 0-0.4038 0.174-0.4038 0.3968 0 0.1392 0.06962 0.2576 0.1671 0.3272 0.543 0.4038 1.17 0.6126 1.831 0.6126z"/>
  </g>
  <g fill="#fff" stroke="#000" stroke-miterlimit="3.268">
   <rect x="43" y="752.5" width="29" height="41" rx="3" ry="3" stroke-linecap="round" stroke-linejoin="round"/>
   <path d="m57.47 790c-6.627 0-12.02-5.389-12.02-12.02 0-6.627 5.389-12.02 12.02-12.02s12.02 5.389 12.02 12.02c0 6.627-5.389 12.02-12.02 12.02"/>
   <path d="m57.47 785.6c-4.2 0-7.616-3.416-7.616-7.616 0-4.2 3.416-7.616 7.616-7.616s7.616 3.416 7.616 7.616c0 4.2-3.416 7.616-7.616 7.616"/>
  </g>
  <g>
   <path d="m62.81 778c0 2.946-2.39 5.336-5.336 5.336s-5.336-2.39-5.336-5.336c0-2.946 2.39-5.336 5.336-5.336s5.336 2.39 5.336 5.336"/>
   <path d="m50.87 761.6c1.065 0 1.859-0.543 1.859-1.413v-0.0139c0-0.5778-0.3411-0.9259-0.8772-1.17 0.4107-0.2158 0.7101-0.543 0.7101-1.086v-0.0139c0-0.7519-0.717-1.316-1.692-1.316s-1.692 0.5708-1.692 1.316v0.0139c0 0.543 0.2994 0.8702 0.7101 1.086-0.55 0.2297-0.8772 0.5987-0.8772 1.183v0.0139c0 0.8424 0.7936 1.399 1.859 1.399zm0-2.882c-0.5012 0-0.8702-0.2994-0.8702-0.724v-0.0139c0-0.369 0.3481-0.6753 0.8702-0.6753s0.8702 0.3063 0.8702 0.6822v0.0139c0 0.4177-0.369 0.717-0.8702 0.717zm0 2.165c-0.6405 0-1.016-0.3342-1.016-0.731v-0.0139c0-0.4456 0.4386-0.7379 1.016-0.7379s1.023 0.2924 1.023 0.7379v0.0139c0 0.4038-0.3829 0.731-1.023 0.731z"/>
   <path d="m54.89 761.1c0 0.2367 0.1949 0.4247 0.4316 0.4247s0.4316-0.188 0.4316-0.4247v-3.69h1.19c0.2158 0 0.3899-0.181 0.3899-0.3968s-0.174-0.3968-0.3899-0.3968h-3.237c-0.2228 0-0.3968 0.181-0.3968 0.3968s0.174 0.3968 0.3968 0.3968h1.183z"/>
   <path d="m58.02 761.1c0 0.2367 0.188 0.4247 0.4316 0.4247 0.2367 0 0.4247-0.188 0.4247-0.4247v-1.664h2.325v1.664c0 0.2367 0.188 0.4247 0.4247 0.4247 0.2437 0 0.4316-0.188 0.4316-0.4247v-4.093c0-0.2367-0.188-0.4247-0.4316-0.4247-0.2367 0-0.4247 0.188-0.4247 0.4247v1.636h-2.325v-1.636c0-0.2367-0.188-0.4247-0.4247-0.4247-0.2437 0-0.4316 0.188-0.4316 0.4247z"/>
   <path d="m65.02 761.6c1.023 0 1.74-0.543 1.74-1.455v-0.0139c0-0.8076-0.5291-1.177-1.559-1.427-0.9398-0.2228-1.163-0.3898-1.163-0.7658v-0.0139c0-0.3202 0.2924-0.5778 0.7936-0.5778 0.3829 0 0.7449 0.1253 1.121 0.369 0.06962 0.0418 0.1392 0.0626 0.2228 0.0626 0.2228 0 0.4038-0.174 0.4038-0.3968 0-0.1671-0.0905-0.2854-0.188-0.3411-0.4386-0.2924-0.9329-0.4525-1.545-0.4525-0.9677 0-1.664 0.5778-1.664 1.413v0.0139c0 0.898 0.5848 1.204 1.622 1.455 0.905 0.2088 1.1 0.3968 1.1 0.7449v0.0139c0 0.362-0.3342 0.6126-0.8632 0.6126s-0.9607-0.181-1.364-0.5012c-0.05569-0.0418-0.1323-0.0766-0.2506-0.0766-0.2228 0-0.4038 0.174-0.4038 0.3968 0 0.1392 0.06962 0.2576 0.1671 0.3272 0.543 0.4038 1.17 0.6126 1.831 0.6126z"/>
   <path d="m12.65 760.5c1.023 0 1.74-0.543 1.74-1.455v-0.0139c0-0.8076-0.5291-1.177-1.559-1.427-0.9398-0.2228-1.163-0.3899-1.163-0.7658v-0.0139c0-0.3202 0.2924-0.5778 0.7936-0.5778 0.3829 0 0.7449 0.1253 1.121 0.369 0.06962 0.0418 0.1392 0.0627 0.2228 0.0627 0.2228 0 0.4038-0.174 0.4038-0.3968 0-0.1671-0.0905-0.2854-0.188-0.3411-0.4386-0.2924-0.9329-0.4525-1.545-0.4525-0.9677 0-1.664 0.5778-1.664 1.413v0.0139c0 0.8981 0.5848 1.204 1.622 1.455 0.905 0.2088 1.1 0.3968 1.1 0.7449v0.0139c0 0.362-0.3342 0.6126-0.8632 0.6126-0.5291 0-0.9607-0.181-1.364-0.5012-0.05569-0.0418-0.1323-0.0766-0.2506-0.0766-0.2228 0-0.4038 0.174-0.4038 0.3968 0 0.1392 0.06962 0.2576 0.1671 0.3272 0.543 0.4038 1.17 0.6126 1.831 0.6126z"/>
   <path d="m16.42 760.1c0.08354 0.2228 0.2367 0.355 0.4455 0.355h0.08354c0.2088 0 0.369-0.1323 0.4455-0.355l1.086-3.181 1.086 3.181c0.07658 0.2228 0.2297 0.355 0.4386 0.355h0.08354c0.2088 0 0.369-0.1392 0.4455-0.355l1.441-4.038c0.02088-0.0487 0.04177-0.1184 0.04177-0.174 0-0.2297-0.1949-0.4107-0.4247-0.4107-0.2088 0-0.355 0.1323-0.4177 0.3063l-1.121 3.356-1.1-3.335c-0.06265-0.2019-0.2158-0.3411-0.4316-0.3411h-0.06265c-0.2158 0-0.362 0.1392-0.4316 0.3411l-1.1 3.335-1.121-3.349c-0.05569-0.181-0.2158-0.3133-0.4247-0.3133-0.2367 0-0.4386 0.181-0.4386 0.4177 0 0.0557 0.01392 0.1184 0.03481 0.1671z"/>
   <path d="m22.98 760c0 0.2367 0.188 0.4247 0.4316 0.4247 0.2367 0 0.4247-0.188 0.4247-0.4247v-4.093c0-0.2367-0.188-0.4247-0.4247-0.4247-0.2437 0-0.4316 0.188-0.4316 0.4247z"/>
   <path d="m24.94 760c0 0.2297 0.188 0.4177 0.4247 0.4177 0.2297 0 0.4177-0.188 0.4177-0.4177v-3.091l2.506 3.244c0.1183 0.1532 0.2437 0.2576 0.4455 0.2576h0.03481c0.2367 0 0.4177-0.188 0.4177-0.4247v-4.093c0-0.2297-0.188-0.4177-0.4247-0.4177-0.2297 0-0.4177 0.188-0.4177 0.4177v2.994l-2.437-3.154c-0.1183-0.1462-0.2367-0.2506-0.4455-0.2506h-0.0905c-0.2437 0-0.4316 0.1949-0.4316 0.4316z"/>
   <path d="m32.74 760.5c0.731 0 1.316-0.2506 1.733-0.5291 0.2019-0.1253 0.2994-0.2994 0.2994-0.543v-1.302c0-0.2436-0.188-0.4316-0.4316-0.4316h-1.358c-0.2088 0-0.3829 0.1671-0.3829 0.3759s0.174 0.369 0.3829 0.369h0.9607v0.912c-0.2994 0.2228-0.717 0.369-1.177 0.369-0.9955 0-1.657-0.7379-1.657-1.74v-0.0139c0-0.9329 0.6822-1.72 1.58-1.72 0.5291 0 0.8702 0.1532 1.183 0.3829 0.06962 0.0487 0.1532 0.0975 0.2645 0.0975 0.2367 0 0.4247-0.1949 0.4247-0.4247 0-0.1671-0.0905-0.2854-0.174-0.3481-0.4455-0.3202-0.9329-0.4943-1.664-0.4943-1.469 0-2.513 1.156-2.513 2.52v0.0139c0 1.42 1.002 2.506 2.527 2.506z"/>
  </g>
  <path d="m96.5 733h30" fill="none" stroke="#3a3c3b" stroke-miterlimit="3.268"/>
  <g fill="#fff" stroke="#000" stroke-miterlimit="3.268">
   <rect x="113" y="552.5" width="29" height="41" rx="3" ry="3" stroke-linecap="round" stroke-linejoin="round"/>
   <path d="m127.5 590c-6.627 0-12.02-5.389-12.02-12.02 0-6.627 5.389-12.02 12.02-12.02s12.02 5.389 12.02 12.02c0 6.627-5.389 12.02-12.02 12.02"/>
   <path d="m127.5 585.6c-4.2 0-7.616-3.416-7.616-7.616 0-4.2 3.416-7.616 7.616-7.616s7.616 3.416 7.616 7.616c0 4.2-3.416 7.616-7.616 7.616"/>
  </g>
  <g>
   <path d="m132.8 578c0 2.946-2.39 5.336-5.336 5.336s-5.336-2.39-5.336-5.336c0-2.946 2.39-5.336 5.336-5.336s5.336 2.39 5.336 5.336"/>
   <path d="m119.3 561.5h0.0487c0.2437 0 0.4038-0.1323 0.4943-0.3481l1.713-4.038c0.0209-0.0487 0.0418-0.1184 0.0418-0.181 0-0.2297-0.188-0.4107-0.4247-0.4107-0.2019 0-0.355 0.1323-0.4107 0.2785l-1.427 3.543-1.406-3.516c-0.0696-0.181-0.2158-0.3063-0.4386-0.3063-0.2436 0-0.4316 0.188-0.4316 0.4177 0 0.0766 0.0209 0.1392 0.0487 0.2019l1.706 4.01c0.0905 0.2158 0.2506 0.3481 0.4873 0.3481z"/>
   <path d="m121 562c0 0.174 0.1532 0.3202 0.3342 0.3202 0.1392 0 0.2367-0.0696 0.2994-0.1949l2.854-5.834c0.0139-0.0418 0.0348-0.1044 0.0348-0.1671 0-0.174-0.1462-0.3202-0.3272-0.3202-0.1392 0-0.2437 0.0696-0.3063 0.1949l-2.847 5.834c-0.0209 0.0418-0.0418 0.1044-0.0418 0.1671z"/>
   <path d="m126.8 561.5c1.023 0 1.74-0.543 1.74-1.455v-0.0139c0-0.8076-0.5291-1.177-1.559-1.427-0.9398-0.2228-1.163-0.3898-1.163-0.7658v-0.0139c0-0.3202 0.2924-0.5778 0.7936-0.5778 0.3829 0 0.7449 0.1253 1.121 0.369 0.0696 0.0418 0.1392 0.0626 0.2228 0.0626 0.2228 0 0.4038-0.174 0.4038-0.3968 0-0.1671-0.0905-0.2854-0.188-0.3411-0.4386-0.2924-0.9329-0.4525-1.545-0.4525-0.9677 0-1.664 0.5778-1.664 1.413v0.0139c0 0.898 0.5848 1.204 1.622 1.455 0.905 0.2088 1.1 0.3968 1.1 0.7449v0.0139c0 0.362-0.3342 0.6126-0.8632 0.6126-0.5291 0-0.9607-0.181-1.364-0.5012-0.0557-0.0418-0.1323-0.0766-0.2506-0.0766-0.2228 0-0.4038 0.174-0.4038 0.3968 0 0.1392 0.0696 0.2576 0.1671 0.3272 0.543 0.4038 1.17 0.6126 1.831 0.6126z"/>
   <path d="m129.5 561c0 0.2367 0.188 0.4247 0.4316 0.4247 0.2367 0 0.4247-0.188 0.4247-0.4247v-1.177h0.9677c1.072 0 1.949-0.5708 1.949-1.664v-0.0139c0-0.9816-0.7101-1.629-1.852-1.629h-1.49c-0.2436 0-0.4316 0.188-0.4316 0.4316zm0.8563-1.949v-1.754h0.9955c0.6405 0 1.051 0.2994 1.051 0.8702v0.0139c0 0.5082-0.4038 0.8702-1.051 0.8702z"/>
   <path d="m134.2 561c0 0.2437 0.188 0.4316 0.4316 0.4316h1.824c1.086 0 1.803-0.4664 1.803-1.337v-0.0139c0-0.6614-0.3968-0.9886-0.9677-1.183 0.362-0.188 0.6962-0.5012 0.6962-1.086v-0.0139c0-0.3272-0.1114-0.5917-0.3272-0.8076-0.2785-0.2785-0.717-0.4316-1.274-0.4316h-1.754c-0.2437 0-0.4316 0.188-0.4316 0.4316zm0.8424-2.388v-1.295h1.232c0.55 0 0.8563 0.2367 0.8563 0.6196v0.0139c0 0.4455-0.369 0.6614-0.9189 0.6614zm0 2.061v-1.337h1.358c0.6753 0 1.002 0.2436 1.002 0.6544v0.0139c0 0.4386-0.355 0.6683-0.9398 0.6683z"/>
  </g>
  <rect x="46" y="567.5" width="58" height="21" rx="3" ry="3" fill="#fff" fill-opacity=".9823" stroke="#000" stroke-linecap="round" stroke-linejoin="round" stroke-miterlimit="3.268"/>
  <g>
   <path d="m59.83 573.3 0.3219 0.333-0.3552 4.04h-0.1998l-0.1332-0.1443-0.6216-0.677 0.2442-2.875zm-0.4551 5.206 0.1554-0.1443h0.1998l-0.3441 4.04-0.3774 0.333-0.6216-0.677 0.2442-2.864z"/>
   <path d="m62.81 582.7-0.3219-0.333 0.3552-4.04h0.1998l0.1332 0.1443 0.6216 0.677-0.2442 2.875zm1.354-9.923 0.3663-0.3441h4.517l0.3108 0.3441-0.7436 0.6882h-3.829zm4.273 4.695 0.4662 0.5106-0.555 0.5106h-4.173l-0.4662-0.5106 0.555-0.5106zm1.365-4.207 0.3219 0.333-0.3552 4.04h-0.1998l-0.1332-0.1443-0.6216-0.677 0.2442-2.875zm-1.354 9.923-0.3663 0.3441h-4.517l-0.3108-0.3441 0.7436-0.6882h3.829z"/>
   <path d="m72.78 582.7-0.3219-0.333 0.3552-4.04h0.1998l0.1332 0.1443 0.6216 0.677-0.2442 2.875zm0.4551-5.206-0.1554 0.1443h-0.1998l0.3441-4.029 0.3774-0.3441 0.6216 0.677-0.2442 2.875zm0.899-4.717 0.3663-0.3441h4.517l0.3108 0.3441-0.7436 0.6882h-3.829zm5.638 0.4884 0.3219 0.333-0.3552 4.04h-0.1998l-0.1332-0.1443-0.6216-0.677 0.2442-2.875zm-1.354 9.923-0.3663 0.3441h-4.517l-0.3108-0.3441 0.7436-0.6882h3.829zm0.899-4.717 0.1554-0.1443h0.1998l-0.3441 4.04-0.3774 0.333-0.6216-0.677 0.2442-2.864z"/>
   <path d="m81.87 582.6q0.0555 0.1332 0.0555 0.2664t-0.0555 0.2664-0.1443 0.222q-0.08879 0.0888-0.222 0.1443-0.1332 0.0555-0.2664 0.0555t-0.2664-0.0555q-0.1332-0.0555-0.222-0.1443-0.08879-0.0888-0.1443-0.222-0.05549-0.1332-0.05549-0.2664t0.05549-0.2664q0.0555-0.1332 0.1443-0.222 0.08879-0.0888 0.222-0.1443 0.1332-0.0555 0.2664-0.0555t0.2664 0.0555q0.1332 0.0555 0.222 0.1443 0.08879 0.0888 0.1443 0.222z"/>
   <path d="m83.82 582.9-0.2615-0.2705 0.2886-3.282h0.1623l0.1082 0.1172 0.505 0.55-0.1984 2.335zm0.3697-4.229-0.1262 0.1172h-0.1623l0.2795-3.273 0.3066-0.2795 0.505 0.55-0.1984 2.335zm0.7304-3.832 0.2976-0.2795h3.67l0.2525 0.2795-0.6042 0.5591h-3.111zm4.581 0.3968 0.2615 0.2705-0.2886 3.282h-0.1623l-0.1082-0.1172-0.505-0.55 0.1984-2.335zm-1.1 8.061-0.2976 0.2795h-3.67l-0.2525-0.2795 0.6042-0.5591h3.111zm0.7304-3.832 0.1262-0.1172h0.1623l-0.2795 3.282-0.3066 0.2705-0.505-0.55 0.1984-2.326z"/>
   <path d="m91.18 582.9-0.2615-0.2705 0.2886-3.282h0.1623l0.1082 0.1172 0.505 0.55-0.1984 2.335zm0.3697-4.229-0.1262 0.1172h-0.1623l0.2795-3.273 0.3066-0.2795 0.505 0.55-0.1984 2.335zm0.7304-3.832 0.2976-0.2795h3.67l0.2525 0.2795-0.6042 0.5591h-3.111zm4.581 0.3968 0.2615 0.2705-0.2885 3.282h-0.1623l-0.1082-0.1172-0.505-0.55 0.1984-2.335zm-1.1 8.061-0.2976 0.2795h-3.67l-0.2525-0.2795 0.6042-0.5591h3.111zm0.7304-3.832 0.1262-0.1172h0.1623l-0.2795 3.282-0.3066 0.2705-0.505-0.55 0.1984-2.326z"/>
   <path d="m47.97 609.5c0.7867 0 1.309-0.2506 1.768-0.6544 0.07658-0.0696 0.1392-0.174 0.1392-0.3063 0-0.2158-0.188-0.3968-0.4038-0.3968-0.1044 0-0.1949 0.0418-0.2576 0.0975-0.355 0.2994-0.7031 0.4664-1.218 0.4664-0.9329 0-1.608-0.7728-1.608-1.726v-0.0139c0-0.9537 0.6822-1.72 1.608-1.72 0.4664 0 0.8284 0.1671 1.163 0.4386 0.05569 0.0418 0.1392 0.0835 0.2576 0.0835 0.2367 0 0.4247-0.181 0.4247-0.4177 0-0.1532-0.07658-0.2715-0.1671-0.3411-0.4247-0.3272-0.9189-0.55-1.671-0.55-1.476 0-2.513 1.135-2.513 2.52v0.0139c0 1.399 1.058 2.506 2.478 2.506z"/>
   <path d="m50.84 609c0 0.2437 0.188 0.4316 0.4316 0.4316h2.632c0.2158 0 0.3899-0.174 0.3899-0.3898s-0.174-0.3898-0.3899-0.3898h-2.207v-3.704c0-0.2367-0.188-0.4247-0.4247-0.4247-0.2437 0-0.4316 0.188-0.4316 0.4247z"/>
   <path d="m57.21 609.5c1.497 0 2.555-1.149 2.555-2.52v-0.0139c0-1.371-1.044-2.506-2.541-2.506s-2.555 1.149-2.555 2.52v0.0139c0 1.371 1.044 2.506 2.541 2.506zm0.01392-0.7936c-0.9677 0-1.657-0.7797-1.657-1.726v-0.0139c0-0.9468 0.6753-1.72 1.643-1.72s1.657 0.7867 1.657 1.733v0.0139c0 0.9468-0.6753 1.713-1.643 1.713z"/>
   <path d="m63.06 609.5c0.7867 0 1.309-0.2506 1.768-0.6544 0.07658-0.0696 0.1392-0.174 0.1392-0.3063 0-0.2158-0.188-0.3968-0.4038-0.3968-0.1044 0-0.1949 0.0418-0.2576 0.0975-0.355 0.2994-0.7031 0.4664-1.218 0.4664-0.9329 0-1.608-0.7728-1.608-1.726v-0.0139c0-0.9537 0.6822-1.72 1.608-1.72 0.4664 0 0.8284 0.1671 1.163 0.4386 0.05569 0.0418 0.1392 0.0835 0.2576 0.0835 0.2367 0 0.4247-0.181 0.4247-0.4177 0-0.1532-0.07658-0.2715-0.1671-0.3411-0.4247-0.3272-0.9189-0.55-1.671-0.55-1.476 0-2.513 1.135-2.513 2.52v0.0139c0 1.399 1.058 2.506 2.478 2.506z"/>
   <path d="m65.94 609c0 0.2367 0.188 0.4247 0.4316 0.4247 0.2367 0 0.4247-0.188 0.4247-0.4247v-1.009l0.7936-0.7658 1.566 1.998c0.0905 0.1184 0.1949 0.2019 0.362 0.2019 0.2437 0 0.4316-0.181 0.4316-0.4177 0-0.1323-0.04873-0.2158-0.1183-0.3063l-1.643-2.04 1.518-1.462c0.09746-0.0905 0.1532-0.188 0.1532-0.3202 0-0.2088-0.1601-0.3968-0.3968-0.3968-0.1532 0-0.2576 0.0557-0.355 0.1601l-2.311 2.325v-2.061c0-0.2367-0.188-0.4247-0.4247-0.4247-0.2437 0-0.4316 0.188-0.4316 0.4247z"/>
   <path d="m81.11 609c0 0.2367 0.188 0.4247 0.4316 0.4247 0.2367 0 0.4247-0.188 0.4247-0.4247v-1.177h0.9677c1.072 0 1.949-0.5708 1.949-1.664v-0.0139c0-0.9816-0.7101-1.629-1.852-1.629h-1.49c-0.2437 0-0.4316 0.188-0.4316 0.4316zm0.8563-1.949v-1.754h0.9955c0.6405 0 1.051 0.2994 1.051 0.8702v0.0139c0 0.5082-0.4038 0.8702-1.051 0.8702z"/>
   <path d="m85.76 609c0 0.2367 0.188 0.4247 0.4316 0.4247 0.2367 0 0.4247-0.188 0.4247-0.4247v-1.664h2.325v1.664c0 0.2367 0.188 0.4247 0.4247 0.4247 0.2437 0 0.4316-0.188 0.4316-0.4247v-4.093c0-0.2367-0.188-0.4247-0.4316-0.4247-0.2367 0-0.4247 0.188-0.4247 0.4247v1.636h-2.325v-1.636c0-0.2367-0.188-0.4247-0.4247-0.4247-0.2437 0-0.4316 0.188-0.4316 0.4247z"/>
   <path d="m90.71 609.1c0 0.2228 0.174 0.3968 0.3968 0.3968 0.181 0 0.3272-0.0975 0.3968-0.2715l0.4107-0.9398h2.367l0.3968 0.912c0.07658 0.181 0.2158 0.2994 0.4177 0.2994 0.2297 0 0.4038-0.181 0.4038-0.4107 0-0.0557-0.01392-0.1183-0.04873-0.181l-1.81-4.038c-0.09746-0.2158-0.2645-0.3481-0.5082-0.3481h-0.04177c-0.2437 0-0.4177 0.1323-0.5152 0.3481l-1.81 4.038c-0.03481 0.0696-0.05569 0.1323-0.05569 0.1949zm1.532-1.573 0.8563-1.97 0.8563 1.97z"/>
   <path d="m98.08 609.5c1.023 0 1.74-0.543 1.74-1.455v-0.0139c0-0.8076-0.5291-1.177-1.559-1.427-0.9398-0.2228-1.163-0.3898-1.163-0.7658v-0.0139c0-0.3202 0.2924-0.5778 0.7936-0.5778 0.3829 0 0.7449 0.1253 1.121 0.369 0.06962 0.0418 0.1392 0.0627 0.2228 0.0627 0.2228 0 0.4038-0.174 0.4038-0.3968 0-0.1671-0.0905-0.2854-0.188-0.3411-0.4386-0.2924-0.9329-0.4525-1.545-0.4525-0.9677 0-1.664 0.5778-1.664 1.413v0.0139c0 0.898 0.5848 1.204 1.622 1.455 0.905 0.2088 1.1 0.3968 1.1 0.7449v0.0139c0 0.362-0.3342 0.6126-0.8632 0.6126-0.5291 0-0.9607-0.181-1.364-0.5012-0.05569-0.0418-0.1323-0.0766-0.2506-0.0766-0.2228 0-0.4038 0.174-0.4038 0.3968 0 0.1392 0.06962 0.2576 0.1671 0.3272 0.543 0.4038 1.17 0.6126 1.831 0.6126z"/>
   <path d="m101.3 609.4h2.868c0.2088 0 0.3829-0.1671 0.3829-0.3829 0-0.2088-0.174-0.3829-0.3829-0.3829h-2.444v-1.309h2.095c0.2088 0 0.3829-0.1671 0.3829-0.3759 0-0.2158-0.174-0.3898-0.3829-0.3898h-2.095v-1.267h2.409c0.2088 0 0.3829-0.1671 0.3829-0.3829 0-0.2088-0.174-0.3829-0.3829-0.3829h-2.833c-0.2437 0-0.4316 0.188-0.4316 0.4316v4.01c0 0.2437 0.188 0.4316 0.4316 0.4316z"/>
   <path d="m15.9 560c0 0.2367 0.188 0.4247 0.4316 0.4247 0.2367 0 0.4247-0.188 0.4247-0.4247v-1.309h1.079l1.183 1.511c0.09746 0.1323 0.2228 0.2228 0.4177 0.2228 0.2088 0 0.4107-0.1601 0.4107-0.3968 0-0.1323-0.05569-0.2228-0.1392-0.3272l-0.9329-1.177c0.6544-0.2019 1.107-0.6753 1.107-1.455v-0.0139c0-0.4247-0.1462-0.7867-0.4038-1.051-0.3133-0.3063-0.7936-0.4873-1.406-0.4873h-1.74c-0.2437 0-0.4316 0.188-0.4316 0.4316zm0.8563-2.068v-1.636h1.246c0.6335 0 1.009 0.2854 1.009 0.8076v0.0139c0 0.4943-0.3899 0.8145-1.002 0.8145z"/>
   <path d="m21.37 560.4h2.868c0.2088 0 0.3829-0.1671 0.3829-0.3829 0-0.2088-0.174-0.3829-0.3829-0.3829h-2.444v-1.309h2.095c0.2088 0 0.3829-0.1671 0.3829-0.3759 0-0.2158-0.174-0.3899-0.3829-0.3899h-2.095v-1.267h2.409c0.2088 0 0.3829-0.1671 0.3829-0.3829 0-0.2088-0.174-0.3829-0.3829-0.3829h-2.833c-0.2437 0-0.4316 0.188-0.4316 0.4316v4.01c0 0.2437 0.188 0.4316 0.4316 0.4316z"/>
   <path d="m27.5 560.5h0.04873c0.2437 0 0.4038-0.1323 0.4943-0.3481l1.713-4.038c0.02088-0.0487 0.04177-0.1183 0.04177-0.181 0-0.2297-0.188-0.4107-0.4247-0.4107-0.2019 0-0.355 0.1323-0.4107 0.2785l-1.427 3.543-1.406-3.516c-0.06962-0.181-0.2158-0.3063-0.4386-0.3063-0.2437 0-0.4316 0.188-0.4316 0.4177 0 0.0766 0.02088 0.1392 0.04873 0.2019l1.706 4.01c0.0905 0.2158 0.2506 0.3481 0.4873 0.3481z"/>
   <path d="m58.34 475.3c1.338 0 2.222-0.3942 2.974-1.051 0.1672-0.1433 0.3106-0.3703 0.3106-0.657 0-0.4658-0.3942-0.8481-0.86-0.8481-0.215 0-0.4061 0.0836-0.5494 0.2031-0.5256 0.4181-1.039 0.657-1.816 0.657-1.433 0-2.425-1.194-2.425-2.628v-0.0239c0-1.433 1.015-2.604 2.425-2.604 0.6569 0 1.194 0.215 1.708 0.5972 0.1314 0.0836 0.2986 0.1792 0.5494 0.1792 0.5017 0 0.9078-0.3942 0.9078-0.8958 0-0.3225-0.1672-0.5853-0.3583-0.7286-0.6928-0.5136-1.541-0.8481-2.795-0.8481-2.568 0-4.36 1.947-4.36 4.324v0.0239c0 2.401 1.828 4.3 4.288 4.3z"/>
   <path d="m63.24 474.2c0 0.5136 0.4061 0.9197 0.9197 0.9197h4.324c0.4658 0 0.8361-0.3703 0.8361-0.8361s-0.3703-0.8361-0.8361-0.8361h-3.404v-5.841c0-0.5136-0.4061-0.9197-0.9197-0.9197s-0.9197 0.4061-0.9197 0.9197z"/>
   <path d="m74.23 475.3c2.58 0 4.455-1.947 4.455-4.324v-0.0239c0-2.377-1.851-4.3-4.431-4.3s-4.455 1.947-4.455 4.324v0.0239c0 2.377 1.851 4.3 4.431 4.3zm0.02389-1.696c-1.481 0-2.532-1.194-2.532-2.628v-0.0239c0-1.433 1.027-2.604 2.508-2.604 1.481 0 2.532 1.194 2.532 2.628v0.0239c0 1.433-1.027 2.604-2.508 2.604z"/>
   <path d="m84.23 475.3c1.338 0 2.222-0.3942 2.974-1.051 0.1672-0.1433 0.3106-0.3703 0.3106-0.657 0-0.4658-0.3942-0.8481-0.86-0.8481-0.215 0-0.4061 0.0836-0.5494 0.2031-0.5256 0.4181-1.039 0.657-1.816 0.657-1.433 0-2.425-1.194-2.425-2.628v-0.0239c0-1.433 1.015-2.604 2.425-2.604 0.6569 0 1.194 0.215 1.708 0.5972 0.1314 0.0836 0.2986 0.1792 0.5494 0.1792 0.5017 0 0.9078-0.3942 0.9078-0.8958 0-0.3225-0.1672-0.5853-0.3583-0.7286-0.6928-0.5136-1.541-0.8481-2.795-0.8481-2.568 0-4.36 1.947-4.36 4.324v0.0239c0 2.401 1.828 4.3 4.288 4.3z"/>
   <path d="m89.13 474.3c0 0.5136 0.4061 0.9197 0.9197 0.9197 0.5136 0 0.9197-0.4061 0.9197-0.9197v-1.672l1.051-0.9794 2.389 3.129c0.2031 0.2628 0.4181 0.4419 0.7764 0.4419 0.5375 0 0.9317-0.3822 0.9317-0.8958 0-0.2747-0.1075-0.4658-0.2508-0.645l-2.568-3.225 2.353-2.198c0.2031-0.1911 0.3344-0.4061 0.3344-0.6928 0-0.4539-0.3344-0.8481-0.8481-0.8481-0.3225 0-0.5494 0.1314-0.7764 0.3583l-3.392 3.368v-2.807c0-0.5136-0.4061-0.9197-0.9197-0.9197-0.5136 0-0.9197 0.4061-0.9197 0.9197z"/>
  </g>
  <g fill="#fff" stroke="#000" stroke-miterlimit="3.268">
   <g stroke-linecap="round" stroke-linejoin="round">
    <rect x="119" y="449.5" width="17" height="9" rx="4.5" ry="4.5"/>
    <rect x="119" y="814.5" width="17" height="9" rx="4.5" ry="4.5"/>
    <rect x="14" y="449.5" width="17" height="9" rx="4.5" ry="4.5"/>
    <rect x="14" y="814.5" width="17" height="9" rx="4.5" ry="4.5"/>
   </g>
   <path d="m22.5 543c-6.627 0-12.02-5.389-12.02-12.02 0-6.627 5.389-12.02 12.02-12.02 6.627 0 12.02 5.389 12.02 12.02 0 6.628-5.389 12.02-12.02 12.02"/>
   <path d="m22.5 538.6c-4.2 0-7.616-3.416-7.616-7.616 0-4.2 3.416-7.616 7.616-7.616 4.2 0 7.616 3.416 7.616 7.616 0 4.2-3.416 7.616-7.616 7.616"/>
  </g>
  <g>
   <path d="m27.84 531c0 2.946-2.39 5.336-5.336 5.336-2.946 0-5.336-2.39-5.336-5.336 0-2.946 2.39-5.336 5.336-5.336s5.336 2.39 5.336 5.336"/>
   <circle cx="75" cy="531" r="21.69" fill="#fff" stroke="#000" stroke-linecap="round" stroke-linejoin="bevel" stroke-miterlimit="3.268"/>
   <path d="m75 507.3-1.48-0.9663c-0.3792 0.019-0.7561 0.045-1.119 0.084l-2.639 14.76v1.534c-2.843 1.796-4.567 4.924-4.568 8.287 4e-3 3.36 1.728 6.484 4.568 8.279v15.83c1.72 0.3832 3.476 0.5813 5.238 0.5908 1.762-0.01 3.518-0.206 5.238-0.5882v-15.82c2.843-1.797 4.568-4.926 4.568-8.289-4e-3 -3.36-1.728-6.484-4.568-8.279v-1.542l-2.517-14.71c-0.4195-0.049-0.8401-0.087-1.262-0.1146l-1.46 0.9484z" fill="#fff" stroke="#000" stroke-linecap="round" stroke-linejoin="bevel" stroke-miterlimit="3.268"/>
   <rect x="73.53" y="506.3" width="2.937" height="11.55"/>
  </g>
  <g fill="#fff" stroke="#000" stroke-miterlimit="3.268">
   <circle cx="75" cy="531" r="5.866" stroke-linecap="round" stroke-linejoin="bevel"/>
   <path d="m78.57 528.9 0.1172 2.063-0.1172 2.063-1.728 1.133-1.845 0.9302-1.845-0.9302-1.728-1.133-0.1172-2.063 0.1172-2.063 1.728-1.133 1.845-0.9301 1.845 0.9301z" stroke-linecap="round" stroke-linejoin="round"/>
   <path d="m22.5 639c-6.627 0-12.02-5.389-12.02-12.02s5.389-12.02 12.02-12.02c6.627 0 12.02 5.389 12.02 12.02s-5.389 12.02-12.02 12.02"/>
   <path d="m22.5 634.6c-4.2 0-7.616-3.416-7.616-7.616s3.416-7.616 7.616-7.616c4.2 0 7.616 3.416 7.616 7.616s-3.416 7.616-7.616 7.616"/>
  </g>
  <g>
   <path d="m27.84 627c0 2.946-2.39 5.336-5.336 5.336-2.946 0-5.336-2.39-5.336-5.336 0-2.946 2.39-5.336 5.336-5.336s5.336 2.39 5.336 5.336"/>
   <path d="m57.5 639c-6.627 0-12.02-5.389-12.02-12.02s5.389-12.02 12.02-12.02c6.627 0 12.02 5.389 12.02 12.02s-5.389 12.02-12.02 12.02" fill="#fff" stroke="#000" stroke-miterlimit="3.268"/>
   <path d="m57.5 634.6c-4.2 0-7.616-3.416-7.616-7.616s3.416-7.616 7.616-7.616c4.2 0 7.616 3.416 7.616 7.616s-3.416 7.616-7.616 7.616" fill="#fff" stroke="#000" stroke-miterlimit="3.268"/>
   <path d="m62.84 627c0 2.946-2.39 5.336-5.336 5.336-2.946 0-5.336-2.39-5.336-5.336 0-2.946 2.39-5.336 5.336-5.336 2.946 0 5.336 2.39 5.336 5.336"/>
   <path d="m92.5 639c-6.627 0-12.02-5.389-12.02-12.02s5.389-12.02 12.02-12.02 12.02 5.389 12.02 12.02-5.389 12.02-12.02 12.02" fill="#fff" stroke="#000" stroke-miterlimit="3.268"/>
   <path d="m92.5 634.6c-4.2 0-7.616-3.416-7.616-7.616s3.416-7.616 7.616-7.616c4.2 0 7.616 3.416 7.616 7.616s-3.416 7.616-7.616 7.616" fill="#fff" stroke="#000" stroke-miterlimit="3.268"/>
   <path d="m97.84 627c0 2.946-2.39 5.336-5.336 5.336s-5.336-2.39-5.336-5.336c0-2.946 2.39-5.336 5.336-5.336s5.336 2.39 5.336 5.336"/>
   <path d="m127.5 639c-6.627 0-12.02-5.389-12.02-12.02s5.389-12.02 12.02-12.02 12.02 5.389 12.02 12.02-5.389 12.02-12.02 12.02" fill="#fff" stroke="#000" stroke-miterlimit="3.268"/>
   <path d="m127.5 634.6c-4.2 0-7.616-3.416-7.616-7.616s3.416-7.616 7.616-7.616c4.2 0 7.616 3.416 7.616 7.616s-3.416 7.616-7.616 7.616" fill="#fff" stroke="#000" stroke-miterlimit="3.268"/>
   <path d="m132.8 627c0 2.946-2.39 5.336-5.336 5.336s-5.336-2.39-5.336-5.336c0-2.946 2.39-5.336 5.336-5.336s5.336 2.39 5.336 5.336"/>
  </g>
  <g fill="#fff" stroke="#000" stroke-miterlimit="3.268">
   <rect x="113" y="674.5" width="29" height="31" rx="3" ry="3" stroke-linecap="round" stroke-linejoin="round"/>
   <path d="m127.5 702c-6.627 0-12.02-5.389-12.02-12.02 0-6.627 5.389-12.02 12.02-12.02s12.02 5.389 12.02 12.02c0 6.627-5.389 12.02-12.02 12.02"/>
   <path d="m127.5 697.6c-4.2 0-7.616-3.416-7.616-7.616 0-4.2 3.416-7.616 7.616-7.616s7.616 3.416 7.616 7.616c0 4.2-3.416 7.616-7.616 7.616"/>
  </g>
  <path d="m132.8 690c0 2.946-2.39 5.336-5.336 5.336s-5.336-2.39-5.336-5.336c0-2.946 2.39-5.336 5.336-5.336s5.336 2.39 5.336 5.336"/>
  <g fill="#fff" stroke="#000" stroke-miterlimit="3.268">
   <rect x="8" y="674.5" width="29" height="31" rx="3" ry="3" stroke-linecap="round" stroke-linejoin="round"/>
   <path d="m22.47 702c-6.627 0-12.02-5.389-12.02-12.02 0-6.627 5.389-12.02 12.02-12.02s12.02 5.389 12.02 12.02c0 6.627-5.389 12.02-12.02 12.02"/>
   <path d="m22.47 697.6c-4.2 0-7.616-3.416-7.616-7.616 0-4.2 3.416-7.616 7.616-7.616s7.616 3.416 7.616 7.616c0 4.2-3.416 7.616-7.616 7.616"/>
  </g>
  <path d="m27.81 690c0 2.946-2.39 5.336-5.336 5.336s-5.336-2.39-5.336-5.336c0-2.946 2.39-5.336 5.336-5.336s5.336 2.39 5.336 5.336"/>
  <rect x="43" y="722.5" width="29" height="21" rx="3" ry="3" fill="#fff" fill-opacity=".9823" stroke="#000" stroke-linecap="round" stroke-linejoin="round" stroke-miterlimit="3.268"/>
  <path d="m49.48 732.5-0.1554 0.1443h-0.1998l0.3441-4.029 0.3774-0.3441 0.6216 0.677-0.2442 2.875zm0.899-4.717 0.3663-0.3441h4.517l0.3108 0.3441-0.7436 0.6882h-3.829zm4.273 4.695 0.4662 0.5106-0.555 0.5106h-4.173l-0.4662-0.5106 0.555-0.5106zm0.0111 5.716-0.3663 0.3441h-4.517l-0.3108-0.3441 0.7436-0.6882h3.829zm0.899-4.717 0.1554-0.1443h0.1998l-0.3441 4.04-0.3774 0.333-0.6216-0.677 0.2442-2.864z"/>
  <path d="m59 737.7-0.3219-0.333 0.3552-4.04h0.1998l0.1332 0.1443 0.6216 0.677-0.2442 2.875zm0.4551-5.206-0.1554 0.1443h-0.1998l0.3441-4.029 0.3774-0.3441 0.6216 0.677-0.2442 2.875zm0.899-4.717 0.3663-0.3441h4.517l0.3108 0.3441-0.7436 0.6882h-3.829zm5.638 0.4884 0.3219 0.333-0.3552 4.04h-0.1998l-0.1332-0.1443-0.6216-0.6771 0.2442-2.875zm-1.354 9.923-0.3663 0.3441h-4.517l-0.3108-0.3441 0.7436-0.6882h3.829zm0.899-4.717 0.1554-0.1443h0.1998l-0.3441 4.04-0.3774 0.333-0.6216-0.677 0.2442-2.864z"/>
  <rect x="78" y="722.5" width="29" height="21" rx="3" ry="3" fill="#fff" fill-opacity=".9823" stroke="#000" stroke-linecap="round" stroke-linejoin="round" stroke-miterlimit="3.268"/>
  <g>
   <path d="m84.48 732.5-0.1554 0.1443h-0.1998l0.3441-4.029 0.3774-0.3441 0.6216 0.677-0.2442 2.875zm0.899-4.717 0.3663-0.3441h4.517l0.3108 0.3441-0.7436 0.6882h-3.829zm4.273 4.695 0.4662 0.5106-0.555 0.5106h-4.173l-0.4662-0.5106 0.555-0.5106zm0.0111 5.716-0.3663 0.3441h-4.517l-0.3108-0.3441 0.7436-0.6882h3.829zm0.899-4.717 0.1554-0.1443h0.1998l-0.3441 4.04-0.3774 0.333-0.6216-0.677 0.2442-2.864z"/>
   <path d="m94 737.7-0.3219-0.333 0.3552-4.04h0.1998l0.1332 0.1443 0.6216 0.677-0.2442 2.875zm0.4551-5.206-0.1554 0.1443h-0.1998l0.3441-4.029 0.3774-0.3441 0.6216 0.677-0.2442 2.875zm0.899-4.717 0.3663-0.3441h4.517l0.3108 0.3441-0.7436 0.6882h-3.829zm5.638 0.4884 0.3219 0.333-0.3552 4.04h-0.1998l-0.1332-0.1443-0.6216-0.6771 0.2442-2.875zm-1.354 9.923-0.3663 0.3441h-4.517l-0.3108-0.3441 0.7436-0.6882h3.829zm0.899-4.717 0.1554-0.1443h0.1998l-0.3441 4.04-0.3774 0.333-0.6216-0.677 0.2442-2.864z"/>
   <g>
    <path d="m127.5 790c-6.627 0-12.02-5.389-12.02-12.02s5.389-12.02 12.02-12.02 12.02 5.389 12.02 12.02-5.389 12.02-12.02 12.02" fill="#fff" stroke="#000" stroke-miterlimit="3.268"/>
    <path d="m127.5 785.6c-4.2 0-7.616-3.416-7.616-7.616s3.416-7.616 7.616-7.616c4.2 0 7.616 3.416 7.616 7.616s-3.416 7.616-7.616 7.616" fill="#fff" stroke="#000" stroke-miterlimit="3.268"/>
    <path d="m132.8 778c0 2.946-2.39 5.336-5.336 5.336s-5.336-2.39-5.336-5.336c0-2.946 2.39-5.336 5.336-5.336s5.336 2.39 5.336 5.336"/>
    <path d="m22.5 790c-6.627 0-12.02-5.389-12.02-12.02s5.389-12.02 12.02-12.02 12.02 5.389 12.02 12.02-5.389 12.02-12.02 12.02" fill="#fff" stroke="#000" stroke-miterlimit="3.268"/>
    <path d="m22.5 785.6c-4.2 0-7.616-3.416-7.616-7.616s3.416-7.616 7.616-7.616 7.616 3.416 7.616 7.616-3.416 7.616-7.616 7.616" fill="#fff" stroke="#000" stroke-miterlimit="3.268"/>
   </g>
  </g>
  <g>
   <path d="m27.84 778c0 2.946-2.39 5.336-5.336 5.336s-5.336-2.39-5.336-5.336c0-2.946 2.39-5.336 5.336-5.336s5.336 2.39 5.336 5.336"/>
   <path d="m117.5 760.5c1.023 0 1.74-0.543 1.74-1.455v-0.0139c0-0.8076-0.5291-1.177-1.559-1.427-0.9398-0.2228-1.163-0.3899-1.163-0.7658v-0.0139c0-0.3202 0.2924-0.5778 0.7936-0.5778 0.3829 0 0.7449 0.1253 1.121 0.369 0.0696 0.0418 0.1392 0.0627 0.2228 0.0627 0.2228 0 0.4038-0.174 0.4038-0.3968 0-0.1671-0.0905-0.2854-0.188-0.3411-0.4386-0.2924-0.9329-0.4525-1.545-0.4525-0.9677 0-1.664 0.5778-1.664 1.413v0.0139c0 0.8981 0.5848 1.204 1.622 1.455 0.905 0.2088 1.1 0.3968 1.1 0.7449v0.0139c0 0.362-0.3342 0.6126-0.8632 0.6126-0.5291 0-0.9607-0.181-1.364-0.5012-0.0557-0.0418-0.1323-0.0766-0.2506-0.0766-0.2228 0-0.4038 0.174-0.4038 0.3968 0 0.1392 0.0696 0.2576 0.1671 0.3272 0.543 0.4038 1.17 0.6126 1.831 0.6126z"/>
   <path d="m121.5 760.1c0.0835 0.2228 0.2367 0.355 0.4456 0.355h0.0835c0.2088 0 0.369-0.1323 0.4455-0.355l1.086-3.181 1.086 3.181c0.0766 0.2228 0.2297 0.355 0.4386 0.355h0.0835c0.2088 0 0.369-0.1392 0.4456-0.355l1.441-4.038c0.0209-0.0487 0.0418-0.1184 0.0418-0.174 0-0.2297-0.1949-0.4107-0.4247-0.4107-0.2088 0-0.355 0.1323-0.4177 0.3063l-1.121 3.356-1.1-3.335c-0.0626-0.2019-0.2158-0.3411-0.4316-0.3411h-0.0627c-0.2158 0-0.362 0.1392-0.4316 0.3411l-1.1 3.335-1.121-3.349c-0.0557-0.181-0.2158-0.3133-0.4247-0.3133-0.2367 0-0.4386 0.181-0.4386 0.4177 0 0.0557 0.0139 0.1184 0.0348 0.1671z"/>
   <path d="m128.1 760c0 0.2367 0.188 0.4247 0.4316 0.4247 0.2367 0 0.4247-0.188 0.4247-0.4247v-4.093c0-0.2367-0.188-0.4247-0.4247-0.4247-0.2437 0-0.4316 0.188-0.4316 0.4247z"/>
   <path d="m130 760c0 0.2297 0.188 0.4177 0.4247 0.4177 0.2297 0 0.4177-0.188 0.4177-0.4177v-3.091l2.506 3.244c0.1184 0.1532 0.2437 0.2576 0.4456 0.2576h0.0348c0.2367 0 0.4177-0.188 0.4177-0.4247v-4.093c0-0.2297-0.188-0.4177-0.4247-0.4177-0.2297 0-0.4177 0.188-0.4177 0.4177v2.994l-2.437-3.154c-0.1184-0.1462-0.2367-0.2506-0.4456-0.2506h-0.0905c-0.2437 0-0.4316 0.1949-0.4316 0.4316z"/>
   <path d="m137.5 760.5c0.731 0 1.316-0.2506 1.733-0.5291 0.2019-0.1253 0.2994-0.2994 0.2994-0.543v-1.302c0-0.2436-0.188-0.4316-0.4316-0.4316h-1.358c-0.2088 0-0.3829 0.1671-0.3829 0.3759s0.174 0.369 0.3829 0.369h0.9607v0.912c-0.2994 0.2228-0.717 0.369-1.177 0.369-0.9955 0-1.657-0.7379-1.657-1.74v-0.0139c0-0.9329 0.6822-1.72 1.58-1.72 0.5291 0 0.8702 0.1532 1.183 0.3829 0.0696 0.0487 0.1532 0.0975 0.2646 0.0975 0.2367 0 0.4247-0.1949 0.4247-0.4247 0-0.1671-0.0905-0.2854-0.174-0.3481-0.4456-0.3202-0.9329-0.4943-1.664-0.4943-1.469 0-2.513 1.156-2.513 2.52v0.0139c0 1.42 1.002 2.506 2.527 2.506z"/>
   <circle cx="22.5" cy="657" r="11"/>
  </g>
  <g>
   <circle cx="22.5" cy="657" r="9" fill="#fff"/>
   <circle cx="22.5" cy="578" r="11"/>
   <circle cx="22.5" cy="578" r="9" fill="#fff"/>
   <circle cx="127.5" cy="657" r="11"/>
   <circle cx="127.5" cy="657" r="9" fill="#fff"/>
   <circle cx="127.5" cy="733" r="10.5" fill="#fff" stroke="#000" stroke-linecap="round" stroke-linejoin="bevel" stroke-miterlimit="3.268"/>
   <path d="m127.5 722.4c-0.4979 0-0.9949 0.043-1.486 0.1229v9.949h2.975v-9.943c-0.492-0.082-0.9896-0.1251-1.488-0.1289z"/>
   <circle cx="22.5" cy="733" r="10.5" fill="#fff" stroke="#000" stroke-linecap="round" stroke-linejoin="bevel" stroke-miterlimit="3.268"/>
   <path d="m22.5 722.4c-0.4979 0-0.9949 0.043-1.486 0.1229v9.949h2.975v-9.943c-0.492-0.082-0.9896-0.1251-1.488-0.1289z"/>
  </g>
  <g fill="#fff" stroke="#000" stroke-linecap="round" stroke-linejoin="round" stroke-miterlimit="3.268">
   <circle cx="68.5" cy="616" r="1.719"/>
   <circle cx="103.5" cy="616" r="1.719"/>
   <circle cx="33.5" cy="520" r="1.719"/>
   <circle cx="96.5" cy="511" r="1.719"/>
  </g>
 </g>
</svg>
