<?xml version="1.0" encoding="UTF-8"?>
<svg width="150" height="380" version="1.1" viewBox="0 0 150 380" xmlns="http://www.w3.org/2000/svg">
 <path d="m0 0h150v380h-150z" fill="#202321" fill-rule="evenodd" style="paint-order:normal"/>
 <g fill="none" stroke="#b3b3b3" stroke-linejoin="bevel" stroke-miterlimit="0">
  <path d="m60 363.4c4.072 0.8364 11.91-1.12 13.7-2.972-2.392 2.041-9.944 3.922-8.141 5.606 0.551 0.5149 2.738 0.2782 5.042-0.403" stroke-width="1.864"/>
  <path d="m88.3 365.4c-3.36 2.152-7.712-1.436-4.722-5.148 1.217 2.294 3.189 3.308 5.884 2.763" stroke-width="1.925"/>
  <path d="m70.35 365.7c5.022-0.8864 8.216-4.22 9.742-5.934-1.624 2.496-4.138 4.828-6.857 6.433 2.185-0.8635 5.732-1.589 7.523-0.1111" stroke-width="1.864"/>
 </g>
 <path d="m0 0v380h150v-380zm1 1h148v378h-148z" fill="#808080" fill-opacity=".502"/>
 <path d="m75 102v25" fill="none" stroke="#3a3c3b" stroke-width="1px"/>
 <path d="m127.5 213v-21" fill="none" stroke="#3a3c3b" stroke-width="1px"/>
 <g fill="#ccc">
  <path d="m116.6 162.5c0 0.2367 0.188 0.4247 0.4316 0.4247 0.2367 0 0.4247-0.188 0.4247-0.4247v-1.309h1.079l1.183 1.511c0.0975 0.1323 0.2228 0.2228 0.4177 0.2228 0.2088 0 0.4107-0.1601 0.4107-0.3968 0-0.1323-0.0557-0.2228-0.1392-0.3272l-0.9329-1.177c0.6544-0.2019 1.107-0.6753 1.107-1.455v-0.0139c0-0.4247-0.1462-0.7867-0.4038-1.051-0.3133-0.3063-0.7936-0.4873-1.406-0.4873h-1.74c-0.2437 0-0.4316 0.188-0.4316 0.4316zm0.8563-2.068v-1.636h1.246c0.6335 0 1.009 0.2854 1.009 0.8076v0.0139c0 0.4943-0.3899 0.8145-1.002 0.8145z"/>
  <path d="m122.1 162.9h2.868c0.2088 0 0.3829-0.1671 0.3829-0.3829 0-0.2088-0.174-0.3829-0.3829-0.3829h-2.444v-1.309h2.095c0.2088 0 0.3829-0.1671 0.3829-0.3759 0-0.2158-0.174-0.3898-0.3829-0.3898h-2.095v-1.267h2.409c0.2088 0 0.3829-0.1671 0.3829-0.3829 0-0.2088-0.174-0.3829-0.3829-0.3829h-2.833c-0.2437 0-0.4316 0.188-0.4316 0.4316v4.01c0 0.2437 0.188 0.4316 0.4316 0.4316z"/>
  <path d="m128 163c1.023 0 1.74-0.543 1.74-1.455v-0.0139c0-0.8076-0.5291-1.177-1.559-1.427-0.9398-0.2228-1.163-0.3898-1.163-0.7658v-0.0139c0-0.3202 0.2924-0.5778 0.7936-0.5778 0.3829 0 0.7449 0.1253 1.121 0.369 0.0696 0.0418 0.1392 0.0627 0.2228 0.0627 0.2228 0 0.4038-0.174 0.4038-0.3968 0-0.1671-0.0905-0.2854-0.188-0.3411-0.4386-0.2924-0.9329-0.4525-1.545-0.4525-0.9677 0-1.664 0.5778-1.664 1.413v0.0139c0 0.898 0.5848 1.204 1.622 1.455 0.905 0.2088 1.1 0.3968 1.1 0.7449v0.0139c0 0.362-0.3342 0.6126-0.8632 0.6126-0.5291 0-0.9607-0.181-1.364-0.5012-0.0557-0.0418-0.1323-0.0766-0.2506-0.0766-0.2228 0-0.4038 0.174-0.4038 0.3968 0 0.1392 0.0696 0.2576 0.1671 0.3272 0.543 0.4038 1.17 0.6126 1.831 0.6126z"/>
  <path d="m131.2 162.9h2.868c0.2088 0 0.3829-0.1671 0.3829-0.3829 0-0.2088-0.174-0.3829-0.3829-0.3829h-2.444v-1.309h2.095c0.2088 0 0.3829-0.1671 0.3829-0.3759 0-0.2158-0.174-0.3898-0.3829-0.3898h-2.095v-1.267h2.409c0.2088 0 0.3829-0.1671 0.3829-0.3829 0-0.2088-0.174-0.3829-0.3829-0.3829h-2.833c-0.2437 0-0.4316 0.188-0.4316 0.4316v4.01c0 0.2437 0.188 0.4316 0.4316 0.4316z"/>
  <path d="m136.7 162.5c0 0.2367 0.1949 0.4247 0.4316 0.4247s0.4316-0.188 0.4316-0.4247v-3.69h1.19c0.2158 0 0.3898-0.181 0.3898-0.3968s-0.174-0.3968-0.3898-0.3968h-3.237c-0.2228 0-0.3968 0.181-0.3968 0.3968s0.174 0.3968 0.3968 0.3968h1.183z"/>
  <path d="m64.65 48.5c0 0.3487 0.269 0.6177 0.6177 0.6177h2.61c1.554 0 2.58-0.6675 2.58-1.913v-0.0199c0-0.9465-0.5679-1.415-1.385-1.694 0.5181-0.269 0.9963-0.7174 0.9963-1.554v-0.0199c0-0.4683-0.1594-0.8469-0.4683-1.156-0.3985-0.3985-1.026-0.6177-1.823-0.6177h-2.511c-0.3487 0-0.6177 0.269-0.6177 0.6177zm1.206-3.417v-1.853h1.763c0.7871 0 1.225 0.3387 1.225 0.8867v0.0199c0 0.6376-0.528 0.9465-1.315 0.9465zm0 2.949v-1.913h1.943c0.9664 0 1.435 0.3487 1.435 0.9365v0.0199c0 0.6277-0.5081 0.9565-1.345 0.9565z"/>
  <path d="m71.85 48.5c0 0.3388 0.269 0.6078 0.6177 0.6078 0.3387 0 0.6077-0.269 0.6077-0.6078v-1.684h1.385c1.534 0 2.79-0.817 2.79-2.381v-0.0199c0-1.405-1.016-2.331-2.65-2.331h-2.132c-0.3487 0-0.6177 0.269-0.6177 0.6177zm1.225-2.79v-2.511h1.425c0.9166 0 1.504 0.4284 1.504 1.245v0.0199c0 0.7273-0.5779 1.245-1.504 1.245z"/>
  <path d="m78.5 48.5c0 0.3387 0.259 0.5978 0.5978 0.5978 0.3387 0 0.6077-0.259 0.6077-0.5978v-4.175l1.694 2.541c0.1295 0.1993 0.2889 0.3188 0.5081 0.3188 0.2292 0 0.3886-0.1196 0.5181-0.3188l1.704-2.561v4.184c0 0.3288 0.279 0.6078 0.6077 0.6078 0.3487 0 0.6177-0.269 0.6177-0.6078v-5.838c0-0.3387-0.269-0.6177-0.6177-0.6177h-0.1295c-0.2491 0-0.4284 0.1096-0.5579 0.3188l-2.122 3.318-2.112-3.308c-0.1196-0.1893-0.2989-0.3288-0.5679-0.3288h-0.1295c-0.3487 0-0.6177 0.279-0.6177 0.6177z"/>
 </g>
 <path d="m57.5 213v-21" fill="none" stroke="#3a3c3b" stroke-width="1px"/>
 <rect x="43" y="201" width="29" height="58" rx="3" ry="3" fill="#b3b3b3"/>
 <circle cx="57.5" cy="246.5" r="12.5" fill-opacity=".1488"/>
 <path d="m57.53 255.9c-6.626 0-12.02-5.39-12.02-12.02s5.39-12.02 12.02-12.02 12.02 5.39 12.02 12.02-5.39 12.02-12.02 12.02" fill="#515454" stroke="#000" stroke-width=".7413"/>
 <path d="m57.53 251.3c-4.2 0-7.617-3.416-7.617-7.617 0-4.2 3.416-7.617 7.617-7.617s7.617 3.416 7.617 7.617c0 4.2-3.416 7.617-7.617 7.617" fill="#b3b3b3" stroke="#000" stroke-width="1.891"/>
 <path d="m62.82 243.8c0 2.946-2.39 5.337-5.337 5.337s-5.337-2.39-5.337-5.337c0-2.946 2.39-5.337 5.337-5.337s5.337 2.39 5.337 5.337" stroke-width="3.78"/>
 <path d="m47.97 226.1c0.7867 0 1.309-0.2506 1.768-0.6544 0.07658-0.0696 0.1392-0.174 0.1392-0.3063 0-0.2158-0.188-0.3968-0.4038-0.3968-0.1044 0-0.1949 0.0418-0.2576 0.0975-0.355 0.2994-0.7031 0.4664-1.218 0.4664-0.9329 0-1.608-0.7727-1.608-1.726v-0.0139c0-0.9538 0.6822-1.72 1.608-1.72 0.4664 0 0.8284 0.1671 1.163 0.4386 0.05569 0.0418 0.1392 0.0835 0.2576 0.0835 0.2367 0 0.4247-0.181 0.4247-0.4177 0-0.1532-0.07658-0.2715-0.1671-0.3411-0.4247-0.3272-0.9189-0.55-1.671-0.55-1.476 0-2.513 1.135-2.513 2.52v0.0139c0 1.399 1.058 2.506 2.478 2.506z"/>
 <path d="m50.84 225.5c0 0.2436 0.188 0.4316 0.4316 0.4316h2.632c0.2158 0 0.3899-0.174 0.3899-0.3898s-0.174-0.3899-0.3899-0.3899h-2.207v-3.704c0-0.2367-0.188-0.4247-0.4247-0.4247-0.2437 0-0.4316 0.188-0.4316 0.4247z"/>
 <path d="m57.21 226.1c1.497 0 2.555-1.149 2.555-2.52v-0.0139c0-1.371-1.044-2.506-2.541-2.506s-2.555 1.149-2.555 2.52v0.0139c0 1.371 1.044 2.506 2.541 2.506zm0.01392-0.7936c-0.9677 0-1.657-0.7797-1.657-1.726v-0.0139c0-0.9468 0.6753-1.72 1.643-1.72s1.657 0.7867 1.657 1.733v0.0139c0 0.9468-0.6753 1.713-1.643 1.713z"/>
 <path d="m63.06 226.1c0.7867 0 1.309-0.2506 1.768-0.6544 0.07658-0.0696 0.1392-0.174 0.1392-0.3063 0-0.2158-0.188-0.3968-0.4038-0.3968-0.1044 0-0.1949 0.0418-0.2576 0.0975-0.355 0.2994-0.7031 0.4664-1.218 0.4664-0.9329 0-1.608-0.7727-1.608-1.726v-0.0139c0-0.9538 0.6822-1.72 1.608-1.72 0.4664 0 0.8284 0.1671 1.163 0.4386 0.05569 0.0418 0.1392 0.0835 0.2576 0.0835 0.2367 0 0.4247-0.181 0.4247-0.4177 0-0.1532-0.07658-0.2715-0.1671-0.3411-0.4247-0.3272-0.9189-0.55-1.671-0.55-1.476 0-2.513 1.135-2.513 2.52v0.0139c0 1.399 1.058 2.506 2.478 2.506z"/>
 <path d="m65.94 225.6c0 0.2367 0.188 0.4247 0.4316 0.4247 0.2367 0 0.4247-0.188 0.4247-0.4247v-1.009l0.7936-0.7658 1.566 1.998c0.0905 0.1184 0.1949 0.2019 0.362 0.2019 0.2437 0 0.4316-0.181 0.4316-0.4177 0-0.1323-0.04873-0.2158-0.1183-0.3063l-1.643-2.04 1.518-1.462c0.09746-0.0905 0.1532-0.188 0.1532-0.3202 0-0.2088-0.1601-0.3968-0.3968-0.3968-0.1532 0-0.2576 0.0557-0.355 0.1601l-2.311 2.325v-2.061c0-0.2367-0.188-0.4247-0.4247-0.4247-0.2437 0-0.4316 0.188-0.4316 0.4247z"/>
 <path d="m92.5 213v-21" fill="none" stroke="#3a3c3b" stroke-width="1px"/>
 <rect x="78" y="201" width="29" height="58" rx="3" ry="3" fill="#b3b3b3"/>
 <circle cx="92.5" cy="246.5" r="12.5" fill-opacity=".1488"/>
 <path d="m92.53 255.9c-6.626 0-12.02-5.39-12.02-12.02s5.39-12.02 12.02-12.02 12.02 5.39 12.02 12.02-5.39 12.02-12.02 12.02" fill="#515454" stroke="#000" stroke-width=".7413"/>
 <path d="m92.53 251.3c-4.2 0-7.617-3.416-7.617-7.617 0-4.2 3.416-7.617 7.617-7.617s7.617 3.416 7.617 7.617c0 4.2-3.416 7.617-7.617 7.617" fill="#b3b3b3" stroke="#000" stroke-width="1.891"/>
 <path d="m97.82 243.8c0 2.946-2.39 5.337-5.337 5.337s-5.337-2.39-5.337-5.337c0-2.946 2.39-5.337 5.337-5.337s5.337 2.39 5.337 5.337" stroke-width="3.78"/>
 <path d="m81.11 225.6c0 0.2367 0.188 0.4247 0.4316 0.4247 0.2367 0 0.4247-0.188 0.4247-0.4247v-1.177h0.9677c1.072 0 1.949-0.5709 1.949-1.664v-0.0139c0-0.9816-0.7101-1.629-1.852-1.629h-1.49c-0.2437 0-0.4316 0.188-0.4316 0.4316zm0.8563-1.949v-1.754h0.9955c0.6405 0 1.051 0.2994 1.051 0.8702v0.0139c0 0.5082-0.4038 0.8702-1.051 0.8702z"/>
 <path d="m85.76 225.6c0 0.2367 0.188 0.4247 0.4316 0.4247 0.2367 0 0.4247-0.188 0.4247-0.4247v-1.664h2.325v1.664c0 0.2367 0.188 0.4247 0.4247 0.4247 0.2437 0 0.4316-0.188 0.4316-0.4247v-4.093c0-0.2367-0.188-0.4247-0.4316-0.4247-0.2367 0-0.4247 0.188-0.4247 0.4247v1.636h-2.325v-1.636c0-0.2367-0.188-0.4247-0.4247-0.4247-0.2437 0-0.4316 0.188-0.4316 0.4247z"/>
 <path d="m90.71 225.6c0 0.2228 0.174 0.3968 0.3968 0.3968 0.181 0 0.3272-0.0975 0.3968-0.2715l0.4107-0.9398h2.367l0.3968 0.912c0.07658 0.181 0.2158 0.2994 0.4177 0.2994 0.2297 0 0.4038-0.181 0.4038-0.4107 0-0.0557-0.01392-0.1184-0.04873-0.181l-1.81-4.038c-0.09746-0.2158-0.2645-0.3481-0.5082-0.3481h-0.04177c-0.2437 0-0.4177 0.1323-0.5152 0.3481l-1.81 4.038c-0.03481 0.0696-0.05569 0.1323-0.05569 0.1949zm1.532-1.573 0.8563-1.97 0.8563 1.97z"/>
 <path d="m98.08 226c1.023 0 1.74-0.543 1.74-1.455v-0.0139c0-0.8076-0.5291-1.177-1.559-1.427-0.9398-0.2228-1.163-0.3898-1.163-0.7658v-0.0139c0-0.3202 0.2924-0.5778 0.7936-0.5778 0.3829 0 0.7449 0.1253 1.121 0.369 0.06962 0.0418 0.1392 0.0627 0.2228 0.0627 0.2228 0 0.4038-0.174 0.4038-0.3968 0-0.1671-0.0905-0.2854-0.188-0.3411-0.4386-0.2924-0.9329-0.4525-1.545-0.4525-0.9677 0-1.664 0.5778-1.664 1.413v0.0139c0 0.898 0.5848 1.204 1.622 1.455 0.905 0.2088 1.1 0.3968 1.1 0.7449v0.0139c0 0.362-0.3342 0.6126-0.8632 0.6126-0.5291 0-0.9607-0.181-1.364-0.5012-0.05569-0.0418-0.1323-0.0766-0.2506-0.0766-0.2228 0-0.4038 0.174-0.4038 0.3968 0 0.1392 0.06962 0.2576 0.1671 0.3272 0.543 0.4038 1.17 0.6126 1.831 0.6126z"/>
 <path d="m101.3 226h2.868c0.2088 0 0.3829-0.1671 0.3829-0.3829 0-0.2088-0.174-0.3829-0.3829-0.3829h-2.444v-1.309h2.095c0.2088 0 0.3829-0.1671 0.3829-0.3759 0-0.2158-0.174-0.3898-0.3829-0.3898h-2.095v-1.267h2.409c0.2088 0 0.3829-0.1671 0.3829-0.3829 0-0.2088-0.174-0.3829-0.3829-0.3829h-2.833c-0.2436 0-0.4316 0.188-0.4316 0.4316v4.01c0 0.2436 0.188 0.4316 0.4316 0.4316z"/>
 <path d="m127.5 237v-21" fill="none" stroke="#3a3c3b" stroke-width="1px"/>
 <g fill="#ccc">
  <path d="m14.18 67h0.04873c0.2437 0 0.4038-0.1323 0.4943-0.3481l1.713-4.038c0.02088-0.0487 0.04177-0.1184 0.04177-0.181 0-0.2297-0.188-0.4107-0.4247-0.4107-0.2019 0-0.355 0.1323-0.4107 0.2785l-1.427 3.543-1.406-3.516c-0.06962-0.181-0.2158-0.3063-0.4386-0.3063-0.2437 0-0.4316 0.188-0.4316 0.4177 0 0.0766 0.02088 0.1392 0.04873 0.2019l1.706 4.01c0.0905 0.2158 0.2506 0.3481 0.4873 0.3481z"/>
  <path d="m15.92 67.5c0 0.174 0.1532 0.3202 0.3342 0.3202 0.1392 0 0.2367-0.0696 0.2994-0.1949l2.854-5.834c0.01392-0.0418 0.03481-0.1044 0.03481-0.1671 0-0.174-0.1462-0.3202-0.3272-0.3202-0.1392 0-0.2437 0.0696-0.3063 0.1949l-2.847 5.834c-0.02088 0.0418-0.04177 0.1044-0.04177 0.1671z"/>
  <path d="m20.18 66.5c0 0.2436 0.188 0.4316 0.4316 0.4316h1.824c1.086 0 1.803-0.4664 1.803-1.337v-0.0139c0-0.6614-0.3968-0.9886-0.9677-1.183 0.362-0.188 0.6962-0.5012 0.6962-1.086v-0.0139c0-0.3272-0.1114-0.5917-0.3272-0.8076-0.2785-0.2785-0.717-0.4316-1.274-0.4316h-1.754c-0.2437 0-0.4316 0.188-0.4316 0.4316zm0.8424-2.388v-1.295h1.232c0.55 0 0.8563 0.2367 0.8563 0.6196v0.0139c0 0.4455-0.369 0.6614-0.9189 0.6614zm0 2.061v-1.337h1.358c0.6753 0 1.002 0.2437 1.002 0.6544v0.0139c0 0.4386-0.355 0.6683-0.9398 0.6683z"/>
  <path d="m25.21 66.5c0 0.2367 0.188 0.4247 0.4316 0.4247 0.2367 0 0.4247-0.188 0.4247-0.4247v-1.177h0.9677c1.072 0 1.949-0.5709 1.949-1.664v-0.0139c0-0.9816-0.7101-1.629-1.852-1.629h-1.49c-0.2437 0-0.4316 0.188-0.4316 0.4316zm0.8563-1.949v-1.754h0.9955c0.6405 0 1.051 0.2994 1.051 0.8702v0.0139c0 0.5082-0.4038 0.8702-1.051 0.8702z"/>
  <path d="m31.57 67c1.023 0 1.74-0.543 1.74-1.455v-0.0139c0-0.8076-0.5291-1.177-1.559-1.427-0.9398-0.2228-1.163-0.3898-1.163-0.7658v-0.0139c0-0.3202 0.2924-0.5778 0.7936-0.5778 0.3829 0 0.7449 0.1253 1.121 0.369 0.06962 0.0418 0.1392 0.0627 0.2228 0.0627 0.2228 0 0.4038-0.174 0.4038-0.3968 0-0.1671-0.0905-0.2854-0.188-0.3411-0.4386-0.2924-0.9329-0.4525-1.545-0.4525-0.9677 0-1.664 0.5778-1.664 1.413v0.0139c0 0.898 0.5848 1.204 1.622 1.455 0.905 0.2088 1.1 0.3968 1.1 0.7449v0.0139c0 0.362-0.3342 0.6126-0.8632 0.6126-0.5291 0-0.9607-0.181-1.364-0.5012-0.05569-0.0418-0.1323-0.0766-0.2506-0.0766-0.2228 0-0.4038 0.174-0.4038 0.3968 0 0.1392 0.06962 0.2576 0.1671 0.3272 0.543 0.4038 1.17 0.6126 1.831 0.6126z"/>
 </g>
 <g fill="none" stroke-width="1px">
  <g stroke="#3a3c3b">
   <path d="m31 84.5h25"/>
   <path d="m93 84.5h25"/>
   <path d="m22.5 237v-21"/>
  </g>
  <path d="m50.5 214.5v-6h2v6h5v-6h2v6h6" stroke="#000" stroke-linecap="round" stroke-linejoin="round"/>
  <path d="m85.5 214.5 6-6v6l6-6v6" stroke="#000" stroke-linecap="round" stroke-linejoin="round"/>
  <path d="m8.086 267.5h133.9" stroke="#3a3c3b"/>
 </g>
 <circle cx="96.16" cy="45.7" r="3.094" fill="#4d4d4d" stroke="#000" stroke-linecap="round" stroke-linejoin="round" stroke-width=".4"/>
 <path d="m127.5 114v-21" fill="none" stroke="#808080" stroke-width="1px"/>
 <rect x="113" y="59" width="29" height="41" rx="3" ry="3" fill="#b3b3b3"/>
 <circle cx="127.5" cy="87.5" r="12.5" fill-opacity=".1488"/>
 <path d="m127.5 96.87c-6.626 0-12.02-5.39-12.02-12.02s5.39-12.02 12.02-12.02 12.02 5.39 12.02 12.02-5.39 12.02-12.02 12.02" fill="#515454" stroke="#000" stroke-width=".7413"/>
 <path d="m127.5 92.33c-4.2 0-7.617-3.416-7.617-7.617 0-4.2 3.416-7.617 7.617-7.617s7.617 3.416 7.617 7.617c0 4.2-3.416 7.617-7.617 7.617" fill="#b3b3b3" stroke="#000" stroke-width="1.891"/>
 <path d="m132.8 84.77c0 2.946-2.39 5.337-5.337 5.337s-5.337-2.39-5.337-5.337c0-2.946 2.39-5.337 5.337-5.337s5.337 2.39 5.337 5.337" stroke-width="3.78"/>
 <path d="m119.2 68h0.0487c0.2437 0 0.4038-0.1323 0.4943-0.3481l1.713-4.038c0.0209-0.0487 0.0418-0.1184 0.0418-0.181 0-0.2297-0.188-0.4107-0.4247-0.4107-0.2019 0-0.355 0.1323-0.4107 0.2785l-1.427 3.543-1.406-3.516c-0.0696-0.181-0.2158-0.3063-0.4386-0.3063-0.2437 0-0.4316 0.188-0.4316 0.4177 0 0.0766 0.0209 0.1392 0.0487 0.2019l1.706 4.01c0.0905 0.2158 0.2506 0.3481 0.4873 0.3481z"/>
 <path d="m120.9 68.5c0 0.174 0.1532 0.3202 0.3342 0.3202 0.1392 0 0.2367-0.0696 0.2994-0.1949l2.854-5.834c0.0139-0.0418 0.0348-0.1044 0.0348-0.1671 0-0.174-0.1462-0.3202-0.3272-0.3202-0.1392 0-0.2437 0.0696-0.3063 0.1949l-2.847 5.834c-0.0209 0.0418-0.0418 0.1044-0.0418 0.1671z"/>
 <path d="m125.2 67.5c0 0.2437 0.188 0.4316 0.4316 0.4316h1.824c1.086 0 1.803-0.4664 1.803-1.337v-0.0139c0-0.6614-0.3968-0.9886-0.9677-1.183 0.362-0.188 0.6962-0.5012 0.6962-1.086v-0.0139c0-0.3272-0.1114-0.5917-0.3272-0.8076-0.2785-0.2785-0.717-0.4316-1.274-0.4316h-1.754c-0.2437 0-0.4316 0.188-0.4316 0.4316zm0.8424-2.388v-1.295h1.232c0.55 0 0.8563 0.2367 0.8563 0.6196v0.0139c0 0.4455-0.369 0.6614-0.9189 0.6614zm0 2.061v-1.337h1.358c0.6753 0 1.002 0.2436 1.002 0.6544v0.0139c0 0.4386-0.355 0.6683-0.9398 0.6683z"/>
 <path d="m130.2 67.5c0 0.2367 0.188 0.4247 0.4316 0.4247 0.2367 0 0.4247-0.188 0.4247-0.4247v-1.177h0.9677c1.072 0 1.949-0.5708 1.949-1.664v-0.0139c0-0.9816-0.7101-1.629-1.852-1.629h-1.49c-0.2436 0-0.4316 0.188-0.4316 0.4316zm0.8563-1.949v-1.754h0.9955c0.6405 0 1.051 0.2994 1.051 0.8702v0.0139c0 0.5082-0.4038 0.8702-1.051 0.8702z"/>
 <path d="m136.6 68c1.023 0 1.74-0.543 1.74-1.455v-0.0139c0-0.8076-0.5291-1.177-1.559-1.427-0.9398-0.2228-1.163-0.3898-1.163-0.7658v-0.0139c0-0.3202 0.2924-0.5778 0.7936-0.5778 0.3829 0 0.7449 0.1253 1.121 0.369 0.0696 0.0418 0.1392 0.0627 0.2228 0.0627 0.2228 0 0.4038-0.174 0.4038-0.3968 0-0.1671-0.0905-0.2854-0.188-0.3411-0.4386-0.2924-0.9329-0.4525-1.545-0.4525-0.9677 0-1.664 0.5778-1.664 1.413v0.0139c0 0.898 0.5848 1.204 1.622 1.455 0.905 0.2088 1.1 0.3968 1.1 0.7449v0.0139c0 0.362-0.3342 0.6126-0.8632 0.6126-0.5291 0-0.9607-0.181-1.364-0.5012-0.0557-0.0418-0.1323-0.0766-0.2506-0.0766-0.2228 0-0.4038 0.174-0.4038 0.3968 0 0.1392 0.0696 0.2576 0.1671 0.3272 0.543 0.4038 1.17 0.6126 1.831 0.6126z"/>
 <path d="m23.5 286.5h30" fill="none" stroke="#3a3c3b" stroke-width="1px"/>
 <path d="m22.5 213v-21" fill="none" stroke="#3a3c3b" stroke-width="1px"/>
 <g fill="#ccc">
  <path d="m15.4 162.5c0 0.2367 0.188 0.4247 0.4316 0.4247 0.2367 0 0.4247-0.188 0.4247-0.4247v-1.309h1.079l1.183 1.511c0.09746 0.1323 0.2228 0.2228 0.4177 0.2228 0.2088 0 0.4107-0.1601 0.4107-0.3968 0-0.1323-0.05569-0.2228-0.1392-0.3272l-0.9329-1.177c0.6544-0.2019 1.107-0.6753 1.107-1.455v-0.0139c0-0.4247-0.1462-0.7867-0.4038-1.051-0.3133-0.3063-0.7936-0.4873-1.406-0.4873h-1.74c-0.2437 0-0.4316 0.188-0.4316 0.4316zm0.8563-2.068v-1.636h1.246c0.6335 0 1.009 0.2854 1.009 0.8076v0.0139c0 0.4943-0.3899 0.8145-1.002 0.8145z"/>
  <path d="m22.43 163c1.274 0 2.095-0.731 2.095-2.186v-2.374c0-0.2367-0.188-0.4247-0.4247-0.4247-0.2437 0-0.4316 0.188-0.4316 0.4247v2.416c0 0.8981-0.4664 1.351-1.225 1.351-0.7658 0-1.232-0.4804-1.232-1.385v-2.381c0-0.2367-0.188-0.4247-0.4247-0.4247-0.2437 0-0.4316 0.188-0.4316 0.4247v2.416c0 1.413 0.8076 2.144 2.075 2.144z"/>
  <path d="m25.71 162.5c0 0.2297 0.188 0.4177 0.4247 0.4177 0.2297 0 0.4177-0.188 0.4177-0.4177v-3.091l2.506 3.244c0.1183 0.1532 0.2437 0.2576 0.4455 0.2576h0.03481c0.2367 0 0.4177-0.188 0.4177-0.4247v-4.093c0-0.2297-0.188-0.4177-0.4247-0.4177-0.2297 0-0.4177 0.188-0.4177 0.4177v2.994l-2.437-3.154c-0.1183-0.1462-0.2367-0.2506-0.4455-0.2506h-0.0905c-0.2437 0-0.4316 0.1949-0.4316 0.4316z"/>
 </g>
 <rect x="78" y="306" width="29" height="41" rx="3" ry="3" fill="#b3b3b3"/>
 <circle cx="92.5" cy="334.5" r="12.5" fill-opacity=".1488"/>
 <path d="m92.53 343.9c-6.626 0-12.02-5.39-12.02-12.02s5.39-12.02 12.02-12.02 12.02 5.39 12.02 12.02-5.39 12.02-12.02 12.02" fill="#515454" stroke="#000" stroke-width=".7413"/>
 <path d="m92.53 339.3c-4.2 0-7.617-3.416-7.617-7.617 0-4.2 3.416-7.617 7.617-7.617s7.617 3.416 7.617 7.617c0 4.2-3.416 7.617-7.617 7.617" fill="#b3b3b3" stroke="#000" stroke-width="1.891"/>
 <path d="m97.82 331.8c0 2.946-2.39 5.337-5.337 5.337s-5.337-2.39-5.337-5.337c0-2.946 2.39-5.337 5.337-5.337s5.337 2.39 5.337 5.337" stroke-width="3.78"/>
 <path d="m83.06 314.6c0 0.2367 0.1949 0.4247 0.4247 0.4247 0.2367 0 0.4247-0.188 0.4247-0.4247v-4.121c0-0.2367-0.181-0.4247-0.4247-0.4247h-0.01392c-0.1253 0-0.2506 0.0279-0.4177 0.0766l-0.7379 0.2367c-0.174 0.0487-0.2854 0.188-0.2854 0.369 0 0.1949 0.174 0.362 0.3759 0.362 0.04177 0 0.1044-7e-3 0.1532-0.0209l0.5012-0.1532z"/>
 <path d="m86.92 315.1c1.023 0 1.81-0.6892 1.81-1.657v-0.0139c0-0.9746-0.7588-1.532-1.699-1.532-0.5778 0-0.912 0.2367-1.17 0.4873 0.04177-0.8911 0.4455-1.545 1.17-1.545 0.3272 0 0.5709 0.0975 0.8354 0.2715 0.06266 0.0348 0.1392 0.0627 0.2158 0.0627 0.2228 0 0.4107-0.174 0.4107-0.3968 0-0.174-0.08354-0.2854-0.2158-0.369-0.3202-0.2158-0.717-0.3481-1.218-0.3481-1.378 0-2.088 1.163-2.088 2.652v0.0139c0 0.9816 0.2228 1.49 0.5917 1.859 0.3272 0.3272 0.7588 0.5152 1.358 0.5152zm-0.02089-0.7449c-0.6057 0-1.009-0.3759-1.009-0.8702v-0.0139c0-0.4664 0.3829-0.8563 0.9886-0.8563s0.9955 0.362 0.9955 0.8493v0.0139c0 0.5012-0.369 0.8772-0.9746 0.8772z"/>
 <path d="m90.97 314.6c0 0.2367 0.1949 0.4247 0.4316 0.4247s0.4316-0.188 0.4316-0.4247v-3.69h1.19c0.2158 0 0.3899-0.181 0.3899-0.3968s-0.174-0.3968-0.3899-0.3968h-3.237c-0.2228 0-0.3968 0.181-0.3968 0.3968s0.174 0.3968 0.3968 0.3968h1.183z"/>
 <path d="m94.19 314.6c0 0.2367 0.188 0.4247 0.4316 0.4247 0.2367 0 0.4247-0.188 0.4247-0.4247v-1.664h2.325v1.664c0 0.2367 0.188 0.4247 0.4247 0.4247 0.2437 0 0.4316-0.188 0.4316-0.4247v-4.093c0-0.2367-0.188-0.4247-0.4316-0.4247-0.2367 0-0.4247 0.188-0.4247 0.4247v1.636h-2.325v-1.636c0-0.2367-0.188-0.4247-0.4247-0.4247-0.2437 0-0.4316 0.188-0.4316 0.4247z"/>
 <path d="m101.2 315.1c1.023 0 1.74-0.543 1.74-1.455v-0.0139c0-0.8076-0.5291-1.177-1.559-1.427-0.9398-0.2228-1.163-0.3898-1.163-0.7658v-0.0139c0-0.3202 0.2924-0.5778 0.7936-0.5778 0.3829 0 0.7449 0.1253 1.121 0.369 0.0696 0.0418 0.1392 0.0626 0.2228 0.0626 0.2228 0 0.4038-0.174 0.4038-0.3968 0-0.1671-0.0905-0.2854-0.188-0.3411-0.4386-0.2924-0.9329-0.4525-1.545-0.4525-0.9677 0-1.664 0.5778-1.664 1.413v0.0139c0 0.898 0.5848 1.204 1.622 1.455 0.905 0.2088 1.1 0.3968 1.1 0.7449v0.0139c0 0.362-0.3342 0.6126-0.8632 0.6126-0.5291 0-0.9607-0.181-1.364-0.5012-0.05569-0.0418-0.1323-0.0766-0.2506-0.0766-0.2228 0-0.4038 0.174-0.4038 0.3968 0 0.1392 0.06962 0.2576 0.1671 0.3272 0.543 0.4038 1.17 0.6126 1.831 0.6126z"/>
 <rect x="43" y="306" width="29" height="41" rx="3" ry="3" fill="#b3b3b3"/>
 <circle cx="57.5" cy="334.5" r="12.5" fill-opacity=".1488"/>
 <path d="m57.53 343.9c-6.626 0-12.02-5.39-12.02-12.02s5.39-12.02 12.02-12.02 12.02 5.39 12.02 12.02-5.39 12.02-12.02 12.02" fill="#515454" stroke="#000" stroke-width=".7413"/>
 <path d="m57.53 339.3c-4.2 0-7.617-3.416-7.617-7.617 0-4.2 3.416-7.617 7.617-7.617s7.617 3.416 7.617 7.617c0 4.2-3.416 7.617-7.617 7.617" fill="#b3b3b3" stroke="#000" stroke-width="1.891"/>
 <path d="m62.82 331.8c0 2.946-2.39 5.337-5.337 5.337s-5.337-2.39-5.337-5.337c0-2.946 2.39-5.337 5.337-5.337s5.337 2.39 5.337 5.337" stroke-width="3.78"/>
 <path d="m50.87 315.1c1.065 0 1.859-0.543 1.859-1.413v-0.0139c0-0.5778-0.3411-0.9259-0.8772-1.17 0.4107-0.2158 0.7101-0.543 0.7101-1.086v-0.0139c0-0.7519-0.717-1.316-1.692-1.316s-1.692 0.5708-1.692 1.316v0.0139c0 0.543 0.2994 0.8702 0.7101 1.086-0.55 0.2297-0.8772 0.5987-0.8772 1.183v0.0139c0 0.8424 0.7936 1.399 1.859 1.399zm0-2.882c-0.5012 0-0.8702-0.2994-0.8702-0.724v-0.0139c0-0.369 0.3481-0.6753 0.8702-0.6753s0.8702 0.3063 0.8702 0.6822v0.0139c0 0.4177-0.369 0.717-0.8702 0.717zm0 2.165c-0.6405 0-1.016-0.3342-1.016-0.731v-0.0139c0-0.4456 0.4386-0.7379 1.016-0.7379s1.023 0.2924 1.023 0.7379v0.0139c0 0.4038-0.3829 0.731-1.023 0.731z"/>
 <path d="m54.89 314.6c0 0.2367 0.1949 0.4247 0.4316 0.4247s0.4316-0.188 0.4316-0.4247v-3.69h1.19c0.2158 0 0.3899-0.181 0.3899-0.3968s-0.174-0.3968-0.3899-0.3968h-3.237c-0.2228 0-0.3968 0.181-0.3968 0.3968s0.174 0.3968 0.3968 0.3968h1.183z"/>
 <path d="m58.02 314.6c0 0.2367 0.188 0.4247 0.4316 0.4247 0.2367 0 0.4247-0.188 0.4247-0.4247v-1.664h2.325v1.664c0 0.2367 0.188 0.4247 0.4247 0.4247 0.2437 0 0.4316-0.188 0.4316-0.4247v-4.093c0-0.2367-0.188-0.4247-0.4316-0.4247-0.2367 0-0.4247 0.188-0.4247 0.4247v1.636h-2.325v-1.636c0-0.2367-0.188-0.4247-0.4247-0.4247-0.2437 0-0.4316 0.188-0.4316 0.4247z"/>
 <path d="m65.02 315.1c1.023 0 1.74-0.543 1.74-1.455v-0.0139c0-0.8076-0.5291-1.177-1.559-1.427-0.9398-0.2228-1.163-0.3898-1.163-0.7658v-0.0139c0-0.3202 0.2924-0.5778 0.7936-0.5778 0.3829 0 0.7449 0.1253 1.121 0.369 0.06962 0.0418 0.1392 0.0626 0.2228 0.0626 0.2228 0 0.4038-0.174 0.4038-0.3968 0-0.1671-0.0905-0.2854-0.188-0.3411-0.4386-0.2924-0.9329-0.4525-1.545-0.4525-0.9677 0-1.664 0.5778-1.664 1.413v0.0139c0 0.898 0.5848 1.204 1.622 1.455 0.905 0.2088 1.1 0.3968 1.1 0.7449v0.0139c0 0.362-0.3342 0.6126-0.8632 0.6126s-0.9607-0.181-1.364-0.5012c-0.05569-0.0418-0.1323-0.0766-0.2506-0.0766-0.2228 0-0.4038 0.174-0.4038 0.3968 0 0.1392 0.06962 0.2576 0.1671 0.3272 0.543 0.4038 1.17 0.6126 1.831 0.6126z"/>
 <g fill="#ccc">
  <path d="m12.65 314c1.023 0 1.74-0.543 1.74-1.455v-0.0139c0-0.8076-0.5291-1.177-1.559-1.427-0.9398-0.2228-1.163-0.3899-1.163-0.7658v-0.0139c0-0.3202 0.2924-0.5778 0.7936-0.5778 0.3829 0 0.7449 0.1253 1.121 0.369 0.06962 0.0418 0.1392 0.0627 0.2228 0.0627 0.2228 0 0.4038-0.174 0.4038-0.3968 0-0.1671-0.0905-0.2854-0.188-0.3411-0.4386-0.2924-0.9329-0.4525-1.545-0.4525-0.9677 0-1.664 0.5778-1.664 1.413v0.0139c0 0.8981 0.5848 1.204 1.622 1.455 0.905 0.2088 1.1 0.3968 1.1 0.7449v0.0139c0 0.362-0.3342 0.6126-0.8632 0.6126-0.5291 0-0.9607-0.181-1.364-0.5012-0.05569-0.0418-0.1323-0.0766-0.2506-0.0766-0.2228 0-0.4038 0.174-0.4038 0.3968 0 0.1392 0.06962 0.2576 0.1671 0.3272 0.543 0.4038 1.17 0.6126 1.831 0.6126z"/>
  <path d="m16.42 313.6c0.08354 0.2228 0.2367 0.355 0.4455 0.355h0.08354c0.2088 0 0.369-0.1323 0.4455-0.355l1.086-3.181 1.086 3.181c0.07658 0.2228 0.2297 0.355 0.4386 0.355h0.08354c0.2088 0 0.369-0.1392 0.4455-0.355l1.441-4.038c0.02088-0.0487 0.04177-0.1184 0.04177-0.174 0-0.2297-0.1949-0.4107-0.4247-0.4107-0.2088 0-0.355 0.1323-0.4177 0.3063l-1.121 3.356-1.1-3.335c-0.06265-0.2019-0.2158-0.3411-0.4316-0.3411h-0.06265c-0.2158 0-0.362 0.1392-0.4316 0.3411l-1.1 3.335-1.121-3.349c-0.05569-0.181-0.2158-0.3133-0.4247-0.3133-0.2367 0-0.4386 0.181-0.4386 0.4177 0 0.0557 0.01392 0.1184 0.03481 0.1671z"/>
  <path d="m22.98 313.5c0 0.2367 0.188 0.4247 0.4316 0.4247 0.2367 0 0.4247-0.188 0.4247-0.4247v-4.093c0-0.2367-0.188-0.4247-0.4247-0.4247-0.2437 0-0.4316 0.188-0.4316 0.4247z"/>
  <path d="m24.94 313.5c0 0.2297 0.188 0.4177 0.4247 0.4177 0.2297 0 0.4177-0.188 0.4177-0.4177v-3.091l2.506 3.244c0.1183 0.1532 0.2437 0.2576 0.4455 0.2576h0.03481c0.2367 0 0.4177-0.188 0.4177-0.4247v-4.093c0-0.2297-0.188-0.4177-0.4247-0.4177-0.2297 0-0.4177 0.188-0.4177 0.4177v2.994l-2.437-3.154c-0.1183-0.1462-0.2367-0.2506-0.4455-0.2506h-0.0905c-0.2437 0-0.4316 0.1949-0.4316 0.4316z"/>
  <path d="m32.74 314c0.731 0 1.316-0.2506 1.733-0.5291 0.2019-0.1253 0.2994-0.2994 0.2994-0.543v-1.302c0-0.2436-0.188-0.4316-0.4316-0.4316h-1.358c-0.2088 0-0.3829 0.1671-0.3829 0.3759s0.174 0.369 0.3829 0.369h0.9607v0.912c-0.2994 0.2228-0.717 0.369-1.177 0.369-0.9955 0-1.657-0.7379-1.657-1.74v-0.0139c0-0.9329 0.6822-1.72 1.58-1.72 0.5291 0 0.8702 0.1532 1.183 0.3829 0.06962 0.0487 0.1532 0.0975 0.2645 0.0975 0.2367 0 0.4247-0.1949 0.4247-0.4247 0-0.1671-0.0905-0.2854-0.174-0.3481-0.4455-0.3202-0.9329-0.4943-1.664-0.4943-1.469 0-2.513 1.156-2.513 2.52v0.0139c0 1.42 1.002 2.506 2.527 2.506z"/>
 </g>
 <path d="m96.5 286.5h30" fill="none" stroke="#3a3c3b" stroke-width="1px"/>
 <rect x="113" y="106" width="29" height="41" rx="3" ry="3" fill="#b3b3b3"/>
 <circle cx="127.5" cy="134.5" r="12.5" fill-opacity=".1488"/>
 <path d="m127.5 143.9c-6.626 0-12.02-5.39-12.02-12.02s5.39-12.02 12.02-12.02 12.02 5.39 12.02 12.02-5.39 12.02-12.02 12.02" fill="#515454" stroke="#000" stroke-width=".7413"/>
 <path d="m127.5 139.3c-4.2 0-7.617-3.416-7.617-7.617 0-4.2 3.416-7.617 7.617-7.617s7.617 3.416 7.617 7.617c0 4.2-3.416 7.617-7.617 7.617" fill="#b3b3b3" stroke="#000" stroke-width="1.891"/>
 <path d="m132.8 131.8c0 2.946-2.39 5.337-5.337 5.337s-5.337-2.39-5.337-5.337c0-2.946 2.39-5.337 5.337-5.337s5.337 2.39 5.337 5.337" stroke-width="3.78"/>
 <path d="m119.3 115h0.0487c0.2437 0 0.4038-0.1323 0.4943-0.3481l1.713-4.038c0.0209-0.0487 0.0418-0.1184 0.0418-0.181 0-0.2297-0.188-0.4107-0.4247-0.4107-0.2019 0-0.355 0.1323-0.4107 0.2785l-1.427 3.543-1.406-3.516c-0.0696-0.181-0.2158-0.3063-0.4386-0.3063-0.2436 0-0.4316 0.188-0.4316 0.4177 0 0.0766 0.0209 0.1392 0.0487 0.2019l1.706 4.01c0.0905 0.2158 0.2506 0.3481 0.4873 0.3481z"/>
 <path d="m121 115.5c0 0.174 0.1532 0.3202 0.3342 0.3202 0.1392 0 0.2367-0.0696 0.2994-0.1949l2.854-5.834c0.0139-0.0418 0.0348-0.1044 0.0348-0.1671 0-0.174-0.1462-0.3202-0.3272-0.3202-0.1392 0-0.2437 0.0696-0.3063 0.1949l-2.847 5.834c-0.0209 0.0418-0.0418 0.1044-0.0418 0.1671z"/>
 <path d="m126.8 115c1.023 0 1.74-0.543 1.74-1.455v-0.0139c0-0.8076-0.5291-1.177-1.559-1.427-0.9398-0.2228-1.163-0.3898-1.163-0.7658v-0.0139c0-0.3202 0.2924-0.5778 0.7936-0.5778 0.3829 0 0.7449 0.1253 1.121 0.369 0.0696 0.0418 0.1392 0.0626 0.2228 0.0626 0.2228 0 0.4038-0.174 0.4038-0.3968 0-0.1671-0.0905-0.2854-0.188-0.3411-0.4386-0.2924-0.9329-0.4525-1.545-0.4525-0.9677 0-1.664 0.5778-1.664 1.413v0.0139c0 0.898 0.5848 1.204 1.622 1.455 0.905 0.2088 1.1 0.3968 1.1 0.7449v0.0139c0 0.362-0.3342 0.6126-0.8632 0.6126-0.5291 0-0.9607-0.181-1.364-0.5012-0.0557-0.0418-0.1323-0.0766-0.2506-0.0766-0.2228 0-0.4038 0.174-0.4038 0.3968 0 0.1392 0.0696 0.2576 0.1671 0.3272 0.543 0.4038 1.17 0.6126 1.831 0.6126z"/>
 <path d="m129.5 114.5c0 0.2367 0.188 0.4247 0.4316 0.4247 0.2367 0 0.4247-0.188 0.4247-0.4247v-1.177h0.9677c1.072 0 1.949-0.5708 1.949-1.664v-0.0139c0-0.9816-0.7101-1.629-1.852-1.629h-1.49c-0.2436 0-0.4316 0.188-0.4316 0.4316zm0.8563-1.949v-1.754h0.9955c0.6405 0 1.051 0.2994 1.051 0.8702v0.0139c0 0.5082-0.4038 0.8702-1.051 0.8702z"/>
 <path d="m134.2 114.5c0 0.2437 0.188 0.4316 0.4316 0.4316h1.824c1.086 0 1.803-0.4664 1.803-1.337v-0.0139c0-0.6614-0.3968-0.9886-0.9677-1.183 0.362-0.188 0.6962-0.5012 0.6962-1.086v-0.0139c0-0.3272-0.1114-0.5917-0.3272-0.8076-0.2785-0.2785-0.717-0.4316-1.274-0.4316h-1.754c-0.2437 0-0.4316 0.188-0.4316 0.4316zm0.8424-2.388v-1.295h1.232c0.55 0 0.8563 0.2367 0.8563 0.6196v0.0139c0 0.4455-0.369 0.6614-0.9189 0.6614zm0 2.061v-1.337h1.358c0.6753 0 1.002 0.2436 1.002 0.6544v0.0139c0 0.4386-0.355 0.6683-0.9398 0.6683z"/>
 <rect x="46" y="121" width="58" height="21" rx="3" ry="3" fill-opacity=".9823"/>
 <rect x="48" y="123" width="54" height="17" rx="1" ry="1" fill="#131313" fill-opacity=".9823"/>
 <g fill="#1e1f1d">
  <path d="m53.06 136.2-0.3219-0.333 0.3552-4.04h0.1998l0.1332 0.1443 0.6216 0.677-0.2442 2.875zm0.4551-5.206-0.1554 0.1443h-0.1998l0.3441-4.029 0.3774-0.3441 0.6216 0.677-0.2442 2.875zm0.899-4.717 0.3663-0.3441h4.517l0.3108 0.3441-0.7436 0.6882h-3.829zm4.273 4.695 0.4662 0.5106-0.555 0.5106h-4.173l-0.4662-0.5106 0.555-0.5106zm1.365-4.207 0.3219 0.333-0.3552 4.04h-0.1998l-0.1332-0.1443-0.6216-0.677 0.2442-2.875zm-1.354 9.923-0.3663 0.3441h-4.517l-0.3108-0.3441 0.7436-0.6882h3.829zm0.899-4.717 0.1554-0.1443h0.1998l-0.3441 4.04-0.3774 0.333-0.6216-0.677 0.2442-2.864z"/>
  <path d="m63.03 136.2-0.3219-0.333 0.3552-4.04h0.1998l0.1332 0.1443 0.6216 0.677-0.2442 2.875zm0.4551-5.206-0.1554 0.1443h-0.1998l0.3441-4.029 0.3774-0.3441 0.6216 0.677-0.2442 2.875zm0.899-4.717 0.3663-0.3441h4.517l0.3108 0.3441-0.7436 0.6882h-3.829zm4.273 4.695 0.4662 0.5106-0.555 0.5106h-4.173l-0.4662-0.5106 0.555-0.5106zm1.365-4.207 0.3219 0.333-0.3552 4.04h-0.1998l-0.1332-0.1443-0.6216-0.677 0.2442-2.875zm-1.354 9.923-0.3663 0.3441h-4.517l-0.3108-0.3441 0.7436-0.6882h3.829zm0.899-4.717 0.1554-0.1443h0.1998l-0.3441 4.04-0.3774 0.333-0.6216-0.677 0.2442-2.864z"/>
  <path d="m73 136.2-0.3219-0.333 0.3552-4.04h0.1998l0.1332 0.1443 0.6216 0.677-0.2442 2.875zm0.4551-5.206-0.1554 0.1443h-0.1998l0.3441-4.029 0.3774-0.3441 0.6216 0.677-0.2442 2.875zm0.899-4.717 0.3663-0.3441h4.517l0.3108 0.3441-0.7436 0.6882h-3.829zm4.273 4.695 0.4662 0.5106-0.555 0.5106h-4.173l-0.4662-0.5106 0.555-0.5106zm1.365-4.207 0.3219 0.333-0.3552 4.04h-0.1998l-0.1332-0.1443-0.6216-0.677 0.2442-2.875zm-1.354 9.923-0.3663 0.3441h-4.517l-0.3108-0.3441 0.7436-0.6882h3.829zm0.899-4.717 0.1554-0.1443h0.1998l-0.3441 4.04-0.3774 0.333-0.6216-0.677 0.2442-2.864z"/>
  <path d="m82.09 136.1q0.0555 0.1332 0.0555 0.2664t-0.0555 0.2664-0.1443 0.222q-0.08879 0.0888-0.222 0.1443-0.1332 0.0555-0.2664 0.0555t-0.2664-0.0555-0.222-0.1443q-0.08879-0.0888-0.1443-0.222t-0.0555-0.2664 0.0555-0.2664 0.1443-0.222q0.08879-0.0888 0.222-0.1443 0.1332-0.0555 0.2664-0.0555t0.2664 0.0555 0.222 0.1443q0.08879 0.0888 0.1443 0.222z"/>
  <path d="m83.82 136.4-0.2615-0.2705 0.2886-3.282h0.1623l0.1082 0.1172 0.505 0.55-0.1984 2.335zm0.3697-4.229-0.1262 0.1172h-0.1623l0.2795-3.273 0.3066-0.2795 0.505 0.55-0.1984 2.335zm0.7304-3.832 0.2976-0.2795h3.67l0.2525 0.2795-0.6042 0.5591h-3.111zm3.472 3.814 0.3787 0.4148-0.4509 0.4148h-3.39l-0.3787-0.4148 0.4509-0.4148zm1.109-3.418 0.2615 0.2705-0.2886 3.282h-0.1623l-0.1082-0.1172-0.505-0.55 0.1984-2.335zm-1.1 8.061-0.2976 0.2795h-3.67l-0.2525-0.2795 0.6042-0.5591h3.111zm0.7304-3.832 0.1262-0.1172h0.1623l-0.2795 3.282-0.3066 0.2705-0.505-0.55 0.1984-2.326z"/>
  <path d="m91.18 136.4-0.2615-0.2705 0.2886-3.282h0.1623l0.1082 0.1172 0.505 0.55-0.1984 2.335zm0.3697-4.229-0.1262 0.1172h-0.1623l0.2795-3.273 0.3066-0.2795 0.505 0.55-0.1984 2.335zm0.7304-3.832 0.2976-0.2795h3.67l0.2525 0.2795-0.6042 0.5591h-3.111zm3.472 3.814 0.3787 0.4148-0.4509 0.4148h-3.39l-0.3787-0.4148 0.4509-0.4148zm1.109-3.418 0.2615 0.2705-0.2885 3.282h-0.1623l-0.1082-0.1172-0.505-0.55 0.1984-2.335zm-1.1 8.061-0.2976 0.2795h-3.67l-0.2525-0.2795 0.6042-0.5591h3.111zm0.7304-3.832 0.1262-0.1172h0.1623l-0.2795 3.282-0.3066 0.2705-0.505-0.55 0.1984-2.326z"/>
 </g>
 <g fill="#ffd42a">
  <path d="m59.83 126.8 0.3219 0.333-0.3552 4.04h-0.1998l-0.1332-0.1443-0.6216-0.677 0.2442-2.875zm-0.4551 5.206 0.1554-0.1443h0.1998l-0.3441 4.04-0.3774 0.333-0.6216-0.677 0.2442-2.864z"/>
  <path d="m62.81 136.2-0.3219-0.333 0.3552-4.04h0.1998l0.1332 0.1443 0.6216 0.677-0.2442 2.875zm1.354-9.923 0.3663-0.3441h4.517l0.3108 0.3441-0.7436 0.6882h-3.829zm4.273 4.695 0.4662 0.5106-0.555 0.5106h-4.173l-0.4662-0.5106 0.555-0.5106zm1.365-4.207 0.3219 0.333-0.3552 4.04h-0.1998l-0.1332-0.1443-0.6216-0.677 0.2442-2.875zm-1.354 9.923-0.3663 0.3441h-4.517l-0.3108-0.3441 0.7436-0.6882h3.829z"/>
  <path d="m72.78 136.2-0.3219-0.333 0.3552-4.04h0.1998l0.1332 0.1443 0.6216 0.677-0.2442 2.875zm0.4551-5.206-0.1554 0.1443h-0.1998l0.3441-4.029 0.3774-0.3441 0.6216 0.677-0.2442 2.875zm0.899-4.717 0.3663-0.3441h4.517l0.3108 0.3441-0.7436 0.6882h-3.829zm5.638 0.4884 0.3219 0.333-0.3552 4.04h-0.1998l-0.1332-0.1443-0.6216-0.677 0.2442-2.875zm-1.354 9.923-0.3663 0.3441h-4.517l-0.3108-0.3441 0.7436-0.6882h3.829zm0.899-4.717 0.1554-0.1443h0.1998l-0.3441 4.04-0.3774 0.333-0.6216-0.677 0.2442-2.864z"/>
  <path d="m81.87 136.1q0.0555 0.1332 0.0555 0.2664t-0.0555 0.2664-0.1443 0.222q-0.08879 0.0888-0.222 0.1443-0.1332 0.0555-0.2664 0.0555t-0.2664-0.0555-0.222-0.1443q-0.08879-0.0888-0.1443-0.222-0.05549-0.1332-0.05549-0.2664t0.05549-0.2664q0.0555-0.1332 0.1443-0.222 0.08879-0.0888 0.222-0.1443 0.1332-0.0555 0.2664-0.0555t0.2664 0.0555 0.222 0.1443q0.08879 0.0888 0.1443 0.222z"/>
  <path d="m83.82 136.4-0.2615-0.2705 0.2886-3.282h0.1623l0.1082 0.1172 0.505 0.55-0.1984 2.335zm0.3697-4.229-0.1262 0.1172h-0.1623l0.2795-3.273 0.3066-0.2795 0.505 0.55-0.1984 2.335zm0.7304-3.832 0.2976-0.2795h3.67l0.2525 0.2795-0.6042 0.5591h-3.111zm4.581 0.3968 0.2615 0.2705-0.2886 3.282h-0.1623l-0.1082-0.1172-0.505-0.55 0.1984-2.335zm-1.1 8.061-0.2976 0.2795h-3.67l-0.2525-0.2795 0.6042-0.5591h3.111zm0.7304-3.832 0.1262-0.1172h0.1623l-0.2795 3.282-0.3066 0.2705-0.505-0.55 0.1984-2.326z"/>
  <path d="m91.18 136.4-0.2615-0.2705 0.2886-3.282h0.1623l0.1082 0.1172 0.505 0.55-0.1984 2.335zm0.3697-4.229-0.1262 0.1172h-0.1623l0.2795-3.273 0.3066-0.2795 0.505 0.55-0.1984 2.335zm0.7304-3.832 0.2976-0.2795h3.67l0.2525 0.2795-0.6042 0.5591h-3.111zm4.581 0.3968 0.2615 0.2705-0.2885 3.282h-0.1623l-0.1082-0.1172-0.505-0.55 0.1984-2.335zm-1.1 8.061-0.2976 0.2795h-3.67l-0.2525-0.2795 0.6042-0.5591h3.111zm0.7304-3.832 0.1262-0.1172h0.1623l-0.2795 3.282-0.3066 0.2705-0.505-0.55 0.1984-2.326z"/>
 </g>
 <g fill="#ccc">
  <path d="m47.97 163c0.7867 0 1.309-0.2506 1.768-0.6544 0.07658-0.0696 0.1392-0.174 0.1392-0.3063 0-0.2158-0.188-0.3968-0.4038-0.3968-0.1044 0-0.1949 0.0418-0.2576 0.0975-0.355 0.2994-0.7031 0.4664-1.218 0.4664-0.9329 0-1.608-0.7728-1.608-1.726v-0.0139c0-0.9537 0.6822-1.72 1.608-1.72 0.4664 0 0.8284 0.1671 1.163 0.4386 0.05569 0.0418 0.1392 0.0835 0.2576 0.0835 0.2367 0 0.4247-0.181 0.4247-0.4177 0-0.1532-0.07658-0.2715-0.1671-0.3411-0.4247-0.3272-0.9189-0.55-1.671-0.55-1.476 0-2.513 1.135-2.513 2.52v0.0139c0 1.399 1.058 2.506 2.478 2.506z"/>
  <path d="m50.84 162.5c0 0.2437 0.188 0.4316 0.4316 0.4316h2.632c0.2158 0 0.3899-0.174 0.3899-0.3898s-0.174-0.3898-0.3899-0.3898h-2.207v-3.704c0-0.2367-0.188-0.4247-0.4247-0.4247-0.2437 0-0.4316 0.188-0.4316 0.4247z"/>
  <path d="m57.21 163c1.497 0 2.555-1.149 2.555-2.52v-0.0139c0-1.371-1.044-2.506-2.541-2.506s-2.555 1.149-2.555 2.52v0.0139c0 1.371 1.044 2.506 2.541 2.506zm0.01392-0.7936c-0.9677 0-1.657-0.7797-1.657-1.726v-0.0139c0-0.9468 0.6753-1.72 1.643-1.72s1.657 0.7867 1.657 1.733v0.0139c0 0.9468-0.6753 1.713-1.643 1.713z"/>
  <path d="m63.06 163c0.7867 0 1.309-0.2506 1.768-0.6544 0.07658-0.0696 0.1392-0.174 0.1392-0.3063 0-0.2158-0.188-0.3968-0.4038-0.3968-0.1044 0-0.1949 0.0418-0.2576 0.0975-0.355 0.2994-0.7031 0.4664-1.218 0.4664-0.9329 0-1.608-0.7728-1.608-1.726v-0.0139c0-0.9537 0.6822-1.72 1.608-1.72 0.4664 0 0.8284 0.1671 1.163 0.4386 0.05569 0.0418 0.1392 0.0835 0.2576 0.0835 0.2367 0 0.4247-0.181 0.4247-0.4177 0-0.1532-0.07658-0.2715-0.1671-0.3411-0.4247-0.3272-0.9189-0.55-1.671-0.55-1.476 0-2.513 1.135-2.513 2.52v0.0139c0 1.399 1.058 2.506 2.478 2.506z"/>
  <path d="m65.94 162.5c0 0.2367 0.188 0.4247 0.4316 0.4247 0.2367 0 0.4247-0.188 0.4247-0.4247v-1.009l0.7936-0.7658 1.566 1.998c0.0905 0.1184 0.1949 0.2019 0.362 0.2019 0.2437 0 0.4316-0.181 0.4316-0.4177 0-0.1323-0.04873-0.2158-0.1183-0.3063l-1.643-2.04 1.518-1.462c0.09746-0.0905 0.1532-0.188 0.1532-0.3202 0-0.2088-0.1601-0.3968-0.3968-0.3968-0.1532 0-0.2576 0.0557-0.355 0.1601l-2.311 2.325v-2.061c0-0.2367-0.188-0.4247-0.4247-0.4247-0.2437 0-0.4316 0.188-0.4316 0.4247z"/>
  <path d="m81.11 162.5c0 0.2367 0.188 0.4247 0.4316 0.4247 0.2367 0 0.4247-0.188 0.4247-0.4247v-1.177h0.9677c1.072 0 1.949-0.5708 1.949-1.664v-0.0139c0-0.9816-0.7101-1.629-1.852-1.629h-1.49c-0.2437 0-0.4316 0.188-0.4316 0.4316zm0.8563-1.949v-1.754h0.9955c0.6405 0 1.051 0.2994 1.051 0.8702v0.0139c0 0.5082-0.4038 0.8702-1.051 0.8702z"/>
  <path d="m85.76 162.5c0 0.2367 0.188 0.4247 0.4316 0.4247 0.2367 0 0.4247-0.188 0.4247-0.4247v-1.664h2.325v1.664c0 0.2367 0.188 0.4247 0.4247 0.4247 0.2437 0 0.4316-0.188 0.4316-0.4247v-4.093c0-0.2367-0.188-0.4247-0.4316-0.4247-0.2367 0-0.4247 0.188-0.4247 0.4247v1.636h-2.325v-1.636c0-0.2367-0.188-0.4247-0.4247-0.4247-0.2437 0-0.4316 0.188-0.4316 0.4247z"/>
  <path d="m90.71 162.6c0 0.2228 0.174 0.3968 0.3968 0.3968 0.181 0 0.3272-0.0975 0.3968-0.2715l0.4107-0.9398h2.367l0.3968 0.912c0.07658 0.181 0.2158 0.2994 0.4177 0.2994 0.2297 0 0.4038-0.181 0.4038-0.4107 0-0.0557-0.01392-0.1183-0.04873-0.181l-1.81-4.038c-0.09746-0.2158-0.2645-0.3481-0.5082-0.3481h-0.04177c-0.2437 0-0.4177 0.1323-0.5152 0.3481l-1.81 4.038c-0.03481 0.0696-0.05569 0.1323-0.05569 0.1949zm1.532-1.573 0.8563-1.97 0.8563 1.97z"/>
  <path d="m98.08 163c1.023 0 1.74-0.543 1.74-1.455v-0.0139c0-0.8076-0.5291-1.177-1.559-1.427-0.9398-0.2228-1.163-0.3898-1.163-0.7658v-0.0139c0-0.3202 0.2924-0.5778 0.7936-0.5778 0.3829 0 0.7449 0.1253 1.121 0.369 0.06962 0.0418 0.1392 0.0627 0.2228 0.0627 0.2228 0 0.4038-0.174 0.4038-0.3968 0-0.1671-0.0905-0.2854-0.188-0.3411-0.4386-0.2924-0.9329-0.4525-1.545-0.4525-0.9677 0-1.664 0.5778-1.664 1.413v0.0139c0 0.898 0.5848 1.204 1.622 1.455 0.905 0.2088 1.1 0.3968 1.1 0.7449v0.0139c0 0.362-0.3342 0.6126-0.8632 0.6126-0.5291 0-0.9607-0.181-1.364-0.5012-0.05569-0.0418-0.1323-0.0766-0.2506-0.0766-0.2228 0-0.4038 0.174-0.4038 0.3968 0 0.1392 0.06962 0.2576 0.1671 0.3272 0.543 0.4038 1.17 0.6126 1.831 0.6126z"/>
  <path d="m101.3 162.9h2.868c0.2088 0 0.3829-0.1671 0.3829-0.3829 0-0.2088-0.174-0.3829-0.3829-0.3829h-2.444v-1.309h2.095c0.2088 0 0.3829-0.1671 0.3829-0.3759 0-0.2158-0.174-0.3898-0.3829-0.3898h-2.095v-1.267h2.409c0.2088 0 0.3829-0.1671 0.3829-0.3829 0-0.2088-0.174-0.3829-0.3829-0.3829h-2.833c-0.2437 0-0.4316 0.188-0.4316 0.4316v4.01c0 0.2437 0.188 0.4316 0.4316 0.4316z"/>
  <path d="m15.9 113.5c0 0.2367 0.188 0.4247 0.4316 0.4247 0.2367 0 0.4247-0.188 0.4247-0.4247v-1.309h1.079l1.183 1.511c0.09746 0.1323 0.2228 0.2228 0.4177 0.2228 0.2088 0 0.4107-0.1601 0.4107-0.3968 0-0.1323-0.05569-0.2228-0.1392-0.3272l-0.9329-1.177c0.6544-0.2019 1.107-0.6753 1.107-1.455v-0.0139c0-0.4247-0.1462-0.7867-0.4038-1.051-0.3133-0.3063-0.7936-0.4873-1.406-0.4873h-1.74c-0.2437 0-0.4316 0.188-0.4316 0.4316zm0.8563-2.068v-1.636h1.246c0.6335 0 1.009 0.2854 1.009 0.8076v0.0139c0 0.4943-0.3899 0.8145-1.002 0.8145z"/>
  <path d="m21.37 113.9h2.868c0.2088 0 0.3829-0.1671 0.3829-0.3829 0-0.2088-0.174-0.3829-0.3829-0.3829h-2.444v-1.309h2.095c0.2088 0 0.3829-0.1671 0.3829-0.3759 0-0.2158-0.174-0.3899-0.3829-0.3899h-2.095v-1.267h2.409c0.2088 0 0.3829-0.1671 0.3829-0.3829 0-0.2088-0.174-0.3829-0.3829-0.3829h-2.833c-0.2437 0-0.4316 0.188-0.4316 0.4316v4.01c0 0.2437 0.188 0.4316 0.4316 0.4316z"/>
  <path d="m27.5 114h0.04873c0.2437 0 0.4038-0.1323 0.4943-0.3481l1.713-4.038c0.02088-0.0487 0.04177-0.1183 0.04177-0.181 0-0.2297-0.188-0.4107-0.4247-0.4107-0.2019 0-0.355 0.1323-0.4107 0.2785l-1.427 3.543-1.406-3.516c-0.06962-0.181-0.2158-0.3063-0.4386-0.3063-0.2437 0-0.4316 0.188-0.4316 0.4177 0 0.0766 0.02088 0.1392 0.04873 0.2019l1.706 4.01c0.0905 0.2158 0.2506 0.3481 0.4873 0.3481z"/>
 </g>
 <g fill="#b3b3b3" stroke-width=".9482">
  <path d="m58.34 28.8c1.338 0 2.222-0.3942 2.974-1.051 0.1672-0.1433 0.3106-0.3703 0.3106-0.657 0-0.4658-0.3942-0.8481-0.86-0.8481-0.215 0-0.4061 0.0836-0.5494 0.2031-0.5256 0.4181-1.039 0.657-1.816 0.657-1.433 0-2.425-1.194-2.425-2.628v-0.0239c0-1.433 1.015-2.604 2.425-2.604 0.6569 0 1.194 0.215 1.708 0.5972 0.1314 0.0836 0.2986 0.1792 0.5494 0.1792 0.5017 0 0.9078-0.3942 0.9078-0.8958 0-0.3225-0.1672-0.5853-0.3583-0.7286-0.6928-0.5136-1.541-0.8481-2.795-0.8481-2.568 0-4.36 1.947-4.36 4.324v0.0239c0 2.401 1.828 4.3 4.288 4.3z"/>
  <path d="m63.24 27.7c0 0.5136 0.4061 0.9197 0.9197 0.9197h4.324c0.4658 0 0.8361-0.3703 0.8361-0.8361s-0.3703-0.8361-0.8361-0.8361h-3.404v-5.841c0-0.5136-0.4061-0.9197-0.9197-0.9197s-0.9197 0.4061-0.9197 0.9197z"/>
  <path d="m74.23 28.8c2.58 0 4.455-1.947 4.455-4.324v-0.0239c0-2.377-1.851-4.3-4.431-4.3s-4.455 1.947-4.455 4.324v0.0239c0 2.377 1.851 4.3 4.431 4.3zm0.02389-1.696c-1.481 0-2.532-1.194-2.532-2.628v-0.0239c0-1.433 1.027-2.604 2.508-2.604s2.532 1.194 2.532 2.628v0.0239c0 1.433-1.027 2.604-2.508 2.604z"/>
  <path d="m84.23 28.8c1.338 0 2.222-0.3942 2.974-1.051 0.1672-0.1433 0.3106-0.3703 0.3106-0.657 0-0.4658-0.3942-0.8481-0.86-0.8481-0.215 0-0.4061 0.0836-0.5494 0.2031-0.5256 0.4181-1.039 0.657-1.816 0.657-1.433 0-2.425-1.194-2.425-2.628v-0.0239c0-1.433 1.015-2.604 2.425-2.604 0.6569 0 1.194 0.215 1.708 0.5972 0.1314 0.0836 0.2986 0.1792 0.5494 0.1792 0.5017 0 0.9078-0.3942 0.9078-0.8958 0-0.3225-0.1672-0.5853-0.3583-0.7286-0.6928-0.5136-1.541-0.8481-2.795-0.8481-2.568 0-4.36 1.947-4.36 4.324v0.0239c0 2.401 1.828 4.3 4.288 4.3z"/>
  <path d="m89.13 27.8c0 0.5136 0.4061 0.9197 0.9197 0.9197s0.9197-0.4061 0.9197-0.9197v-1.672l1.051-0.9794 2.389 3.129c0.2031 0.2628 0.4181 0.4419 0.7764 0.4419 0.5375 0 0.9317-0.3822 0.9317-0.8958 0-0.2747-0.1075-0.4658-0.2508-0.645l-2.568-3.225 2.353-2.198c0.2031-0.1911 0.3344-0.4061 0.3344-0.6928 0-0.4539-0.3344-0.8481-0.8481-0.8481-0.3225 0-0.5494 0.1314-0.7764 0.3583l-3.392 3.368v-2.807c0-0.5136-0.4061-0.9197-0.9197-0.9197s-0.9197 0.4061-0.9197 0.9197z"/>
 </g>
 <rect x="119" y="3" width="17" height="9" rx="4.5" ry="4.5" fill-opacity=".3765"/>
 <path d="m127.5 13c-3.054 0-5.539-2.484-5.539-5.538s2.484-5.538 5.539-5.538c3.054 0 5.539 2.484 5.539 5.538s-2.484 5.538-5.539 5.538" fill="#292b2b" stroke="#363838" stroke-width=".9231"/>
 <path d="m128.2 11.4h-1.472v-7.775h1.472z" fill="#141615"/>
 <path d="m131.4 8.2h-7.775v-1.472h7.775z" fill="#141615"/>
 <rect x="119" y="368" width="17" height="9" rx="4.5" ry="4.5" fill-opacity=".3765"/>
 <path d="m127.5 378c-3.054 0-5.539-2.484-5.539-5.538s2.484-5.538 5.539-5.538c3.054 0 5.539 2.484 5.539 5.538s-2.484 5.538-5.539 5.538" fill="#292b2b" stroke="#363838" stroke-width=".9231"/>
 <path d="m128.2 376.4h-1.472v-7.775h1.472z" fill="#141615"/>
 <path d="m131.4 373.2h-7.775v-1.472h7.775z" fill="#141615"/>
 <rect x="14" y="3" width="17" height="9" rx="4.5" ry="4.5" fill-opacity=".3765"/>
 <path d="m22.5 13c-3.054 0-5.539-2.484-5.539-5.538s2.484-5.538 5.539-5.538c3.054 0 5.539 2.484 5.539 5.538s-2.484 5.538-5.539 5.538" fill="#292b2b" stroke="#363838" stroke-width=".9231"/>
 <path d="m23.24 11.4h-1.472v-7.775h1.472z" fill="#141615"/>
 <path d="m26.39 8.2h-7.775v-1.472h7.775z" fill="#141615"/>
 <rect x="14" y="368" width="17" height="9" rx="4.5" ry="4.5" fill-opacity=".3765"/>
 <path d="m22.5 378c-3.054 0-5.539-2.484-5.539-5.538s2.484-5.538 5.539-5.538c3.054 0 5.539 2.484 5.539 5.538s-2.484 5.538-5.539 5.538" fill="#292b2b" stroke="#363838" stroke-width=".9231"/>
 <path d="m23.24 376.4h-1.472v-7.775h1.472z" fill="#141615"/>
 <path d="m26.39 373.2h-7.775v-1.472h7.775z" fill="#141615"/>
 <circle cx="22.5" cy="87.5" r="12.5" fill-opacity=".1488"/>
 <path d="m22.5 96.5c-6.627 0-12.02-5.389-12.02-12.02 0-6.627 5.389-12.02 12.02-12.02 6.627 0 12.02 5.389 12.02 12.02 0 6.628-5.389 12.02-12.02 12.02" fill="#2b2c2c" stroke="#000" stroke-width=".7413"/>
 <path d="m22.5 92.1c-4.2 0-7.616-3.416-7.616-7.616s3.416-7.616 7.616-7.616 7.616 3.416 7.616 7.616-3.416 7.616-7.616 7.616" fill="#515454" stroke="#000" stroke-width="1.891"/>
 <path d="m27.84 84.5c0 2.946-2.39 5.336-5.336 5.336s-5.336-2.39-5.336-5.336 2.39-5.336 5.336-5.336 5.336 2.39 5.336 5.336"/>
 <circle cx="75" cy="91" r="21.69" fill-opacity=".149"/>
 <circle cx="75" cy="84.5" r="21.69" fill="#424747"/>
 <path d="m75 60.8-1.48-0.9663c-0.3792 0.019-0.7561 0.045-1.119 0.084l-2.639 14.76v1.534c-2.843 1.796-4.567 4.924-4.568 8.287 4e-3 3.36 1.728 6.484 4.568 8.279v15.83c1.72 0.3832 3.476 0.5813 5.238 0.5908 1.762-0.01 3.518-0.206 5.238-0.5882v-15.82c2.843-1.797 4.568-4.926 4.568-8.289-4e-3 -3.36-1.728-6.484-4.568-8.279v-1.542l-2.517-14.71c-0.4195-0.049-0.8401-0.087-1.262-0.1146l-1.46 0.9484z" fill="#f2f2f2"/>
 <path d="m75 73.2c-1.88 0-3.648 0.4672-5.207 1.281l-0.0302 0.1739v1.533a9.807 9.807 0 0 0-4.566 8.287 9.807 9.807 0 0 0 4.566 8.279v6.836a16.02 16.02 0 0 0 5.238 0.9004 16.02 16.02 0 0 0 5.238-0.9004v-6.826a9.807 9.807 0 0 0 4.568-8.289 9.807 9.807 0 0 0-4.568-8.279v-1.541l-0.0302-0.1739c-1.559-0.8136-3.327-1.281-5.207-1.281z" fill="#fff"/>
 <rect x="73.53" y="59.8" width="2.937" height="11.55" fill="#595959"/>
 <circle cx="75" cy="84.5" r="5.866" fill="#cecece"/>
 <path d="m78.57 82.4 0.1172 2.063-0.1172 2.063-1.728 1.133-1.845 0.9302-1.845-0.9302-1.728-1.133-0.1172-2.063 0.1172-2.063 1.728-1.133 1.845-0.9301 1.845 0.9301z" fill="#9c9c9c"/>
 <circle cx="22.5" cy="183.5" r="12.5" fill-opacity=".1488"/>
 <path d="m22.5 192.5c-6.627 0-12.02-5.389-12.02-12.02s5.389-12.02 12.02-12.02c6.627 0 12.02 5.389 12.02 12.02s-5.389 12.02-12.02 12.02" fill="#2b2c2c" stroke="#000" stroke-width=".7413"/>
 <path d="m22.5 188.1c-4.2 0-7.616-3.416-7.616-7.616s3.416-7.616 7.616-7.616 7.616 3.416 7.616 7.616-3.416 7.616-7.616 7.616" fill="#515454" stroke="#000" stroke-width="1.891"/>
 <path d="m27.84 180.5c0 2.946-2.39 5.336-5.336 5.336s-5.336-2.39-5.336-5.336 2.39-5.336 5.336-5.336 5.336 2.39 5.336 5.336"/>
 <circle cx="57.5" cy="183.5" r="12.5" fill-opacity=".1488"/>
 <path d="m57.5 192.5c-6.627 0-12.02-5.389-12.02-12.02s5.389-12.02 12.02-12.02c6.627 0 12.02 5.389 12.02 12.02s-5.389 12.02-12.02 12.02" fill="#2b2c2c" stroke="#000" stroke-width=".7413"/>
 <path d="m57.5 188.1c-4.2 0-7.616-3.416-7.616-7.616s3.416-7.616 7.616-7.616 7.616 3.416 7.616 7.616-3.416 7.616-7.616 7.616" fill="#515454" stroke="#000" stroke-width="1.891"/>
 <path d="m62.84 180.5c0 2.946-2.39 5.336-5.336 5.336s-5.336-2.39-5.336-5.336 2.39-5.336 5.336-5.336 5.336 2.39 5.336 5.336"/>
 <circle cx="92.5" cy="183.5" r="12.5" fill-opacity=".1488"/>
 <path d="m92.5 192.5c-6.627 0-12.02-5.389-12.02-12.02s5.389-12.02 12.02-12.02 12.02 5.389 12.02 12.02-5.389 12.02-12.02 12.02" fill="#2b2c2c" stroke="#000" stroke-width=".7413"/>
 <path d="m92.5 188.1c-4.2 0-7.616-3.416-7.616-7.616s3.416-7.616 7.616-7.616 7.616 3.416 7.616 7.616-3.416 7.616-7.616 7.616" fill="#515454" stroke="#000" stroke-width="1.891"/>
 <path d="m97.84 180.5c0 2.946-2.39 5.336-5.336 5.336s-5.336-2.39-5.336-5.336 2.39-5.336 5.336-5.336 5.336 2.39 5.336 5.336"/>
 <circle cx="127.5" cy="183.5" r="12.5" fill-opacity=".1488"/>
 <path d="m127.5 192.5c-6.627 0-12.02-5.389-12.02-12.02s5.389-12.02 12.02-12.02 12.02 5.389 12.02 12.02-5.389 12.02-12.02 12.02" fill="#2b2c2c" stroke="#000" stroke-width=".7413"/>
 <path d="m127.5 188.1c-4.2 0-7.616-3.416-7.616-7.616s3.416-7.616 7.616-7.616 7.616 3.416 7.616 7.616-3.416 7.616-7.616 7.616" fill="#515454" stroke="#000" stroke-width="1.891"/>
 <path d="m132.8 180.5c0 2.946-2.39 5.336-5.336 5.336s-5.336-2.39-5.336-5.336 2.39-5.336 5.336-5.336 5.336 2.39 5.336 5.336"/>
 <rect x="113" y="228" width="29" height="31" rx="3" ry="3" fill="#b3b3b3"/>
 <circle cx="127.5" cy="246.5" r="12.5" fill-opacity=".1488"/>
 <path d="m127.5 255.9c-6.626 0-12.02-5.39-12.02-12.02s5.39-12.02 12.02-12.02 12.02 5.39 12.02 12.02-5.39 12.02-12.02 12.02" fill="#515454" stroke="#000" stroke-width=".7413"/>
 <path d="m127.5 251.3c-4.2 0-7.617-3.416-7.617-7.617 0-4.2 3.416-7.617 7.617-7.617s7.617 3.416 7.617 7.617c0 4.2-3.416 7.617-7.617 7.617" fill="#b3b3b3" stroke="#000" stroke-width="1.891"/>
 <path d="m132.8 243.8c0 2.946-2.39 5.337-5.337 5.337s-5.337-2.39-5.337-5.337c0-2.946 2.39-5.337 5.337-5.337s5.337 2.39 5.337 5.337" stroke-width="3.78"/>
 <rect x="8" y="228" width="29" height="31" rx="3" ry="3" fill="#b3b3b3"/>
 <circle cx="22.5" cy="246.5" r="12.5" fill-opacity=".1488"/>
 <path d="m22.53 255.9c-6.626 0-12.02-5.39-12.02-12.02s5.39-12.02 12.02-12.02 12.02 5.39 12.02 12.02-5.39 12.02-12.02 12.02" fill="#515454" stroke="#000" stroke-width=".7413"/>
 <path d="m22.53 251.3c-4.2 0-7.617-3.416-7.617-7.617 0-4.2 3.416-7.617 7.617-7.617s7.617 3.416 7.617 7.617c0 4.2-3.416 7.617-7.617 7.617" fill="#b3b3b3" stroke="#000" stroke-width="1.891"/>
 <path d="m27.82 243.8c0 2.946-2.39 5.337-5.337 5.337s-5.337-2.39-5.337-5.337c0-2.946 2.39-5.337 5.337-5.337s5.337 2.39 5.337 5.337" stroke-width="3.78"/>
 <rect x="43" y="276" width="29" height="21" rx="3" ry="3" fill-opacity=".9823"/>
 <rect x="45" y="278" width="25" height="17" rx="1" ry="1" fill="#131313" fill-opacity=".9823"/>
 <path d="m49.02 291.2-0.3219-0.333 0.3552-4.04h0.1998l0.1332 0.1443 0.6216 0.677-0.2442 2.875zm0.4551-5.206-0.1554 0.1443h-0.1998l0.3441-4.029 0.3774-0.3441 0.6216 0.677-0.2442 2.875zm0.899-4.717 0.3663-0.3441h4.517l0.3108 0.3441-0.7436 0.6882h-3.829zm4.273 4.695 0.4662 0.5106-0.555 0.5106h-4.173l-0.4662-0.5106 0.555-0.5106zm1.365-4.207 0.3219 0.333-0.3552 4.04h-0.1998l-0.1332-0.1443-0.6216-0.6771 0.2442-2.875zm-1.354 9.923-0.3663 0.3441h-4.517l-0.3108-0.3441 0.7436-0.6882h3.829zm0.899-4.717 0.1554-0.1443h0.1998l-0.3441 4.04-0.3774 0.333-0.6216-0.677 0.2442-2.864z" fill="#1e1f1d"/>
 <path d="m59 291.2-0.3219-0.333 0.3552-4.04h0.1998l0.1332 0.1443 0.6216 0.677-0.2442 2.875zm0.4551-5.206-0.1554 0.1443h-0.1998l0.3441-4.029 0.3774-0.3441 0.6216 0.677-0.2442 2.875zm0.899-4.717 0.3663-0.3441h4.517l0.3108 0.3441-0.7436 0.6882h-3.829zm4.273 4.695 0.4662 0.5106-0.555 0.5106h-4.173l-0.4662-0.5106 0.555-0.5106zm1.365-4.207 0.3219 0.333-0.3552 4.04h-0.1998l-0.1332-0.1443-0.6216-0.6771 0.2442-2.875zm-1.354 9.923-0.3663 0.3441h-4.517l-0.3108-0.3441 0.7436-0.6882h3.829zm0.899-4.717 0.1554-0.1443h0.1998l-0.3441 4.04-0.3774 0.333-0.6216-0.677 0.2442-2.864z" fill="#1e1f1d"/>
 <path d="m49.48 286-0.1554 0.1443h-0.1998l0.3441-4.029 0.3774-0.3441 0.6216 0.677-0.2442 2.875zm0.899-4.717 0.3663-0.3441h4.517l0.3108 0.3441-0.7436 0.6882h-3.829zm4.273 4.695 0.4662 0.5106-0.555 0.5106h-4.173l-0.4662-0.5106 0.555-0.5106zm0.0111 5.716-0.3663 0.3441h-4.517l-0.3108-0.3441 0.7436-0.6882h3.829zm0.899-4.717 0.1554-0.1443h0.1998l-0.3441 4.04-0.3774 0.333-0.6216-0.677 0.2442-2.864z" fill="#ffd42a"/>
 <path d="m59 291.2-0.3219-0.333 0.3552-4.04h0.1998l0.1332 0.1443 0.6216 0.677-0.2442 2.875zm0.4551-5.206-0.1554 0.1443h-0.1998l0.3441-4.029 0.3774-0.3441 0.6216 0.677-0.2442 2.875zm0.899-4.717 0.3663-0.3441h4.517l0.3108 0.3441-0.7436 0.6882h-3.829zm5.638 0.4884 0.3219 0.333-0.3552 4.04h-0.1998l-0.1332-0.1443-0.6216-0.6771 0.2442-2.875zm-1.354 9.923-0.3663 0.3441h-4.517l-0.3108-0.3441 0.7436-0.6882h3.829zm0.899-4.717 0.1554-0.1443h0.1998l-0.3441 4.04-0.3774 0.333-0.6216-0.677 0.2442-2.864z" fill="#ffd42a"/>
 <rect x="78" y="276" width="29" height="21" rx="3" ry="3" fill-opacity=".9823"/>
 <rect x="80" y="278" width="25" height="17" rx="1" ry="1" fill="#131313" fill-opacity=".9823"/>
 <path d="m84.02 291.2-0.3219-0.333 0.3552-4.04h0.1998l0.1332 0.1443 0.6216 0.677-0.2442 2.875zm0.4551-5.206-0.1554 0.1443h-0.1998l0.3441-4.029 0.3774-0.3441 0.6216 0.677-0.2442 2.875zm0.899-4.717 0.3663-0.3441h4.517l0.3108 0.3441-0.7436 0.6882h-3.829zm4.273 4.695 0.4662 0.5106-0.555 0.5106h-4.173l-0.4662-0.5106 0.555-0.5106zm1.365-4.207 0.3219 0.333-0.3552 4.04h-0.1998l-0.1332-0.1443-0.6216-0.6771 0.2442-2.875zm-1.354 9.923-0.3663 0.3441h-4.517l-0.3108-0.3441 0.7436-0.6882h3.829zm0.899-4.717 0.1554-0.1443h0.1998l-0.3441 4.04-0.3774 0.333-0.6216-0.677 0.2442-2.864z" fill="#1e1f1d"/>
 <path d="m94 291.2-0.3219-0.333 0.3552-4.04h0.1998l0.1332 0.1443 0.6216 0.677-0.2442 2.875zm0.4551-5.206-0.1554 0.1443h-0.1998l0.3441-4.029 0.3774-0.3441 0.6216 0.677-0.2442 2.875zm0.899-4.717 0.3663-0.3441h4.517l0.3108 0.3441-0.7436 0.6882h-3.829zm4.273 4.695 0.4662 0.5106-0.555 0.5106h-4.173l-0.4662-0.5106 0.555-0.5106zm1.365-4.207 0.3219 0.333-0.3552 4.04h-0.1998l-0.1332-0.1443-0.6216-0.6771 0.2442-2.875zm-1.354 9.923-0.3663 0.3441h-4.517l-0.3108-0.3441 0.7436-0.6882h3.829zm0.899-4.717 0.1554-0.1443h0.1998l-0.3441 4.04-0.3774 0.333-0.6216-0.677 0.2442-2.864z" fill="#1e1f1d"/>
 <path d="m84.48 286-0.1554 0.1443h-0.1998l0.3441-4.029 0.3774-0.3441 0.6216 0.677-0.2442 2.875zm0.899-4.717 0.3663-0.3441h4.517l0.3108 0.3441-0.7436 0.6882h-3.829zm4.273 4.695 0.4662 0.5106-0.555 0.5106h-4.173l-0.4662-0.5106 0.555-0.5106zm0.0111 5.716-0.3663 0.3441h-4.517l-0.3108-0.3441 0.7436-0.6882h3.829zm0.899-4.717 0.1554-0.1443h0.1998l-0.3441 4.04-0.3774 0.333-0.6216-0.677 0.2442-2.864z" fill="#ffd42a"/>
 <path d="m94 291.2-0.3219-0.333 0.3552-4.04h0.1998l0.1332 0.1443 0.6216 0.677-0.2442 2.875zm0.4551-5.206-0.1554 0.1443h-0.1998l0.3441-4.029 0.3774-0.3441 0.6216 0.677-0.2442 2.875zm0.899-4.717 0.3663-0.3441h4.517l0.3108 0.3441-0.7436 0.6882h-3.829zm5.638 0.4884 0.3219 0.333-0.3552 4.04h-0.1998l-0.1332-0.1443-0.6216-0.6771 0.2442-2.875zm-1.354 9.923-0.3663 0.3441h-4.517l-0.3108-0.3441 0.7436-0.6882h3.829zm0.899-4.717 0.1554-0.1443h0.1998l-0.3441 4.04-0.3774 0.333-0.6216-0.677 0.2442-2.864z" fill="#ffd42a"/>
 <circle cx="127.5" cy="334.5" r="12.5" fill-opacity=".1488"/>
 <path d="m127.5 343.5c-6.627 0-12.02-5.389-12.02-12.02s5.389-12.02 12.02-12.02 12.02 5.389 12.02 12.02-5.389 12.02-12.02 12.02" fill="#2b2c2c" stroke="#000" stroke-width=".7413"/>
 <path d="m127.5 339.1c-4.2 0-7.616-3.416-7.616-7.616s3.416-7.616 7.616-7.616 7.616 3.416 7.616 7.616-3.416 7.616-7.616 7.616" fill="#515454" stroke="#000" stroke-width="1.891"/>
 <path d="m132.8 331.5c0 2.946-2.39 5.336-5.336 5.336s-5.336-2.39-5.336-5.336 2.39-5.336 5.336-5.336 5.336 2.39 5.336 5.336"/>
 <circle cx="22.5" cy="334.5" r="12.5" fill-opacity=".1488"/>
 <path d="m22.5 343.5c-6.627 0-12.02-5.389-12.02-12.02s5.389-12.02 12.02-12.02 12.02 5.389 12.02 12.02-5.389 12.02-12.02 12.02" fill="#2b2c2c" stroke="#000" stroke-width=".7413"/>
 <path d="m22.5 339.1c-4.2 0-7.616-3.416-7.616-7.616s3.416-7.616 7.616-7.616 7.616 3.416 7.616 7.616-3.416 7.616-7.616 7.616" fill="#515454" stroke="#000" stroke-width="1.891"/>
 <path d="m27.84 331.5c0 2.946-2.39 5.336-5.336 5.336s-5.336-2.39-5.336-5.336 2.39-5.336 5.336-5.336 5.336 2.39 5.336 5.336"/>
 <g fill="#ccc">
  <path d="m117.5 314c1.023 0 1.74-0.543 1.74-1.455v-0.0139c0-0.8076-0.5291-1.177-1.559-1.427-0.9398-0.2228-1.163-0.3899-1.163-0.7658v-0.0139c0-0.3202 0.2924-0.5778 0.7936-0.5778 0.3829 0 0.7449 0.1253 1.121 0.369 0.0696 0.0418 0.1392 0.0627 0.2228 0.0627 0.2228 0 0.4038-0.174 0.4038-0.3968 0-0.1671-0.0905-0.2854-0.188-0.3411-0.4386-0.2924-0.9329-0.4525-1.545-0.4525-0.9677 0-1.664 0.5778-1.664 1.413v0.0139c0 0.8981 0.5848 1.204 1.622 1.455 0.905 0.2088 1.1 0.3968 1.1 0.7449v0.0139c0 0.362-0.3342 0.6126-0.8632 0.6126-0.5291 0-0.9607-0.181-1.364-0.5012-0.0557-0.0418-0.1323-0.0766-0.2506-0.0766-0.2228 0-0.4038 0.174-0.4038 0.3968 0 0.1392 0.0696 0.2576 0.1671 0.3272 0.543 0.4038 1.17 0.6126 1.831 0.6126z"/>
  <path d="m121.5 313.6c0.0835 0.2228 0.2367 0.355 0.4456 0.355h0.0835c0.2088 0 0.369-0.1323 0.4455-0.355l1.086-3.181 1.086 3.181c0.0766 0.2228 0.2297 0.355 0.4386 0.355h0.0835c0.2088 0 0.369-0.1392 0.4456-0.355l1.441-4.038c0.0209-0.0487 0.0418-0.1184 0.0418-0.174 0-0.2297-0.1949-0.4107-0.4247-0.4107-0.2088 0-0.355 0.1323-0.4177 0.3063l-1.121 3.356-1.1-3.335c-0.0626-0.2019-0.2158-0.3411-0.4316-0.3411h-0.0627c-0.2158 0-0.362 0.1392-0.4316 0.3411l-1.1 3.335-1.121-3.349c-0.0557-0.181-0.2158-0.3133-0.4247-0.3133-0.2367 0-0.4386 0.181-0.4386 0.4177 0 0.0557 0.0139 0.1184 0.0348 0.1671z"/>
  <path d="m128.1 313.5c0 0.2367 0.188 0.4247 0.4316 0.4247 0.2367 0 0.4247-0.188 0.4247-0.4247v-4.093c0-0.2367-0.188-0.4247-0.4247-0.4247-0.2437 0-0.4316 0.188-0.4316 0.4247z"/>
  <path d="m130 313.5c0 0.2297 0.188 0.4177 0.4247 0.4177 0.2297 0 0.4177-0.188 0.4177-0.4177v-3.091l2.506 3.244c0.1184 0.1532 0.2437 0.2576 0.4456 0.2576h0.0348c0.2367 0 0.4177-0.188 0.4177-0.4247v-4.093c0-0.2297-0.188-0.4177-0.4247-0.4177-0.2297 0-0.4177 0.188-0.4177 0.4177v2.994l-2.437-3.154c-0.1184-0.1462-0.2367-0.2506-0.4456-0.2506h-0.0905c-0.2437 0-0.4316 0.1949-0.4316 0.4316z"/>
  <path d="m137.5 314c0.731 0 1.316-0.2506 1.733-0.5291 0.2019-0.1253 0.2994-0.2994 0.2994-0.543v-1.302c0-0.2436-0.188-0.4316-0.4316-0.4316h-1.358c-0.2088 0-0.3829 0.1671-0.3829 0.3759s0.174 0.369 0.3829 0.369h0.9607v0.912c-0.2994 0.2228-0.717 0.369-1.177 0.369-0.9955 0-1.657-0.7379-1.657-1.74v-0.0139c0-0.9329 0.6822-1.72 1.58-1.72 0.5291 0 0.8702 0.1532 1.183 0.3829 0.0696 0.0487 0.1532 0.0975 0.2646 0.0975 0.2367 0 0.4247-0.1949 0.4247-0.4247 0-0.1671-0.0905-0.2854-0.174-0.3481-0.4456-0.3202-0.9329-0.4943-1.664-0.4943-1.469 0-2.513 1.156-2.513 2.52v0.0139c0 1.42 1.002 2.506 2.527 2.506z"/>
 </g>
 <circle cx="22.5" cy="210.5" r="11" fill="#151715"/>
 <circle cx="22.5" cy="210.5" r="9" fill="#ffd42a"/>
 <circle cx="22.5" cy="131.5" r="11" fill="#151715"/>
 <circle cx="22.5" cy="131.5" r="9" fill="#454545"/>
 <circle cx="127.5" cy="210.5" r="11" fill="#151715"/>
 <circle cx="127.5" cy="210.5" r="9" fill="#454545"/>
 <circle cx="127.5" cy="290.5" r="10.5" fill-opacity=".1488"/>
 <circle cx="127.5" cy="286.5" r="10.5" fill="#f2f2f2"/>
 <path d="m127.5 275.9c-0.4979 0-0.9949 0.043-1.486 0.1229v9.949h2.975v-9.943c-0.492-0.082-0.9896-0.1251-1.488-0.1289z" fill="#595959"/>
 <circle cx="22.5" cy="290.5" r="10.5" fill-opacity=".1488"/>
 <circle cx="22.5" cy="286.5" r="10.5" fill="#f2f2f2"/>
 <path d="m22.5 275.9c-0.4979 0-0.9949 0.043-1.486 0.1229v9.949h2.975v-9.943c-0.492-0.082-0.9896-0.1251-1.488-0.1289z" fill="#595959"/>
 <g fill="#4d4d4d" stroke="#000" stroke-linecap="round" stroke-linejoin="round" stroke-width=".2222">
  <circle cx="68.5" cy="169.5" r="1.719"/>
  <circle cx="103.5" cy="169.5" r="1.719"/>
  <circle cx="33.5" cy="73.5" r="1.719"/>
  <circle cx="96.5" cy="64.5" r="1.719"/>
 </g>
</svg>
