<?xml version="1.0" encoding="UTF-8" standalone="no"?>
<!-- Created with Inkscape (http://www.inkscape.org/) -->

<svg
   xmlns:dc="http://purl.org/dc/elements/1.1/"
   xmlns:cc="http://creativecommons.org/ns#"
   xmlns:rdf="http://www.w3.org/1999/02/22-rdf-syntax-ns#"
   xmlns:svg="http://www.w3.org/2000/svg"
   xmlns="http://www.w3.org/2000/svg"
   xmlns:sodipodi="http://sodipodi.sourceforge.net/DTD/sodipodi-0.dtd"
   xmlns:inkscape="http://www.inkscape.org/namespaces/inkscape"
   width="45"
   height="380"
   viewBox="0 0 45 380"
   version="1.1"
   id="svg8"
   inkscape:version="0.92.3 (2405546, 2018-03-11)"
   sodipodi:docname="FN-3.svg">
  <defs
     id="defs2">
    <clipPath
       clipPathUnits="userSpaceOnUse"
       id="clipPath1763">
      <path
         inkscape:connector-curvature="0"
         id="path1765"
         d="M 0,196.45831 H 23.8125 V 296.99999 H 0 Z"
         style="opacity:1;vector-effect:none;fill:#28220b;fill-opacity:1;fill-rule:evenodd;stroke:none;stroke-width:0.48607069;stroke-linecap:butt;stroke-linejoin:round;stroke-miterlimit:4;stroke-dasharray:none;stroke-dashoffset:0;stroke-opacity:1;paint-order:normal" />
    </clipPath>
    <clipPath
       clipPathUnits="userSpaceOnUse"
       id="clipPath3293">
      <path
         style="opacity:1;vector-effect:none;fill:#28220b;fill-opacity:1;fill-rule:evenodd;stroke:none;stroke-width:0.48607066;stroke-linecap:butt;stroke-linejoin:round;stroke-miterlimit:4;stroke-dasharray:none;stroke-dashoffset:0;stroke-opacity:1;paint-order:normal"
         d="M -1.5460537e-7,196.45831 H 19.843751 V 296.99999 H -1.5460537e-7 Z"
         id="path3295"
         inkscape:connector-curvature="0" />
    </clipPath>
  </defs>
  <sodipodi:namedview
     id="base"
     pagecolor="#ffffff"
     bordercolor="#666666"
     borderopacity="1.0"
     inkscape:pageopacity="0.0"
     inkscape:pageshadow="2"
     inkscape:zoom="15.877778"
     inkscape:cx="33.70783"
     inkscape:cy="353.87101"
     inkscape:document-units="px"
     inkscape:current-layer="svg8"
     showgrid="true"
     units="px"
     inkscape:snap-bbox="true"
     inkscape:snap-page="true"
     inkscape:bbox-nodes="true"
     inkscape:snap-bbox-edge-midpoints="true"
     inkscape:window-width="2088"
     inkscape:window-height="1671"
     inkscape:window-x="974"
     inkscape:window-y="253"
     inkscape:window-maximized="0"
     showguides="true"
     inkscape:guide-bbox="true"
     inkscape:snap-global="false">
    <inkscape:grid
       type="xygrid"
       id="grid985" />
  </sodipodi:namedview>
  <metadata
     id="metadata5">
    <rdf:RDF>
      <cc:Work
         rdf:about="">
        <dc:format>image/svg+xml</dc:format>
        <dc:type
           rdf:resource="http://purl.org/dc/dcmitype/StillImage" />
        <dc:title />
      </cc:Work>
    </rdf:RDF>
  </metadata>
  <path
     style="opacity:1;vector-effect:none;fill:#202321;fill-opacity:1;fill-rule:evenodd;stroke:none;stroke-width:1.83711743;stroke-linecap:butt;stroke-linejoin:round;stroke-miterlimit:4;stroke-dasharray:none;stroke-dashoffset:0;stroke-opacity:1;paint-order:normal"
     d="M 0,-4.4397306e-5 H 45.00006 V 379.99999 H 0 Z"
     id="path9326"
     inkscape:connector-curvature="0"
     sodipodi:nodetypes="ccccc" />
  <g
     transform="matrix(3.7795274,0,0,3.7795274,-44.999994,-742.51961)"
     id="g9338">
    <rect
       style="opacity:1;fill:#000000;fill-opacity:0.37647059;stroke:none;stroke-width:0.32900003;stroke-linecap:round;stroke-linejoin:round;stroke-miterlimit:4;stroke-dasharray:none;stroke-dashoffset:0;stroke-opacity:1"
       id="rect9334"
       width="4.4979172"
       height="2.3812449"
       x="15.610415"
       y="197.25208"
       rx="1.1906224"
       ry="1.1906224" />
    <path
       inkscape:connector-curvature="0"
       style="opacity:1;fill:#ffffff;fill-opacity:0.0627451;stroke:none;stroke-width:0.32900003;stroke-linecap:round;stroke-linejoin:round;stroke-miterlimit:4;stroke-dasharray:none;stroke-dashoffset:0;stroke-opacity:1"
       d="m 15.623851,198.57499 c -0.0049,0.044 -0.01344,0.0869 -0.01344,0.13229 0,0.6596 0.53102,1.19062 1.190624,1.19062 h 2.116667 c 0.659605,0 1.190625,-0.53102 1.190625,-1.19062 0,-0.0454 -0.0085,-0.0882 -0.01344,-0.13229 -0.06629,0.59595 -0.562979,1.05833 -1.177189,1.05833 h -2.116662 c -0.61421,0 -1.110904,-0.46238 -1.177189,-1.05833 z"
       id="path9336" />
  </g>
  <g
     id="g9356"
     transform="matrix(3.7795274,0,0,3.7795274,-44.999994,-377.51966)">
    <rect
       ry="1.1906224"
       rx="1.1906224"
       y="197.25208"
       x="15.610415"
       height="2.3812449"
       width="4.4979172"
       id="rect9352"
       style="opacity:1;fill:#000000;fill-opacity:0.37647059;stroke:none;stroke-width:0.32900003;stroke-linecap:round;stroke-linejoin:round;stroke-miterlimit:4;stroke-dasharray:none;stroke-dashoffset:0;stroke-opacity:1" />
    <path
       id="path9354"
       d="m 15.623851,198.57499 c -0.0049,0.044 -0.01344,0.0869 -0.01344,0.13229 0,0.6596 0.53102,1.19062 1.190624,1.19062 h 2.116667 c 0.659605,0 1.190625,-0.53102 1.190625,-1.19062 0,-0.0454 -0.0085,-0.0882 -0.01344,-0.13229 -0.06629,0.59595 -0.562979,1.05833 -1.177189,1.05833 h -2.116662 c -0.61421,0 -1.110904,-0.46238 -1.177189,-1.05833 z"
       style="opacity:1;fill:#ffffff;fill-opacity:0.0627451;stroke:none;stroke-width:0.32900003;stroke-linecap:round;stroke-linejoin:round;stroke-miterlimit:4;stroke-dasharray:none;stroke-dashoffset:0;stroke-opacity:1"
       inkscape:connector-curvature="0" />
  </g>
  <rect
     ry="3.0000067"
     rx="3.0000067"
     y="306.00027"
     x="8.0001268"
     height="41.000008"
     width="28.999998"
     id="rect9370"
     style="opacity:1;fill:#808080;fill-opacity:1;stroke:none;stroke-width:1;stroke-linecap:round;stroke-linejoin:round;stroke-miterlimit:0;stroke-dasharray:none;stroke-dashoffset:0;stroke-opacity:1" />
  <g
     aria-label="WAVE"
     style="font-style:normal;font-variant:normal;font-weight:300;font-stretch:normal;font-size:6.9615593px;line-height:1.25;font-family:'Gotham Rounded';-inkscape-font-specification:'Gotham Rounded Light';text-align:center;letter-spacing:0px;word-spacing:0px;text-anchor:middle;fill:#000000;fill-opacity:1;stroke:none;stroke-width:0.99999988"
     id="text9374">
    <path
       d="m 13.551584,314.046 c 0.08354,0.22277 0.236693,0.35504 0.44554,0.35504 h 0.08354 c 0.208846,0 0.368962,-0.13227 0.445539,-0.35504 l 1.086004,-3.18144 1.086003,3.18144 c 0.07658,0.22277 0.229731,0.35504 0.438578,0.35504 h 0.08354 c 0.208847,0 0.368963,-0.13923 0.44554,-0.35504 l 1.441042,-4.03771 c 0.02088,-0.0487 0.04177,-0.11834 0.04177,-0.17404 0,-0.22973 -0.194924,-0.41073 -0.424655,-0.41073 -0.208847,0 -0.35504,0.13227 -0.417694,0.30631 l -1.120811,3.35547 -1.099926,-3.33459 c -0.06265,-0.20188 -0.215809,-0.34111 -0.431617,-0.34111 h -0.06265 c -0.215808,0 -0.362001,0.13923 -0.431617,0.34111 l -1.099926,3.33459 -1.120811,-3.34851 c -0.05569,-0.181 -0.215808,-0.31327 -0.424655,-0.31327 -0.236693,0 -0.438578,0.181 -0.438578,0.4177 0,0.0557 0.01392,0.11834 0.03481,0.16707 z"
       style="font-style:normal;font-variant:normal;font-weight:300;font-stretch:normal;font-family:'Gotham Rounded';-inkscape-font-specification:'Gotham Rounded Light';text-align:center;text-anchor:middle;fill:#000000;fill-opacity:1;stroke-width:0.99999988"
       id="path1385" />
    <path
       d="m 19.254842,313.96942 c 0,0.22277 0.174039,0.39681 0.396809,0.39681 0.181,0 0.327193,-0.0975 0.396808,-0.2715 l 0.410732,-0.93981 h 2.366931 l 0.396808,0.91196 c 0.07658,0.181 0.215809,0.29935 0.417694,0.29935 0.229732,0 0.40377,-0.181 0.40377,-0.41073 0,-0.0557 -0.01392,-0.11835 -0.04873,-0.181 l -1.810006,-4.03771 c -0.09746,-0.21581 -0.264539,-0.34808 -0.508194,-0.34808 h -0.04177 c -0.243655,0 -0.417694,0.13227 -0.515155,0.34808 l -1.810006,4.03771 c -0.03481,0.0696 -0.05569,0.13227 -0.05569,0.19492 z m 1.531543,-1.57331 0.856272,-1.97012 0.856271,1.97012 z"
       style="font-style:normal;font-variant:normal;font-weight:300;font-stretch:normal;font-family:'Gotham Rounded';-inkscape-font-specification:'Gotham Rounded Light';text-align:center;text-anchor:middle;fill:#000000;fill-opacity:1;stroke-width:0.99999988"
       id="path1387" />
    <path
       d="m 26.329962,314.40104 h 0.04873 c 0.243655,0 0.403771,-0.13227 0.494271,-0.34808 l 1.712544,-4.03771 c 0.02088,-0.0487 0.04177,-0.11834 0.04177,-0.181 0,-0.22973 -0.187962,-0.41073 -0.424655,-0.41073 -0.201885,0 -0.355039,0.13227 -0.410732,0.27846 l -1.42712,3.54344 -1.406235,-3.51559 c -0.06961,-0.181 -0.215808,-0.30631 -0.438578,-0.30631 -0.243654,0 -0.431617,0.18796 -0.431617,0.4177 0,0.0766 0.02088,0.13923 0.04873,0.20188 l 1.705582,4.00986 c 0.0905,0.21581 0.250617,0.34808 0.48731,0.34808 z"
       style="font-style:normal;font-variant:normal;font-weight:300;font-stretch:normal;font-family:'Gotham Rounded';-inkscape-font-specification:'Gotham Rounded Light';text-align:center;text-anchor:middle;fill:#000000;fill-opacity:1;stroke-width:0.99999988"
       id="path1389" />
    <path
       d="m 29.959871,314.33142 h 2.868163 c 0.208847,0 0.382886,-0.16708 0.382886,-0.38288 0,-0.20885 -0.174039,-0.38289 -0.382886,-0.38289 h -2.443508 v -1.30877 h 2.09543 c 0.208847,0 0.382886,-0.16708 0.382886,-0.37593 0,-0.21581 -0.174039,-0.38985 -0.382886,-0.38985 h -2.09543 v -1.267 h 2.4087 c 0.208847,0 0.382886,-0.16708 0.382886,-0.38288 0,-0.20885 -0.174039,-0.38289 -0.382886,-0.38289 h -2.833355 c -0.243654,0 -0.431616,0.18796 -0.431616,0.43162 v 4.00985 c 0,0.24366 0.187962,0.43162 0.431616,0.43162 z"
       style="font-style:normal;font-variant:normal;font-weight:300;font-stretch:normal;font-family:'Gotham Rounded';-inkscape-font-specification:'Gotham Rounded Light';text-align:center;text-anchor:middle;fill:#000000;fill-opacity:1;stroke-width:0.99999988"
       id="path1391" />
  </g>
  <g
     aria-label="PHASE"
     style="font-style:normal;font-variant:normal;font-weight:normal;font-stretch:normal;font-size:6.9615593px;line-height:1.25;font-family:'Gotham Rounded';-inkscape-font-specification:'Gotham Rounded';text-align:center;letter-spacing:0px;word-spacing:0px;text-anchor:middle;fill:#cccccc;fill-opacity:1;stroke:none;stroke-width:0.99999988"
     id="text9392">
    <path
       d="m 11.0831,269.43072 c 0,0.29934 0.236693,0.53604 0.53604,0.53604 0.299347,0 0.53604,-0.2367 0.53604,-0.53604 v -0.96766 h 0.814502 c 1.092965,0 1.970122,-0.58477 1.970122,-1.71254 v -0.0139 c 0,-0.9955 -0.703118,-1.68469 -1.865698,-1.68469 H 11.61914 c -0.299347,0 -0.53604,0.23669 -0.53604,0.53604 z m 1.07208,-1.92139 v -1.48978 h 0.828425 c 0.536041,0 0.870195,0.25758 0.870195,0.73793 v 0.0139 c 0,0.41769 -0.31327,0.73793 -0.84931,0.73793 z"
       style="font-style:normal;font-variant:normal;font-weight:normal;font-stretch:normal;font-family:'Gotham Rounded';-inkscape-font-specification:'Gotham Rounded';text-align:center;text-anchor:middle;fill:#cccccc;fill-opacity:1;stroke-width:0.99999988"
       id="path1374" />
    <path
       d="m 15.733204,269.43072 c 0,0.29934 0.236693,0.53604 0.53604,0.53604 0.299347,0 0.53604,-0.2367 0.53604,-0.53604 v -1.46193 h 1.977083 v 1.46193 c 0,0.29934 0.236693,0.53604 0.53604,0.53604 0.299347,0 0.53604,-0.2367 0.53604,-0.53604 v -3.88455 c 0,-0.29935 -0.236693,-0.53604 -0.53604,-0.53604 -0.299347,0 -0.53604,0.23669 -0.53604,0.53604 v 1.43408 h -1.977083 v -1.43408 c 0,-0.29935 -0.236693,-0.53604 -0.53604,-0.53604 -0.299347,0 -0.53604,0.23669 -0.53604,0.53604 z"
       style="font-style:normal;font-variant:normal;font-weight:normal;font-stretch:normal;font-family:'Gotham Rounded';-inkscape-font-specification:'Gotham Rounded';text-align:center;text-anchor:middle;fill:#cccccc;fill-opacity:1;stroke-width:0.99999988"
       id="path1376" />
    <path
       d="m 20.688203,269.46552 c 0,0.27847 0.215808,0.50124 0.49427,0.50124 0.22277,0 0.403771,-0.12531 0.494271,-0.33416 l 0.341116,-0.80058 h 2.144161 l 0.327193,0.76577 c 0.09746,0.22277 0.264539,0.36897 0.515155,0.36897 0.285424,0 0.508194,-0.22973 0.508194,-0.51516 0,-0.0696 -0.02088,-0.13923 -0.05569,-0.21581 l -1.698621,-3.83582 c -0.118346,-0.26454 -0.327193,-0.42465 -0.619579,-0.42465 h -0.06265 c -0.292385,0 -0.508193,0.16011 -0.62654,0.42465 l -1.69862,3.83582 c -0.03481,0.0766 -0.06265,0.15316 -0.06265,0.22973 z m 1.726466,-1.58027 0.675272,-1.60812 0.675271,1.60812 z"
       style="font-style:normal;font-variant:normal;font-weight:normal;font-stretch:normal;font-family:'Gotham Rounded';-inkscape-font-specification:'Gotham Rounded';text-align:center;text-anchor:middle;fill:#cccccc;fill-opacity:1;stroke-width:0.99999988"
       id="path1378" />
    <path
       d="m 28.044939,269.9946 c 1.051195,0 1.789121,-0.543 1.789121,-1.51065 v -0.0139 c 0,-0.84931 -0.556925,-1.20435 -1.545467,-1.46193 -0.842348,-0.2158 -1.051195,-0.32023 -1.051195,-0.64046 v -0.0139 c 0,-0.2367 0.215808,-0.42466 0.62654,-0.42466 0.334155,0 0.66831,0.11835 1.023349,0.3272 0.08354,0.0487 0.167078,0.0766 0.271501,0.0766 0.278463,0 0.501233,-0.21581 0.501233,-0.49427 0,-0.20884 -0.118347,-0.35504 -0.236693,-0.42465 -0.438579,-0.27847 -0.953734,-0.43162 -1.545467,-0.43162 -0.995503,0 -1.705582,0.58477 -1.705582,1.46889 v 0.0139 c 0,0.96766 0.633502,1.23916 1.615082,1.48978 0.814503,0.20884 0.98158,0.34807 0.98158,0.61958 v 0.0139 c 0,0.28542 -0.264539,0.45946 -0.703118,0.45946 -0.473386,0 -0.877156,-0.16708 -1.246119,-0.43858 -0.06962,-0.0487 -0.167077,-0.0975 -0.306308,-0.0975 -0.278463,0 -0.501233,0.21581 -0.501233,0.49427 0,0.16708 0.08354,0.32023 0.201886,0.40377 0.543001,0.38985 1.190426,0.58477 1.83089,0.58477 z"
       style="font-style:normal;font-variant:normal;font-weight:normal;font-stretch:normal;font-family:'Gotham Rounded';-inkscape-font-specification:'Gotham Rounded';text-align:center;text-anchor:middle;fill:#cccccc;fill-opacity:1;stroke-width:0.99999988"
       id="path1380" />
    <path
       d="m 31.3073,269.92499 h 2.735893 c 0.264539,0 0.480347,-0.20885 0.480347,-0.47339 0,-0.26454 -0.215808,-0.48035 -0.480347,-0.48035 h -2.206815 v -1.02335 h 1.858737 c 0.264539,0 0.480347,-0.20884 0.480347,-0.47338 0,-0.26454 -0.215808,-0.48035 -0.480347,-0.48035 h -1.858737 v -0.98854 h 2.172007 c 0.264539,0 0.480347,-0.20885 0.480347,-0.47339 0,-0.26454 -0.215808,-0.48034 -0.480347,-0.48034 H 31.3073 c -0.299347,0 -0.53604,0.23669 -0.53604,0.53604 v 3.80101 c 0,0.29934 0.236693,0.53604 0.53604,0.53604 z"
       style="font-style:normal;font-variant:normal;font-weight:normal;font-stretch:normal;font-family:'Gotham Rounded';-inkscape-font-specification:'Gotham Rounded';text-align:center;text-anchor:middle;fill:#cccccc;fill-opacity:1;stroke-width:0.99999988"
       id="path1382" />
  </g>
  <path
     sodipodi:nodetypes="cc"
     inkscape:connector-curvature="0"
     id="path9398"
     d="M 22.50016,98.000304 V 77.000343"
     style="fill:none;fill-rule:evenodd;stroke:#808080;stroke-width:1px;stroke-linecap:butt;stroke-linejoin:miter;stroke-opacity:1" />
  <g
     aria-label="PW"
     style="font-style:normal;font-variant:normal;font-weight:300;font-stretch:normal;font-size:9.9629488px;line-height:1.25;font-family:'Gotham Rounded';-inkscape-font-specification:'Gotham Rounded Light';letter-spacing:0px;word-spacing:0px;fill:#cccccc;fill-opacity:1;stroke:none;stroke-width:0.99999988"
     id="text9404">
    <path
       d="m 14.092941,48.517709 c 0,0.33874 0.269,0.60774 0.617703,0.60774 0.33874,0 0.60774,-0.269 0.60774,-0.60774 v -1.683738 h 1.38485 c 1.534294,0 2.789626,-0.816962 2.789626,-2.381145 V 44.4329 c 0,-1.404776 -1.016221,-2.33133 -2.650145,-2.33133 h -2.132071 c -0.348703,0 -0.617703,0.268999 -0.617703,0.617703 z m 1.225443,-2.789626 V 43.21742 h 1.424702 c 0.916591,0 1.504405,0.428407 1.504405,1.245369 v 0.01993 c 0,0.727295 -0.577851,1.245368 -1.504405,1.245368 z"
       style="font-size:9.9629488px;text-align:center;text-anchor:middle;fill:#cccccc;fill-opacity:1;stroke-width:0.99999988"
       id="path1349" />
    <path
       d="m 22.323427,48.667153 c 0.119555,0.318814 0.33874,0.50811 0.637629,0.50811 h 0.119555 c 0.298888,0 0.528036,-0.189296 0.637629,-0.50811 l 1.55422,-4.553067 1.55422,4.553067 c 0.109592,0.318814 0.328777,0.50811 0.627666,0.50811 h 0.119555 c 0.298888,0 0.528036,-0.199258 0.637629,-0.50811 l 2.06233,-5.77851 c 0.02989,-0.06974 0.05978,-0.16937 0.05978,-0.249074 0,-0.328777 -0.278963,-0.587814 -0.60774,-0.587814 -0.298889,0 -0.508111,0.189296 -0.597777,0.43837 l -1.604035,4.802141 -1.574146,-4.772252 c -0.08967,-0.288926 -0.308851,-0.488185 -0.617703,-0.488185 h -0.08967 c -0.308852,0 -0.518073,0.199259 -0.617703,0.488185 l -1.574146,4.772252 -1.604035,-4.792178 c -0.0797,-0.259037 -0.308851,-0.448333 -0.60774,-0.448333 -0.33874,0 -0.627665,0.259037 -0.627665,0.597777 0,0.0797 0.01993,0.16937 0.04981,0.239111 z"
       style="font-size:9.9629488px;text-align:center;text-anchor:middle;fill:#cccccc;fill-opacity:1;stroke-width:0.99999988"
       id="path1351" />
  </g>
  <path
     sodipodi:nodetypes="cc"
     inkscape:connector-curvature="0"
     id="path9434"
     d="M 22.50016,232.0002 V 211.00024"
     style="fill:none;fill-rule:evenodd;stroke:#808080;stroke-width:1px;stroke-linecap:butt;stroke-linejoin:miter;stroke-opacity:1" />
  <g
     aria-label="SHIFT"
     style="font-style:normal;font-variant:normal;font-weight:normal;font-stretch:normal;font-size:6.9615593px;line-height:1.25;font-family:'Gotham Rounded';-inkscape-font-specification:'Gotham Rounded';text-align:center;letter-spacing:0px;word-spacing:0px;text-anchor:middle;fill:#cccccc;fill-opacity:1;stroke:none;stroke-width:0.99999988"
     id="text9456">
    <path
       d="m 14.407353,190.99469 c 1.051196,0 1.789121,-0.543 1.789121,-1.51065 v -0.0139 c 0,-0.84931 -0.556925,-1.20435 -1.545466,-1.46192 -0.842349,-0.21581 -1.051196,-0.32024 -1.051196,-0.64047 v -0.0139 c 0,-0.23669 0.215809,-0.42466 0.626541,-0.42466 0.334154,0 0.668309,0.11835 1.023349,0.3272 0.08354,0.0487 0.167077,0.0766 0.271501,0.0766 0.278462,0 0.501232,-0.2158 0.501232,-0.49427 0,-0.20884 -0.118347,-0.35504 -0.236693,-0.42465 -0.438578,-0.27846 -0.953734,-0.43162 -1.545466,-0.43162 -0.995503,0 -1.705582,0.58477 -1.705582,1.46889 v 0.0139 c 0,0.96766 0.633502,1.23916 1.615081,1.48978 0.814503,0.20884 0.98158,0.34808 0.98158,0.61958 v 0.0139 c 0,0.28542 -0.264539,0.45946 -0.703117,0.45946 -0.473386,0 -0.877157,-0.16707 -1.246119,-0.43858 -0.06962,-0.0487 -0.167078,-0.0975 -0.306309,-0.0975 -0.278462,0 -0.501232,0.21581 -0.501232,0.49427 0,0.16708 0.08354,0.32024 0.201885,0.40377 0.543002,0.38985 1.190427,0.58477 1.83089,0.58477 z"
       style="font-style:normal;font-variant:normal;font-weight:normal;font-stretch:normal;font-family:'Gotham Rounded';-inkscape-font-specification:'Gotham Rounded';text-align:center;text-anchor:middle;fill:#cccccc;fill-opacity:1;stroke-width:0.99999988"
       id="path1363" />
    <path
       d="m 17.133674,190.43081 c 0,0.29935 0.236693,0.53604 0.53604,0.53604 0.299347,0 0.53604,-0.23669 0.53604,-0.53604 v -1.46193 h 1.977083 v 1.46193 c 0,0.29935 0.236693,0.53604 0.53604,0.53604 0.299347,0 0.53604,-0.23669 0.53604,-0.53604 v -3.88455 c 0,-0.29935 -0.236693,-0.53604 -0.53604,-0.53604 -0.299347,0 -0.53604,0.23669 -0.53604,0.53604 v 1.43408 h -1.977083 v -1.43408 c 0,-0.29935 -0.236693,-0.53604 -0.53604,-0.53604 -0.299347,0 -0.53604,0.23669 -0.53604,0.53604 z"
       style="font-style:normal;font-variant:normal;font-weight:normal;font-stretch:normal;font-family:'Gotham Rounded';-inkscape-font-specification:'Gotham Rounded';text-align:center;text-anchor:middle;fill:#cccccc;fill-opacity:1;stroke-width:0.99999988"
       id="path1365" />
    <path
       d="m 22.471558,190.43081 c 0,0.29935 0.236693,0.53604 0.53604,0.53604 0.299347,0 0.53604,-0.23669 0.53604,-0.53604 v -3.88455 c 0,-0.29935 -0.236693,-0.53604 -0.53604,-0.53604 -0.299347,0 -0.53604,0.23669 -0.53604,0.53604 z"
       style="font-style:normal;font-variant:normal;font-weight:normal;font-stretch:normal;font-family:'Gotham Rounded';-inkscape-font-specification:'Gotham Rounded';text-align:center;text-anchor:middle;fill:#cccccc;fill-opacity:1;stroke-width:0.99999988"
       id="path1367" />
    <path
       d="m 24.761476,190.43081 c 0,0.29935 0.236693,0.53604 0.53604,0.53604 0.299347,0 0.53604,-0.23669 0.53604,-0.53604 v -1.39231 h 1.879621 c 0.271501,0 0.487309,-0.21581 0.487309,-0.48731 0,-0.2715 -0.215808,-0.48731 -0.487309,-0.48731 h -1.879621 v -1.03727 h 2.192891 c 0.271501,0 0.487309,-0.21581 0.487309,-0.48731 0,-0.2715 -0.215808,-0.48731 -0.487309,-0.48731 h -2.728931 c -0.299347,0 -0.53604,0.23669 -0.53604,0.53604 z"
       style="font-style:normal;font-variant:normal;font-weight:normal;font-stretch:normal;font-family:'Gotham Rounded';-inkscape-font-specification:'Gotham Rounded';text-align:center;text-anchor:middle;fill:#cccccc;fill-opacity:1;stroke-width:0.99999988"
       id="path1369" />
    <path
       d="m 30.464734,190.43081 c 0,0.29935 0.236693,0.53604 0.53604,0.53604 0.299347,0 0.53604,-0.23669 0.53604,-0.53604 v -3.39028 h 1.03031 c 0.271501,0 0.494271,-0.22277 0.494271,-0.49427 0,-0.2715 -0.22277,-0.49427 -0.494271,-0.49427 h -3.132701 c -0.271501,0 -0.494271,0.22277 -0.494271,0.49427 0,0.2715 0.22277,0.49427 0.494271,0.49427 h 1.030311 z"
       style="font-style:normal;font-variant:normal;font-weight:normal;font-stretch:normal;font-family:'Gotham Rounded';-inkscape-font-specification:'Gotham Rounded';text-align:center;text-anchor:middle;fill:#cccccc;fill-opacity:1;stroke-width:0.99999988"
       id="path1371" />
  </g>
  <g
     style="fill:none;stroke:#808080;stroke-width:1.08830786;stroke-opacity:1"
     transform="matrix(3.4833206,0,0,3.4624064,-19.45079,-645.22137)"
     id="g2207">
    <path
       style="color:#000000;font-style:normal;font-variant:normal;font-weight:normal;font-stretch:normal;font-size:medium;line-height:normal;font-family:sans-serif;font-variant-ligatures:normal;font-variant-position:normal;font-variant-caps:normal;font-variant-numeric:normal;font-variant-alternates:normal;font-feature-settings:normal;text-indent:0;text-align:start;text-decoration:none;text-decoration-line:none;text-decoration-style:solid;text-decoration-color:#000000;letter-spacing:normal;word-spacing:normal;text-transform:none;writing-mode:lr-tb;direction:ltr;text-orientation:mixed;dominant-baseline:auto;baseline-shift:baseline;text-anchor:start;white-space:normal;shape-padding:0;clip-rule:nonzero;display:inline;overflow:visible;visibility:visible;opacity:1;isolation:auto;mix-blend-mode:normal;color-interpolation:sRGB;color-interpolation-filters:linearRGB;solid-color:#000000;solid-opacity:1;vector-effect:none;fill:#808080;fill-opacity:1;fill-rule:evenodd;stroke:none;stroke-width:0.53669477;stroke-linecap:butt;stroke-linejoin:bevel;stroke-miterlimit:0;stroke-dasharray:none;stroke-dashoffset:0;stroke-opacity:1;color-rendering:auto;image-rendering:auto;shape-rendering:auto;text-rendering:auto;enable-background:accumulate"
       d="m 11.640625,288.51172 c -0.136141,0.11687 -0.502862,0.26885 -0.792969,0.41016 -0.249038,0.0915 -0.513291,0.18263 -0.814453,0.25195 -0.7481113,0.17218 -1.5872324,0.2422 -2.0976561,0.13672 l -0.109375,0.52539 c 0.4380502,0.0905 1.0069942,-0.0207 1.5488281,-0.0918 -0.00711,0.006 -0.020422,0.009 -0.027344,0.0156 -0.0937,0.0853 -0.1835532,0.18731 -0.2109374,0.34179 -0.027384,0.15448 0.050367,0.32636 0.1582031,0.42774 0.1115826,0.1049 0.2294936,0.12757 0.3496093,0.14258 0.1201158,0.015 0.2500582,0.0127 0.392578,0 0.28504,-0.0254 0.620052,-0.0947 0.964844,-0.19727 l -0.152344,-0.51367 c -0.316607,0.0942 -0.627496,0.15691 -0.861328,0.17773 -0.1053894,0.009 -0.1872275,0.008 -0.25,0.002 0.1029597,-0.0866 0.311035,-0.21056 0.572266,-0.33593 0.23424,-0.11243 0.458959,-0.25712 0.716797,-0.37696 0.06953,-0.0255 0.15767,-0.0435 0.222656,-0.0703 0.272522,-0.11241 0.473374,-0.24269 0.646484,-0.39062 0.02502,-0.0194 0.07047,-0.0288 0.09375,-0.0488 l -0.0039,-0.004 c 0.0053,-0.005 0.0163,-0.008 0.02148,-0.0137 z"
       id="path2200"
       inkscape:connector-curvature="0" />
    <path
       style="color:#000000;font-style:normal;font-variant:normal;font-weight:normal;font-stretch:normal;font-size:medium;line-height:normal;font-family:sans-serif;font-variant-ligatures:normal;font-variant-position:normal;font-variant-caps:normal;font-variant-numeric:normal;font-variant-alternates:normal;font-feature-settings:normal;text-indent:0;text-align:start;text-decoration:none;text-decoration-line:none;text-decoration-style:solid;text-decoration-color:#000000;letter-spacing:normal;word-spacing:normal;text-transform:none;writing-mode:lr-tb;direction:ltr;text-orientation:mixed;dominant-baseline:auto;baseline-shift:baseline;text-anchor:start;white-space:normal;shape-padding:0;clip-rule:nonzero;display:inline;overflow:visible;visibility:visible;opacity:1;isolation:auto;mix-blend-mode:normal;color-interpolation:sRGB;color-interpolation-filters:linearRGB;solid-color:#000000;solid-opacity:1;vector-effect:none;fill:#808080;fill-opacity:1;fill-rule:evenodd;stroke:none;stroke-width:0.55421764;stroke-linecap:butt;stroke-linejoin:bevel;stroke-miterlimit:0;stroke-dasharray:none;stroke-dashoffset:0;stroke-opacity:1;color-rendering:auto;image-rendering:auto;shape-rendering:auto;text-rendering:auto;enable-background:accumulate"
       d="m 14.433594,288.49414 c -0.497415,0.62122 -0.398927,1.34849 0.01758,1.75195 0.416505,0.40347 1.117985,0.52073 1.705078,0.14258 l -0.300781,-0.46679 c -0.377635,0.24323 -0.784866,0.1531 -1.019531,-0.0742 -0.174451,-0.16899 -0.201132,-0.41568 -0.0918,-0.70508 0.150163,0.17192 0.27108,0.38586 0.470703,0.48242 0.343198,0.16601 0.746871,0.20138 1.179687,0.11328 l -0.111328,-0.54297 c -0.341141,0.0694 -0.607485,0.0364 -0.828125,-0.0703 -0.22064,-0.10673 -0.406822,-0.29438 -0.560547,-0.58594 z"
       id="path2202"
       inkscape:connector-curvature="0" />
    <path
       style="color:#000000;font-style:normal;font-variant:normal;font-weight:normal;font-stretch:normal;font-size:medium;line-height:normal;font-family:sans-serif;font-variant-ligatures:normal;font-variant-position:normal;font-variant-caps:normal;font-variant-numeric:normal;font-variant-alternates:normal;font-feature-settings:normal;text-indent:0;text-align:start;text-decoration:none;text-decoration-line:none;text-decoration-style:solid;text-decoration-color:#000000;letter-spacing:normal;word-spacing:normal;text-transform:none;writing-mode:lr-tb;direction:ltr;text-orientation:mixed;dominant-baseline:auto;baseline-shift:baseline;text-anchor:start;white-space:normal;shape-padding:0;clip-rule:nonzero;display:inline;overflow:visible;visibility:visible;opacity:1;isolation:auto;mix-blend-mode:normal;color-interpolation:sRGB;color-interpolation-filters:linearRGB;solid-color:#000000;solid-opacity:1;vector-effect:none;fill:#808080;fill-opacity:1;fill-rule:evenodd;stroke:none;stroke-width:0.53669477;stroke-linecap:butt;stroke-linejoin:bevel;stroke-miterlimit:0;stroke-dasharray:none;stroke-dashoffset:0;stroke-opacity:1;color-rendering:auto;image-rendering:auto;shape-rendering:auto;text-rendering:auto;enable-background:accumulate"
       d="m 13.447266,288.3418 c -0.42931,0.48516 -1.295642,1.38777 -2.642578,1.62695 l 0.09375,0.52734 c 0.274973,-0.0488 0.435024,-0.20142 0.673828,-0.29101 l 0.205078,0.42187 c 0.291223,-0.1158 0.684899,-0.22457 1.044922,-0.25195 0.360022,-0.0274 0.67217,0.0317 0.845703,0.17578 l 0.341797,-0.41211 c -0.34072,-0.28282 -0.793976,-0.33187 -1.228516,-0.29883 -0.07417,0.006 -0.131585,0.0384 -0.205078,0.0488 0.291539,-0.24465 0.572914,-0.48077 0.810547,-0.76562 0.145565,-0.14458 0.364447,-0.31674 0.460937,-0.42578 l -0.0059,-0.004 c 0.0076,-0.0115 0.02378,-0.0177 0.03125,-0.0293 z"
       id="path2205"
       inkscape:connector-curvature="0" />
  </g>
  <g
     aria-label="FN-3"
     style="font-style:normal;font-variant:normal;font-weight:bold;font-stretch:normal;font-size:12.59685421px;line-height:1.25;font-family:'Gotham Rounded';-inkscape-font-specification:'Gotham Rounded Bold';letter-spacing:0px;word-spacing:0px;fill:#cccccc;fill-opacity:1;stroke:none;stroke-width:1"
     id="text9330-3">
    <path
       d="m 8.0120375,27.540293 c 0,0.541665 0.428293,0.969958 0.9699578,0.969958 0.5416647,0 0.9699577,-0.428293 0.9699577,-0.969958 v -2.519371 h 3.401151 c 0.491277,0 0.881779,-0.390502 0.881779,-0.88178 0,-0.491277 -0.390502,-0.88178 -0.881779,-0.88178 H 9.951953 v -1.876931 h 3.968009 c 0.491277,0 0.88178,-0.390502 0.88178,-0.88178 0,-0.491277 -0.390503,-0.881779 -0.88178,-0.881779 H 8.9819953 c -0.5416648,0 -0.9699578,0.428293 -0.9699578,0.969957 z"
       style="font-style:normal;font-variant:normal;font-weight:bold;font-stretch:normal;font-family:'Gotham Rounded';-inkscape-font-specification:'Gotham Rounded Bold';text-align:center;text-anchor:middle;fill:#cccccc;fill-opacity:1;stroke-width:1"
       id="path866" />
    <path
       d="m 16.278723,27.55289 c 0,0.529068 0.428293,0.957361 0.957361,0.957361 0.529068,0 0.957361,-0.428293 0.957361,-0.957361 v -4.723821 l 3.879831,5.089129 c 0.264534,0.340116 0.541665,0.566859 1.007748,0.566859 h 0.06299 c 0.541664,0 0.969957,-0.428293 0.969957,-0.969958 v -7.016448 c 0,-0.529068 -0.428293,-0.957361 -0.957361,-0.957361 -0.529068,0 -0.957361,0.428293 -0.957361,0.957361 v 4.547465 L 18.457979,20.133343 C 18.193445,19.793228 17.916314,19.566484 17.45023,19.566484 h -0.201549 c -0.541665,0 -0.969958,0.428293 -0.969958,0.969958 z"
       style="font-style:normal;font-variant:normal;font-weight:bold;font-stretch:normal;font-family:'Gotham Rounded';-inkscape-font-specification:'Gotham Rounded Bold';text-align:center;text-anchor:middle;fill:#cccccc;fill-opacity:1;stroke-width:1"
       id="path868" />
    <path
       d="m 26.634124,25.449215 h 2.191853 c 0.503874,0 0.91957,-0.415696 0.91957,-0.91957 0,-0.503874 -0.415696,-0.919571 -0.91957,-0.919571 h -2.191853 c -0.503874,0 -0.91957,0.415697 -0.91957,0.919571 0,0.503874 0.415696,0.91957 0.91957,0.91957 z"
       style="font-style:normal;font-variant:normal;font-weight:bold;font-stretch:normal;font-family:'Gotham Rounded';-inkscape-font-specification:'Gotham Rounded Bold';text-align:center;text-anchor:middle;fill:#cccccc;fill-opacity:1;stroke-width:1"
       id="path870" />
    <path
       d="m 34.096972,28.585832 c 1.965109,0 3.174407,-1.221895 3.174407,-2.88468 v -0.02519 c 0,-1.637591 -1.171507,-2.267433 -2.368208,-2.468983 l 1.725769,-1.650188 c 0.352712,-0.340115 0.579455,-0.604649 0.579455,-1.083329 0,-0.529068 -0.415696,-0.856586 -0.982555,-0.856586 h -4.295527 c -0.453487,0 -0.831392,0.377905 -0.831392,0.831392 0,0.453487 0.377905,0.831392 0.831392,0.831392 h 2.708324 l -1.713172,1.725769 c -0.302325,0.302325 -0.415697,0.529068 -0.415697,0.793602 0,0.453487 0.377906,0.831393 0.831393,0.831393 h 0.302324 c 1.08333,0 1.725769,0.403099 1.725769,1.12112 v 0.02519 c 0,0.655037 -0.516471,1.070733 -1.247088,1.070733 -0.692827,0 -1.221895,-0.226744 -1.725769,-0.655037 -0.151163,-0.125968 -0.340115,-0.23934 -0.617246,-0.23934 -0.503874,0 -0.932167,0.428293 -0.932167,0.932167 0,0.277131 0.151162,0.541665 0.327518,0.692827 0.718021,0.617246 1.662785,1.007749 2.92247,1.007749 z"
       style="font-style:normal;font-variant:normal;font-weight:bold;font-stretch:normal;font-family:'Gotham Rounded';-inkscape-font-specification:'Gotham Rounded Bold';text-align:center;text-anchor:middle;fill:#cccccc;fill-opacity:1;stroke-width:1"
       id="path872" />
  </g>
</svg>
