<?xml version="1.0" encoding="UTF-8" standalone="no"?>
<!-- Created with Inkscape (http://www.inkscape.org/) -->

<svg
   xmlns:dc="http://purl.org/dc/elements/1.1/"
   xmlns:cc="http://creativecommons.org/ns#"
   xmlns:rdf="http://www.w3.org/1999/02/22-rdf-syntax-ns#"
   xmlns:svg="http://www.w3.org/2000/svg"
   xmlns="http://www.w3.org/2000/svg"
   xmlns:sodipodi="http://sodipodi.sourceforge.net/DTD/sodipodi-0.dtd"
   xmlns:inkscape="http://www.inkscape.org/namespaces/inkscape"
   width="75"
   height="380"
   viewBox="0 0 19.843751 100.54167"
   version="1.1"
   id="svg8"
   inkscape:version="0.92.3 (2405546, 2018-03-11)"
   sodipodi:docname="SC-VCA.svg">
  <defs
     id="defs2">
    <clipPath
       clipPathUnits="userSpaceOnUse"
       id="clipPath1763">
      <path
         inkscape:connector-curvature="0"
         id="path1765"
         d="M 0,196.45831 H 23.8125 V 296.99999 H 0 Z"
         style="opacity:1;vector-effect:none;fill:#28220b;fill-opacity:1;fill-rule:evenodd;stroke:none;stroke-width:0.48607069;stroke-linecap:butt;stroke-linejoin:round;stroke-miterlimit:4;stroke-dasharray:none;stroke-dashoffset:0;stroke-opacity:1;paint-order:normal" />
    </clipPath>
    <clipPath
       clipPathUnits="userSpaceOnUse"
       id="clipPath3293">
      <path
         style="opacity:1;vector-effect:none;fill:#28220b;fill-opacity:1;fill-rule:evenodd;stroke:none;stroke-width:0.48607066;stroke-linecap:butt;stroke-linejoin:round;stroke-miterlimit:4;stroke-dasharray:none;stroke-dashoffset:0;stroke-opacity:1;paint-order:normal"
         d="M -1.5460537e-7,196.45831 H 19.843751 V 296.99999 H -1.5460537e-7 Z"
         id="path3295"
         inkscape:connector-curvature="0" />
    </clipPath>
  </defs>
  <sodipodi:namedview
     id="base"
     pagecolor="#ffffff"
     bordercolor="#666666"
     borderopacity="1.0"
     inkscape:pageopacity="0.0"
     inkscape:pageshadow="2"
     inkscape:zoom="8"
     inkscape:cx="43.479632"
     inkscape:cy="52.572343"
     inkscape:document-units="mm"
     inkscape:current-layer="layer1"
     showgrid="false"
     units="px"
     inkscape:snap-bbox="true"
     inkscape:snap-page="true"
     inkscape:bbox-nodes="true"
     inkscape:snap-bbox-edge-midpoints="true"
     inkscape:window-width="1663"
     inkscape:window-height="1463"
     inkscape:window-x="1738"
     inkscape:window-y="488"
     inkscape:window-maximized="0"
     showguides="true"
     inkscape:guide-bbox="true"
     inkscape:snap-global="false">
    <inkscape:grid
       type="xygrid"
       id="grid985" />
  </sodipodi:namedview>
  <metadata
     id="metadata5">
    <rdf:RDF>
      <cc:Work
         rdf:about="">
        <dc:format>image/svg+xml</dc:format>
        <dc:type
           rdf:resource="http://purl.org/dc/dcmitype/StillImage" />
        <dc:title />
      </cc:Work>
    </rdf:RDF>
  </metadata>
  <g
     inkscape:label="Layer 1"
     inkscape:groupmode="layer"
     id="layer1"
     transform="translate(0,-196.45832)">
    <path
       style="opacity:1;vector-effect:none;fill:#202321;fill-opacity:1;fill-rule:evenodd;stroke:none;stroke-width:0.48607066;stroke-linecap:butt;stroke-linejoin:round;stroke-miterlimit:4;stroke-dasharray:none;stroke-dashoffset:0;stroke-opacity:1;paint-order:normal"
       d="M -3e-6,196.45831 H 19.843746 V 296.99998 H -3e-6 Z"
       id="path2127"
       inkscape:connector-curvature="0" />
    <path
       style="color:#000000;font-style:normal;font-variant:normal;font-weight:normal;font-stretch:normal;font-size:medium;line-height:normal;font-family:sans-serif;font-variant-ligatures:normal;font-variant-position:normal;font-variant-caps:normal;font-variant-numeric:normal;font-variant-alternates:normal;font-feature-settings:normal;text-indent:0;text-align:start;text-decoration:none;text-decoration-line:none;text-decoration-style:solid;text-decoration-color:#000000;letter-spacing:normal;word-spacing:normal;text-transform:none;writing-mode:lr-tb;direction:ltr;text-orientation:mixed;dominant-baseline:auto;baseline-shift:baseline;text-anchor:start;white-space:normal;shape-padding:0;clip-rule:nonzero;display:inline;overflow:visible;visibility:visible;opacity:1;isolation:auto;mix-blend-mode:normal;color-interpolation:sRGB;color-interpolation-filters:linearRGB;solid-color:#000000;solid-opacity:1;vector-effect:none;fill:#808080;fill-opacity:1;fill-rule:evenodd;stroke:none;stroke-width:0.49314609;stroke-linecap:butt;stroke-linejoin:bevel;stroke-miterlimit:0;stroke-dasharray:none;stroke-dashoffset:0;stroke-opacity:1;color-rendering:auto;image-rendering:auto;shape-rendering:auto;text-rendering:auto;enable-background:accumulate"
       d="m 9.2861979,290.04688 c -0.4632482,0.29295 -0.9973403,0.49324 -1.4804687,0.60546 -0.6896659,0.15779 -1.4645622,0.22371 -1.9355469,0.12696 l -0.097656,0.48242 c 0.4029035,0.0828 0.9368652,0.0452 1.3536698,-0.0109 -0.082472,0.072 -0.1193603,0.14668 -0.1466381,0.25312 -0.025366,0.14223 0.04517,0.29972 0.1445313,0.39257 0.1027938,0.0961 0.2117928,0.11714 0.3222656,0.13086 0.1104728,0.0137 0.23008,0.0116 0.3613281,0 0.2624963,-0.0232 0.5709931,-0.0858 0.8886719,-0.17968 L 8.5576823,291.375 c -0.2918854,0.0863 -0.5772582,0.14302 -0.7929687,0.16211 -0.491867,0.0681 0.1512501,-0.27434 0.261849,-0.32748 0.4909844,-0.29468 0.9791895,-0.452 1.5057291,-0.7486 0.019699,-0.0154 0.055717,-0.0233 0.074219,-0.0391 l -0.00391,-0.004 c 0.00512,-0.005 0.016496,-0.007 0.021484,-0.0117 z"
       id="path2197"
       inkscape:connector-curvature="0"
       sodipodi:nodetypes="ccccccccsccccccccc" />
    <path
       style="color:#000000;font-style:normal;font-variant:normal;font-weight:normal;font-stretch:normal;font-size:medium;line-height:normal;font-family:sans-serif;font-variant-ligatures:normal;font-variant-position:normal;font-variant-caps:normal;font-variant-numeric:normal;font-variant-alternates:normal;font-feature-settings:normal;text-indent:0;text-align:start;text-decoration:none;text-decoration-line:none;text-decoration-style:solid;text-decoration-color:#000000;letter-spacing:normal;word-spacing:normal;text-transform:none;writing-mode:lr-tb;direction:ltr;text-orientation:mixed;dominant-baseline:auto;baseline-shift:baseline;text-anchor:start;white-space:normal;shape-padding:0;clip-rule:nonzero;display:inline;overflow:visible;visibility:visible;opacity:1;isolation:auto;mix-blend-mode:normal;color-interpolation:sRGB;color-interpolation-filters:linearRGB;solid-color:#000000;solid-opacity:1;vector-effect:none;fill:#808080;fill-opacity:1;fill-rule:evenodd;stroke:none;stroke-width:0.50924712;stroke-linecap:butt;stroke-linejoin:bevel;stroke-miterlimit:0;stroke-dasharray:none;stroke-dashoffset:0;stroke-opacity:1;color-rendering:auto;image-rendering:auto;shape-rendering:auto;text-rendering:auto;enable-background:accumulate"
       d="m 11.860417,290.03125 c -0.458554,0.56925 -0.366259,1.23588 0.01758,1.60547 0.383837,0.36959 1.02764,0.47704 1.56836,0.13086 l -0.275391,-0.42969 c -0.348402,0.22306 -0.723153,0.13991 -0.939453,-0.0684 -0.127484,-0.12275 -0.236438,-0.41201 -0.133456,-0.63455 0.06797,0.16568 0.341491,0.36531 0.48307,0.43338 0.315985,0.15193 0.687393,0.18415 1.085938,0.10352 l -0.101563,-0.5 c -0.314756,0.0637 -0.560007,0.0354 -0.763672,-0.0625 -0.203664,-0.0979 -0.375999,-0.2702 -0.517578,-0.53711 z"
       id="path2199"
       inkscape:connector-curvature="0"
       sodipodi:nodetypes="cccccccccccc" />
    <path
       style="color:#000000;font-style:normal;font-variant:normal;font-weight:normal;font-stretch:normal;font-size:medium;line-height:normal;font-family:sans-serif;font-variant-ligatures:normal;font-variant-position:normal;font-variant-caps:normal;font-variant-numeric:normal;font-variant-alternates:normal;font-feature-settings:normal;text-indent:0;text-align:start;text-decoration:none;text-decoration-line:none;text-decoration-style:solid;text-decoration-color:#000000;letter-spacing:normal;word-spacing:normal;text-transform:none;writing-mode:lr-tb;direction:ltr;text-orientation:mixed;dominant-baseline:auto;baseline-shift:baseline;text-anchor:start;white-space:normal;shape-padding:0;clip-rule:nonzero;display:inline;overflow:visible;visibility:visible;opacity:1;isolation:auto;mix-blend-mode:normal;color-interpolation:sRGB;color-interpolation-filters:linearRGB;solid-color:#000000;solid-opacity:1;vector-effect:none;fill:#808080;fill-opacity:1;fill-rule:evenodd;stroke:none;stroke-width:0.49314609;stroke-linecap:butt;stroke-linejoin:bevel;stroke-miterlimit:0;stroke-dasharray:none;stroke-dashoffset:0;stroke-opacity:1;color-rendering:auto;image-rendering:auto;shape-rendering:auto;text-rendering:auto;enable-background:accumulate"
       d="m 10.952214,289.89062 c -0.395654,0.44445 -1.1953873,1.271 -2.4375004,1.49024 l 0.085937,0.48633 c 0.2540111,-0.0448 0.429385,-0.13147 0.6499185,-0.21384 l 0.1625815,0.33298 c 0.2685338,-0.10614 0.6288264,-0.20537 0.9609384,-0.23047 0.332112,-0.0251 0.621187,0.03 0.781249,0.16211 l 0.314454,-0.38086 c -0.313886,-0.25899 -0.732633,-0.30368 -1.132814,-0.27344 -0.06789,0.005 -0.120217,0.0355 -0.1875,0.0449 0.454478,-0.37479 0.900489,-0.75227 1.193363,-1.11924 z"
       id="path2201"
       inkscape:connector-curvature="0"
       sodipodi:nodetypes="cccccscccccc" />
    <path
       sodipodi:nodetypes="cc"
       inkscape:connector-curvature="0"
       id="path2218"
       d="M 7.155122,272.52602 H 12.71137"
       style="fill:none;fill-rule:evenodd;stroke:#cccccc;stroke-width:0.26458332px;stroke-linecap:butt;stroke-linejoin:miter;stroke-opacity:1" />
    <path
       style="fill:none;fill-rule:evenodd;stroke:#cccccc;stroke-width:0.26458332px;stroke-linecap:butt;stroke-linejoin:miter;stroke-opacity:1"
       d="M 7.155122,258.5031 H 12.71137"
       id="path2255"
       inkscape:connector-curvature="0"
       sodipodi:nodetypes="cc" />
    <path
       style="fill:none;fill-rule:evenodd;stroke:#cccccc;stroke-width:0.265;stroke-linecap:butt;stroke-linejoin:miter;stroke-opacity:1;stroke-miterlimit:4;stroke-dasharray:none"
       d="m 15.754079,245.53856 v 2.38125 H 10.31875"
       id="path2339"
       inkscape:connector-curvature="0"
       sodipodi:nodetypes="ccc" />
    <path
       sodipodi:nodetypes="ccc"
       inkscape:connector-curvature="0"
       id="path2343"
       d="m 4.630208,245.53856 v 2.38125 h 4.50929"
       style="fill:none;fill-rule:evenodd;stroke:#cccccc;stroke-width:0.265;stroke-linecap:butt;stroke-linejoin:miter;stroke-opacity:1;stroke-miterlimit:4;stroke-dasharray:none" />
    <path
       sodipodi:nodetypes="cc"
       inkscape:connector-curvature="0"
       id="path2361"
       d="M 1.081068,264.3239 H 18.785419"
       style="fill:none;fill-rule:evenodd;stroke:#4d4d4d;stroke-width:0.26458332px;stroke-linecap:butt;stroke-linejoin:miter;stroke-opacity:1" />
    <g
       aria-label="SC-VCA"
       style="font-style:normal;font-variant:normal;font-weight:bold;font-stretch:normal;font-size:3.33291769px;line-height:1.25;font-family:'Gotham Rounded';-inkscape-font-specification:'Gotham Rounded Bold';letter-spacing:0px;word-spacing:0px;fill:#cccccc;fill-opacity:1;stroke:none;stroke-width:0.26458332"
       id="text2008">
      <path
         d="m 4.4953552,204.01499 c 0.5032705,0 0.8565598,-0.25997 0.8565598,-0.72325 v -0.007 c 0,-0.40662 -0.2666334,-0.5766 -0.7399077,-0.69991 -0.403283,-0.10332 -0.5032706,-0.15332 -0.5032706,-0.30663 v -0.007 c 0,-0.11332 0.1033205,-0.20331 0.2999626,-0.20331 0.1599801,0 0.3199601,0.0567 0.4899389,0.15665 0.039995,0.0233 0.07999,0.0367 0.1299838,0.0367 0.1333167,0 0.2399701,-0.10332 0.2399701,-0.23663 0,-0.1 -0.05666,-0.16998 -0.1133192,-0.20331 -0.2099738,-0.13332 -0.4566097,-0.20664 -0.7399077,-0.20664 -0.4766073,0 -0.8165649,0.27996 -0.8165649,0.70324 v 0.007 c 0,0.46327 0.3032955,0.59326 0.7732369,0.71324 0.3899514,0.1 0.4699414,0.16665 0.4699414,0.29663 v 0.007 c 0,0.13665 -0.1266509,0.21997 -0.3366247,0.21997 -0.2266384,0 -0.4199476,-0.08 -0.5965922,-0.20997 -0.033329,-0.0233 -0.07999,-0.0467 -0.1466484,-0.0467 -0.1333167,0 -0.2399701,0.10332 -0.2399701,0.23663 0,0.08 0.039995,0.15332 0.096655,0.19331 0.2599676,0.18665 0.569929,0.27997 0.8765574,0.27997 z"
         style="font-style:normal;font-variant:normal;font-weight:bold;font-stretch:normal;font-family:'Gotham Rounded';-inkscape-font-specification:'Gotham Rounded Bold';text-align:center;text-anchor:middle;fill:#cccccc;fill-opacity:1;stroke-width:0.26458332"
         id="path1458" />
      <path
         d="m 6.8938061,204.02165 c 0.3732868,0 0.6199227,-0.10998 0.8298965,-0.29329 0.046661,-0.04 0.086656,-0.10332 0.086656,-0.18331 0,-0.12999 -0.1099863,-0.23664 -0.2399701,-0.23664 -0.059992,0 -0.1133192,0.0233 -0.1533142,0.0567 -0.1466484,0.11665 -0.2899639,0.18331 -0.5066035,0.18331 -0.3999501,0 -0.6765823,-0.33329 -0.6765823,-0.73324 v -0.007 c 0,-0.39995 0.283298,-0.72657 0.6765823,-0.72657 0.1833105,0 0.3332918,0.06 0.4766072,0.16664 0.036662,0.0233 0.083323,0.05 0.1533142,0.05 0.1399826,0 0.2533018,-0.10999 0.2533018,-0.24997 0,-0.09 -0.046661,-0.16332 -0.099988,-0.20331 -0.1933093,-0.14332 -0.4299464,-0.23664 -0.7799028,-0.23664 -0.7165773,0 -1.2165149,0.54327 -1.2165149,1.20652 v 0.007 c 0,0.66992 0.5099364,1.19985 1.1965174,1.19985 z"
         style="font-style:normal;font-variant:normal;font-weight:bold;font-stretch:normal;font-family:'Gotham Rounded';-inkscape-font-specification:'Gotham Rounded Bold';text-align:center;text-anchor:middle;fill:#cccccc;fill-opacity:1;stroke-width:0.26458332"
         id="path1460" />
      <path
         d="M 8.3386783,203.19176 H 8.918606 c 0.1333167,0 0.243303,-0.10999 0.243303,-0.24331 0,-0.13331 -0.1099863,-0.2433 -0.243303,-0.2433 H 8.3386783 c -0.1333167,0 -0.243303,0.10999 -0.243303,0.2433 0,0.13332 0.1099863,0.24331 0.243303,0.24331 z"
         style="font-style:normal;font-variant:normal;font-weight:bold;font-stretch:normal;font-family:'Gotham Rounded';-inkscape-font-specification:'Gotham Rounded Bold';text-align:center;text-anchor:middle;fill:#cccccc;fill-opacity:1;stroke-width:0.26458332"
         id="path1462" />
      <path
         d="m 10.372227,204.01832 h 0.03333 c 0.139982,0 0.236637,-0.0767 0.289964,-0.20331 l 0.763238,-1.82644 c 0.01333,-0.03 0.02666,-0.0733 0.02666,-0.11332 0,-0.13998 -0.113319,-0.24663 -0.253302,-0.24663 -0.123317,0 -0.213306,0.08 -0.246635,0.16331 l -0.589927,1.52648 -0.5832605,-1.50981 c -0.039995,-0.10332 -0.1266508,-0.17998 -0.2599675,-0.17998 -0.1433155,0 -0.2566347,0.10999 -0.2566347,0.2533 0,0.0433 0.013332,0.0833 0.029996,0.12332 l 0.7565725,1.80977 c 0.05333,0.12665 0.149981,0.20331 0.289964,0.20331 z"
         style="font-style:normal;font-variant:normal;font-weight:bold;font-stretch:normal;font-family:'Gotham Rounded';-inkscape-font-specification:'Gotham Rounded Bold';text-align:center;text-anchor:middle;fill:#cccccc;fill-opacity:1;stroke-width:0.26458332"
         id="path1464" />
      <path
         d="m 12.889153,204.02165 c 0.373286,0 0.619922,-0.10998 0.829896,-0.29329 0.04666,-0.04 0.08666,-0.10332 0.08666,-0.18331 0,-0.12999 -0.109986,-0.23664 -0.23997,-0.23664 -0.05999,0 -0.113319,0.0233 -0.153314,0.0567 -0.146649,0.11665 -0.289964,0.18331 -0.506604,0.18331 -0.39995,0 -0.676582,-0.33329 -0.676582,-0.73324 v -0.007 c 0,-0.39995 0.283298,-0.72657 0.676582,-0.72657 0.183311,0 0.333292,0.06 0.476607,0.16664 0.03666,0.0233 0.08332,0.05 0.153315,0.05 0.139982,0 0.253301,-0.10999 0.253301,-0.24997 0,-0.09 -0.04666,-0.16332 -0.09999,-0.20331 -0.193309,-0.14332 -0.429946,-0.23664 -0.779903,-0.23664 -0.716577,0 -1.216515,0.54327 -1.216515,1.20652 v 0.007 c 0,0.66992 0.509937,1.19985 1.196518,1.19985 z"
         style="font-style:normal;font-variant:normal;font-weight:bold;font-stretch:normal;font-family:'Gotham Rounded';-inkscape-font-specification:'Gotham Rounded Bold';text-align:center;text-anchor:middle;fill:#cccccc;fill-opacity:1;stroke-width:0.26458332"
         id="path1466" />
      <path
         d="m 14.096606,203.76169 c 0,0.13331 0.10332,0.23997 0.236637,0.23997 0.106654,0 0.193309,-0.06 0.236637,-0.15998 l 0.163313,-0.38329 h 1.026539 l 0.156647,0.36662 c 0.04666,0.10666 0.126651,0.17665 0.246636,0.17665 0.13665,0 0.243303,-0.10999 0.243303,-0.24664 0,-0.0333 -0.01,-0.0667 -0.02666,-0.10332 l -0.813232,-1.83644 c -0.05666,-0.12665 -0.156647,-0.20331 -0.29663,-0.20331 h -0.03 c -0.139983,0 -0.243303,0.0767 -0.299963,0.20331 l -0.813232,1.83644 c -0.01666,0.0367 -0.03,0.0733 -0.03,0.10999 z m 0.826564,-0.75658 0.323293,-0.7699 0.323293,0.7699 z"
         style="font-style:normal;font-variant:normal;font-weight:bold;font-stretch:normal;font-family:'Gotham Rounded';-inkscape-font-specification:'Gotham Rounded Bold';text-align:center;text-anchor:middle;fill:#cccccc;fill-opacity:1;stroke-width:0.26458332"
         id="path1468" />
    </g>
    <g
       aria-label="GAIN"
       style="font-style:normal;font-variant:normal;font-weight:300;font-stretch:normal;font-size:2.6360302px;line-height:1.25;font-family:'Gotham Rounded';-inkscape-font-specification:'Gotham Rounded Light';letter-spacing:0px;word-spacing:0px;fill:#cccccc;fill-opacity:1;stroke:none;stroke-width:0.26458329"
       id="text2016">
      <path
         d="m 7.3115138,209.47446 c 0.2767832,0 0.4982097,-0.0949 0.6563716,-0.20034 0.076445,-0.0474 0.1133493,-0.11335 0.1133493,-0.20561 v -0.49294 c 0,-0.0923 -0.071173,-0.16343 -0.1634339,-0.16343 H 7.4037749 c -0.079081,0 -0.1449817,0.0633 -0.1449817,0.14234 0,0.0791 0.065901,0.13971 0.1449817,0.13971 h 0.3637722 v 0.34532 c -0.1133493,0.0844 -0.2715111,0.13971 -0.4454891,0.13971 -0.3769524,0 -0.6273752,-0.27942 -0.6273752,-0.65901 v -0.005 c 0,-0.35323 0.2583309,-0.6511 0.5983788,-0.6511 0.2003383,0 0.3295038,0.058 0.4481252,0.14498 0.02636,0.0185 0.057993,0.0369 0.1001691,0.0369 0.089625,0 0.1607979,-0.0738 0.1607979,-0.1608 0,-0.0633 -0.034268,-0.10808 -0.065901,-0.1318 -0.1687059,-0.12126 -0.353228,-0.18716 -0.6300112,-0.18716 -0.5562024,0 -0.9516069,0.43758 -0.9516069,0.95424 v 0.005 c 0,0.53775 0.3795883,0.94897 0.9568789,0.94897 z"
         style="text-align:center;text-anchor:middle;fill:#cccccc;fill-opacity:1;stroke-width:0.26458329"
         id="path1449" />
      <path
         d="m 8.3743694,209.30575 c 0,0.0844 0.065901,0.15026 0.1502537,0.15026 0.068537,0 0.1238935,-0.0369 0.1502538,-0.10281 l 0.1555258,-0.35586 h 0.8962502 l 0.1502537,0.34532 c 0.028996,0.0685 0.081717,0.11335 0.1581614,0.11335 0.08699,0 0.15289,-0.0685 0.15289,-0.15553 0,-0.0211 -0.0053,-0.0448 -0.01845,-0.0685 l -0.6853679,-1.52889 c -0.036904,-0.0817 -0.1001691,-0.13181 -0.1924302,-0.13181 h -0.015816 c -0.092261,0 -0.1581619,0.0501 -0.1950663,0.13181 l -0.6853678,1.52889 c -0.01318,0.0264 -0.021088,0.0501 -0.021088,0.0738 z m 0.5799267,-0.59574 0.3242317,-0.746 0.3242317,0.746 z"
         style="text-align:center;text-anchor:middle;fill:#cccccc;fill-opacity:1;stroke-width:0.26458329"
         id="path1451" />
      <path
         d="m 10.558156,209.29521 c 0,0.0896 0.07117,0.1608 0.163433,0.1608 0.08963,0 0.160798,-0.0712 0.160798,-0.1608 v -1.54999 c 0,-0.0896 -0.07117,-0.1608 -0.160798,-0.1608 -0.09226,0 -0.163433,0.0712 -0.163433,0.1608 z"
         style="text-align:center;text-anchor:middle;fill:#cccccc;fill-opacity:1;stroke-width:0.26458329"
         id="path1453" />
      <path
         d="m 11.37376,209.29784 c 0,0.087 0.07117,0.15817 0.160798,0.15817 0.08699,0 0.158161,-0.0712 0.158161,-0.15817 v -1.17039 l 0.948971,1.22839 c 0.04481,0.058 0.09226,0.0975 0.168706,0.0975 h 0.01318 c 0.08963,0 0.158162,-0.0712 0.158162,-0.1608 v -1.54998 c 0,-0.087 -0.07117,-0.15817 -0.160798,-0.15817 -0.08699,0 -0.158161,0.0712 -0.158161,0.15817 v 1.13349 l -0.922611,-1.19412 c -0.04481,-0.0554 -0.08962,-0.0949 -0.168706,-0.0949 h -0.03427 c -0.09226,0 -0.163434,0.0738 -0.163434,0.16343 z"
         style="text-align:center;text-anchor:middle;fill:#cccccc;fill-opacity:1;stroke-width:0.26458329"
         id="path1455" />
    </g>
    <g
       aria-label="HARD"
       style="font-style:normal;font-variant:normal;font-weight:normal;font-stretch:normal;font-size:1.84191251px;line-height:1.25;font-family:'Gotham Rounded';-inkscape-font-specification:'Gotham Rounded';text-align:center;letter-spacing:0px;word-spacing:0px;text-anchor:middle;fill:#cccccc;fill-opacity:1;stroke:none;stroke-width:0.26458329"
       id="text2020">
      <path
         d="m 13.000697,244.72863 c 0,0.0792 0.06262,0.14183 0.141827,0.14183 0.0792,0 0.141827,-0.0626 0.141827,-0.14183 v -0.3868 h 0.523104 v 0.3868 c 0,0.0792 0.06263,0.14183 0.141827,0.14183 0.0792,0 0.141827,-0.0626 0.141827,-0.14183 v -1.02779 c 0,-0.0792 -0.06262,-0.14182 -0.141827,-0.14182 -0.0792,0 -0.141827,0.0626 -0.141827,0.14182 v 0.37944 h -0.523104 v -0.37944 c 0,-0.0792 -0.06262,-0.14182 -0.141827,-0.14182 -0.0792,0 -0.141827,0.0626 -0.141827,0.14182 z"
         style="font-style:normal;font-variant:normal;font-weight:normal;font-stretch:normal;font-family:'Gotham Rounded';-inkscape-font-specification:'Gotham Rounded';text-align:center;text-anchor:middle;fill:#cccccc;fill-opacity:1;stroke-width:0.26458329"
         id="path1498" />
      <path
         d="m 14.311707,244.73784 c 0,0.0737 0.0571,0.13262 0.130776,0.13262 0.05894,0 0.106831,-0.0332 0.130775,-0.0884 l 0.09025,-0.21182 h 0.567309 l 0.08657,0.20261 c 0.02579,0.0589 0.06999,0.0976 0.136302,0.0976 0.07552,0 0.134459,-0.0608 0.134459,-0.1363 0,-0.0184 -0.0055,-0.0368 -0.01473,-0.0571 l -0.449427,-1.0149 c -0.03131,-0.07 -0.08657,-0.11235 -0.16393,-0.11235 h -0.01658 c -0.07736,0 -0.13446,0.0424 -0.165772,0.11235 l -0.449427,1.0149 c -0.0092,0.0203 -0.01658,0.0405 -0.01658,0.0608 z m 0.456794,-0.41811 0.178666,-0.42549 0.178665,0.42549 z"
         style="font-style:normal;font-variant:normal;font-weight:normal;font-stretch:normal;font-family:'Gotham Rounded';-inkscape-font-specification:'Gotham Rounded';text-align:center;text-anchor:middle;fill:#cccccc;fill-opacity:1;stroke-width:0.26458329"
         id="path1500" />
      <path
         d="m 15.810333,244.72863 c 0,0.0792 0.06263,0.14183 0.141827,0.14183 0.0792,0 0.141828,-0.0626 0.141828,-0.14183 v -0.28181 h 0.226555 l 0.276287,0.34996 c 0.03315,0.0424 0.07552,0.0737 0.139985,0.0737 0.06815,0 0.13446,-0.0516 0.13446,-0.13078 0,-0.0442 -0.01842,-0.0737 -0.04605,-0.10867 l -0.197085,-0.23945 c 0.156563,-0.0645 0.257868,-0.18972 0.257868,-0.39233 v -0.004 c 0,-0.12157 -0.03868,-0.22287 -0.110515,-0.29471 -0.08473,-0.0847 -0.21182,-0.13077 -0.37575,-0.13077 H 15.95216 c -0.0792,0 -0.141827,0.0626 -0.141827,0.14182 z m 0.283655,-0.53231 v -0.37023 H 16.3758 c 0.138144,0 0.222872,0.0626 0.222872,0.18419 v 0.004 c 0,0.10867 -0.0792,0.18235 -0.217346,0.18235 z"
         style="font-style:normal;font-variant:normal;font-weight:normal;font-stretch:normal;font-family:'Gotham Rounded';-inkscape-font-specification:'Gotham Rounded';text-align:center;text-anchor:middle;fill:#cccccc;fill-opacity:1;stroke-width:0.26458329"
         id="path1502" />
      <path
         d="m 17.141402,244.71758 c 0,0.0792 0.06263,0.14183 0.141828,0.14183 h 0.361015 c 0.40522,0 0.685191,-0.28182 0.685191,-0.64467 v -0.004 c 0,-0.36285 -0.279971,-0.64098 -0.685191,-0.64098 H 17.28323 c -0.0792,0 -0.141828,0.0626 -0.141828,0.14182 z m 0.283655,-0.1142 v -0.77729 h 0.219188 c 0.232081,0 0.388643,0.16025 0.388643,0.38865 v 0.004 c 0,0.2284 -0.156562,0.38496 -0.388643,0.38496 z"
         style="font-style:normal;font-variant:normal;font-weight:normal;font-stretch:normal;font-family:'Gotham Rounded';-inkscape-font-specification:'Gotham Rounded';text-align:center;text-anchor:middle;fill:#cccccc;fill-opacity:1;stroke-width:0.26458329"
         id="path1504" />
    </g>
    <g
       aria-label="SOFT"
       style="font-style:normal;font-variant:normal;font-weight:normal;font-stretch:normal;font-size:1.84191251px;line-height:1.25;font-family:'Gotham Rounded';-inkscape-font-specification:'Gotham Rounded';text-align:center;letter-spacing:0px;word-spacing:0px;text-anchor:middle;fill:#cccccc;fill-opacity:1;stroke:none;stroke-width:0.26458329"
       id="text2028">
      <path
         d="m 2.7156108,244.87779 c 0.2781288,0 0.4733715,-0.14367 0.4733715,-0.39969 v -0.004 c 0,-0.22472 -0.147353,-0.31866 -0.4089045,-0.38681 -0.2228714,-0.0571 -0.2781288,-0.0847 -0.2781288,-0.16945 v -0.004 c 0,-0.0626 0.057099,-0.11235 0.1657721,-0.11235 0.088412,0 0.1768236,0.0313 0.2707611,0.0866 0.022103,0.0129 0.044206,0.0203 0.071835,0.0203 0.073676,0 0.1326177,-0.0571 0.1326177,-0.13078 0,-0.0553 -0.031312,-0.0939 -0.062625,-0.11235 -0.1160405,-0.0737 -0.252342,-0.1142 -0.4089046,-0.1142 -0.2633935,0 -0.4512685,0.15472 -0.4512685,0.38864 v 0.004 c 0,0.25603 0.167614,0.32786 0.4273237,0.39417 0.2155037,0.0553 0.2597096,0.0921 0.2597096,0.16393 v 0.004 c 0,0.0755 -0.069993,0.12156 -0.1860331,0.12156 -0.1252501,0 -0.232081,-0.0442 -0.3297024,-0.11604 -0.018419,-0.0129 -0.044206,-0.0258 -0.081044,-0.0258 -0.073676,0 -0.1326177,0.0571 -0.1326177,0.13077 0,0.0442 0.022103,0.0847 0.053415,0.10683 0.1436692,0.10315 0.3149671,0.15472 0.484423,0.15472 z"
         style="font-style:normal;font-variant:normal;font-weight:normal;font-stretch:normal;font-family:'Gotham Rounded';-inkscape-font-specification:'Gotham Rounded';text-align:center;text-anchor:middle;fill:#cccccc;fill-opacity:1;stroke-width:0.26458329"
         id="path1489" />
      <path
         d="m 4.0632,244.88148 c 0.3978531,0 0.6870334,-0.30023 0.6870334,-0.66677 v -0.004 c 0,-0.36654 -0.2854964,-0.66309 -0.6833496,-0.66309 -0.3978531,0 -0.6870333,0.30024 -0.6870333,0.66678 v 0.004 c 0,0.36654 0.2854964,0.66309 0.6833495,0.66309 z m 0.00368,-0.26155 c -0.2283971,0 -0.3904854,-0.18419 -0.3904854,-0.40522 v -0.004 c 0,-0.22103 0.1584045,-0.40154 0.3868016,-0.40154 0.2283972,0 0.3904855,0.1842 0.3904855,0.40523 v 0.004 c 0,0.22103 -0.1584045,0.40154 -0.3868017,0.40154 z"
         style="font-style:normal;font-variant:normal;font-weight:normal;font-stretch:normal;font-family:'Gotham Rounded';-inkscape-font-specification:'Gotham Rounded';text-align:center;text-anchor:middle;fill:#cccccc;fill-opacity:1;stroke-width:0.26458329"
         id="path1491" />
      <path
         d="m 5.0018558,244.7286 c 0,0.0792 0.062625,0.14183 0.1418272,0.14183 0.079202,0 0.1418273,-0.0626 0.1418273,-0.14183 v -0.36838 h 0.4973164 c 0.071835,0 0.1289339,-0.0571 0.1289339,-0.12894 0,-0.0718 -0.057099,-0.12893 -0.1289339,-0.12893 H 5.2855103 v -0.27445 h 0.5802024 c 0.071835,0 0.1289339,-0.0571 0.1289339,-0.12893 0,-0.0718 -0.057099,-0.12893 -0.1289339,-0.12893 H 5.143683 c -0.079202,0 -0.1418272,0.0626 -0.1418272,0.14182 z"
         style="font-style:normal;font-variant:normal;font-weight:normal;font-stretch:normal;font-family:'Gotham Rounded';-inkscape-font-specification:'Gotham Rounded';text-align:center;text-anchor:middle;fill:#cccccc;fill-opacity:1;stroke-width:0.26458329"
         id="path1493" />
      <path
         d="m 6.5108428,244.7286 c 0,0.0792 0.062625,0.14183 0.1418272,0.14183 0.079202,0 0.1418273,-0.0626 0.1418273,-0.14183 v -0.89701 h 0.272603 c 0.071835,0 0.1307758,-0.0589 0.1307758,-0.13078 0,-0.0718 -0.058941,-0.13077 -0.1307758,-0.13077 H 6.2382397 c -0.071835,0 -0.1307758,0.0589 -0.1307758,0.13077 0,0.0718 0.058941,0.13078 0.1307758,0.13078 h 0.2726031 z"
         style="font-style:normal;font-variant:normal;font-weight:normal;font-stretch:normal;font-family:'Gotham Rounded';-inkscape-font-specification:'Gotham Rounded';text-align:center;text-anchor:middle;fill:#cccccc;fill-opacity:1;stroke-width:0.26458329"
         id="path1495" />
    </g>
    <g
       aria-label="L IN"
       style="font-style:normal;font-variant:normal;font-weight:normal;font-stretch:normal;font-size:1.84191251px;line-height:1.25;font-family:'Gotham Rounded';-inkscape-font-specification:'Gotham Rounded';text-align:center;letter-spacing:0px;word-spacing:0px;text-anchor:middle;fill:#cccccc;fill-opacity:1;stroke:none;stroke-width:0.26458329"
       id="text2036">
      <path
         d="m 3.7414693,267.73418 c 0,0.0792 0.062625,0.14183 0.1418272,0.14183 h 0.6667724 c 0.071835,0 0.1289338,-0.0571 0.1289338,-0.12894 0,-0.0718 -0.057099,-0.12893 -0.1289338,-0.12893 H 4.0251238 v -0.9007 c 0,-0.0792 -0.062625,-0.14182 -0.1418273,-0.14182 -0.079202,0 -0.1418272,0.0626 -0.1418272,0.14182 z"
         style="font-style:normal;font-variant:normal;font-weight:normal;font-stretch:normal;font-family:'Gotham Rounded';-inkscape-font-specification:'Gotham Rounded';text-align:center;text-anchor:middle;fill:#cccccc;fill-opacity:1;stroke-width:0.26458329"
         id="path1531" />
      <path
         d="m 5.4487784,267.74523 c 0,0.0792 0.062625,0.14183 0.1418272,0.14183 0.079202,0 0.1418273,-0.0626 0.1418273,-0.14183 v -1.02779 c 0,-0.0792 -0.062625,-0.14182 -0.1418273,-0.14182 -0.079202,0 -0.1418272,0.0626 -0.1418272,0.14182 z"
         style="font-style:normal;font-variant:normal;font-weight:normal;font-stretch:normal;font-family:'Gotham Rounded';-inkscape-font-specification:'Gotham Rounded';text-align:center;text-anchor:middle;fill:#cccccc;fill-opacity:1;stroke-width:0.26458329"
         id="path1533" />
      <path
         d="m 6.0546526,267.74707 c 0,0.0774 0.062625,0.13999 0.1399853,0.13999 0.07736,0 0.1399854,-0.0626 0.1399854,-0.13999 v -0.69071 l 0.567309,0.74413 c 0.03868,0.0497 0.079202,0.0829 0.147353,0.0829 h 0.00921 c 0.079202,0 0.1418273,-0.0626 0.1418273,-0.14182 v -1.02595 c 0,-0.0774 -0.062625,-0.13998 -0.1399854,-0.13998 -0.07736,0 -0.1399853,0.0626 -0.1399853,0.13998 v 0.66493 l -0.5470481,-0.71834 c -0.03868,-0.0497 -0.079202,-0.0829 -0.147353,-0.0829 h -0.029471 c -0.079202,0 -0.1418272,0.0626 -0.1418272,0.14183 z"
         style="font-style:normal;font-variant:normal;font-weight:normal;font-stretch:normal;font-family:'Gotham Rounded';-inkscape-font-specification:'Gotham Rounded';text-align:center;text-anchor:middle;fill:#cccccc;fill-opacity:1;stroke-width:0.26458329"
         id="path1535" />
    </g>
    <rect
       style="opacity:1;fill:#808080;fill-opacity:1;stroke:none;stroke-width:0.26458332;stroke-linecap:round;stroke-linejoin:round;stroke-miterlimit:0;stroke-dasharray:none;stroke-dashoffset:0;stroke-opacity:1"
       id="rect2129"
       width="7.6729159"
       height="10.847919"
       x="10.583344"
       y="277.4209"
       rx="0.79375178"
       ry="0.79375178" />
    <g
       aria-label="R OUT"
       style="font-style:normal;font-variant:normal;font-weight:300;font-stretch:normal;font-size:1.84191251px;line-height:1.25;font-family:'Gotham Rounded';-inkscape-font-specification:'Gotham Rounded Light';text-align:center;letter-spacing:0px;word-spacing:0px;text-anchor:middle;fill:#000000;fill-opacity:1;stroke:none;stroke-width:0.26458329"
       id="text2040">
      <path
         d="m 11.61158,279.52204 c 0,0.0626 0.04973,0.11235 0.114198,0.11235 0.06263,0 0.112357,-0.0497 0.112357,-0.11235 v -0.34628 h 0.285496 l 0.313126,0.39969 c 0.02579,0.035 0.05894,0.0589 0.110514,0.0589 0.05526,0 0.108673,-0.0424 0.108673,-0.10499 0,-0.035 -0.01473,-0.0589 -0.03684,-0.0866 l -0.246816,-0.31128 c 0.173139,-0.0534 0.292864,-0.17866 0.292864,-0.38496 v -0.004 c 0,-0.11236 -0.03868,-0.20814 -0.106831,-0.27813 -0.08289,-0.0811 -0.209978,-0.12894 -0.372067,-0.12894 h -0.460478 c -0.06447,0 -0.114198,0.0497 -0.114198,0.1142 z m 0.226555,-0.54705 v -0.43285 h 0.329702 c 0.167614,0 0.267078,0.0755 0.267078,0.21366 v 0.004 c 0,0.13078 -0.103147,0.21551 -0.265236,0.21551 z"
         style="font-style:normal;font-variant:normal;font-weight:300;font-stretch:normal;font-family:'Gotham Rounded';-inkscape-font-specification:'Gotham Rounded Light';text-align:center;text-anchor:middle;fill:#000000;fill-opacity:1;stroke-width:0.26458329"
         id="path1547" />
      <path
         d="m 14.111861,279.64729 c 0.396011,0 0.675982,-0.30392 0.675982,-0.66678 v -0.004 c 0,-0.36286 -0.276287,-0.66309 -0.672298,-0.66309 -0.396011,0 -0.675982,0.30392 -0.675982,0.66677 v 0.004 c 0,0.36285 0.276287,0.66309 0.672298,0.66309 z m 0.0037,-0.20998 c -0.256026,0 -0.438375,-0.2063 -0.438375,-0.4568 v -0.004 c 0,-0.2505 0.178665,-0.45495 0.434691,-0.45495 0.256026,0 0.438375,0.20813 0.438375,0.45863 v 0.004 c 0,0.2505 -0.178665,0.45311 -0.434691,0.45311 z"
         style="font-style:normal;font-variant:normal;font-weight:300;font-stretch:normal;font-family:'Gotham Rounded';-inkscape-font-specification:'Gotham Rounded Light';text-align:center;text-anchor:middle;fill:#000000;fill-opacity:1;stroke-width:0.26458329"
         id="path1549" />
      <path
         d="m 15.590197,279.64544 c 0.33707,0 0.554416,-0.1934 0.554416,-0.57836 v -0.62809 c 0,-0.0626 -0.04973,-0.11236 -0.112357,-0.11236 -0.06447,0 -0.114199,0.0497 -0.114199,0.11236 v 0.63915 c 0,0.2376 -0.123408,0.35733 -0.324176,0.35733 -0.202611,0 -0.326019,-0.1271 -0.326019,-0.36654 v -0.62994 c 0,-0.0626 -0.04973,-0.11236 -0.112356,-0.11236 -0.06447,0 -0.114199,0.0497 -0.114199,0.11236 v 0.63915 c 0,0.3739 0.213662,0.5673 0.54889,0.5673 z"
         style="font-style:normal;font-variant:normal;font-weight:300;font-stretch:normal;font-family:'Gotham Rounded';-inkscape-font-specification:'Gotham Rounded Light';text-align:center;text-anchor:middle;fill:#000000;fill-opacity:1;stroke-width:0.26458329"
         id="path1551" />
      <path
         d="m 16.774202,279.52204 c 0,0.0626 0.05157,0.11235 0.114198,0.11235 0.06263,0 0.114199,-0.0497 0.114199,-0.11235 v -0.97622 h 0.314967 c 0.0571,0 0.103147,-0.0479 0.103147,-0.10499 0,-0.0571 -0.04605,-0.10499 -0.103147,-0.10499 h -0.85649 c -0.05894,0 -0.104989,0.0479 -0.104989,0.10499 0,0.0571 0.04605,0.10499 0.104989,0.10499 h 0.313126 z"
         style="font-style:normal;font-variant:normal;font-weight:300;font-stretch:normal;font-family:'Gotham Rounded';-inkscape-font-specification:'Gotham Rounded Light';text-align:center;text-anchor:middle;fill:#000000;fill-opacity:1;stroke-width:0.26458329"
         id="path1553" />
    </g>
    <g
       id="g2083"
       transform="translate(-71.437492,-0.26457681)">
      <path
         style="fill:none;fill-rule:evenodd;stroke:#cccccc;stroke-width:0.26458335px;stroke-linecap:round;stroke-linejoin:miter;stroke-opacity:1"
         d="m 80.036453,232.3093 h 0.54054"
         id="path2071"
         inkscape:connector-curvature="0"
         sodipodi:nodetypes="cc" />
      <path
         style="opacity:1;fill:none;fill-opacity:1;stroke:#cccccc;stroke-width:0.26500002;stroke-linecap:round;stroke-linejoin:bevel;stroke-miterlimit:0;stroke-dasharray:none;stroke-dashoffset:0;stroke-opacity:1"
         id="path2073"
         sodipodi:type="arc"
         sodipodi:cx="232.30933"
         sodipodi:cy="81.658264"
         sodipodi:rx="1.0582422"
         sodipodi:ry="1.0619801"
         sodipodi:start="2.1816616"
         sodipodi:end="0.95993109"
         d="m 231.70234,82.528187 a 1.0582422,1.0619801 0 0 1 -0.40228,-1.189266 1.0582422,1.0619801 0 0 1 1.00927,-0.742637 1.0582422,1.0619801 0 0 1 1.00926,0.742637 1.0582422,1.0619801 0 0 1 -0.40228,1.189266"
         sodipodi:open="true"
         transform="matrix(0,1,1,0,0,0)"
         inkscape:transform-center-x="0.082243555"
         inkscape:transform-center-y="-1.803132e-06" />
      <circle
         style="opacity:1;fill:#cccccc;fill-opacity:1;stroke:none;stroke-width:0.26499999;stroke-linecap:round;stroke-linejoin:bevel;stroke-miterlimit:0;stroke-dasharray:none;stroke-dashoffset:0;stroke-opacity:1"
         id="circle2075"
         cx="81.623955"
         cy="-232.30936"
         r="0.39687464"
         transform="scale(1,-1)" />
      <path
         sodipodi:nodetypes="cc"
         inkscape:connector-curvature="0"
         id="path2077"
         d="M 82.958242,232.3093 H 81.756245"
         style="fill:none;fill-rule:evenodd;stroke:#cccccc;stroke-width:0.26458335px;stroke-linecap:round;stroke-linejoin:miter;stroke-opacity:1" />
    </g>
    <rect
       ry="0.79375178"
       rx="0.79375178"
       y="277.4209"
       x="1.5875095"
       height="10.847919"
       width="7.6729159"
       id="rect2097"
       style="opacity:1;fill:#808080;fill-opacity:1;stroke:none;stroke-width:0.26458332;stroke-linecap:round;stroke-linejoin:round;stroke-miterlimit:0;stroke-dasharray:none;stroke-dashoffset:0;stroke-opacity:1" />
    <g
       aria-label="L OUT"
       style="font-style:normal;font-variant:normal;font-weight:300;font-stretch:normal;font-size:1.84191251px;line-height:1.25;font-family:'Gotham Rounded';-inkscape-font-specification:'Gotham Rounded Light';text-align:center;letter-spacing:0px;word-spacing:0px;text-anchor:middle;fill:#000000;fill-opacity:1;stroke:none;stroke-width:0.26458329"
       id="text2111">
      <path
         d="m 2.7110793,279.51098 c 0,0.0645 0.049732,0.1142 0.1141985,0.1142 h 0.696243 c 0.057099,0 0.1031471,-0.046 0.1031471,-0.10314 0,-0.0571 -0.046048,-0.10315 -0.1031471,-0.10315 H 2.9376345 v -0.9799 c 0,-0.0626 -0.049732,-0.11236 -0.1123567,-0.11236 -0.064467,0 -0.1141985,0.0497 -0.1141985,0.11236 z"
         style="font-style:normal;font-variant:normal;font-weight:300;font-stretch:normal;font-family:'Gotham Rounded';-inkscape-font-specification:'Gotham Rounded Light';text-align:center;text-anchor:middle;fill:#000000;fill-opacity:1;stroke-width:0.26458329"
         id="path1538" />
      <path
         d="m 5.0206937,279.64729 c 0.3960112,0 0.6759819,-0.30392 0.6759819,-0.66678 v -0.004 c 0,-0.36286 -0.2762869,-0.66309 -0.6722981,-0.66309 -0.3960111,0 -0.6759818,0.30392 -0.6759818,0.66677 v 0.004 c 0,0.36285 0.2762868,0.66309 0.672298,0.66309 z m 0.00368,-0.20998 c -0.2560258,0 -0.4383751,-0.2063 -0.4383751,-0.4568 v -0.004 c 0,-0.2505 0.1786655,-0.45495 0.4346913,-0.45495 0.2560259,0 0.4383752,0.20813 0.4383752,0.45863 v 0.004 c 0,0.2505 -0.1786655,0.45311 -0.4346914,0.45311 z"
         style="font-style:normal;font-variant:normal;font-weight:300;font-stretch:normal;font-family:'Gotham Rounded';-inkscape-font-specification:'Gotham Rounded Light';text-align:center;text-anchor:middle;fill:#000000;fill-opacity:1;stroke-width:0.26458329"
         id="path1540" />
      <path
         d="m 6.4990298,279.64544 c 0.33707,0 0.5544157,-0.1934 0.5544157,-0.57836 v -0.62809 c 0,-0.0626 -0.049732,-0.11236 -0.1123567,-0.11236 -0.064467,0 -0.1141985,0.0497 -0.1141985,0.11236 v 0.63915 c 0,0.2376 -0.1234082,0.35733 -0.3241766,0.35733 -0.2026104,0 -0.3260186,-0.1271 -0.3260186,-0.36654 v -0.62994 c 0,-0.0626 -0.049732,-0.11236 -0.1123566,-0.11236 -0.064467,0 -0.1141986,0.0497 -0.1141986,0.11236 v 0.63915 c 0,0.3739 0.2136619,0.5673 0.5488899,0.5673 z"
         style="font-style:normal;font-variant:normal;font-weight:300;font-stretch:normal;font-family:'Gotham Rounded';-inkscape-font-specification:'Gotham Rounded Light';text-align:center;text-anchor:middle;fill:#000000;fill-opacity:1;stroke-width:0.26458329"
         id="path1542" />
      <path
         d="m 7.6830343,279.52204 c 0,0.0626 0.051574,0.11235 0.1141986,0.11235 0.062625,0 0.1141986,-0.0497 0.1141986,-0.11235 v -0.97622 h 0.314967 c 0.057099,0 0.1031471,-0.0479 0.1031471,-0.10499 0,-0.0571 -0.046048,-0.10499 -0.1031471,-0.10499 H 7.3699092 c -0.058941,0 -0.104989,0.0479 -0.104989,0.10499 0,0.0571 0.046048,0.10499 0.104989,0.10499 h 0.3131251 z"
         style="font-style:normal;font-variant:normal;font-weight:300;font-stretch:normal;font-family:'Gotham Rounded';-inkscape-font-specification:'Gotham Rounded Light';text-align:center;text-anchor:middle;fill:#000000;fill-opacity:1;stroke-width:0.26458329"
         id="path1544" />
    </g>
    <g
       aria-label="R IN"
       style="font-style:normal;font-variant:normal;font-weight:normal;font-stretch:normal;font-size:1.84191251px;line-height:1.25;font-family:'Gotham Rounded';-inkscape-font-specification:'Gotham Rounded';text-align:center;letter-spacing:0px;word-spacing:0px;text-anchor:middle;fill:#cccccc;fill-opacity:1;stroke:none;stroke-width:0.26458329"
       id="text2149">
      <path
         d="m 12.641962,267.74523 c 0,0.0792 0.06263,0.14183 0.141827,0.14183 0.0792,0 0.141828,-0.0626 0.141828,-0.14183 v -0.28181 h 0.226555 l 0.276287,0.34996 c 0.03315,0.0424 0.07552,0.0737 0.139985,0.0737 0.06815,0 0.13446,-0.0516 0.13446,-0.13078 0,-0.0442 -0.01842,-0.0737 -0.04605,-0.10867 l -0.197085,-0.23945 c 0.156563,-0.0645 0.257868,-0.18972 0.257868,-0.39233 v -0.004 c 0,-0.12157 -0.03868,-0.22287 -0.110515,-0.29471 -0.08473,-0.0847 -0.21182,-0.13077 -0.37575,-0.13077 h -0.447585 c -0.0792,0 -0.141827,0.0626 -0.141827,0.14183 z m 0.283655,-0.53231 v -0.37023 h 0.281812 c 0.138144,0 0.222872,0.0626 0.222872,0.1842 v 0.004 c 0,0.10867 -0.0792,0.18235 -0.217346,0.18235 z"
         style="font-style:normal;font-variant:normal;font-weight:normal;font-stretch:normal;font-family:'Gotham Rounded';-inkscape-font-specification:'Gotham Rounded';text-align:center;text-anchor:middle;fill:#cccccc;fill-opacity:1;stroke-width:0.26458329"
         id="path1524" />
      <path
         d="m 14.539938,267.74523 c 0,0.0792 0.06263,0.14183 0.141827,0.14183 0.0792,0 0.141827,-0.0626 0.141827,-0.14183 v -1.02779 c 0,-0.0792 -0.06262,-0.14182 -0.141827,-0.14182 -0.0792,0 -0.141827,0.0626 -0.141827,0.14182 z"
         style="font-style:normal;font-variant:normal;font-weight:normal;font-stretch:normal;font-family:'Gotham Rounded';-inkscape-font-specification:'Gotham Rounded';text-align:center;text-anchor:middle;fill:#cccccc;fill-opacity:1;stroke-width:0.26458329"
         id="path1526" />
      <path
         d="m 15.145812,267.74707 c 0,0.0774 0.06263,0.13999 0.139985,0.13999 0.07736,0 0.139986,-0.0626 0.139986,-0.13999 v -0.69071 l 0.567309,0.74413 c 0.03868,0.0497 0.0792,0.0829 0.147353,0.0829 h 0.0092 c 0.0792,0 0.141828,-0.0626 0.141828,-0.14182 v -1.02595 c 0,-0.0774 -0.06262,-0.13998 -0.139986,-0.13998 -0.07736,0 -0.139985,0.0626 -0.139985,0.13998 v 0.66493 l -0.547048,-0.71834 c -0.03868,-0.0497 -0.0792,-0.0829 -0.147353,-0.0829 h -0.02947 c -0.0792,0 -0.141827,0.0626 -0.141827,0.14183 z"
         style="font-style:normal;font-variant:normal;font-weight:normal;font-stretch:normal;font-family:'Gotham Rounded';-inkscape-font-specification:'Gotham Rounded';text-align:center;text-anchor:middle;fill:#cccccc;fill-opacity:1;stroke-width:0.26458329"
         id="path1528" />
    </g>
    <g
       aria-label="CLIP"
       style="font-style:normal;font-variant:normal;font-weight:normal;font-stretch:normal;font-size:1.84191251px;line-height:1.25;font-family:'Gotham Rounded';-inkscape-font-specification:'Gotham Rounded';text-align:center;letter-spacing:0px;word-spacing:0px;text-anchor:middle;fill:#cccccc;fill-opacity:1;stroke:none;stroke-width:0.26458329"
       id="text2169">
      <path
         d="m 13.672788,232.72833 c 0.206294,0 0.342596,-0.0608 0.458636,-0.16209 0.02579,-0.0221 0.04789,-0.0571 0.04789,-0.10131 0,-0.0718 -0.06078,-0.13077 -0.132618,-0.13077 -0.03315,0 -0.06263,0.0129 -0.08473,0.0313 -0.08104,0.0645 -0.160246,0.1013 -0.27997,0.1013 -0.22103,0 -0.373908,-0.18419 -0.373908,-0.40522 v -0.004 c 0,-0.22103 0.156562,-0.40154 0.373908,-0.40154 0.101305,0 0.184191,0.0332 0.263393,0.0921 0.02026,0.0129 0.04605,0.0276 0.08473,0.0276 0.07736,0 0.139986,-0.0608 0.139986,-0.13815 0,-0.0497 -0.02579,-0.0902 -0.05526,-0.11235 -0.106831,-0.0792 -0.237607,-0.13078 -0.431007,-0.13078 -0.396012,0 -0.672298,0.30023 -0.672298,0.66677 v 0.004 c 0,0.37022 0.281812,0.66309 0.661246,0.66309 z"
         style="font-style:normal;font-variant:normal;font-weight:normal;font-stretch:normal;font-family:'Gotham Rounded';-inkscape-font-specification:'Gotham Rounded';text-align:center;text-anchor:middle;fill:#cccccc;fill-opacity:1;stroke-width:0.26458329"
         id="path1480" />
      <path
         d="m 14.42849,232.5644 c 0,0.0792 0.06263,0.14182 0.141828,0.14182 h 0.666772 c 0.07184,0 0.128934,-0.0571 0.128934,-0.12893 0,-0.0718 -0.0571,-0.12894 -0.128934,-0.12894 h -0.524945 v -0.90069 c 0,-0.0792 -0.06262,-0.14183 -0.141827,-0.14183 -0.0792,0 -0.141828,0.0626 -0.141828,0.14183 z"
         style="font-style:normal;font-variant:normal;font-weight:normal;font-stretch:normal;font-family:'Gotham Rounded';-inkscape-font-specification:'Gotham Rounded';text-align:center;text-anchor:middle;fill:#cccccc;fill-opacity:1;stroke-width:0.26458329"
         id="path1482" />
      <path
         d="m 15.581787,232.57545 c 0,0.0792 0.06263,0.14182 0.141827,0.14182 0.0792,0 0.141827,-0.0626 0.141827,-0.14182 v -1.02779 c 0,-0.0792 -0.06263,-0.14183 -0.141827,-0.14183 -0.0792,0 -0.141827,0.0626 -0.141827,0.14183 z"
         style="font-style:normal;font-variant:normal;font-weight:normal;font-stretch:normal;font-family:'Gotham Rounded';-inkscape-font-specification:'Gotham Rounded';text-align:center;text-anchor:middle;fill:#cccccc;fill-opacity:1;stroke-width:0.26458329"
         id="path1484" />
      <path
         d="m 16.187661,232.57545 c 0,0.0792 0.06263,0.14182 0.141827,0.14182 0.0792,0 0.141827,-0.0626 0.141827,-0.14182 v -0.25603 h 0.215504 c 0.28918,0 0.521261,-0.15472 0.521261,-0.45311 v -0.004 c 0,-0.2634 -0.186033,-0.44575 -0.493632,-0.44575 h -0.38496 c -0.0792,0 -0.141827,0.0626 -0.141827,0.14183 z m 0.283654,-0.50837 v -0.39417 h 0.219188 c 0.141827,0 0.230239,0.0682 0.230239,0.19524 v 0.004 c 0,0.11051 -0.08289,0.19524 -0.224713,0.19524 z"
         style="font-style:normal;font-variant:normal;font-weight:normal;font-stretch:normal;font-family:'Gotham Rounded';-inkscape-font-specification:'Gotham Rounded';text-align:center;text-anchor:middle;fill:#cccccc;fill-opacity:1;stroke-width:0.26458329"
         id="path1486" />
    </g>
    <g
       aria-label="GAIN"
       style="font-style:normal;font-variant:normal;font-weight:normal;font-stretch:normal;font-size:1.84191251px;line-height:1.25;font-family:'Gotham Rounded';-inkscape-font-specification:'Gotham Rounded';text-align:center;letter-spacing:0px;word-spacing:0px;text-anchor:middle;fill:#cccccc;fill-opacity:1;stroke:none;stroke-width:0.26458329"
       id="text2173">
      <path
         d="m 3.253801,232.72831 c 0.1934008,0 0.3462795,-0.0645 0.4512685,-0.12893 0.068151,-0.0405 0.099463,-0.0976 0.099463,-0.18051 v -0.31313 c 0,-0.0792 -0.062625,-0.14182 -0.1418273,-0.14182 H 3.3385289 c -0.068151,0 -0.1234081,0.0553 -0.1234081,0.1234 0,0.0682 0.055257,0.12157 0.1234081,0.12157 h 0.1915589 v 0.18419 c -0.071835,0.0516 -0.1639302,0.0774 -0.2670773,0.0774 -0.2283971,0 -0.3904854,-0.17314 -0.3904854,-0.4089 v -0.004 c 0,-0.21918 0.1639302,-0.40153 0.3702244,-0.40153 0.1215662,0 0.2044523,0.0332 0.2818126,0.0884 0.020261,0.0147 0.046048,0.0295 0.08657,0.0295 0.07736,0 0.1399853,-0.0626 0.1399853,-0.13999 0,-0.0553 -0.031313,-0.0939 -0.058941,-0.11419 -0.1160405,-0.081 -0.2449743,-0.12525 -0.4402171,-0.12525 -0.3904854,0 -0.6759818,0.30023 -0.6759818,0.66677 v 0.004 c 0,0.38128 0.2762868,0.66309 0.6778238,0.66309 z"
         style="font-style:normal;font-variant:normal;font-weight:normal;font-stretch:normal;font-family:'Gotham Rounded';-inkscape-font-specification:'Gotham Rounded';text-align:center;text-anchor:middle;fill:#cccccc;fill-opacity:1;stroke-width:0.26458329"
         id="path1471" />
      <path
         d="m 3.9872563,232.58464 c 0,0.0737 0.057099,0.13262 0.1307758,0.13262 0.058941,0 0.1068309,-0.0332 0.1307758,-0.0884 l 0.090254,-0.21182 h 0.567309 l 0.08657,0.20261 c 0.025787,0.0589 0.069993,0.0976 0.1363016,0.0976 0.075518,0 0.1344596,-0.0608 0.1344596,-0.1363 0,-0.0184 -0.00553,-0.0368 -0.014735,-0.0571 l -0.4494267,-1.0149 c -0.031313,-0.07 -0.08657,-0.11235 -0.1639302,-0.11235 h -0.016577 c -0.07736,0 -0.1344596,0.0424 -0.1657721,0.11235 l -0.4494267,1.0149 c -0.00921,0.0203 -0.016577,0.0405 -0.016577,0.0608 z m 0.4567943,-0.41811 0.1786655,-0.42548 0.1786655,0.42548 z"
         style="font-style:normal;font-variant:normal;font-weight:normal;font-stretch:normal;font-family:'Gotham Rounded';-inkscape-font-specification:'Gotham Rounded';text-align:center;text-anchor:middle;fill:#cccccc;fill-opacity:1;stroke-width:0.26458329"
         id="path1473" />
      <path
         d="m 5.4987759,232.57543 c 0,0.0792 0.062625,0.14183 0.1418273,0.14183 0.079202,0 0.1418272,-0.0626 0.1418272,-0.14183 v -1.02779 c 0,-0.0792 -0.062625,-0.14182 -0.1418272,-0.14182 -0.079202,0 -0.1418273,0.0626 -0.1418273,0.14182 z"
         style="font-style:normal;font-variant:normal;font-weight:normal;font-stretch:normal;font-family:'Gotham Rounded';-inkscape-font-specification:'Gotham Rounded';text-align:center;text-anchor:middle;fill:#cccccc;fill-opacity:1;stroke-width:0.26458329"
         id="path1475" />
      <path
         d="m 6.1046498,232.57727 c 0,0.0774 0.062625,0.13999 0.1399853,0.13999 0.07736,0 0.1399854,-0.0626 0.1399854,-0.13999 v -0.69071 l 0.567309,0.74413 c 0.03868,0.0497 0.079202,0.0829 0.147353,0.0829 h 0.00921 c 0.079202,0 0.1418273,-0.0626 0.1418273,-0.14182 v -1.02595 c 0,-0.0774 -0.062625,-0.13998 -0.1399854,-0.13998 -0.07736,0 -0.1399853,0.0626 -0.1399853,0.13998 v 0.66493 l -0.547048,-0.71834 c -0.03868,-0.0497 -0.079202,-0.0829 -0.147353,-0.0829 h -0.029471 c -0.079202,0 -0.1418273,0.0626 -0.1418273,0.14183 z"
         style="font-style:normal;font-variant:normal;font-weight:normal;font-stretch:normal;font-family:'Gotham Rounded';-inkscape-font-specification:'Gotham Rounded';text-align:center;text-anchor:middle;fill:#cccccc;fill-opacity:1;stroke-width:0.26458329"
         id="path1477" />
    </g>
    <g
       aria-label="SOFTNESS"
       style="font-style:normal;font-variant:normal;font-weight:normal;font-stretch:normal;font-size:1.84191251px;line-height:1.25;font-family:'Gotham Rounded';-inkscape-font-specification:'Gotham Rounded';text-align:center;letter-spacing:0px;word-spacing:0px;text-anchor:middle;fill:#cccccc;fill-opacity:1;stroke:none;stroke-width:0.26458329"
       id="text2177">
      <path
         d="m 5.4926017,253.87358 c 0.2781288,0 0.4733715,-0.14367 0.4733715,-0.39969 v -0.004 c 0,-0.22471 -0.147353,-0.31865 -0.4089046,-0.3868 -0.2228714,-0.0571 -0.2781288,-0.0847 -0.2781288,-0.16945 v -0.004 c 0,-0.0626 0.057099,-0.11235 0.1657722,-0.11235 0.088412,0 0.1768236,0.0313 0.2707611,0.0866 0.022103,0.0129 0.044206,0.0203 0.071835,0.0203 0.073676,0 0.1326177,-0.0571 0.1326177,-0.13078 0,-0.0553 -0.031313,-0.0939 -0.062625,-0.11236 -0.1160405,-0.0737 -0.252342,-0.11419 -0.4089046,-0.11419 -0.2633935,0 -0.4512686,0.15472 -0.4512686,0.38864 v 0.004 c 0,0.25603 0.1676141,0.32786 0.4273237,0.39417 0.2155038,0.0553 0.2597097,0.0921 0.2597097,0.16393 v 0.004 c 0,0.0755 -0.069993,0.12156 -0.1860332,0.12156 -0.12525,0 -0.2320809,-0.0442 -0.3297023,-0.11604 -0.018419,-0.0129 -0.044206,-0.0258 -0.081044,-0.0258 -0.073677,0 -0.1326177,0.0571 -0.1326177,0.13077 0,0.0442 0.022103,0.0847 0.053415,0.10683 0.1436692,0.10315 0.314967,0.15472 0.484423,0.15472 z"
         style="font-style:normal;font-variant:normal;font-weight:normal;font-stretch:normal;font-family:'Gotham Rounded';-inkscape-font-specification:'Gotham Rounded';text-align:center;text-anchor:middle;fill:#cccccc;fill-opacity:1;stroke-width:0.26458329"
         id="path1507" />
      <path
         d="m 6.8401909,253.87727 c 0.3978531,0 0.6870333,-0.30024 0.6870333,-0.66678 v -0.004 c 0,-0.36654 -0.2854964,-0.66309 -0.6833495,-0.66309 -0.3978531,0 -0.6870334,0.30023 -0.6870334,0.66677 v 0.004 c 0,0.36654 0.2854965,0.66309 0.6833496,0.66309 z m 0.00368,-0.26156 c -0.2283971,0 -0.3904854,-0.18419 -0.3904854,-0.40522 v -0.004 c 0,-0.22103 0.1584044,-0.40154 0.3868016,-0.40154 0.2283971,0 0.3904854,0.18419 0.3904854,0.40522 v 0.004 c 0,0.22103 -0.1584044,0.40153 -0.3868016,0.40153 z"
         style="font-style:normal;font-variant:normal;font-weight:normal;font-stretch:normal;font-family:'Gotham Rounded';-inkscape-font-specification:'Gotham Rounded';text-align:center;text-anchor:middle;fill:#cccccc;fill-opacity:1;stroke-width:0.26458329"
         id="path1509" />
      <path
         d="m 7.7788466,253.72439 c 0,0.0792 0.062625,0.14183 0.1418273,0.14183 0.079202,0 0.1418273,-0.0626 0.1418273,-0.14183 v -0.36838 h 0.4973163 c 0.071835,0 0.1289339,-0.0571 0.1289339,-0.12894 0,-0.0718 -0.057099,-0.12893 -0.1289339,-0.12893 H 8.0625012 v -0.27445 h 0.5802024 c 0.071835,0 0.1289339,-0.0571 0.1289339,-0.12893 0,-0.0718 -0.057099,-0.12894 -0.1289339,-0.12894 H 7.9206739 c -0.079202,0 -0.1418273,0.0626 -0.1418273,0.14183 z"
         style="font-style:normal;font-variant:normal;font-weight:normal;font-stretch:normal;font-family:'Gotham Rounded';-inkscape-font-specification:'Gotham Rounded';text-align:center;text-anchor:middle;fill:#cccccc;fill-opacity:1;stroke-width:0.26458329"
         id="path1511" />
      <path
         d="m 9.2878336,253.72439 c 0,0.0792 0.062625,0.14183 0.1418273,0.14183 0.079202,0 0.1418273,-0.0626 0.1418273,-0.14183 v -0.89701 h 0.272603 c 0.071835,0 0.1307758,-0.0589 0.1307758,-0.13078 0,-0.0718 -0.058941,-0.13078 -0.1307758,-0.13078 H 9.0152306 c -0.071835,0 -0.1307758,0.059 -0.1307758,0.13078 0,0.0718 0.058941,0.13078 0.1307758,0.13078 h 0.272603 z"
         style="font-style:normal;font-variant:normal;font-weight:normal;font-stretch:normal;font-family:'Gotham Rounded';-inkscape-font-specification:'Gotham Rounded';text-align:center;text-anchor:middle;fill:#cccccc;fill-opacity:1;stroke-width:0.26458329"
         id="path1513" />
      <path
         d="m 10.181967,253.72623 c 0,0.0774 0.06263,0.13999 0.139985,0.13999 0.07736,0 0.139986,-0.0626 0.139986,-0.13999 v -0.69072 l 0.567309,0.74414 c 0.03868,0.0497 0.0792,0.0829 0.147353,0.0829 h 0.0092 c 0.0792,0 0.141828,-0.0626 0.141828,-0.14183 v -1.02594 c 0,-0.0774 -0.06262,-0.13999 -0.139986,-0.13999 -0.07736,0 -0.139985,0.0626 -0.139985,0.13999 v 0.66493 l -0.547048,-0.71835 c -0.03868,-0.0497 -0.0792,-0.0829 -0.147353,-0.0829 h -0.02947 c -0.0792,0 -0.141827,0.0626 -0.141827,0.14182 z"
         style="font-style:normal;font-variant:normal;font-weight:normal;font-stretch:normal;font-family:'Gotham Rounded';-inkscape-font-specification:'Gotham Rounded';text-align:center;text-anchor:middle;fill:#cccccc;fill-opacity:1;stroke-width:0.26458329"
         id="path1515" />
      <path
         d="m 11.777178,253.85516 h 0.723872 c 0.06999,0 0.127092,-0.0553 0.127092,-0.12525 0,-0.07 -0.0571,-0.12709 -0.127092,-0.12709 h -0.583886 v -0.27076 h 0.49179 c 0.06999,0 0.127092,-0.0553 0.127092,-0.12525 0,-0.07 -0.0571,-0.12709 -0.127092,-0.12709 h -0.49179 v -0.26155 h 0.574676 c 0.06999,0 0.127092,-0.0553 0.127092,-0.12525 0,-0.07 -0.0571,-0.1271 -0.127092,-0.1271 h -0.714662 c -0.0792,0 -0.141827,0.0626 -0.141827,0.14183 v 1.00569 c 0,0.0792 0.06263,0.14182 0.141827,0.14182 z"
         style="font-style:normal;font-variant:normal;font-weight:normal;font-stretch:normal;font-family:'Gotham Rounded';-inkscape-font-specification:'Gotham Rounded';text-align:center;text-anchor:middle;fill:#cccccc;fill-opacity:1;stroke-width:0.26458329"
         id="path1517" />
      <path
         d="m 13.327925,253.87358 c 0.278129,0 0.473372,-0.14367 0.473372,-0.39969 v -0.004 c 0,-0.22471 -0.147353,-0.31865 -0.408905,-0.3868 -0.222871,-0.0571 -0.278129,-0.0847 -0.278129,-0.16945 v -0.004 c 0,-0.0626 0.0571,-0.11235 0.165772,-0.11235 0.08841,0 0.176824,0.0313 0.270761,0.0866 0.0221,0.0129 0.04421,0.0203 0.07184,0.0203 0.07368,0 0.132618,-0.0571 0.132618,-0.13078 0,-0.0553 -0.03131,-0.0939 -0.06262,-0.11236 -0.116041,-0.0737 -0.252342,-0.11419 -0.408905,-0.11419 -0.263393,0 -0.451268,0.15472 -0.451268,0.38864 v 0.004 c 0,0.25603 0.167614,0.32786 0.427323,0.39417 0.215504,0.0553 0.25971,0.0921 0.25971,0.16393 v 0.004 c 0,0.0755 -0.06999,0.12156 -0.186033,0.12156 -0.12525,0 -0.232081,-0.0442 -0.329703,-0.11604 -0.01842,-0.0129 -0.0442,-0.0258 -0.08104,-0.0258 -0.07368,0 -0.132617,0.0571 -0.132617,0.13077 0,0.0442 0.0221,0.0847 0.05342,0.10683 0.143669,0.10315 0.314967,0.15472 0.484423,0.15472 z"
         style="font-style:normal;font-variant:normal;font-weight:normal;font-stretch:normal;font-family:'Gotham Rounded';-inkscape-font-specification:'Gotham Rounded';text-align:center;text-anchor:middle;fill:#cccccc;fill-opacity:1;stroke-width:0.26458329"
         id="path1519" />
      <path
         d="m 14.489912,253.87358 c 0.278129,0 0.473372,-0.14367 0.473372,-0.39969 v -0.004 c 0,-0.22471 -0.147353,-0.31865 -0.408905,-0.3868 -0.222871,-0.0571 -0.278129,-0.0847 -0.278129,-0.16945 v -0.004 c 0,-0.0626 0.0571,-0.11235 0.165773,-0.11235 0.08841,0 0.176823,0.0313 0.270761,0.0866 0.0221,0.0129 0.04421,0.0203 0.07183,0.0203 0.07368,0 0.132618,-0.0571 0.132618,-0.13078 0,-0.0553 -0.03131,-0.0939 -0.06263,-0.11236 -0.11604,-0.0737 -0.252342,-0.11419 -0.408905,-0.11419 -0.263393,0 -0.451268,0.15472 -0.451268,0.38864 v 0.004 c 0,0.25603 0.167614,0.32786 0.427324,0.39417 0.215503,0.0553 0.259709,0.0921 0.259709,0.16393 v 0.004 c 0,0.0755 -0.06999,0.12156 -0.186033,0.12156 -0.12525,0 -0.232081,-0.0442 -0.329702,-0.11604 -0.01842,-0.0129 -0.04421,-0.0258 -0.08104,-0.0258 -0.07368,0 -0.132618,0.0571 -0.132618,0.13077 0,0.0442 0.0221,0.0847 0.05342,0.10683 0.14367,0.10315 0.314967,0.15472 0.484423,0.15472 z"
         style="font-style:normal;font-variant:normal;font-weight:normal;font-stretch:normal;font-family:'Gotham Rounded';-inkscape-font-specification:'Gotham Rounded';text-align:center;text-anchor:middle;fill:#cccccc;fill-opacity:1;stroke-width:0.26458329"
         id="path1521" />
    </g>
    <g
       transform="translate(-3.968747,3.5396203e-6)"
       id="g2135">
      <rect
         style="opacity:1;fill:#000000;fill-opacity:0.37647059;stroke:none;stroke-width:0.32900003;stroke-linecap:round;stroke-linejoin:round;stroke-miterlimit:4;stroke-dasharray:none;stroke-dashoffset:0;stroke-opacity:1"
         id="rect2131"
         width="4.4979172"
         height="2.3812449"
         x="15.610415"
         y="197.25208"
         rx="1.1906224"
         ry="1.1906224" />
      <path
         inkscape:connector-curvature="0"
         style="opacity:1;fill:#ffffff;fill-opacity:0.0627451;stroke:none;stroke-width:0.32900003;stroke-linecap:round;stroke-linejoin:round;stroke-miterlimit:4;stroke-dasharray:none;stroke-dashoffset:0;stroke-opacity:1"
         d="m 15.623851,198.57499 c -0.0049,0.044 -0.01344,0.0869 -0.01344,0.13229 0,0.6596 0.53102,1.19062 1.190624,1.19062 h 2.116667 c 0.659605,0 1.190625,-0.53102 1.190625,-1.19062 0,-0.0454 -0.0085,-0.0882 -0.01344,-0.13229 -0.06629,0.59595 -0.562979,1.05833 -1.177189,1.05833 h -2.116662 c -0.61421,0 -1.110904,-0.46238 -1.177189,-1.05833 z"
         id="path2133" />
    </g>
    <g
       id="g2151"
       transform="translate(-11.906255,3.5396203e-6)">
      <rect
         ry="1.1906224"
         rx="1.1906224"
         y="197.25208"
         x="15.610415"
         height="2.3812449"
         width="4.4979172"
         id="rect2147"
         style="opacity:1;fill:#000000;fill-opacity:0.37647059;stroke:none;stroke-width:0.32900003;stroke-linecap:round;stroke-linejoin:round;stroke-miterlimit:4;stroke-dasharray:none;stroke-dashoffset:0;stroke-opacity:1" />
      <path
         id="path2149"
         d="m 15.623851,198.57499 c -0.0049,0.044 -0.01344,0.0869 -0.01344,0.13229 0,0.6596 0.53102,1.19062 1.190624,1.19062 h 2.116667 c 0.659605,0 1.190625,-0.53102 1.190625,-1.19062 0,-0.0454 -0.0085,-0.0882 -0.01344,-0.13229 -0.06629,0.59595 -0.562979,1.05833 -1.177189,1.05833 h -2.116662 c -0.61421,0 -1.110904,-0.46238 -1.177189,-1.05833 z"
         style="opacity:1;fill:#ffffff;fill-opacity:0.0627451;stroke:none;stroke-width:0.32900003;stroke-linecap:round;stroke-linejoin:round;stroke-miterlimit:4;stroke-dasharray:none;stroke-dashoffset:0;stroke-opacity:1"
         inkscape:connector-curvature="0" />
    </g>
    <g
       id="g2167"
       transform="translate(-3.968747,96.57291)">
      <rect
         ry="1.1906224"
         rx="1.1906224"
         y="197.25208"
         x="15.610415"
         height="2.3812449"
         width="4.4979172"
         id="rect2163"
         style="opacity:1;fill:#000000;fill-opacity:0.37647059;stroke:none;stroke-width:0.32900003;stroke-linecap:round;stroke-linejoin:round;stroke-miterlimit:4;stroke-dasharray:none;stroke-dashoffset:0;stroke-opacity:1" />
      <path
         id="path2165"
         d="m 15.623851,198.57499 c -0.0049,0.044 -0.01344,0.0869 -0.01344,0.13229 0,0.6596 0.53102,1.19062 1.190624,1.19062 h 2.116667 c 0.659605,0 1.190625,-0.53102 1.190625,-1.19062 0,-0.0454 -0.0085,-0.0882 -0.01344,-0.13229 -0.06629,0.59595 -0.562979,1.05833 -1.177189,1.05833 h -2.116662 c -0.61421,0 -1.110904,-0.46238 -1.177189,-1.05833 z"
         style="opacity:1;fill:#ffffff;fill-opacity:0.0627451;stroke:none;stroke-width:0.32900003;stroke-linecap:round;stroke-linejoin:round;stroke-miterlimit:4;stroke-dasharray:none;stroke-dashoffset:0;stroke-opacity:1"
         inkscape:connector-curvature="0" />
    </g>
    <g
       transform="translate(-11.906255,96.57291)"
       id="g2183">
      <rect
         style="opacity:1;fill:#000000;fill-opacity:0.37647059;stroke:none;stroke-width:0.32900003;stroke-linecap:round;stroke-linejoin:round;stroke-miterlimit:4;stroke-dasharray:none;stroke-dashoffset:0;stroke-opacity:1"
         id="rect2179"
         width="4.4979172"
         height="2.3812449"
         x="15.610415"
         y="197.25208"
         rx="1.1906224"
         ry="1.1906224" />
      <path
         inkscape:connector-curvature="0"
         style="opacity:1;fill:#ffffff;fill-opacity:0.0627451;stroke:none;stroke-width:0.32900003;stroke-linecap:round;stroke-linejoin:round;stroke-miterlimit:4;stroke-dasharray:none;stroke-dashoffset:0;stroke-opacity:1"
         d="m 15.623851,198.57499 c -0.0049,0.044 -0.01344,0.0869 -0.01344,0.13229 0,0.6596 0.53102,1.19062 1.190624,1.19062 h 2.116667 c 0.659605,0 1.190625,-0.53102 1.190625,-1.19062 0,-0.0454 -0.0085,-0.0882 -0.01344,-0.13229 -0.06629,0.59595 -0.562979,1.05833 -1.177189,1.05833 h -2.116662 c -0.61421,0 -1.110904,-0.46238 -1.177189,-1.05833 z"
         id="path2181" />
    </g>
  </g>
</svg>
