<?xml version="1.0" encoding="UTF-8" standalone="no"?>
<!-- Created with Inkscape (http://www.inkscape.org/) -->

<svg
   xmlns:dc="http://purl.org/dc/elements/1.1/"
   xmlns:cc="http://creativecommons.org/ns#"
   xmlns:rdf="http://www.w3.org/1999/02/22-rdf-syntax-ns#"
   xmlns:svg="http://www.w3.org/2000/svg"
   xmlns="http://www.w3.org/2000/svg"
   xmlns:sodipodi="http://sodipodi.sourceforge.net/DTD/sodipodi-0.dtd"
   xmlns:inkscape="http://www.inkscape.org/namespaces/inkscape"
   width="75"
   height="380"
   viewBox="0 0 19.843751 100.54167"
   version="1.1"
   id="svg8"
   inkscape:version="0.92.3 (2405546, 2018-03-11)"
   sodipodi:docname="SH-8.svg">
  <defs
     id="defs2">
    <clipPath
       clipPathUnits="userSpaceOnUse"
       id="clipPath1763">
      <path
         inkscape:connector-curvature="0"
         id="path1765"
         d="M 0,196.45831 H 23.8125 V 296.99999 H 0 Z"
         style="opacity:1;vector-effect:none;fill:#28220b;fill-opacity:1;fill-rule:evenodd;stroke:none;stroke-width:0.48607069;stroke-linecap:butt;stroke-linejoin:round;stroke-miterlimit:4;stroke-dasharray:none;stroke-dashoffset:0;stroke-opacity:1;paint-order:normal" />
    </clipPath>
    <clipPath
       clipPathUnits="userSpaceOnUse"
       id="clipPath3293">
      <path
         style="opacity:1;vector-effect:none;fill:#28220b;fill-opacity:1;fill-rule:evenodd;stroke:none;stroke-width:0.48607066;stroke-linecap:butt;stroke-linejoin:round;stroke-miterlimit:4;stroke-dasharray:none;stroke-dashoffset:0;stroke-opacity:1;paint-order:normal"
         d="M -1.5460537e-7,196.45831 H 19.843751 V 296.99999 H -1.5460537e-7 Z"
         id="path3295"
         inkscape:connector-curvature="0" />
    </clipPath>
  </defs>
  <sodipodi:namedview
     id="base"
     pagecolor="#ffffff"
     bordercolor="#666666"
     borderopacity="1.0"
     inkscape:pageopacity="0.0"
     inkscape:pageshadow="2"
     inkscape:zoom="2"
     inkscape:cx="-36.887119"
     inkscape:cy="255.4835"
     inkscape:document-units="mm"
     inkscape:current-layer="layer1"
     showgrid="false"
     units="px"
     inkscape:snap-bbox="true"
     inkscape:snap-page="true"
     inkscape:bbox-nodes="true"
     inkscape:snap-bbox-edge-midpoints="true"
     inkscape:window-width="1663"
     inkscape:window-height="1463"
     inkscape:window-x="1738"
     inkscape:window-y="488"
     inkscape:window-maximized="0"
     showguides="true"
     inkscape:guide-bbox="true"
     inkscape:snap-global="false">
    <inkscape:grid
       type="xygrid"
       id="grid985" />
  </sodipodi:namedview>
  <metadata
     id="metadata5">
    <rdf:RDF>
      <cc:Work
         rdf:about="">
        <dc:format>image/svg+xml</dc:format>
        <dc:type
           rdf:resource="http://purl.org/dc/dcmitype/StillImage" />
        <dc:title />
      </cc:Work>
    </rdf:RDF>
  </metadata>
  <g
     inkscape:label="Layer 1"
     inkscape:groupmode="layer"
     id="layer1"
     transform="translate(0,-196.45832)">
    <path
       style="opacity:1;vector-effect:none;fill:#202321;fill-opacity:1;fill-rule:evenodd;stroke:none;stroke-width:0.48607066;stroke-linecap:butt;stroke-linejoin:round;stroke-miterlimit:4;stroke-dasharray:none;stroke-dashoffset:0;stroke-opacity:1;paint-order:normal"
       d="M -3e-6,196.45831 H 19.843746 V 296.99998 H -3e-6 Z"
       id="path2127"
       inkscape:connector-curvature="0" />
    <path
       style="color:#000000;font-style:normal;font-variant:normal;font-weight:normal;font-stretch:normal;font-size:medium;line-height:normal;font-family:sans-serif;font-variant-ligatures:normal;font-variant-position:normal;font-variant-caps:normal;font-variant-numeric:normal;font-variant-alternates:normal;font-feature-settings:normal;text-indent:0;text-align:start;text-decoration:none;text-decoration-line:none;text-decoration-style:solid;text-decoration-color:#000000;letter-spacing:normal;word-spacing:normal;text-transform:none;writing-mode:lr-tb;direction:ltr;text-orientation:mixed;dominant-baseline:auto;baseline-shift:baseline;text-anchor:start;white-space:normal;shape-padding:0;clip-rule:nonzero;display:inline;overflow:visible;visibility:visible;opacity:1;isolation:auto;mix-blend-mode:normal;color-interpolation:sRGB;color-interpolation-filters:linearRGB;solid-color:#000000;solid-opacity:1;vector-effect:none;fill:#808080;fill-opacity:1;fill-rule:evenodd;stroke:none;stroke-width:0.49314609;stroke-linecap:butt;stroke-linejoin:bevel;stroke-miterlimit:0;stroke-dasharray:none;stroke-dashoffset:0;stroke-opacity:1;color-rendering:auto;image-rendering:auto;shape-rendering:auto;text-rendering:auto;enable-background:accumulate"
       d="m 9.2861979,290.04688 c -0.4632482,0.29295 -0.9973403,0.49324 -1.4804687,0.60546 -0.6896659,0.15779 -1.4645622,0.22371 -1.9355469,0.12696 l -0.097656,0.48242 c 0.4029035,0.0828 0.9368652,0.0452 1.3536698,-0.0109 -0.082472,0.072 -0.1193603,0.14668 -0.1466381,0.25312 -0.025366,0.14223 0.04517,0.29972 0.1445313,0.39257 0.1027938,0.0961 0.2117928,0.11714 0.3222656,0.13086 0.1104728,0.0137 0.23008,0.0116 0.3613281,0 0.2624963,-0.0232 0.5709931,-0.0858 0.8886719,-0.17968 L 8.5576823,291.375 c -0.2918854,0.0863 -0.5772582,0.14302 -0.7929687,0.16211 -0.491867,0.0681 0.1512501,-0.27434 0.261849,-0.32748 0.4909844,-0.29468 0.9791895,-0.452 1.5057291,-0.7486 0.019699,-0.0154 0.055717,-0.0233 0.074219,-0.0391 l -0.00391,-0.004 c 0.00512,-0.005 0.016496,-0.007 0.021484,-0.0117 z"
       id="path2197"
       inkscape:connector-curvature="0"
       sodipodi:nodetypes="ccccccccsccccccccc" />
    <path
       style="color:#000000;font-style:normal;font-variant:normal;font-weight:normal;font-stretch:normal;font-size:medium;line-height:normal;font-family:sans-serif;font-variant-ligatures:normal;font-variant-position:normal;font-variant-caps:normal;font-variant-numeric:normal;font-variant-alternates:normal;font-feature-settings:normal;text-indent:0;text-align:start;text-decoration:none;text-decoration-line:none;text-decoration-style:solid;text-decoration-color:#000000;letter-spacing:normal;word-spacing:normal;text-transform:none;writing-mode:lr-tb;direction:ltr;text-orientation:mixed;dominant-baseline:auto;baseline-shift:baseline;text-anchor:start;white-space:normal;shape-padding:0;clip-rule:nonzero;display:inline;overflow:visible;visibility:visible;opacity:1;isolation:auto;mix-blend-mode:normal;color-interpolation:sRGB;color-interpolation-filters:linearRGB;solid-color:#000000;solid-opacity:1;vector-effect:none;fill:#808080;fill-opacity:1;fill-rule:evenodd;stroke:none;stroke-width:0.50924712;stroke-linecap:butt;stroke-linejoin:bevel;stroke-miterlimit:0;stroke-dasharray:none;stroke-dashoffset:0;stroke-opacity:1;color-rendering:auto;image-rendering:auto;shape-rendering:auto;text-rendering:auto;enable-background:accumulate"
       d="m 11.860417,290.03125 c -0.458554,0.56925 -0.366259,1.23588 0.01758,1.60547 0.383837,0.36959 1.02764,0.47704 1.56836,0.13086 l -0.275391,-0.42969 c -0.348402,0.22306 -0.723153,0.13991 -0.939453,-0.0684 -0.127484,-0.12275 -0.236438,-0.41201 -0.133456,-0.63455 0.06797,0.16568 0.341491,0.36531 0.48307,0.43338 0.315985,0.15193 0.687393,0.18415 1.085938,0.10352 l -0.101563,-0.5 c -0.314756,0.0637 -0.560007,0.0354 -0.763672,-0.0625 -0.203664,-0.0979 -0.375999,-0.2702 -0.517578,-0.53711 z"
       id="path2199"
       inkscape:connector-curvature="0"
       sodipodi:nodetypes="cccccccccccc" />
    <path
       style="color:#000000;font-style:normal;font-variant:normal;font-weight:normal;font-stretch:normal;font-size:medium;line-height:normal;font-family:sans-serif;font-variant-ligatures:normal;font-variant-position:normal;font-variant-caps:normal;font-variant-numeric:normal;font-variant-alternates:normal;font-feature-settings:normal;text-indent:0;text-align:start;text-decoration:none;text-decoration-line:none;text-decoration-style:solid;text-decoration-color:#000000;letter-spacing:normal;word-spacing:normal;text-transform:none;writing-mode:lr-tb;direction:ltr;text-orientation:mixed;dominant-baseline:auto;baseline-shift:baseline;text-anchor:start;white-space:normal;shape-padding:0;clip-rule:nonzero;display:inline;overflow:visible;visibility:visible;opacity:1;isolation:auto;mix-blend-mode:normal;color-interpolation:sRGB;color-interpolation-filters:linearRGB;solid-color:#000000;solid-opacity:1;vector-effect:none;fill:#808080;fill-opacity:1;fill-rule:evenodd;stroke:none;stroke-width:0.49314609;stroke-linecap:butt;stroke-linejoin:bevel;stroke-miterlimit:0;stroke-dasharray:none;stroke-dashoffset:0;stroke-opacity:1;color-rendering:auto;image-rendering:auto;shape-rendering:auto;text-rendering:auto;enable-background:accumulate"
       d="m 10.952214,289.89062 c -0.395654,0.44445 -1.1953873,1.271 -2.4375004,1.49024 l 0.085937,0.48633 c 0.2540111,-0.0448 0.429385,-0.13147 0.6499185,-0.21384 l 0.1625815,0.33298 c 0.2685338,-0.10614 0.6288264,-0.20537 0.9609384,-0.23047 0.332112,-0.0251 0.621187,0.03 0.781249,0.16211 l 0.314454,-0.38086 c -0.313886,-0.25899 -0.732633,-0.30368 -1.132814,-0.27344 -0.06789,0.005 -0.120217,0.0355 -0.1875,0.0449 0.454478,-0.37479 0.900489,-0.75227 1.193363,-1.11924 z"
       id="path2201"
       inkscape:connector-curvature="0"
       sodipodi:nodetypes="cccccscccccc" />
    <g
       transform="translate(-3.968747,3.5396203e-6)"
       id="g2135">
      <rect
         style="opacity:1;fill:#000000;fill-opacity:0.37647059;stroke:none;stroke-width:0.32900003;stroke-linecap:round;stroke-linejoin:round;stroke-miterlimit:4;stroke-dasharray:none;stroke-dashoffset:0;stroke-opacity:1"
         id="rect2131"
         width="4.4979172"
         height="2.3812449"
         x="15.610415"
         y="197.25208"
         rx="1.1906224"
         ry="1.1906224" />
      <path
         inkscape:connector-curvature="0"
         style="opacity:1;fill:#ffffff;fill-opacity:0.0627451;stroke:none;stroke-width:0.32900003;stroke-linecap:round;stroke-linejoin:round;stroke-miterlimit:4;stroke-dasharray:none;stroke-dashoffset:0;stroke-opacity:1"
         d="m 15.623851,198.57499 c -0.0049,0.044 -0.01344,0.0869 -0.01344,0.13229 0,0.6596 0.53102,1.19062 1.190624,1.19062 h 2.116667 c 0.659605,0 1.190625,-0.53102 1.190625,-1.19062 0,-0.0454 -0.0085,-0.0882 -0.01344,-0.13229 -0.06629,0.59595 -0.562979,1.05833 -1.177189,1.05833 h -2.116662 c -0.61421,0 -1.110904,-0.46238 -1.177189,-1.05833 z"
         id="path2133" />
    </g>
    <g
       id="g2151"
       transform="translate(-11.906255,3.5396203e-6)">
      <rect
         ry="1.1906224"
         rx="1.1906224"
         y="197.25208"
         x="15.610415"
         height="2.3812449"
         width="4.4979172"
         id="rect2147"
         style="opacity:1;fill:#000000;fill-opacity:0.37647059;stroke:none;stroke-width:0.32900003;stroke-linecap:round;stroke-linejoin:round;stroke-miterlimit:4;stroke-dasharray:none;stroke-dashoffset:0;stroke-opacity:1" />
      <path
         id="path2149"
         d="m 15.623851,198.57499 c -0.0049,0.044 -0.01344,0.0869 -0.01344,0.13229 0,0.6596 0.53102,1.19062 1.190624,1.19062 h 2.116667 c 0.659605,0 1.190625,-0.53102 1.190625,-1.19062 0,-0.0454 -0.0085,-0.0882 -0.01344,-0.13229 -0.06629,0.59595 -0.562979,1.05833 -1.177189,1.05833 h -2.116662 c -0.61421,0 -1.110904,-0.46238 -1.177189,-1.05833 z"
         style="opacity:1;fill:#ffffff;fill-opacity:0.0627451;stroke:none;stroke-width:0.32900003;stroke-linecap:round;stroke-linejoin:round;stroke-miterlimit:4;stroke-dasharray:none;stroke-dashoffset:0;stroke-opacity:1"
         inkscape:connector-curvature="0" />
    </g>
    <g
       id="g2167"
       transform="translate(-3.968747,96.57291)">
      <rect
         ry="1.1906224"
         rx="1.1906224"
         y="197.25208"
         x="15.610415"
         height="2.3812449"
         width="4.4979172"
         id="rect2163"
         style="opacity:1;fill:#000000;fill-opacity:0.37647059;stroke:none;stroke-width:0.32900003;stroke-linecap:round;stroke-linejoin:round;stroke-miterlimit:4;stroke-dasharray:none;stroke-dashoffset:0;stroke-opacity:1" />
      <path
         id="path2165"
         d="m 15.623851,198.57499 c -0.0049,0.044 -0.01344,0.0869 -0.01344,0.13229 0,0.6596 0.53102,1.19062 1.190624,1.19062 h 2.116667 c 0.659605,0 1.190625,-0.53102 1.190625,-1.19062 0,-0.0454 -0.0085,-0.0882 -0.01344,-0.13229 -0.06629,0.59595 -0.562979,1.05833 -1.177189,1.05833 h -2.116662 c -0.61421,0 -1.110904,-0.46238 -1.177189,-1.05833 z"
         style="opacity:1;fill:#ffffff;fill-opacity:0.0627451;stroke:none;stroke-width:0.32900003;stroke-linecap:round;stroke-linejoin:round;stroke-miterlimit:4;stroke-dasharray:none;stroke-dashoffset:0;stroke-opacity:1"
         inkscape:connector-curvature="0" />
    </g>
    <g
       transform="translate(-11.906255,96.57291)"
       id="g2183">
      <rect
         style="opacity:1;fill:#000000;fill-opacity:0.37647059;stroke:none;stroke-width:0.32900003;stroke-linecap:round;stroke-linejoin:round;stroke-miterlimit:4;stroke-dasharray:none;stroke-dashoffset:0;stroke-opacity:1"
         id="rect2179"
         width="4.4979172"
         height="2.3812449"
         x="15.610415"
         y="197.25208"
         rx="1.1906224"
         ry="1.1906224" />
      <path
         inkscape:connector-curvature="0"
         style="opacity:1;fill:#ffffff;fill-opacity:0.0627451;stroke:none;stroke-width:0.32900003;stroke-linecap:round;stroke-linejoin:round;stroke-miterlimit:4;stroke-dasharray:none;stroke-dashoffset:0;stroke-opacity:1"
         d="m 15.623851,198.57499 c -0.0049,0.044 -0.01344,0.0869 -0.01344,0.13229 0,0.6596 0.53102,1.19062 1.190624,1.19062 h 2.116667 c 0.659605,0 1.190625,-0.53102 1.190625,-1.19062 0,-0.0454 -0.0085,-0.0882 -0.01344,-0.13229 -0.06629,0.59595 -0.562979,1.05833 -1.177189,1.05833 h -2.116662 c -0.61421,0 -1.110904,-0.46238 -1.177189,-1.05833 z"
         id="path2181" />
    </g>
    <g
       aria-label="SH-8"
       style="font-style:normal;font-variant:normal;font-weight:bold;font-stretch:normal;font-size:3.33291769px;line-height:1.25;font-family:'Gotham Rounded';-inkscape-font-specification:'Gotham Rounded Bold';letter-spacing:0px;word-spacing:0px;fill:#cccccc;fill-opacity:1;stroke:none;stroke-width:0.26458332"
       id="text3665">
      <path
         d="m 7.0015464,204.01499 c 0.5032705,0 0.8565598,-0.25997 0.8565598,-0.72325 v -0.007 c 0,-0.40662 -0.2666334,-0.5766 -0.7399077,-0.69991 -0.403283,-0.10332 -0.5032706,-0.15332 -0.5032706,-0.30663 v -0.007 c 0,-0.11332 0.1033205,-0.20331 0.2999626,-0.20331 0.1599801,0 0.3199601,0.0567 0.4899389,0.15665 0.039995,0.0233 0.07999,0.0367 0.1299838,0.0367 0.1333167,0 0.2399701,-0.10332 0.2399701,-0.23663 0,-0.1 -0.05666,-0.16998 -0.1133192,-0.20331 -0.2099738,-0.13332 -0.4566097,-0.20664 -0.7399077,-0.20664 -0.4766073,0 -0.8165649,0.27996 -0.8165649,0.70324 v 0.007 c 0,0.46327 0.3032955,0.59326 0.7732369,0.71324 0.3899514,0.1 0.4699414,0.16665 0.4699414,0.29663 v 0.007 c 0,0.13665 -0.1266509,0.21997 -0.3366247,0.21997 -0.2266384,0 -0.4199476,-0.08 -0.5965922,-0.20997 -0.033329,-0.0233 -0.07999,-0.0467 -0.1466484,-0.0467 -0.1333167,0 -0.2399701,0.10332 -0.2399701,0.23663 0,0.08 0.039995,0.15332 0.096655,0.19331 0.2599676,0.18665 0.5699289,0.27997 0.8765574,0.27997 z"
         style="font-style:normal;font-variant:normal;font-weight:bold;font-stretch:normal;font-family:'Gotham Rounded';-inkscape-font-specification:'Gotham Rounded Bold';text-align:center;text-anchor:middle;fill:#cccccc;fill-opacity:1;stroke-width:0.26458332"
         id="path1105" />
      <path
         d="m 8.3068003,203.74502 c 0,0.14332 0.1133192,0.25664 0.2566347,0.25664 0.1433154,0 0.2566346,-0.11332 0.2566346,-0.25664 v -0.69991 h 0.9465487 v 0.69991 c 0,0.14332 0.1133192,0.25664 0.2566347,0.25664 0.143315,0 0.256635,-0.11332 0.256635,-0.25664 v -1.85977 c 0,-0.14331 -0.11332,-0.25663 -0.256635,-0.25663 -0.1433155,0 -0.2566347,0.11332 -0.2566347,0.25663 v 0.68658 H 8.8200696 v -0.68658 c 0,-0.14331 -0.1133192,-0.25663 -0.2566346,-0.25663 -0.1433155,0 -0.2566347,0.11332 -0.2566347,0.25663 z"
         style="font-style:normal;font-variant:normal;font-weight:bold;font-stretch:normal;font-family:'Gotham Rounded';-inkscape-font-specification:'Gotham Rounded Bold';text-align:center;text-anchor:middle;fill:#cccccc;fill-opacity:1;stroke-width:0.26458332"
         id="path1107" />
      <path
         d="m 10.949023,203.19176 h 0.579928 c 0.133317,0 0.243303,-0.10999 0.243303,-0.24331 0,-0.13331 -0.109986,-0.2433 -0.243303,-0.2433 h -0.579928 c -0.133317,0 -0.243303,0.10999 -0.243303,0.2433 0,0.13332 0.109986,0.24331 0.243303,0.24331 z"
         style="font-style:normal;font-variant:normal;font-weight:bold;font-stretch:normal;font-family:'Gotham Rounded';-inkscape-font-specification:'Gotham Rounded Bold';text-align:center;text-anchor:middle;fill:#cccccc;fill-opacity:1;stroke-width:0.26458332"
         id="path1109" />
      <path
         d="m 12.969448,204.01499 c 0.516602,0 0.899888,-0.2533 0.899888,-0.68658 v -0.007 c 0,-0.27663 -0.139983,-0.42661 -0.37662,-0.54993 0.179978,-0.10999 0.29663,-0.25997 0.29663,-0.50994 v -0.007 c 0,-0.35996 -0.326626,-0.63992 -0.819898,-0.63992 -0.493272,0 -0.819898,0.2833 -0.819898,0.63992 v 0.007 c 0,0.24997 0.116652,0.39995 0.29663,0.50994 -0.246636,0.11332 -0.37662,0.27996 -0.37662,0.56326 v 0.007 c 0,0.40661 0.383286,0.67325 0.899888,0.67325 z m 0,-1.41316 c -0.203308,0 -0.333292,-0.12332 -0.333292,-0.28663 v -0.007 c 0,-0.14331 0.123318,-0.26996 0.333292,-0.26996 0.209974,0 0.333292,0.12998 0.333292,0.2733 v 0.007 c 0,0.16332 -0.129984,0.2833 -0.333292,0.2833 z m 0,0.98988 c -0.253302,0 -0.403283,-0.12999 -0.403283,-0.28997 v -0.007 c 0,-0.17998 0.169979,-0.28663 0.403283,-0.28663 0.233304,0 0.403283,0.10665 0.403283,0.28663 v 0.007 c 0,0.16332 -0.149981,0.28997 -0.403283,0.28997 z"
         style="font-style:normal;font-variant:normal;font-weight:bold;font-stretch:normal;font-family:'Gotham Rounded';-inkscape-font-specification:'Gotham Rounded Bold';text-align:center;text-anchor:middle;fill:#cccccc;fill-opacity:1;stroke-width:0.26458332"
         id="path1111" />
    </g>
    <rect
       ry="0.79375178"
       rx="0.79375178"
       y="221.85832"
       x="10.583333"
       height="66.410416"
       width="7.6729159"
       id="rect3683"
       style="opacity:1;fill:#808080;fill-opacity:1;stroke:none;stroke-width:0.26458332;stroke-linecap:round;stroke-linejoin:round;stroke-miterlimit:0;stroke-dasharray:none;stroke-dashoffset:0;stroke-opacity:1" />
    <g
       aria-label="OUT"
       style="font-style:normal;font-variant:normal;font-weight:300;font-stretch:normal;font-size:1.84191251px;line-height:1.25;font-family:'Gotham Rounded';-inkscape-font-specification:'Gotham Rounded Light';text-align:center;letter-spacing:0px;word-spacing:0px;text-anchor:middle;fill:#000000;fill-opacity:1;stroke:none;stroke-width:0.26458329"
       id="text3894">
      <path
         d="m 13.227778,224.25605 c 0.396011,0 0.675982,-0.30391 0.675982,-0.66677 v -0.004 c 0,-0.36285 -0.276287,-0.66308 -0.672298,-0.66308 -0.396011,0 -0.675982,0.30391 -0.675982,0.66677 v 0.004 c 0,0.36286 0.276287,0.66309 0.672298,0.66309 z m 0.0037,-0.20998 c -0.256026,0 -0.438375,-0.20629 -0.438375,-0.45679 v -0.004 c 0,-0.2505 0.178665,-0.45495 0.434691,-0.45495 0.256026,0 0.438375,0.20814 0.438375,0.45864 v 0.004 c 0,0.2505 -0.178665,0.45311 -0.434691,0.45311 z"
         style="font-style:normal;font-variant:normal;font-weight:300;font-stretch:normal;font-family:'Gotham Rounded';-inkscape-font-specification:'Gotham Rounded Light';text-align:center;text-anchor:middle;fill:#000000;fill-opacity:1;stroke-width:0.26458329"
         id="path1123" />
      <path
         d="m 14.706114,224.25421 c 0.33707,0 0.554416,-0.1934 0.554416,-0.57836 v -0.62809 c 0,-0.0626 -0.04973,-0.11236 -0.112357,-0.11236 -0.06447,0 -0.114198,0.0497 -0.114198,0.11236 v 0.63914 c 0,0.23761 -0.123408,0.35733 -0.324177,0.35733 -0.20261,0 -0.326018,-0.12709 -0.326018,-0.36654 v -0.62993 c 0,-0.0626 -0.04973,-0.11236 -0.112357,-0.11236 -0.06447,0 -0.114199,0.0497 -0.114199,0.11236 v 0.63914 c 0,0.37391 0.213662,0.56731 0.54889,0.56731 z"
         style="font-style:normal;font-variant:normal;font-weight:300;font-stretch:normal;font-family:'Gotham Rounded';-inkscape-font-specification:'Gotham Rounded Light';text-align:center;text-anchor:middle;fill:#000000;fill-opacity:1;stroke-width:0.26458329"
         id="path1125" />
      <path
         d="m 15.890119,224.1308 c 0,0.0626 0.05157,0.11236 0.114198,0.11236 0.06263,0 0.114199,-0.0497 0.114199,-0.11236 v -0.97621 h 0.314967 c 0.0571,0 0.103147,-0.0479 0.103147,-0.10499 0,-0.0571 -0.04605,-0.10499 -0.103147,-0.10499 h -0.856489 c -0.05894,0 -0.104989,0.0479 -0.104989,0.10499 0,0.0571 0.04605,0.10499 0.104989,0.10499 h 0.313125 z"
         style="font-style:normal;font-variant:normal;font-weight:300;font-stretch:normal;font-family:'Gotham Rounded';-inkscape-font-specification:'Gotham Rounded Light';text-align:center;text-anchor:middle;fill:#000000;fill-opacity:1;stroke-width:0.26458329"
         id="path1127" />
    </g>
    <path
       style="fill:none;fill-rule:evenodd;stroke:#808080;stroke-width:0.26458332px;stroke-linecap:butt;stroke-linejoin:miter;stroke-opacity:1"
       d="M 7.1551729,284.16768 H 12.711411"
       id="path4043"
       inkscape:connector-curvature="0"
       sodipodi:nodetypes="cc" />
    <g
       aria-label="TRIG"
       style="font-style:normal;font-variant:normal;font-weight:normal;font-stretch:normal;font-size:1.84191251px;line-height:1.25;font-family:'Gotham Rounded';-inkscape-font-specification:'Gotham Rounded';text-align:center;letter-spacing:0px;word-spacing:0px;text-anchor:middle;fill:#cccccc;fill-opacity:1;stroke:none;stroke-width:0.26458329"
       id="text4069">
      <path
         d="m 3.367038,224.08898 c 0,0.0792 0.062625,0.14183 0.1418272,0.14183 0.079202,0 0.1418273,-0.0626 0.1418273,-0.14183 v -0.89701 h 0.272603 c 0.071835,0 0.1307758,-0.0589 0.1307758,-0.13078 0,-0.0718 -0.058941,-0.13077 -0.1307758,-0.13077 H 3.0944349 c -0.071835,0 -0.1307758,0.0589 -0.1307758,0.13077 0,0.0718 0.058941,0.13078 0.1307758,0.13078 H 3.367038 Z"
         style="font-style:normal;font-variant:normal;font-weight:normal;font-stretch:normal;font-family:'Gotham Rounded';-inkscape-font-specification:'Gotham Rounded';text-align:center;text-anchor:middle;fill:#cccccc;fill-opacity:1;stroke-width:0.26458329"
         id="path1114" />
      <path
         d="m 4.2611714,224.08898 c 0,0.0792 0.062625,0.14183 0.1418272,0.14183 0.079202,0 0.1418273,-0.0626 0.1418273,-0.14183 v -0.28181 h 0.2265552 l 0.2762869,0.34996 c 0.033154,0.0424 0.075518,0.0737 0.1399853,0.0737 0.068151,0 0.1344597,-0.0516 0.1344597,-0.13078 0,-0.0442 -0.018419,-0.0737 -0.046048,-0.10867 l -0.1970846,-0.23945 c 0.1565626,-0.0645 0.2578678,-0.18972 0.2578678,-0.39233 v -0.004 c 0,-0.12157 -0.03868,-0.22287 -0.1105148,-0.29471 -0.084728,-0.0847 -0.2118199,-0.13077 -0.3757501,-0.13077 H 4.4029986 c -0.079202,0 -0.1418272,0.0626 -0.1418272,0.14183 z m 0.2836545,-0.53231 v -0.37023 h 0.2818126 c 0.1381434,0 0.2228714,0.0626 0.2228714,0.1842 v 0.004 c 0,0.10867 -0.079202,0.18235 -0.2173457,0.18235 z"
         style="font-style:normal;font-variant:normal;font-weight:normal;font-stretch:normal;font-family:'Gotham Rounded';-inkscape-font-specification:'Gotham Rounded';text-align:center;text-anchor:middle;fill:#cccccc;fill-opacity:1;stroke-width:0.26458329"
         id="path1116" />
      <path
         d="m 5.6051343,224.08898 c 0,0.0792 0.062625,0.14183 0.1418273,0.14183 0.079202,0 0.1418273,-0.0626 0.1418273,-0.14183 v -1.02779 c 0,-0.0792 -0.062625,-0.14182 -0.1418273,-0.14182 -0.079202,0 -0.1418273,0.0626 -0.1418273,0.14182 z"
         style="font-style:normal;font-variant:normal;font-weight:normal;font-stretch:normal;font-family:'Gotham Rounded';-inkscape-font-specification:'Gotham Rounded';text-align:center;text-anchor:middle;fill:#cccccc;fill-opacity:1;stroke-width:0.26458329"
         id="path1118" />
      <path
         d="m 6.831733,224.24186 c 0.1934008,0 0.3462795,-0.0645 0.4512685,-0.12893 0.068151,-0.0405 0.099463,-0.0976 0.099463,-0.18051 v -0.31313 c 0,-0.0792 -0.062625,-0.14182 -0.1418273,-0.14182 H 6.9164609 c -0.068151,0 -0.1234081,0.0553 -0.1234081,0.1234 0,0.0682 0.055257,0.12157 0.1234081,0.12157 h 0.1915589 v 0.18419 c -0.071835,0.0516 -0.1639302,0.0774 -0.2670773,0.0774 -0.2283971,0 -0.3904854,-0.17314 -0.3904854,-0.4089 v -0.004 c 0,-0.21918 0.1639302,-0.40153 0.3702244,-0.40153 0.1215662,0 0.2044523,0.0332 0.2818126,0.0884 0.020261,0.0147 0.046048,0.0295 0.08657,0.0295 0.07736,0 0.1399853,-0.0626 0.1399853,-0.13999 0,-0.0553 -0.031313,-0.0939 -0.058941,-0.11419 -0.1160405,-0.0811 -0.2449743,-0.12525 -0.4402171,-0.12525 -0.3904854,0 -0.6759818,0.30023 -0.6759818,0.66677 v 0.004 c 0,0.38128 0.2762868,0.66309 0.6778238,0.66309 z"
         style="font-style:normal;font-variant:normal;font-weight:normal;font-stretch:normal;font-family:'Gotham Rounded';-inkscape-font-specification:'Gotham Rounded';text-align:center;text-anchor:middle;fill:#cccccc;fill-opacity:1;stroke-width:0.26458329"
         id="path1120" />
    </g>
    <path
       sodipodi:nodetypes="cccc"
       inkscape:connector-curvature="0"
       id="path4071"
       d="m 5.1593756,232.70624 -0.79375,-1.32292 h 1.5875 z"
       style="fill:#808080;fill-opacity:1;stroke:none;stroke-width:0.26458332px;stroke-linecap:butt;stroke-linejoin:miter;stroke-opacity:1" />
    <path
       style="fill:#808080;fill-opacity:1;stroke:none;stroke-width:0.26458332px;stroke-linecap:butt;stroke-linejoin:miter;stroke-opacity:1"
       d="m 5.1593756,240.64373 -0.79375,-1.32292 h 1.5875 z"
       id="path4073"
       inkscape:connector-curvature="0"
       sodipodi:nodetypes="cccc" />
    <path
       sodipodi:nodetypes="cccc"
       inkscape:connector-curvature="0"
       id="path4075"
       d="m 5.1593756,248.58122 -0.79375,-1.32292 h 1.5875 z"
       style="fill:#808080;fill-opacity:1;stroke:none;stroke-width:0.26458332px;stroke-linecap:butt;stroke-linejoin:miter;stroke-opacity:1" />
    <path
       style="fill:#808080;fill-opacity:1;stroke:none;stroke-width:0.26458332px;stroke-linecap:butt;stroke-linejoin:miter;stroke-opacity:1"
       d="m 5.1593756,256.51871 -0.79375,-1.32292 h 1.5875 z"
       id="path4077"
       inkscape:connector-curvature="0"
       sodipodi:nodetypes="cccc" />
    <path
       sodipodi:nodetypes="cccc"
       inkscape:connector-curvature="0"
       id="path4079"
       d="m 5.1593756,264.4562 -0.79375,-1.32292 h 1.5875 z"
       style="fill:#808080;fill-opacity:1;stroke:none;stroke-width:0.26458332px;stroke-linecap:butt;stroke-linejoin:miter;stroke-opacity:1" />
    <path
       style="fill:#808080;fill-opacity:1;stroke:none;stroke-width:0.26458332px;stroke-linecap:butt;stroke-linejoin:miter;stroke-opacity:1"
       d="m 5.1593756,272.39369 -0.79375,-1.32292 h 1.5875 z"
       id="path4081"
       inkscape:connector-curvature="0"
       sodipodi:nodetypes="cccc" />
    <path
       sodipodi:nodetypes="cccc"
       inkscape:connector-curvature="0"
       id="path4083"
       d="m 5.1593756,280.33118 -0.79375,-1.32292 h 1.5875 z"
       style="fill:#808080;fill-opacity:1;stroke:none;stroke-width:0.26458332px;stroke-linecap:butt;stroke-linejoin:miter;stroke-opacity:1" />
    <path
       sodipodi:nodetypes="cc"
       inkscape:connector-curvature="0"
       id="path4091"
       d="M 7.1551729,276.2302 H 12.711411"
       style="fill:none;fill-rule:evenodd;stroke:#808080;stroke-width:0.26458332px;stroke-linecap:butt;stroke-linejoin:miter;stroke-opacity:1" />
    <path
       style="fill:none;fill-rule:evenodd;stroke:#808080;stroke-width:0.26458332px;stroke-linecap:butt;stroke-linejoin:miter;stroke-opacity:1"
       d="M 7.1551729,268.29271 H 12.711411"
       id="path4093"
       inkscape:connector-curvature="0"
       sodipodi:nodetypes="cc" />
    <path
       sodipodi:nodetypes="cc"
       inkscape:connector-curvature="0"
       id="path4095"
       d="M 7.1551729,260.35522 H 12.711411"
       style="fill:none;fill-rule:evenodd;stroke:#808080;stroke-width:0.26458332px;stroke-linecap:butt;stroke-linejoin:miter;stroke-opacity:1" />
    <path
       style="fill:none;fill-rule:evenodd;stroke:#808080;stroke-width:0.26458332px;stroke-linecap:butt;stroke-linejoin:miter;stroke-opacity:1"
       d="M 7.1551729,252.41773 H 12.711411"
       id="path4097"
       inkscape:connector-curvature="0"
       sodipodi:nodetypes="cc" />
    <path
       sodipodi:nodetypes="cc"
       inkscape:connector-curvature="0"
       id="path4099"
       d="M 7.1551729,244.48024 H 12.711411"
       style="fill:none;fill-rule:evenodd;stroke:#808080;stroke-width:0.26458332px;stroke-linecap:butt;stroke-linejoin:miter;stroke-opacity:1" />
    <path
       style="fill:none;fill-rule:evenodd;stroke:#808080;stroke-width:0.26458332px;stroke-linecap:butt;stroke-linejoin:miter;stroke-opacity:1"
       d="M 7.1551729,236.54275 H 12.711411"
       id="path4101"
       inkscape:connector-curvature="0"
       sodipodi:nodetypes="cc" />
    <path
       sodipodi:nodetypes="cc"
       inkscape:connector-curvature="0"
       id="path4103"
       d="M 7.1551729,228.60526 H 12.711411"
       style="fill:none;fill-rule:evenodd;stroke:#808080;stroke-width:0.26458332px;stroke-linecap:butt;stroke-linejoin:miter;stroke-opacity:1" />
    <g
       aria-label="IN"
       style="font-style:normal;font-variant:normal;font-weight:normal;font-stretch:normal;font-size:1.84191251px;line-height:1.25;font-family:'Gotham Rounded';-inkscape-font-specification:'Gotham Rounded';text-align:center;letter-spacing:0px;word-spacing:0px;text-anchor:middle;fill:#cccccc;fill-opacity:1;stroke:none;stroke-width:0.26458329"
       id="text4121">
      <path
         d="m 9.0995225,208.74314 c 0,0.0792 0.062625,0.14183 0.1418272,0.14183 0.079202,0 0.1418273,-0.0626 0.1418273,-0.14183 v -1.02779 c 0,-0.0792 -0.062625,-0.14182 -0.1418273,-0.14182 -0.079202,0 -0.1418272,0.0626 -0.1418272,0.14182 z"
         style="font-style:normal;font-variant:normal;font-weight:normal;font-stretch:normal;font-family:'Gotham Rounded';-inkscape-font-specification:'Gotham Rounded';text-align:center;text-anchor:middle;fill:#cccccc;fill-opacity:1;stroke-width:0.26458329"
         id="path1100" />
      <path
         d="m 9.7053966,208.74498 c 0,0.0774 0.062625,0.13999 0.1399853,0.13999 0.07736,0 0.1399854,-0.0626 0.1399854,-0.13999 v -0.69071 l 0.5673087,0.74413 c 0.03868,0.0497 0.0792,0.0829 0.147353,0.0829 h 0.0092 c 0.0792,0 0.141827,-0.0626 0.141827,-0.14182 v -1.02595 c 0,-0.0774 -0.06262,-0.13998 -0.139985,-0.13998 -0.07736,0 -0.139986,0.0626 -0.139986,0.13998 v 0.66493 l -0.547048,-0.71834 c -0.03868,-0.0497 -0.079202,-0.0829 -0.1473526,-0.0829 h -0.029471 c -0.079202,0 -0.1418272,0.0626 -0.1418272,0.14183 z"
         style="font-style:normal;font-variant:normal;font-weight:normal;font-stretch:normal;font-family:'Gotham Rounded';-inkscape-font-specification:'Gotham Rounded';text-align:center;text-anchor:middle;fill:#cccccc;fill-opacity:1;stroke-width:0.26458329"
         id="path1102" />
    </g>
    <path
       style="fill:none;fill-rule:evenodd;stroke:#4d4d4d;stroke-width:0.26458332px;stroke-linecap:butt;stroke-linejoin:miter;stroke-opacity:1"
       d="M 1.0811064,219.34479 H 18.785454"
       id="path4134"
       inkscape:connector-curvature="0"
       sodipodi:nodetypes="cc" />
  </g>
</svg>
