<?xml version="1.0" encoding="UTF-8" standalone="no"?>
<!-- Created with Inkscape (http://www.inkscape.org/) -->

<svg
   xmlns:dc="http://purl.org/dc/elements/1.1/"
   xmlns:cc="http://creativecommons.org/ns#"
   xmlns:rdf="http://www.w3.org/1999/02/22-rdf-syntax-ns#"
   xmlns:svg="http://www.w3.org/2000/svg"
   xmlns="http://www.w3.org/2000/svg"
   xmlns:sodipodi="http://sodipodi.sourceforge.net/DTD/sodipodi-0.dtd"
   xmlns:inkscape="http://www.inkscape.org/namespaces/inkscape"
   width="45"
   height="380"
   viewBox="0 0 45 380"
   version="1.1"
   id="svg8"
   inkscape:version="0.92.3 (2405546, 2018-03-11)"
   sodipodi:docname="SRC.svg">
  <defs
     id="defs2">
    <clipPath
       clipPathUnits="userSpaceOnUse"
       id="clipPath1763">
      <path
         inkscape:connector-curvature="0"
         id="path1765"
         d="M 0,196.45831 H 23.8125 V 296.99999 H 0 Z"
         style="opacity:1;vector-effect:none;fill:#28220b;fill-opacity:1;fill-rule:evenodd;stroke:none;stroke-width:0.48607069;stroke-linecap:butt;stroke-linejoin:round;stroke-miterlimit:4;stroke-dasharray:none;stroke-dashoffset:0;stroke-opacity:1;paint-order:normal" />
    </clipPath>
    <clipPath
       clipPathUnits="userSpaceOnUse"
       id="clipPath3293">
      <path
         style="opacity:1;vector-effect:none;fill:#28220b;fill-opacity:1;fill-rule:evenodd;stroke:none;stroke-width:0.48607066;stroke-linecap:butt;stroke-linejoin:round;stroke-miterlimit:4;stroke-dasharray:none;stroke-dashoffset:0;stroke-opacity:1;paint-order:normal"
         d="M -1.5460537e-7,196.45831 H 19.843751 V 296.99999 H -1.5460537e-7 Z"
         id="path3295"
         inkscape:connector-curvature="0" />
    </clipPath>
  </defs>
  <sodipodi:namedview
     id="base"
     pagecolor="#ffffff"
     bordercolor="#666666"
     borderopacity="1.0"
     inkscape:pageopacity="0.0"
     inkscape:pageshadow="2"
     inkscape:zoom="2.8068211"
     inkscape:cx="95.015802"
     inkscape:cy="168.66525"
     inkscape:document-units="px"
     inkscape:current-layer="svg8"
     showgrid="true"
     units="px"
     inkscape:snap-bbox="true"
     inkscape:snap-page="true"
     inkscape:bbox-nodes="true"
     inkscape:snap-bbox-edge-midpoints="true"
     inkscape:window-width="2088"
     inkscape:window-height="1671"
     inkscape:window-x="1385"
     inkscape:window-y="267"
     inkscape:window-maximized="0"
     showguides="true"
     inkscape:guide-bbox="true"
     inkscape:snap-global="false">
    <inkscape:grid
       type="xygrid"
       id="grid985" />
  </sodipodi:namedview>
  <metadata
     id="metadata5">
    <rdf:RDF>
      <cc:Work
         rdf:about="">
        <dc:format>image/svg+xml</dc:format>
        <dc:type
           rdf:resource="http://purl.org/dc/dcmitype/StillImage" />
        <dc:title />
      </cc:Work>
    </rdf:RDF>
  </metadata>
  <path
     style="opacity:1;vector-effect:none;fill:#202321;fill-opacity:1;fill-rule:evenodd;stroke:none;stroke-width:1.83711743;stroke-linecap:butt;stroke-linejoin:round;stroke-miterlimit:4;stroke-dasharray:none;stroke-dashoffset:0;stroke-opacity:1;paint-order:normal"
     d="M 0,-4.4397306e-5 H 45.00006 V 379.99999 H 0 Z"
     id="path9326"
     inkscape:connector-curvature="0"
     sodipodi:nodetypes="ccccc" />
  <g
     transform="matrix(3.7795274,0,0,3.7795274,-44.999994,-742.51961)"
     id="g9338">
    <rect
       style="opacity:1;fill:#000000;fill-opacity:0.37647059;stroke:none;stroke-width:0.32900003;stroke-linecap:round;stroke-linejoin:round;stroke-miterlimit:4;stroke-dasharray:none;stroke-dashoffset:0;stroke-opacity:1"
       id="rect9334"
       width="4.4979172"
       height="2.3812449"
       x="15.610415"
       y="197.25208"
       rx="1.1906224"
       ry="1.1906224" />
    <path
       inkscape:connector-curvature="0"
       style="opacity:1;fill:#ffffff;fill-opacity:0.0627451;stroke:none;stroke-width:0.32900003;stroke-linecap:round;stroke-linejoin:round;stroke-miterlimit:4;stroke-dasharray:none;stroke-dashoffset:0;stroke-opacity:1"
       d="m 15.623851,198.57499 c -0.0049,0.044 -0.01344,0.0869 -0.01344,0.13229 0,0.6596 0.53102,1.19062 1.190624,1.19062 h 2.116667 c 0.659605,0 1.190625,-0.53102 1.190625,-1.19062 0,-0.0454 -0.0085,-0.0882 -0.01344,-0.13229 -0.06629,0.59595 -0.562979,1.05833 -1.177189,1.05833 h -2.116662 c -0.61421,0 -1.110904,-0.46238 -1.177189,-1.05833 z"
       id="path9336" />
  </g>
  <g
     id="g9356"
     transform="matrix(3.7795274,0,0,3.7795274,-44.999994,-377.51966)">
    <rect
       ry="1.1906224"
       rx="1.1906224"
       y="197.25208"
       x="15.610415"
       height="2.3812449"
       width="4.4979172"
       id="rect9352"
       style="opacity:1;fill:#000000;fill-opacity:0.37647059;stroke:none;stroke-width:0.32900003;stroke-linecap:round;stroke-linejoin:round;stroke-miterlimit:4;stroke-dasharray:none;stroke-dashoffset:0;stroke-opacity:1" />
    <path
       id="path9354"
       d="m 15.623851,198.57499 c -0.0049,0.044 -0.01344,0.0869 -0.01344,0.13229 0,0.6596 0.53102,1.19062 1.190624,1.19062 h 2.116667 c 0.659605,0 1.190625,-0.53102 1.190625,-1.19062 0,-0.0454 -0.0085,-0.0882 -0.01344,-0.13229 -0.06629,0.59595 -0.562979,1.05833 -1.177189,1.05833 h -2.116662 c -0.61421,0 -1.110904,-0.46238 -1.177189,-1.05833 z"
       style="opacity:1;fill:#ffffff;fill-opacity:0.0627451;stroke:none;stroke-width:0.32900003;stroke-linecap:round;stroke-linejoin:round;stroke-miterlimit:4;stroke-dasharray:none;stroke-dashoffset:0;stroke-opacity:1"
       inkscape:connector-curvature="0" />
  </g>
  <g
     style="fill:none;stroke:#808080;stroke-width:1.08830786;stroke-opacity:1"
     transform="matrix(3.4833206,0,0,3.4624064,-19.45079,-645.22137)"
     id="g2207">
    <path
       style="color:#000000;font-style:normal;font-variant:normal;font-weight:normal;font-stretch:normal;font-size:medium;line-height:normal;font-family:sans-serif;font-variant-ligatures:normal;font-variant-position:normal;font-variant-caps:normal;font-variant-numeric:normal;font-variant-alternates:normal;font-feature-settings:normal;text-indent:0;text-align:start;text-decoration:none;text-decoration-line:none;text-decoration-style:solid;text-decoration-color:#000000;letter-spacing:normal;word-spacing:normal;text-transform:none;writing-mode:lr-tb;direction:ltr;text-orientation:mixed;dominant-baseline:auto;baseline-shift:baseline;text-anchor:start;white-space:normal;shape-padding:0;clip-rule:nonzero;display:inline;overflow:visible;visibility:visible;opacity:1;isolation:auto;mix-blend-mode:normal;color-interpolation:sRGB;color-interpolation-filters:linearRGB;solid-color:#000000;solid-opacity:1;vector-effect:none;fill:#808080;fill-opacity:1;fill-rule:evenodd;stroke:none;stroke-width:0.53669477;stroke-linecap:butt;stroke-linejoin:bevel;stroke-miterlimit:0;stroke-dasharray:none;stroke-dashoffset:0;stroke-opacity:1;color-rendering:auto;image-rendering:auto;shape-rendering:auto;text-rendering:auto;enable-background:accumulate"
       d="m 11.640625,288.51172 c -0.136141,0.11687 -0.502862,0.26885 -0.792969,0.41016 -0.249038,0.0915 -0.513291,0.18263 -0.814453,0.25195 -0.7481113,0.17218 -1.5872324,0.2422 -2.0976561,0.13672 l -0.109375,0.52539 c 0.4380502,0.0905 1.0069942,-0.0207 1.5488281,-0.0918 -0.00711,0.006 -0.020422,0.009 -0.027344,0.0156 -0.0937,0.0853 -0.1835532,0.18731 -0.2109374,0.34179 -0.027384,0.15448 0.050367,0.32636 0.1582031,0.42774 0.1115826,0.1049 0.2294936,0.12757 0.3496093,0.14258 0.1201158,0.015 0.2500582,0.0127 0.392578,0 0.28504,-0.0254 0.620052,-0.0947 0.964844,-0.19727 l -0.152344,-0.51367 c -0.316607,0.0942 -0.627496,0.15691 -0.861328,0.17773 -0.1053894,0.009 -0.1872275,0.008 -0.25,0.002 0.1029597,-0.0866 0.311035,-0.21056 0.572266,-0.33593 0.23424,-0.11243 0.458959,-0.25712 0.716797,-0.37696 0.06953,-0.0255 0.15767,-0.0435 0.222656,-0.0703 0.272522,-0.11241 0.473374,-0.24269 0.646484,-0.39062 0.02502,-0.0194 0.07047,-0.0288 0.09375,-0.0488 l -0.0039,-0.004 c 0.0053,-0.005 0.0163,-0.008 0.02148,-0.0137 z"
       id="path2200"
       inkscape:connector-curvature="0" />
    <path
       style="color:#000000;font-style:normal;font-variant:normal;font-weight:normal;font-stretch:normal;font-size:medium;line-height:normal;font-family:sans-serif;font-variant-ligatures:normal;font-variant-position:normal;font-variant-caps:normal;font-variant-numeric:normal;font-variant-alternates:normal;font-feature-settings:normal;text-indent:0;text-align:start;text-decoration:none;text-decoration-line:none;text-decoration-style:solid;text-decoration-color:#000000;letter-spacing:normal;word-spacing:normal;text-transform:none;writing-mode:lr-tb;direction:ltr;text-orientation:mixed;dominant-baseline:auto;baseline-shift:baseline;text-anchor:start;white-space:normal;shape-padding:0;clip-rule:nonzero;display:inline;overflow:visible;visibility:visible;opacity:1;isolation:auto;mix-blend-mode:normal;color-interpolation:sRGB;color-interpolation-filters:linearRGB;solid-color:#000000;solid-opacity:1;vector-effect:none;fill:#808080;fill-opacity:1;fill-rule:evenodd;stroke:none;stroke-width:0.55421764;stroke-linecap:butt;stroke-linejoin:bevel;stroke-miterlimit:0;stroke-dasharray:none;stroke-dashoffset:0;stroke-opacity:1;color-rendering:auto;image-rendering:auto;shape-rendering:auto;text-rendering:auto;enable-background:accumulate"
       d="m 14.433594,288.49414 c -0.497415,0.62122 -0.398927,1.34849 0.01758,1.75195 0.416505,0.40347 1.117985,0.52073 1.705078,0.14258 l -0.300781,-0.46679 c -0.377635,0.24323 -0.784866,0.1531 -1.019531,-0.0742 -0.174451,-0.16899 -0.201132,-0.41568 -0.0918,-0.70508 0.150163,0.17192 0.27108,0.38586 0.470703,0.48242 0.343198,0.16601 0.746871,0.20138 1.179687,0.11328 l -0.111328,-0.54297 c -0.341141,0.0694 -0.607485,0.0364 -0.828125,-0.0703 -0.22064,-0.10673 -0.406822,-0.29438 -0.560547,-0.58594 z"
       id="path2202"
       inkscape:connector-curvature="0" />
    <path
       style="color:#000000;font-style:normal;font-variant:normal;font-weight:normal;font-stretch:normal;font-size:medium;line-height:normal;font-family:sans-serif;font-variant-ligatures:normal;font-variant-position:normal;font-variant-caps:normal;font-variant-numeric:normal;font-variant-alternates:normal;font-feature-settings:normal;text-indent:0;text-align:start;text-decoration:none;text-decoration-line:none;text-decoration-style:solid;text-decoration-color:#000000;letter-spacing:normal;word-spacing:normal;text-transform:none;writing-mode:lr-tb;direction:ltr;text-orientation:mixed;dominant-baseline:auto;baseline-shift:baseline;text-anchor:start;white-space:normal;shape-padding:0;clip-rule:nonzero;display:inline;overflow:visible;visibility:visible;opacity:1;isolation:auto;mix-blend-mode:normal;color-interpolation:sRGB;color-interpolation-filters:linearRGB;solid-color:#000000;solid-opacity:1;vector-effect:none;fill:#808080;fill-opacity:1;fill-rule:evenodd;stroke:none;stroke-width:0.53669477;stroke-linecap:butt;stroke-linejoin:bevel;stroke-miterlimit:0;stroke-dasharray:none;stroke-dashoffset:0;stroke-opacity:1;color-rendering:auto;image-rendering:auto;shape-rendering:auto;text-rendering:auto;enable-background:accumulate"
       d="m 13.447266,288.3418 c -0.42931,0.48516 -1.295642,1.38777 -2.642578,1.62695 l 0.09375,0.52734 c 0.274973,-0.0488 0.435024,-0.20142 0.673828,-0.29101 l 0.205078,0.42187 c 0.291223,-0.1158 0.684899,-0.22457 1.044922,-0.25195 0.360022,-0.0274 0.67217,0.0317 0.845703,0.17578 l 0.341797,-0.41211 c -0.34072,-0.28282 -0.793976,-0.33187 -1.228516,-0.29883 -0.07417,0.006 -0.131585,0.0384 -0.205078,0.0488 0.291539,-0.24465 0.572914,-0.48077 0.810547,-0.76562 0.145565,-0.14458 0.364447,-0.31674 0.460937,-0.42578 l -0.0059,-0.004 c 0.0076,-0.0115 0.02378,-0.0177 0.03125,-0.0293 z"
       id="path2205"
       inkscape:connector-curvature="0" />
  </g>
  <g
     aria-label="SRC"
     style="font-style:normal;font-variant:normal;font-weight:bold;font-stretch:normal;font-size:12.59685421px;line-height:1.25;font-family:'Gotham Rounded';-inkscape-font-specification:'Gotham Rounded Bold';letter-spacing:0px;word-spacing:0px;fill:#cccccc;fill-opacity:1;stroke:none;stroke-width:1"
     id="text10203">
    <path
       d="m 13.704125,28.561157 c 1.902125,0 3.237391,-0.982555 3.237391,-2.733518 v -0.02519 c 0,-1.536816 -1.007748,-2.179256 -2.796501,-2.64534 -1.52422,-0.390502 -1.902125,-0.579455 -1.902125,-1.15891 v -0.02519 c 0,-0.428293 0.390502,-0.768408 1.133717,-0.768408 0.604649,0 1.209298,0.214146 1.851737,0.592052 0.151162,0.08818 0.302325,0.138566 0.491278,0.138566 0.503874,0 0.906973,-0.390503 0.906973,-0.894377 0,-0.377906 -0.214146,-0.64244 -0.428293,-0.768408 -0.793602,-0.503874 -1.725769,-0.781005 -2.796502,-0.781005 -1.80135,0 -3.086229,1.058136 -3.086229,2.657936 v 0.02519 c 0,1.750962 1.146314,2.24224 2.92247,2.695727 1.473832,0.377905 1.776157,0.629842 1.776157,1.12112 v 0.02519 c 0,0.516471 -0.478681,0.831393 -1.272283,0.831393 -0.856586,0 -1.587203,-0.302325 -2.254836,-0.793602 -0.125969,-0.08818 -0.302325,-0.176356 -0.554262,-0.176356 -0.503874,0 -0.906974,0.390502 -0.906974,0.894377 0,0.302324 0.151163,0.579455 0.365309,0.730617 0.982555,0.705424 2.154062,1.058136 3.312973,1.058136 z"
       style="font-style:normal;font-variant:normal;font-weight:bold;font-stretch:normal;font-family:'Gotham Rounded';-inkscape-font-specification:'Gotham Rounded Bold';text-align:center;text-anchor:middle;fill:#cccccc;fill-opacity:1;stroke-width:1"
       id="path1157" />
    <path
       d="m 18.637368,27.540812 c 0,0.541664 0.428293,0.969957 0.969957,0.969957 0.541665,0 0.969958,-0.428293 0.969958,-0.969957 v -1.927319 h 1.549413 l 1.889528,2.393402 c 0.226744,0.289728 0.516471,0.503874 0.957361,0.503874 0.466084,0 0.919571,-0.352711 0.919571,-0.894376 0,-0.302325 -0.125969,-0.503874 -0.314922,-0.743215 l -1.347863,-1.637591 c 1.070733,-0.44089 1.76356,-1.297476 1.76356,-2.68313 v -0.02519 c 0,-0.831393 -0.264534,-1.52422 -0.755812,-2.015497 -0.579455,-0.579455 -1.448638,-0.894377 -2.569758,-0.894377 h -3.061036 c -0.541664,0 -0.969957,0.428293 -0.969957,0.969958 z m 1.939915,-3.640491 v -2.531968 h 1.927319 c 0.944764,0 1.524219,0.428293 1.524219,1.259686 v 0.02519 c 0,0.743215 -0.541664,1.247089 -1.486429,1.247089 z"
       style="font-style:normal;font-variant:normal;font-weight:bold;font-stretch:normal;font-family:'Gotham Rounded';-inkscape-font-specification:'Gotham Rounded Bold';text-align:center;text-anchor:middle;fill:#cccccc;fill-opacity:1;stroke-width:1"
       id="path1159" />
    <path
       d="m 31.87233,28.586351 c 1.410848,0 2.343015,-0.415697 3.136617,-1.108524 0.176356,-0.151162 0.327518,-0.390502 0.327518,-0.692827 0,-0.491277 -0.415696,-0.894376 -0.906973,-0.894376 -0.226744,0 -0.428294,0.08818 -0.579456,0.214146 -0.554261,0.44089 -1.095926,0.692827 -1.914722,0.692827 -1.511622,0 -2.557161,-1.259685 -2.557161,-2.771308 v -0.02519 c 0,-1.511623 1.070733,-2.746115 2.557161,-2.746115 0.692827,0 1.259686,0.226744 1.801351,0.629843 0.138565,0.08818 0.314921,0.188953 0.579455,0.188953 0.529068,0 0.957361,-0.415696 0.957361,-0.944764 0,-0.340115 -0.176356,-0.617246 -0.377906,-0.768408 -0.730617,-0.541665 -1.624994,-0.894377 -2.947664,-0.894377 -2.708323,0 -4.597852,2.053287 -4.597852,4.560061 v 0.02519 c 0,2.531968 1.927319,4.534868 4.522271,4.534868 z"
       style="font-style:normal;font-variant:normal;font-weight:bold;font-stretch:normal;font-family:'Gotham Rounded';-inkscape-font-specification:'Gotham Rounded Bold';text-align:center;text-anchor:middle;fill:#cccccc;fill-opacity:1;stroke-width:1"
       id="path1161" />
  </g>
  <g
     aria-label="V"
     style="font-style:normal;font-variant:normal;font-weight:300;font-stretch:normal;font-size:9.9629488px;line-height:1.25;font-family:'Gotham Rounded';-inkscape-font-specification:'Gotham Rounded Light';letter-spacing:0px;word-spacing:0px;fill:#cccccc;fill-opacity:1;stroke:none;stroke-width:0.99999988"
     id="text10936">
    <path
       d="m 18.230503,49.174985 h 0.06974 c 0.348703,0 0.577851,-0.189296 0.707369,-0.498147 l 2.450885,-5.778511 c 0.02989,-0.06974 0.05978,-0.16937 0.05978,-0.259036 0,-0.328778 -0.268999,-0.587814 -0.60774,-0.587814 -0.288925,0 -0.50811,0.189296 -0.587814,0.398518 l -2.042404,5.071141 -2.012516,-5.03129 c -0.09963,-0.259036 -0.308851,-0.438369 -0.627666,-0.438369 -0.348703,0 -0.617702,0.268999 -0.617702,0.597777 0,0.109592 0.02989,0.199259 0.06974,0.288925 l 2.440923,5.738659 c 0.129518,0.308851 0.358666,0.498147 0.697406,0.498147 z"
       style="fill:#cccccc;fill-opacity:1;stroke-width:0.99999988"
       id="path1154" />
  </g>
  <rect
     ry="3.0000067"
     rx="3.0000067"
     y="306.00031"
     x="8.0571518"
     height="41.000008"
     width="28.999998"
     id="rect10938"
     style="opacity:1;fill:#808080;fill-opacity:1;stroke:none;stroke-width:1;stroke-linecap:round;stroke-linejoin:round;stroke-miterlimit:0;stroke-dasharray:none;stroke-dashoffset:0;stroke-opacity:1" />
  <g
     aria-label="OUT"
     style="font-style:normal;font-variant:normal;font-weight:300;font-stretch:normal;font-size:6.9615593px;line-height:1.25;font-family:'Gotham Rounded';-inkscape-font-specification:'Gotham Rounded Light';text-align:center;letter-spacing:0px;word-spacing:0px;text-anchor:middle;fill:#000000;fill-opacity:1;stroke:none;stroke-width:0.99999988"
     id="text10942">
    <path
       d="m 17.83089,314.41499 c 1.496735,0 2.554893,-1.14866 2.554893,-2.52008 v -0.0139 c 0,-1.37142 -1.044234,-2.50616 -2.54097,-2.50616 -1.496735,0 -2.554892,1.14866 -2.554892,2.52009 v 0.0139 c 0,1.37143 1.044234,2.50616 2.540969,2.50616 z m 0.01392,-0.79362 c -0.967656,0 -1.656851,-0.77969 -1.656851,-1.72646 v -0.0139 c 0,-0.94677 0.675271,-1.7195 1.642928,-1.7195 0.967657,0 1.656851,0.78665 1.656851,1.73343 v 0.0139 c 0,0.94677 -0.675271,1.71254 -1.642928,1.71254 z"
       style="font-style:normal;font-variant:normal;font-weight:300;font-stretch:normal;font-family:'Gotham Rounded';-inkscape-font-specification:'Gotham Rounded Light';text-align:center;text-anchor:middle;fill:#000000;fill-opacity:1;stroke-width:0.99999988"
       id="path1191" />
    <path
       d="m 23.418303,314.40803 c 1.273965,0 2.095429,-0.73097 2.095429,-2.18593 v -2.37389 c 0,-0.2367 -0.187962,-0.42466 -0.424655,-0.42466 -0.243654,0 -0.431616,0.18796 -0.431616,0.42466 v 2.41566 c 0,0.89804 -0.466425,1.35054 -1.225235,1.35054 -0.765771,0 -1.232196,-0.48035 -1.232196,-1.38535 v -2.38085 c 0,-0.2367 -0.187962,-0.42466 -0.424655,-0.42466 -0.243655,0 -0.431617,0.18796 -0.431617,0.42466 v 2.41566 c 0,1.41319 0.807541,2.14416 2.074545,2.14416 z"
       style="font-style:normal;font-variant:normal;font-weight:300;font-stretch:normal;font-family:'Gotham Rounded';-inkscape-font-specification:'Gotham Rounded Light';text-align:center;text-anchor:middle;fill:#000000;fill-opacity:1;stroke-width:0.99999988"
       id="path1193" />
    <path
       d="m 27.89328,313.9416 c 0,0.2367 0.194924,0.42466 0.431617,0.42466 0.236693,0 0.431617,-0.18796 0.431617,-0.42466 v -3.68962 h 1.190426 c 0.215809,0 0.389848,-0.181 0.389848,-0.39681 0,-0.21581 -0.174039,-0.39681 -0.389848,-0.39681 h -3.237125 c -0.22277,0 -0.396809,0.181 -0.396809,0.39681 0,0.21581 0.174039,0.39681 0.396809,0.39681 h 1.183465 z"
       style="font-style:normal;font-variant:normal;font-weight:300;font-stretch:normal;font-family:'Gotham Rounded';-inkscape-font-specification:'Gotham Rounded Light';text-align:center;text-anchor:middle;fill:#000000;fill-opacity:1;stroke-width:0.99999988"
       id="path1195" />
  </g>
  <g
     aria-label="COARSE"
     style="font-style:normal;font-variant:normal;font-weight:normal;font-stretch:normal;font-size:6.9615593px;line-height:1.25;font-family:'Gotham Rounded';-inkscape-font-specification:'Gotham Rounded';text-align:center;letter-spacing:0px;word-spacing:0px;text-anchor:middle;fill:#cccccc;fill-opacity:1;stroke:none;stroke-width:0.99999988"
     id="text10481-6">
    <path
       d="m 10.486403,97.008771 c 0.779695,0 1.29485,-0.229732 1.733429,-0.612618 0.09746,-0.08354 0.181,-0.215808 0.181,-0.382885 0,-0.271501 -0.229731,-0.494271 -0.501232,-0.494271 -0.125308,0 -0.236693,0.04873 -0.320232,0.118346 -0.306308,0.243655 -0.605656,0.382886 -1.058157,0.382886 -0.835387,0 -1.4131964,-0.696156 -1.4131964,-1.531543 v -0.01392 c 0,-0.835387 0.5917325,-1.51762 1.4131964,-1.51762 0.382886,0 0.696156,0.125308 0.995503,0.348078 0.07658,0.04873 0.174039,0.104423 0.320232,0.104423 0.292385,0 0.529078,-0.229731 0.529078,-0.522116 0,-0.187963 -0.09746,-0.341117 -0.208846,-0.424656 -0.403771,-0.299347 -0.898042,-0.49427 -1.629005,-0.49427 -1.4967356,0 -2.5409695,1.134734 -2.5409695,2.520084 v 0.01392 c 0,1.399274 1.0651186,2.506162 2.4991995,2.506162 z"
       style="font-style:normal;font-variant:normal;font-weight:normal;font-stretch:normal;font-family:'Gotham Rounded';-inkscape-font-specification:'Gotham Rounded';text-align:center;text-anchor:middle;fill:#cccccc;fill-opacity:1;stroke-width:0.99999988"
       id="path1283" />
    <path
       d="m 15.573563,97.008771 c 1.503696,0 2.596661,-1.134735 2.596661,-2.520085 v -0.01392 c 0,-1.38535 -1.079041,-2.506161 -2.582738,-2.506161 -1.503697,0 -2.596662,1.134734 -2.596662,2.520084 v 0.01392 c 0,1.385351 1.079042,2.506162 2.582739,2.506162 z m 0.01392,-0.988542 c -0.863234,0 -1.475851,-0.696156 -1.475851,-1.531543 v -0.01392 c 0,-0.835387 0.598694,-1.51762 1.461928,-1.51762 0.863233,0 1.47585,0.696156 1.47585,1.531543 v 0.01392 c 0,0.835387 -0.598694,1.51762 -1.461927,1.51762 z"
       style="font-style:normal;font-variant:normal;font-weight:normal;font-stretch:normal;font-family:'Gotham Rounded';-inkscape-font-specification:'Gotham Rounded';text-align:center;text-anchor:middle;fill:#cccccc;fill-opacity:1;stroke-width:0.99999988"
       id="path1285" />
    <path
       d="m 18.610325,96.465769 c 0,0.278462 0.215809,0.501232 0.494271,0.501232 0.22277,0 0.403771,-0.125308 0.494271,-0.334155 l 0.341116,-0.800579 h 2.144161 l 0.327193,0.765772 c 0.09746,0.22277 0.264539,0.368962 0.515155,0.368962 0.285424,0 0.508194,-0.229731 0.508194,-0.515155 0,-0.06962 -0.02088,-0.139231 -0.05569,-0.215808 l -1.698621,-3.83582 C 21.562027,92.135679 21.35318,91.975563 21.060794,91.975563 h -0.06265 c -0.292385,0 -0.508194,0.160116 -0.62654,0.424655 l -1.69862,3.83582 c -0.03481,0.07658 -0.06265,0.153154 -0.06265,0.229731 z m 1.726467,-1.580274 0.675271,-1.60812 0.675272,1.60812 z"
       style="font-style:normal;font-variant:normal;font-weight:normal;font-stretch:normal;font-family:'Gotham Rounded';-inkscape-font-specification:'Gotham Rounded';text-align:center;text-anchor:middle;fill:#cccccc;fill-opacity:1;stroke-width:0.99999988"
       id="path1287" />
    <path
       d="m 24.274423,96.430961 c 0,0.299347 0.236693,0.53604 0.53604,0.53604 0.299347,0 0.53604,-0.236693 0.53604,-0.53604 v -1.065118 h 0.856272 l 1.044234,1.322696 c 0.125308,0.160116 0.285424,0.278462 0.529078,0.278462 0.257578,0 0.508194,-0.194923 0.508194,-0.49427 0,-0.167078 -0.06961,-0.278463 -0.174039,-0.410732 l -0.744887,-0.905003 c 0.591733,-0.243655 0.974619,-0.717041 0.974619,-1.482812 v -0.01392 c 0,-0.459463 -0.146193,-0.842349 -0.417694,-1.11385 -0.320232,-0.320232 -0.800579,-0.494271 -1.420158,-0.494271 h -1.691659 c -0.299347,0 -0.53604,0.236693 -0.53604,0.53604 z m 1.07208,-2.01189 v -1.399274 h 1.065119 c 0.522117,0 0.842348,0.236693 0.842348,0.696156 v 0.01392 c 0,0.410732 -0.299347,0.689195 -0.821464,0.689195 z"
       style="font-style:normal;font-variant:normal;font-weight:normal;font-stretch:normal;font-family:'Gotham Rounded';-inkscape-font-specification:'Gotham Rounded';text-align:center;text-anchor:middle;fill:#cccccc;fill-opacity:1;stroke-width:0.99999988"
       id="path1289" />
    <path
       d="m 31.038666,96.994848 c 1.051196,0 1.789121,-0.543002 1.789121,-1.510659 v -0.01392 c 0,-0.84931 -0.556925,-1.20435 -1.545466,-1.461927 -0.842349,-0.215809 -1.051195,-0.320232 -1.051195,-0.640464 v -0.01392 c 0,-0.236693 0.215808,-0.424655 0.62654,-0.424655 0.334155,0 0.66831,0.118346 1.023349,0.327193 0.08354,0.04873 0.167078,0.07658 0.271501,0.07658 0.278462,0 0.501232,-0.215808 0.501232,-0.49427 0,-0.208847 -0.118346,-0.35504 -0.236693,-0.424655 -0.438578,-0.278463 -0.953733,-0.431617 -1.545466,-0.431617 -0.995503,0 -1.705582,0.584771 -1.705582,1.468889 v 0.01392 c 0,0.967657 0.633502,1.239158 1.615082,1.489774 0.814502,0.208846 0.98158,0.348078 0.98158,0.619578 v 0.01392 c 0,0.285423 -0.26454,0.459462 -0.703118,0.459462 -0.473386,0 -0.877156,-0.167077 -1.246119,-0.438578 -0.06962,-0.04873 -0.167077,-0.09746 -0.306309,-0.09746 -0.278462,0 -0.501232,0.215809 -0.501232,0.494271 0,0.167078 0.08354,0.320232 0.201885,0.403771 0.543002,0.389847 1.190427,0.584771 1.83089,0.584771 z"
       style="font-style:normal;font-variant:normal;font-weight:normal;font-stretch:normal;font-family:'Gotham Rounded';-inkscape-font-specification:'Gotham Rounded';text-align:center;text-anchor:middle;fill:#cccccc;fill-opacity:1;stroke-width:0.99999988"
       id="path1291" />
    <path
       d="m 34.301027,96.925232 h 2.735893 c 0.264539,0 0.480348,-0.208847 0.480348,-0.473386 0,-0.264539 -0.215809,-0.480348 -0.480348,-0.480348 h -2.206814 v -1.023349 h 1.858736 c 0.26454,0 0.480348,-0.208847 0.480348,-0.473386 0,-0.264539 -0.215808,-0.480348 -0.480348,-0.480348 h -1.858736 v -0.988541 h 2.172006 c 0.26454,0 0.480348,-0.208847 0.480348,-0.473386 0,-0.264539 -0.215808,-0.480348 -0.480348,-0.480348 h -2.701085 c -0.299347,0 -0.53604,0.236693 -0.53604,0.53604 v 3.801012 c 0,0.299347 0.236693,0.53604 0.53604,0.53604 z"
       style="font-style:normal;font-variant:normal;font-weight:normal;font-stretch:normal;font-family:'Gotham Rounded';-inkscape-font-specification:'Gotham Rounded';text-align:center;text-anchor:middle;fill:#cccccc;fill-opacity:1;stroke-width:0.99999988"
       id="path1293" />
  </g>
  <path
     sodipodi:nodetypes="cc"
     inkscape:connector-curvature="0"
     id="path10958-5"
     d="M 22.5572,282.0001 V 260.0002"
     style="fill:none;fill-rule:evenodd;stroke:#808080;stroke-width:1px;stroke-linecap:butt;stroke-linejoin:miter;stroke-opacity:1" />
  <g
     aria-label="FINE"
     style="font-style:normal;font-variant:normal;font-weight:normal;font-stretch:normal;font-size:6.9615593px;line-height:1.25;font-family:'Gotham Rounded';-inkscape-font-specification:'Gotham Rounded';text-align:center;letter-spacing:0px;word-spacing:0px;text-anchor:middle;fill:#cccccc;fill-opacity:1;stroke:none;stroke-width:0.99999988"
     id="text11040-6">
    <path
       d="m 14.783861,143.43078 c 0,0.29935 0.236693,0.53604 0.53604,0.53604 0.299347,0 0.53604,-0.23669 0.53604,-0.53604 v -1.39231 h 1.879621 c 0.271501,0 0.487309,-0.21581 0.487309,-0.48731 0,-0.2715 -0.215808,-0.48731 -0.487309,-0.48731 h -1.879621 v -1.03727 h 2.192891 c 0.271501,0 0.487309,-0.21581 0.487309,-0.48731 0,-0.2715 -0.215808,-0.48731 -0.487309,-0.48731 h -2.728931 c -0.299347,0 -0.53604,0.23669 -0.53604,0.53604 z"
       style="font-style:normal;font-variant:normal;font-weight:normal;font-stretch:normal;font-family:'Gotham Rounded';-inkscape-font-specification:'Gotham Rounded';text-align:center;text-anchor:middle;fill:#cccccc;fill-opacity:1;stroke-width:0.99999988"
       id="path1274" />
    <path
       d="m 19.401115,143.43078 c 0,0.29935 0.236693,0.53604 0.53604,0.53604 0.299347,0 0.53604,-0.23669 0.53604,-0.53604 v -3.88455 c 0,-0.29935 -0.236693,-0.53604 -0.53604,-0.53604 -0.299347,0 -0.53604,0.23669 -0.53604,0.53604 z"
       style="font-style:normal;font-variant:normal;font-weight:normal;font-stretch:normal;font-family:'Gotham Rounded';-inkscape-font-specification:'Gotham Rounded';text-align:center;text-anchor:middle;fill:#cccccc;fill-opacity:1;stroke-width:0.99999988"
       id="path1276" />
    <path
       d="m 21.691033,143.43774 c 0,0.29239 0.236693,0.52908 0.529079,0.52908 0.292385,0 0.529078,-0.23669 0.529078,-0.52908 v -2.61059 l 2.14416,2.81247 c 0.146193,0.18797 0.299347,0.31328 0.556925,0.31328 h 0.03481 c 0.299347,0 0.53604,-0.2367 0.53604,-0.53605 v -3.87758 c 0,-0.29239 -0.236693,-0.52908 -0.529079,-0.52908 -0.292385,0 -0.529078,0.23669 -0.529078,0.52908 v 2.51312 l -2.067583,-2.71501 c -0.146193,-0.18796 -0.299347,-0.31327 -0.556925,-0.31327 h -0.111385 c -0.299347,0 -0.53604,0.23669 -0.53604,0.53604 z"
       style="font-style:normal;font-variant:normal;font-weight:normal;font-stretch:normal;font-family:'Gotham Rounded';-inkscape-font-specification:'Gotham Rounded';text-align:center;text-anchor:middle;fill:#cccccc;fill-opacity:1;stroke-width:0.99999988"
       id="path1278" />
    <path
       d="m 27.720179,143.92505 h 2.735893 c 0.264539,0 0.480347,-0.20885 0.480347,-0.47339 0,-0.26454 -0.215808,-0.48034 -0.480347,-0.48034 h -2.206814 v -1.02335 h 1.858736 c 0.264539,0 0.480347,-0.20885 0.480347,-0.47339 0,-0.26454 -0.215808,-0.48035 -0.480347,-0.48035 h -1.858736 v -0.98854 h 2.172006 c 0.264539,0 0.480348,-0.20885 0.480348,-0.47339 0,-0.26453 -0.215809,-0.48034 -0.480348,-0.48034 h -2.701085 c -0.299347,0 -0.53604,0.23669 -0.53604,0.53604 v 3.80101 c 0,0.29935 0.236693,0.53604 0.53604,0.53604 z"
       style="font-style:normal;font-variant:normal;font-weight:normal;font-stretch:normal;font-family:'Gotham Rounded';-inkscape-font-specification:'Gotham Rounded';text-align:center;text-anchor:middle;fill:#cccccc;fill-opacity:1;stroke-width:0.99999988"
       id="path1280" />
  </g>
  <g
     aria-label="ON"
     style="font-style:normal;font-variant:normal;font-weight:normal;font-stretch:normal;font-size:6.9615593px;line-height:1.25;font-family:'Gotham Rounded';-inkscape-font-specification:'Gotham Rounded';text-align:center;letter-spacing:0px;word-spacing:0px;text-anchor:middle;fill:#cccccc;fill-opacity:1;stroke:none;stroke-width:0.99999988"
     id="text11107-2">
    <path
       d="m 19.479047,237.00859 c 1.503696,0 2.596661,-1.13474 2.596661,-2.52009 v -0.0139 c 0,-1.38535 -1.079041,-2.50616 -2.582738,-2.50616 -1.503697,0 -2.596662,1.13473 -2.596662,2.52008 v 0.0139 c 0,1.38535 1.079042,2.50616 2.582739,2.50616 z m 0.01392,-0.98854 c -0.863234,0 -1.475851,-0.69616 -1.475851,-1.53155 v -0.0139 c 0,-0.83539 0.598694,-1.51762 1.461928,-1.51762 0.863233,0 1.47585,0.69616 1.47585,1.53154 v 0.0139 c 0,0.83538 -0.598694,1.51762 -1.461927,1.51762 z"
       style="font-style:normal;font-variant:normal;font-weight:normal;font-stretch:normal;font-family:'Gotham Rounded';-inkscape-font-specification:'Gotham Rounded';text-align:center;text-anchor:middle;fill:#cccccc;fill-opacity:1;stroke-width:0.99999988"
       id="path1269" />
    <path
       d="m 23.026723,236.43774 c 0,0.29239 0.236693,0.52908 0.529078,0.52908 0.292386,0 0.529079,-0.23669 0.529079,-0.52908 v -2.61059 l 2.14416,2.81247 c 0.146193,0.18797 0.299347,0.31328 0.556925,0.31328 h 0.03481 c 0.299347,0 0.53604,-0.2367 0.53604,-0.53605 v -3.87758 c 0,-0.29239 -0.236693,-0.52908 -0.529078,-0.52908 -0.292386,0 -0.529079,0.23669 -0.529079,0.52908 v 2.51312 l -2.067583,-2.71501 c -0.146192,-0.18796 -0.299347,-0.31327 -0.556924,-0.31327 h -0.111385 c -0.299347,0 -0.53604,0.23669 -0.53604,0.53604 z"
       style="font-style:normal;font-variant:normal;font-weight:normal;font-stretch:normal;font-family:'Gotham Rounded';-inkscape-font-specification:'Gotham Rounded';text-align:center;text-anchor:middle;fill:#cccccc;fill-opacity:1;stroke-width:0.99999988"
       id="path1271" />
  </g>
  <g
     aria-label="CV"
     style="font-style:normal;font-variant:normal;font-weight:normal;font-stretch:normal;font-size:6.9615593px;line-height:1.25;font-family:'Gotham Rounded';-inkscape-font-specification:'Gotham Rounded';text-align:center;letter-spacing:0px;word-spacing:0px;text-anchor:middle;fill:#cccccc;fill-opacity:1;stroke:none;stroke-width:0.99999988"
     id="text2905">
    <path
       d="m 20.500443,191.00883 c 0.779695,0 1.29485,-0.22973 1.733428,-0.61262 0.09746,-0.0835 0.181001,-0.2158 0.181001,-0.38288 0,-0.2715 -0.229731,-0.49427 -0.501232,-0.49427 -0.125308,0 -0.236693,0.0487 -0.320232,0.11834 -0.306309,0.24366 -0.605656,0.38289 -1.058157,0.38289 -0.835387,0 -1.413197,-0.69616 -1.413197,-1.53154 v -0.0139 c 0,-0.83538 0.591733,-1.51762 1.413197,-1.51762 0.382886,0 0.696156,0.12531 0.995503,0.34808 0.07658,0.0487 0.174039,0.10443 0.320232,0.10443 0.292385,0 0.529078,-0.22974 0.529078,-0.52212 0,-0.18796 -0.09746,-0.34112 -0.208847,-0.42466 -0.40377,-0.29934 -0.898041,-0.49427 -1.629004,-0.49427 -1.496736,0 -2.54097,1.13474 -2.54097,2.52009 v 0.0139 c 0,1.39927 1.065119,2.50616 2.4992,2.50616 z"
       style="font-style:normal;font-variant:normal;font-weight:normal;font-stretch:normal;font-family:'Gotham Rounded';-inkscape-font-specification:'Gotham Rounded';text-align:center;text-anchor:middle;fill:#cccccc;fill-opacity:1;stroke-width:0.99999988"
       id="path1264" />
    <path
       d="m 25.264108,191.00187 h 0.06961 c 0.292386,0 0.494271,-0.16012 0.605656,-0.42465 l 1.594197,-3.81494 c 0.02785,-0.0626 0.05569,-0.15315 0.05569,-0.23669 0,-0.29239 -0.236693,-0.51516 -0.529079,-0.51516 -0.257578,0 -0.44554,0.16708 -0.515155,0.34112 l -1.232196,3.18839 -1.218273,-3.15358 c -0.08354,-0.21581 -0.264539,-0.37593 -0.543002,-0.37593 -0.299347,0 -0.53604,0.22973 -0.53604,0.52908 0,0.0905 0.02785,0.17404 0.06265,0.25758 l 1.580274,3.78013 c 0.111385,0.26453 0.31327,0.42465 0.605656,0.42465 z"
       style="font-style:normal;font-variant:normal;font-weight:normal;font-stretch:normal;font-family:'Gotham Rounded';-inkscape-font-specification:'Gotham Rounded';text-align:center;text-anchor:middle;fill:#cccccc;fill-opacity:1;stroke-width:0.99999988"
       id="path1266" />
  </g>
</svg>
