<?xml version="1.0" encoding="UTF-8" standalone="no"?>
<!-- Created with Inkscape (http://www.inkscape.org/) -->

<svg
   xmlns:dc="http://purl.org/dc/elements/1.1/"
   xmlns:cc="http://creativecommons.org/ns#"
   xmlns:rdf="http://www.w3.org/1999/02/22-rdf-syntax-ns#"
   xmlns:svg="http://www.w3.org/2000/svg"
   xmlns="http://www.w3.org/2000/svg"
   xmlns:sodipodi="http://sodipodi.sourceforge.net/DTD/sodipodi-0.dtd"
   xmlns:inkscape="http://www.inkscape.org/namespaces/inkscape"
   width="23"
   height="23"
   viewBox="0 0 6.0854168 6.0854168"
   version="1.1"
   id="svg113936"
   inkscape:version="0.92.3 (2405546, 2018-03-11)"
   sodipodi:docname="ZZC-Tooth5Knob.svg">
  <defs
     id="defs113930" />
  <sodipodi:namedview
     id="base"
     pagecolor="#ffffff"
     bordercolor="#666666"
     borderopacity="1.0"
     inkscape:pageopacity="0.0"
     inkscape:pageshadow="2"
     inkscape:zoom="16"
     inkscape:cx="10.036004"
     inkscape:cy="9.3076091"
     inkscape:document-units="px"
     inkscape:current-layer="layer1"
     showgrid="true"
     fit-margin-top="0"
     fit-margin-left="0"
     fit-margin-right="0"
     fit-margin-bottom="0"
     inkscape:window-width="1655"
     inkscape:window-height="1161"
     inkscape:window-x="1466"
     inkscape:window-y="525"
     inkscape:window-maximized="0"
     units="px"
     inkscape:snap-global="false">
    <inkscape:grid
       type="xygrid"
       id="grid825" />
  </sodipodi:namedview>
  <metadata
     id="metadata113933">
    <rdf:RDF>
      <cc:Work
         rdf:about="">
        <dc:format>image/svg+xml</dc:format>
        <dc:type
           rdf:resource="http://purl.org/dc/dcmitype/StillImage" />
        <dc:title></dc:title>
      </cc:Work>
    </rdf:RDF>
  </metadata>
  <g
     inkscape:label="Layer 1"
     inkscape:groupmode="layer"
     id="layer1"
     transform="translate(-80.833177,-105.00474)">
    <circle
       cy="108.04741"
       cx="83.876152"
       id="circle11077"
       style="opacity:1;fill:#a0a0a0;fill-opacity:1;stroke:none;stroke-width:0.26499999;stroke-linecap:round;stroke-linejoin:bevel;stroke-miterlimit:0;stroke-dasharray:none;stroke-dashoffset:0;stroke-opacity:1"
       r="3.0427084" />
    <path
       sodipodi:nodetypes="ccscscscssccscsssc"
       inkscape:transform-center-y="-5.8828368e-06"
       inkscape:connector-curvature="0"
       id="path11079"
       d="m 81.119875,108.0524 c 0,-0.25552 0.3762,-1.41337 0.5264,-1.62009 0.0751,-0.10341 0.55339,-0.21636 0.81807,-0.41055 0.26466,-0.19418 0.43855,-0.84063 0.56005,-0.8801 0.12151,-0.0395 0.48662,-0.12941 0.85173,-0.12941 0.36511,0 0.73022,0.0899 0.85173,0.12941 0.12146,0.0395 0.2954,0.68594 0.56007,0.88012 0.26467,0.19418 0.74297,0.30717 0.81806,0.41053 0.15018,0.20672 0.5264,1.36457 0.5264,1.62009 0,0.12776 -0.37084,0.36699 -0.47193,0.68119 -0.1011,0.3142 0.0206,0.83554 -0.0545,0.93889 -0.15019,0.20673 -1.13511,0.92231 -1.37813,1.00126 -0.12146,0.0395 -0.52458,-0.2641 -0.85173,-0.2641 -0.32715,0 -0.73022,0.30361 -0.85173,0.2641 -0.24299,-0.0789 -1.22793,-0.79455 -1.37812,-1.00126 -0.0751,-0.10329 0.0466,-0.62469 -0.0545,-0.93889 -0.1011,-0.3142 -0.47192,-0.55343 -0.47192,-0.68119 z"
       inkscape:transform-center-x="-1.651462e-05"
       style="opacity:1;fill:#f2f2f2;fill-opacity:1;stroke:none;stroke-width:1.0583334;stroke-linecap:square;stroke-linejoin:miter;stroke-miterlimit:4;stroke-dasharray:3.17499998, 3.17499998;stroke-dashoffset:0;stroke-opacity:1" />
    <circle
       style="opacity:1;fill:#2f2f2f;fill-opacity:1;stroke:none;stroke-width:0.26500002;stroke-linecap:round;stroke-linejoin:bevel;stroke-miterlimit:0;stroke-dasharray:none;stroke-dashoffset:0;stroke-opacity:1"
       id="circle11081"
       cx="83.876228"
       cy="108.04758"
       r="1.3394619" />
    <circle
       r="1.2029421"
       cy="108.04758"
       cx="83.876358"
       id="circle11083"
       style="opacity:1;fill:#a0a0a0;fill-opacity:1;stroke:none;stroke-width:0.26500002;stroke-linecap:round;stroke-linejoin:bevel;stroke-miterlimit:0;stroke-dasharray:none;stroke-dashoffset:0;stroke-opacity:1"
       inkscape:transform-center-y="7.6610474e-05"
       inkscape:transform-center-x="-9.0784849e-06" />
    <path
       style="opacity:1;fill:#595959;fill-opacity:1;stroke:none;stroke-width:0.14419791;stroke-linecap:round;stroke-linejoin:round;stroke-miterlimit:4;stroke-dasharray:none;stroke-dashoffset:0;stroke-opacity:1"
       d="m 84.609225,107.62438 0.024,0.42314 -0.024,0.42313 -0.35442,0.23237 -0.37846,0.19076 -0.37846,-0.19076 -0.35442,-0.23237 -0.024,-0.42313 0.024,-0.42314 0.35442,-0.23238 0.37846,-0.19075 0.37846,0.19075 z"
       id="path11085"
       inkscape:connector-curvature="0" />
    <rect
       y="105.03107"
       x="83.519218"
       height="1.767302"
       width="0.7141304"
       id="rect11087"
       style="opacity:1;fill:#202321;fill-opacity:1;stroke:none;stroke-width:0.5291667;stroke-linecap:round;stroke-linejoin:round;stroke-miterlimit:4;stroke-dasharray:none;stroke-dashoffset:0;stroke-opacity:1" />
    <rect
       style="opacity:1;fill:#827e7d;fill-opacity:1;stroke:none;stroke-width:0.5291667;stroke-linecap:round;stroke-linejoin:round;stroke-miterlimit:4;stroke-dasharray:none;stroke-dashoffset:0;stroke-opacity:1"
       id="rect11089"
       width="0.49089432"
       height="1.6116151"
       x="83.630798"
       y="105.1363" />
  </g>
</svg>
