<?xml version="1.0" encoding="UTF-8" standalone="no"?>
<!-- Created with Inkscape (http://www.inkscape.org/) -->

<svg
   xmlns:dc="http://purl.org/dc/elements/1.1/"
   xmlns:cc="http://creativecommons.org/ns#"
   xmlns:rdf="http://www.w3.org/1999/02/22-rdf-syntax-ns#"
   xmlns:svg="http://www.w3.org/2000/svg"
   xmlns="http://www.w3.org/2000/svg"
   xmlns:sodipodi="http://sodipodi.sourceforge.net/DTD/sodipodi-0.dtd"
   xmlns:inkscape="http://www.inkscape.org/namespaces/inkscape"
   width="8.3556204mm"
   height="8.3556299mm"
   viewBox="0 0 8.3556203 8.3556298"
   version="1.1"
   id="svg15246"
   sodipodi:docname="ZZC-PJ301M.svg"
   inkscape:version="0.92.3 (2405546, 2018-03-11)">
  <defs
     id="defs15240">
    <clipPath
       id="clip89">
      <rect
         y="0"
         x="0"
         width="18"
         height="19"
         id="rect4864" />
    </clipPath>
    <clipPath
       id="clip90">
      <path
         inkscape:connector-curvature="0"
         d="m 0.898438,0.128906 h 16.25 v 17.882813 h -16.25 z m 0,0"
         id="path4861" />
    </clipPath>
    <mask
       id="mask44">
      <g
         style="filter:url(#alpha)"
         id="g4858"
         transform="matrix(0.26458333,0,0,0.26458333,89.358789,128.57765)">
        <rect
           x="0"
           y="0"
           width="3052.8701"
           height="3351.5"
           style="fill:#000000;fill-opacity:0.14999402;stroke:none"
           id="rect4856" />
      </g>
    </mask>
    <filter
       id="alpha"
       filterUnits="objectBoundingBox"
       x="0"
       y="0"
       width="1"
       height="1">
      <feColorMatrix
         type="matrix"
         in="SourceGraphic"
         values="0 0 0 0 1 0 0 0 0 1 0 0 0 0 1 0 0 0 1 0"
         id="feColorMatrix4149" />
    </filter>
    <clipPath
       id="clipPath17821">
      <rect
         y="0"
         x="0"
         width="18"
         height="19"
         id="rect17819" />
    </clipPath>
    <clipPath
       id="clipPath17825">
      <path
         inkscape:connector-curvature="0"
         d="m 0.898438,0.128906 h 16.25 v 17.882813 h -16.25 z m 0,0"
         id="path17823" />
    </clipPath>
    <clipPath
       id="clip87">
      <rect
         y="0"
         x="0"
         width="24"
         height="26"
         id="rect4848" />
    </clipPath>
    <clipPath
       id="clip88">
      <path
         inkscape:connector-curvature="0"
         d="m 0.683594,0.921875 h 22.679687 v 24.9375 H 0.683594 Z m 0,0"
         id="path4845" />
    </clipPath>
    <mask
       id="mask43">
      <g
         style="filter:url(#alpha)"
         id="g4842"
         transform="matrix(0.26458333,0,0,0.26458333,89.358789,128.57765)">
        <rect
           x="0"
           y="0"
           width="3052.8701"
           height="3351.5"
           style="fill:#000000;fill-opacity:0.14999402;stroke:none"
           id="rect4840" />
      </g>
    </mask>
    <filter
       id="filter17836"
       filterUnits="objectBoundingBox"
       x="0"
       y="0"
       width="1"
       height="1">
      <feColorMatrix
         type="matrix"
         in="SourceGraphic"
         values="0 0 0 0 1 0 0 0 0 1 0 0 0 0 1 0 0 0 1 0"
         id="feColorMatrix17834" />
    </filter>
    <clipPath
       id="clipPath17840">
      <rect
         y="0"
         x="0"
         width="24"
         height="26"
         id="rect17838" />
    </clipPath>
    <clipPath
       id="clipPath17844">
      <path
         inkscape:connector-curvature="0"
         d="m 0.683594,0.921875 h 22.679687 v 24.9375 H 0.683594 Z m 0,0"
         id="path17842" />
    </clipPath>
  </defs>
  <sodipodi:namedview
     id="base"
     pagecolor="#ffffff"
     bordercolor="#666666"
     borderopacity="1.0"
     inkscape:pageopacity="0.0"
     inkscape:pageshadow="2"
     inkscape:zoom="16"
     inkscape:cx="37.332062"
     inkscape:cy="24.042259"
     inkscape:document-units="mm"
     inkscape:current-layer="layer1"
     showgrid="true"
     inkscape:window-width="2099"
     inkscape:window-height="1380"
     inkscape:window-x="1331"
     inkscape:window-y="511"
     inkscape:window-maximized="0"
     units="px"
     fit-margin-top="0"
     fit-margin-left="0"
     fit-margin-right="0"
     fit-margin-bottom="0">
    <inkscape:grid
       type="xygrid"
       id="grid882" />
  </sodipodi:namedview>
  <metadata
     id="metadata15243">
    <rdf:RDF>
      <cc:Work
         rdf:about="">
        <dc:format>image/svg+xml</dc:format>
        <dc:type
           rdf:resource="http://purl.org/dc/dcmitype/StillImage" />
        <dc:title></dc:title>
      </cc:Work>
    </rdf:RDF>
  </metadata>
  <g
     inkscape:label="Layer 1"
     inkscape:groupmode="layer"
     id="layer1"
     transform="translate(-88.611154,-119.19859)">
    <g
       id="g868"
       transform="matrix(1.268239,0,0,1.268239,-39.523075,-32.553903)">
      <path
         inkscape:connector-curvature="0"
         id="path4035"
         d="m 104.32737,126.14588 c -1.76243,0 -3.19562,-1.43318 -3.19562,-3.19563 0,-1.76241 1.43319,-3.19562 3.19562,-3.19562 1.76243,0 3.19562,1.43321 3.19562,3.19562 0,1.76245 -1.43319,3.19563 -3.19562,3.19563"
         style="fill:#2b2c2c;fill-opacity:1;fill-rule:nonzero;stroke:#000000;stroke-width:0.19712383;stroke-miterlimit:4;stroke-dasharray:none;stroke-opacity:1" />
      <path
         inkscape:connector-curvature="0"
         id="path4037"
         d="m 104.32737,125.25164 c -1.26912,0 -2.30137,-1.03226 -2.30137,-2.30139 0,-1.26911 1.03225,-2.30135 2.30137,-2.30135 1.26912,0 2.30137,1.03224 2.30137,2.30135 0,1.26913 -1.03225,2.30139 -2.30137,2.30139"
         style="fill:#515454;fill-opacity:1;fill-rule:nonzero;stroke:#3a3a3a;stroke-width:0.19712383;stroke-miterlimit:4;stroke-dasharray:none;stroke-opacity:1" />
      <path
         inkscape:connector-curvature="0"
         id="path4039"
         d="m 105.74644,122.95025 c 0,0.78343 -0.63565,1.41909 -1.41907,1.41909 -0.78342,0 -1.41907,-0.63566 -1.41907,-1.41909 0,-0.78341 0.63565,-1.41904 1.41907,-1.41904 0.78342,0 1.41907,0.63563 1.41907,1.41904"
         style="fill:#000000;fill-opacity:1;fill-rule:nonzero;stroke:none;stroke-width:0.27816361" />
      <path
         style="fill:none;fill-opacity:1;fill-rule:nonzero;stroke:#000000;stroke-width:0.5291667;stroke-miterlimit:4;stroke-dasharray:none;stroke-opacity:1"
         d="m 104.32737,124.95699 c -1.10663,0 -2.00672,-0.90009 -2.00672,-2.00674 0,-1.10663 0.90009,-2.0067 2.00672,-2.0067 1.10664,0 2.00672,0.90007 2.00672,2.0067 0,1.10665 -0.90008,2.00674 -2.00672,2.00674"
         id="path4148"
         inkscape:connector-curvature="0" />
    </g>
  </g>
</svg>
