<?xml version="1.0" encoding="UTF-8" standalone="no"?>
<!-- Created with Inkscape (http://www.inkscape.org/) -->

<svg
   xmlns:dc="http://purl.org/dc/elements/1.1/"
   xmlns:cc="http://creativecommons.org/ns#"
   xmlns:rdf="http://www.w3.org/1999/02/22-rdf-syntax-ns#"
   xmlns:svg="http://www.w3.org/2000/svg"
   xmlns="http://www.w3.org/2000/svg"
   xmlns:sodipodi="http://sodipodi.sourceforge.net/DTD/sodipodi-0.dtd"
   xmlns:inkscape="http://www.inkscape.org/namespaces/inkscape"
   width="59"
   height="59"
   viewBox="0 0 15.610418 15.610418"
   version="1.1"
   id="svg113936"
   inkscape:version="0.92.3 (2405546, 2018-03-11)"
   sodipodi:docname="ZZC-BigKnob.svg">
  <defs
     id="defs113930" />
  <sodipodi:namedview
     id="base"
     pagecolor="#ffffff"
     bordercolor="#666666"
     borderopacity="1.0"
     inkscape:pageopacity="0.0"
     inkscape:pageshadow="2"
     inkscape:zoom="5.656854"
     inkscape:cx="-11.322828"
     inkscape:cy="14.186142"
     inkscape:document-units="px"
     inkscape:current-layer="layer1"
     showgrid="false"
     fit-margin-top="0"
     fit-margin-left="0"
     fit-margin-right="0"
     fit-margin-bottom="0"
     inkscape:window-width="2149"
     inkscape:window-height="992"
     inkscape:window-x="499"
     inkscape:window-y="927"
     inkscape:window-maximized="0"
     units="px"
     inkscape:snap-global="false">
    <inkscape:grid
       type="xygrid"
       id="grid825" />
  </sodipodi:namedview>
  <metadata
     id="metadata113933">
    <rdf:RDF>
      <cc:Work
         rdf:about="">
        <dc:format>image/svg+xml</dc:format>
        <dc:type
           rdf:resource="http://purl.org/dc/dcmitype/StillImage" />
        <dc:title />
      </cc:Work>
    </rdf:RDF>
  </metadata>
  <g
     inkscape:label="Layer 1"
     inkscape:groupmode="layer"
     id="layer1"
     transform="translate(-80.833177,-95.479731)">
    <circle
       r="7.2759995"
       cy="103.28494"
       cx="88.638481"
       id="circle2729"
       style="opacity:1;fill:#454545;fill-opacity:1;stroke:none;stroke-width:0.5291667;stroke-linecap:round;stroke-linejoin:round;stroke-miterlimit:4;stroke-dasharray:none;stroke-dashoffset:0;stroke-opacity:1" />
    <path
       style="opacity:1;fill:#cecece;fill-opacity:1;stroke:none;stroke-width:0.5291667;stroke-linecap:round;stroke-linejoin:round;stroke-miterlimit:4;stroke-dasharray:none;stroke-dashoffset:0;stroke-opacity:1"
       d="m 87.976934,95.479742 -0.529167,2.910417 v 0.558105 c -1.953053,0.536108 -3.306937,2.311386 -3.307291,4.336676 0.0018,1.8182 1.098078,3.45649 2.778125,4.15169 l 0.264583,3.38894 c 0.01141,0.14612 0.118004,0.26457 0.264583,0.26457 h 2.381251 c 0.146579,0 0.253165,-0.11845 0.264583,-0.26457 l 0.264583,-3.38636 c 1.680915,-0.69555 2.777365,-2.33513 2.778126,-4.15427 -0.0022,-2.02375 -1.355718,-3.796841 -3.307292,-4.332541 v -0.56224 l -0.529167,-2.910417 z"
       id="circle2731"
       inkscape:connector-curvature="0"
       sodipodi:nodetypes="cccccsssscccccc" />
    <rect
       style="opacity:1;fill:#191919;fill-opacity:1;stroke:none;stroke-width:0.52916676;stroke-linecap:round;stroke-linejoin:round;stroke-miterlimit:4;stroke-dasharray:none;stroke-dashoffset:0;stroke-opacity:1"
       id="rect2735"
       width="0.74060446"
       height="2.7663689"
       x="88.268188"
       y="95.479744" />
    <rect
       y="95.479744"
       x="88.383957"
       height="2.6458261"
       width="0.50909424"
       id="rect2737"
       style="opacity:1;fill:#808080;fill-opacity:1;stroke:none;stroke-width:0.5291667;stroke-linecap:round;stroke-linejoin:round;stroke-miterlimit:4;stroke-dasharray:none;stroke-dashoffset:0;stroke-opacity:1" />
    <path
       style="opacity:1;fill:#f2f2f2;fill-opacity:1;stroke:none;stroke-width:0.5291667;stroke-linecap:round;stroke-linejoin:round;stroke-miterlimit:4;stroke-dasharray:none;stroke-dashoffset:0;stroke-opacity:1"
       d="m 88.638393,98.390159 c -0.401584,0.0014 -0.801464,0.05229 -1.190626,0.151412 v 0.406693 c -1.953053,0.536108 -3.306937,2.311386 -3.307291,4.336676 0.0018,1.8182 1.098078,3.45649 2.778125,4.15169 l 0.264583,0.42478 c 0.549504,0.2085 0.867482,0.31632 1.455209,0.31832 0.587505,-7.9e-4 0.905477,-0.10744 1.455208,-0.31471 l 0.264583,-0.42581 c 1.680915,-0.69555 2.777365,-2.33513 2.778126,-4.15427 -0.0022,-2.02375 -1.355718,-3.796841 -3.307292,-4.332541 v -0.408761 c -0.389075,-0.09982 -0.788956,-0.151366 -1.190625,-0.153479 z"
       id="path1954"
       inkscape:connector-curvature="0"
       sodipodi:nodetypes="ccccccccccccc" />
  </g>
</svg>
