<?xml version="1.0" encoding="UTF-8" standalone="no"?>
<!-- Created with Inkscape (http://www.inkscape.org/) -->

<svg
   xmlns:dc="http://purl.org/dc/elements/1.1/"
   xmlns:cc="http://creativecommons.org/ns#"
   xmlns:rdf="http://www.w3.org/1999/02/22-rdf-syntax-ns#"
   xmlns:svg="http://www.w3.org/2000/svg"
   xmlns="http://www.w3.org/2000/svg"
   xmlns:sodipodi="http://sodipodi.sourceforge.net/DTD/sodipodi-0.dtd"
   xmlns:inkscape="http://www.inkscape.org/namespaces/inkscape"
   width="51"
   height="51"
   viewBox="0 0 13.493751 13.493751"
   version="1.1"
   id="svg113936"
   inkscape:version="0.92.3 (2405546, 2018-03-11)"
   sodipodi:docname="ZZC-PreciseKnob.svg">
  <defs
     id="defs113930" />
  <sodipodi:namedview
     id="base"
     pagecolor="#ffffff"
     bordercolor="#666666"
     borderopacity="1.0"
     inkscape:pageopacity="0.0"
     inkscape:pageshadow="2"
     inkscape:zoom="7.9999996"
     inkscape:cx="12.148035"
     inkscape:cy="24.873314"
     inkscape:document-units="px"
     inkscape:current-layer="layer1"
     showgrid="false"
     fit-margin-top="0"
     fit-margin-left="0"
     fit-margin-right="0"
     fit-margin-bottom="0"
     inkscape:window-width="2149"
     inkscape:window-height="992"
     inkscape:window-x="942"
     inkscape:window-y="917"
     inkscape:window-maximized="0"
     units="px"
     inkscape:snap-global="false">
    <inkscape:grid
       type="xygrid"
       id="grid825" />
  </sodipodi:namedview>
  <metadata
     id="metadata113933">
    <rdf:RDF>
      <cc:Work
         rdf:about="">
        <dc:format>image/svg+xml</dc:format>
        <dc:type
           rdf:resource="http://purl.org/dc/dcmitype/StillImage" />
        <dc:title></dc:title>
      </cc:Work>
    </rdf:RDF>
  </metadata>
  <g
     inkscape:label="Layer 1"
     inkscape:groupmode="layer"
     id="layer1"
     transform="translate(-80.833177,-97.596398)">
    <g
       transform="translate(24.080041,-114.4722)"
       id="g2241">
      <circle
         inkscape:transform-center-x="-1.4444092e-05"
         inkscape:transform-center-y="8.3578036e-05"
         style="opacity:1;fill:#454545;fill-opacity:1;stroke:none;stroke-width:0.26500002;stroke-linecap:round;stroke-linejoin:bevel;stroke-miterlimit:0;stroke-dasharray:none;stroke-dashoffset:0;stroke-opacity:1"
         id="circle2224"
         cx="63.500011"
         cy="218.81566"
         r="5.7394495" />
      <path
         inkscape:transform-center-x="-6.9999999e-06"
         inkscape:transform-center-y="3.00087e-05"
         inkscape:connector-curvature="0"
         id="path2226"
         d="m 63.500004,212.28022 c -0.223527,10e-4 -0.465589,0.007 -0.687512,0.0311 l -0.698335,3.90583 v 0.40601 a 2.5946499,2.5946499 0 0 0 -1.208556,2.19245 2.5946499,2.5946499 0 0 0 1.208556,2.19043 v 4.18866 c 0.455053,0.10139 0.919645,0.15379 1.385847,0.15632 0.466178,-0.002 0.93077,-0.0545 1.385847,-0.15564 v -4.18664 a 2.5946499,2.5946499 0 0 0 1.208556,-2.19313 2.5946499,2.5946499 0 0 0 -1.208556,-2.19042 v -0.40804 l -0.665858,-3.89296 c -0.23885,-0.0278 -0.479184,-0.0427 -0.719989,-0.044 z"
         style="opacity:1;fill:#cecece;fill-opacity:1;stroke:none;stroke-width:0.26500005;stroke-linecap:round;stroke-linejoin:bevel;stroke-miterlimit:0;stroke-dasharray:none;stroke-dashoffset:0;stroke-opacity:1" />
      <path
         id="path2229"
         d="m 63.500002,215.83233 c -0.497533,0 -0.965237,0.12361 -1.377694,0.339 l -0.0083,0.046 v 0.40566 a 2.5946498,2.5946498 0 0 0 -1.208196,2.19263 2.5946498,2.5946498 0 0 0 1.208196,2.19057 v 1.80867 a 4.2373252,4.2373252 0 0 0 1.385962,0.23823 4.2373252,4.2373252 0 0 0 1.385961,-0.23823 v -1.80609 a 2.5946498,2.5946498 0 0 0 1.208712,-2.19315 2.5946498,2.5946498 0 0 0 -1.208712,-2.19056 v -0.40773 l -0.0083,-0.046 c -0.412358,-0.21525 -0.88034,-0.339 -1.377693,-0.339 z"
         style="opacity:1;fill:#f2f2f2;fill-opacity:1;stroke:none;stroke-width:0.26500005;stroke-linecap:round;stroke-linejoin:bevel;stroke-miterlimit:0;stroke-dasharray:none;stroke-dashoffset:0;stroke-opacity:1"
         inkscape:connector-curvature="0" />
      <rect
         inkscape:transform-center-y="-4.9377997"
         inkscape:transform-center-x="-3.7123659e-05"
         style="opacity:1;fill:#191919;fill-opacity:1;stroke:none;stroke-width:0.5291667;stroke-linecap:round;stroke-linejoin:round;stroke-miterlimit:4;stroke-dasharray:none;stroke-dashoffset:0;stroke-opacity:1"
         id="rect2231"
         width="0.7931667"
         height="3.1957057"
         x="63.103451"
         y="212.27992" />
      <rect
         inkscape:transform-center-y="-5.0075021"
         inkscape:transform-center-x="-3.9001206e-05"
         y="212.27992"
         x="63.247883"
         height="3.0563009"
         width="0.50430632"
         id="rect2233"
         style="opacity:1;fill:#827e7d;fill-opacity:1;stroke:none;stroke-width:0.5291667;stroke-linecap:round;stroke-linejoin:round;stroke-miterlimit:4;stroke-dasharray:none;stroke-dashoffset:0;stroke-opacity:1" />
      <circle
         inkscape:transform-center-x="-1.4444092e-05"
         inkscape:transform-center-y="8.3578036e-05"
         r="1.7013556"
         cy="218.81566"
         cx="63.500011"
         id="circle2235"
         style="opacity:1;fill:#2f2f2f;fill-opacity:1;stroke:none;stroke-width:0.26500002;stroke-linecap:round;stroke-linejoin:bevel;stroke-miterlimit:0;stroke-dasharray:none;stroke-dashoffset:0;stroke-opacity:1" />
      <circle
         inkscape:transform-center-x="-1.4444092e-05"
         inkscape:transform-center-y="9.8836825e-05"
         style="opacity:1;fill:#a0a0a0;fill-opacity:1;stroke:none;stroke-width:0.26500002;stroke-linecap:round;stroke-linejoin:bevel;stroke-miterlimit:0;stroke-dasharray:none;stroke-dashoffset:0;stroke-opacity:1"
         id="circle2237"
         cx="63.500011"
         cy="218.81567"
         r="1.5519415" />
      <path
         inkscape:connector-curvature="0"
         id="path2239"
         d="m 64.445511,218.26968 0.03099,0.5459 -0.03099,0.54589 -0.45725,0.29978 -0.488256,0.24611 -0.488257,-0.24611 -0.457249,-0.29978 -0.031,-0.54589 0.031,-0.5459 0.457249,-0.2998 0.488257,-0.24609 0.488256,0.24609 z"
         style="opacity:1;fill:#595959;fill-opacity:1;stroke:none;stroke-width:0.14419791;stroke-linecap:round;stroke-linejoin:round;stroke-miterlimit:4;stroke-dasharray:none;stroke-dashoffset:0;stroke-opacity:1" />
    </g>
  </g>
</svg>
