<?xml version="1.0" encoding="UTF-8"?>
<svg width="61" height="61" version="1.1" viewBox="0 0 16.14 16.14" xmlns="http://www.w3.org/2000/svg">
 <path d="m8.071 15.78c2.175 0 1.236-2.094 2.372-2.75 1.142-0.5491 2.059-1.476 2.595-2.624 0.2192-0.3761 0.5911-0.2678 0.7438-0.7322 0.1642-0.4996 0.2531-1.033 0.2531-1.588 0-0.5646-0.09195-1.108-0.262-1.615-0.1509-0.4503-0.5101-0.3628-0.7476-0.7366-0.5516-1.162-1.494-2.094-2.662-2.632-0.3459-0.2209-0.2535-0.5792-0.7072-0.7283-0.4995-0.1642-1.033-0.2531-1.588-0.2531-0.5646 0-1.108 0.0919-1.615 0.262-0.4475 0.15-0.3639 0.5057-0.7299 0.7433-1.163 0.5505-2.095 1.492-2.634 2.66-0.2205 0.3536-0.5821 0.2574-0.7321 0.7139-0.1642 0.4996-0.2531 1.033-0.2531 1.588 0 0.5646 0.09193 1.108 0.262 1.615 0.1525 0.4551 0.5175 0.3609 0.7548 0.7488 0.5472 1.142 1.472 2.06 2.618 2.598 1.089 0.6236 0.1555 2.731 2.331 2.731z" fill="#e7e7cf" stroke="#000000" stroke-linecap="round" stroke-linejoin="round" stroke-miterlimit="0" stroke-opacity=".5371" stroke-width=".09901"/>
 <ellipse cx="8.071" cy="14.74" rx=".5488" ry=".5489" fill="#45453f" stroke="#000000" stroke-linecap="round" stroke-linejoin="round" stroke-miterlimit="0" stroke-opacity=".6105" stroke-width=".132"/>
 <path d="m3.274 8.072c4e-6 -2.649 2.147-4.797 4.796-4.797h8.996e-4c2.648 4.604e-4 4.795 2.148 4.795 4.797v0.00101c-4.76e-4 1.32-0.5347 2.52-1.405 3.391-0.8706 0.8704-2.071 1.404-3.391 1.404h-8.996e-4c-1.32-2.35e-4 -2.52-0.5345-3.391-1.405-0.8705-0.8707-1.404-2.072-1.404-3.391" fill="#a2a287"/>
 <path d="m4.956 8.071a3.114 3.115 0 0 1 3.114-3.115 3.114 3.115 0 0 1 3.114 3.115 3.114 3.115 0 0 1-3.114 3.115 3.114 3.115 0 0 1-3.114-3.115z" fill="#000000" fill-opacity=".08772" stroke="#000000" stroke-linecap="round" stroke-linejoin="round" stroke-miterlimit="0" stroke-opacity=".2561" stroke-width=".09901"/>
 <path d="m3.269 8.071a4.801 4.802 0 0 1 4.801-4.802 4.801 4.802 0 0 1 4.801 4.802 4.801 4.802 0 0 1-4.801 4.802 4.801 4.802 0 0 1-4.801-4.802z" fill="none" stroke="#000000" stroke-linecap="round" stroke-linejoin="round" stroke-miterlimit="0" stroke-opacity=".3825" stroke-width=".09901"/>
</svg>
