<?xml version="1.0" encoding="UTF-8" standalone="no"?>
<!-- Created with Inkscape (http://www.inkscape.org/) -->

<svg
   xmlns:dc="http://purl.org/dc/elements/1.1/"
   xmlns:cc="http://creativecommons.org/ns#"
   xmlns:rdf="http://www.w3.org/1999/02/22-rdf-syntax-ns#"
   xmlns:svg="http://www.w3.org/2000/svg"
   xmlns="http://www.w3.org/2000/svg"
   xmlns:sodipodi="http://sodipodi.sourceforge.net/DTD/sodipodi-0.dtd"
   xmlns:inkscape="http://www.inkscape.org/namespaces/inkscape"
   width="27"
   height="27"
   viewBox="0 0 7.1437501 7.1437501"
   version="1.1"
   id="svg113936"
   inkscape:version="0.92.3 (2405546, 2018-03-11)"
   sodipodi:docname="ZZC-Big-Knob-Inner.svg">
  <defs
     id="defs113930" />
  <sodipodi:namedview
     id="base"
     pagecolor="#ffffff"
     bordercolor="#666666"
     borderopacity="1.0"
     inkscape:pageopacity="0.0"
     inkscape:pageshadow="2"
     inkscape:zoom="90.509668"
     inkscape:cx="11.234252"
     inkscape:cy="24.963435"
     inkscape:document-units="px"
     inkscape:current-layer="layer1"
     showgrid="false"
     fit-margin-top="0"
     fit-margin-left="0"
     fit-margin-right="0"
     fit-margin-bottom="0"
     inkscape:window-width="2317"
     inkscape:window-height="1579"
     inkscape:window-x="1014"
     inkscape:window-y="197"
     inkscape:window-maximized="0"
     units="px"
     inkscape:snap-global="false">
    <inkscape:grid
       type="xygrid"
       id="grid825" />
  </sodipodi:namedview>
  <metadata
     id="metadata113933">
    <rdf:RDF>
      <cc:Work
         rdf:about="">
        <dc:format>image/svg+xml</dc:format>
        <dc:type
           rdf:resource="http://purl.org/dc/dcmitype/StillImage" />
        <dc:title />
      </cc:Work>
    </rdf:RDF>
  </metadata>
  <g
     inkscape:label="Layer 1"
     inkscape:groupmode="layer"
     id="layer1"
     transform="translate(-80.833177,-103.94641)">
    <path
       style="opacity:1;fill:#424747;fill-opacity:1;stroke:none;stroke-width:0.5291667;stroke-linecap:round;stroke-linejoin:round;stroke-miterlimit:4;stroke-dasharray:none;stroke-dashoffset:0;stroke-opacity:1"
       d="m 87.733558,107.51823 c -10e-7,1.83834 -1.490272,3.32861 -3.328613,3.32861 -1.838341,0 -3.328611,-1.49027 -3.328612,-3.32861 -4e-6,-1.70006 1.274491,-3.10244 2.920142,-3.30381 0.133863,-0.0164 0.270181,0.23977 0.40847,0.23977 0.136496,0 0.271073,-0.25636 0.403264,-0.2404 1.648169,0.19904 2.925353,1.60259 2.925349,3.30444 z"
       id="circle5179"
       inkscape:connector-curvature="0"
       sodipodi:nodetypes="cscsssc" />
    <path
       inkscape:connector-curvature="0"
       id="path5181"
       d="m 84.404947,104.45436 c -0.135587,2e-4 -0.270869,-0.25591 -0.405097,-0.23925 -0.176025,0.0218 -0.350238,0.0577 -0.520953,0.10747 v 6.39083 c 0.300867,0.0878 0.612629,0.13271 0.92605,0.13333 0.313393,-4.6e-4 0.625152,-0.0452 0.92604,-0.13282 v -6.39082 c -0.170075,-0.0496 -0.343632,-0.0856 -0.519002,-0.10753 -0.13486,-0.0169 -0.270792,0.23906 -0.407038,0.23879 z"
       style="opacity:1;fill:#606868;fill-opacity:1;stroke:none;stroke-width:0.5291667;stroke-linecap:round;stroke-linejoin:round;stroke-miterlimit:4;stroke-dasharray:none;stroke-dashoffset:0;stroke-opacity:1"
       sodipodi:nodetypes="cscccccsc" />
    <path
       inkscape:connector-curvature="0"
       id="rect5185"
       d="m 84.395354,104.16757 c -0.128548,0.001 -0.25692,0.01 -0.384472,0.0258 v 2.91094 h 0.788581 v -2.90887 c -0.126826,-0.0166 -0.254506,-0.026 -0.382405,-0.0279 z"
       style="opacity:1;fill:#ffffff;fill-opacity:1;stroke:none;stroke-width:0.67067653;stroke-linecap:round;stroke-linejoin:round;stroke-miterlimit:4;stroke-dasharray:none;stroke-dashoffset:0;stroke-opacity:1"
       sodipodi:nodetypes="ccccccc" />
  </g>
</svg>
