<?xml version="1.0" encoding="UTF-8" standalone="no"?>
<svg
   xmlns:dc="http://purl.org/dc/elements/1.1/"
   xmlns:cc="http://creativecommons.org/ns#"
   xmlns:rdf="http://www.w3.org/1999/02/22-rdf-syntax-ns#"
   xmlns:svg="http://www.w3.org/2000/svg"
   xmlns="http://www.w3.org/2000/svg"
   xmlns:sodipodi="http://sodipodi.sourceforge.net/DTD/sodipodi-0.dtd"
   xmlns:inkscape="http://www.inkscape.org/namespaces/inkscape"
   width="41"
   height="41"
   viewBox="0 0 10.847913 10.847913"
   version="1.1"
   id="svg113936"
   inkscape:version="0.92.5 (2060ec1f9f, 2020-04-08)"
   sodipodi:docname="ZZC-Cross-Knob-XX.svg">
  <sodipodi:namedview
     id="base"
     pagecolor="#ffffff"
     bordercolor="#666666"
     borderopacity="1.0"
     inkscape:pageopacity="0.0"
     inkscape:pageshadow="2"
     inkscape:zoom="11.313708"
     inkscape:cx="17.925242"
     inkscape:cy="-2.8819073"
     inkscape:document-units="px"
     inkscape:current-layer="layer1"
     showgrid="false"
     fit-margin-top="0"
     fit-margin-left="0"
     fit-margin-right="0"
     fit-margin-bottom="0"
     inkscape:window-width="1958"
     inkscape:window-height="1494"
     inkscape:window-x="1501"
     inkscape:window-y="248"
     inkscape:window-maximized="0"
     units="px"
     inkscape:snap-global="false"
     inkscape:document-rotation="0"
     showguides="true"
     inkscape:snap-bbox="true"
     inkscape:snap-bbox-midpoints="true"
     inkscape:snap-object-midpoints="true"
     inkscape:guide-bbox="true"
     inkscape:bbox-paths="true"
     inkscape:bbox-nodes="true"
     inkscape:snap-bbox-edge-midpoints="true"
     inkscape:object-paths="true"
     inkscape:snap-intersection-paths="true"
     inkscape:snap-smooth-nodes="true"
     inkscape:snap-midpoints="true"
     inkscape:snap-center="true">
    <inkscape:grid
       id="grid825"
       type="xygrid" />
    <sodipodi:guide
       position="-2.055718,7.808847"
       orientation="0,1"
       id="guide882"
       inkscape:locked="false" />
    <sodipodi:guide
       position="7.8052092,15.610414"
       orientation="1,0"
       id="guide886"
       inkscape:locked="false" />
    <sodipodi:guide
       position="7.8052092,11.099355"
       orientation="0,1"
       id="guide888"
       inkscape:locked="false" />
  </sodipodi:namedview>
  <defs
     id="defs113930" />
  <metadata
     id="metadata113933">
    <rdf:RDF>
      <cc:Work
         rdf:about="">
        <dc:format>image/svg+xml</dc:format>
        <dc:type
           rdf:resource="http://purl.org/dc/dcmitype/StillImage" />
        <dc:title></dc:title>
      </cc:Work>
    </rdf:RDF>
  </metadata>
  <g
     transform="translate(-80.833177,-102.88812)"
     id="layer1"
     inkscape:groupmode="layer"
     inkscape:label="Layer 1">
    <path
       inkscape:transform-center-y="-2.1502116"
       inkscape:transform-center-x="3.7883435e-05"
       style="fill:#e7e7cf;fill-opacity:1;stroke:#000000;stroke-width:0.07937495;stroke-linecap:round;stroke-linejoin:round;stroke-miterlimit:0;stroke-dasharray:none;stroke-dashoffset:0;stroke-opacity:0.53710196"
       d="m 86.256559,103.09426 c -1.472925,0 -0.836954,1.41947 -1.606352,1.86428 -0.773146,0.37225 -1.393936,1.00084 -1.75709,1.77917 -0.148387,0.25501 -0.400205,0.18155 -0.50358,0.49643 -0.111197,0.33871 -0.171359,0.70061 -0.171359,1.07659 0,0.38281 0.06226,0.751 0.177359,1.095 0.102146,0.30529 0.345377,0.24597 0.506203,0.49943 0.373444,0.78784 1.011225,1.41937 1.802086,1.78443 0.234174,0.14977 0.171664,0.39266 0.47883,0.4938 0.338224,0.11136 0.699595,0.17161 1.075027,0.17161 0.382246,0 0.749901,-0.0623 1.0934,-0.17762 0.303021,-0.10168 0.246379,-0.34285 0.494205,-0.50393 0.787143,-0.37326 1.418427,-1.01145 1.78371,-1.80321 0.149294,-0.23975 0.394093,-0.17452 0.495705,-0.48404 0.111198,-0.33871 0.17136,-0.70061 0.17136,-1.07659 0,-0.38281 -0.06226,-0.751 -0.177359,-1.095 -0.103232,-0.30853 -0.350358,-0.24466 -0.511079,-0.50769 -0.370488,-0.77421 -0.996788,-1.39638 -1.772836,-1.76115 -0.737425,-0.42283 -0.105304,-1.85151 -1.57823,-1.85151 z"
       id="path2344"
       inkscape:connector-curvature="0"
       sodipodi:nodetypes="zcccscccssccccscccz" />
    <ellipse
       ry="0.37213317"
       rx="0.37159142"
       inkscape:transform-center-y="-18.885149"
       inkscape:transform-center-x="0.0025642799"
       style="fill:#45453f;fill-opacity:1;stroke:#000000;stroke-width:0.10583327;stroke-linecap:round;stroke-linejoin:round;stroke-miterlimit:0;stroke-dasharray:none;stroke-dashoffset:0;stroke-opacity:0.61052605"
       id="ellipse2348"
       cx="86.256538"
       cy="103.79842" />
    <path
       inkscape:connector-curvature="0"
       d="m 89.522402,108.31723 c 0,1.8036 -1.461922,3.2657 -3.265287,3.2657 -2.01e-4,0 -4.02e-4,0 -6.02e-4,0 -1.803089,-3.3e-4 -3.264681,-1.46231 -3.264683,-3.2657 0,-4e-4 0,-6.7e-4 0,-6.7e-4 3.28e-4,-0.89842 0.364047,-1.71577 0.956776,-2.30838 0.59273,-0.59259 1.410121,-0.9561 2.308509,-0.9561 2.01e-4,0 4.03e-4,0 6.03e-4,0 0.898452,1.6e-4 1.715855,0.36388 2.3085,0.9567 0.592647,0.59281 0.956184,1.41039 0.956184,2.30899 0,0 0,0 0,0 0,0 0,0 0,0"
       style="opacity:1;fill:#a2a287;fill-opacity:1;stroke:none;stroke-width:0.07091668;stroke-linecap:round;stroke-linejoin:round;stroke-miterlimit:0;stroke-dasharray:none;stroke-dashoffset:0;stroke-opacity:0.38245604"
       id="path931" />
    <path
       inkscape:connector-curvature="0"
       d="m 89.432785,108.3171 c 0,1.75408 -1.421798,3.17605 -3.17567,3.17605 -1.76e-4,0 -3.52e-4,0 -5.28e-4,0 -1.753629,-2.9e-4 -3.175137,-1.42215 -3.175139,-3.17605 0,-3.7e-4 0,-6.7e-4 0,-6.7e-4 2.85e-4,-0.87061 0.352101,-1.66683 0.930478,-2.24509 0.578377,-0.57828 1.374617,-0.92991 2.245189,-0.92991 1.76e-4,0 3.52e-4,0 5.28e-4,0 0.870628,1.4e-4 1.666878,0.35195 2.245182,0.93042 0.578303,0.57846 0.92996,1.37485 0.92996,2.24562 0,0 0,0 0,0 0,0 0,0 0,0"
       style="opacity:1;fill:#a4a489;fill-opacity:1;stroke:none;stroke-width:0.07091668;stroke-linecap:round;stroke-linejoin:round;stroke-miterlimit:0;stroke-dasharray:none;stroke-dashoffset:0;stroke-opacity:0.38245604"
       id="path933" />
    <path
       inkscape:connector-curvature="0"
       d="m 89.343168,108.31696 c 0,1.70458 -1.381676,3.08641 -3.086053,3.08641 -1.5e-4,0 -3.02e-4,0 -4.53e-4,0 -1.704168,-2.5e-4 -3.085596,-1.38199 -3.085598,-3.08641 0,-3.1e-4 0,-6.1e-4 0,-6.7e-4 2.46e-4,-0.84281 0.340157,-1.61789 0.904182,-2.18183 0.564024,-0.56394 1.339112,-0.90369 2.181869,-0.90369 1.51e-4,0 3.03e-4,0 4.53e-4,0 0.842804,1.2e-4 1.617902,0.34003 2.181864,0.90414 0.563959,0.5641 0.903736,1.33935 0.903736,2.18228 0,0 0,0 0,0 0,0 0,0 0,0"
       style="opacity:1;fill:#a6a68c;fill-opacity:1;stroke:none;stroke-width:0.07091668;stroke-linecap:round;stroke-linejoin:round;stroke-miterlimit:0;stroke-dasharray:none;stroke-dashoffset:0;stroke-opacity:0.38245604"
       id="path935" />
    <path
       inkscape:connector-curvature="0"
       d="m 89.253551,108.3168 c 0,1.65509 -1.341553,2.99681 -2.996436,2.9968 -1.26e-4,0 -2.51e-4,0 -3.76e-4,0 -1.654711,-1.9e-4 -2.996055,-1.34182 -2.996057,-2.9968 0,-2.5e-4 0,-4.9e-4 0,-6.7e-4 2.05e-4,-0.815 0.328211,-1.56894 0.877883,-2.11855 0.549672,-0.54962 1.303609,-0.8775 2.11855,-0.8775 1.26e-4,0 2.52e-4,0 3.77e-4,0 0.814981,9e-5 1.568928,0.32812 2.118547,0.87787 0.549616,0.54974 0.877512,1.30382 0.877512,2.11892 0,0 0,0 0,0 0,0 0,0 0,0"
       style="opacity:1;fill:#a8a88e;fill-opacity:1;stroke:none;stroke-width:0.07091668;stroke-linecap:round;stroke-linejoin:round;stroke-miterlimit:0;stroke-dasharray:none;stroke-dashoffset:0;stroke-opacity:0.38245604"
       id="path937" />
    <path
       inkscape:connector-curvature="0"
       d="m 89.163935,108.31666 c 0,1.60559 -1.301431,2.90717 -2.90682,2.90717 -1e-4,0 -2.01e-4,0 -3.02e-4,0 -1.605249,-1.7e-4 -2.906511,-1.30168 -2.906514,-2.90717 0,-2e-4 0,-4.1e-4 0,-6.1e-4 1.64e-4,-0.78718 0.316265,-1.51999 0.851585,-2.05528 0.535318,-0.53528 1.268105,-0.85129 2.055231,-0.85129 1.01e-4,0 2.01e-4,0 3.03e-4,0 0.787156,8e-5 1.51995,0.31619 2.055226,0.8516 0.535274,0.53539 0.851291,1.26831 0.851291,2.05558 0,0 0,0 0,0 0,0 0,0 0,0"
       style="opacity:1;fill:#aaaa91;fill-opacity:1;stroke:none;stroke-width:0.07091668;stroke-linecap:round;stroke-linejoin:round;stroke-miterlimit:0;stroke-dasharray:none;stroke-dashoffset:0;stroke-opacity:0.38245604"
       id="path939" />
    <path
       inkscape:connector-curvature="0"
       d="m 89.074317,108.3165 c 0,1.5561 -1.261307,2.81755 -2.817202,2.81755 -7.5e-5,0 -1.5e-4,0 -2.25e-4,0 -1.555791,-1.4e-4 -2.81697,-1.26153 -2.816973,-2.81755 0,-1.4e-4 0,-3.1e-4 0,-4.5e-4 1.21e-4,-0.75937 0.30432,-1.47104 0.825286,-1.99199 0.520966,-0.52097 1.232602,-0.82509 1.991912,-0.82509 7.6e-5,0 1.51e-4,0 2.26e-4,0 0.759335,6e-5 1.470975,0.30427 1.99191,0.82531 0.520939,0.52104 0.825066,1.23279 0.825066,1.99224 0,0 0,0 0,0 0,0 0,0 0,0"
       style="opacity:1;fill:#acac93;fill-opacity:1;stroke:none;stroke-width:0.07091668;stroke-linecap:round;stroke-linejoin:round;stroke-miterlimit:0;stroke-dasharray:none;stroke-dashoffset:0;stroke-opacity:0.38245604"
       id="path941" />
    <path
       inkscape:connector-curvature="0"
       d="m 88.9847,108.31636 c 0,1.50658 -1.221185,2.72791 -2.727585,2.72791 -4.9e-5,0 -1e-4,0 -1.5e-4,0 -1.506331,-8e-5 -2.727429,-1.22139 -2.727432,-2.72791 0,-1e-4 0,-2.1e-4 10e-7,-3.1e-4 8.1e-5,-0.73156 0.292375,-1.4221 0.798988,-1.92871 0.506615,-0.50664 1.197099,-0.79889 1.928593,-0.79889 5e-5,0 1.01e-4,0 1.51e-4,0 0.731511,4e-5 1.421999,0.29236 1.928592,0.79904 0.506595,0.50668 0.798842,1.19726 0.798842,1.92888 0,0 0,0 0,0 0,0 0,0 0,0"
       style="opacity:1;fill:#aeae96;fill-opacity:1;stroke:none;stroke-width:0.07091668;stroke-linecap:round;stroke-linejoin:round;stroke-miterlimit:0;stroke-dasharray:none;stroke-dashoffset:0;stroke-opacity:0.38245604"
       id="path943" />
    <path
       inkscape:connector-curvature="0"
       d="m 88.895083,108.31621 c -8e-6,1.45708 -1.181061,2.63828 -2.637968,2.63828 -2.5e-5,0 -4.9e-5,0 -7.5e-5,0 -1.45687,-4e-5 -2.637886,-1.18122 -2.637889,-2.63828 0,-6e-5 0,-1e-4 0,-1.4e-4 4.1e-5,-0.70376 0.280431,-1.37315 0.772691,-1.86546 0.49226,-0.4923 1.161594,-0.77269 1.865273,-0.77269 2.5e-5,0 5e-5,0 7.6e-5,0 0.703688,2e-5 1.373023,0.28044 1.865274,0.77276 0.492252,0.49232 0.772618,1.16175 0.772618,1.86553 0,0 0,0 0,0 0,0 0,0 0,0"
       style="opacity:1;fill:#b0b098;fill-opacity:1;stroke:none;stroke-width:0.07091668;stroke-linecap:round;stroke-linejoin:round;stroke-miterlimit:0;stroke-dasharray:none;stroke-dashoffset:0;stroke-opacity:0.38245604"
       id="path945" />
    <path
       inkscape:transform-center-y="0.0055036038"
       id="path6189"
       d="m 88.377337,108.31739 a 2.1202188,2.120479 0 0 1 -2.120219,2.12049 2.1202188,2.120479 0 0 1 -2.120218,-2.12049 2.1202188,2.120479 0 0 1 2.120218,-2.12047 2.1202188,2.120479 0 0 1 2.120219,2.12047 z"
       style="opacity:1;fill:#000000;fill-opacity:0.08771931;stroke:#000000;stroke-width:0.05318767;stroke-linecap:round;stroke-linejoin:round;stroke-miterlimit:0;stroke-dasharray:none;stroke-dashoffset:0;stroke-opacity:0.25614002"
       inkscape:connector-curvature="0"
       inkscape:transform-center-x="1.3538936e-06" />
    <path
       inkscape:transform-center-y="0.0054479141"
       inkscape:transform-center-x="-2.7609699e-06"
       inkscape:connector-curvature="0"
       style="opacity:1;fill:none;fill-opacity:1;stroke:#000000;stroke-width:0.05318767;stroke-linecap:round;stroke-linejoin:round;stroke-miterlimit:0;stroke-dasharray:none;stroke-dashoffset:0;stroke-opacity:0.38245604"
       d="m 89.52591,108.31733 a 3.268787,3.2691885 0 0 1 -3.268792,3.26919 3.268787,3.2691885 0 0 1 -3.268787,-3.26919 3.268787,3.2691885 0 0 1 3.268787,-3.26917 3.268787,3.2691885 0 0 1 3.268792,3.26917 z"
       id="path2237" />
  </g>
</svg>
