<?xml version="1.0" encoding="UTF-8"?>
<svg width="23" height="23" version="1.1" viewBox="0 0 6.085 6.085" xmlns="http://www.w3.org/2000/svg">
 <circle cx="3.043" cy="3.043" r="2.996" fill="#959584" stroke="#000000" stroke-linecap="round" stroke-linejoin="round" stroke-miterlimit="0" stroke-opacity=".5371" stroke-width=".06757"/>
 <path d="m3.65 0.1669c-0.1262-0.0267-0.2539-0.0421-0.3819-0.052-0.06599 0.0894-0.18 0.1292-0.2873 0.1004-0.05938-0.0161-0.1115-0.0519-0.1477-0.1017-0.128 9e-3 -0.2559 0.0235-0.3822 0.0493-0.4457 0.4161-0.9633 0.7366-1.59 0.9126-0.08777 0.0974-0.166 0.2021-0.2396 0.3098 0.02467 0.0564 0.02936 0.1194 0.0133 0.1788-0.02937 0.107-0.1212 0.1852-0.2315 0.197-0.05709 0.1176-0.1092 0.2376-0.1503 0.3623 0.0961 0.6122 0.116 1.223-5e-3 1.831 0.0404 0.1233 0.09158 0.2421 0.1476 0.3585 0.01383 0.00201 0.02753 4e-3 0.04097 8e-3 0.1439 0.0391 0.2289 0.1874 0.1898 0.3313-0.0036 0.0129-0.0081 0.0255-0.01355 0.0379 0.07267 0.107 0.1497 0.211 0.2362 0.3079 0.5888 0.1807 1.124 0.474 1.586 0.921 0.1261 0.0267 0.2536 0.042 0.3816 0.0519 0.06606-0.0892 0.18-0.1289 0.2872-0.1 0.05924 0.0161 0.1112 0.0519 0.1473 0.1016 0.1279-9e-3 0.2555-0.0233 0.3817-0.0491 0.4734-0.4238 1.013-0.7087 1.591-0.9131 0.08777-0.0974 0.166-0.2021 0.2396-0.3098-0.02467-0.0564-0.02936-0.1194-0.0133-0.1788 0.02937-0.107 0.1212-0.1852 0.2315-0.197 0.05709-0.1176 0.1092-0.2376 0.1503-0.3623-0.1299-0.6161-0.108-1.225 0.0048-1.83-0.04044-0.1236-0.09162-0.2426-0.1478-0.3592-0.0136-2e-3 -0.02706-3e-3 -0.04028-7e-3 -0.1438-0.0388-0.229-0.1868-0.1904-0.3307 0.0037-0.013 0.0083-0.0258 0.01399-0.038-0.07269-0.1071-0.1499-0.2113-0.2365-0.3083-0.585-0.1994-1.114-0.506-1.586-0.9209z" fill="#eaead4" stroke="#000000" stroke-linecap="round" stroke-linejoin="round" stroke-miterlimit="0" stroke-opacity=".4876" stroke-width=".0901"/>
 <ellipse transform="scale(1,-1)" cx="3.043" cy="-3.043" rx="2.027" ry="2.029" fill="#dfdfc7" stroke="#959584" stroke-linecap="round" stroke-linejoin="round" stroke-width=".1126"/>
</svg>
