<?xml version="1.0" encoding="UTF-8"?>
<svg width="19" height="19" version="1.1" viewBox="0 0 5.027 5.027" xmlns="http://www.w3.org/2000/svg">
 <circle cx="2.514" cy="2.514" r="2.456" fill="#959584" stroke="#000000" stroke-linecap="round" stroke-linejoin="round" stroke-miterlimit="0" stroke-opacity=".5371" stroke-width=".0554"/>
 <path d="m3.012 0.1557c-0.3186-0.0826-0.6464-0.0834-0.9831-3e-3 -0.3654 0.3412-0.7898 0.6039-1.303 0.7482-0.2369 0.2561-0.3879 0.549-0.4986 0.8592 0.07879 0.502 0.09513 1.003-0.0041 1.501 0.0974 0.3424 0.269 0.6213 0.4928 0.8553 0.4827 0.1481 0.9215 0.3886 1.3 0.7551 0.3356 0.0831 0.6646 0.101 0.9821 3e-3 0.3881-0.3474 0.8304-0.581 1.304-0.7486 0.2362-0.2339 0.407-0.5168 0.4986-0.8592-0.1065-0.5052-0.08858-1.005 0.0039-1.501-0.1012-0.3245-0.2474-0.6209-0.4927-0.8553-0.4796-0.1635-0.9131-0.4148-1.3-0.755z" fill="#eaead4" stroke="#000000" stroke-linecap="round" stroke-linejoin="round" stroke-miterlimit="0" stroke-opacity=".4876" stroke-width=".07387"/>
 <ellipse transform="scale(1,-1)" cx="2.514" cy="-2.514" rx="1.662" ry="1.663" fill="#dfdfc7" stroke="#959584" stroke-linecap="round" stroke-linejoin="round" stroke-width=".09234"/>
</svg>
