<?xml version="1.0" encoding="UTF-8"?>
<svg width="27" height="27" version="1.1" viewBox="0 0 7.144 7.144" xmlns="http://www.w3.org/2000/svg">
 <circle cx="3.572" cy="3.572" r="3.519" fill="#959584" stroke="#000000" stroke-linecap="round" stroke-linejoin="round" stroke-miterlimit="0" stroke-opacity=".5371" stroke-width=".07938"/>
 <path d="m4.286 0.1938c-0.1483-0.0314-0.2982-0.0494-0.4486-0.0611-0.07752 0.105-0.2114 0.1518-0.3374 0.1179-0.06975-0.0189-0.131-0.061-0.1735-0.1195-0.1504 0.0107-0.3006 0.0276-0.4489 0.0579-0.5235 0.4888-1.132 0.8653-1.867 1.072-0.1031 0.1144-0.195 0.2374-0.2815 0.3639 0.02898 0.0662 0.03449 0.1403 0.01562 0.2101-0.0345 0.1257-0.1424 0.2175-0.272 0.2314-0.06706 0.1382-0.1282 0.2791-0.1765 0.4256 0.1129 0.7192 0.1363 1.437-0.0059 2.151 0.04746 0.1448 0.1076 0.2844 0.1734 0.4211 0.01624 0.00201 0.03234 5e-3 0.04813 9e-3 0.1691 0.0459 0.2689 0.2202 0.223 0.3892-0.0042 0.0152-0.0095 0.03-0.01592 0.0445 0.08536 0.1256 0.1758 0.2479 0.2775 0.3617 0.6916 0.2122 1.32 0.5568 1.863 1.082 0.1481 0.0314 0.298 0.0493 0.4482 0.061 0.0776-0.1048 0.2114-0.1514 0.3373-0.1175 0.06959 0.0189 0.1306 0.061 0.1731 0.1194 0.1503-0.0106 0.3001-0.0274 0.4484-0.0577 0.5561-0.4978 1.19-0.8324 1.868-1.073 0.1031-0.1144 0.1949-0.2374 0.2815-0.3639-0.02898-0.0662-0.03449-0.1403-0.01562-0.2101 0.0345-0.1257 0.1424-0.2175 0.272-0.2315 0.06706-0.1381 0.1282-0.279 0.1765-0.4256-0.1525-0.7237-0.1269-1.439 0.0056-2.15-0.0475-0.1452-0.1076-0.285-0.1736-0.422-0.01598-2e-3 -0.03179-4e-3 -0.04732-8e-3 -0.169-0.0456-0.269-0.2195-0.2236-0.3885 0.0043-0.0153 0.0098-0.0303 0.01643-0.0447-0.08539-0.1258-0.1761-0.2482-0.2778-0.3622-0.6871-0.2342-1.308-0.5944-1.863-1.082z" fill="#eaead4" stroke="#000000" stroke-linecap="round" stroke-linejoin="round" stroke-miterlimit="0" stroke-opacity=".4876" stroke-width=".1058"/>
 <ellipse transform="scale(1,-1)" cx="3.572" cy="-3.572" rx="2.381" ry="2.383" fill="#dfdfc7" stroke="#959584" stroke-linecap="round" stroke-linejoin="round" stroke-width=".1323"/>
</svg>
