<?xml version="1.0" encoding="UTF-8"?>
<svg width="25" height="25" version="1.1" viewBox="0 0 6.615 6.615" xmlns="http://www.w3.org/2000/svg">
 <circle cx="3.307" cy="3.307" r="3.131" fill="#959584" stroke="#000000" stroke-linecap="round" stroke-linejoin="round" stroke-miterlimit="0" stroke-opacity=".5371" stroke-width=".07938"/>
 <path d="m3.04 0.1898c-0.0637 0.0896-0.1032 0.2011-0.1293 0.2838l0.3967 2.834 0.3953-2.832c-0.0199-0.0849-0.058-0.1958-0.1234-0.2847-0.1828-0.0231-0.3633-0.0104-0.5393-4.6e-4z" fill="#7f7f6a"/>
 <path d="m3.307 3.307 1.759-2.255c0.0253-0.0835 0.0474-0.1987 0.0352-0.3085-0.1484-0.103-0.3054-0.1929-0.4694-0.2687-0.0991 0.0459-0.1879 0.122-0.2514 0.1801z" fill="#7f7f6a"/>
 <path d="m3.307 3.307 2.65-1.074c0.0631-0.0592 0.1397-0.1468 0.1842-0.2468-0.07655-0.1643-0.1672-0.3216-0.271-0.4703-0.1088-0.01-0.224 0.0116-0.308 0.0302z" fill="#7f7f6a"/>
 <path d="m3.307 3.307 2.832 0.3958c0.0848-0.0198 0.1954-0.0581 0.2843-0.1234 0.02245-0.1855 0.01059-0.3673 5.027e-4 -0.5397-0.0895-0.0636-0.2008-0.1033-0.2834-0.1293z" fill="#7f7f6a"/>
 <path d="m3.307 3.307 2.255 1.759c0.0836 0.0253 0.1991 0.0474 0.309 0.0352 0.1028-0.1483 0.1925-0.3052 0.2683-0.4689-0.0459-0.0991-0.122-0.1879-0.1801-0.2514z" fill="#7f7f6a"/>
 <path d="m3.307 3.307 1.073 2.651c0.0592 0.0631 0.1467 0.1397 0.2468 0.1842 0.1645-0.0767 0.322-0.1675 0.4707-0.2715 0.01-0.1087-0.012-0.2236-0.0306-0.3076z" fill="#7f7f6a"/>
 <path d="m3.307 3.307-0.3958 2.832c0.0199 0.0849 0.058 0.1958 0.1234 0.2847 0.1853 0.0218 0.367 0.0102 0.5393 3.968e-4 0.0638-0.0896 0.1037-0.2011 0.1298-0.2838z" fill="#7f7f6a"/>
 <path d="m3.307 3.307-1.759 2.255c-0.0253 0.0836-0.0475 0.1991-0.0352 0.309 0.1365 0.1307 0.294 0.2196 0.4694 0.2687 0.0991-0.0458 0.1879-0.122 0.2514-0.1801z" fill="#7f7f6a"/>
 <path d="m3.307 3.307-2.651 1.074c-0.0631 0.0592-0.1397 0.1467-0.1842 0.2468 0.05229 0.1645 0.1379 0.322 0.2719 0.4707 0.1086 0.01 0.2233-0.0121 0.3071-0.0306z" fill="#7f7f6a"/>
 <path d="m3.307 3.307-2.832-0.3953c-0.0849 0.0199-0.1958 0.058-0.2847 0.1234-0.02181 0.1853-0.01026 0.367-5.001e-4 0.5393 0.0895 0.0637 0.2007 0.1032 0.2834 0.1293z" fill="#7f7f6a"/>
 <path d="m3.307 3.307-2.255-1.759c-0.0837-0.0253-0.1994-0.0476-0.3094-0.0352-0.1028 0.1483-0.1925 0.3052-0.2683 0.4689 0.0458 0.0992 0.122 0.1884 0.1801 0.2518z" fill="#7f7f6a"/>
 <path d="m3.307 3.307-1.074-2.65c-0.0593-0.0632-0.147-0.1397-0.2472-0.1842-0.1643 0.0766-0.3217 0.1672-0.4703 0.271-0.01 0.1088 0.012 0.224 0.0306 0.308z" fill="#7f7f6a"/>
 <path d="m2.913 0.4796a2.858 2.858 0 0 0-0.6755 0.1787 0.6171 0.6171 0 0 1 0 5.292e-4 0.6171 0.6171 0 0 1-0.2719 0.324 0.6171 0.6171 0 0 1-0.4164 0.0722 2.858 2.858 0 0 0-0.4922 0.4959 0.6171 0.6171 0 0 1-0.0736 0.4145 0.6171 0.6171 0 0 1-0.3236 0.2706 2.858 2.858 0 0 0-0.1796 0.6755 0.6171 0.6171 0 0 1 0.144 0.3958 0.6171 0.6171 0 0 1-0.144 0.3953 2.858 2.858 0 0 0 0.1791 0.675 0.6171 0.6171 0 0 1 0.324 0.2719 0.6171 0.6171 0 0 1 0.0722 0.4163 2.858 2.858 0 0 0 0.4968 0.4927 0.6171 0.6171 0 0 1 0.0754-9e-3 0.6171 0.6171 0 0 1 0.3377 0.0823 0.6171 0.6171 0 0 1 0.271 0.3236 2.858 2.858 0 0 0 0.6759 0.1791 0.6171 0.6171 0 0 1 0.3953-0.1435 0.6171 0.6171 0 0 1 0.3949 0.144 2.858 2.858 0 0 0 0.675-0.1787 0.6171 0.6171 0 0 1 0-5.292e-4 0.6171 0.6171 0 0 1 0.2719-0.324 0.6171 0.6171 0 0 1 0.2939-0.0827 0.6171 0.6171 0 0 1 0.1225 0.0105 2.858 2.858 0 0 0 0.4922-0.4959 0.6171 0.6171 0 0 1 0.0736-0.4141 0.6171 0.6171 0 0 1 0.324-0.2719 2.858 2.858 0 0 0 0.1791-0.675 0.6171 0.6171 0 0 1-0.1435-0.3953 0.6171 0.6171 0 0 1 0.144-0.3953 2.858 2.858 0 0 0-0.1792-0.6746 0.6171 0.6171 0 0 1-5.292e-4 0 0.6171 0.6171 0 0 1-0.324-0.2719 0.6171 0.6171 0 0 1-0.0727-0.4164 2.858 2.858 0 0 0-0.4959-0.4927 0.6171 0.6171 0 0 1-0.4136-0.0736 0.6171 0.6171 0 0 1-0.2706-0.3231 2.858 2.858 0 0 0-0.6759-0.1796 0.6171 0.6171 0 0 1-0.3953 0.1435 0.6171 0.6171 0 0 1-0.3949-0.144z" fill="#e7e7cf" stroke="#000000" stroke-linecap="round" stroke-linejoin="round" stroke-opacity=".3993" stroke-width=".05292"/>
 <ellipse transform="scale(1,-1)" cx="3.307" cy="-3.307" rx="1.972" ry="1.974" fill="#dfdfc7" stroke="#959584" stroke-linecap="round" stroke-linejoin="round" stroke-width=".1323"/>
</svg>
