<?xml version="1.0" encoding="UTF-8" standalone="no"?>
<svg
   xmlns:dc="http://purl.org/dc/elements/1.1/"
   xmlns:cc="http://creativecommons.org/ns#"
   xmlns:rdf="http://www.w3.org/1999/02/22-rdf-syntax-ns#"
   xmlns:svg="http://www.w3.org/2000/svg"
   xmlns="http://www.w3.org/2000/svg"
   xmlns:sodipodi="http://sodipodi.sourceforge.net/DTD/sodipodi-0.dtd"
   xmlns:inkscape="http://www.inkscape.org/namespaces/inkscape"
   width="59"
   height="59"
   viewBox="0 0 15.610411 15.610411"
   version="1.1"
   id="svg113936"
   inkscape:version="1.0.2 (1.0.2+r75+1)"
   sodipodi:docname="ZZC-Cross-Knob-45.svg">
  <sodipodi:namedview
     id="base"
     pagecolor="#ffffff"
     bordercolor="#666666"
     borderopacity="1.0"
     inkscape:pageopacity="0.0"
     inkscape:pageshadow="2"
     inkscape:zoom="3.9999998"
     inkscape:cx="-24.203481"
     inkscape:cy="80.155596"
     inkscape:document-units="px"
     inkscape:current-layer="layer1"
     showgrid="false"
     fit-margin-top="0"
     fit-margin-left="0"
     fit-margin-right="0"
     fit-margin-bottom="0"
     inkscape:window-width="1751"
     inkscape:window-height="1293"
     inkscape:window-x="510"
     inkscape:window-y="469"
     inkscape:window-maximized="0"
     units="px"
     inkscape:snap-global="true"
     inkscape:document-rotation="0"
     showguides="true"
     inkscape:snap-bbox="true"
     inkscape:snap-bbox-midpoints="true"
     inkscape:snap-object-midpoints="true"
     inkscape:guide-bbox="true">
    <inkscape:grid
       id="grid825"
       type="xygrid" />
  </sodipodi:namedview>
  <defs
     id="defs113930" />
  <metadata
     id="metadata113933">
    <rdf:RDF>
      <cc:Work
         rdf:about="">
        <dc:format>image/svg+xml</dc:format>
        <dc:type
           rdf:resource="http://purl.org/dc/dcmitype/StillImage" />
        <dc:title></dc:title>
      </cc:Work>
    </rdf:RDF>
  </metadata>
  <g
     transform="translate(-80.833177,-98.125626)"
     id="layer1"
     inkscape:groupmode="layer"
     inkscape:label="Layer 1">
    <path
       inkscape:export-ydpi="192"
       inkscape:export-xdpi="192"
       inkscape:transform-center-y="-2.6887071"
       inkscape:transform-center-x="6.7082337e-05"
       style="fill:#e7e7cf;fill-opacity:1;stroke:#000000;stroke-width:0.079375;stroke-linecap:round;stroke-linejoin:round;stroke-miterlimit:0;stroke-dasharray:none;stroke-dashoffset:0;stroke-opacity:0.537102"
       d="m 88.637527,98.215533 c -2.193222,0 -1.246242,2.098887 -2.391902,2.756597 -1.151232,0.55043 -2.075602,1.4799 -2.616352,2.63078 -0.22095,0.37707 -0.59591,0.26845 -0.74984,0.73405 -0.16558,0.50083 -0.255162,1.03595 -0.255162,1.59189 0,0.56604 0.0927,1.11046 0.264092,1.61911 0.1521,0.45142 0.51428,0.36371 0.75375,0.73848 0.55607,1.16494 1.50574,2.09876 2.683362,2.63855 0.34868,0.22146 0.2556,0.58061 0.71298,0.73016 0.50363,0.16466 1.041722,0.25375 1.600752,0.25375 0.56917,0 1.11662,-0.0922 1.6281,-0.26264 0.451202,-0.15035 0.366862,-0.50696 0.735882,-0.74514 1.17208,-0.55192 2.11207,-1.49557 2.655992,-2.66631 0.2223,-0.3545 0.58681,-0.25805 0.73812,-0.71572 0.16557,-0.50084 0.25515,-1.03595 0.25515,-1.5919 0,-0.56603 -0.0927,-1.11046 -0.26409,-1.61911 -0.15371,-0.45621 -0.52169,-0.36177 -0.761,-0.7507 -0.551672,-1.14478 -1.484252,-2.06477 -2.639812,-2.60413 -1.098042,-0.62521 -0.15679,-2.737717 -2.350022,-2.737717 z"
       id="path12615-8"
       inkscape:connector-curvature="0"
       sodipodi:nodetypes="zcccscccssccccscccz" />
    <ellipse
       inkscape:export-ydpi="192"
       inkscape:export-xdpi="192"
       ry="0.4344981"
       rx="0.43696746"
       inkscape:transform-center-y="-18.646966"
       inkscape:transform-center-x="0.0025586348"
       style="fill:#45453f;fill-opacity:1;stroke:#000000;stroke-width:0.105833;stroke-linecap:round;stroke-linejoin:round;stroke-miterlimit:0;stroke-dasharray:none;stroke-dashoffset:0;stroke-opacity:0.610526"
       id="ellipse12619-9"
       cx="88.637482"
       cy="99.107857" />
    <path
       inkscape:connector-curvature="0"
       d="m 93.511343,105.9323 c 0,2.69161 -2.18171,4.87358 -4.872975,4.87358 -2.99e-4,0 -6e-4,0 -8.98e-4,0 -2.690852,-4.9e-4 -4.87207,-2.18228 -4.872073,-4.87358 0,-6e-4 0,-0.001 0,-0.001 4.89e-4,-1.34077 0.543288,-2.56054 1.427851,-3.44493 0.884566,-0.88436 2.104405,-1.42684 3.44512,-1.42684 3.01e-4,0 6.01e-4,0 9e-4,0 1.340811,2.4e-4 2.560669,0.54303 3.445107,1.42773 0.88444,0.88469 1.426968,2.10481 1.426968,3.44584 0,0 0,0 0,0 0,0 0,0 0,0"
       style="opacity:1;fill:#a2a287;fill-opacity:1;stroke:none;stroke-width:0.105833;stroke-linecap:round;stroke-linejoin:round;stroke-miterlimit:0;stroke-dasharray:none;stroke-dashoffset:0;stroke-opacity:0.382456"
       id="path931" />
    <path
       inkscape:connector-curvature="0"
       d="m 93.377602,105.9321 c 0,2.61772 -2.12183,4.7398 -4.739234,4.7398 -2.63e-4,0 -5.25e-4,0 -7.87e-4,0 -2.617041,-4.3e-4 -4.738439,-2.12235 -4.738441,-4.7398 0,-5.5e-4 0,-0.001 0,-0.001 4.25e-4,-1.29926 0.525459,-2.4875 1.388604,-3.35047 0.863146,-0.863 2.05142,-1.38776 3.350624,-1.38776 2.63e-4,0 5.26e-4,0 7.88e-4,0 1.299288,2e-4 2.487578,0.52523 3.350614,1.38852 0.863034,0.86326 1.387832,2.05177 1.387832,3.35127 0,0 0,0 0,0 0,0 0,0 0,0"
       style="opacity:1;fill:#a4a489;fill-opacity:1;stroke:none;stroke-width:0.105833;stroke-linecap:round;stroke-linejoin:round;stroke-miterlimit:0;stroke-dasharray:none;stroke-dashoffset:0;stroke-opacity:0.382456"
       id="path933" />
    <path
       inkscape:connector-curvature="0"
       d="m 93.243861,105.93189 c 0,2.54385 -2.061953,4.60603 -4.605493,4.60603 -2.24e-4,0 -4.5e-4,0 -6.75e-4,0 -2.543228,-3.7e-4 -4.604811,-2.06243 -4.604815,-4.60603 0,-4.6e-4 0,-9e-4 10e-7,-10e-4 3.66e-4,-1.25777 0.507635,-2.41446 1.349361,-3.25606 0.841726,-0.84161 1.998434,-1.34864 3.256128,-1.34864 2.26e-4,0 4.52e-4,0 6.77e-4,0 1.257764,1.8e-4 2.414487,0.50745 3.256119,1.3493 0.841629,0.84185 1.348697,1.9988 1.348697,3.25674 0,0 0,0 0,0 0,0 0,0 0,0"
       style="opacity:1;fill:#a6a68c;fill-opacity:1;stroke:none;stroke-width:0.105833;stroke-linecap:round;stroke-linejoin:round;stroke-miterlimit:0;stroke-dasharray:none;stroke-dashoffset:0;stroke-opacity:0.382456"
       id="path935" />
    <path
       inkscape:connector-curvature="0"
       d="m 93.110121,105.93165 c 0,2.46999 -2.002076,4.47231 -4.471753,4.4723 -1.88e-4,0 -3.74e-4,0 -5.61e-4,0 -2.469419,-2.9e-4 -4.471183,-2.00248 -4.471187,-4.4723 0,-3.7e-4 0,-7.3e-4 0,-0.001 3.06e-4,-1.21626 0.489808,-2.34142 1.310115,-3.16163 0.820307,-0.82023 1.945451,-1.30954 3.161633,-1.30954 1.89e-4,0 3.76e-4,0 5.63e-4,0 1.216242,1.3e-4 2.3414,0.48967 3.161628,1.31009 0.820224,0.82041 1.309562,1.94577 1.309562,3.16219 0,0 0,0 0,0 0,0 0,0 0,0"
       style="opacity:1;fill:#a8a88e;fill-opacity:1;stroke:none;stroke-width:0.105833;stroke-linecap:round;stroke-linejoin:round;stroke-miterlimit:0;stroke-dasharray:none;stroke-dashoffset:0;stroke-opacity:0.382456"
       id="path937" />
    <path
       inkscape:connector-curvature="0"
       d="m 92.976381,105.93144 c 0,2.39612 -1.942199,4.33854 -4.338013,4.33854 -1.49e-4,0 -2.99e-4,0 -4.5e-4,0 -2.395605,-2.5e-4 -4.337553,-1.94257 -4.337557,-4.33854 0,-2.9e-4 0,-6.1e-4 0,-9e-4 2.44e-4,-1.17476 0.471981,-2.26837 1.270869,-3.06721 0.798886,-0.79883 1.892465,-1.27043 3.067138,-1.27043 1.51e-4,0 3.01e-4,0 4.52e-4,0 1.174719,1.2e-4 2.268308,0.47187 3.067132,1.27089 0.79882,0.79899 1.270429,1.89276 1.270429,3.06765 0,0 0,0 0,0 0,0 0,0 0,0"
       style="opacity:1;fill:#aaaa91;fill-opacity:1;stroke:none;stroke-width:0.105833;stroke-linecap:round;stroke-linejoin:round;stroke-miterlimit:0;stroke-dasharray:none;stroke-dashoffset:0;stroke-opacity:0.382456"
       id="path939" />
    <path
       inkscape:connector-curvature="0"
       d="m 92.84264,105.93121 c 0,2.32226 -1.882321,4.20479 -4.204272,4.20479 -1.11e-4,0 -2.24e-4,0 -3.36e-4,0 -2.321795,-2.1e-4 -4.203925,-1.88265 -4.203929,-4.20479 0,-2.1e-4 0,-4.6e-4 0,-6.7e-4 1.81e-4,-1.13325 0.454154,-2.19532 1.231622,-2.97276 0.777467,-0.77748 1.839482,-1.23134 2.972643,-1.23134 1.13e-4,0 2.26e-4,0 3.38e-4,0 1.133198,1e-4 2.19522,0.45409 2.972641,1.23166 0.777426,0.77758 1.231293,1.83976 1.231293,2.97313 0,0 0,0 0,0 0,0 0,0 0,0"
       style="opacity:1;fill:#acac93;fill-opacity:1;stroke:none;stroke-width:0.105833;stroke-linecap:round;stroke-linejoin:round;stroke-miterlimit:0;stroke-dasharray:none;stroke-dashoffset:0;stroke-opacity:0.382456"
       id="path941" />
    <path
       inkscape:connector-curvature="0"
       d="m 92.708899,105.931 c 0,2.24836 -1.822444,4.07101 -4.070531,4.07101 -7.3e-5,0 -1.49e-4,0 -2.24e-4,0 -2.247983,-1.2e-4 -4.070297,-1.82274 -4.070302,-4.07101 0,-1.5e-4 0,-3.1e-4 10e-7,-4.6e-4 1.22e-4,-1.09175 0.436329,-2.12229 1.192376,-2.87833 0.75605,-0.75609 1.786499,-1.19223 2.878149,-1.19223 7.5e-5,0 1.51e-4,0 2.26e-4,0 1.091675,6e-5 2.12213,0.4363 2.878147,1.19245 0.756021,0.75615 1.192158,1.78675 1.192158,2.87858 0,0 0,0 0,0 0,0 0,0 0,0"
       style="opacity:1;fill:#aeae96;fill-opacity:1;stroke:none;stroke-width:0.105833;stroke-linecap:round;stroke-linejoin:round;stroke-miterlimit:0;stroke-dasharray:none;stroke-dashoffset:0;stroke-opacity:0.382456"
       id="path943" />
    <path
       inkscape:connector-curvature="0"
       d="m 92.575159,105.93077 c -1.3e-5,2.17449 -1.762566,3.93726 -3.936791,3.93726 -3.7e-5,0 -7.3e-5,0 -1.11e-4,0 -2.174171,-6e-5 -3.936668,-1.7628 -3.936673,-3.93726 0,-8e-5 0,-1.4e-4 0,-2e-4 6.1e-5,-1.05027 0.418503,-2.04924 1.153131,-2.78394 0.734628,-0.73468 1.733513,-1.15313 2.783653,-1.15313 3.8e-5,0 7.5e-5,0 1.13e-4,0 1.050154,4e-5 2.049041,0.41852 2.783655,1.15324 0.734616,0.73471 1.153023,1.73375 1.153023,2.78403 0,0 0,0 0,0 0,0 0,0 0,0"
       style="opacity:1;fill:#b0b098;fill-opacity:1;stroke:none;stroke-width:0.105833;stroke-linecap:round;stroke-linejoin:round;stroke-miterlimit:0;stroke-dasharray:none;stroke-dashoffset:0;stroke-opacity:0.382456"
       id="path945" />
    <path
       inkscape:transform-center-y="0.0082088005"
       id="path6189"
       d="m 91.802497,105.93254 a 3.1641234,3.1645118 0 0 1 -3.164124,3.16452 3.1641234,3.1645118 0 0 1 -3.164122,-3.16452 3.1641234,3.1645118 0 0 1 3.164122,-3.16451 3.1641234,3.1645118 0 0 1 3.164124,3.16451 z"
       style="opacity:1;fill:#000000;fill-opacity:0.0877193;stroke:#000000;stroke-width:0.079375;stroke-linecap:round;stroke-linejoin:round;stroke-miterlimit:0;stroke-dasharray:none;stroke-dashoffset:0;stroke-opacity:0.25614"
       inkscape:connector-curvature="0"
       inkscape:transform-center-x="1.5357786e-06" />
    <path
       inkscape:transform-center-y="0.0081302329"
       inkscape:transform-center-x="-4.1203529e-06"
       inkscape:connector-curvature="0"
       style="opacity:1;fill:none;fill-opacity:1;stroke:#000000;stroke-width:0.079375;stroke-linecap:round;stroke-linejoin:round;stroke-miterlimit:0;stroke-dasharray:none;stroke-dashoffset:0;stroke-opacity:0.382456"
       d="m 93.516577,105.93245 a 4.8781973,4.8787965 0 0 1 -4.878204,4.8788 4.8781973,4.8787965 0 0 1 -4.878197,-4.8788 4.8781973,4.8787965 0 0 1 4.878197,-4.87878 4.8781973,4.8787965 0 0 1 4.878204,4.87878 z"
       id="path2237" />
  </g>
</svg>
