<?xml version="1.0" encoding="UTF-8"?>
<svg width="61" height="61" version="1.1" viewBox="0 0 16.14 16.14" xmlns="http://www.w3.org/2000/svg">
 <path d="m8.071 15.78c2.175 0 1.236-2.094 2.372-2.75 1.142-0.5491 2.059-1.476 2.595-2.624 0.2192-0.3761 0.5911-0.2678 0.7438-0.7322 0.1642-0.4996 0.2531-1.033 0.2531-1.588 0-0.5646-0.09195-1.108-0.262-1.615-0.1509-0.4503-0.5101-0.3628-0.7476-0.7366-0.5516-1.162-1.494-2.094-2.662-2.632-0.3459-0.2209-0.2535-0.5792-0.7072-0.7283-0.4995-0.1642-1.033-0.2531-1.588-0.2531-0.5646 0-1.108 0.0919-1.615 0.262-0.4475 0.15-0.3639 0.5057-0.7299 0.7433-1.163 0.5505-2.095 1.492-2.634 2.66-0.2205 0.3536-0.5821 0.2574-0.7321 0.7139-0.1642 0.4996-0.2531 1.033-0.2531 1.588 0 0.5646 0.09193 1.108 0.262 1.615 0.1525 0.4551 0.5175 0.3609 0.7548 0.7488 0.5472 1.142 1.472 2.06 2.618 2.598 1.089 0.6236 0.1555 2.731 2.331 2.731z" fill="#e7e7cf" stroke="#000000" stroke-linecap="round" stroke-linejoin="round" stroke-miterlimit="0" stroke-opacity=".5371" stroke-width=".09901"/>
 <ellipse cx="8.071" cy="14.74" rx=".5488" ry=".5489" fill="#45453f" stroke="#000000" stroke-linecap="round" stroke-linejoin="round" stroke-miterlimit="0" stroke-opacity=".6105" stroke-width=".132"/>
 <path d="m3.274 8.072c4e-6 -2.649 2.147-4.797 4.796-4.797h8.996e-4c2.648 4.604e-4 4.795 2.148 4.795 4.797v0.00101c-4.76e-4 1.32-0.5347 2.52-1.405 3.391-0.8706 0.8704-2.071 1.404-3.391 1.404h-8.996e-4c-1.32-2.35e-4 -2.52-0.5345-3.391-1.405-0.8705-0.8707-1.404-2.072-1.404-3.391" fill="#a2a287"/>
 <path d="m3.405 8.072c2e-6 -2.576 2.088-4.665 4.664-4.665h7.673e-4c2.576 3.995e-4 4.664 2.089 4.664 4.665v0.00101c-4.24e-4 1.279-0.5172 2.448-1.367 3.298-0.8495 0.8494-2.019 1.366-3.298 1.366h-7.938e-4c-1.279-2e-4 -2.448-0.517-3.298-1.367-0.8494-0.8496-1.366-2.019-1.366-3.298" fill="#a4a489"/>
 <path d="m3.537 8.072c5e-6 -2.504 2.029-4.533 4.533-4.533h6.615e-4c2.503 3.599e-4 4.532 2.03 4.532 4.533 0 4.498e-4 0 8.996e-4 -1e-6 0.00101-3.71e-4 1.238-0.4996 2.376-1.328 3.205-0.8284 0.8283-1.967 1.327-3.205 1.327h-6.614e-4c-1.238-1.91e-4 -2.376-0.4995-3.205-1.328-0.8284-0.8286-1.327-1.967-1.327-3.205" fill="#a6a68c"/>
 <path d="m3.669 8.072c4e-6 -2.431 1.97-4.402 4.401-4.402h5.556e-4c2.43 2.911e-4 4.401 1.971 4.401 4.402v0.00101c-2.91e-4 1.197-0.4821 2.304-1.289 3.112-0.8074 0.8073-1.915 1.289-3.112 1.289h-5.556e-4c-1.197-1.56e-4 -2.304-0.482-3.112-1.289-0.8073-0.8075-1.289-1.915-1.289-3.112" fill="#a8a88e"/>
 <path d="m3.8 8.072c5e-6 -2.358 1.912-4.27 4.27-4.27h4.233e-4c2.358 2.3e-4 4.269 1.912 4.269 4.27v8.996e-4c-2.39e-4 1.156-0.4645 2.233-1.251 3.019-0.7863 0.7862-1.863 1.25-3.019 1.25h-4.234e-4c-1.156-1.1e-4 -2.233-0.4644-3.019-1.251-0.7862-0.7864-1.25-1.863-1.25-3.019" fill="#aaaa91"/>
 <path d="m3.932 8.073c5e-6 -2.286 1.853-4.138 4.138-4.138h3.175e-4c2.285 1.8e-4 4.138 1.853 4.138 4.138v6.615e-4c-1.79e-4 1.115-0.447 2.161-1.212 2.926-0.7652 0.7652-1.81 1.212-2.926 1.212h-3.44e-4c-1.115-1e-4 -2.161-0.4469-2.926-1.212-0.7652-0.7653-1.212-1.811-1.212-2.926" fill="#acac93"/>
 <path d="m4.063 8.073c5e-6 -2.213 1.794-4.007 4.006-4.007h2.212e-4c2.213 1.3e-4 4.006 1.794 4.006 4.007 0 1.5e-4 0 2.91e-4 -1e-6 4.498e-4 -1.2e-4 1.075-0.4294 2.089-1.174 2.833-0.7441 0.7441-1.758 1.173-2.833 1.173h-2.22e-4c-1.074-6e-5 -2.089-0.4294-2.833-1.174-0.7441-0.7442-1.173-1.759-1.173-2.833" fill="#aeae96"/>
 <path d="m4.195 8.073c5e-6 -2.14 1.735-3.875 3.875-3.875h1.101e-4c2.14 6e-5 3.875 1.735 3.875 3.875v2.098e-4c-5.9e-5 1.034-0.4119 2.017-1.135 2.74-0.723 0.7231-1.706 1.135-2.74 1.135h-1.108e-4c-1.034-4e-5 -2.017-0.4119-2.74-1.135-0.723-0.7231-1.135-1.706-1.135-2.74" fill="#b0b098"/>
 <path d="m4.956 8.071a3.114 3.115 0 0 1 3.114-3.115 3.114 3.115 0 0 1 3.114 3.115 3.114 3.115 0 0 1-3.114 3.115 3.114 3.115 0 0 1-3.114-3.115z" fill="#000000" fill-opacity=".08772" stroke="#000000" stroke-linecap="round" stroke-linejoin="round" stroke-miterlimit="0" stroke-opacity=".2561" stroke-width=".09901"/>
 <path d="m3.269 8.071a4.801 4.802 0 0 1 4.801-4.802 4.801 4.802 0 0 1 4.801 4.802 4.801 4.802 0 0 1-4.801 4.802 4.801 4.802 0 0 1-4.801-4.802z" fill="none" stroke="#000000" stroke-linecap="round" stroke-linejoin="round" stroke-miterlimit="0" stroke-opacity=".3825" stroke-width=".09901"/>
</svg>
