<?xml version="1.0" encoding="UTF-8"?>
<svg width="21" height="21" version="1.1" viewBox="0 0 5.556 5.556" xmlns="http://www.w3.org/2000/svg">
 <circle cx="2.778" cy="2.778" r="2.718" fill="#959584" stroke="#000000" stroke-linecap="round" stroke-linejoin="round" stroke-miterlimit="0" stroke-opacity=".5371" stroke-width=".0613"/>
 <path d="m3.329 0.1692c-0.3526-0.0914-0.7152-0.0923-1.088-4e-3 -0.4043 0.3775-0.8739 0.6683-1.442 0.8279-0.2621 0.2834-0.4292 0.6075-0.5517 0.9507 0.08719 0.5554 0.1053 1.11-0.0046 1.661 0.1078 0.3789 0.2976 0.6875 0.5453 0.9464 0.5341 0.1639 1.02 0.43 1.439 0.8355 0.3713 0.0919 0.7354 0.1117 1.087 4e-3 0.4295-0.3845 0.9189-0.6429 1.443-0.8284 0.2613-0.2588 0.4504-0.5719 0.5517-0.9507-0.1178-0.559-0.09801-1.112 0.0043-1.661-0.112-0.359-0.2737-0.687-0.5452-0.9464-0.5307-0.1809-1.01-0.459-1.438-0.8354z" fill="#eaead4" stroke="#000000" stroke-linecap="round" stroke-linejoin="round" stroke-miterlimit="0" stroke-opacity=".4876" stroke-width=".08174"/>
 <ellipse transform="scale(1,-1)" cx="2.778" cy="-2.778" rx="1.839" ry="1.841" fill="#dfdfc7" stroke="#959584" stroke-linecap="round" stroke-linejoin="round" stroke-width=".1022"/>
</svg>
