<?xml version="1.0" encoding="UTF-8" standalone="no"?>
<!-- Created with Inkscape (http://www.inkscape.org/) -->

<svg
   xmlns:dc="http://purl.org/dc/elements/1.1/"
   xmlns:cc="http://creativecommons.org/ns#"
   xmlns:rdf="http://www.w3.org/1999/02/22-rdf-syntax-ns#"
   xmlns:svg="http://www.w3.org/2000/svg"
   xmlns="http://www.w3.org/2000/svg"
   xmlns:sodipodi="http://sodipodi.sourceforge.net/DTD/sodipodi-0.dtd"
   xmlns:inkscape="http://www.inkscape.org/namespaces/inkscape"
   width="43"
   height="43"
   viewBox="0 0 11.377084 11.377084"
   version="1.1"
   id="svg113936"
   inkscape:version="0.92.3 (2405546, 2018-03-11)"
   sodipodi:docname="ZZC-EncoderKnob.svg">
  <defs
     id="defs113930" />
  <sodipodi:namedview
     id="base"
     pagecolor="#ffffff"
     bordercolor="#666666"
     borderopacity="1.0"
     inkscape:pageopacity="0.0"
     inkscape:pageshadow="2"
     inkscape:zoom="8"
     inkscape:cx="40.41269"
     inkscape:cy="20.904051"
     inkscape:document-units="px"
     inkscape:current-layer="layer1"
     showgrid="true"
     fit-margin-top="0"
     fit-margin-left="0"
     fit-margin-right="0"
     fit-margin-bottom="0"
     inkscape:window-width="1655"
     inkscape:window-height="1161"
     inkscape:window-x="1402"
     inkscape:window-y="658"
     inkscape:window-maximized="0"
     units="px"
     inkscape:snap-global="false">
    <inkscape:grid
       type="xygrid"
       id="grid825" />
  </sodipodi:namedview>
  <metadata
     id="metadata113933">
    <rdf:RDF>
      <cc:Work
         rdf:about="">
        <dc:format>image/svg+xml</dc:format>
        <dc:type
           rdf:resource="http://purl.org/dc/dcmitype/StillImage" />
        <dc:title></dc:title>
      </cc:Work>
    </rdf:RDF>
  </metadata>
  <g
     inkscape:label="Layer 1"
     inkscape:groupmode="layer"
     id="layer1"
     transform="translate(-80.833177,-99.713073)">
    <g
       id="g896"
       transform="translate(-8.4666682,6.6145833)">
      <circle
         inkscape:transform-center-x="-2.03753e-05"
         inkscape:transform-center-y="9.7125424e-05"
         style="opacity:1;fill:#b3b3b3;fill-opacity:1;stroke:none;stroke-width:0.26264364;stroke-linecap:round;stroke-linejoin:bevel;stroke-miterlimit:0;stroke-dasharray:none;stroke-dashoffset:0;stroke-opacity:1"
         id="circle5596"
         cx="94.988403"
         cy="98.787125"
         r="5.6884146" />
      <path
         inkscape:connector-curvature="0"
         id="path5617"
         d="m 94.98861,93.09886 a 5.688414,5.688414 0 0 0 -1.21187,0.13752 c -0.1822,0.14221 -0.43692,0.33043 -0.65157,0.40896 -0.22241,0.0813 -0.55123,0.10133 -0.78371,0.10993 a 5.688414,5.688414 0 0 0 -1.84362,1.55176 c -0.0439,0.22412 -0.11388,0.53426 -0.22758,0.73325 -0.12116,0.21202 -0.37121,0.4451 -0.54647,0.59994 a 5.688414,5.688414 0 0 0 -0.424,2.14687 5.688414,5.688414 0 0 0 0.007,0.20299 c 0.11331,0.19459 0.27396,0.48707 0.31649,0.72064 0.044,0.24252 -0.005,0.58484 -0.0438,0.81671 a 5.688414,5.688414 0 0 0 1.18904,2.06401 c 0.21517,0.0737 0.53257,0.19239 0.71764,0.34651 0.19109,0.15917 0.37129,0.46062 0.48522,0.66358 a 5.688414,5.688414 0 0 0 2.22916,0.81251 c 0.21413,-0.0834 0.54158,-0.20116 0.78789,-0.20116 0.24724,0 0.5762,0.11847 0.7897,0.20177 a 5.688414,5.688414 0 0 0 2.22315,-0.80591 c 0.11237,-0.201 0.29495,-0.50934 0.48884,-0.67079 0.18531,-0.15434 0.50382,-0.27287 0.71884,-0.34651 a 5.688414,5.688414 0 0 0 1.18963,-2.05681 c -0.0392,-0.22992 -0.0897,-0.57824 -0.0451,-0.82391 0.0421,-0.23091 0.199,-0.51923 0.31288,-0.71523 a 5.688414,5.688414 0 0 0 0.0104,-0.2084 5.688414,5.688414 0 0 0 -0.42637,-2.14928 C 100.07458,96.48226 99.82661,96.25084 99.70633,96.04028 99.59023,95.8371 99.52,95.51835 99.47692,95.29623 a 5.688414,5.688414 0 0 0 -1.84304,-1.54096 c -0.23275,-0.008 -0.56011,-0.0288 -0.7819,-0.10993 -0.21793,-0.0797 -0.47715,-0.27207 -0.65816,-0.41376 a 5.688414,5.688414 0 0 0 -1.20525,-0.13272 z"
         style="opacity:1;fill:#ffffff;fill-opacity:1;stroke:none;stroke-width:0.29182163;stroke-linecap:round;stroke-linejoin:miter;stroke-miterlimit:4;stroke-dasharray:1.75092971, 1.75092971;stroke-dashoffset:6;stroke-opacity:1" />
      <circle
         inkscape:transform-center-x="-4.496167e-05"
         inkscape:transform-center-y="0.00022090714"
         style="opacity:1;fill:#f2f2f2;fill-opacity:1;stroke:none;stroke-width:0.56848526;stroke-linecap:round;stroke-linejoin:bevel;stroke-miterlimit:0;stroke-dasharray:none;stroke-dashoffset:0;stroke-opacity:1"
         id="circle6523"
         cx="94.988556"
         cy="98.787216"
         r="3.3292675" />
      <circle
         r="1.5519415"
         cy="98.787094"
         cx="94.988525"
         id="circle5269-0"
         style="opacity:1;fill:#cecece;fill-opacity:1;stroke:none;stroke-width:0.26500002;stroke-linecap:round;stroke-linejoin:bevel;stroke-miterlimit:0;stroke-dasharray:none;stroke-dashoffset:0;stroke-opacity:1"
         inkscape:transform-center-y="9.8836825e-05"
         inkscape:transform-center-x="-1.4444092e-05" />
      <path
         style="opacity:1;fill:#9c9c9c;fill-opacity:1;stroke:none;stroke-width:0.14419791;stroke-linecap:round;stroke-linejoin:round;stroke-miterlimit:4;stroke-dasharray:none;stroke-dashoffset:0;stroke-opacity:1"
         d="m 95.93395,98.24113 0.031,0.5459 -0.031,0.54589 -0.45725,0.29978 -0.48825,0.24611 -0.48826,-0.24611 -0.45725,-0.29978 -0.031,-0.54589 0.031,-0.5459 0.45725,-0.2998 0.48826,-0.24609 0.48825,0.24609 z"
         id="path5271-2"
         inkscape:connector-curvature="0" />
      <circle
         r="0.39687502"
         cy="94.289139"
         cx="94.988556"
         id="path5641"
         style="opacity:1;fill:#595959;fill-opacity:1;stroke:none;stroke-width:0.26458335;stroke-linecap:round;stroke-linejoin:miter;stroke-miterlimit:4;stroke-dasharray:1.58750004, 1.58750004;stroke-dashoffset:6;stroke-opacity:1" />
    </g>
  </g>
</svg>
