<?xml version="1.0" encoding="UTF-8" standalone="no"?>
<!-- Created with Inkscape (http://www.inkscape.org/) -->

<svg
   xmlns:dc="http://purl.org/dc/elements/1.1/"
   xmlns:cc="http://creativecommons.org/ns#"
   xmlns:rdf="http://www.w3.org/1999/02/22-rdf-syntax-ns#"
   xmlns:svg="http://www.w3.org/2000/svg"
   xmlns="http://www.w3.org/2000/svg"
   xmlns:xlink="http://www.w3.org/1999/xlink"
   xmlns:sodipodi="http://sodipodi.sourceforge.net/DTD/sodipodi-0.dtd"
   xmlns:inkscape="http://www.inkscape.org/namespaces/inkscape"
   width="8.3556204mm"
   height="8.3556299mm"
   viewBox="0 0 8.3556203 8.3556298"
   version="1.1"
   id="svg15246"
   sodipodi:docname="ZZC-PJ.svg"
   inkscape:version="0.92.3 (2405546, 2018-03-11)">
  <defs
     id="defs15240">
    <linearGradient
       id="linearGradient1615"
       inkscape:collect="always">
      <stop
         id="stop1611"
         offset="0"
         style="stop-color:#d4d3cb;stop-opacity:1" />
      <stop
         id="stop1613"
         offset="1"
         style="stop-color:#bcbaaf;stop-opacity:1" />
    </linearGradient>
    <linearGradient
       inkscape:collect="always"
       id="linearGradient1597">
      <stop
         style="stop-color:#c7c6bc;stop-opacity:1;"
         offset="0"
         id="stop1593" />
      <stop
         style="stop-color:#d5d5cd;stop-opacity:1"
         offset="1"
         id="stop1595" />
    </linearGradient>
    <linearGradient
       id="linearGradient1591"
       inkscape:collect="always">
      <stop
         id="stop1587"
         offset="0"
         style="stop-color:#b3b3ac;stop-opacity:1" />
      <stop
         id="stop1589"
         offset="1"
         style="stop-color:#595952;stop-opacity:1" />
    </linearGradient>
    <clipPath
       id="clip89">
      <rect
         y="0"
         x="0"
         width="18"
         height="19"
         id="rect4864" />
    </clipPath>
    <clipPath
       id="clip90">
      <path
         inkscape:connector-curvature="0"
         d="m 0.898438,0.128906 h 16.25 v 17.882813 h -16.25 z m 0,0"
         id="path4861" />
    </clipPath>
    <mask
       id="mask44">
      <g
         style="filter:url(#alpha)"
         id="g4858"
         transform="matrix(0.26458333,0,0,0.26458333,89.358789,128.57765)">
        <rect
           x="0"
           y="0"
           width="3052.8701"
           height="3351.5"
           style="fill:#000000;fill-opacity:0.14999402;stroke:none"
           id="rect4856" />
      </g>
    </mask>
    <filter
       id="alpha"
       filterUnits="objectBoundingBox"
       x="0"
       y="0"
       width="1"
       height="1">
      <feColorMatrix
         type="matrix"
         in="SourceGraphic"
         values="0 0 0 0 1 0 0 0 0 1 0 0 0 0 1 0 0 0 1 0"
         id="feColorMatrix4149" />
    </filter>
    <clipPath
       id="clipPath17821">
      <rect
         y="0"
         x="0"
         width="18"
         height="19"
         id="rect17819" />
    </clipPath>
    <clipPath
       id="clipPath17825">
      <path
         inkscape:connector-curvature="0"
         d="m 0.898438,0.128906 h 16.25 v 17.882813 h -16.25 z m 0,0"
         id="path17823" />
    </clipPath>
    <clipPath
       id="clip87">
      <rect
         y="0"
         x="0"
         width="24"
         height="26"
         id="rect4848" />
    </clipPath>
    <clipPath
       id="clip88">
      <path
         inkscape:connector-curvature="0"
         d="m 0.683594,0.921875 h 22.679687 v 24.9375 H 0.683594 Z m 0,0"
         id="path4845" />
    </clipPath>
    <mask
       id="mask43">
      <g
         style="filter:url(#alpha)"
         id="g4842"
         transform="matrix(0.26458333,0,0,0.26458333,89.358789,128.57765)">
        <rect
           x="0"
           y="0"
           width="3052.8701"
           height="3351.5"
           style="fill:#000000;fill-opacity:0.14999402;stroke:none"
           id="rect4840" />
      </g>
    </mask>
    <filter
       id="filter17836"
       filterUnits="objectBoundingBox"
       x="0"
       y="0"
       width="1"
       height="1">
      <feColorMatrix
         type="matrix"
         in="SourceGraphic"
         values="0 0 0 0 1 0 0 0 0 1 0 0 0 0 1 0 0 0 1 0"
         id="feColorMatrix17834" />
    </filter>
    <clipPath
       id="clipPath17840">
      <rect
         y="0"
         x="0"
         width="24"
         height="26"
         id="rect17838" />
    </clipPath>
    <clipPath
       id="clipPath17844">
      <path
         inkscape:connector-curvature="0"
         d="m 0.683594,0.921875 h 22.679687 v 24.9375 H 0.683594 Z m 0,0"
         id="path17842" />
    </clipPath>
    <linearGradient
       inkscape:collect="always"
       id="linearGradient7712">
      <stop
         style="stop-color:#acb3b2;stop-opacity:1"
         offset="0"
         id="stop7708" />
      <stop
         style="stop-color:#585853;stop-opacity:1"
         offset="1"
         id="stop7710" />
    </linearGradient>
    <linearGradient
       inkscape:collect="always"
       id="linearGradient8327">
      <stop
         style="stop-color:#d9d8d1;stop-opacity:1;"
         offset="0"
         id="stop8323" />
      <stop
         style="stop-color:#c0beb4;stop-opacity:1"
         offset="1"
         id="stop8325" />
    </linearGradient>
    <linearGradient
       inkscape:collect="always"
       xlink:href="#linearGradient1591"
       id="linearGradient15309"
       gradientUnits="userSpaceOnUse"
       gradientTransform="matrix(0.20532913,0,0,0.20532913,171.17195,11.325189)"
       x1="1185.7321"
       y1="105.30762"
       x2="1185.7321"
       y2="91.526367" />
    <linearGradient
       inkscape:collect="always"
       xlink:href="#linearGradient8327"
       id="linearGradient15313"
       gradientUnits="userSpaceOnUse"
       x1="1182.584"
       y1="90.827431"
       x2="1182.584"
       y2="106.07442"
       gradientTransform="matrix(0.20816574,0,0,0.20816574,167.81478,11.045797)" />
    <linearGradient
       inkscape:collect="always"
       xlink:href="#linearGradient1597"
       id="linearGradient1599"
       x1="401.7356"
       y1="34.996742"
       x2="401.7356"
       y2="28.787354"
       gradientUnits="userSpaceOnUse" />
    <linearGradient
       inkscape:collect="always"
       xlink:href="#linearGradient7712"
       id="linearGradient11651"
       gradientUnits="userSpaceOnUse"
       gradientTransform="matrix(0.26130543,0,0,0.26130544,92.490569,6.1687417)"
       x1="1185.7321"
       y1="105.30762"
       x2="1185.7321"
       y2="91.526367" />
    <linearGradient
       inkscape:collect="always"
       xlink:href="#linearGradient1615"
       id="linearGradient11647"
       gradientUnits="userSpaceOnUse"
       gradientTransform="matrix(0.26491535,0,0,0.26491535,88.218175,5.8131818)"
       x1="1182.584"
       y1="90.827431"
       x2="1182.584"
       y2="106.07442" />
  </defs>
  <sodipodi:namedview
     id="base"
     pagecolor="#202020"
     bordercolor="#666666"
     borderopacity="1.0"
     inkscape:pageopacity="0"
     inkscape:pageshadow="2"
     inkscape:zoom="45.254834"
     inkscape:cx="27.114582"
     inkscape:cy="23.619838"
     inkscape:document-units="mm"
     inkscape:current-layer="g923"
     showgrid="false"
     inkscape:window-width="2099"
     inkscape:window-height="1380"
     inkscape:window-x="971"
     inkscape:window-y="712"
     inkscape:window-maximized="0"
     units="px"
     fit-margin-top="0"
     fit-margin-left="0"
     fit-margin-right="0"
     fit-margin-bottom="0"
     inkscape:snap-global="false"
     showborder="true"
     inkscape:pagecheckerboard="false">
    <inkscape:grid
       type="xygrid"
       id="grid882" />
  </sodipodi:namedview>
  <metadata
     id="metadata15243">
    <rdf:RDF>
      <cc:Work
         rdf:about="">
        <dc:format>image/svg+xml</dc:format>
        <dc:type
           rdf:resource="http://purl.org/dc/dcmitype/StillImage" />
        <dc:title></dc:title>
      </cc:Work>
    </rdf:RDF>
  </metadata>
  <g
     inkscape:label="Layer 1"
     inkscape:groupmode="layer"
     id="layer1"
     transform="translate(-88.611154,-119.19859)">
    <g
       id="g923"
       transform="matrix(1.2710225,0,0,1.2710225,-417.84355,82.823095)">
      <g
         id="g1579"
         transform="matrix(1.255012,0,0,1.2550741,-118.05391,-7.6904112)"
         style="stroke-width:0.79678541" />
      <path
         id="path14733-5"
         d="m 401.74951,30.442963 c -0.80801,3e-6 -1.46307,0.654958 -1.46321,1.46297 0,0.808105 0.6551,1.463208 1.46321,1.463208 0.80803,-1.21e-4 1.46297,-0.655194 1.46297,-1.463208 0,-0.807921 -0.65505,-1.462841 -1.46297,-1.46297 z"
         style="opacity:1;fill:#000000;fill-opacity:1;stroke:#000000;stroke-width:0.06793171;stroke-linecap:round;stroke-linejoin:round;stroke-miterlimit:0;stroke-dasharray:none;stroke-dashoffset:0;stroke-opacity:1"
         inkscape:connector-curvature="0"
         sodipodi:nodetypes="ccccc" />
      <path
         id="path14737-6"
         d="m 401.74958,29.272163 a 2.6340901,2.6340902 0 0 0 -2.63406,2.63368 2.6340901,2.6340902 0 0 0 2.63406,2.634098 2.6340901,2.6340902 0 0 0 2.63368,-2.634098 2.6340901,2.6340902 0 0 0 -2.63368,-2.63368 z m 0,0.502138 a 2.1319526,2.1319527 0 0 1 2.13155,2.131542 2.1319526,2.1319527 0 0 1 -2.13155,2.13196 2.1319526,2.1319527 0 0 1 -2.13193,-2.13196 2.1319526,2.1319527 0 0 1 2.13193,-2.131542 z"
         style="opacity:1;fill:#333333;fill-opacity:1;stroke:none;stroke-width:0.06793171;stroke-linecap:round;stroke-linejoin:round;stroke-miterlimit:0;stroke-dasharray:none;stroke-dashoffset:0;stroke-opacity:1"
         inkscape:connector-curvature="0" />
      <path
         id="path14745-2"
         d="m 401.74954,30.108299 c -0.99282,4e-6 -1.79773,0.804772 -1.79789,1.797609 0,0.992949 0.80493,1.797893 1.79789,1.797896 0.99282,-1.61e-4 1.79759,-0.80506 1.79759,-1.797896 -1.3e-4,-0.992723 -0.80488,-1.797448 -1.79759,-1.797609 z m 0,0.424392 c 0.75833,1.5e-4 1.37306,0.614873 1.37323,1.373226 0,0.758451 -0.6148,1.373351 -1.37323,1.373497 -0.75856,0 -1.37349,-0.614939 -1.37349,-1.373497 1.5e-4,-0.758454 0.615,-1.373226 1.37349,-1.373226 z"
         style="opacity:1;fill:url(#linearGradient11651);fill-opacity:1;stroke:#000000;stroke-width:0.27172685;stroke-linecap:round;stroke-linejoin:round;stroke-miterlimit:0;stroke-dasharray:none;stroke-dashoffset:0;stroke-opacity:0.36491226"
         inkscape:connector-curvature="0"
         sodipodi:nodetypes="cccccccccc" />
      <path
         inkscape:connector-curvature="0"
         style="opacity:1;fill:#f2f2f2;fill-opacity:1;stroke:#000000;stroke-width:0.16982928;stroke-linecap:round;stroke-linejoin:round;stroke-miterlimit:0;stroke-dasharray:none;stroke-dashoffset:0;stroke-opacity:0.39649126"
         d="m 401.05009,29.642111 c -0.86681,0 -1.56462,0.697838 -1.56462,1.564657 v 1.398568 c 0,0.866819 0.69781,1.564656 1.56462,1.564656 h 1.39857 c 0.86685,0 1.56465,-0.697837 1.56465,-1.564656 v -1.398568 c 0,-0.866819 -0.6978,-1.564657 -1.56465,-1.564657 z m 0.69954,0.499302 a 1.7648825,1.7648825 0 0 1 1.7644,1.76438 1.7648825,1.7648825 0 0 1 -1.7644,1.764894 1.7648825,1.7648825 0 0 1 -1.76488,-1.764894 1.7648825,1.7648825 0 0 1 1.76488,-1.76438 z"
         id="path14749-9" />
      <path
         style="opacity:1;fill:url(#linearGradient11647);fill-opacity:1;stroke:none;stroke-width:0.06793171;stroke-linecap:round;stroke-linejoin:round;stroke-miterlimit:0;stroke-dasharray:none;stroke-dashoffset:0;stroke-opacity:1"
         d="m 401.34814,29.774569 c -0.95856,0 -1.73022,0.771685 -1.73022,1.730229 v 0.80251 c 0,0.958545 0.77166,1.730227 1.73022,1.730227 h 0.8025 c 0.95854,0 1.73022,-0.771682 1.73022,-1.730227 v -0.80251 c 0,-0.958544 -0.77168,-1.730229 -1.73022,-1.730229 z m 0.24006,0.18213 h 0.32233 c 0.99067,0 1.78819,0.797526 1.78819,1.788181 v 0.322349 c 0,0.990647 -0.79752,1.788179 -1.78819,1.788179 h -0.32233 c -0.99063,0 -1.7882,-0.797532 -1.7882,-1.788179 V 31.74488 c 0,-0.990655 0.79757,-1.788181 1.7882,-1.788181 z"
         id="path14753-1"
         inkscape:connector-curvature="0" />
      <path
         sodipodi:nodetypes="cccccccccc"
         inkscape:connector-curvature="0"
         id="path14780-2"
         d="m 401.74967,28.672711 c -1.78571,0 -3.23332,1.447417 -3.23362,3.23308 0,1.785867 1.44774,3.233599 3.23362,3.233602 1.78565,-2.09e-4 3.23306,-1.447933 3.23306,-3.233602 -2.7e-4,-1.785466 -1.44759,-3.232798 -3.23306,-3.23308 z m -2e-5,0.600938 c 1.45359,2.1e-4 2.63186,1.178565 2.63216,2.63214 0,1.453779 -1.17839,2.632376 -2.63216,2.632662 -1.45396,0 -2.63265,-1.178686 -2.63265,-2.632662 0,-1.453773 1.17888,-2.63214 2.63265,-2.63214 z"
         style="opacity:1;fill:#333333;fill-opacity:1;stroke:#000000;stroke-width:0.06793171;stroke-linecap:round;stroke-linejoin:round;stroke-miterlimit:0;stroke-dasharray:none;stroke-dashoffset:0;stroke-opacity:0.41052629" />
      <path
         style="color:#000000;font-style:normal;font-variant:normal;font-weight:normal;font-stretch:normal;font-size:medium;line-height:normal;font-family:sans-serif;font-variant-ligatures:normal;font-variant-position:normal;font-variant-caps:normal;font-variant-numeric:normal;font-variant-alternates:normal;font-feature-settings:normal;text-indent:0;text-align:start;text-decoration:none;text-decoration-line:none;text-decoration-style:solid;text-decoration-color:#000000;letter-spacing:normal;word-spacing:normal;text-transform:none;writing-mode:lr-tb;direction:ltr;text-orientation:mixed;dominant-baseline:auto;baseline-shift:baseline;text-anchor:start;white-space:normal;shape-padding:0;clip-rule:nonzero;display:inline;overflow:visible;visibility:visible;opacity:1;isolation:auto;mix-blend-mode:normal;color-interpolation:sRGB;color-interpolation-filters:linearRGB;solid-color:#000000;solid-opacity:1;vector-effect:none;fill:#999999;fill-opacity:1;fill-rule:nonzero;stroke:none;stroke-width:0.23776101;stroke-linecap:round;stroke-linejoin:round;stroke-miterlimit:0;stroke-dasharray:none;stroke-dashoffset:0;stroke-opacity:1;color-rendering:auto;image-rendering:auto;shape-rendering:auto;text-rendering:auto;enable-background:accumulate"
         d="m 401.75035,28.845547 c -1.6895,3e-6 -3.06219,1.371002 -3.06243,3.060508 0,1.689689 1.37275,3.060498 3.06243,3.060502 1.68949,-2.1e-4 3.06051,-1.370998 3.06051,-3.060502 -2.7e-4,-1.689319 -1.37117,-3.060241 -3.06051,-3.060508 z m -2e-5,0.256138 c 1.54917,2.08e-4 2.80222,1.255207 2.80249,2.80437 0,1.549333 -1.25316,2.802227 -2.80249,2.802472 -1.54953,-3e-6 -2.80437,-1.252964 -2.80437,-2.802472 2.4e-4,-1.549335 1.25504,-2.804368 2.80437,-2.80437 z"
         id="path14798-7"
         inkscape:connector-curvature="0"
         sodipodi:nodetypes="cccccccccc" />
    </g>
  </g>
</svg>
