<?xml version="1.0" encoding="UTF-8"?>
<svg width="24.5" height="24.5" version="1.1" viewBox="0 0 24.5 24.5" xmlns="http://www.w3.org/2000/svg">
 <path d="m12.29 6.953c-2.911 8.9e-6 -5.271 2.36-5.272 5.271 0 2.912 2.36 5.272 5.272 5.272 2.912-4.33e-4 5.271-2.36 5.271-5.272 0-2.911-2.36-5.271-5.271-5.271z" fill="#000000" stroke="#000000" stroke-linecap="round" stroke-linejoin="round" stroke-miterlimit="0" stroke-width=".1909"/>
 <path d="m12.29 0.6491a11.58 11.58 0 0 0-11.58 11.58 11.58 11.58 0 0 0 11.58 11.58 11.58 11.58 0 0 0 11.58-11.58 11.58 11.58 0 0 0-11.58-11.58zm0 2.208a9.371 9.371 0 0 1 9.37 9.37 9.371 9.371 0 0 1-9.37 9.371 9.371 9.371 0 0 1-9.371-9.371 9.371 9.371 0 0 1 9.371-9.37z" fill="#aeaeae" stroke="#000000" stroke-linecap="round" stroke-linejoin="round" stroke-miterlimit="0" stroke-width=".1909"/>
 <path d="m12.29 2.734a9.491 9.491 0 0 0-9.491 9.489 9.491 9.491 0 0 0 9.491 9.491 9.491 9.491 0 0 0 9.489-9.491 9.491 9.491 0 0 0-9.489-9.489zm0 1.809a7.681 7.681 0 0 1 7.679 7.679 7.681 7.681 0 0 1-7.679 7.682 7.681 7.681 0 0 1-7.681-7.682 7.681 7.681 0 0 1 7.681-7.679z" fill="#444444" stroke-width="1.271"/>
 <rect x="20.8" y="13.02" width="1.75" height="1.14" fill="#c0beb4" stroke-width="1.271"/>
 <rect x="1.99" y="13.02" width="1.75" height="1.14" fill="#c0beb4" stroke-width="1.271"/>
 <path d="m8.472 23.68c1.812 0.02163 11.06-1.699 11.67-2.215 0.6467-0.5495 4.224-10.58 4.07-11.42-0.1584-0.8338-7.057-8.95-7.856-9.236-0.7997-0.2844-11.28 1.637-11.92 2.186-0.6466 0.5496-4.224 10.58-4.07 11.42 0.1573 0.834 7.057 8.95 7.856 9.236 0.05135 0.0143 0.1371 0.02603 0.2574 0.02823zm3.022-2.434c-4.979-0.4358-8.661-4.825-8.226-9.803 0.4352-4.979 4.825-8.663 9.803-8.227 4.98 0.4353 8.663 4.826 8.227 9.804-0.4361 4.979-4.826 8.662-9.804 8.226z" fill="#aeb09a" stroke="#000000" stroke-linecap="round" stroke-linejoin="round" stroke-miterlimit="0" stroke-opacity=".6895" stroke-width=".191"/>
 <path d="m12.29 5.746c-3.577 1.02e-5 -6.477 2.899-6.478 6.477 0 3.578 2.9 6.478 6.478 6.478 3.577-5.74e-4 6.477-2.9 6.477-6.478-4.32e-4 -3.577-2.9-6.476-6.477-6.477zm0 1.529c2.733 5.389e-4 4.947 2.215 4.948 4.948 0 2.733-2.215 4.948-4.948 4.948s-4.948-2.215-4.948-4.948c5.465e-4 -2.733 2.215-4.948 4.948-4.948z" fill="#68685b" stroke="#000000" stroke-linecap="round" stroke-linejoin="round" stroke-miterlimit="0" stroke-opacity=".3649" stroke-width=".7636"/>
 <path d="m9.743 4.068c-3.123 0-5.637 2.514-5.637 5.637v5.04c0 3.123 2.514 5.637 5.637 5.637h5.04c3.123 0 5.637-2.514 5.637-5.637v-5.04c0-3.123-2.514-5.637-5.637-5.637zm2.52 1.798a6.359 6.359 0 0 1 6.358 6.358 6.359 6.359 0 0 1-6.358 6.359 6.359 6.359 0 0 1-6.359-6.359 6.359 6.359 0 0 1 6.359-6.358z" fill="#f2f2f2" stroke="#000000" stroke-linecap="round" stroke-linejoin="round" stroke-miterlimit="0" stroke-opacity=".3965" stroke-width=".4773"/>
 <path d="m10.89 4.551c-3.453 0-6.234 2.78-6.234 6.234v2.892c0 3.453 2.78 6.234 6.234 6.234h2.892c3.453 0 6.234-2.781 6.234-6.234v-2.892c0-3.453-2.78-6.234-6.234-6.234zm0.8649 0.6562h1.161c3.569 0 6.443 2.874 6.443 6.443v1.161c0 3.569-2.874 6.443-6.443 6.443h-1.161c-3.569 0-6.443-2.874-6.443-6.443v-1.161c0-3.569 2.874-6.443 6.443-6.443z" fill="#c7c4ba" stroke-width="1.271"/>
 <path d="m14.06 4.945v-0.5956c0-0.6173-0.376-0.7766-0.8423-0.7766h-1.765c-0.4662 0-0.8422 0.1593-0.8422 0.7766v0.5956m0 14.57v0.5956c0 0.6175 0.376 0.7766 0.8422 0.7766h1.765c0.4662 0 0.8423-0.1593 0.8423-0.7766v-0.5956" fill="none" stroke="#282828" stroke-linecap="round" stroke-linejoin="round" stroke-miterlimit="0" stroke-width=".6682"/>
 <path d="m8.614 23.25c1.744 0.02082 10.65-1.636 11.23-2.132 0.6226-0.529 4.066-10.19 3.918-10.99-0.1525-0.8027-6.794-8.616-7.563-8.891-0.7699-0.2738-10.86 1.576-11.48 2.104-0.6225 0.5291-4.066 10.19-3.918 10.99 0.1514 0.8029 6.794 8.616 7.563 8.891 0.04943 0.01377 0.132 0.02506 0.2478 0.02718zm2.773-0.7886c-5.652-0.4947-9.831-5.477-9.338-11.13 0.494-5.652 5.477-9.834 11.13-9.339 5.653 0.4941 9.834 5.478 9.339 11.13-0.495 5.652-5.478 9.833-11.13 9.338z" fill="#f2f2f2" stroke-miterlimit="0"/>
</svg>
