<?xml version="1.0" encoding="UTF-8"?>
<svg width="15" height="15" version="1.1" viewBox="0 0 3.969 3.968" xmlns="http://www.w3.org/2000/svg">
 <circle cx="1.985" cy="1.984" r="1.507" fill="#262626"/>
 <path d="m1.819 0.4924c-0.5461 0.0919-1.232 0.7766-1.325 1.322h0.7393v-0.3069l0.5855-0.313zm0.3328 0v0.7096l0.5854 0.3132v0.3046h0.7403c-0.09071-0.548-0.7778-1.235-1.326-1.327zm-1.659 1.655c0.09071 0.548 0.7778 1.236 1.326 1.328v-0.7085l-0.5855-0.313v-0.3069zm2.244 0v0.3069l-0.5859 0.313v0.7085c0.5479-0.09217 1.235-0.7805 1.326-1.328z" fill="#1e1e1e"/>
 <path d="m1.811 0.4965c-0.2242 0.06305-0.8345 0.4413-1.083 0.689-0.1574 0.2584-0.2177 0.4922-0.2256 0.7463h0.7025v-0.2522l0.5951-0.3642zm0.3471 4.65e-4 0.01073 0.829 0.5956 0.3537v0.2522h0.7029c0.0077-0.01731 0.01153-0.03381 0.0177-0.0508-0.02549-0.2822-0.13-0.5515-0.3016-0.777-0.2626-0.1981-0.8303-0.5524-1.025-0.607z" fill="#000000" fill-opacity=".3965"/>
 <path d="m2.253 0.5022v0.6022l0.5957 0.3589v0.2522h0.6186c-0.1124-0.618-0.5962-1.101-1.214-1.213zm-0.537-4.73e-4c-0.6178 0.1123-1.101 0.596-1.213 1.214h0.6181v-0.2522l0.5953-0.3589zm-1.214 1.751c0.1123 0.6178 0.596 1.101 1.214 1.213v-0.6022l-0.5952-0.3589v-0.2522zm2.347 0v0.2522l-0.5957 0.3589v0.6027c0.6178-0.1123 1.101-0.596 1.213-1.214z" fill="#4d4d4d"/>
 <path d="m1.605 0.6356v0.3971l-0.55 0.3316a0.1087 0.1087 0 0 0-0.05235 0.09292v0.1467h-0.3655c0.1338-0.4721 0.4958-0.8344 0.9679-0.9683z" color="#000000" color-rendering="auto" dominant-baseline="auto" fill="#404040" fill-opacity=".9965" image-rendering="auto" shape-rendering="auto" solid-color="#000000" style="font-feature-settings:normal;font-variant-alternates:normal;font-variant-caps:normal;font-variant-ligatures:normal;font-variant-numeric:normal;font-variant-position:normal;isolation:auto;mix-blend-mode:normal;shape-padding:0;text-decoration-color:#000000;text-decoration-line:none;text-decoration-style:solid;text-indent:0;text-orientation:mixed;text-transform:none;white-space:normal"/>
 <path d="m2.365 0.6356c0.4723 0.1336 0.8348 0.4961 0.9688 0.9683h-0.366v-0.1467a0.1087 0.1087 0 0 0-0.05235-0.09292l-0.5504-0.3316z" color="#000000" color-rendering="auto" dominant-baseline="auto" fill="#404040" fill-opacity=".9965" image-rendering="auto" shape-rendering="auto" solid-color="#000000" style="font-feature-settings:normal;font-variant-alternates:normal;font-variant-caps:normal;font-variant-ligatures:normal;font-variant-numeric:normal;font-variant-position:normal;isolation:auto;mix-blend-mode:normal;shape-padding:0;text-decoration-color:#000000;text-decoration-line:none;text-decoration-style:solid;text-indent:0;text-orientation:mixed;text-transform:none;white-space:normal"/>
 <path d="m0.6364 2.364h0.366v0.1467a0.1087 0.1087 0 0 0 0.05235 0.09292l0.55 0.3316v0.3967c-0.4721-0.1338-0.8344-0.4958-0.9683-0.9679z" color="#000000" color-rendering="auto" dominant-baseline="auto" fill="#404040" fill-opacity=".9965" image-rendering="auto" shape-rendering="auto" solid-color="#000000" style="font-feature-settings:normal;font-variant-alternates:normal;font-variant-caps:normal;font-variant-ligatures:normal;font-variant-numeric:normal;font-variant-position:normal;isolation:auto;mix-blend-mode:normal;shape-padding:0;text-decoration-color:#000000;text-decoration-line:none;text-decoration-style:solid;text-indent:0;text-orientation:mixed;text-transform:none;white-space:normal"/>
 <path d="m2.968 2.364h0.3651c-0.1338 0.4721-0.4958 0.8344-0.9679 0.9683v-0.3971l0.5504-0.3316a0.1087 0.1087 0 0 0 0.05235-0.09292z" color="#000000" color-rendering="auto" dominant-baseline="auto" fill="#404040" fill-opacity=".9965" image-rendering="auto" shape-rendering="auto" solid-color="#000000" style="font-feature-settings:normal;font-variant-alternates:normal;font-variant-caps:normal;font-variant-ligatures:normal;font-variant-numeric:normal;font-variant-position:normal;isolation:auto;mix-blend-mode:normal;shape-padding:0;text-decoration-color:#000000;text-decoration-line:none;text-decoration-style:solid;text-indent:0;text-orientation:mixed;text-transform:none;white-space:normal"/>
</svg>
