<?xml version="1.0" encoding="UTF-8"?>
<!-- Created with Inkscape (http://www.inkscape.org/) -->
<svg width="23" height="14" version="1.1" viewBox="0 0 23 14" xmlns="http://www.w3.org/2000/svg" xmlns:cc="http://creativecommons.org/ns#" xmlns:dc="http://purl.org/dc/elements/1.1/" xmlns:rdf="http://www.w3.org/1999/02/22-rdf-syntax-ns#">
 <metadata>
  <rdf:RDF>
   <cc:Work rdf:about="">
    <dc:format>image/svg+xml</dc:format>
    <dc:type rdf:resource="http://purl.org/dc/dcmitype/StillImage"/>
    <dc:title/>
   </cc:Work>
  </rdf:RDF>
 </metadata>
 <path d="m6.994 0.4531a1 1 0 0 0-0.9941 1v4.547h-5a1 1 0 1 0 0 2h5v4.547a1 1 0 0 0 1.484 0.875l9.809-5.422h4.707a1 1 0 1 0 0-2h-4.504l-10.02-5.426a1 1 0 0 0-0.4785-0.1211zm1.006 2.678 7.055 3.82-7.055 3.9v-3.684a1 1 0 0 0 0-0.3262z" fill="currentColor"/>
</svg>
