<?xml version="1.0" encoding="UTF-8"?>
<!-- Created with Inkscape (http://www.inkscape.org/) -->
<svg width="22" height="24" version="1.1" viewBox="0 0 22 24" xmlns="http://www.w3.org/2000/svg" xmlns:cc="http://creativecommons.org/ns#" xmlns:dc="http://purl.org/dc/elements/1.1/" xmlns:rdf="http://www.w3.org/1999/02/22-rdf-syntax-ns#">
 <metadata>
  <rdf:RDF>
   <cc:Work rdf:about="">
    <dc:format>image/svg+xml</dc:format>
    <dc:type rdf:resource="http://purl.org/dc/dcmitype/StillImage"/>
    <dc:title/>
   </cc:Work>
  </rdf:RDF>
 </metadata>
 <path d="m11-0.01367a1 1 0 0 0-0.9844 1.014v2a1 1 0 1 0 2 0v-2a1 1 0 0 0-1.016-1.014zm-7.117 2.883a1 1 0 0 0-0.6953 1.717l1.121 1.121a1 1 0 1 0 1.414-1.414l-1.121-1.121a1 1 0 0 0-0.7188-0.3027zm14.23 0a1 1 0 0 0-0.6875 0.3027l-1.121 1.121a1 1 0 1 0 1.414 1.414l1.121-1.121a1 1 0 0 0-0.7266-1.717zm-7.102 2.131c-3.302 0-6 2.698-6 6 0 2.06 1.114 3.594 2.523 4.883a1 1 0 0 0 0 2e-3c-0.141-0.1285-0.028-0.0453 0 0.252 0.024 0.2973 0.01023 0.7296-0.00977 1.176-0.015 0.4462-0.04236 0.8936 0.05664 1.385 0.01 0.0485 0.03192 0.1033 0.04492 0.1543a1 1 0 0 0 0 0.2793l0.3965 3a1 1 0 0 0 0.0625 0.2383l0.3984 1a1 1 0 0 0 0.9297 0.6308h3.203a1 1 0 0 0 0.9297-0.6309l0.3984-1a1 1 0 0 0 0.06055-0.2383l0.3984-3a1 1 0 0 0 0-0.2637c0.015-0.0551 0.03783-0.1137 0.04883-0.166 0.1019-0.4923 0.07845-0.9407 0.06445-1.389s-0.029-0.8835 0-1.184c0.025-0.3001 0.1359-0.389 0-0.2637 1.398-1.289 2.504-2.814 2.504-4.865 0-3.302-2.698-6-6-6zm0 2c2.221 0 4 1.779 4 4 0 1.38-0.6236 2.255-1.859 3.395-0.5371 0.4954-0.598 1.075-0.6387 1.57-0.041 0.4948-0.013 0.9812 0 1.408 0.01 0.2898 4.22e-4 0.4664-0.01758 0.627h-2.959c-0.011-0.1597-0.02267-0.333-0.01367-0.6191 0.014-0.426 0.042-0.9104 0-1.404-0.04-0.4932-0.09898-1.075-0.6387-1.568v-2e-3c-1.243-1.135-1.873-2.021-1.873-3.406 0-2.221 1.779-4 4-4zm-10 3a1 1 0 1 0 0 2h2a1 1 0 1 0 0-2zm18 0a1 1 0 1 0 0 2h2a1 1 0 1 0 0-2zm-9.256 10h2.512l-0.2305 1.746-0.1016 0.2539h-1.848l-0.1016-0.2539z" fill="currentColor"/>
</svg>
