<?xml version="1.0" encoding="UTF-8"?>
<!-- Created with Inkscape (http://www.inkscape.org/) -->
<svg width="25" height="25" version="1.1" viewBox="0 0 25 25" xmlns="http://www.w3.org/2000/svg" xmlns:cc="http://creativecommons.org/ns#" xmlns:dc="http://purl.org/dc/elements/1.1/" xmlns:rdf="http://www.w3.org/1999/02/22-rdf-syntax-ns#">
 <metadata>
  <rdf:RDF>
   <cc:Work rdf:about="">
    <dc:format>image/svg+xml</dc:format>
    <dc:type rdf:resource="http://purl.org/dc/dcmitype/StillImage"/>
    <dc:title/>
   </cc:Work>
  </rdf:RDF>
 </metadata>
 <path d="m17.39 0.8809c-2.066-0.003223-4.343 0.4625-6.016 2.135l-9.9 9.898c-1.555 1.555-1.555 4.102 0 5.656l4.951 4.951c1.555 1.555 4.102 1.555 5.656 0l9.898-9.9c1.672-1.672 2.14-3.951 2.131-6.023-0.0092-2.073-0.4831-4.01-0.8379-5.236a1 1 0 0 0-0.6953-0.6855c-1.197-0.3301-3.122-0.7917-5.188-0.7949zm-0.0039 2c1.537 0.0024 2.947 0.3441 4.061 0.6289 0.3005 1.126 0.6572 2.551 0.6641 4.096 0.0078 1.768-0.3887 3.445-1.545 4.602l-9.898 9.9c-0.7957 0.7957-2.032 0.7957-2.828 0l-4.951-4.951c-0.7957-0.7957-0.7957-2.032 0-2.828l9.9-9.898c1.156-1.156 2.834-1.552 4.598-1.549zm0.3594 0.8828c-0.8978 0-1.795 0.3403-2.475 1.02-1.358 1.358-1.358 3.591 0 4.949 1.358 1.358 3.593 1.358 4.951 0 1.358-1.358 1.358-3.591 0-4.949-0.6792-0.6792-1.579-1.02-2.477-1.02zm0 1.988c0.3818 0 0.7654 0.1482 1.062 0.4453 0.5942 0.5942 0.5942 1.527 0 2.121-0.5942 0.5942-1.529 0.5942-2.123 0s-0.5942-1.527 0-2.121c0.2971-0.2971 0.6788-0.4453 1.061-0.4453z" fill="currentColor"/>
</svg>
