<?xml version="1.0" encoding="UTF-8"?>
<!-- Created with Inkscape (http://www.inkscape.org/) -->
<svg width="16" height="22" version="1.1" viewBox="0 0 16 22" xmlns="http://www.w3.org/2000/svg" xmlns:cc="http://creativecommons.org/ns#" xmlns:dc="http://purl.org/dc/elements/1.1/" xmlns:rdf="http://www.w3.org/1999/02/22-rdf-syntax-ns#">
 <metadata>
  <rdf:RDF>
   <cc:Work rdf:about="">
    <dc:format>image/svg+xml</dc:format>
    <dc:type rdf:resource="http://purl.org/dc/dcmitype/StillImage"/>
    <dc:title/>
   </cc:Work>
  </rdf:RDF>
 </metadata>
 <path d="m7.003 0a1 1 0 0 0-0.9707 0.7578l-1.453 5.812a1 1 0 1 0 1.941 0.4844l1.264-5.055h1.438l3 12h-4.578l-5.732-12.42a1 1 0 0 0-0.9609-0.5918 1 1 0 0 0-0.8555 1.432l5.344 11.58h-0.6544l0.02-0.082a1 1 0 1 0-1.94-0.4844l-1.832 7.324a1 1 0 0 0 0.9707 1.242h13a1 1 0 0 0 0.9707-1.242l-5-20a1 1 0 0 0-0.9711-0.7578zm-2.719 16h8.438l1 4h-10.44z" fill="currentColor"/>
</svg>
