<?xml version="1.0" encoding="UTF-8"?>
<!-- Created with Inkscape (http://www.inkscape.org/) -->
<svg width="24" height="24" version="1.1" viewBox="0 0 24 24" xmlns="http://www.w3.org/2000/svg" xmlns:cc="http://creativecommons.org/ns#" xmlns:dc="http://purl.org/dc/elements/1.1/" xmlns:rdf="http://www.w3.org/1999/02/22-rdf-syntax-ns#">
 <metadata>
  <rdf:RDF>
   <cc:Work rdf:about="">
    <dc:format>image/svg+xml</dc:format>
    <dc:type rdf:resource="http://purl.org/dc/dcmitype/StillImage"/>
    <dc:title/>
   </cc:Work>
  </rdf:RDF>
 </metadata>
 <path d="m12 0c-6.616 0-12 5.384-12 12 0 6.616 5.384 12 12 12 6.616 0 12-5.384 12-12 0-6.616-5.384-12-12-12zm0 2c5.535 0 10 4.465 10 10 0 5.535-4.465 10-10 10-5.535 0-10-4.465-10-10 0-5.535 4.465-10 10-10zm-0.01563 1.986a1 1 0 0 0-0.9844 1.014v8a1 1 0 1 0 2 0v-8a1 1 0 0 0-1.016-1.014zm0.01563 12.51a1.5 1.5 0 0 0-1.5 1.5 1.5 1.5 0 0 0 1.5 1.5 1.5 1.5 0 0 0 1.5-1.5 1.5 1.5 0 0 0-1.5-1.5z" fill="currentColor"/>
</svg>
