<?xml version="1.0" encoding="UTF-8"?>
<!-- Created with Inkscape (http://www.inkscape.org/) -->
<svg width="29" height="18" version="1.1" viewBox="0 0 29 18" xmlns="http://www.w3.org/2000/svg" xmlns:cc="http://creativecommons.org/ns#" xmlns:dc="http://purl.org/dc/elements/1.1/" xmlns:rdf="http://www.w3.org/1999/02/22-rdf-syntax-ns#">
 <metadata>
  <rdf:RDF>
   <cc:Work rdf:about="">
    <dc:format>image/svg+xml</dc:format>
    <dc:type rdf:resource="http://purl.org/dc/dcmitype/StillImage"/>
    <dc:title/>
   </cc:Work>
  </rdf:RDF>
 </metadata>
 <path d="m8.684 0.005859c-0.516 0.01848-1.036 0.08112-1.555 0.1914-4.151 0.8823-7.129 4.559-7.129 8.803-2.72e-8 4.244 2.978 7.92 7.129 8.803 4.151 0.8823 8.368-1.266 10.09-5.143a1 1 0 0 0-1.828-0.8125c-1.347 3.025-4.611 4.688-7.85 4-3.239-0.6884-5.545-3.537-5.545-6.848s2.306-6.159 5.545-6.848c3.239-0.6884 6.503 0.9753 7.85 4a1 1 0 0 0 1.828-0.8125c-1.295-2.908-3.99-4.844-7.008-5.258-0.503-0.06895-1.015-0.09465-1.531-0.07617zm15.31 3.984a1 1 0 0 0-0.6973 1.717l3.293 3.293-3.293 3.293a1 1 0 1 0 1.414 1.414l4-4a1 1 0 0 0 0-1.414l-4-4a1 1 0 0 0-0.7168-0.3027zm-10.99 4.01c-1.352-0.019-1.352 2.019 0 2h10c1.352 0.019 1.352-2.019 0-2z" fill="currentColor"/>
</svg>
