<?xml version="1.0" encoding="UTF-8" standalone="no"?>
<!-- Created with Inkscape (http://www.inkscape.org/) -->

<svg
   xmlns:dc="http://purl.org/dc/elements/1.1/"
   xmlns:cc="http://creativecommons.org/ns#"
   xmlns:rdf="http://www.w3.org/1999/02/22-rdf-syntax-ns#"
   xmlns:svg="http://www.w3.org/2000/svg"
   xmlns="http://www.w3.org/2000/svg"
   xmlns:sodipodi="http://sodipodi.sourceforge.net/DTD/sodipodi-0.dtd"
   xmlns:inkscape="http://www.inkscape.org/namespaces/inkscape"
   width="600"
   height="375"
   viewBox="0 0 600 375"
   version="1.1"
   id="svg8"
   inkscape:version="0.92.3 (2405546, 2018-03-11)"
   sodipodi:docname="zzc-clock-swing-dependency.svg">
  <defs
     id="defs2" />
  <sodipodi:namedview
     id="base"
     pagecolor="#f5f5f5"
     bordercolor="#000000"
     borderopacity="0.16470588"
     inkscape:pageopacity="0"
     inkscape:pageshadow="2"
     inkscape:zoom="1"
     inkscape:cx="626.4423"
     inkscape:cy="308.81216"
     inkscape:document-units="px"
     inkscape:current-layer="layer1"
     showgrid="false"
     units="px"
     guidecolor="#00d1ae"
     guideopacity="0.49803922"
     inkscape:window-width="2727"
     inkscape:window-height="1324"
     inkscape:window-x="786"
     inkscape:window-y="231"
     inkscape:window-maximized="0"
     showguides="false"
     inkscape:guide-bbox="true"
     inkscape:snap-bbox="true"
     inkscape:bbox-paths="true"
     inkscape:snap-bbox-edge-midpoints="true"
     inkscape:snap-bbox-midpoints="true"
     inkscape:bbox-nodes="true"
     inkscape:object-paths="true"
     inkscape:snap-intersection-paths="true"
     inkscape:snap-smooth-nodes="true"
     inkscape:snap-midpoints="true"
     inkscape:snap-object-midpoints="true"
     inkscape:snap-center="true"
     inkscape:snap-text-baseline="true"
     inkscape:snap-global="false">
    <inkscape:grid
       type="xygrid"
       id="grid815"
       color="#3fb6ff"
       opacity="0.1254902"
       empcolor="#3f96ff"
       empopacity="0.29019608" />
    <sodipodi:guide
       position="240,113.99553"
       orientation="1,0"
       id="guide877"
       inkscape:locked="false" />
    <sodipodi:guide
       position="114,223.00446"
       orientation="0,1"
       id="guide879"
       inkscape:locked="false" />
    <sodipodi:guide
       position="184.48401,129.00446"
       orientation="1,0"
       id="guide837"
       inkscape:locked="false" />
    <sodipodi:guide
       position="287.5,75.5"
       orientation="0,1"
       id="guide847"
       inkscape:locked="false" />
    <sodipodi:guide
       position="559.5,189.5"
       orientation="1,0"
       id="guide857"
       inkscape:locked="false" />
    <sodipodi:guide
       position="121.5,266"
       orientation="0,1"
       id="guide898"
       inkscape:locked="false" />
  </sodipodi:namedview>
  <metadata
     id="metadata5">
    <rdf:RDF>
      <cc:Work
         rdf:about="">
        <dc:format>image/svg+xml</dc:format>
        <dc:type
           rdf:resource="http://purl.org/dc/dcmitype/StillImage" />
        <dc:title></dc:title>
      </cc:Work>
    </rdf:RDF>
  </metadata>
  <g
     inkscape:label="Layer 1"
     inkscape:groupmode="layer"
     id="layer1"
     transform="translate(0,-451.49998)">
    <path
       style="fill:none;stroke:#808080;stroke-width:1.29999995;stroke-linecap:round;stroke-linejoin:round;stroke-miterlimit:4;stroke-dasharray:none;stroke-opacity:1"
       d="M 55.984139,519.63971 H 582.01586"
       id="path815"
       inkscape:connector-curvature="0" />
    <path
       style="fill:none;stroke:#808080;stroke-width:1.29999995;stroke-linecap:round;stroke-linejoin:round;stroke-miterlimit:4;stroke-dasharray:none;stroke-opacity:1"
       d="m 567,514.63971 15,5 -15,5"
       id="path817"
       inkscape:connector-curvature="0" />
    <g
       aria-label="t"
       style="font-style:normal;font-variant:normal;font-weight:normal;font-stretch:normal;font-size:19.9008255px;line-height:1.25;font-family:agave;-inkscape-font-specification:agave;letter-spacing:0px;word-spacing:0px;fill:#808080;fill-opacity:1;stroke:none;stroke-width:1"
       id="text833"
       transform="translate(0,-240.86027)">
      <path
         d="m 578.18076,742.14126 q -0.59275,0.15547 -1.55476,0.15547 -1.72966,0 -2.62364,-0.71907 -0.89398,-0.71907 -0.89398,-2.40987 v -4.41161 H 570.407 v -1.5256 h 2.70138 v -3.4496 h 1.65192 v 3.4496 h 4.04236 v 1.5256 h -4.04236 v 4.41161 q 0,0.82597 0.47614,1.17578 0.47615,0.34982 1.38956,0.34982 h 1.55476 z"
         style="stroke-width:1"
         id="path950"
         inkscape:connector-curvature="0" />
    </g>
    <path
       style="fill:none;stroke:#ff2a2a;stroke-width:1.70000005;stroke-linecap:butt;stroke-linejoin:miter;stroke-miterlimit:4;stroke-dasharray:none;stroke-opacity:1"
       d="m 74.5,519.77945 v -49.77947 h 4 v 49.77947 h 90.98401"
       id="path873"
       inkscape:connector-curvature="0"
       sodipodi:nodetypes="ccccc" />
    <path
       sodipodi:nodetypes="ccccc"
       inkscape:connector-curvature="0"
       id="path841"
       d="m 169.48401,519.77945 v -49.77947 h 4 v 49.77947 h 90.98401"
       style="fill:none;stroke:#ff2a2a;stroke-width:1.70000005;stroke-linecap:butt;stroke-linejoin:miter;stroke-miterlimit:4;stroke-dasharray:none;stroke-opacity:1" />
    <path
       style="fill:none;stroke:#ff2a2a;stroke-width:1.70000005;stroke-linecap:butt;stroke-linejoin:miter;stroke-miterlimit:4;stroke-dasharray:none;stroke-opacity:1"
       d="m 264.46802,519.77945 v -49.77947 h 4 v 49.77947 h 90.98401"
       id="path843"
       inkscape:connector-curvature="0"
       sodipodi:nodetypes="ccccc" />
    <path
       sodipodi:nodetypes="ccccc"
       inkscape:connector-curvature="0"
       id="path845"
       d="m 359.45203,519.77945 v -49.77947 h 4 v 49.77947 h 90.98401"
       style="fill:none;stroke:#ff2a2a;stroke-width:1.70000005;stroke-linecap:butt;stroke-linejoin:miter;stroke-miterlimit:4;stroke-dasharray:none;stroke-opacity:1" />
    <path
       style="fill:none;stroke:#ff2a2a;stroke-width:1.70000005;stroke-linecap:butt;stroke-linejoin:miter;stroke-miterlimit:4;stroke-dasharray:none;stroke-opacity:1"
       d="m 454.43604,519.77945 v -49.77947 h 4 v 49.77947 h 90.98401"
       id="path847"
       inkscape:connector-curvature="0"
       sodipodi:nodetypes="ccccc" />
    <g
       aria-label="CLK"
       style="font-style:normal;font-variant:normal;font-weight:normal;font-stretch:normal;font-size:20.55248642px;line-height:1.25;font-family:agave;-inkscape-font-specification:agave;letter-spacing:0px;word-spacing:0px;fill:#808080;fill-opacity:1;stroke:none;stroke-width:1"
       id="text851">
      <path
         d="m 25.737074,485.13679 q 0.642266,0 1.214283,0.0401 0.582053,0.0401 0.842973,0.0803 l 0.26092,0.0401 v 1.49527 h -2.318176 q -1.746158,0 -2.759733,1.3046 -1.003539,1.29457 -1.003539,3.5425 0,2.6092 0.953362,3.73316 0.963398,1.11393 2.80991,1.11393 h 2.318176 v 1.49527 q -0.883114,0.16057 -2.318176,0.16057 -1.334707,0 -2.328211,-0.33117 -0.983468,-0.3412 -1.726088,-1.08382 -0.742619,-0.74262 -1.123964,-2.01711 -0.371309,-1.2745 -0.371309,-3.07083 0,-3.01062 1.485238,-4.75678 1.495274,-1.74616 4.064334,-1.74616 z"
         style="stroke-width:1"
         id="path1185" />
      <path
         d="m 30.945444,485.21707 h 1.706017 v 11.26975 h 5.680033 v 1.57556 h -7.38605 z"
         style="stroke-width:1"
         id="path1187" />
      <path
         d="m 46.961932,485.21707 h 1.966937 l -4.525962,6.0112 4.847095,6.83411 H 47.16264 l -4.556069,-6.42265 v 6.42265 h -1.706017 v -12.84531 h 1.706017 v 5.78039 z"
         style="stroke-width:1"
         id="path1189" />
    </g>
    <path
       sodipodi:nodetypes="ccccccccc"
       inkscape:connector-curvature="0"
       id="path874"
       d="m 169.48401,583.27945 h -44.45368 v -49.77947 h -4 v 49.77947 h -42.3647 v -49.77947 h -4.242641 v 49.63973"
       style="fill:none;stroke:#5fbcd3;stroke-width:1.70000005;stroke-linecap:butt;stroke-linejoin:miter;stroke-miterlimit:4;stroke-dasharray:none;stroke-opacity:1" />
    <g
       aria-label="x2
50%"
       style="font-style:normal;font-variant:normal;font-weight:normal;font-stretch:normal;font-size:20.55248642px;line-height:1.25;font-family:agave;-inkscape-font-specification:agave;text-align:center;letter-spacing:0px;word-spacing:0px;text-anchor:middle;fill:#808080;fill-opacity:1;stroke:none;stroke-width:1"
       id="text886">
      <path
         d="m 24.201658,538.28613 h 2.057256 l 2.438601,3.8536 2.4386,-3.8536 h 2.057256 l -3.462211,5.13813 3.462211,5.13812 h -2.057256 l -2.4386,-3.85359 -2.438601,3.85359 h -2.057256 l 3.462211,-5.13812 z"
         style="text-align:center;text-anchor:middle;stroke-width:1"
         id="path1174" />
      <path
         d="m 36.274237,536.28909 q 0.993504,-0.73258 2.699521,-0.73258 1.706017,0 2.699521,0.80283 0.993504,0.80283 0.993504,2.19775 0,0.44156 -0.03011,0.68241 -0.02007,0.23081 -0.15053,0.63223 -0.120425,0.39138 -0.421487,0.86304 -0.301062,0.46163 -0.812867,1.10389 l -4.114511,5.14816 h 5.690068 v 1.57556 h -7.707182 v -1.57556 l 4.897272,-6.13162 q 0.451592,-0.56199 0.662336,-0.98347 0.210743,-0.43152 0.240849,-0.6523 0.04014,-0.23082 0.04014,-0.66234 0,-0.66234 -0.531876,-1.04368 -0.531876,-0.38135 -1.455132,-0.38135 -0.923256,0 -1.455132,0.38135 -0.531876,0.38134 -0.531876,1.04368 l -1.706017,-0.27096 q 0,-1.26445 0.993504,-1.99704 z"
         style="text-align:center;text-anchor:middle;stroke-width:1"
         id="path1176" />
      <path
         d="m 21.732951,562.98324 v 3.56256 h 1.826442 q 1.856548,0 2.930335,0.89315 1.083822,0.88312 1.083822,2.41853 0,2.08737 -1.475202,3.28158 -1.475203,1.19421 -4.034229,1.19421 -0.642265,0 -1.234353,-0.0401 -0.592088,-0.0401 -0.863044,-0.0803 l -0.26092,-0.0401 v -1.49527 h 2.358317 q 1.806371,0 2.799875,-0.71251 1.003539,-0.71252 1.003539,-2.10744 0,-0.80283 -0.622194,-1.26446 -0.612159,-0.47166 -1.685946,-0.47166 h -3.532459 v -6.71368 h 7.064918 v 1.57556 z"
         style="text-align:center;text-anchor:middle;stroke-width:1"
         id="path1178" />
      <path
         d="m 30.664452,563.01334 q 1.164105,-1.76622 3.171184,-1.76622 2.007079,0 3.171185,1.76622 1.164105,1.76623 1.164105,4.81699 0,3.05076 -1.164105,4.81699 -1.164106,1.76623 -3.171185,1.76623 -2.007079,0 -3.171184,-1.76623 -1.164106,-1.76623 -1.164106,-4.81699 0,-3.05076 1.164106,-4.81699 z m 5.037767,1.15408 q -0.682406,-1.34475 -1.866583,-1.34475 -1.184176,0 -1.866583,1.34475 -0.682407,1.34474 -0.682407,3.66291 0,2.31818 0.682407,3.66292 0.682407,1.34475 1.866583,1.34475 1.184177,0 1.866583,-1.34475 0.682407,-1.34474 0.682407,-3.66292 0,-2.31817 -0.682407,-3.66291 z m -2.719591,2.37838 h 1.706017 v 2.56906 h -1.706017 z"
         style="text-align:center;text-anchor:middle;stroke-width:1"
         id="path1180" />
      <path
         d="m 40.258288,561.40768 h 2.117468 v 3.42207 h -2.117468 z m 6.402581,0 h 1.946867 l -7.044847,12.84531 h -1.946866 z m -0.812867,9.42324 h 2.117469 v 3.42207 h -2.117469 z"
         style="text-align:center;text-anchor:middle;stroke-width:1"
         id="path1182" />
    </g>
    <path
       style="fill:none;stroke:#5fbcd3;stroke-width:1.70000005;stroke-linecap:butt;stroke-linejoin:miter;stroke-miterlimit:4;stroke-dasharray:none;stroke-opacity:1"
       d="m 264.54503,583.27945 h -44.45368 v -49.77947 h -4 v 49.77947 h -42.3647 v -49.77947 h -4.24264 v 49.63973"
       id="path902"
       inkscape:connector-curvature="0"
       sodipodi:nodetypes="ccccccccc" />
    <path
       sodipodi:nodetypes="ccccccccc"
       inkscape:connector-curvature="0"
       id="path904"
       d="m 359.52904,583.27945 h -44.45368 v -49.77947 h -4 v 49.77947 h -42.3647 v -49.77947 h -4.24264 v 49.63973"
       style="fill:none;stroke:#5fbcd3;stroke-width:1.70000005;stroke-linecap:butt;stroke-linejoin:miter;stroke-miterlimit:4;stroke-dasharray:none;stroke-opacity:1" />
    <path
       style="fill:none;stroke:#5fbcd3;stroke-width:1.70000005;stroke-linecap:butt;stroke-linejoin:miter;stroke-miterlimit:4;stroke-dasharray:none;stroke-opacity:1"
       d="m 454.51305,583.27945 h -44.45368 v -49.77947 h -4 v 49.77947 h -42.3647 v -49.77947 h -4.24264 v 49.63973"
       id="path906"
       inkscape:connector-curvature="0"
       sodipodi:nodetypes="ccccccccc" />
    <path
       sodipodi:nodetypes="ccccccccc"
       inkscape:connector-curvature="0"
       id="path908"
       d="m 549.49706,583.27945 h -44.45368 v -49.77947 h -4 v 49.77947 h -42.3647 v -49.77947 h -4.24264 v 49.63973"
       style="fill:none;stroke:#5fbcd3;stroke-width:1.70000005;stroke-linecap:butt;stroke-linejoin:miter;stroke-miterlimit:4;stroke-dasharray:none;stroke-opacity:1" />
    <path
       style="fill:none;stroke:#9955ff;stroke-width:1.70000005;stroke-linecap:butt;stroke-linejoin:miter;stroke-miterlimit:4;stroke-dasharray:none;stroke-opacity:1"
       d="m 121.25115,646.77946 h -19.95138 v -49.77947 h -4.000002 v 49.77947 H 78.66563 v -49.77947 h -4.242641 v 49.63973"
       id="path918"
       inkscape:connector-curvature="0"
       sodipodi:nodetypes="ccccccccc" />
    <g
       aria-label="x4
50%"
       style="font-style:normal;font-variant:normal;font-weight:normal;font-stretch:normal;font-size:20.55248642px;line-height:1.25;font-family:agave;-inkscape-font-specification:agave;text-align:center;letter-spacing:0px;word-spacing:0px;text-anchor:middle;fill:#808080;fill-opacity:1;stroke:none;stroke-width:1"
       id="text924">
      <path
         d="m 24.201658,601.78613 h 2.057256 l 2.438601,3.8536 2.4386,-3.8536 h 2.057256 l -3.462211,5.13813 3.462211,5.13812 h -2.057256 l -2.4386,-3.85359 -2.438601,3.85359 h -2.057256 l 3.462211,-5.13812 z"
         style="text-align:center;text-anchor:middle;stroke-width:1"
         id="path1163" />
      <path
         d="m 39.836802,599.21707 h 2.04722 v 8.70069 h 1.585592 v 1.57556 h -1.585592 v 2.56906 h -1.706017 v -2.56906 h -5.700104 v -1.57556 z m 0.341203,2.69952 -3.693025,6.00117 h 3.693025 z"
         style="text-align:center;text-anchor:middle;stroke-width:1"
         id="path1165" />
      <path
         d="m 21.732951,626.48324 v 3.56256 h 1.826442 q 1.856548,0 2.930335,0.89315 1.083822,0.88312 1.083822,2.41853 0,2.08737 -1.475202,3.28158 -1.475203,1.19421 -4.034229,1.19421 -0.642265,0 -1.234353,-0.0401 -0.592088,-0.0401 -0.863044,-0.0803 l -0.26092,-0.0401 v -1.49527 h 2.358317 q 1.806371,0 2.799875,-0.71251 1.003539,-0.71252 1.003539,-2.10744 0,-0.80283 -0.622194,-1.26446 -0.612159,-0.47166 -1.685946,-0.47166 h -3.532459 v -6.71368 h 7.064918 v 1.57556 z"
         style="text-align:center;text-anchor:middle;stroke-width:1"
         id="path1167" />
      <path
         d="m 30.664452,626.51334 q 1.164105,-1.76622 3.171184,-1.76622 2.007079,0 3.171185,1.76622 1.164105,1.76623 1.164105,4.81699 0,3.05076 -1.164105,4.81699 -1.164106,1.76623 -3.171185,1.76623 -2.007079,0 -3.171184,-1.76623 -1.164106,-1.76623 -1.164106,-4.81699 0,-3.05076 1.164106,-4.81699 z m 5.037767,1.15408 q -0.682406,-1.34475 -1.866583,-1.34475 -1.184176,0 -1.866583,1.34475 -0.682407,1.34474 -0.682407,3.66291 0,2.31818 0.682407,3.66292 0.682407,1.34475 1.866583,1.34475 1.184177,0 1.866583,-1.34475 0.682407,-1.34474 0.682407,-3.66292 0,-2.31817 -0.682407,-3.66291 z m -2.719591,2.37838 h 1.706017 v 2.56906 h -1.706017 z"
         style="text-align:center;text-anchor:middle;stroke-width:1"
         id="path1169" />
      <path
         d="m 40.258288,624.90768 h 2.117468 v 3.42207 h -2.117468 z m 6.402581,0 h 1.946867 l -7.044847,12.84531 h -1.946866 z m -0.812867,9.42324 h 2.117469 v 3.42207 h -2.117469 z"
         style="text-align:center;text-anchor:middle;stroke-width:1"
         id="path1171" />
    </g>
    <path
       sodipodi:nodetypes="ccccccccc"
       inkscape:connector-curvature="0"
       id="path1051"
       d="m 169.48401,646.77946 h -21.35608 v -49.77947 h -4 v 49.77947 h -18.63414 v -49.77947 h -4.24264 v 49.63973"
       style="fill:none;stroke:#9955ff;stroke-width:1.70000005;stroke-linecap:butt;stroke-linejoin:miter;stroke-miterlimit:4;stroke-dasharray:none;stroke-opacity:1" />
    <path
       sodipodi:nodetypes="ccccccccc"
       inkscape:connector-curvature="0"
       id="path1053"
       d="m 216.31217,646.77946 h -19.95138 v -49.77947 h -4 v 49.77947 h -18.63414 v -49.77947 h -4.24264 v 49.63973"
       style="fill:none;stroke:#9955ff;stroke-width:1.70000005;stroke-linecap:butt;stroke-linejoin:miter;stroke-miterlimit:4;stroke-dasharray:none;stroke-opacity:1" />
    <path
       style="fill:none;stroke:#9955ff;stroke-width:1.70000005;stroke-linecap:butt;stroke-linejoin:miter;stroke-miterlimit:4;stroke-dasharray:none;stroke-opacity:1"
       d="m 264.46802,646.77946 h -21.27907 v -49.77947 h -4 v 49.77947 h -18.63414 v -49.77947 h -4.24264 v 49.63973"
       id="path1055"
       inkscape:connector-curvature="0"
       sodipodi:nodetypes="ccccccccc" />
    <path
       sodipodi:nodetypes="ccccccccc"
       inkscape:connector-curvature="0"
       id="path1057"
       d="M 311.29618,646.77946 H 291.3448 v -49.77947 h -4 v 49.77947 h -18.63414 v -49.77947 h -4.24264 v 49.63973"
       style="fill:none;stroke:#9955ff;stroke-width:1.70000005;stroke-linecap:butt;stroke-linejoin:miter;stroke-miterlimit:4;stroke-dasharray:none;stroke-opacity:1" />
    <path
       style="fill:none;stroke:#9955ff;stroke-width:1.70000005;stroke-linecap:butt;stroke-linejoin:miter;stroke-miterlimit:4;stroke-dasharray:none;stroke-opacity:1"
       d="m 359.52904,646.77946 h -21.35608 v -49.77947 h -4 v 49.77947 h -18.63414 v -49.77947 h -4.24264 v 49.63973"
       id="path1059"
       inkscape:connector-curvature="0"
       sodipodi:nodetypes="ccccccccc" />
    <path
       style="fill:none;stroke:#9955ff;stroke-width:1.70000005;stroke-linecap:butt;stroke-linejoin:miter;stroke-miterlimit:4;stroke-dasharray:none;stroke-opacity:1"
       d="m 406.3572,646.77946 h -19.95138 v -49.77947 h -4 v 49.77947 h -18.63414 v -49.77947 h -4.24264 v 49.63973"
       id="path1061"
       inkscape:connector-curvature="0"
       sodipodi:nodetypes="ccccccccc" />
    <path
       sodipodi:nodetypes="ccccccccc"
       inkscape:connector-curvature="0"
       id="path1063"
       d="m 454.51305,646.77946 h -21.27907 v -49.77947 h -4 v 49.77947 h -18.63414 v -49.77947 h -4.24264 v 49.63973"
       style="fill:none;stroke:#9955ff;stroke-width:1.70000005;stroke-linecap:butt;stroke-linejoin:miter;stroke-miterlimit:4;stroke-dasharray:none;stroke-opacity:1" />
    <path
       style="fill:none;stroke:#9955ff;stroke-width:1.70000005;stroke-linecap:butt;stroke-linejoin:miter;stroke-miterlimit:4;stroke-dasharray:none;stroke-opacity:1"
       d="m 501.2642,646.77946 h -19.95138 v -49.77947 h -4 v 49.77947 h -18.63414 v -49.77947 h -4.24264 v 49.63973"
       id="path1065"
       inkscape:connector-curvature="0"
       sodipodi:nodetypes="ccccccccc" />
    <path
       sodipodi:nodetypes="ccccccccc"
       inkscape:connector-curvature="0"
       id="path1067"
       d="m 549.49706,646.77946 h -21.35608 v -49.77947 h -4 v 49.77947 h -18.63414 v -49.77947 h -4.24264 v 49.63973"
       style="fill:none;stroke:#9955ff;stroke-width:1.70000005;stroke-linecap:butt;stroke-linejoin:miter;stroke-miterlimit:4;stroke-dasharray:none;stroke-opacity:1" />
    <path
       style="fill:none;stroke:#5fbcd3;stroke-width:1.70000005;stroke-linecap:butt;stroke-linejoin:miter;stroke-miterlimit:4;stroke-dasharray:none;stroke-opacity:1"
       d="m 169.48401,742.77945 h -27.82868 v -49.77947 h -4 v 49.77947 h -58.9897 v -49.77947 h -4.242641 v 49.63973"
       id="path1073"
       inkscape:connector-curvature="0"
       sodipodi:nodetypes="ccccccccc" />
    <g
       aria-label="x2
66%"
       style="font-style:normal;font-variant:normal;font-weight:normal;font-stretch:normal;font-size:20.55248642px;line-height:1.25;font-family:agave;-inkscape-font-specification:agave;text-align:center;letter-spacing:0px;word-spacing:0px;text-anchor:middle;fill:#808080;fill-opacity:1;stroke:none;stroke-width:1"
       id="text1079">
      <path
         d="m 24.201658,697.78613 h 2.057256 l 2.438601,3.8536 2.4386,-3.8536 h 2.057256 l -3.462211,5.13813 3.462211,5.13812 h -2.057256 l -2.4386,-3.85359 -2.438601,3.85359 h -2.057256 l 3.462211,-5.13812 z"
         style="text-align:center;text-anchor:middle;stroke-width:1"
         id="path1152" />
      <path
         d="m 36.274237,695.78909 q 0.993504,-0.73258 2.699521,-0.73258 1.706017,0 2.699521,0.80283 0.993504,0.80283 0.993504,2.19775 0,0.44156 -0.03011,0.68241 -0.02007,0.23081 -0.15053,0.63223 -0.120425,0.39138 -0.421487,0.86304 -0.301062,0.46163 -0.812867,1.10389 l -4.114511,5.14816 h 5.690068 v 1.57556 h -7.707182 v -1.57556 l 4.897272,-6.13162 q 0.451592,-0.56199 0.662336,-0.98347 0.210743,-0.43152 0.240849,-0.6523 0.04014,-0.23082 0.04014,-0.66234 0,-0.66234 -0.531876,-1.04368 -0.531876,-0.38135 -1.455132,-0.38135 -0.923256,0 -1.455132,0.38135 -0.531876,0.38134 -0.531876,1.04368 l -1.706017,-0.27096 q 0,-1.26445 0.993504,-1.99704 z"
         style="text-align:center;text-anchor:middle;stroke-width:1"
         id="path1154" />
      <path
         d="m 23.559393,720.90768 h 2.017114 l -3.261503,5.13812 q 0.471664,-0.16056 1.244389,-0.16056 1.856548,0 2.930335,1.08382 1.083822,1.07379 1.083822,2.93033 0,1.85655 -1.083822,2.94038 -1.073787,1.07378 -2.930335,1.07378 -1.856548,0 -2.94037,-1.07378 -1.073788,-1.08383 -1.073788,-2.94038 0,-1.24438 0.351239,-2.51888 0.361274,-1.28453 0.973433,-2.24793 z m 0,6.55311 q -1.304601,0 -1.806371,0.53188 -0.50177,0.53188 -0.50177,1.90672 0,1.134 0.622195,1.7863 0.622194,0.65231 1.685946,0.65231 1.063752,0 1.685946,-0.65231 0.622194,-0.6523 0.622194,-1.7863 0,-1.13399 -0.622194,-1.7863 -0.622194,-0.6523 -1.685946,-0.6523 z"
         style="text-align:center;text-anchor:middle;stroke-width:1"
         id="path1156" />
      <path
         d="m 33.835636,720.90768 h 2.017114 l -3.261503,5.13812 q 0.471664,-0.16056 1.244389,-0.16056 1.856548,0 2.930335,1.08382 1.083823,1.07379 1.083823,2.93033 0,1.85655 -1.083823,2.94038 -1.073787,1.07378 -2.930335,1.07378 -1.856548,0 -2.94037,-1.07378 -1.073787,-1.08383 -1.073787,-2.94038 0,-1.24438 0.351238,-2.51888 0.361275,-1.28453 0.973434,-2.24793 z m 0,6.55311 q -1.304601,0 -1.806371,0.53188 -0.501769,0.53188 -0.501769,1.90672 0,1.134 0.622194,1.7863 0.622194,0.65231 1.685946,0.65231 1.063752,0 1.685946,-0.65231 0.622195,-0.6523 0.622195,-1.7863 0,-1.13399 -0.622195,-1.7863 -0.622194,-0.6523 -1.685946,-0.6523 z"
         style="text-align:center;text-anchor:middle;stroke-width:1"
         id="path1158" />
      <path
         d="m 40.258288,720.90768 h 2.117468 v 3.42207 h -2.117468 z m 6.402581,0 h 1.946867 l -7.044847,12.84531 h -1.946866 z m -0.812867,9.42324 h 2.117469 v 3.42207 h -2.117469 z"
         style="text-align:center;text-anchor:middle;stroke-width:1"
         id="path1160" />
    </g>
    <path
       sodipodi:nodetypes="ccccccccc"
       inkscape:connector-curvature="0"
       id="path1081"
       d="m 264.54503,742.77945 h -27.82868 v -49.77947 h -4 v 49.77947 h -58.9897 v -49.77947 h -4.24264 v 49.63973"
       style="fill:none;stroke:#5fbcd3;stroke-width:1.70000005;stroke-linecap:butt;stroke-linejoin:miter;stroke-miterlimit:4;stroke-dasharray:none;stroke-opacity:1" />
    <path
       style="fill:none;stroke:#5fbcd3;stroke-width:1.70000005;stroke-linecap:butt;stroke-linejoin:miter;stroke-miterlimit:4;stroke-dasharray:none;stroke-opacity:1"
       d="m 359.52904,742.77945 h -27.82868 v -49.77947 h -4 v 49.77947 h -58.9897 v -49.77947 h -4.24264 v 49.63973"
       id="path1083"
       inkscape:connector-curvature="0"
       sodipodi:nodetypes="ccccccccc" />
    <path
       sodipodi:nodetypes="ccccccccc"
       inkscape:connector-curvature="0"
       id="path1085"
       d="m 454.51305,742.77945 h -27.82868 v -49.77947 h -4 v 49.77947 h -58.9897 v -49.77947 h -4.24264 v 49.63973"
       style="fill:none;stroke:#5fbcd3;stroke-width:1.70000005;stroke-linecap:butt;stroke-linejoin:miter;stroke-miterlimit:4;stroke-dasharray:none;stroke-opacity:1" />
    <path
       style="fill:none;stroke:#5fbcd3;stroke-width:1.70000005;stroke-linecap:butt;stroke-linejoin:miter;stroke-miterlimit:4;stroke-dasharray:none;stroke-opacity:1"
       d="m 549.49706,742.77945 h -27.82868 v -49.77947 h -4 v 49.77947 h -58.9897 v -49.77947 h -4.24264 v 49.63973"
       id="path1087"
       inkscape:connector-curvature="0"
       sodipodi:nodetypes="ccccccccc" />
    <g
       aria-label="x4
50%"
       style="font-style:normal;font-variant:normal;font-weight:normal;font-stretch:normal;font-size:20.55248642px;line-height:1.25;font-family:agave;-inkscape-font-specification:agave;text-align:center;letter-spacing:0px;word-spacing:0px;text-anchor:middle;fill:#808080;fill-opacity:1;stroke:none;stroke-width:1"
       id="text1095">
      <path
         d="m 24.201658,761.28613 h 2.057256 l 2.438601,3.8536 2.4386,-3.8536 h 2.057256 l -3.462211,5.13813 3.462211,5.13812 h -2.057256 l -2.4386,-3.85359 -2.438601,3.85359 h -2.057256 l 3.462211,-5.13812 z"
         style="text-align:center;text-anchor:middle;stroke-width:1"
         id="path1141" />
      <path
         d="m 39.836802,758.71707 h 2.04722 v 8.70069 h 1.585592 v 1.57556 h -1.585592 v 2.56906 h -1.706017 v -2.56906 h -5.700104 v -1.57556 z m 0.341203,2.69952 -3.693025,6.00117 h 3.693025 z"
         style="text-align:center;text-anchor:middle;stroke-width:1"
         id="path1143" />
      <path
         d="m 21.732951,785.98324 v 3.56256 h 1.826442 q 1.856548,0 2.930335,0.89315 1.083822,0.88312 1.083822,2.41853 0,2.08737 -1.475202,3.28158 -1.475203,1.19421 -4.034229,1.19421 -0.642265,0 -1.234353,-0.0401 -0.592088,-0.0401 -0.863044,-0.0803 l -0.26092,-0.0401 v -1.49527 h 2.358317 q 1.806371,0 2.799875,-0.71251 1.003539,-0.71252 1.003539,-2.10744 0,-0.80283 -0.622194,-1.26446 -0.612159,-0.47166 -1.685946,-0.47166 h -3.532459 v -6.71368 h 7.064918 v 1.57556 z"
         style="text-align:center;text-anchor:middle;stroke-width:1"
         id="path1145" />
      <path
         d="m 30.664452,786.01334 q 1.164105,-1.76622 3.171184,-1.76622 2.007079,0 3.171185,1.76622 1.164105,1.76623 1.164105,4.81699 0,3.05076 -1.164105,4.81699 -1.164106,1.76623 -3.171185,1.76623 -2.007079,0 -3.171184,-1.76623 -1.164106,-1.76623 -1.164106,-4.81699 0,-3.05076 1.164106,-4.81699 z m 5.037767,1.15408 q -0.682406,-1.34475 -1.866583,-1.34475 -1.184176,0 -1.866583,1.34475 -0.682407,1.34474 -0.682407,3.66291 0,2.31818 0.682407,3.66292 0.682407,1.34475 1.866583,1.34475 1.184177,0 1.866583,-1.34475 0.682407,-1.34474 0.682407,-3.66292 0,-2.31817 -0.682407,-3.66291 z m -2.719591,2.37838 h 1.706017 v 2.56906 h -1.706017 z"
         style="text-align:center;text-anchor:middle;stroke-width:1"
         id="path1147" />
      <path
         d="m 40.258288,784.40768 h 2.117468 v 3.42207 h -2.117468 z m 6.402581,0 h 1.946867 l -7.044847,12.84531 h -1.946866 z m -0.812867,9.42324 h 2.117469 v 3.42207 h -2.117469 z"
         style="text-align:center;text-anchor:middle;stroke-width:1"
         id="path1149" />
    </g>
    <path
       inkscape:connector-curvature="0"
       id="path1097"
       d="M 74.5,810.13972 V 687.42452"
       style="opacity:0.5;fill:none;stroke:#808080;stroke-width:1px;stroke-linecap:butt;stroke-linejoin:miter;stroke-opacity:1"
       sodipodi:nodetypes="cc" />
    <path
       style="opacity:0.5;fill:none;stroke:#808080;stroke-width:1px;stroke-linecap:butt;stroke-linejoin:miter;stroke-opacity:1"
       d="M 169.48401,810.13972 V 687.42452"
       id="path1099"
       inkscape:connector-curvature="0"
       sodipodi:nodetypes="cc" />
    <path
       inkscape:connector-curvature="0"
       id="path1101"
       d="M 264.46802,810.13972 V 687.42452"
       style="opacity:0.5;fill:none;stroke:#808080;stroke-width:1px;stroke-linecap:butt;stroke-linejoin:miter;stroke-opacity:1"
       sodipodi:nodetypes="cc" />
    <path
       style="opacity:0.5;fill:none;stroke:#808080;stroke-width:1px;stroke-linecap:butt;stroke-linejoin:miter;stroke-opacity:1"
       d="M 359.45203,810.13972 V 687.42452"
       id="path1103"
       inkscape:connector-curvature="0"
       sodipodi:nodetypes="cc" />
    <path
       inkscape:connector-curvature="0"
       id="path1105"
       d="M 454.43604,810.13972 V 687.42452"
       style="opacity:0.5;fill:none;stroke:#808080;stroke-width:1px;stroke-linecap:butt;stroke-linejoin:miter;stroke-opacity:1"
       sodipodi:nodetypes="cc" />
    <path
       style="opacity:0.5;fill:none;stroke:#808080;stroke-width:1px;stroke-linecap:butt;stroke-linejoin:miter;stroke-opacity:1"
       d="M 137.87615,810.09018 V 687.37497"
       id="path1107"
       inkscape:connector-curvature="0"
       sodipodi:nodetypes="cc" />
    <path
       inkscape:connector-curvature="0"
       id="path1109"
       d="M 232.86016,810.09018 V 687.37497"
       style="opacity:0.5;fill:none;stroke:#808080;stroke-width:1px;stroke-linecap:butt;stroke-linejoin:miter;stroke-opacity:1"
       sodipodi:nodetypes="cc" />
    <path
       style="opacity:0.5;fill:none;stroke:#808080;stroke-width:1px;stroke-linecap:butt;stroke-linejoin:miter;stroke-opacity:1"
       d="M 327.84417,810.09018 V 687.37497"
       id="path1111"
       inkscape:connector-curvature="0"
       sodipodi:nodetypes="cc" />
    <path
       inkscape:connector-curvature="0"
       id="path1113"
       d="M 422.82818,810.09018 V 687.37497"
       style="opacity:0.5;fill:none;stroke:#808080;stroke-width:1px;stroke-linecap:butt;stroke-linejoin:miter;stroke-opacity:1"
       sodipodi:nodetypes="cc" />
    <path
       style="opacity:0.5;fill:none;stroke:#808080;stroke-width:1px;stroke-linecap:butt;stroke-linejoin:miter;stroke-opacity:1"
       d="M 517.81219,810.09018 V 687.37497"
       id="path1115"
       inkscape:connector-curvature="0"
       sodipodi:nodetypes="cc" />
    <path
       sodipodi:nodetypes="ccccccccc"
       inkscape:connector-curvature="0"
       id="path1089"
       d="m 137.87615,806.27946 h -28.95138 v -49.77947 h -4 v 49.77947 H 78.66563 v -49.77947 h -4.242641 v 49.63973"
       style="fill:none;stroke:#9955ff;stroke-width:1.70000005;stroke-linecap:butt;stroke-linejoin:miter;stroke-miterlimit:4;stroke-dasharray:none;stroke-opacity:1" />
    <path
       style="fill:none;stroke:#9955ff;stroke-width:1.70000005;stroke-linecap:butt;stroke-linejoin:miter;stroke-miterlimit:4;stroke-dasharray:none;stroke-opacity:1"
       d="m 169.48401,806.27946 h -11.81014 v -49.77947 h -4 v 49.77947 h -11.55508 v -49.77947 h -4.24264 v 49.63973"
       id="path1117"
       inkscape:connector-curvature="0"
       sodipodi:nodetypes="ccccccccc" />
    <path
       style="fill:none;stroke:#9955ff;stroke-width:1.70000005;stroke-linecap:butt;stroke-linejoin:miter;stroke-miterlimit:4;stroke-dasharray:none;stroke-opacity:1"
       d="m 232.93717,806.27946 h -28.95138 v -49.77947 h -4 v 49.77947 h -26.25914 v -49.77947 h -4.24264 v 49.63973"
       id="path1119"
       inkscape:connector-curvature="0"
       sodipodi:nodetypes="ccccccccc" />
    <path
       sodipodi:nodetypes="ccccccccc"
       inkscape:connector-curvature="0"
       id="path1121"
       d="m 264.46802,806.27946 h -11.73313 v -49.77947 h -4 v 49.77947 h -11.55508 v -49.77947 h -4.24264 v 49.63973"
       style="fill:none;stroke:#9955ff;stroke-width:1.70000005;stroke-linecap:butt;stroke-linejoin:miter;stroke-miterlimit:4;stroke-dasharray:none;stroke-opacity:1" />
    <path
       style="fill:none;stroke:#9955ff;stroke-width:1.70000005;stroke-linecap:butt;stroke-linejoin:miter;stroke-miterlimit:4;stroke-dasharray:none;stroke-opacity:1"
       d="M 327.92118,806.27946 H 298.9698 v -49.77947 h -4 v 49.77947 h -26.25914 v -49.77947 h -4.24264 v 49.63973"
       id="path1123"
       inkscape:connector-curvature="0"
       sodipodi:nodetypes="ccccccccc" />
    <path
       sodipodi:nodetypes="ccccccccc"
       inkscape:connector-curvature="0"
       id="path1125"
       d="M 359.52904,806.27946 H 347.7189 v -49.77947 h -4 v 49.77947 h -11.55508 v -49.77947 h -4.24264 v 49.63973"
       style="fill:none;stroke:#9955ff;stroke-width:1.70000005;stroke-linecap:butt;stroke-linejoin:miter;stroke-miterlimit:4;stroke-dasharray:none;stroke-opacity:1" />
    <path
       sodipodi:nodetypes="ccccccccc"
       inkscape:connector-curvature="0"
       id="path1127"
       d="m 422.9822,806.27946 h -28.95138 v -49.77947 h -4 v 49.77947 h -26.25914 v -49.77947 h -4.24264 v 49.63973"
       style="fill:none;stroke:#9955ff;stroke-width:1.70000005;stroke-linecap:butt;stroke-linejoin:miter;stroke-miterlimit:4;stroke-dasharray:none;stroke-opacity:1" />
    <path
       style="fill:none;stroke:#9955ff;stroke-width:1.70000005;stroke-linecap:butt;stroke-linejoin:miter;stroke-miterlimit:4;stroke-dasharray:none;stroke-opacity:1"
       d="m 454.51305,806.27946 h -11.73313 v -49.77947 h -4 v 49.77947 h -11.55508 v -49.77947 h -4.24264 v 49.63973"
       id="path1129"
       inkscape:connector-curvature="0"
       sodipodi:nodetypes="ccccccccc" />
    <path
       sodipodi:nodetypes="ccccccccc"
       inkscape:connector-curvature="0"
       id="path1131"
       d="m 517.8892,806.27946 h -28.95138 v -49.77947 h -4 v 49.77947 h -26.25914 v -49.77947 h -4.24264 v 49.63973"
       style="fill:none;stroke:#9955ff;stroke-width:1.70000005;stroke-linecap:butt;stroke-linejoin:miter;stroke-miterlimit:4;stroke-dasharray:none;stroke-opacity:1" />
    <path
       style="fill:none;stroke:#9955ff;stroke-width:1.70000005;stroke-linecap:butt;stroke-linejoin:miter;stroke-miterlimit:4;stroke-dasharray:none;stroke-opacity:1"
       d="m 549.49706,806.27946 h -11.81014 v -49.77947 h -4 v 49.77947 h -11.55508 v -49.77947 h -4.24264 v 49.63973"
       id="path1133"
       inkscape:connector-curvature="0"
       sodipodi:nodetypes="ccccccccc" />
    <path
       style="opacity:0.5;fill:none;stroke:#808080;stroke-width:1px;stroke-linecap:butt;stroke-linejoin:miter;stroke-opacity:1"
       d="M 74.5,650.63973 V 469.94793"
       id="path853"
       inkscape:connector-curvature="0" />
    <path
       inkscape:connector-curvature="0"
       id="path855"
       d="M 169.48401,650.63973 V 469.94793"
       style="opacity:0.5;fill:none;stroke:#808080;stroke-width:1px;stroke-linecap:butt;stroke-linejoin:miter;stroke-opacity:1" />
    <path
       style="opacity:0.5;fill:none;stroke:#808080;stroke-width:1px;stroke-linecap:butt;stroke-linejoin:miter;stroke-opacity:1"
       d="M 264.46802,650.63973 V 469.94793"
       id="path857"
       inkscape:connector-curvature="0" />
    <path
       inkscape:connector-curvature="0"
       id="path859"
       d="M 359.45203,650.63973 V 469.94793"
       style="opacity:0.5;fill:none;stroke:#808080;stroke-width:1px;stroke-linecap:butt;stroke-linejoin:miter;stroke-opacity:1" />
    <path
       style="opacity:0.5;fill:none;stroke:#808080;stroke-width:1px;stroke-linecap:butt;stroke-linejoin:miter;stroke-opacity:1"
       d="M 454.43604,650.63973 V 469.94793"
       id="path861"
       inkscape:connector-curvature="0" />
    <path
       inkscape:connector-curvature="0"
       id="path969"
       d="M 121.25115,650.56678 V 469.87498"
       style="opacity:0.5;fill:none;stroke:#808080;stroke-width:1px;stroke-linecap:butt;stroke-linejoin:miter;stroke-opacity:1" />
    <path
       style="opacity:0.5;fill:none;stroke:#808080;stroke-width:1px;stroke-linecap:butt;stroke-linejoin:miter;stroke-opacity:1"
       d="M 216.23516,650.56678 V 469.87498"
       id="path971"
       inkscape:connector-curvature="0" />
    <path
       inkscape:connector-curvature="0"
       id="path973"
       d="M 311.21917,650.56678 V 469.87498"
       style="opacity:0.5;fill:none;stroke:#808080;stroke-width:1px;stroke-linecap:butt;stroke-linejoin:miter;stroke-opacity:1" />
    <path
       style="opacity:0.5;fill:none;stroke:#808080;stroke-width:1px;stroke-linecap:butt;stroke-linejoin:miter;stroke-opacity:1"
       d="M 406.20318,650.56678 V 469.87498"
       id="path975"
       inkscape:connector-curvature="0" />
    <path
       inkscape:connector-curvature="0"
       id="path977"
       d="M 501.18719,650.56678 V 469.87498"
       style="opacity:0.5;fill:none;stroke:#808080;stroke-width:1px;stroke-linecap:butt;stroke-linejoin:miter;stroke-opacity:1" />
  </g>
</svg>
