<?xml version="1.0" encoding="UTF-8"?>
<svg width="24" height="7" version="1.1" viewBox="0 0 24 7" xmlns="http://www.w3.org/2000/svg">
 <g transform="translate(0 -106.5)">
  <g fill="#eaeae3" aria-label="V/OCT">
   <path d="m5.7659 107.57-2.1233 4.8732h-0.89109l-2.1303-4.8732h0.98159l1.6221 3.7593 1.636-3.7593z"/>
   <path d="m7.5411 106.58h0.7797l-2.2973 6.5579h-0.7797z"/>
   <path d="m10.827 112.51q-0.7449 0-1.3436-0.32024-0.5987-0.3272-0.93982-0.89805-0.34112-0.57782-0.34112-1.2879 0-0.71008 0.34112-1.2809 0.34112-0.57782 0.93982-0.89805 0.5987-0.3272 1.3436-0.3272 0.7449 0 1.3436 0.3272 0.5987 0.32023 0.93982 0.89109 0.34112 0.57085 0.34112 1.2879t-0.34112 1.2879q-0.34112 0.57085-0.93982 0.89805-0.5987 0.32024-1.3436 0.32024zm0-0.79363q0.48732 0 0.87717-0.21581 0.38985-0.22277 0.61262-0.61263 0.22277-0.39681 0.22277-0.88413 0-0.48731-0.22277-0.87716-0.22277-0.39682-0.61262-0.61263-0.38985-0.22277-0.87717-0.22277-0.48732 0-0.87717 0.22277-0.38985 0.21581-0.61263 0.61263-0.22277 0.38985-0.22277 0.87716 0 0.48732 0.22277 0.88413 0.22277 0.38986 0.61263 0.61263 0.38985 0.21581 0.87717 0.21581z"/>
   <path d="m16.668 112.51q-0.73794 0-1.3366-0.32024-0.59174-0.3272-0.93286-0.89805-0.33416-0.57086-0.33416-1.2879t0.34112-1.2879q0.34112-0.57086 0.93286-0.89109 0.5987-0.3272 1.3366-0.3272 0.5987 0 1.093 0.20885t0.8354 0.60566l-0.58478 0.54997q-0.52908-0.57085-1.3018-0.57085-0.50124 0-0.89805 0.22277-0.39681 0.21581-0.61959 0.60566-0.22277 0.38986-0.22277 0.88413 0 0.49428 0.22277 0.88413 0.22277 0.38986 0.61959 0.61263 0.39681 0.21581 0.89805 0.21581 0.77274 0 1.3018-0.57782l0.58478 0.55693q-0.34112 0.39682-0.84236 0.60567-0.49428 0.20885-1.093 0.20885z"/>
   <path d="m20.406 108.34h-1.6151v-0.76578h4.1352v0.76578h-1.6151v4.1074h-0.90502z"/>
  </g>
 </g>
</svg>
