<?xml version="1.0" encoding="UTF-8"?>
<svg width="24" height="7" version="1.1" viewBox="0 0 24 7" xmlns="http://www.w3.org/2000/svg">
 <g transform="translate(0 -106.5)">
  <g fill="#eaeae3" aria-label="V/BPS">
   <path d="m5.8599 107.57-2.1233 4.8732h-0.89109l-2.1303-4.8732h0.98159l1.6221 3.7593 1.636-3.7593z"/>
   <path d="m7.6351 106.58h0.7797l-2.2973 6.5579h-0.7797z"/>
   <path d="m12.237 109.91q0.40378 0.13227 0.64047 0.44555 0.2367 0.30631 0.2367 0.76578 0 0.63351-0.48732 0.98159-0.48732 0.34112-1.4202 0.34112h-2.4227v-4.8732h2.2834q0.86324 0 1.3297 0.34112 0.46643 0.33416 0.46643 0.9259 0 0.362-0.16708 0.64047-0.16708 0.27846-0.45947 0.43162zm-2.548-1.629v1.3436h1.2809q0.47339 0 0.72401-0.16708 0.25758-0.17404 0.25758-0.50124 0-0.33415-0.25758-0.50123-0.25062-0.17405-0.72401-0.17405zm1.4619 3.453q1.0512 0 1.0512-0.70312 0-0.70313-1.0512-0.70313h-1.4619v1.4062z"/>
   <path d="m16.087 107.57q0.63351 0 1.0999 0.20885 0.47339 0.20885 0.72401 0.5987 0.25062 0.38985 0.25062 0.9259 0 0.52908-0.25062 0.9259-0.25062 0.38985-0.72401 0.5987-0.46643 0.20885-1.0999 0.20885h-1.0999v1.4062h-0.90502v-4.8732zm-0.04177 2.7011q0.59174 0 0.89805-0.25062 0.30631-0.25062 0.30631-0.71705t-0.30631-0.71705q-0.30631-0.25062-0.89805-0.25062h-1.0582v1.9353z"/>
   <path d="m20.646 112.51q-0.56389 0-1.093-0.16012-0.52212-0.16012-0.82844-0.42466l0.31327-0.70313q0.29935 0.2367 0.73097 0.38986 0.43858 0.14619 0.87717 0.14619 0.54301 0 0.80755-0.17404 0.2715-0.17404 0.2715-0.45947 0-0.20885-0.15316-0.34112-0.1462-0.13923-0.37593-0.21581-0.22974-0.0766-0.62655-0.17404-0.55693-0.13227-0.90501-0.26455-0.34112-0.13227-0.59174-0.41073-0.24366-0.28543-0.24366-0.76579 0-0.40377 0.21581-0.73097 0.22277-0.33416 0.66136-0.52908 0.44554-0.19493 1.086-0.19493 0.44555 0 0.87717 0.11139 0.43162 0.11138 0.7449 0.32023l-0.28543 0.70313q-0.32024-0.18797-0.66832-0.28543-0.34808-0.0975-0.67528-0.0975-0.53605 0-0.80059 0.181-0.25758 0.181-0.25758 0.48035 0 0.20885 0.14619 0.34113 0.15316 0.13227 0.38289 0.20885 0.22974 0.0766 0.62655 0.17404 0.54301 0.12531 0.89109 0.26454 0.34808 0.13227 0.59174 0.41074 0.25062 0.27846 0.25062 0.75185 0 0.40378-0.22277 0.73098-0.21581 0.3272-0.66136 0.52212-0.44555 0.19493-1.086 0.19493z"/>
  </g>
 </g>
</svg>
