<?xml version="1.0" encoding="UTF-8"?>
<svg width="600" height="460" version="1.1" viewBox="0 0 600 460" xmlns="http://www.w3.org/2000/svg">
 <g transform="translate(0 -366.5)">
  <g fill="none" stroke="#808080" stroke-linecap="round" stroke-linejoin="round" stroke-width="1.3">
   <path d="m55.98 503.4h526"/>
   <path d="m567 498.4 15 5-15 5"/>
   <path d="m69.5 507.3v-113.8"/>
   <path d="m64.5 408.9 5-15 5 15"/>
  </g>
  <g fill="#808080">
   <g transform="translate(0 -209.1)" aria-label="0V">
    <path d="m31.97 705.3q1.127-1.71 3.071-1.71t3.071 1.71 1.127 4.664q0 2.954-1.127 4.664t-3.071 1.71-3.071-1.71q-1.127-1.71-1.127-4.664 0-2.954 1.127-4.664zm4.878 1.117q-0.6608-1.302-1.807-1.302-1.147 0-1.807 1.302-0.6608 1.302-0.6608 3.547 0 2.245 0.6608 3.547 0.6608 1.302 1.807 1.302 1.147 0 1.807-1.302 0.6608-1.302 0.6608-3.547 0-2.245-0.6608-3.547zm-2.633 2.303h1.652v2.488h-1.652z"/>
    <path d="m40.32 703.8h1.72l2.653 8.998 0.2915 1.72 0.2915-1.72 1.632-5.539 0.7677-2.216h-1.244v-1.244h3.216l-3.673 12.44h-1.982z"/>
   </g>
   <g transform="translate(0 -209.1)" aria-label="10V">
    <path d="m25.09 596.8h1.652v12.44h-1.652v-10.11l-2.254 2.254-1.166-1.166z"/>
    <path d="m31.97 598.3q1.127-1.71 3.071-1.71t3.071 1.71 1.127 4.664q0 2.954-1.127 4.664t-3.071 1.71-3.071-1.71q-1.127-1.71-1.127-4.664 0-2.954 1.127-4.664zm4.878 1.117q-0.6608-1.302-1.807-1.302-1.147 0-1.807 1.302-0.6608 1.302-0.6608 3.547 0 2.245 0.6608 3.547 0.6608 1.302 1.807 1.302 1.147 0 1.807-1.302 0.6608-1.302 0.6608-3.547 0-2.245-0.6608-3.547zm-2.633 2.303h1.652v2.488h-1.652z"/>
    <path d="m40.32 596.8h1.72l2.653 8.998 0.2915 1.72 0.2915-1.72 1.632-5.539 0.7677-2.216h-1.244v-1.244h3.216l-3.673 12.44h-1.982z"/>
   </g>
   <g transform="translate(0 -209.1)" aria-label="t">
    <path d="m578.2 742.1q-0.5928 0.1555-1.555 0.1555-1.73 0-2.624-0.7191t-0.894-2.41v-4.412h-2.701v-1.526h2.701v-3.45h1.652v3.45h4.042v1.526h-4.042v4.412q0 0.826 0.4761 1.176 0.4762 0.3498 1.39 0.3498h1.555z"/>
   </g>
  </g>
  <g fill="none" stroke="#37c871" stroke-width="1.6">
   <path d="m94.57 503.4 109.4-109v108.5"/>
   <path d="m205.4 503.4 109.4-109v108.5"/>
   <path d="m316.1 503.4 109.4-109v108.5"/>
   <path d="m426.9 503.4 109.4-109v108.5"/>
  </g>
  <g fill="#37c871" aria-label="Input">
   <path d="m98.8 398.3h7.244v1.615h-2.747v9.94h2.747v1.615h-7.244v-1.615h2.747v-9.94h-2.747z"/>
   <path d="m116.9 411.5h-1.749v-6.771q0-1.245-0.5659-1.78-0.5556-0.5351-1.636-0.5351-0.6071 0-1.163 0.1132-0.5454 0.1132-0.7923 0.2264l-0.247 0.1132v8.633h-1.749v-9.631q0.0617-0.0412 0.1749-0.1132 0.1235-0.072 0.5145-0.2572 0.391-0.1852 0.8129-0.3293 0.4322-0.144 1.101-0.2572 0.6688-0.1132 1.348-0.1132 1.934 0 2.943 0.9055 1.008 0.9055 1.008 3.025z"/>
   <path d="m122.2 401h1.934q1.626 0 2.562 0.9158 0.9364 0.9055 0.9364 2.48 0 2.109-1.224 3.313-1.224 1.194-3.344 1.194h-1.749v5.268h-1.749v-10.54q0-1.482 0.5762-2.058 0.5762-0.5762 2.058-0.5762zm0 1.615q-0.4116 0-0.6483 0.2778-0.2367 0.2675-0.2367 0.7409v3.653h1.749q1.307 0 2.058-0.7717 0.7614-0.782 0.7614-2.12 0-0.8232-0.4733-1.297-0.463-0.4836-1.276-0.4836z"/>
   <path d="m130.1 401h1.749v6.771q0 1.245 0.5556 1.78 0.5659 0.5351 1.646 0.5351 0.6071 0 1.152-0.1132 0.5556-0.1132 0.8026-0.2264l0.247-0.1132v-8.633h1.749v9.631q-0.0617 0.0412-0.1852 0.1132-0.1132 0.072-0.5042 0.2572-0.391 0.1852-0.8232 0.3293-0.4219 0.144-1.091 0.2572-0.6688 0.1132-1.348 0.1132-1.934 0-2.943-0.9055-1.008-0.9055-1.008-3.025z"/>
   <path d="m148.2 411.4q-0.6277 0.1646-1.646 0.1646-1.832 0-2.778-0.7614-0.9467-0.7614-0.9467-2.552v-4.672h-2.861v-1.615h2.861v-3.653h1.749v3.653h4.281v1.615h-4.281v4.672q0 0.8746 0.5042 1.245 0.5042 0.3704 1.471 0.3704h1.646z"/>
  </g>
  <g fill="none" stroke="#808080" stroke-linecap="round" stroke-linejoin="round" stroke-width="1.3">
   <path d="m55.98 642.4h526"/>
   <path d="m567 637.4 15 5-15 5"/>
   <path d="m69.5 646.3v-113.8"/>
   <path d="m64.5 547.9 5-15 5 15"/>
  </g>
  <g fill="#808080">
   <g transform="translate(0 -70.1)" aria-label="0V">
    <path d="m31.97 705.3q1.127-1.71 3.071-1.71t3.071 1.71 1.127 4.664q0 2.954-1.127 4.664t-3.071 1.71-3.071-1.71q-1.127-1.71-1.127-4.664 0-2.954 1.127-4.664zm4.878 1.117q-0.6608-1.302-1.807-1.302-1.147 0-1.807 1.302-0.6608 1.302-0.6608 3.547 0 2.245 0.6608 3.547 0.6608 1.302 1.807 1.302 1.147 0 1.807-1.302 0.6608-1.302 0.6608-3.547 0-2.245-0.6608-3.547zm-2.633 2.303h1.652v2.488h-1.652z"/>
    <path d="m40.32 703.8h1.72l2.653 8.998 0.2915 1.72 0.2915-1.72 1.632-5.539 0.7677-2.216h-1.244v-1.244h3.216l-3.673 12.44h-1.982z"/>
   </g>
   <g transform="translate(0 -70.1)" aria-label="10V">
    <path d="m25.09 596.8h1.652v12.44h-1.652v-10.11l-2.254 2.254-1.166-1.166z"/>
    <path d="m31.97 598.3q1.127-1.71 3.071-1.71t3.071 1.71 1.127 4.664q0 2.954-1.127 4.664t-3.071 1.71-3.071-1.71q-1.127-1.71-1.127-4.664 0-2.954 1.127-4.664zm4.878 1.117q-0.6608-1.302-1.807-1.302-1.147 0-1.807 1.302-0.6608 1.302-0.6608 3.547 0 2.245 0.6608 3.547 0.6608 1.302 1.807 1.302 1.147 0 1.807-1.302 0.6608-1.302 0.6608-3.547 0-2.245-0.6608-3.547zm-2.633 2.303h1.652v2.488h-1.652z"/>
    <path d="m40.32 596.8h1.72l2.653 8.998 0.2915 1.72 0.2915-1.72 1.632-5.539 0.7677-2.216h-1.244v-1.244h3.216l-3.673 12.44h-1.982z"/>
   </g>
   <g transform="translate(0 -70.1)" aria-label="t">
    <path d="m578.2 742.1q-0.5928 0.1555-1.555 0.1555-1.73 0-2.624-0.7191t-0.894-2.41v-4.412h-2.701v-1.526h2.701v-3.45h1.652v3.45h4.042v1.526h-4.042v4.412q0 0.826 0.4761 1.176 0.4762 0.3498 1.39 0.3498h1.555z"/>
   </g>
  </g>
  <path d="m93.48 642.4 442.5-109v108.5" fill="none" stroke="#95f" stroke-width="1.6"/>
  <g fill="#95f" aria-label="4:1">
   <path d="m103.3 537.3h2.099v8.921h1.626v1.615h-1.626v2.634h-1.749v-2.634h-5.845v-1.615zm0.3498 2.768-3.787 6.153h3.787z"/>
   <path d="m111.6 538.3h2.634v3.293h-2.634zm0 7.902h2.634v3.293h-2.634z"/>
   <path d="m123.5 537.3h1.749v13.17h-1.749v-10.7l-2.387 2.387-1.235-1.235z"/>
  </g>
  <g fill="none" stroke="#808080" stroke-linecap="round" stroke-linejoin="round" stroke-width="1.3">
   <path d="m55.98 779.5h526"/>
   <path d="m567 774.5 15 5-15 5"/>
   <path d="m69.5 783.4v-113.8"/>
   <path d="m64.5 685 5-15 5 15"/>
  </g>
  <g fill="#808080">
   <g transform="translate(0 66.96)" aria-label="0V">
    <path d="m31.97 705.3q1.127-1.71 3.071-1.71t3.071 1.71 1.127 4.664q0 2.954-1.127 4.664t-3.071 1.71-3.071-1.71q-1.127-1.71-1.127-4.664 0-2.954 1.127-4.664zm4.878 1.117q-0.6608-1.302-1.807-1.302-1.147 0-1.807 1.302-0.6608 1.302-0.6608 3.547 0 2.245 0.6608 3.547 0.6608 1.302 1.807 1.302 1.147 0 1.807-1.302 0.6608-1.302 0.6608-3.547 0-2.245-0.6608-3.547zm-2.633 2.303h1.652v2.488h-1.652z"/>
    <path d="m40.32 703.8h1.72l2.653 8.998 0.2915 1.72 0.2915-1.72 1.632-5.539 0.7677-2.216h-1.244v-1.244h3.216l-3.673 12.44h-1.982z"/>
   </g>
   <g transform="translate(0 66.96)" aria-label="10V">
    <path d="m25.09 596.8h1.652v12.44h-1.652v-10.11l-2.254 2.254-1.166-1.166z"/>
    <path d="m31.97 598.3q1.127-1.71 3.071-1.71t3.071 1.71 1.127 4.664q0 2.954-1.127 4.664t-3.071 1.71-3.071-1.71q-1.127-1.71-1.127-4.664 0-2.954 1.127-4.664zm4.878 1.117q-0.6608-1.302-1.807-1.302-1.147 0-1.807 1.302-0.6608 1.302-0.6608 3.547 0 2.245 0.6608 3.547 0.6608 1.302 1.807 1.302 1.147 0 1.807-1.302 0.6608-1.302 0.6608-3.547 0-2.245-0.6608-3.547zm-2.633 2.303h1.652v2.488h-1.652z"/>
    <path d="m40.32 596.8h1.72l2.653 8.998 0.2915 1.72 0.2915-1.72 1.632-5.539 0.7677-2.216h-1.244v-1.244h3.216l-3.673 12.44h-1.982z"/>
   </g>
   <g transform="translate(0 66.96)" aria-label="t">
    <path d="m578.2 742.1q-0.5928 0.1555-1.555 0.1555-1.73 0-2.624-0.7191t-0.894-2.41v-4.412h-2.701v-1.526h2.701v-3.45h1.652v3.45h4.042v1.526h-4.042v4.412q0 0.826 0.4761 1.176 0.4762 0.3498 1.39 0.3498h1.555z"/>
   </g>
  </g>
  <g fill="#00aad4" aria-label="4:5">
   <path d="m103.3 674.4h2.099v8.921h1.626v1.615h-1.626v2.634h-1.749v-2.634h-5.845v-1.615zm0.3498 2.768-3.787 6.153h3.787z"/>
   <path d="m111.6 675.4h2.634v3.293h-2.634zm0 7.902h2.634v3.293h-2.634z"/>
   <path d="m121.6 676v3.653h1.873q1.904 0 3.005 0.9158 1.111 0.9055 1.111 2.48 0 2.14-1.513 3.365-1.513 1.224-4.136 1.224-0.6585 0-1.266-0.0412-0.6071-0.0412-0.8849-0.0823l-0.2675-0.0412v-1.533h2.418q1.852 0 2.871-0.7306 1.029-0.7306 1.029-2.161 0-0.8232-0.638-1.297-0.6277-0.4836-1.729-0.4836h-3.622v-6.884h7.244v1.615z"/>
  </g>
  <g fill="none" stroke="#00aad4" stroke-width="1.6">
   <path d="m94.64 779.2 87.43-109v108.5"/>
   <path d="m183.2 779.2 87.43-109v108.5"/>
   <path d="m271.7 779.2 87.43-109v108.5"/>
   <path d="m360.2 779.2 87.43-109v108.5"/>
   <path d="m448.9 779.2 87.43-109v108.5"/>
  </g>
 </g>
</svg>
