<?xml version="1.0" encoding="UTF-8"?>
<svg width="45" height="380" version="1.1" viewBox="0 0 45 380" xmlns="http://www.w3.org/2000/svg" xmlns:xlink="http://www.w3.org/1999/xlink">
 <path d="m22.5 97v-20" fill="none" stroke="#000" stroke-width=".7"/>
 <path d="m0.5 0.5h44v379h-44z" fill="none" stroke="#000" stroke-linecap="square"/>
 <path d="m27.4 353.1c-1.479 1.661-4.45 4.734-9.057 5.604l-4e-3 -0.0137c-1.103 0.3262-2.181 0.545-2.996 0.6172-0.364 0.0322-0.6462 0.0252-0.8652 6e-3 0.3616-0.2997 1.078-0.7228 1.982-1.154 1.914-0.913 4.391-1.825 5.848-3.068l-0.0117-0.0137c0.019-0.0189 0.0596-0.0277 0.0781-0.0469l-1.275-1.357c-0.4742 0.4046-1.75 0.9328-2.76 1.422-0.8674 0.317-1.789 0.633-2.838 0.873-2.606 0.5964-5.53 0.8383-7.311 0.4727l-0.375 1.826c1.491 0.3063 3.301 0.2081 5.145-0.0234-0.2468 0.2574-0.506 0.5152-0.582 0.9414-0.0959 0.5376 0.1713 1.134 0.5469 1.484 0.3885 0.363 0.8012 0.4423 1.219 0.4941 0.4175 0.0519 0.8673 0.0439 1.363 0 0.8925-0.079 1.935-0.2973 3.008-0.5957v4e-3c0.9074-0.1602 1.678-0.4756 2.473-0.7637l0.5938 1.213c1.015-0.4012 2.382-0.7762 3.637-0.8711 1.255-0.0949 2.344 0.1123 2.949 0.6113l1.188-1.438c-1.139-0.9399-2.641-1.113-4.098-1.025 1.344-1.195 2.546-2.504 3.488-3.916 0.01-0.0111 0.0371-0.032 0.0469-0.043l-6e-3 -4e-3c0.025-0.0378 0.0652-0.0696 0.0898-0.1074zm3.432 0.502c-1.733 2.152-1.388 4.673 0.0625 6.07 1.451 1.397 3.884 1.801 5.928 0.4922l-1.037-1.621c-1.316 0.8432-2.739 0.5293-3.557-0.2578-0.551-0.5305-0.6638-1.286-0.4375-2.154 0.5133 0.5723 1.086 1.064 1.762 1.389 1.194 0.5742 2.598 0.6971 4.104 0.3926l-0.3809-1.887c-1.189 0.2405-2.119 0.1279-2.889-0.2422-0.7698-0.3701-1.42-1.021-1.955-2.029z" color="#000000" color-rendering="auto" dominant-baseline="auto" image-rendering="auto" shape-rendering="auto" solid-color="#000000" style="font-feature-settings:normal;font-variant-alternates:normal;font-variant-caps:normal;font-variant-ligatures:normal;font-variant-numeric:normal;font-variant-position:normal;isolation:auto;mix-blend-mode:normal;shape-padding:0;text-decoration-color:#000000;text-decoration-line:none;text-decoration-style:solid;text-indent:0;text-orientation:mixed;text-transform:none;white-space:normal"/>
 <g stroke-width=".9482" aria-label="FN-3">
  <path d="m8.792 27.8c0 0.5136 0.4061 0.9197 0.9197 0.9197 0.5136 0 0.9197-0.4061 0.9197-0.9197v-2.389h3.225c0.4658 0 0.8361-0.3703 0.8361-0.8361 0-0.4658-0.3703-0.8361-0.8361-0.8361h-3.225v-1.78h3.763c0.4658 0 0.8361-0.3703 0.8361-0.8361 0-0.4658-0.3703-0.8361-0.8361-0.8361h-4.682c-0.5136 0-0.9197 0.4061-0.9197 0.9197z"/>
  <path d="m16.63 27.81c0 0.5017 0.4061 0.9078 0.9078 0.9078s0.9078-0.4061 0.9078-0.9078v-4.479l3.679 4.826c0.2508 0.3225 0.5136 0.5375 0.9556 0.5375h0.05972c0.5136 0 0.9197-0.4061 0.9197-0.9197v-6.653c0-0.5017-0.4061-0.9078-0.9078-0.9078s-0.9078 0.4061-0.9078 0.9078v4.312l-3.548-4.658c-0.2508-0.3225-0.5136-0.5375-0.9556-0.5375h-0.1911c-0.5136 0-0.9197 0.4061-0.9197 0.9197z"/>
  <path d="m26.45 25.82h2.078c0.4778 0 0.872-0.3942 0.872-0.872 0-0.4778-0.3942-0.872-0.872-0.872h-2.078c-0.4778 0-0.8719 0.3942-0.8719 0.872 0 0.4778 0.3942 0.872 0.8719 0.872z"/>
  <path d="m33.53 28.79c1.863 0 3.01-1.159 3.01-2.735v-0.02389c0-1.553-1.111-2.15-2.246-2.341l1.636-1.565c0.3344-0.3225 0.5494-0.5733 0.5494-1.027 0-0.5017-0.3942-0.8122-0.9317-0.8122h-4.073c-0.43 0-0.7883 0.3583-0.7883 0.7883 0 0.43 0.3583 0.7883 0.7883 0.7883h2.568l-1.624 1.636c-0.2867 0.2867-0.3942 0.5017-0.3942 0.7525 0 0.43 0.3583 0.7883 0.7883 0.7883h0.2867c1.027 0 1.636 0.3822 1.636 1.063v0.02389c0 0.6211-0.4897 1.015-1.183 1.015-0.6569 0-1.159-0.215-1.636-0.6211-0.1433-0.1194-0.3225-0.2269-0.5853-0.2269-0.4778 0-0.8839 0.4061-0.8839 0.8839 0 0.2628 0.1433 0.5136 0.3106 0.6569 0.6808 0.5853 1.577 0.9556 2.771 0.9556z"/>
 </g>
 <g fill="none" stroke="#000" stroke-linecap="round" stroke-linejoin="round">
  <rect x="13" y="3.005" width="19" height="9" rx="4.5" ry="4.5" stroke-width=".8"/>
  <rect x="13" y="368" width="19" height="9" rx="4.5" ry="4.5" stroke-width=".8"/>
  <rect x="7.939" y="304.7" width="29.08" height="43.22" rx="2.652" ry="2.652" stroke-miterlimit="0"/>
 </g>
 <g aria-label="WAVE">
  <path d="m13.61 314.6c0.07863 0.2097 0.2228 0.3342 0.4193 0.3342h0.07863c0.1966 0 0.3473-0.1245 0.4193-0.3342l1.022-2.994 1.022 2.994c0.07207 0.2097 0.2162 0.3342 0.4128 0.3342h0.07863c0.1966 0 0.3473-0.131 0.4193-0.3342l1.356-3.8c0.01966-0.0459 0.03931-0.1114 0.03931-0.1638 0-0.2162-0.1835-0.3866-0.3997-0.3866-0.1966 0-0.3342 0.1245-0.3931 0.2883l-1.055 3.158-1.035-3.139c-0.05897-0.19-0.2031-0.3211-0.4062-0.3211h-0.05897c-0.2031 0-0.3407 0.131-0.4062 0.3211l-1.035 3.139-1.055-3.152c-0.05242-0.1704-0.2031-0.2949-0.3997-0.2949-0.2228 0-0.4128 0.1704-0.4128 0.3931 0 0.0524 0.0131 0.1114 0.03276 0.1572z"/>
  <path d="m18.98 314.6c0 0.2097 0.1638 0.3735 0.3735 0.3735 0.1704 0 0.308-0.0917 0.3735-0.2555l0.3866-0.8846h2.228l0.3735 0.8583c0.07207 0.1704 0.2031 0.2818 0.3931 0.2818 0.2162 0 0.38-0.1704 0.38-0.3866 0-0.0524-0.0131-0.1114-0.04587-0.1704l-1.704-3.8c-0.09173-0.2031-0.249-0.3276-0.4783-0.3276h-0.03931c-0.2293 0-0.3931 0.1245-0.4849 0.3276l-1.704 3.8c-0.03276 0.0655-0.05242 0.1245-0.05242 0.1835zm1.441-1.481 0.8059-1.854 0.8059 1.854z"/>
  <path d="m25.64 315h0.04586c0.2293 0 0.38-0.1245 0.4652-0.3276l1.612-3.8c0.01966-0.0459 0.03931-0.1114 0.03931-0.1704 0-0.2162-0.1769-0.3866-0.3997-0.3866-0.19 0-0.3342 0.1245-0.3866 0.2621l-1.343 3.335-1.324-3.309c-0.06552-0.1704-0.2031-0.2883-0.4128-0.2883-0.2293 0-0.4062 0.1769-0.4062 0.3931 0 0.0721 0.01966 0.131 0.04587 0.19l1.605 3.774c0.08518 0.2031 0.2359 0.3276 0.4587 0.3276z"/>
  <path d="m29.05 314.9h2.7c0.1966 0 0.3604-0.1573 0.3604-0.3604 0-0.1966-0.1638-0.3604-0.3604-0.3604h-2.3v-1.232h1.972c0.1966 0 0.3604-0.1573 0.3604-0.3538 0-0.2031-0.1638-0.3669-0.3604-0.3669h-1.972v-1.193h2.267c0.1966 0 0.3604-0.1572 0.3604-0.3604 0-0.1966-0.1638-0.3604-0.3604-0.3604h-2.667c-0.2293 0-0.4062 0.1769-0.4062 0.4062v3.774c0 0.2293 0.1769 0.4062 0.4062 0.4062z"/>
 </g>
 <rect x="7.995" y="126" width="29" height="49" rx="3" ry="3" fill="#fff" fill-opacity=".9823" stroke="#000" stroke-linecap="round" stroke-linejoin="round"/>
 <rect x="9.995" y="128" width="25" height="45" rx="1" ry="1" fill="#fff" fill-opacity=".9823" stroke="#000" stroke-linecap="round" stroke-linejoin="round" stroke-width=".8"/>
 <g aria-label="UNI">
  <path d="m18.15 168c1.309 0 2.137-0.724 2.137-2.2v-2.256c0-0.2994-0.2367-0.536-0.536-0.536s-0.536 0.2367-0.536 0.536v2.297c0 0.7727-0.3968 1.17-1.051 1.17-0.6544 0-1.051-0.4107-1.051-1.204v-2.263c0-0.2994-0.2367-0.536-0.536-0.536s-0.536 0.2367-0.536 0.536v2.29c0 1.434 0.8006 2.165 2.109 2.165z"/>
  <path d="m21.38 167.5c0 0.2924 0.2367 0.5291 0.5291 0.5291 0.2924 0 0.5291-0.2367 0.5291-0.5291v-2.611l2.144 2.813c0.1462 0.188 0.2994 0.3133 0.5569 0.3133h0.03481c0.2994 0 0.536-0.2367 0.536-0.536v-3.878c0-0.2924-0.2367-0.5291-0.5291-0.5291s-0.5291 0.2367-0.5291 0.5291v2.513l-2.068-2.715c-0.1462-0.188-0.2994-0.3133-0.5569-0.3133h-0.1114c-0.2994 0-0.536 0.2367-0.536 0.536z"/>
  <path d="m26.92 167.5c0 0.2994 0.2367 0.536 0.536 0.536s0.536-0.2367 0.536-0.536v-3.885c0-0.2994-0.2367-0.536-0.536-0.536s-0.536 0.2367-0.536 0.536z"/>
 </g>
 <g aria-label="SIN">
  <path d="m18.25 138c1.051 0 1.789-0.543 1.789-1.511v-0.0139c0-0.8493-0.5569-1.204-1.545-1.462-0.8424-0.2158-1.051-0.3202-1.051-0.6405v-0.0139c0-0.2367 0.2158-0.4247 0.6265-0.4247 0.3342 0 0.6683 0.1183 1.023 0.3272 0.08354 0.0487 0.1671 0.0766 0.2715 0.0766 0.2785 0 0.5012-0.2158 0.5012-0.4943 0-0.2088-0.1183-0.355-0.2367-0.4247-0.4386-0.2785-0.9537-0.4316-1.545-0.4316-0.9955 0-1.706 0.5848-1.706 1.469v0.0139c0 0.9677 0.6335 1.239 1.615 1.49 0.8145 0.2088 0.9816 0.3481 0.9816 0.6196v0.0139c0 0.2854-0.2645 0.4595-0.7031 0.4595-0.4734 0-0.8772-0.1671-1.246-0.4386-0.06962-0.0487-0.1671-0.0975-0.3063-0.0975-0.2785 0-0.5012 0.2158-0.5012 0.4943 0 0.1671 0.08354 0.3202 0.2019 0.4038 0.543 0.3898 1.19 0.5848 1.831 0.5848z"/>
  <path d="m21.02 137.5c0 0.2994 0.2367 0.536 0.536 0.536 0.2994 0 0.536-0.2367 0.536-0.536v-3.885c0-0.2994-0.2367-0.536-0.536-0.536-0.2994 0-0.536 0.2367-0.536 0.536z"/>
  <path d="m23.31 137.5c0 0.2924 0.2367 0.5291 0.5291 0.5291s0.5291-0.2367 0.5291-0.5291v-2.611l2.144 2.812c0.1462 0.188 0.2994 0.3133 0.5569 0.3133h0.03481c0.2994 0 0.536-0.2367 0.536-0.536v-3.878c0-0.2924-0.2367-0.5291-0.5291-0.5291s-0.5291 0.2367-0.5291 0.5291v2.513l-2.068-2.715c-0.1462-0.188-0.2994-0.3133-0.5569-0.3133h-0.1114c-0.2994 0-0.536 0.2367-0.536 0.536z"/>
 </g>
 <path d="m9.995 156.2c4.553 0 7.948-11.2 12.5-11.2 4.553 0 7.948 11.2 12.5 11.2" fill="none" stroke="#000" stroke-width="1.1"/>
 <g aria-label="PHASE">
  <path d="m10.92 269.5c0 0.2367 0.188 0.4247 0.4316 0.4247 0.2367 0 0.4247-0.188 0.4247-0.4247v-1.177h0.9677c1.072 0 1.949-0.5709 1.949-1.664v-0.0139c0-0.9816-0.7101-1.629-1.852-1.629h-1.49c-0.2437 0-0.4316 0.188-0.4316 0.4316zm0.8563-1.949v-1.754h0.9955c0.6405 0 1.051 0.2994 1.051 0.8702v0.0139c0 0.5082-0.4038 0.8702-1.051 0.8702z"/>
  <path d="m15.57 269.5c0 0.2367 0.188 0.4247 0.4316 0.4247 0.2367 0 0.4247-0.188 0.4247-0.4247v-1.664h2.325v1.664c0 0.2367 0.188 0.4247 0.4247 0.4247 0.2437 0 0.4316-0.188 0.4316-0.4247v-4.093c0-0.2367-0.188-0.4247-0.4316-0.4247-0.2367 0-0.4247 0.188-0.4247 0.4247v1.636h-2.325v-1.636c0-0.2367-0.188-0.4247-0.4247-0.4247-0.2437 0-0.4316 0.188-0.4316 0.4247z"/>
  <path d="m20.52 269.6c0 0.2228 0.174 0.3968 0.3968 0.3968 0.181 0 0.3272-0.0975 0.3968-0.2715l0.4107-0.9398h2.367l0.3968 0.912c0.07658 0.181 0.2158 0.2994 0.4177 0.2994 0.2297 0 0.4038-0.181 0.4038-0.4107 0-0.0557-0.01392-0.1184-0.04873-0.181l-1.81-4.038c-0.09746-0.2158-0.2645-0.3481-0.5082-0.3481h-0.04177c-0.2437 0-0.4177 0.1323-0.5152 0.3481l-1.81 4.038c-0.03481 0.0696-0.05569 0.1323-0.05569 0.1949zm1.532-1.573 0.8563-1.97 0.8563 1.97z"/>
  <path d="m27.89 270c1.023 0 1.74-0.543 1.74-1.455v-0.0139c0-0.8076-0.5291-1.177-1.559-1.427-0.9398-0.2228-1.163-0.3898-1.163-0.7658v-0.0139c0-0.3202 0.2924-0.5778 0.7936-0.5778 0.3829 0 0.7449 0.1253 1.121 0.369 0.06962 0.0418 0.1392 0.0626 0.2228 0.0626 0.2228 0 0.4038-0.174 0.4038-0.3968 0-0.1671-0.0905-0.2854-0.188-0.3411-0.4386-0.2924-0.9329-0.4525-1.545-0.4525-0.9677 0-1.664 0.5778-1.664 1.413v0.0139c0 0.898 0.5848 1.204 1.622 1.455 0.905 0.2088 1.1 0.3968 1.1 0.7449v0.0139c0 0.362-0.3342 0.6126-0.8632 0.6126-0.5291 0-0.9607-0.181-1.364-0.5012-0.05569-0.0418-0.1323-0.0766-0.2506-0.0766-0.2228 0-0.4038 0.174-0.4038 0.3968 0 0.1392 0.06962 0.2576 0.1671 0.3272 0.543 0.4038 1.17 0.6126 1.831 0.6126z"/>
  <path d="m31.08 269.9h2.868c0.2088 0 0.3829-0.1671 0.3829-0.3829 0-0.2088-0.174-0.3829-0.3829-0.3829h-2.444v-1.309h2.095c0.2088 0 0.3829-0.1671 0.3829-0.3759 0-0.2158-0.174-0.3898-0.3829-0.3898h-2.095v-1.267h2.409c0.2088 0 0.3829-0.1671 0.3829-0.3829 0-0.2088-0.174-0.3829-0.3829-0.3829h-2.833c-0.2437 0-0.4316 0.188-0.4316 0.4316v4.01c0 0.2436 0.188 0.4316 0.4316 0.4316z"/>
 </g>
 <g aria-label="SHIFT">
  <path d="m14.3 189c1.023 0 1.74-0.543 1.74-1.455v-0.0139c0-0.8076-0.5291-1.177-1.559-1.427-0.9398-0.2228-1.163-0.3898-1.163-0.7658v-0.0139c0-0.3202 0.2924-0.5778 0.7936-0.5778 0.3829 0 0.7449 0.1253 1.121 0.369 0.06962 0.0418 0.1392 0.0627 0.2228 0.0627 0.2228 0 0.4038-0.174 0.4038-0.3968 0-0.1671-0.0905-0.2854-0.188-0.3411-0.4386-0.2924-0.9329-0.4525-1.545-0.4525-0.9677 0-1.664 0.5778-1.664 1.413v0.0139c0 0.898 0.5848 1.204 1.622 1.455 0.905 0.2088 1.1 0.3968 1.1 0.7449v0.0139c0 0.362-0.3342 0.6126-0.8632 0.6126s-0.9607-0.181-1.364-0.5012c-0.05569-0.0418-0.1323-0.0766-0.2506-0.0766-0.2228 0-0.4038 0.174-0.4038 0.3968 0 0.1392 0.06962 0.2576 0.1671 0.3272 0.543 0.4038 1.17 0.6126 1.831 0.6126z"/>
  <path d="m17.06 188.5c0 0.2367 0.188 0.4247 0.4316 0.4247 0.2367 0 0.4247-0.188 0.4247-0.4247v-1.664h2.325v1.664c0 0.2367 0.188 0.4247 0.4247 0.4247 0.2437 0 0.4316-0.188 0.4316-0.4247v-4.093c0-0.2367-0.188-0.4247-0.4316-0.4247-0.2367 0-0.4247 0.188-0.4247 0.4247v1.636h-2.325v-1.636c0-0.2367-0.188-0.4247-0.4247-0.4247-0.2437 0-0.4316 0.188-0.4316 0.4247z"/>
  <path d="m22.4 188.5c0 0.2367 0.188 0.4247 0.4316 0.4247 0.2367 0 0.4247-0.188 0.4247-0.4247v-4.093c0-0.2367-0.188-0.4247-0.4247-0.4247-0.2437 0-0.4316 0.188-0.4316 0.4247z"/>
  <path d="m24.55 188.5c0 0.2367 0.188 0.4247 0.4316 0.4247 0.2367 0 0.4247-0.188 0.4247-0.4247v-1.594h2.102c0.2158 0 0.3899-0.174 0.3899-0.3898s-0.174-0.3899-0.3899-0.3899h-2.102v-1.33h2.416c0.2158 0 0.3899-0.174 0.3899-0.3898s-0.174-0.3899-0.3899-0.3899h-2.84c-0.2437 0-0.4316 0.188-0.4316 0.4316z"/>
  <path d="m30.32 188.5c0 0.2367 0.1949 0.4247 0.4316 0.4247s0.4316-0.188 0.4316-0.4247v-3.69h1.19c0.2158 0 0.3899-0.181 0.3899-0.3968s-0.174-0.3968-0.3899-0.3968h-3.237c-0.2228 0-0.3968 0.181-0.3968 0.3968s0.174 0.3968 0.3968 0.3968h1.183z"/>
 </g>
 <g transform="matrix(.4086 0 0 .4082 -8.143 196)" fill="none" stroke="#000">
  <path d="m75 111v-36.74" stroke-width="1.714"/>
  <path d="m49.14 136.9a36.57 36.59 0 0 1 0-51.75 36.57 36.59 0 0 1 51.71 1e-6 36.57 36.59 0 0 1 0 51.75" stroke-linecap="round" stroke-linejoin="round" stroke-width="1.469"/>
  <g stroke-width="1.714">
   <path d="m75 111-29.27 29.27"/>
   <path d="m75 111 29.27 29.27"/>
   <path d="m75 111 25.95-25.98"/>
   <path d="m75.01 111h36.7"/>
   <path d="m95.4 80.42 2.828-4.235"/>
   <path d="m109 96.93 4.622-1.916"/>
   <path d="m111.1 118.3 4.971 0.9895"/>
   <path d="m75 111-25.95-25.98"/>
   <path d="m75 111h-36.7"/>
   <path d="m54.61 80.42-2.828-4.235"/>
   <path d="m40.96 96.93-4.622-1.916"/>
   <path d="m38.92 118.3-4.971 0.9895"/>
  </g>
 </g>
 <path d="m22.5 226.3v-13.31" fill="none" stroke="#000" stroke-width=".7"/>
 <g aria-label="PWM">
  <path d="m11.95 46.55c0 0.29 0.2303 0.5203 0.5288 0.5203 0.29 0 0.5203-0.2303 0.5203-0.5203v-1.441h1.186c1.314 0 2.388-0.6994 2.388-2.039v-0.01706c0-1.203-0.87-1.996-2.269-1.996h-1.825c-0.2985 0-0.5288 0.2303-0.5288 0.5288zm1.049-2.388v-2.149h1.22c0.7847 0 1.288 0.3668 1.288 1.066v0.01706c0 0.6226-0.4947 1.066-1.288 1.066z"/>
  <path d="m19 46.68c0.1024 0.2729 0.29 0.435 0.5459 0.435h0.1024c0.2559 0 0.4521-0.1621 0.5459-0.435l1.331-3.898 1.331 3.898c0.09382 0.2729 0.2815 0.435 0.5374 0.435h0.1024c0.2559 0 0.4521-0.1706 0.5459-0.435l1.766-4.947c0.02559-0.05971 0.05118-0.145 0.05118-0.2132 0-0.2815-0.2388-0.5032-0.5203-0.5032-0.2559 0-0.435 0.1621-0.5118 0.3753l-1.373 4.111-1.348-4.086c-0.07676-0.2474-0.2644-0.4179-0.5288-0.4179h-0.07677c-0.2644 0-0.4435 0.1706-0.5288 0.4179l-1.348 4.086-1.373-4.103c-0.06823-0.2218-0.2644-0.3838-0.5203-0.3838-0.29 0-0.5374 0.2218-0.5374 0.5118 0 0.06824 0.01706 0.145 0.04265 0.2047z"/>
  <path d="m26.98 46.56c0 0.29 0.2218 0.5118 0.5118 0.5118s0.5203-0.2218 0.5203-0.5118v-3.574l1.45 2.175c0.1109 0.1706 0.2474 0.2729 0.435 0.2729 0.1962 0 0.3326-0.1024 0.4435-0.2729l1.459-2.192v3.582c0 0.2815 0.2388 0.5203 0.5203 0.5203 0.2985 0 0.5288-0.2303 0.5288-0.5203v-4.998c0-0.29-0.2303-0.5288-0.5288-0.5288h-0.1109c-0.2132 0-0.3668 0.09382-0.4776 0.2729l-1.817 2.84-1.808-2.832c-0.1024-0.1621-0.2559-0.2815-0.4862-0.2815h-0.1109c-0.2985 0-0.5288 0.2388-0.5288 0.5288z"/>
 </g>
 <g transform="translate(-100.5 -128)" fill="none" stroke="#000" stroke-miterlimit="1.579" stroke-width=".8">
  <path d="m123 199.3v-16.25"/>
  <path d="m111.6 210.8a16.19 16.19 0 0 1 0-22.89 16.19 16.19 0 0 1 22.89 0 16.19 16.19 0 0 1 0 22.89" stroke-linecap="round" stroke-linejoin="round"/>
  <path d="m123 199.3-12.96 12.95"/>
  <path d="m123 199.3 12.96 12.95"/>
  <path d="m123 199.3 11.49-11.49"/>
  <path d="m123 199.3 15.01-6.219"/>
  <path d="m123 199.3-11.49-11.49"/>
  <path d="m123 199.3-15.01-6.219"/>
 </g>
 <g transform="translate(-100.5 -128)" stroke="#000" stroke-linecap="round" stroke-linejoin="round" stroke-miterlimit="1.579">
  <circle cx="123" cy="199.3" r="13.38" fill="#fff"/>
  <path d="m125.7 186.5c-0.5638-0.1194-1.134-0.1878-1.706-0.2322-0.2947 0.3991-0.8038 0.577-1.283 0.4483-0.2652-0.0719-0.4978-0.2321-0.6596-0.4542-0.5717 0.0406-1.143 0.1048-1.707 0.2203-1.99 1.858-4.302 3.29-7.1 4.075-0.392 0.4351-0.7412 0.9025-1.07 1.384 0.1102 0.2517 0.1311 0.5334 0.0594 0.7986-0.1312 0.4779-0.5412 0.8269-1.034 0.8799-0.2549 0.5252-0.4875 1.061-0.671 1.618 0.4292 2.734 0.5182 5.462-0.0223 8.177 0.1804 0.5506 0.409 1.081 0.6591 1.601 0.0618 6e-3 0.1229 0.0173 0.183 0.0331 0.6427 0.1745 1.022 0.837 0.8478 1.48-0.0159 0.0577-0.0362 0.1142-0.0605 0.169 0.3245 0.4776 0.6685 0.9422 1.055 1.375 2.629 0.8068 5.019 2.117 7.082 4.113 0.5632 0.1194 1.133 0.1873 1.704 0.2317 0.295-0.3984 0.8038-0.5756 1.282-0.4468 0.2646 0.072 0.4967 0.2321 0.658 0.4538 0.5713-0.0403 1.141-0.1041 1.705-0.2192 2.114-1.892 4.523-3.165 7.103-4.078 0.392-0.4351 0.7411-0.9025 1.07-1.384-0.1102-0.2517-0.1311-0.5334-0.0594-0.7986 0.1312-0.4779 0.5412-0.8269 1.034-0.8799 0.2549-0.5252 0.4875-1.061 0.671-1.618-0.5799-2.751-0.4825-5.472 0.0215-8.174-0.1806-0.552-0.4092-1.083-0.6598-1.604-0.0607-6e-3 -0.1208-0.017-0.1799-0.0323-0.6423-0.1735-1.023-0.8344-0.8502-1.477 0.0165-0.0582 0.0374-0.1151 0.0625-0.1701-0.3246-0.4782-0.6694-0.9437-1.056-1.377-2.612-0.8905-4.973-2.26-7.081-4.112z" fill="none" stroke-width=".8"/>
  <ellipse transform="scale(1,-1)" cx="123" cy="-199.3" rx="9.054" ry="9.06" fill="none" stroke-width=".8"/>
 </g>
 <g fill="#fff" stroke="#000" stroke-linecap="round" stroke-linejoin="round" stroke-miterlimit="1.579" stroke-width=".8">
  <path d="m22.81 98.51c-3.748 1e-5 -6.786 3.038-6.787 6.786 0 3.748 3.038 6.787 6.787 6.787 3.748-6e-4 6.786-3.039 6.786-6.787-5e-4 -3.747-3.038-6.785-6.786-6.786zm0 1.602c2.862 5.6e-4 5.183 2.321 5.184 5.184 0 2.863-2.321 5.184-5.184 5.185-2.864 0-5.185-2.321-5.185-5.185 6e-4 -2.863 2.322-5.184 5.185-5.184z"/>
  <path d="m22.81 93.21a12.13 12.13 0 0 0-12.13 12.13 12.13 12.13 0 0 0 12.13 12.13 12.13 12.13 0 0 0 12.13-12.13 12.13 12.13 0 0 0-12.13-12.13zm0 2.312a9.818 9.818 0 0 1 9.816 9.816 9.818 9.818 0 0 1-9.816 9.818 9.818 9.818 0 0 1-9.818-9.818 9.818 9.818 0 0 1 9.818-9.816z"/>
  <path d="m18.81 117.3c1.899 0.0227 11.59-1.78 12.22-2.32 0.6775-0.5757 4.424-11.09 4.264-11.96-0.1658-0.8736-7.393-9.378-8.23-9.676-0.8379-0.298-11.82 1.715-12.49 2.291-0.6775 0.5758-4.424 11.09-4.264 11.96 0.1648 0.8738 7.393 9.378 8.23 9.676 0.054 0.0147 0.1438 0.0274 0.2698 0.0299zm3.166-2.55c-5.216-0.4567-9.074-5.055-8.618-10.27 0.4558-5.216 5.054-9.076 10.27-8.62 5.217 0.456 9.077 5.056 8.62 10.27-0.4568 5.216-5.056 9.075-10.27 8.618z"/>
  <path d="m20.21 96.81c-3.272 0-5.906 2.634-5.906 5.906v5.279c0 3.272 2.634 5.906 5.906 5.906h5.279c3.272 0 5.906-2.634 5.906-5.906v-5.279c0-3.272-2.634-5.906-5.906-5.906zm2.641 1.885a6.662 6.662 0 0 1 6.66 6.66 6.662 6.662 0 0 1-6.66 6.662 6.662 6.662 0 0 1-6.662-6.662 6.662 6.662 0 0 1 6.662-6.66z"/>
 </g>
 <g transform="translate(0 101)" fill="#fff" stroke="#000" stroke-linecap="round" stroke-linejoin="round" stroke-miterlimit="1.579" stroke-width=".8">
  <path d="m22.81 98.51c-3.748 1e-5 -6.786 3.038-6.787 6.786 0 3.748 3.038 6.787 6.787 6.787 3.748-6e-4 6.786-3.039 6.786-6.787-5e-4 -3.747-3.038-6.785-6.786-6.786zm0 1.602c2.862 5.6e-4 5.183 2.321 5.184 5.184 0 2.863-2.321 5.184-5.184 5.185-2.864 0-5.185-2.321-5.185-5.185 6e-4 -2.863 2.322-5.184 5.185-5.184z"/>
  <path d="m22.81 93.21a12.13 12.13 0 0 0-12.13 12.13 12.13 12.13 0 0 0 12.13 12.13 12.13 12.13 0 0 0 12.13-12.13 12.13 12.13 0 0 0-12.13-12.13zm0 2.312a9.818 9.818 0 0 1 9.816 9.816 9.818 9.818 0 0 1-9.816 9.818 9.818 9.818 0 0 1-9.818-9.818 9.818 9.818 0 0 1 9.818-9.816z"/>
  <path d="m18.81 117.3c1.899 0.0227 11.59-1.78 12.22-2.32 0.6775-0.5757 4.424-11.09 4.264-11.96-0.1658-0.8736-7.393-9.378-8.23-9.676-0.8379-0.298-11.82 1.715-12.49 2.291-0.6775 0.5758-4.424 11.09-4.264 11.96 0.1648 0.8738 7.393 9.378 8.23 9.676 0.054 0.0147 0.1438 0.0274 0.2698 0.0299zm3.166-2.55c-5.216-0.4567-9.074-5.055-8.618-10.27 0.4558-5.216 5.054-9.076 10.27-8.62 5.217 0.456 9.077 5.056 8.62 10.27-0.4568 5.216-5.056 9.075-10.27 8.618z"/>
  <path d="m20.21 96.81c-3.272 0-5.906 2.634-5.906 5.906v5.279c0 3.272 2.634 5.906 5.906 5.906h5.279c3.272 0 5.906-2.634 5.906-5.906v-5.279c0-3.272-2.634-5.906-5.906-5.906zm2.641 1.885a6.662 6.662 0 0 1 6.66 6.66 6.662 6.662 0 0 1-6.66 6.662 6.662 6.662 0 0 1-6.662-6.662 6.662 6.662 0 0 1 6.662-6.66z"/>
 </g>
 <g transform="translate(0 227)" fill="#fff" stroke="#000" stroke-linecap="round" stroke-linejoin="round" stroke-miterlimit="1.579" stroke-width=".8">
  <path d="m22.81 98.51c-3.748 1e-5 -6.786 3.038-6.787 6.786 0 3.748 3.038 6.787 6.787 6.787 3.748-6e-4 6.786-3.039 6.786-6.787-5e-4 -3.747-3.038-6.785-6.786-6.786zm0 1.602c2.862 5.6e-4 5.183 2.321 5.184 5.184 0 2.863-2.321 5.184-5.184 5.185-2.864 0-5.185-2.321-5.185-5.185 6e-4 -2.863 2.322-5.184 5.185-5.184z"/>
  <path d="m22.81 93.21a12.13 12.13 0 0 0-12.13 12.13 12.13 12.13 0 0 0 12.13 12.13 12.13 12.13 0 0 0 12.13-12.13 12.13 12.13 0 0 0-12.13-12.13zm0 2.312a9.818 9.818 0 0 1 9.816 9.816 9.818 9.818 0 0 1-9.816 9.818 9.818 9.818 0 0 1-9.818-9.818 9.818 9.818 0 0 1 9.818-9.816z"/>
  <path d="m18.81 117.3c1.899 0.0227 11.59-1.78 12.22-2.32 0.6775-0.5757 4.424-11.09 4.264-11.96-0.1658-0.8736-7.393-9.378-8.23-9.676-0.8379-0.298-11.82 1.715-12.49 2.291-0.6775 0.5758-4.424 11.09-4.264 11.96 0.1648 0.8738 7.393 9.378 8.23 9.676 0.054 0.0147 0.1438 0.0274 0.2698 0.0299zm3.166-2.55c-5.216-0.4567-9.074-5.055-8.618-10.27 0.4558-5.216 5.054-9.076 10.27-8.62 5.217 0.456 9.077 5.056 8.62 10.27-0.4568 5.216-5.056 9.075-10.27 8.618z"/>
  <path d="m20.21 96.81c-3.272 0-5.906 2.634-5.906 5.906v5.279c0 3.272 2.634 5.906 5.906 5.906h5.279c3.272 0 5.906-2.634 5.906-5.906v-5.279c0-3.272-2.634-5.906-5.906-5.906zm2.641 1.885a6.662 6.662 0 0 1 6.66 6.66 6.662 6.662 0 0 1-6.66 6.662 6.662 6.662 0 0 1-6.662-6.662 6.662 6.662 0 0 1 6.662-6.66z"/>
 </g>
 <g transform="translate(0 182)" fill="#fff" stroke="#000" stroke-linecap="round" stroke-linejoin="round" stroke-miterlimit="1.579" stroke-width=".8">
  <path d="m22.81 98.51c-3.748 1e-5 -6.786 3.038-6.787 6.786 0 3.748 3.038 6.787 6.787 6.787 3.748-6e-4 6.786-3.039 6.786-6.787-5e-4 -3.747-3.038-6.785-6.786-6.786zm0 1.602c2.862 5.6e-4 5.183 2.321 5.184 5.184 0 2.863-2.321 5.184-5.184 5.185-2.864 0-5.185-2.321-5.185-5.185 6e-4 -2.863 2.322-5.184 5.185-5.184z"/>
  <path d="m22.81 93.21a12.13 12.13 0 0 0-12.13 12.13 12.13 12.13 0 0 0 12.13 12.13 12.13 12.13 0 0 0 12.13-12.13 12.13 12.13 0 0 0-12.13-12.13zm0 2.312a9.818 9.818 0 0 1 9.816 9.816 9.818 9.818 0 0 1-9.816 9.818 9.818 9.818 0 0 1-9.818-9.818 9.818 9.818 0 0 1 9.818-9.816z"/>
  <path d="m18.81 117.3c1.899 0.0227 11.59-1.78 12.22-2.32 0.6775-0.5757 4.424-11.09 4.264-11.96-0.1658-0.8736-7.393-9.378-8.23-9.676-0.8379-0.298-11.82 1.715-12.49 2.291-0.6775 0.5758-4.424 11.09-4.264 11.96 0.1648 0.8738 7.393 9.378 8.23 9.676 0.054 0.0147 0.1438 0.0274 0.2698 0.0299zm3.166-2.55c-5.216-0.4567-9.074-5.055-8.618-10.27 0.4558-5.216 5.054-9.076 10.27-8.62 5.217 0.456 9.077 5.056 8.62 10.27-0.4568 5.216-5.056 9.075-10.27 8.618z"/>
  <path d="m20.21 96.81c-3.272 0-5.906 2.634-5.906 5.906v5.279c0 3.272 2.634 5.906 5.906 5.906h5.279c3.272 0 5.906-2.634 5.906-5.906v-5.279c0-3.272-2.634-5.906-5.906-5.906zm2.641 1.885a6.662 6.662 0 0 1 6.66 6.66 6.662 6.662 0 0 1-6.66 6.662 6.662 6.662 0 0 1-6.662-6.662 6.662 6.662 0 0 1 6.662-6.66z"/>
 </g>
 <g transform="translate(-32.36 38.03)" fill="#fff" stroke="#000" stroke-miterlimit="3.2" stroke-opacity=".9761" stroke-width=".8">
  <circle cx="54.87" cy="203.3" r="11.83" stroke-linecap="round" stroke-linejoin="round"/>
  <path d="m54.87 191.5a11.83 11.83 0 0 0-1.01 0.05c-0.2409 0.3388-0.3902 0.7602-0.4888 1.073l1.499 10.71 1.494-10.7c-0.0751-0.321-0.2192-0.7399-0.4664-1.076a11.83 11.83 0 0 0-1.028-0.0518zm0 11.83 6.647-8.523c0.0955-0.3156 0.1793-0.7512 0.133-1.166a11.83 11.83 0 0 0-1.774-1.016c-0.3744 0.1735-0.7102 0.461-0.95 0.6806zl10.02-4.057c0.2384-0.2236 0.5279-0.5547 0.6961-0.9328a11.83 11.83 0 0 0-1.024-1.777c-0.4113-0.0377-0.8466 0.0437-1.164 0.114zl10.7 1.496c0.3207-0.075 0.7384-0.2196 1.074-0.4664a11.83 11.83 0 0 0 0.0536-1.029 11.83 11.83 0 0 0-0.0518-1.01c-0.3384-0.2405-0.7591-0.3904-1.071-0.4888zl8.523 6.647c0.316 0.0956 0.7524 0.1793 1.168 0.133a11.83 11.83 0 0 0 1.014-1.772c-0.1735-0.3744-0.461-0.7102-0.6806-0.95zl4.056 10.02c0.2236 0.2384 0.5543 0.5279 0.9328 0.6961a11.83 11.83 0 0 0 1.779-1.026c0.0369-0.4108-0.0455-0.8453-0.1157-1.162zl-1.496 10.7c0.0751 0.321 0.2192 0.74 0.4664 1.076a11.83 11.83 0 0 0 1.029 0.0518 11.83 11.83 0 0 0 1.009-0.0501c0.2413-0.3388 0.3919-0.7602 0.4906-1.073zl-6.648 8.523c-0.0956 0.316-0.1797 0.7524-0.133 1.168a11.83 11.83 0 0 0 1.774 1.016c0.3744-0.1731 0.7102-0.461 0.95-0.6806zl-10.02 4.057c-0.2384 0.2236-0.5279 0.5543-0.6961 0.9327a11.83 11.83 0 0 0 1.028 1.779c0.4103 0.0364 0.844-0.0456 1.161-0.1157zl-10.7-1.494c-0.321 0.0751-0.74 0.2192-1.076 0.4664a11.83 11.83 0 0 0-0.0518 1.028 11.83 11.83 0 0 0 0.05 1.01c0.3383 0.2409 0.7584 0.3902 1.071 0.4888zl-8.523-6.647c-0.3164-0.0957-0.7536-0.1797-1.169-0.133a11.83 11.83 0 0 0-1.014 1.772c0.1731 0.3749 0.461 0.712 0.6806 0.9518zl-4.057-10.02c-0.224-0.2388-0.5554-0.528-0.9345-0.6961a11.83 11.83 0 0 0-1.777 1.024c-0.0372 0.4113 0.0455 0.8466 0.1157 1.164z"/>
  <g stroke-linecap="round" stroke-linejoin="round">
   <path d="m53.38 192.6a10.8 10.8 0 0 0-2.553 0.6754 2.332 2.332 0 0 1 0 2e-3 2.332 2.332 0 0 1-1.028 1.225 2.332 2.332 0 0 1-1.574 0.2729 10.8 10.8 0 0 0-1.86 1.874 2.332 2.332 0 0 1-0.2781 1.567 2.332 2.332 0 0 1-1.223 1.023 10.8 10.8 0 0 0-0.6788 2.553 2.332 2.332 0 0 1 0.5441 1.496 2.332 2.332 0 0 1-0.5441 1.494 10.8 10.8 0 0 0 0.6771 2.551 2.332 2.332 0 0 1 1.225 1.028 2.332 2.332 0 0 1 0.2729 1.574 10.8 10.8 0 0 0 1.878 1.862 2.332 2.332 0 0 1 0.285-0.0345 2.332 2.332 0 0 1 1.276 0.3109 2.332 2.332 0 0 1 1.024 1.223 10.8 10.8 0 0 0 2.555 0.6771 2.332 2.332 0 0 1 1.494-0.5424 2.332 2.332 0 0 1 1.492 0.5441 10.8 10.8 0 0 0 2.551-0.6754 2.332 2.332 0 0 1 0-2e-3 2.332 2.332 0 0 1 1.028-1.225 2.332 2.332 0 0 1 1.111-0.3126 2.332 2.332 0 0 1 0.4629 0.0396 10.8 10.8 0 0 0 1.86-1.874 2.332 2.332 0 0 1 0.2781-1.565 2.332 2.332 0 0 1 1.225-1.028 10.8 10.8 0 0 0 0.6771-2.551 2.332 2.332 0 0 1-0.5424-1.494 2.332 2.332 0 0 1 0.5441-1.494 10.8 10.8 0 0 0-0.6771-2.55 2.332 2.332 0 0 1-2e-3 0 2.332 2.332 0 0 1-1.225-1.028 2.332 2.332 0 0 1-0.2746-1.574 10.8 10.8 0 0 0-1.874-1.862 2.332 2.332 0 0 1-1.563-0.2781 2.332 2.332 0 0 1-1.023-1.221 10.8 10.8 0 0 0-2.555-0.6788 2.332 2.332 0 0 1-1.494 0.5424 2.332 2.332 0 0 1-1.492-0.5441z"/>
   <ellipse transform="scale(1,-1)" cx="54.87" cy="-203.3" rx="7.454" ry="7.459"/>
   <path d="m54.16 191.5c-0.1815 7e-3 -0.345 0.0378-0.5185 0.0553v5.149c0 0.477 0.3841 0.8613 0.8607 0.8613h0.7224c0.4766 0 0.8607-0.3843 0.8607-0.8613v-5.164c-0.3882-0.0388-0.7922-0.0564-1.222-0.0398-0.2412-9e-3 -0.4756-9e-3 -0.7034 1e-5z"/>
  </g>
 </g>
</svg>
