<?xml version="1.0" encoding="UTF-8" standalone="no"?>
<!-- Created with Inkscape (http://www.inkscape.org/) -->

<svg
   xmlns:dc="http://purl.org/dc/elements/1.1/"
   xmlns:cc="http://creativecommons.org/ns#"
   xmlns:rdf="http://www.w3.org/1999/02/22-rdf-syntax-ns#"
   xmlns:svg="http://www.w3.org/2000/svg"
   xmlns="http://www.w3.org/2000/svg"
   xmlns:sodipodi="http://sodipodi.sourceforge.net/DTD/sodipodi-0.dtd"
   xmlns:inkscape="http://www.inkscape.org/namespaces/inkscape"
   width="150"
   height="380"
   viewBox="0 0 150 380"
   version="1.1"
   id="svg8"
   inkscape:version="0.92.3 (2405546, 2018-03-11)"
   sodipodi:docname="Clock.svg">
  <defs
     id="defs2">
    <clipPath
       clipPathUnits="userSpaceOnUse"
       id="clipPath1763">
      <path
         inkscape:connector-curvature="0"
         id="path1765"
         d="M 0,196.45831 H 23.8125 V 296.99999 H 0 Z"
         style="opacity:1;vector-effect:none;fill:#28220b;fill-opacity:1;fill-rule:evenodd;stroke:none;stroke-width:0.48607069;stroke-linecap:butt;stroke-linejoin:round;stroke-miterlimit:4;stroke-dasharray:none;stroke-dashoffset:0;stroke-opacity:1;paint-order:normal" />
    </clipPath>
    <clipPath
       clipPathUnits="userSpaceOnUse"
       id="clipPath3293">
      <path
         style="opacity:1;vector-effect:none;fill:#28220b;fill-opacity:1;fill-rule:evenodd;stroke:none;stroke-width:0.48607066;stroke-linecap:butt;stroke-linejoin:round;stroke-miterlimit:4;stroke-dasharray:none;stroke-dashoffset:0;stroke-opacity:1;paint-order:normal"
         d="M -1.5460537e-7,196.45831 H 19.843751 V 296.99999 H -1.5460537e-7 Z"
         id="path3295"
         inkscape:connector-curvature="0" />
    </clipPath>
  </defs>
  <sodipodi:namedview
     id="base"
     pagecolor="#ffffff"
     bordercolor="#666666"
     borderopacity="1.0"
     inkscape:pageopacity="0.0"
     inkscape:pageshadow="2"
     inkscape:zoom="4"
     inkscape:cx="91.250748"
     inkscape:cy="199.17426"
     inkscape:document-units="px"
     inkscape:current-layer="svg8"
     showgrid="false"
     units="px"
     inkscape:snap-bbox="true"
     inkscape:snap-page="true"
     inkscape:bbox-nodes="true"
     inkscape:snap-bbox-edge-midpoints="true"
     inkscape:window-width="2569"
     inkscape:window-height="1767"
     inkscape:window-x="848"
     inkscape:window-y="183"
     inkscape:window-maximized="0"
     showguides="true"
     inkscape:guide-bbox="true"
     inkscape:snap-global="false">
    <inkscape:grid
       type="xygrid"
       id="grid985" />
  </sodipodi:namedview>
  <metadata
     id="metadata5">
    <rdf:RDF>
      <cc:Work
         rdf:about="">
        <dc:format>image/svg+xml</dc:format>
        <dc:type
           rdf:resource="http://purl.org/dc/dcmitype/StillImage" />
        <dc:title></dc:title>
      </cc:Work>
    </rdf:RDF>
  </metadata>
  <path
     sodipodi:nodetypes="ccccc"
     inkscape:connector-curvature="0"
     id="path18115"
     d="M -0.00767,0.0097 H 149.99426 V 380.0145 H -0.00767 Z"
     style="opacity:1;vector-effect:none;fill:#202321;fill-opacity:1;fill-rule:evenodd;stroke:none;stroke-width:1.83714068;stroke-linecap:butt;stroke-linejoin:round;stroke-miterlimit:4;stroke-dasharray:none;stroke-dashoffset:0;stroke-opacity:1;paint-order:normal" />
  <path
     sodipodi:nodetypes="cc"
     inkscape:connector-curvature="0"
     id="path18125"
     d="m 74.99373,102.0111 v 25.0003"
     style="fill:none;fill-rule:evenodd;stroke:#3a3c3b;stroke-width:1.00001264px;stroke-linecap:butt;stroke-linejoin:miter;stroke-opacity:1" />
  <path
     sodipodi:nodetypes="cc"
     inkscape:connector-curvature="0"
     id="path18127"
     d="M 127.49399,213.0124 V 192.0122"
     style="fill:none;fill-rule:evenodd;stroke:#3a3c3b;stroke-width:1.00001264px;stroke-linecap:butt;stroke-linejoin:miter;stroke-opacity:1" />
  <g
     aria-label="RESET"
     style="font-style:normal;font-variant:normal;font-weight:300;font-stretch:normal;font-size:6.96164751px;line-height:1.25;font-family:'Gotham Rounded';-inkscape-font-specification:'Gotham Rounded Light';text-align:center;letter-spacing:0px;word-spacing:0px;text-anchor:middle;fill:#cccccc;fill-opacity:1;stroke:none;stroke-width:1.00001252"
     id="text18131">
    <path
       d="m 116.62856,162.55473 c 0,0.23669 0.18797,0.42466 0.43162,0.42466 0.2367,0 0.42467,-0.18797 0.42467,-0.42466 v -1.30879 h 1.07905 l 1.18348,1.51068 c 0.0975,0.13227 0.22277,0.22277 0.4177,0.22277 0.20885,0 0.41074,-0.16012 0.41074,-0.39682 0,-0.13227 -0.0557,-0.22277 -0.13924,-0.32719 l -0.93286,-1.17652 c 0.6544,-0.20189 1.10691,-0.67528 1.10691,-1.45499 v -0.0139 c 0,-0.42466 -0.1462,-0.78667 -0.40378,-1.05121 -0.31327,-0.30631 -0.79363,-0.48731 -1.40625,-0.48731 h -1.74042 c -0.24365,0 -0.43162,0.18796 -0.43162,0.43162 z m 0.85629,-2.06761 v -1.63599 h 1.24613 c 0.63351,0 1.00944,0.28543 1.00944,0.80755 v 0.0139 c 0,0.49427 -0.38985,0.81451 -1.00248,0.81451 z"
       style="font-style:normal;font-variant:normal;font-weight:300;font-stretch:normal;font-family:'Gotham Rounded';-inkscape-font-specification:'Gotham Rounded Light';text-align:center;text-anchor:middle;fill:#cccccc;fill-opacity:1;stroke-width:1.00001252"
       id="path1989" />
    <path
       d="m 122.09106,162.94458 h 2.8682 c 0.20885,0 0.38289,-0.16708 0.38289,-0.38289 0,-0.20885 -0.17404,-0.38289 -0.38289,-0.38289 h -2.44354 v -1.30879 h 2.09546 c 0.20885,0 0.38289,-0.16708 0.38289,-0.37593 0,-0.21581 -0.17404,-0.38985 -0.38289,-0.38985 h -2.09546 v -1.26702 h 2.40873 c 0.20885,0 0.38289,-0.16708 0.38289,-0.38289 0,-0.20885 -0.17404,-0.38289 -0.38289,-0.38289 h -2.83339 c -0.24365,0 -0.43162,0.18796 -0.43162,0.43162 v 4.00991 c 0,0.24366 0.18797,0.43162 0.43162,0.43162 z"
       style="font-style:normal;font-variant:normal;font-weight:300;font-stretch:normal;font-family:'Gotham Rounded';-inkscape-font-specification:'Gotham Rounded Light';text-align:center;text-anchor:middle;fill:#cccccc;fill-opacity:1;stroke-width:1.00001252"
       id="path1991" />
    <path
       d="m 128.0288,163.0142 c 1.02337,0 1.74042,-0.54301 1.74042,-1.45499 v -0.0139 c 0,-0.80755 -0.52909,-1.17652 -1.55941,-1.42714 -0.93982,-0.22277 -1.1626,-0.38985 -1.1626,-0.76578 v -0.0139 c 0,-0.32024 0.29239,-0.57782 0.79363,-0.57782 0.38289,0 0.7449,0.12531 1.12083,0.36897 0.0696,0.0418 0.13923,0.0626 0.22277,0.0626 0.22277,0 0.40377,-0.17404 0.40377,-0.39681 0,-0.16708 -0.0905,-0.28543 -0.18796,-0.34112 -0.43858,-0.29239 -0.93286,-0.45251 -1.54549,-0.45251 -0.96767,0 -1.66383,0.57782 -1.66383,1.41321 v 0.0139 c 0,0.89805 0.58478,1.20436 1.62206,1.45498 0.90502,0.20885 1.09994,0.39682 1.09994,0.7449 v 0.0139 c 0,0.36201 -0.33416,0.61263 -0.86324,0.61263 -0.52909,0 -0.96071,-0.18101 -1.36448,-0.50124 -0.0557,-0.0418 -0.13227,-0.0766 -0.25062,-0.0766 -0.22278,0 -0.40378,0.17404 -0.40378,0.39681 0,0.13924 0.0696,0.25759 0.16708,0.3272 0.54301,0.40378 1.16956,0.61263 1.83091,0.61263 z"
       style="font-style:normal;font-variant:normal;font-weight:300;font-stretch:normal;font-family:'Gotham Rounded';-inkscape-font-specification:'Gotham Rounded Light';text-align:center;text-anchor:middle;fill:#cccccc;fill-opacity:1;stroke-width:1.00001252"
       id="path1993" />
    <path
       d="m 131.21463,162.94458 h 2.8682 c 0.20885,0 0.38289,-0.16708 0.38289,-0.38289 0,-0.20885 -0.17404,-0.38289 -0.38289,-0.38289 h -2.44354 v -1.30879 h 2.09546 c 0.20884,0 0.38289,-0.16708 0.38289,-0.37593 0,-0.21581 -0.17405,-0.38985 -0.38289,-0.38985 h -2.09546 v -1.26702 h 2.40873 c 0.20885,0 0.38289,-0.16708 0.38289,-0.38289 0,-0.20885 -0.17404,-0.38289 -0.38289,-0.38289 h -2.83339 c -0.24366,0 -0.43162,0.18796 -0.43162,0.43162 v 4.00991 c 0,0.24366 0.18796,0.43162 0.43162,0.43162 z"
       style="font-style:normal;font-variant:normal;font-weight:300;font-stretch:normal;font-family:'Gotham Rounded';-inkscape-font-specification:'Gotham Rounded Light';text-align:center;text-anchor:middle;fill:#cccccc;fill-opacity:1;stroke-width:1.00001252"
       id="path1995" />
    <path
       d="m 136.64417,162.55473 c 0,0.23669 0.19493,0.42466 0.43162,0.42466 0.2367,0 0.43162,-0.18797 0.43162,-0.42466 v -3.68968 h 1.19045 c 0.21581,0 0.38985,-0.181 0.38985,-0.39681 0,-0.21581 -0.17404,-0.39681 -0.38985,-0.39681 h -3.23717 c -0.22277,0 -0.39681,0.181 -0.39681,0.39681 0,0.21581 0.17404,0.39681 0.39681,0.39681 h 1.18348 z"
       style="font-style:normal;font-variant:normal;font-weight:300;font-stretch:normal;font-family:'Gotham Rounded';-inkscape-font-specification:'Gotham Rounded Light';text-align:center;text-anchor:middle;fill:#cccccc;fill-opacity:1;stroke-width:1.00001252"
       id="path1997" />
  </g>
  <g
     aria-label="BPM"
     style="font-style:normal;font-variant:normal;font-weight:300;font-stretch:normal;font-size:9.96307468px;line-height:1.25;font-family:'Gotham Rounded';-inkscape-font-specification:'Gotham Rounded Light';letter-spacing:0px;word-spacing:0px;fill:#cccccc;fill-opacity:1;stroke:none;stroke-width:1.00001252"
     id="text18135">
    <path
       d="m 64.638557,48.467861 c 0,0.348707 0.269003,0.61771 0.617711,0.61771 h 2.610325 c 1.55424,0 2.580437,-0.667526 2.580437,-1.91291 v -0.01993 c 0,-0.946492 -0.567895,-1.414757 -1.384868,-1.693723 0.51808,-0.269003 0.996308,-0.717341 0.996308,-1.55424 v -0.01993 c 0,-0.468264 -0.159409,-0.846861 -0.468265,-1.155716 -0.398523,-0.398523 -1.026196,-0.617711 -1.823242,-0.617711 h -2.510695 c -0.348708,0 -0.617711,0.269003 -0.617711,0.617711 z m 1.205532,-3.417335 v -1.853132 h 1.763465 c 0.787082,0 1.225458,0.338745 1.225458,0.886714 v 0.01993 c 0,0.637637 -0.528043,0.946492 -1.315126,0.946492 z m 0,2.94907 v -1.91291 h 1.9428 c 0.966418,0 1.434683,0.348707 1.434683,0.936529 v 0.01993 c 0,0.627674 -0.508117,0.956455 -1.345015,0.956455 z"
       style="font-size:9.96307468px;text-align:center;text-anchor:middle;fill:#cccccc;fill-opacity:1;stroke-width:1.00001252"
       id="path1982" />
    <path
       d="m 71.838435,48.527639 c 0,0.338745 0.269003,0.607748 0.617711,0.607748 0.338745,0 0.607748,-0.269003 0.607748,-0.607748 v -1.68376 h 1.384867 c 1.534314,0 2.789661,-0.816972 2.789661,-2.381174 v -0.01993 c 0,-1.404793 -1.016234,-2.331359 -2.650178,-2.331359 h -2.132098 c -0.348708,0 -0.617711,0.269003 -0.617711,0.617711 z m 1.225459,-2.789661 v -2.510695 h 1.424719 c 0.916603,0 1.504425,0.428413 1.504425,1.245385 v 0.01993 c 0,0.727304 -0.577859,1.245384 -1.504425,1.245384 z"
       style="font-size:9.96307468px;text-align:center;text-anchor:middle;fill:#cccccc;fill-opacity:1;stroke-width:1.00001252"
       id="path1984" />
    <path
       d="m 78.493458,48.537602 c 0,0.338745 0.25904,0.597785 0.597784,0.597785 0.338745,0 0.607748,-0.25904 0.607748,-0.597785 v -4.174528 l 1.693722,2.540584 c 0.12952,0.199261 0.28893,0.318818 0.508117,0.318818 0.229151,0 0.38856,-0.119557 0.51808,-0.318818 l 1.703686,-2.56051 v 4.184491 c 0,0.328782 0.278966,0.607748 0.607747,0.607748 0.348708,0 0.617711,-0.269003 0.617711,-0.607748 v -5.838362 c 0,-0.338744 -0.269003,-0.61771 -0.617711,-0.61771 h -0.12952 c -0.249076,0 -0.428412,0.109594 -0.557932,0.318818 l -2.122135,3.317704 -2.112172,-3.307741 C 79.689027,42.21105 79.509691,42.071567 79.240688,42.071567 h -0.12952 c -0.348707,0 -0.61771,0.278966 -0.61771,0.61771 z"
       style="font-size:9.96307468px;text-align:center;text-anchor:middle;fill:#cccccc;fill-opacity:1;stroke-width:1.00001252"
       id="path1986" />
  </g>
  <path
     sodipodi:nodetypes="cc"
     inkscape:connector-curvature="0"
     id="path18137"
     d="M 57.49312,213.0124 V 192.0122"
     style="fill:none;fill-rule:evenodd;stroke:#3a3c3b;stroke-width:1.00001264px;stroke-linecap:butt;stroke-linejoin:miter;stroke-opacity:1" />
  <rect
     ry="3.0000446"
     rx="3.0000446"
     y="201.01208"
     x="42.992554"
     height="58.000637"
     width="29.000351"
     id="rect18417"
     style="opacity:1;fill:#b3b3b3;fill-opacity:1;stroke:none;stroke-width:1.00001264;stroke-linecap:round;stroke-linejoin:round;stroke-miterlimit:0;stroke-dasharray:none;stroke-dashoffset:0;stroke-opacity:1" />
  <g
     aria-label="CLOCK"
     style="font-style:normal;font-variant:normal;font-weight:300;font-stretch:normal;font-size:6.96164751px;line-height:1.25;font-family:'Gotham Rounded';-inkscape-font-specification:'Gotham Rounded Light';text-align:center;letter-spacing:0px;word-spacing:0px;text-anchor:middle;fill:#000000;fill-opacity:1;stroke:none;stroke-width:1.00001252"
     id="text18143">
    <path
       d="m 47.958912,226.06804 c 0.786667,0 1.30879,-0.25062 1.768259,-0.6544 0.07658,-0.0696 0.139233,-0.17404 0.139233,-0.30631 0,-0.21581 -0.187965,-0.39681 -0.403776,-0.39681 -0.104424,0 -0.194926,0.0418 -0.257581,0.0975 -0.355044,0.29935 -0.703126,0.46643 -1.218288,0.46643 -0.932861,0 -1.60814,-0.77274 -1.60814,-1.72649 v -0.0139 c 0,-0.95375 0.682241,-1.71953 1.60814,-1.71953 0.46643,0 0.828436,0.16708 1.162595,0.43858 0.05569,0.0418 0.139233,0.0835 0.257581,0.0835 0.236696,0 0.424661,-0.181 0.424661,-0.4177 0,-0.15315 -0.07658,-0.2715 -0.16708,-0.34112 -0.42466,-0.32719 -0.918937,-0.54997 -1.670795,-0.54997 -1.47587,0 -2.513155,1.13475 -2.513155,2.52012 v 0.0139 c 0,1.39929 1.05817,2.5062 2.478346,2.5062 z"
       style="font-style:normal;font-variant:normal;font-weight:300;font-stretch:normal;font-family:'Gotham Rounded';-inkscape-font-specification:'Gotham Rounded Light';text-align:center;text-anchor:middle;fill:#000000;fill-opacity:1;stroke-width:1.00001252"
       id="path1971" />
    <path
       d="m 50.836031,225.55287 c 0,0.24366 0.187964,0.43163 0.431622,0.43163 h 2.631503 c 0.215811,0 0.389852,-0.17404 0.389852,-0.38986 0,-0.21581 -0.174041,-0.38985 -0.389852,-0.38985 h -2.206843 v -3.70359 c 0,-0.2367 -0.187964,-0.42466 -0.42466,-0.42466 -0.243658,0 -0.431622,0.18796 -0.431622,0.42466 z"
       style="font-style:normal;font-variant:normal;font-weight:300;font-stretch:normal;font-family:'Gotham Rounded';-inkscape-font-specification:'Gotham Rounded Light';text-align:center;text-anchor:middle;fill:#000000;fill-opacity:1;stroke-width:1.00001252"
       id="path1973" />
    <path
       d="m 57.199521,226.06804 c 1.496754,0 2.554925,-1.14867 2.554925,-2.52012 v -0.0139 c 0,-1.37145 -1.044247,-2.5062 -2.541002,-2.5062 -1.496754,0 -2.554924,1.14868 -2.554924,2.52012 v 0.0139 c 0,1.37145 1.044247,2.5062 2.541001,2.5062 z m 0.01392,-0.79363 c -0.967669,0 -1.656872,-0.77971 -1.656872,-1.72649 v -0.0139 c 0,-0.94679 0.67528,-1.71953 1.642949,-1.71953 0.967669,0 1.656872,0.78667 1.656872,1.73345 v 0.0139 c 0,0.94679 -0.67528,1.71257 -1.642949,1.71257 z"
       style="font-style:normal;font-variant:normal;font-weight:300;font-stretch:normal;font-family:'Gotham Rounded';-inkscape-font-specification:'Gotham Rounded Light';text-align:center;text-anchor:middle;fill:#000000;fill-opacity:1;stroke-width:1.00001252"
       id="path1975" />
    <path
       d="m 63.051547,226.06804 c 0.786666,0 1.308789,-0.25062 1.768258,-0.6544 0.07658,-0.0696 0.139233,-0.17404 0.139233,-0.30631 0,-0.21581 -0.187964,-0.39681 -0.403775,-0.39681 -0.104425,0 -0.194927,0.0418 -0.257581,0.0975 -0.355044,0.29935 -0.703127,0.46643 -1.218289,0.46643 -0.93286,0 -1.60814,-0.77274 -1.60814,-1.72649 v -0.0139 c 0,-0.95375 0.682241,-1.71953 1.60814,-1.71953 0.466431,0 0.828436,0.16708 1.162595,0.43858 0.05569,0.0418 0.139233,0.0835 0.257581,0.0835 0.236696,0 0.424661,-0.181 0.424661,-0.4177 0,-0.15315 -0.07658,-0.2715 -0.16708,-0.34112 -0.42466,-0.32719 -0.918937,-0.54997 -1.670795,-0.54997 -1.475869,0 -2.513155,1.13475 -2.513155,2.52012 v 0.0139 c 0,1.39929 1.058171,2.5062 2.478347,2.5062 z"
       style="font-style:normal;font-variant:normal;font-weight:300;font-stretch:normal;font-family:'Gotham Rounded';-inkscape-font-specification:'Gotham Rounded Light';text-align:center;text-anchor:middle;fill:#000000;fill-opacity:1;stroke-width:1.00001252"
       id="path1977" />
    <path
       d="m 65.928665,225.59464 c 0,0.2367 0.187965,0.42467 0.431623,0.42467 0.236696,0 0.42466,-0.18797 0.42466,-0.42467 v -1.00943 l 0.793628,-0.76579 1.566371,1.998 c 0.0905,0.11835 0.194926,0.20189 0.362005,0.20189 0.243658,0 0.431622,-0.18101 0.431622,-0.4177 0,-0.13227 -0.04873,-0.21581 -0.118348,-0.30632 l -1.642948,-2.03976 1.517639,-1.46194 c 0.09746,-0.0905 0.153156,-0.18797 0.153156,-0.32024 0,-0.20885 -0.160118,-0.39681 -0.396814,-0.39681 -0.153156,0 -0.257581,0.0557 -0.355044,0.16011 l -2.311267,2.32519 v -2.06064 c 0,-0.2367 -0.187964,-0.42466 -0.42466,-0.42466 -0.243658,0 -0.431623,0.18796 -0.431623,0.42466 z"
       style="font-style:normal;font-variant:normal;font-weight:300;font-stretch:normal;font-family:'Gotham Rounded';-inkscape-font-specification:'Gotham Rounded Light';text-align:center;text-anchor:middle;fill:#000000;fill-opacity:1;stroke-width:1.00001252"
       id="path1979" />
  </g>
  <path
     style="fill:none;fill-rule:evenodd;stroke:#3a3c3b;stroke-width:1.00001264px;stroke-linecap:butt;stroke-linejoin:miter;stroke-opacity:1"
     d="M 92.49358,213.0124 V 192.0122"
     id="path18145"
     inkscape:connector-curvature="0"
     sodipodi:nodetypes="cc" />
  <rect
     ry="3.0000446"
     rx="3.0000446"
     y="201.01208"
     x="77.99292"
     height="58.000637"
     width="29.000351"
     id="rect18431"
     style="opacity:1;fill:#b3b3b3;fill-opacity:1;stroke:none;stroke-width:1.00001264;stroke-linecap:round;stroke-linejoin:round;stroke-miterlimit:0;stroke-dasharray:none;stroke-dashoffset:0;stroke-opacity:1" />
  <g
     aria-label="PHASE"
     style="font-style:normal;font-variant:normal;font-weight:300;font-stretch:normal;font-size:6.96164751px;line-height:1.25;font-family:'Gotham Rounded';-inkscape-font-specification:'Gotham Rounded Light';text-align:center;letter-spacing:0px;word-spacing:0px;text-anchor:middle;fill:#000000;fill-opacity:1;stroke:none;stroke-width:1.00001252"
     id="text18151">
    <path
       d="m 81.097892,225.59464 c 0,0.2367 0.187964,0.42467 0.431622,0.42467 0.236696,0 0.424661,-0.18797 0.424661,-0.42467 v -1.17651 h 0.967669 c 1.072093,0 1.949261,-0.57086 1.949261,-1.66384 v -0.0139 c 0,-0.98159 -0.710088,-1.62903 -1.851798,-1.62903 h -1.489793 c -0.243658,0 -0.431622,0.18797 -0.431622,0.43163 z m 0.856283,-1.94926 v -1.75433 h 0.995515 c 0.640472,0 1.051209,0.29935 1.051209,0.8702 v 0.0139 c 0,0.5082 -0.403776,0.8702 -1.051209,0.8702 z"
       style="font-style:normal;font-variant:normal;font-weight:300;font-stretch:normal;font-family:'Gotham Rounded';-inkscape-font-specification:'Gotham Rounded Light';text-align:center;text-anchor:middle;fill:#000000;fill-opacity:1;stroke-width:1.00001252"
       id="path1960" />
    <path
       d="m 85.748055,225.59464 c 0,0.2367 0.187965,0.42467 0.431622,0.42467 0.236696,0 0.424661,-0.18797 0.424661,-0.42467 v -1.66383 h 2.32519 v 1.66383 c 0,0.2367 0.187965,0.42467 0.424661,0.42467 0.243657,0 0.431622,-0.18797 0.431622,-0.42467 v -4.09344 c 0,-0.2367 -0.187965,-0.42466 -0.431622,-0.42466 -0.236696,0 -0.424661,0.18796 -0.424661,0.42466 v 1.63598 h -2.32519 v -1.63598 c 0,-0.2367 -0.187965,-0.42466 -0.424661,-0.42466 -0.243657,0 -0.431622,0.18796 -0.431622,0.42466 z"
       style="font-style:normal;font-variant:normal;font-weight:300;font-stretch:normal;font-family:'Gotham Rounded';-inkscape-font-specification:'Gotham Rounded Light';text-align:center;text-anchor:middle;fill:#000000;fill-opacity:1;stroke-width:1.00001252"
       id="path1962" />
    <path
       d="m 90.703116,225.62249 c 0,0.22277 0.174042,0.39682 0.396814,0.39682 0.181003,0 0.327198,-0.0975 0.396814,-0.27151 l 0.410737,-0.93982 h 2.366961 l 0.396813,0.91197 c 0.07658,0.18101 0.215812,0.29936 0.417699,0.29936 0.229735,0 0.403776,-0.18101 0.403776,-0.41074 0,-0.0557 -0.01392,-0.11835 -0.04873,-0.181 l -1.810028,-4.03776 c -0.09746,-0.21581 -0.264543,-0.34808 -0.5082,-0.34808 H 93.084 c -0.243658,0 -0.417699,0.13227 -0.515162,0.34808 l -1.810028,4.03776 c -0.03481,0.0696 -0.05569,0.13227 -0.05569,0.19492 z m 1.531563,-1.57333 0.856282,-1.97015 0.856283,1.97015 z"
       style="font-style:normal;font-variant:normal;font-weight:300;font-stretch:normal;font-family:'Gotham Rounded';-inkscape-font-specification:'Gotham Rounded Light';text-align:center;text-anchor:middle;fill:#000000;fill-opacity:1;stroke-width:1.00001252"
       id="path1964" />
    <path
       d="m 98.07289,226.05411 c 1.023363,0 1.740412,-0.543 1.740412,-1.45498 v -0.0139 c 0,-0.80756 -0.529085,-1.17652 -1.559409,-1.42714 -0.939822,-0.22277 -1.162595,-0.38985 -1.162595,-0.76578 v -0.0139 c 0,-0.32023 0.292389,-0.57781 0.793628,-0.57781 0.382891,0 0.744896,0.12531 1.120825,0.36896 0.06962,0.0418 0.139233,0.0627 0.222773,0.0627 0.222773,0 0.403776,-0.17404 0.403776,-0.39681 0,-0.16708 -0.0905,-0.28543 -0.187965,-0.34113 -0.438584,-0.29238 -0.932861,-0.4525 -1.545486,-0.4525 -0.967669,0 -1.663833,0.57781 -1.663833,1.41321 v 0.0139 c 0,0.89805 0.584778,1.20436 1.622063,1.45498 0.905015,0.20885 1.099941,0.39681 1.099941,0.7449 v 0.0139 c 0,0.362 -0.334159,0.61262 -0.863245,0.61262 -0.529085,0 -0.960707,-0.181 -1.364482,-0.50123 -0.05569,-0.0418 -0.132272,-0.0766 -0.25062,-0.0766 -0.222773,0 -0.403775,0.17404 -0.403775,0.39681 0,0.13923 0.06962,0.25758 0.167079,0.3272 0.543009,0.40377 1.169557,0.61262 1.830913,0.61262 z"
       style="font-style:normal;font-variant:normal;font-weight:300;font-stretch:normal;font-family:'Gotham Rounded';-inkscape-font-specification:'Gotham Rounded Light';text-align:center;text-anchor:middle;fill:#000000;fill-opacity:1;stroke-width:1.00001252"
       id="path1966" />
    <path
       d="m 101.25871,225.9845 h 2.8682 c 0.20885,0 0.38289,-0.16708 0.38289,-0.38289 0,-0.20885 -0.17404,-0.38289 -0.38289,-0.38289 h -2.44354 v -1.30879 h 2.09546 c 0.20885,0 0.38289,-0.16708 0.38289,-0.37593 0,-0.21581 -0.17404,-0.38986 -0.38289,-0.38986 h -2.09546 v -1.26701 h 2.40874 c 0.20884,0 0.38289,-0.16708 0.38289,-0.3829 0,-0.20884 -0.17405,-0.38289 -0.38289,-0.38289 h -2.8334 c -0.24365,0 -0.43162,0.18797 -0.43162,0.43163 v 4.0099 c 0,0.24366 0.18797,0.43163 0.43162,0.43163 z"
       style="font-style:normal;font-variant:normal;font-weight:300;font-stretch:normal;font-family:'Gotham Rounded';-inkscape-font-specification:'Gotham Rounded Light';text-align:center;text-anchor:middle;fill:#000000;fill-opacity:1;stroke-width:1.00001252"
       id="path1968" />
  </g>
  <path
     style="fill:none;fill-rule:evenodd;stroke:#3a3c3b;stroke-width:1.00001264px;stroke-linecap:butt;stroke-linejoin:miter;stroke-opacity:1"
     d="M 127.49399,237.0127 V 216.0125"
     id="path18153"
     inkscape:connector-curvature="0"
     sodipodi:nodetypes="cc" />
  <g
     aria-label="V/BPS"
     style="font-style:normal;font-variant:normal;font-weight:300;font-stretch:normal;font-size:6.96164751px;line-height:1.25;font-family:'Gotham Rounded';-inkscape-font-specification:'Gotham Rounded Light';text-align:center;letter-spacing:0px;word-spacing:0px;text-anchor:middle;fill:#cccccc;fill-opacity:1;stroke:none;stroke-width:1.00001252"
     id="text18157">
    <path
       d="m 14.173728,67.01335 h 0.04873 c 0.243658,0 0.403776,-0.132272 0.494277,-0.348083 l 1.712566,-4.037755 c 0.02088,-0.04873 0.04177,-0.118348 0.04177,-0.181003 0,-0.229734 -0.187965,-0.410737 -0.424661,-0.410737 -0.201888,0 -0.355044,0.132271 -0.410737,0.278466 l -1.427138,3.543478 -1.406253,-3.515632 c -0.06962,-0.181003 -0.215811,-0.306312 -0.438584,-0.306312 -0.243657,0 -0.431622,0.187964 -0.431622,0.417699 0,0.07658 0.02088,0.139233 0.04873,0.201887 l 1.705604,4.009909 c 0.0905,0.215811 0.250619,0.348083 0.487315,0.348083 z"
       style="font-style:normal;font-variant:normal;font-weight:300;font-stretch:normal;font-family:'Gotham Rounded';-inkscape-font-specification:'Gotham Rounded Light';text-align:center;text-anchor:middle;fill:#cccccc;fill-opacity:1;stroke-width:1.00001252"
       id="path1949" />
    <path
       d="m 15.916098,67.549397 c 0,0.174041 0.153156,0.320235 0.334159,0.320235 0.139233,0 0.236696,-0.06962 0.299351,-0.194926 l 2.854275,-5.83386 c 0.01392,-0.04177 0.03481,-0.104425 0.03481,-0.16708 0,-0.174041 -0.146194,-0.320236 -0.327197,-0.320236 -0.139233,0 -0.243658,0.06962 -0.306313,0.194926 l -2.847314,5.833861 c -0.02088,0.04177 -0.04177,0.104425 -0.04177,0.16708 z"
       style="font-style:normal;font-variant:normal;font-weight:300;font-stretch:normal;font-family:'Gotham Rounded';-inkscape-font-specification:'Gotham Rounded Light';text-align:center;text-anchor:middle;fill:#cccccc;fill-opacity:1;stroke-width:1.00001252"
       id="path1951" />
    <path
       d="m 20.173037,66.512111 c 0,0.243658 0.187964,0.431622 0.431622,0.431622 h 1.823951 c 1.086017,0 1.803067,-0.46643 1.803067,-1.336636 v -0.01392 c 0,-0.661357 -0.396814,-0.988554 -0.967669,-1.18348 0.362006,-0.187965 0.696165,-0.501239 0.696165,-1.086017 v -0.01392 c 0,-0.327197 -0.111387,-0.59174 -0.327198,-0.807551 -0.278466,-0.278466 -0.717049,-0.431622 -1.273981,-0.431622 h -1.754335 c -0.243658,0 -0.431622,0.187964 -0.431622,0.431622 z m 0.842359,-2.387845 V 62.8294 h 1.232211 c 0.549971,0 0.856283,0.236696 0.856283,0.619586 v 0.01392 c 0,0.445546 -0.368967,0.661357 -0.918937,0.661357 z m 0,2.060648 v -1.336637 h 1.357521 c 0.67528,0 1.002477,0.243658 1.002477,0.654395 v 0.01392 c 0,0.438584 -0.355044,0.668319 -0.939822,0.668319 z"
       style="font-style:normal;font-variant:normal;font-weight:300;font-stretch:normal;font-family:'Gotham Rounded';-inkscape-font-specification:'Gotham Rounded Light';text-align:center;text-anchor:middle;fill:#cccccc;fill-opacity:1;stroke-width:1.00001252"
       id="path1953" />
    <path
       d="m 25.203915,66.553881 c 0,0.236696 0.187964,0.42466 0.431622,0.42466 0.236696,0 0.42466,-0.187964 0.42466,-0.42466 v -1.176518 h 0.967669 c 1.072094,0 1.949262,-0.570856 1.949262,-1.663834 v -0.01392 c 0,-0.981592 -0.710089,-1.629025 -1.851799,-1.629025 h -1.489792 c -0.243658,0 -0.431622,0.187964 -0.431622,0.431622 z m 0.856282,-1.949261 v -1.754336 h 0.995516 c 0.640471,0 1.051209,0.299351 1.051209,0.870206 v 0.01392 c 0,0.5082 -0.403776,0.870206 -1.051209,0.870206 z"
       style="font-style:normal;font-variant:normal;font-weight:300;font-stretch:normal;font-family:'Gotham Rounded';-inkscape-font-specification:'Gotham Rounded Light';text-align:center;text-anchor:middle;fill:#cccccc;fill-opacity:1;stroke-width:1.00001252"
       id="path1955" />
    <path
       d="m 31.559681,67.01335 c 1.023362,0 1.740412,-0.543009 1.740412,-1.454985 v -0.01392 c 0,-0.807551 -0.529085,-1.176518 -1.559409,-1.427138 -0.939823,-0.222772 -1.162595,-0.389852 -1.162595,-0.765781 V 63.3376 c 0,-0.320236 0.292389,-0.577817 0.793627,-0.577817 0.382891,0 0.744897,0.12531 1.120826,0.368967 0.06962,0.04177 0.139233,0.06266 0.222772,0.06266 0.222773,0 0.403776,-0.174041 0.403776,-0.396814 0,-0.167079 -0.0905,-0.285427 -0.187965,-0.34112 -0.438583,-0.29239 -0.93286,-0.452508 -1.545485,-0.452508 -0.967669,0 -1.663834,0.577817 -1.663834,1.413215 v 0.01392 c 0,0.898053 0.584778,1.204365 1.622064,1.454985 0.905014,0.208849 1.09994,0.396813 1.09994,0.744896 v 0.01392 c 0,0.362006 -0.334159,0.612625 -0.863244,0.612625 -0.529085,0 -0.960707,-0.181003 -1.364483,-0.501239 -0.05569,-0.04177 -0.132271,-0.07658 -0.250619,-0.07658 -0.222773,0 -0.403776,0.174042 -0.403776,0.396814 0,0.139233 0.06962,0.257581 0.16708,0.327198 0.543008,0.403775 1.169556,0.612625 1.830913,0.612625 z"
       style="font-style:normal;font-variant:normal;font-weight:300;font-stretch:normal;font-family:'Gotham Rounded';-inkscape-font-specification:'Gotham Rounded Light';text-align:center;text-anchor:middle;fill:#cccccc;fill-opacity:1;stroke-width:1.00001252"
       id="path1957" />
  </g>
  <path
     sodipodi:nodetypes="cc"
     inkscape:connector-curvature="0"
     id="path18159"
     d="M 30.99278,84.5109 H 55.99305"
     style="fill:none;fill-rule:evenodd;stroke:#3a3c3b;stroke-width:1.00001264px;stroke-linecap:butt;stroke-linejoin:miter;stroke-opacity:1" />
  <path
     style="fill:none;fill-rule:evenodd;stroke:#3a3c3b;stroke-width:1.00001264px;stroke-linecap:butt;stroke-linejoin:miter;stroke-opacity:1"
     d="m 92.99358,84.5109 h 25.00026"
     id="path18161"
     inkscape:connector-curvature="0"
     sodipodi:nodetypes="cc" />
  <path
     sodipodi:nodetypes="cc"
     inkscape:connector-curvature="0"
     id="path18163"
     d="M 22.49267,237.0127 V 216.0125"
     style="fill:none;fill-rule:evenodd;stroke:#3a3c3b;stroke-width:1.00001264px;stroke-linecap:butt;stroke-linejoin:miter;stroke-opacity:1" />
  <path
     sodipodi:nodetypes="ccccccccc"
     inkscape:connector-curvature="0"
     id="path18165"
     d="m 50.49297,214.5124 v -6.0001 h 2.00004 v 6 l 5.00008,1e-4 v -6.0001 h 2.00003 v 6 h 6.00004"
     style="fill:none;fill-rule:evenodd;stroke:#000000;stroke-width:1.00001264px;stroke-linecap:round;stroke-linejoin:round;stroke-opacity:1" />
  <path
     style="fill:none;fill-rule:evenodd;stroke:#000000;stroke-width:1.00001264px;stroke-linecap:round;stroke-linejoin:round;stroke-opacity:1"
     d="m 85.49346,214.5123 6.00012,-6.0001 v 6.0001 l 6.00004,-6.0001 v 6.0001"
     id="path18167"
     inkscape:connector-curvature="0"
     sodipodi:nodetypes="ccccc" />
  <path
     style="fill:none;fill-rule:evenodd;stroke:#3a3c3b;stroke-width:1.00001264px;stroke-linecap:butt;stroke-linejoin:miter;stroke-opacity:1"
     d="M 8.07843,267.513 H 141.99418"
     id="path18169"
     inkscape:connector-curvature="0"
     sodipodi:nodetypes="cc" />
  <path
     style="fill:none;fill-rule:evenodd;stroke:#808080;stroke-width:1.00001264px;stroke-linecap:butt;stroke-linejoin:miter;stroke-opacity:1"
     d="M 127.49399,114.0113 V 93.011"
     id="path18173"
     inkscape:connector-curvature="0"
     sodipodi:nodetypes="cc" />
  <rect
     style="opacity:1;fill:#b3b3b3;fill-opacity:1;stroke:none;stroke-width:1.00001264;stroke-linecap:round;stroke-linejoin:round;stroke-miterlimit:0;stroke-dasharray:none;stroke-dashoffset:0;stroke-opacity:1"
     id="rect18445"
     width="29.000351"
     height="41.000893"
     x="112.99387"
     y="59.01001"
     rx="3.0000446"
     ry="3.0000446" />
  <g
     aria-label="V/BPS"
     style="font-style:normal;font-variant:normal;font-weight:300;font-stretch:normal;font-size:6.96164751px;line-height:1.25;font-family:'Gotham Rounded';-inkscape-font-specification:'Gotham Rounded Light';text-align:center;letter-spacing:0px;word-spacing:0px;text-anchor:middle;fill:#000000;fill-opacity:1;stroke:none;stroke-width:1.00001252"
     id="text18179">
    <path
       d="m 119.17495,68.005407 h 0.0487 c 0.24366,0 0.40378,-0.132271 0.49428,-0.348082 l 1.71256,-4.037755 c 0.0209,-0.04873 0.0418,-0.118348 0.0418,-0.181003 0,-0.229735 -0.18796,-0.410737 -0.42466,-0.410737 -0.20189,0 -0.35504,0.132271 -0.41074,0.278465 l -1.42713,3.543479 -1.40626,-3.515632 c -0.0696,-0.181003 -0.21581,-0.306312 -0.43858,-0.306312 -0.24366,0 -0.43162,0.187964 -0.43162,0.417698 0,0.07658 0.0209,0.139233 0.0487,0.201888 l 1.7056,4.009909 c 0.0905,0.215811 0.25062,0.348082 0.48732,0.348082 z"
       style="font-style:normal;font-variant:normal;font-weight:300;font-stretch:normal;font-family:'Gotham Rounded';-inkscape-font-specification:'Gotham Rounded Light';text-align:center;text-anchor:middle;fill:#000000;fill-opacity:1;stroke-width:1.00001252"
       id="path1938" />
    <path
       d="m 120.91732,68.541454 c 0,0.174042 0.15315,0.320236 0.33416,0.320236 0.13923,0 0.23669,-0.06962 0.29935,-0.194926 l 2.85427,-5.833861 c 0.0139,-0.04177 0.0348,-0.104424 0.0348,-0.167079 0,-0.174041 -0.14619,-0.320236 -0.3272,-0.320236 -0.13923,0 -0.24365,0.06962 -0.30631,0.194926 l -2.84731,5.833861 c -0.0209,0.04177 -0.0418,0.104425 -0.0418,0.167079 z"
       style="font-style:normal;font-variant:normal;font-weight:300;font-stretch:normal;font-family:'Gotham Rounded';-inkscape-font-specification:'Gotham Rounded Light';text-align:center;text-anchor:middle;fill:#000000;fill-opacity:1;stroke-width:1.00001252"
       id="path1940" />
    <path
       d="m 125.17426,67.504169 c 0,0.243658 0.18796,0.431622 0.43162,0.431622 h 1.82395 c 1.08602,0 1.80307,-0.46643 1.80307,-1.336636 v -0.01392 c 0,-0.661356 -0.39682,-0.988554 -0.96767,-1.18348 0.362,-0.187964 0.69616,-0.501238 0.69616,-1.086017 v -0.01392 c 0,-0.327197 -0.11138,-0.59174 -0.32719,-0.807551 -0.27847,-0.278466 -0.71705,-0.431622 -1.27399,-0.431622 h -1.75433 c -0.24366,0 -0.43162,0.187964 -0.43162,0.431622 z m 0.84236,-2.387845 v -1.294867 h 1.23221 c 0.54997,0 0.85628,0.236696 0.85628,0.619587 v 0.01392 c 0,0.445546 -0.36897,0.661357 -0.91894,0.661357 z m 0,2.060647 v -1.336636 h 1.35752 c 0.67528,0 1.00248,0.243658 1.00248,0.654395 v 0.01392 c 0,0.438584 -0.35505,0.668318 -0.93983,0.668318 z"
       style="font-style:normal;font-variant:normal;font-weight:300;font-stretch:normal;font-family:'Gotham Rounded';-inkscape-font-specification:'Gotham Rounded Light';text-align:center;text-anchor:middle;fill:#000000;fill-opacity:1;stroke-width:1.00001252"
       id="path1942" />
    <path
       d="m 130.20514,67.545939 c 0,0.236696 0.18796,0.42466 0.43162,0.42466 0.23669,0 0.42466,-0.187964 0.42466,-0.42466 V 66.36942 h 0.96767 c 1.07209,0 1.94926,-0.570855 1.94926,-1.663833 v -0.01392 c 0,-0.981592 -0.71009,-1.629025 -1.8518,-1.629025 h -1.48979 c -0.24366,0 -0.43162,0.187964 -0.43162,0.431622 z m 0.85628,-1.949262 v -1.754335 h 0.99551 c 0.64048,0 1.05121,0.299351 1.05121,0.870206 v 0.01392 c 0,0.5082 -0.40377,0.870205 -1.05121,0.870205 z"
       style="font-style:normal;font-variant:normal;font-weight:300;font-stretch:normal;font-family:'Gotham Rounded';-inkscape-font-specification:'Gotham Rounded Light';text-align:center;text-anchor:middle;fill:#000000;fill-opacity:1;stroke-width:1.00001252"
       id="path1944" />
    <path
       d="m 136.5609,68.005407 c 1.02336,0 1.74041,-0.543008 1.74041,-1.454984 V 66.5365 c 0,-0.807551 -0.52908,-1.176519 -1.55941,-1.427138 -0.93982,-0.222773 -1.16259,-0.389852 -1.16259,-0.765781 v -0.01392 c 0,-0.320236 0.29239,-0.577817 0.79363,-0.577817 0.38289,0 0.74489,0.12531 1.12082,0.368967 0.0696,0.04177 0.13924,0.06266 0.22278,0.06266 0.22277,0 0.40377,-0.174041 0.40377,-0.396814 0,-0.167079 -0.0905,-0.285427 -0.18796,-0.341121 -0.43859,-0.292389 -0.93286,-0.452507 -1.54549,-0.452507 -0.96767,0 -1.66383,0.577817 -1.66383,1.413215 v 0.01392 c 0,0.898053 0.58478,1.204365 1.62206,1.454984 0.90501,0.20885 1.09994,0.396814 1.09994,0.744897 v 0.01392 c 0,0.362006 -0.33416,0.612625 -0.86324,0.612625 -0.52909,0 -0.96071,-0.181003 -1.36449,-0.501239 -0.0557,-0.04177 -0.13227,-0.07658 -0.25062,-0.07658 -0.22277,0 -0.40377,0.174041 -0.40377,0.396814 0,0.139233 0.0696,0.257581 0.16708,0.327198 0.54301,0.403775 1.16956,0.612624 1.83091,0.612624 z"
       style="font-style:normal;font-variant:normal;font-weight:300;font-stretch:normal;font-family:'Gotham Rounded';-inkscape-font-specification:'Gotham Rounded Light';text-align:center;text-anchor:middle;fill:#000000;fill-opacity:1;stroke-width:1.00001252"
       id="path1946" />
  </g>
  <path
     style="fill:none;fill-rule:evenodd;stroke:#3a3c3b;stroke-width:1.00001264px;stroke-linecap:butt;stroke-linejoin:miter;stroke-opacity:1"
     d="m 23.49275,286.5134 h 30.0003"
     id="path18181"
     inkscape:connector-curvature="0"
     sodipodi:nodetypes="cc" />
  <path
     style="fill:none;fill-rule:evenodd;stroke:#3a3c3b;stroke-width:1.00001264px;stroke-linecap:butt;stroke-linejoin:miter;stroke-opacity:1"
     d="M 22.49267,213.0124 V 192.0122"
     id="path18183"
     inkscape:connector-curvature="0"
     sodipodi:nodetypes="cc" />
  <g
     aria-label="RUN"
     style="font-style:normal;font-variant:normal;font-weight:300;font-stretch:normal;font-size:6.96164751px;line-height:1.25;font-family:'Gotham Rounded';-inkscape-font-specification:'Gotham Rounded Light';text-align:center;letter-spacing:0px;word-spacing:0px;text-anchor:middle;fill:#cccccc;fill-opacity:1;stroke:none;stroke-width:1.00001252"
     id="text18187">
    <path
       d="m 15.39358,162.55473 c 0,0.23669 0.187965,0.42466 0.431622,0.42466 0.236696,0 0.424661,-0.18797 0.424661,-0.42466 v -1.30879 h 1.079055 l 1.18348,1.51068 c 0.09746,0.13227 0.222773,0.22277 0.417699,0.22277 0.208849,0 0.410737,-0.16012 0.410737,-0.39682 0,-0.13227 -0.05569,-0.22277 -0.139233,-0.32719 l -0.93286,-1.17652 c 0.654394,-0.20189 1.106901,-0.67528 1.106901,-1.45499 v -0.0139 c 0,-0.42466 -0.146194,-0.78667 -0.403775,-1.05121 -0.313274,-0.30631 -0.793628,-0.48731 -1.406253,-0.48731 h -1.740412 c -0.243657,0 -0.431622,0.18796 -0.431622,0.43162 z m 0.856283,-2.06761 v -1.63599 h 1.246135 c 0.63351,0 1.009439,0.28543 1.009439,0.80755 v 0.0139 c 0,0.49427 -0.389853,0.81451 -1.002478,0.81451 z"
       style="font-style:normal;font-variant:normal;font-weight:300;font-stretch:normal;font-family:'Gotham Rounded';-inkscape-font-specification:'Gotham Rounded Light';text-align:center;text-anchor:middle;fill:#cccccc;fill-opacity:1;stroke-width:1.00001252"
       id="path1931" />
    <path
       d="m 22.422451,163.02116 c 1.273982,0 2.095456,-0.73097 2.095456,-2.18596 v -2.37392 c 0,-0.2367 -0.187965,-0.42466 -0.424661,-0.42466 -0.243657,0 -0.431622,0.18796 -0.431622,0.42466 v 2.41569 c 0,0.89805 -0.46643,1.35056 -1.22525,1.35056 -0.765781,0 -1.232211,-0.48035 -1.232211,-1.38537 v -2.38088 c 0,-0.2367 -0.187965,-0.42466 -0.424661,-0.42466 -0.243657,0 -0.431622,0.18796 -0.431622,0.42466 v 2.41569 c 0,1.41322 0.807551,2.14419 2.074571,2.14419 z"
       style="font-style:normal;font-variant:normal;font-weight:300;font-stretch:normal;font-family:'Gotham Rounded';-inkscape-font-specification:'Gotham Rounded Light';text-align:center;text-anchor:middle;fill:#cccccc;fill-opacity:1;stroke-width:1.00001252"
       id="path1933" />
    <path
       d="m 25.700081,162.56169 c 0,0.22973 0.187965,0.4177 0.424661,0.4177 0.229734,0 0.417699,-0.18797 0.417699,-0.4177 v -3.09097 l 2.506193,3.24413 c 0.118348,0.15315 0.243658,0.25758 0.445545,0.25758 h 0.03481 c 0.236696,0 0.417698,-0.18797 0.417698,-0.42466 v -4.09345 c 0,-0.22974 -0.187964,-0.4177 -0.42466,-0.4177 -0.229734,0 -0.417699,0.18796 -0.417699,0.4177 v 2.99351 L 26.66775,158.2942 c -0.118348,-0.1462 -0.236696,-0.25062 -0.445545,-0.25062 h -0.0905 c -0.243658,0 -0.431623,0.19493 -0.431623,0.43162 z"
       style="font-style:normal;font-variant:normal;font-weight:300;font-stretch:normal;font-family:'Gotham Rounded';-inkscape-font-specification:'Gotham Rounded Light';text-align:center;text-anchor:middle;fill:#cccccc;fill-opacity:1;stroke-width:1.00001252"
       id="path1935" />
  </g>
  <rect
     style="opacity:1;fill:#b3b3b3;fill-opacity:1;stroke:none;stroke-width:1.00001264;stroke-linecap:round;stroke-linejoin:round;stroke-miterlimit:0;stroke-dasharray:none;stroke-dashoffset:0;stroke-opacity:1"
     id="rect18459"
     width="29.000351"
     height="41.000893"
     x="77.992981"
     y="306.01288"
     rx="3.0000446"
     ry="3.0000446" />
  <g
     aria-label="16THS"
     style="font-style:normal;font-variant:normal;font-weight:300;font-stretch:normal;font-size:6.96164751px;line-height:1.25;font-family:'Gotham Rounded';-inkscape-font-specification:'Gotham Rounded Light';text-align:center;letter-spacing:0px;word-spacing:0px;text-anchor:middle;fill:#000000;fill-opacity:1;stroke:none;stroke-width:1.00001252"
     id="text18193">
    <path
       d="m 83.048528,314.61167 c 0,0.2367 0.194926,0.42466 0.424661,0.42466 0.236696,0 0.42466,-0.18796 0.42466,-0.42466 v -4.12129 c 0,-0.2367 -0.181003,-0.42466 -0.42466,-0.42466 h -0.01392 c -0.125309,0 -0.250619,0.0278 -0.417699,0.0766 l -0.737934,0.23669 c -0.174041,0.0487 -0.285428,0.18797 -0.285428,0.36897 0,0.19493 0.174041,0.362 0.375929,0.362 0.04177,0 0.104425,-0.007 0.153156,-0.0209 l 0.501239,-0.15316 z"
       style="font-style:normal;font-variant:normal;font-weight:300;font-stretch:normal;font-family:'Gotham Rounded';-inkscape-font-specification:'Gotham Rounded Light';text-align:center;text-anchor:middle;fill:#000000;fill-opacity:1;stroke-width:1.00001252"
       id="path1920" />
    <path
       d="m 86.915615,315.08507 c 1.023362,0 1.810028,-0.68921 1.810028,-1.65688 v -0.0139 c 0,-0.97463 -0.75882,-1.53156 -1.698642,-1.53156 -0.577817,0 -0.911976,0.23669 -1.169557,0.48731 0.04177,-0.89109 0.445546,-1.54548 1.169557,-1.54548 0.327197,0 0.570855,0.0975 0.835398,0.2715 0.06265,0.0348 0.139233,0.0627 0.215811,0.0627 0.222772,0 0.410737,-0.17404 0.410737,-0.39682 0,-0.17404 -0.08354,-0.28543 -0.215811,-0.36896 -0.320236,-0.21582 -0.71705,-0.34809 -1.218288,-0.34809 -1.378407,0 -2.088495,1.1626 -2.088495,2.65239 v 0.0139 c 0,0.9816 0.222773,1.4898 0.59174,1.85876 0.327198,0.3272 0.75882,0.51517 1.357522,0.51517 z m -0.02089,-0.7449 c -0.605664,0 -1.009439,-0.37593 -1.009439,-0.87021 v -0.0139 c 0,-0.46643 0.38289,-0.85628 0.988554,-0.85628 0.605663,0 0.995515,0.362 0.995515,0.84932 v 0.0139 c 0,0.50124 -0.368967,0.87717 -0.97463,0.87717 z"
       style="font-style:normal;font-variant:normal;font-weight:300;font-stretch:normal;font-family:'Gotham Rounded';-inkscape-font-specification:'Gotham Rounded Light';text-align:center;text-anchor:middle;fill:#000000;fill-opacity:1;stroke-width:1.00001252"
       id="path1922" />
    <path
       d="m 90.962072,314.61167 c 0,0.2367 0.194926,0.42466 0.431623,0.42466 0.236696,0 0.431622,-0.18796 0.431622,-0.42466 V 310.922 h 1.190441 c 0.215811,0 0.389853,-0.181 0.389853,-0.39681 0,-0.21581 -0.174042,-0.39682 -0.389853,-0.39682 h -3.237166 c -0.222772,0 -0.396814,0.18101 -0.396814,0.39682 0,0.21581 0.174042,0.39681 0.396814,0.39681 h 1.18348 z"
       style="font-style:normal;font-variant:normal;font-weight:300;font-stretch:normal;font-family:'Gotham Rounded';-inkscape-font-specification:'Gotham Rounded Light';text-align:center;text-anchor:middle;fill:#000000;fill-opacity:1;stroke-width:1.00001252"
       id="path1924" />
    <path
       d="m 94.185112,314.61167 c 0,0.2367 0.187964,0.42466 0.431622,0.42466 0.236696,0 0.42466,-0.18796 0.42466,-0.42466 v -1.66383 h 2.32519 v 1.66383 c 0,0.2367 0.187965,0.42466 0.424661,0.42466 0.243658,0 0.431622,-0.18796 0.431622,-0.42466 v -4.09345 c 0,-0.23669 -0.187964,-0.42466 -0.431622,-0.42466 -0.236696,0 -0.424661,0.18797 -0.424661,0.42466 v 1.63599 h -2.32519 v -1.63599 c 0,-0.23669 -0.187964,-0.42466 -0.42466,-0.42466 -0.243658,0 -0.431622,0.18797 -0.431622,0.42466 z"
       style="font-style:normal;font-variant:normal;font-weight:300;font-stretch:normal;font-family:'Gotham Rounded';-inkscape-font-specification:'Gotham Rounded Light';text-align:center;text-anchor:middle;fill:#000000;fill-opacity:1;stroke-width:1.00001252"
       id="path1926" />
    <path
       d="m 101.17994,315.07114 c 1.02336,0 1.74041,-0.54301 1.74041,-1.45498 v -0.0139 c 0,-0.80755 -0.52909,-1.17651 -1.55941,-1.42713 -0.93982,-0.22278 -1.1626,-0.38986 -1.1626,-0.76578 v -0.0139 c 0,-0.32023 0.29239,-0.57781 0.79363,-0.57781 0.38289,0 0.7449,0.12531 1.12083,0.36896 0.0696,0.0418 0.13923,0.0627 0.22277,0.0627 0.22277,0 0.40378,-0.17404 0.40378,-0.39682 0,-0.16708 -0.0905,-0.28542 -0.18797,-0.34112 -0.43858,-0.29239 -0.93286,-0.4525 -1.54549,-0.4525 -0.96766,0 -1.663829,0.57781 -1.663829,1.41321 v 0.0139 c 0,0.89806 0.584778,1.20437 1.622059,1.45499 0.90502,0.20885 1.09995,0.39681 1.09995,0.74489 v 0.0139 c 0,0.362 -0.33416,0.61262 -0.86325,0.61262 -0.52908,0 -0.96071,-0.181 -1.364482,-0.50124 -0.05569,-0.0418 -0.132271,-0.0766 -0.250619,-0.0766 -0.222773,0 -0.403776,0.17404 -0.403776,0.39681 0,0.13923 0.06962,0.25758 0.16708,0.3272 0.543008,0.40377 1.169557,0.61262 1.830917,0.61262 z"
       style="font-style:normal;font-variant:normal;font-weight:300;font-stretch:normal;font-family:'Gotham Rounded';-inkscape-font-specification:'Gotham Rounded Light';text-align:center;text-anchor:middle;fill:#000000;fill-opacity:1;stroke-width:1.00001252"
       id="path1928" />
  </g>
  <rect
     style="opacity:1;fill:#b3b3b3;fill-opacity:1;stroke:none;stroke-width:1.00001264;stroke-linecap:round;stroke-linejoin:round;stroke-miterlimit:0;stroke-dasharray:none;stroke-dashoffset:0;stroke-opacity:1"
     id="rect18473"
     width="29.000351"
     height="41.000893"
     x="42.992683"
     y="306.01288"
     rx="3.0000446"
     ry="3.0000446" />
  <g
     aria-label="8THS"
     style="font-style:normal;font-variant:normal;font-weight:300;font-stretch:normal;font-size:6.96164751px;line-height:1.25;font-family:'Gotham Rounded';-inkscape-font-specification:'Gotham Rounded Light';text-align:center;letter-spacing:0px;word-spacing:0px;text-anchor:middle;fill:#000000;fill-opacity:1;stroke:none;stroke-width:1.00001252"
     id="text18199">
    <path
       d="m 50.860884,315.07114 c 1.065132,0 1.85876,-0.54301 1.85876,-1.41321 v -0.0139 c 0,-0.57781 -0.341121,-0.92589 -0.877168,-1.16955 0.410737,-0.21581 0.710088,-0.54301 0.710088,-1.08602 v -0.0139 c 0,-0.75186 -0.71705,-1.31575 -1.69168,-1.31575 -0.974631,0 -1.691681,0.57085 -1.691681,1.31575 v 0.0139 c 0,0.54301 0.299351,0.87021 0.710088,1.08602 -0.54997,0.22973 -0.877167,0.5987 -0.877167,1.18348 v 0.0139 c 0,0.84236 0.793628,1.39929 1.85876,1.39929 z m 0,-2.88212 c -0.501239,0 -0.870206,-0.29935 -0.870206,-0.72401 v -0.0139 c 0,-0.36897 0.348082,-0.67528 0.870206,-0.67528 0.522123,0 0.870206,0.30631 0.870206,0.68224 v 0.0139 c 0,0.4177 -0.368968,0.71705 -0.870206,0.71705 z m 0,2.16507 c -0.640472,0 -1.016401,-0.33416 -1.016401,-0.73097 v -0.0139 c 0,-0.44555 0.438584,-0.73794 1.016401,-0.73794 0.577816,0 1.023362,0.29239 1.023362,0.73794 v 0.0139 c 0,0.40378 -0.382891,0.73097 -1.023362,0.73097 z"
       style="font-style:normal;font-variant:normal;font-weight:300;font-stretch:normal;font-family:'Gotham Rounded';-inkscape-font-specification:'Gotham Rounded Light';text-align:center;text-anchor:middle;fill:#000000;fill-opacity:1;stroke-width:1.00001252"
       id="path1911" />
    <path
       d="m 54.883737,314.61167 c 0,0.2367 0.194926,0.42466 0.431622,0.42466 0.236696,0 0.431622,-0.18796 0.431622,-0.42466 V 310.922 h 1.190442 c 0.215811,0 0.389852,-0.181 0.389852,-0.39681 0,-0.21581 -0.174041,-0.39682 -0.389852,-0.39682 h -3.237166 c -0.222773,0 -0.396814,0.18101 -0.396814,0.39682 0,0.21581 0.174041,0.39681 0.396814,0.39681 h 1.18348 z"
       style="font-style:normal;font-variant:normal;font-weight:300;font-stretch:normal;font-family:'Gotham Rounded';-inkscape-font-specification:'Gotham Rounded Light';text-align:center;text-anchor:middle;fill:#000000;fill-opacity:1;stroke-width:1.00001252"
       id="path1913" />
    <path
       d="m 58.013025,314.61167 c 0,0.2367 0.187964,0.42466 0.431622,0.42466 0.236696,0 0.42466,-0.18796 0.42466,-0.42466 v -1.66383 h 2.32519 v 1.66383 c 0,0.2367 0.187965,0.42466 0.424661,0.42466 0.243658,0 0.431622,-0.18796 0.431622,-0.42466 v -4.09345 c 0,-0.23669 -0.187964,-0.42466 -0.431622,-0.42466 -0.236696,0 -0.424661,0.18797 -0.424661,0.42466 v 1.63599 h -2.32519 v -1.63599 c 0,-0.23669 -0.187964,-0.42466 -0.42466,-0.42466 -0.243658,0 -0.431622,0.18797 -0.431622,0.42466 z"
       style="font-style:normal;font-variant:normal;font-weight:300;font-stretch:normal;font-family:'Gotham Rounded';-inkscape-font-specification:'Gotham Rounded Light';text-align:center;text-anchor:middle;fill:#000000;fill-opacity:1;stroke-width:1.00001252"
       id="path1915" />
    <path
       d="m 65.007849,315.07114 c 1.023362,0 1.740412,-0.54301 1.740412,-1.45498 v -0.0139 c 0,-0.80755 -0.529085,-1.17651 -1.559409,-1.42713 -0.939823,-0.22278 -1.162595,-0.38986 -1.162595,-0.76578 v -0.0139 c 0,-0.32023 0.292389,-0.57781 0.793628,-0.57781 0.38289,0 0.744896,0.12531 1.120825,0.36896 0.06962,0.0418 0.139233,0.0627 0.222772,0.0627 0.222773,0 0.403776,-0.17404 0.403776,-0.39682 0,-0.16708 -0.0905,-0.28542 -0.187964,-0.34112 -0.438584,-0.29239 -0.932861,-0.4525 -1.545486,-0.4525 -0.967669,0 -1.663834,0.57781 -1.663834,1.41321 v 0.0139 c 0,0.89806 0.584778,1.20437 1.622064,1.45499 0.905014,0.20885 1.09994,0.39681 1.09994,0.74489 v 0.0139 c 0,0.362 -0.334159,0.61262 -0.863244,0.61262 -0.529085,0 -0.960707,-0.181 -1.364483,-0.50124 -0.05569,-0.0418 -0.132271,-0.0766 -0.250619,-0.0766 -0.222773,0 -0.403776,0.17404 -0.403776,0.39681 0,0.13923 0.06962,0.25758 0.16708,0.3272 0.543008,0.40377 1.169556,0.61262 1.830913,0.61262 z"
       style="font-style:normal;font-variant:normal;font-weight:300;font-stretch:normal;font-family:'Gotham Rounded';-inkscape-font-specification:'Gotham Rounded Light';text-align:center;text-anchor:middle;fill:#000000;fill-opacity:1;stroke-width:1.00001252"
       id="path1917" />
  </g>
  <g
     aria-label="SWING"
     style="font-style:normal;font-variant:normal;font-weight:300;font-stretch:normal;font-size:6.96164751px;line-height:1.25;font-family:'Gotham Rounded';-inkscape-font-specification:'Gotham Rounded Light';text-align:center;letter-spacing:0px;word-spacing:0px;text-anchor:middle;fill:#cccccc;fill-opacity:1;stroke:none;stroke-width:1.00001252"
     id="text18203">
    <path
       d="m 12.63872,314.01664 c 1.023362,0 1.740412,-0.54301 1.740412,-1.45499 v -0.0139 c 0,-0.80755 -0.529085,-1.17652 -1.559409,-1.42714 -0.939822,-0.22277 -1.162595,-0.38985 -1.162595,-0.76578 v -0.0139 c 0,-0.32024 0.292389,-0.57782 0.793628,-0.57782 0.38289,0 0.744896,0.12531 1.120825,0.36897 0.06962,0.0418 0.139233,0.0626 0.222773,0.0626 0.222772,0 0.403775,-0.17404 0.403775,-0.39681 0,-0.16708 -0.0905,-0.28543 -0.187964,-0.34112 -0.438584,-0.29239 -0.932861,-0.45251 -1.545486,-0.45251 -0.967669,0 -1.663834,0.57782 -1.663834,1.41322 v 0.0139 c 0,0.89805 0.584779,1.20436 1.622064,1.45498 0.905014,0.20885 1.09994,0.39682 1.09994,0.7449 v 0.0139 c 0,0.36201 -0.334159,0.61263 -0.863244,0.61263 -0.529085,0 -0.960707,-0.181 -1.364483,-0.50124 -0.05569,-0.0418 -0.132271,-0.0766 -0.250619,-0.0766 -0.222773,0 -0.403776,0.17404 -0.403776,0.39682 0,0.13923 0.06962,0.25758 0.16708,0.32719 0.543008,0.40378 1.169557,0.61263 1.830913,0.61263 z"
       style="font-style:normal;font-variant:normal;font-weight:300;font-stretch:normal;font-family:'Gotham Rounded';-inkscape-font-specification:'Gotham Rounded Light';text-align:center;text-anchor:middle;fill:#cccccc;fill-opacity:1;stroke-width:1.00001252"
       id="path1900" />
    <path
       d="m 16.41226,313.66159 c 0.08354,0.22278 0.236696,0.35505 0.445545,0.35505 h 0.08354 c 0.208849,0 0.368967,-0.13227 0.445545,-0.35505 l 1.086017,-3.18147 1.086017,3.18147 c 0.07658,0.22278 0.229735,0.35505 0.438584,0.35505 h 0.08354 c 0.208849,0 0.368967,-0.13923 0.445545,-0.35505 l 1.441061,-4.03775 c 0.02088,-0.0487 0.04177,-0.11835 0.04177,-0.17404 0,-0.22974 -0.194926,-0.41074 -0.42466,-0.41074 -0.20885,0 -0.355044,0.13227 -0.417699,0.30631 l -1.120825,3.35552 -1.099941,-3.33463 c -0.06265,-0.20189 -0.215811,-0.34112 -0.431622,-0.34112 h -0.06265 c -0.215811,0 -0.362005,0.13923 -0.431622,0.34112 l -1.09994,3.33463 -1.120825,-3.34856 c -0.05569,-0.181 -0.215811,-0.31327 -0.424661,-0.31327 -0.236696,0 -0.438584,0.181 -0.438584,0.4177 0,0.0557 0.01392,0.11835 0.03481,0.16708 z"
       style="font-style:normal;font-variant:normal;font-weight:300;font-stretch:normal;font-family:'Gotham Rounded';-inkscape-font-specification:'Gotham Rounded Light';text-align:center;text-anchor:middle;fill:#cccccc;fill-opacity:1;stroke-width:1.00001252"
       id="path1902" />
    <path
       d="m 22.974373,313.55717 c 0,0.2367 0.187965,0.42466 0.431622,0.42466 0.236696,0 0.424661,-0.18796 0.424661,-0.42466 v -4.09345 c 0,-0.2367 -0.187965,-0.42466 -0.424661,-0.42466 -0.243657,0 -0.431622,0.18796 -0.431622,0.42466 z"
       style="font-style:normal;font-variant:normal;font-weight:300;font-stretch:normal;font-family:'Gotham Rounded';-inkscape-font-specification:'Gotham Rounded Light';text-align:center;text-anchor:middle;fill:#cccccc;fill-opacity:1;stroke-width:1.00001252"
       id="path1904" />
    <path
       d="m 24.929474,313.56413 c 0,0.22974 0.187965,0.4177 0.424661,0.4177 0.229734,0 0.417699,-0.18796 0.417699,-0.4177 v -3.09097 l 2.506193,3.24413 c 0.118348,0.15315 0.243658,0.25758 0.445545,0.25758 h 0.03481 c 0.236696,0 0.417698,-0.18797 0.417698,-0.42466 v -4.09345 c 0,-0.22974 -0.187964,-0.4177 -0.42466,-0.4177 -0.229734,0 -0.417699,0.18796 -0.417699,0.4177 v 2.99351 l -2.436577,-3.15363 c -0.118348,-0.14619 -0.236696,-0.25062 -0.445545,-0.25062 h -0.0905 c -0.243658,0 -0.431623,0.19493 -0.431623,0.43162 z"
       style="font-style:normal;font-variant:normal;font-weight:300;font-stretch:normal;font-family:'Gotham Rounded';-inkscape-font-specification:'Gotham Rounded Light';text-align:center;text-anchor:middle;fill:#cccccc;fill-opacity:1;stroke-width:1.00001252"
       id="path1906" />
    <path
       d="m 32.733916,314.03056 c 0.730973,0 1.315751,-0.25062 1.73345,-0.52908 0.201888,-0.12531 0.299351,-0.29935 0.299351,-0.54301 v -1.30183 c 0,-0.24366 -0.187964,-0.43162 -0.431622,-0.43162 h -1.357521 c -0.20885,0 -0.382891,0.16708 -0.382891,0.37593 0,0.20885 0.174041,0.36896 0.382891,0.36896 h 0.960707 v 0.91198 c -0.299351,0.22277 -0.71705,0.36897 -1.176518,0.36897 -0.995516,0 -1.656873,-0.73794 -1.656873,-1.74042 v -0.0139 c 0,-0.93286 0.682242,-1.71953 1.580294,-1.71953 0.529086,0 0.870206,0.15316 1.183481,0.3829 0.06962,0.0487 0.153156,0.0975 0.264542,0.0975 0.236696,0 0.424661,-0.19493 0.424661,-0.42466 0,-0.16708 -0.0905,-0.28543 -0.174042,-0.34808 -0.445545,-0.32024 -0.93286,-0.49428 -1.663833,-0.49428 -1.468908,0 -2.513155,1.15563 -2.513155,2.52011 v 0.0139 c 0,1.42017 1.002477,2.50619 2.527078,2.50619 z"
       style="font-style:normal;font-variant:normal;font-weight:300;font-stretch:normal;font-family:'Gotham Rounded';-inkscape-font-specification:'Gotham Rounded Light';text-align:center;text-anchor:middle;fill:#cccccc;fill-opacity:1;stroke-width:1.00001252"
       id="path1908" />
  </g>
  <path
     sodipodi:nodetypes="cc"
     inkscape:connector-curvature="0"
     id="path18205"
     d="m 96.49365,286.5134 h 30.00034"
     style="fill:none;fill-rule:evenodd;stroke:#3a3c3b;stroke-width:1.00001264px;stroke-linecap:butt;stroke-linejoin:miter;stroke-opacity:1" />
  <rect
     style="opacity:1;fill:#b3b3b3;fill-opacity:1;stroke:none;stroke-width:1.00001264;stroke-linecap:round;stroke-linejoin:round;stroke-miterlimit:0;stroke-dasharray:none;stroke-dashoffset:0;stroke-opacity:1"
     id="rect18487"
     width="29.000351"
     height="41.000893"
     x="112.99387"
     y="106.01062"
     rx="3.0000446"
     ry="3.0000446" />
  <g
     aria-label="V/SPB"
     style="font-style:normal;font-variant:normal;font-weight:300;font-stretch:normal;font-size:6.96164751px;line-height:1.25;font-family:'Gotham Rounded';-inkscape-font-specification:'Gotham Rounded Light';text-align:center;letter-spacing:0px;word-spacing:0px;text-anchor:middle;fill:#000000;fill-opacity:1;stroke:none;stroke-width:1.00001252"
     id="text18211">
    <path
       d="m 119.27693,115.00602 h 0.0487 c 0.24365,0 0.40377,-0.13227 0.49427,-0.34808 l 1.71257,-4.03776 c 0.0209,-0.0487 0.0418,-0.11835 0.0418,-0.181 0,-0.22974 -0.18797,-0.41074 -0.42466,-0.41074 -0.20189,0 -0.35505,0.13227 -0.41074,0.27847 l -1.42714,3.54347 -1.40625,-3.51563 c -0.0696,-0.181 -0.21581,-0.30631 -0.43858,-0.30631 -0.24366,0 -0.43162,0.18796 -0.43162,0.4177 0,0.0766 0.0209,0.13923 0.0487,0.20189 l 1.7056,4.00991 c 0.0905,0.21581 0.25062,0.34808 0.48732,0.34808 z"
       style="font-style:normal;font-variant:normal;font-weight:300;font-stretch:normal;font-family:'Gotham Rounded';-inkscape-font-specification:'Gotham Rounded Light';text-align:center;text-anchor:middle;fill:#000000;fill-opacity:1;stroke-width:1.00001252"
       id="path1889" />
    <path
       d="m 121.0193,115.54206 c 0,0.17405 0.15315,0.32024 0.33415,0.32024 0.13924,0 0.2367,-0.0696 0.29936,-0.19493 l 2.85427,-5.83386 c 0.0139,-0.0418 0.0348,-0.10442 0.0348,-0.16708 0,-0.17404 -0.1462,-0.32023 -0.3272,-0.32023 -0.13923,0 -0.24366,0.0696 -0.30631,0.19492 l -2.84731,5.83387 c -0.0209,0.0418 -0.0418,0.10442 -0.0418,0.16707 z"
       style="font-style:normal;font-variant:normal;font-weight:300;font-stretch:normal;font-family:'Gotham Rounded';-inkscape-font-specification:'Gotham Rounded Light';text-align:center;text-anchor:middle;fill:#000000;fill-opacity:1;stroke-width:1.00001252"
       id="path1891" />
    <path
       d="m 126.77788,115.00602 c 1.02337,0 1.74042,-0.54301 1.74042,-1.45499 v -0.0139 c 0,-0.80755 -0.52909,-1.17652 -1.55941,-1.42714 -0.93983,-0.22277 -1.1626,-0.38985 -1.1626,-0.76578 v -0.0139 c 0,-0.32024 0.29239,-0.57782 0.79363,-0.57782 0.38289,0 0.7449,0.12531 1.12082,0.36897 0.0696,0.0418 0.13924,0.0627 0.22278,0.0627 0.22277,0 0.40377,-0.17404 0.40377,-0.39681 0,-0.16708 -0.0905,-0.28543 -0.18796,-0.34112 -0.43859,-0.29239 -0.93286,-0.45251 -1.54549,-0.45251 -0.96767,0 -1.66383,0.57782 -1.66383,1.41322 v 0.0139 c 0,0.89805 0.58478,1.20436 1.62206,1.45498 0.90502,0.20885 1.09994,0.39682 1.09994,0.7449 v 0.0139 c 0,0.36201 -0.33416,0.61263 -0.86324,0.61263 -0.52909,0 -0.96071,-0.181 -1.36448,-0.50124 -0.0557,-0.0418 -0.13228,-0.0766 -0.25062,-0.0766 -0.22278,0 -0.40378,0.17404 -0.40378,0.39682 0,0.13923 0.0696,0.25758 0.16708,0.32719 0.54301,0.40378 1.16956,0.61263 1.83091,0.61263 z"
       style="font-style:normal;font-variant:normal;font-weight:300;font-stretch:normal;font-family:'Gotham Rounded';-inkscape-font-specification:'Gotham Rounded Light';text-align:center;text-anchor:middle;fill:#000000;fill-opacity:1;stroke-width:1.00001252"
       id="path1893" />
    <path
       d="m 129.53209,114.54655 c 0,0.2367 0.18796,0.42466 0.43162,0.42466 0.23669,0 0.42466,-0.18796 0.42466,-0.42466 v -1.17652 h 0.96767 c 1.07209,0 1.94926,-0.57085 1.94926,-1.66383 v -0.0139 c 0,-0.98159 -0.71009,-1.62902 -1.8518,-1.62902 h -1.48979 c -0.24366,0 -0.43162,0.18796 -0.43162,0.43162 z m 0.85628,-1.94926 v -1.75434 h 0.99551 c 0.64048,0 1.05121,0.29935 1.05121,0.87021 v 0.0139 c 0,0.5082 -0.40377,0.87021 -1.05121,0.87021 z"
       style="font-style:normal;font-variant:normal;font-weight:300;font-stretch:normal;font-family:'Gotham Rounded';-inkscape-font-specification:'Gotham Rounded Light';text-align:center;text-anchor:middle;fill:#000000;fill-opacity:1;stroke-width:1.00001252"
       id="path1895" />
    <path
       d="m 134.18225,114.50478 c 0,0.24366 0.18796,0.43162 0.43162,0.43162 h 1.82395 c 1.08602,0 1.80307,-0.46643 1.80307,-1.33663 v -0.0139 c 0,-0.66135 -0.39681,-0.98855 -0.96767,-1.18348 0.36201,-0.18796 0.69617,-0.50124 0.69617,-1.08602 v -0.0139 c 0,-0.3272 -0.11139,-0.59174 -0.3272,-0.80755 -0.27847,-0.27847 -0.71705,-0.43162 -1.27398,-0.43162 h -1.75434 c -0.24366,0 -0.43162,0.18796 -0.43162,0.43162 z m 0.84236,-2.38785 v -1.29486 h 1.23221 c 0.54997,0 0.85628,0.23669 0.85628,0.61958 v 0.0139 c 0,0.44554 -0.36896,0.66135 -0.91893,0.66135 z m 0,2.06065 v -1.33663 h 1.35752 c 0.67528,0 1.00248,0.24365 1.00248,0.65439 v 0.0139 c 0,0.43859 -0.35505,0.66832 -0.93983,0.66832 z"
       style="font-style:normal;font-variant:normal;font-weight:300;font-stretch:normal;font-family:'Gotham Rounded';-inkscape-font-specification:'Gotham Rounded Light';text-align:center;text-anchor:middle;fill:#000000;fill-opacity:1;stroke-width:1.00001252"
       id="path1897" />
  </g>
  <g
     aria-label="CLOCK"
     style="font-style:normal;font-variant:normal;font-weight:300;font-stretch:normal;font-size:6.96164751px;line-height:1.25;font-family:'Gotham Rounded';-inkscape-font-specification:'Gotham Rounded Light';text-align:center;letter-spacing:0px;word-spacing:0px;text-anchor:middle;fill:#cccccc;fill-opacity:1;stroke:none;stroke-width:1.00001252"
     id="text18235">
    <path
       d="m 47.958974,163.02812 c 0.786666,0 1.308789,-0.25062 1.768258,-0.6544 0.07658,-0.0696 0.139233,-0.17404 0.139233,-0.30631 0,-0.21581 -0.187965,-0.39681 -0.403776,-0.39681 -0.104424,0 -0.194926,0.0418 -0.257581,0.0975 -0.355044,0.29935 -0.703126,0.46643 -1.218288,0.46643 -0.932861,0 -1.60814,-0.77274 -1.60814,-1.72649 v -0.0139 c 0,-0.95375 0.682241,-1.71953 1.60814,-1.71953 0.46643,0 0.828436,0.16708 1.162595,0.43859 0.05569,0.0418 0.139233,0.0835 0.257581,0.0835 0.236696,0 0.424661,-0.18101 0.424661,-0.4177 0,-0.15316 -0.07658,-0.27151 -0.16708,-0.34112 -0.42466,-0.3272 -0.918937,-0.54997 -1.670795,-0.54997 -1.47587,0 -2.513155,1.13475 -2.513155,2.52011 v 0.0139 c 0,1.39929 1.05817,2.50619 2.478347,2.50619 z"
       style="font-style:normal;font-variant:normal;font-weight:300;font-stretch:normal;font-family:'Gotham Rounded';-inkscape-font-specification:'Gotham Rounded Light';text-align:center;text-anchor:middle;fill:#cccccc;fill-opacity:1;stroke-width:1.00001252"
       id="path1878" />
    <path
       d="m 50.836092,162.51296 c 0,0.24366 0.187964,0.43162 0.431622,0.43162 h 2.631503 c 0.215811,0 0.389852,-0.17404 0.389852,-0.38985 0,-0.21581 -0.174041,-0.38985 -0.389852,-0.38985 h -2.206843 v -3.7036 c 0,-0.2367 -0.187964,-0.42466 -0.42466,-0.42466 -0.243658,0 -0.431622,0.18796 -0.431622,0.42466 z"
       style="font-style:normal;font-variant:normal;font-weight:300;font-stretch:normal;font-family:'Gotham Rounded';-inkscape-font-specification:'Gotham Rounded Light';text-align:center;text-anchor:middle;fill:#cccccc;fill-opacity:1;stroke-width:1.00001252"
       id="path1880" />
    <path
       d="m 57.199582,163.02812 c 1.496754,0 2.554925,-1.14867 2.554925,-2.52012 v -0.0139 c 0,-1.37144 -1.044247,-2.50619 -2.541002,-2.50619 -1.496754,0 -2.554924,1.14867 -2.554924,2.52011 v 0.0139 c 0,1.37144 1.044247,2.50619 2.541001,2.50619 z m 0.01392,-0.79363 c -0.967669,0 -1.656872,-0.7797 -1.656872,-1.72649 v -0.0139 c 0,-0.94678 0.67528,-1.71953 1.642949,-1.71953 0.967669,0 1.656872,0.78667 1.656872,1.73345 v 0.0139 c 0,0.94678 -0.67528,1.71256 -1.642949,1.71256 z"
       style="font-style:normal;font-variant:normal;font-weight:300;font-stretch:normal;font-family:'Gotham Rounded';-inkscape-font-specification:'Gotham Rounded Light';text-align:center;text-anchor:middle;fill:#cccccc;fill-opacity:1;stroke-width:1.00001252"
       id="path1882" />
    <path
       d="m 63.051608,163.02812 c 0.786666,0 1.308789,-0.25062 1.768258,-0.6544 0.07658,-0.0696 0.139233,-0.17404 0.139233,-0.30631 0,-0.21581 -0.187964,-0.39681 -0.403775,-0.39681 -0.104425,0 -0.194927,0.0418 -0.257581,0.0975 -0.355044,0.29935 -0.703127,0.46643 -1.218289,0.46643 -0.93286,0 -1.60814,-0.77274 -1.60814,-1.72649 v -0.0139 c 0,-0.95375 0.682241,-1.71953 1.60814,-1.71953 0.466431,0 0.828436,0.16708 1.162595,0.43859 0.05569,0.0418 0.139233,0.0835 0.257581,0.0835 0.236696,0 0.424661,-0.18101 0.424661,-0.4177 0,-0.15316 -0.07658,-0.27151 -0.16708,-0.34112 -0.42466,-0.3272 -0.918937,-0.54997 -1.670795,-0.54997 -1.475869,0 -2.513155,1.13475 -2.513155,2.52011 v 0.0139 c 0,1.39929 1.058171,2.50619 2.478347,2.50619 z"
       style="font-style:normal;font-variant:normal;font-weight:300;font-stretch:normal;font-family:'Gotham Rounded';-inkscape-font-specification:'Gotham Rounded Light';text-align:center;text-anchor:middle;fill:#cccccc;fill-opacity:1;stroke-width:1.00001252"
       id="path1884" />
    <path
       d="m 65.928726,162.55473 c 0,0.23669 0.187965,0.42466 0.431623,0.42466 0.236696,0 0.42466,-0.18797 0.42466,-0.42466 v -1.00944 l 0.793628,-0.76578 1.566371,1.99799 c 0.0905,0.11835 0.194926,0.20189 0.362005,0.20189 0.243658,0 0.431622,-0.181 0.431622,-0.4177 0,-0.13227 -0.04873,-0.21581 -0.118348,-0.30631 l -1.642948,-2.03977 1.517639,-1.46194 c 0.09746,-0.0905 0.153156,-0.18797 0.153156,-0.32024 0,-0.20885 -0.160118,-0.39681 -0.396814,-0.39681 -0.153156,0 -0.257581,0.0557 -0.355044,0.16012 l -2.311267,2.32519 v -2.06065 c 0,-0.2367 -0.187964,-0.42466 -0.42466,-0.42466 -0.243658,0 -0.431623,0.18796 -0.431623,0.42466 z"
       style="font-style:normal;font-variant:normal;font-weight:300;font-stretch:normal;font-family:'Gotham Rounded';-inkscape-font-specification:'Gotham Rounded Light';text-align:center;text-anchor:middle;fill:#cccccc;fill-opacity:1;stroke-width:1.00001252"
       id="path1886" />
  </g>
  <g
     aria-label="PHASE"
     style="font-style:normal;font-variant:normal;font-weight:300;font-stretch:normal;font-size:6.96164751px;line-height:1.25;font-family:'Gotham Rounded';-inkscape-font-specification:'Gotham Rounded Light';text-align:center;letter-spacing:0px;word-spacing:0px;text-anchor:middle;fill:#cccccc;fill-opacity:1;stroke:none;stroke-width:1.00001252"
     id="text18239">
    <path
       d="m 81.098006,162.55473 c 0,0.23669 0.187965,0.42466 0.431623,0.42466 0.236696,0 0.42466,-0.18797 0.42466,-0.42466 v -1.17652 h 0.967669 c 1.072094,0 1.949261,-0.57086 1.949261,-1.66383 v -0.0139 c 0,-0.98159 -0.710088,-1.62902 -1.851798,-1.62902 h -1.489792 c -0.243658,0 -0.431623,0.18796 -0.431623,0.43162 z m 0.856283,-1.94926 v -1.75434 h 0.995516 c 0.640471,0 1.051208,0.29935 1.051208,0.87021 v 0.0139 c 0,0.5082 -0.403775,0.87021 -1.051208,0.87021 z"
       style="font-style:normal;font-variant:normal;font-weight:300;font-stretch:normal;font-family:'Gotham Rounded';-inkscape-font-specification:'Gotham Rounded Light';text-align:center;text-anchor:middle;fill:#cccccc;fill-opacity:1;stroke-width:1.00001252"
       id="path1867" />
    <path
       d="m 85.74817,162.55473 c 0,0.23669 0.187964,0.42466 0.431622,0.42466 0.236696,0 0.42466,-0.18797 0.42466,-0.42466 v -1.66384 h 2.32519 v 1.66384 c 0,0.23669 0.187965,0.42466 0.424661,0.42466 0.243658,0 0.431622,-0.18797 0.431622,-0.42466 v -4.09345 c 0,-0.2367 -0.187964,-0.42466 -0.431622,-0.42466 -0.236696,0 -0.424661,0.18796 -0.424661,0.42466 v 1.63599 h -2.32519 v -1.63599 c 0,-0.2367 -0.187964,-0.42466 -0.42466,-0.42466 -0.243658,0 -0.431622,0.18796 -0.431622,0.42466 z"
       style="font-style:normal;font-variant:normal;font-weight:300;font-stretch:normal;font-family:'Gotham Rounded';-inkscape-font-specification:'Gotham Rounded Light';text-align:center;text-anchor:middle;fill:#cccccc;fill-opacity:1;stroke-width:1.00001252"
       id="path1869" />
    <path
       d="m 90.703231,162.58257 c 0,0.22278 0.174041,0.39682 0.396814,0.39682 0.181003,0 0.327197,-0.0975 0.396814,-0.27151 l 0.410737,-0.93982 h 2.36696 l 0.396814,0.91198 c 0.07658,0.181 0.215811,0.29935 0.417699,0.29935 0.229734,0 0.403775,-0.181 0.403775,-0.41074 0,-0.0557 -0.01392,-0.11835 -0.04873,-0.181 l -1.810029,-4.03776 c -0.09746,-0.21581 -0.264542,-0.34808 -0.5082,-0.34808 h -0.04177 c -0.243657,0 -0.417699,0.13227 -0.515162,0.34808 l -1.810028,4.03776 c -0.03481,0.0696 -0.05569,0.13227 -0.05569,0.19492 z m 1.531562,-1.57333 0.856283,-1.97014 0.856283,1.97014 z"
       style="font-style:normal;font-variant:normal;font-weight:300;font-stretch:normal;font-family:'Gotham Rounded';-inkscape-font-specification:'Gotham Rounded Light';text-align:center;text-anchor:middle;fill:#cccccc;fill-opacity:1;stroke-width:1.00001252"
       id="path1871" />
    <path
       d="m 98.073005,163.0142 c 1.023362,0 1.740412,-0.54301 1.740412,-1.45499 v -0.0139 c 0,-0.80755 -0.529085,-1.17652 -1.559409,-1.42714 -0.939823,-0.22277 -1.162595,-0.38985 -1.162595,-0.76578 v -0.0139 c 0,-0.32024 0.292389,-0.57782 0.793627,-0.57782 0.382891,0 0.744897,0.12531 1.120826,0.36897 0.06962,0.0418 0.139233,0.0626 0.222772,0.0626 0.222773,0 0.403776,-0.17404 0.403776,-0.39681 0,-0.16708 -0.0905,-0.28543 -0.187965,-0.34112 -0.438583,-0.29239 -0.93286,-0.45251 -1.545485,-0.45251 -0.967669,0 -1.663834,0.57782 -1.663834,1.41321 v 0.0139 c 0,0.89805 0.584778,1.20436 1.622064,1.45498 0.905014,0.20885 1.09994,0.39682 1.09994,0.7449 v 0.0139 c 0,0.36201 -0.334159,0.61263 -0.863244,0.61263 -0.529085,0 -0.960708,-0.18101 -1.364483,-0.50124 -0.05569,-0.0418 -0.132271,-0.0766 -0.250619,-0.0766 -0.222773,0 -0.403776,0.17404 -0.403776,0.39681 0,0.13924 0.06962,0.25759 0.16708,0.3272 0.543008,0.40378 1.169556,0.61263 1.830913,0.61263 z"
       style="font-style:normal;font-variant:normal;font-weight:300;font-stretch:normal;font-family:'Gotham Rounded';-inkscape-font-specification:'Gotham Rounded Light';text-align:center;text-anchor:middle;fill:#cccccc;fill-opacity:1;stroke-width:1.00001252"
       id="path1873" />
    <path
       d="m 101.25883,162.94458 h 2.8682 c 0.20885,0 0.38289,-0.16708 0.38289,-0.38289 0,-0.20885 -0.17404,-0.38289 -0.38289,-0.38289 h -2.44354 v -1.30879 h 2.09546 c 0.20884,0 0.38289,-0.16708 0.38289,-0.37593 0,-0.21581 -0.17405,-0.38985 -0.38289,-0.38985 h -2.09546 v -1.26702 h 2.40873 c 0.20885,0 0.38289,-0.16708 0.38289,-0.38289 0,-0.20885 -0.17404,-0.38289 -0.38289,-0.38289 h -2.83339 c -0.24366,0 -0.43162,0.18796 -0.43162,0.43162 v 4.00991 c 0,0.24366 0.18796,0.43162 0.43162,0.43162 z"
       style="font-style:normal;font-variant:normal;font-weight:300;font-stretch:normal;font-family:'Gotham Rounded';-inkscape-font-specification:'Gotham Rounded Light';text-align:center;text-anchor:middle;fill:#cccccc;fill-opacity:1;stroke-width:1.00001252"
       id="path1875" />
  </g>
  <g
     aria-label="REV"
     style="font-style:normal;font-variant:normal;font-weight:300;font-stretch:normal;font-size:6.96164751px;line-height:1.25;font-family:'Gotham Rounded';-inkscape-font-specification:'Gotham Rounded Light';text-align:center;letter-spacing:0px;word-spacing:0px;text-anchor:middle;fill:#cccccc;fill-opacity:1;stroke:none;stroke-width:1.00001252"
     id="text18243">
    <path
       d="m 15.89679,113.55435 c 0,0.2367 0.187964,0.42466 0.431622,0.42466 0.236696,0 0.424661,-0.18796 0.424661,-0.42466 v -1.30879 h 1.079055 l 1.18348,1.51068 c 0.09746,0.13227 0.222773,0.22277 0.417699,0.22277 0.208849,0 0.410737,-0.16011 0.410737,-0.39681 0,-0.13227 -0.05569,-0.22277 -0.139233,-0.3272 l -0.932861,-1.17652 c 0.654395,-0.20188 1.106902,-0.67528 1.106902,-1.45498 v -0.0139 c 0,-0.42466 -0.146194,-0.78667 -0.403775,-1.05121 -0.313274,-0.30631 -0.793628,-0.48732 -1.406253,-0.48732 h -1.740412 c -0.243658,0 -0.431622,0.18797 -0.431622,0.43163 z m 0.856283,-2.06761 v -1.63598 h 1.246135 c 0.633509,0 1.009438,0.28543 1.009438,0.80755 v 0.0139 c 0,0.49428 -0.389852,0.81451 -1.002477,0.81451 z"
       style="font-style:normal;font-variant:normal;font-weight:300;font-stretch:normal;font-family:'Gotham Rounded';-inkscape-font-specification:'Gotham Rounded Light';text-align:center;text-anchor:middle;fill:#cccccc;fill-opacity:1;stroke-width:1.00001252"
       id="path1860" />
    <path
       d="m 21.35929,113.94421 h 2.868199 c 0.208849,0 0.382891,-0.16708 0.382891,-0.38289 0,-0.20885 -0.174042,-0.38289 -0.382891,-0.38289 h -2.443538 v -1.30879 h 2.095456 c 0.208849,0 0.38289,-0.16708 0.38289,-0.37593 0,-0.21581 -0.174041,-0.38986 -0.38289,-0.38986 h -2.095456 v -1.26702 h 2.40873 c 0.208849,0 0.38289,-0.16708 0.38289,-0.38289 0,-0.20885 -0.174041,-0.38289 -0.38289,-0.38289 H 21.35929 c -0.243657,0 -0.431622,0.18797 -0.431622,0.43163 v 4.0099 c 0,0.24366 0.187965,0.43163 0.431622,0.43163 z"
       style="font-style:normal;font-variant:normal;font-weight:300;font-stretch:normal;font-family:'Gotham Rounded';-inkscape-font-specification:'Gotham Rounded Light';text-align:center;text-anchor:middle;fill:#cccccc;fill-opacity:1;stroke-width:1.00001252"
       id="path1862" />
    <path
       d="m 27.491958,114.01382 h 0.04873 c 0.243657,0 0.403775,-0.13227 0.494277,-0.34808 l 1.712565,-4.03776 c 0.02088,-0.0487 0.04177,-0.11834 0.04177,-0.181 0,-0.22973 -0.187965,-0.41074 -0.424661,-0.41074 -0.201888,0 -0.355044,0.13228 -0.410737,0.27847 l -1.427138,3.54348 -1.406253,-3.51563 c -0.06962,-0.18101 -0.215811,-0.30632 -0.438583,-0.30632 -0.243658,0 -0.431622,0.18797 -0.431622,0.4177 0,0.0766 0.02088,0.13924 0.04873,0.20189 l 1.705604,4.00991 c 0.0905,0.21581 0.250619,0.34808 0.487315,0.34808 z"
       style="font-style:normal;font-variant:normal;font-weight:300;font-stretch:normal;font-family:'Gotham Rounded';-inkscape-font-specification:'Gotham Rounded Light';text-align:center;text-anchor:middle;fill:#cccccc;fill-opacity:1;stroke-width:1.00001252"
       id="path1864" />
  </g>
  <g
     aria-label="CLOCK"
     style="font-style:normal;font-variant:normal;font-weight:normal;font-stretch:normal;font-size:11.94451904px;line-height:1.25;font-family:'Gotham Rounded';-inkscape-font-specification:'Gotham Rounded';letter-spacing:0px;word-spacing:0px;fill:#b3b3b3;fill-opacity:1;stroke:none;stroke-width:0.94821429"
     id="text18247">
    <path
       d="m 58.329583,28.803918 c 1.337786,0 2.221681,-0.394169 2.974185,-1.051118 0.167223,-0.143334 0.310558,-0.37028 0.310558,-0.656948 0,-0.465837 -0.394169,-0.848061 -0.860006,-0.848061 -0.215001,0 -0.406113,0.08361 -0.549448,0.203056 -0.525558,0.418059 -1.039173,0.656949 -1.815566,0.656949 -1.433343,0 -2.424738,-1.194452 -2.424738,-2.627794 v -0.02389 c 0,-1.433342 1.015284,-2.603905 2.424738,-2.603905 0.656948,0 1.194451,0.215001 1.708066,0.597226 0.131389,0.08361 0.298613,0.179167 0.549448,0.179167 0.501669,0 0.907783,-0.394169 0.907783,-0.895839 0,-0.322502 -0.167223,-0.585281 -0.358335,-0.728615 -0.692783,-0.513615 -1.540843,-0.848061 -2.795018,-0.848061 -2.568072,0 -4.359749,1.946957 -4.359749,4.323916 v 0.02389 c 0,2.400848 1.827511,4.300027 4.288082,4.300027 z"
       style="font-style:normal;font-variant:normal;font-weight:normal;font-stretch:normal;font-family:'Gotham Rounded';-inkscape-font-specification:'Gotham Rounded';text-align:center;text-anchor:middle;fill:#b3b3b3;fill-opacity:1;stroke-width:0.94821429"
       id="path1849" />
    <path
       d="m 63.230195,27.740856 c 0,0.513614 0.406114,0.919727 0.919728,0.919727 h 4.323916 c 0.465837,0 0.836117,-0.37028 0.836117,-0.836116 0,-0.465836 -0.37028,-0.836116 -0.836117,-0.836116 h -3.404188 v -5.84087 c 0,-0.513614 -0.406113,-0.919728 -0.919728,-0.919728 -0.513614,0 -0.919728,0.406114 -0.919728,0.919728 z"
       style="font-style:normal;font-variant:normal;font-weight:normal;font-stretch:normal;font-family:'Gotham Rounded';-inkscape-font-specification:'Gotham Rounded';text-align:center;text-anchor:middle;fill:#b3b3b3;fill-opacity:1;stroke-width:0.94821429"
       id="path1851" />
    <path
       d="m 74.220087,28.803918 c 2.580016,0 4.455305,-1.946957 4.455305,-4.323916 v -0.02389 c 0,-2.376959 -1.8514,-4.300027 -4.431416,-4.300027 -2.580016,0 -4.455306,1.946957 -4.455306,4.323916 v 0.02389 c 0,2.376959 1.851401,4.300027 4.431417,4.300027 z m 0.02389,-1.696122 c -1.481121,0 -2.532238,-1.194452 -2.532238,-2.627794 v -0.02389 c 0,-1.433342 1.027228,-2.603905 2.508349,-2.603905 1.48112,0 2.532238,1.194452 2.532238,2.627794 v 0.02389 c 0,1.433342 -1.027229,2.603905 -2.508349,2.603905 z"
       style="font-style:normal;font-variant:normal;font-weight:normal;font-stretch:normal;font-family:'Gotham Rounded';-inkscape-font-specification:'Gotham Rounded';text-align:center;text-anchor:middle;fill:#b3b3b3;fill-opacity:1;stroke-width:0.94821429"
       id="path1853" />
    <path
       d="m 84.224927,28.803918 c 1.337786,0 2.22168,-0.394169 2.974185,-1.051118 0.167223,-0.143334 0.310557,-0.37028 0.310557,-0.656948 0,-0.465837 -0.394169,-0.848061 -0.860005,-0.848061 -0.215001,0 -0.406114,0.08361 -0.549448,0.203056 -0.525559,0.418059 -1.039173,0.656949 -1.815567,0.656949 -1.433342,0 -2.424737,-1.194452 -2.424737,-2.627794 v -0.02389 c 0,-1.433342 1.015284,-2.603905 2.424737,-2.603905 0.656949,0 1.194452,0.215001 1.708067,0.597226 0.131389,0.08361 0.298613,0.179167 0.549447,0.179167 0.50167,0 0.907784,-0.394169 0.907784,-0.895839 0,-0.322502 -0.167223,-0.585281 -0.358336,-0.728615 -0.692782,-0.513615 -1.540843,-0.848061 -2.795017,-0.848061 -2.568072,0 -4.35975,1.946957 -4.35975,4.323916 v 0.02389 c 0,2.400848 1.827512,4.300027 4.288083,4.300027 z"
       style="font-style:normal;font-variant:normal;font-weight:normal;font-stretch:normal;font-family:'Gotham Rounded';-inkscape-font-specification:'Gotham Rounded';text-align:center;text-anchor:middle;fill:#b3b3b3;fill-opacity:1;stroke-width:0.94821429"
       id="path1855" />
    <path
       d="m 89.125541,27.812523 c 0,0.513614 0.406114,0.919728 0.919728,0.919728 0.513614,0 0.919728,-0.406114 0.919728,-0.919728 V 26.14029 l 1.051118,-0.979451 2.388904,3.129464 c 0.203056,0.26278 0.418058,0.441948 0.776393,0.441948 0.537504,0 0.931673,-0.382225 0.931673,-0.895839 0,-0.274724 -0.107501,-0.465837 -0.250835,-0.645004 l -2.568072,-3.22502 2.35307,-2.197792 c 0.203057,-0.191112 0.334447,-0.406114 0.334447,-0.692782 0,-0.453892 -0.334447,-0.848061 -0.848061,-0.848061 -0.322502,0 -0.549448,0.13139 -0.776394,0.358336 l -3.392243,3.368354 v -2.806962 c 0,-0.513614 -0.406114,-0.919728 -0.919728,-0.919728 -0.513614,0 -0.919728,0.406114 -0.919728,0.919728 z"
       style="font-style:normal;font-variant:normal;font-weight:normal;font-stretch:normal;font-family:'Gotham Rounded';-inkscape-font-specification:'Gotham Rounded';text-align:center;text-anchor:middle;fill:#b3b3b3;fill-opacity:1;stroke-width:0.94821429"
       id="path1857" />
  </g>
  <rect
     ry="4.5000472"
     rx="4.5000472"
     y="3.0100098"
     x="118.99417"
     height="9.0000944"
     width="17.000216"
     id="rect18501"
     style="opacity:1;fill:#000000;fill-opacity:0.37647059;stroke:none;stroke-width:1.24348032;stroke-linecap:round;stroke-linejoin:round;stroke-miterlimit:4;stroke-dasharray:none;stroke-dashoffset:0;stroke-opacity:1" />
  <rect
     ry="4.5000472"
     rx="4.5000472"
     y="368.01453"
     x="118.99417"
     height="9.0000944"
     width="17.000216"
     id="rect18511"
     style="opacity:1;fill:#000000;fill-opacity:0.37647059;stroke:none;stroke-width:1.24348032;stroke-linecap:round;stroke-linejoin:round;stroke-miterlimit:4;stroke-dasharray:none;stroke-dashoffset:0;stroke-opacity:1" />
  <rect
     ry="4.5000472"
     rx="4.5000472"
     y="3.0100098"
     x="13.992981"
     height="9.0000944"
     width="17.000216"
     id="rect18521"
     style="opacity:1;fill:#000000;fill-opacity:0.37647059;stroke:none;stroke-width:1.24348032;stroke-linecap:round;stroke-linejoin:round;stroke-miterlimit:4;stroke-dasharray:none;stroke-dashoffset:0;stroke-opacity:1" />
  <rect
     ry="4.5000472"
     rx="4.5000472"
     y="368.01453"
     x="13.992981"
     height="9.0000944"
     width="17.000216"
     id="rect18531"
     style="opacity:1;fill:#000000;fill-opacity:0.37647059;stroke:none;stroke-width:1.24348032;stroke-linecap:round;stroke-linejoin:round;stroke-miterlimit:4;stroke-dasharray:none;stroke-dashoffset:0;stroke-opacity:1" />
  <rect
     ry="3.0000446"
     rx="3.0000446"
     y="228.01251"
     x="112.99347"
     height="31.000294"
     width="29.000351"
     id="rect18608"
     style="opacity:1;fill:#b3b3b3;fill-opacity:1;stroke:none;stroke-width:1.00001264;stroke-linecap:round;stroke-linejoin:round;stroke-miterlimit:0;stroke-dasharray:none;stroke-dashoffset:0;stroke-opacity:1" />
  <rect
     ry="3.0000446"
     rx="3.0000446"
     y="228.01251"
     x="7.9921875"
     height="31.000294"
     width="29.000351"
     id="rect18622"
     style="opacity:1;fill:#b3b3b3;fill-opacity:1;stroke:none;stroke-width:1.00001264;stroke-linecap:round;stroke-linejoin:round;stroke-miterlimit:0;stroke-dasharray:none;stroke-dashoffset:0;stroke-opacity:1" />
  <g
     aria-label="SWING"
     style="font-style:normal;font-variant:normal;font-weight:300;font-stretch:normal;font-size:6.96164751px;line-height:1.25;font-family:'Gotham Rounded';-inkscape-font-specification:'Gotham Rounded Light';text-align:center;letter-spacing:0px;word-spacing:0px;text-anchor:middle;fill:#cccccc;fill-opacity:1;stroke:none;stroke-width:1.00001252"
     id="text18303">
    <path
       d="m 117.50559,314.01664 c 1.02337,0 1.74042,-0.54301 1.74042,-1.45499 v -0.0139 c 0,-0.80755 -0.52909,-1.17652 -1.55941,-1.42714 -0.93983,-0.22277 -1.1626,-0.38985 -1.1626,-0.76578 v -0.0139 c 0,-0.32024 0.29239,-0.57782 0.79363,-0.57782 0.38289,0 0.7449,0.12531 1.12082,0.36897 0.0696,0.0418 0.13924,0.0626 0.22278,0.0626 0.22277,0 0.40377,-0.17404 0.40377,-0.39681 0,-0.16708 -0.0905,-0.28543 -0.18796,-0.34112 -0.43859,-0.29239 -0.93286,-0.45251 -1.54549,-0.45251 -0.96767,0 -1.66383,0.57782 -1.66383,1.41322 v 0.0139 c 0,0.89805 0.58478,1.20436 1.62206,1.45498 0.90502,0.20885 1.09994,0.39682 1.09994,0.7449 v 0.0139 c 0,0.36201 -0.33416,0.61263 -0.86324,0.61263 -0.52909,0 -0.96071,-0.181 -1.36448,-0.50124 -0.0557,-0.0418 -0.13228,-0.0766 -0.25062,-0.0766 -0.22278,0 -0.40378,0.17404 -0.40378,0.39682 0,0.13923 0.0696,0.25758 0.16708,0.32719 0.54301,0.40378 1.16956,0.61263 1.83091,0.61263 z"
       style="font-style:normal;font-variant:normal;font-weight:300;font-stretch:normal;font-family:'Gotham Rounded';-inkscape-font-specification:'Gotham Rounded Light';text-align:center;text-anchor:middle;fill:#cccccc;fill-opacity:1;stroke-width:1.00001252"
       id="path1838" />
    <path
       d="m 121.46401,313.66159 c 0.0835,0.22278 0.23669,0.35505 0.44554,0.35505 h 0.0835 c 0.20885,0 0.36897,-0.13227 0.44555,-0.35505 l 1.08601,-3.18147 1.08602,3.18147 c 0.0766,0.22278 0.22974,0.35505 0.43858,0.35505 h 0.0835 c 0.20885,0 0.36897,-0.13923 0.44555,-0.35505 l 1.44106,-4.03775 c 0.0209,-0.0487 0.0418,-0.11835 0.0418,-0.17404 0,-0.22974 -0.19493,-0.41074 -0.42466,-0.41074 -0.20885,0 -0.35504,0.13227 -0.4177,0.30631 l -1.12082,3.35552 -1.09994,-3.33463 c -0.0627,-0.20189 -0.21581,-0.34112 -0.43163,-0.34112 h -0.0626 c -0.21581,0 -0.36201,0.13923 -0.43162,0.34112 l -1.09994,3.33463 -1.12083,-3.34856 c -0.0557,-0.181 -0.21581,-0.31327 -0.42466,-0.31327 -0.23669,0 -0.43858,0.181 -0.43858,0.4177 0,0.0557 0.0139,0.11835 0.0348,0.16708 z"
       style="font-style:normal;font-variant:normal;font-weight:300;font-stretch:normal;font-family:'Gotham Rounded';-inkscape-font-specification:'Gotham Rounded Light';text-align:center;text-anchor:middle;fill:#cccccc;fill-opacity:1;stroke-width:1.00001252"
       id="path1840" />
    <path
       d="m 128.05737,313.55717 c 0,0.2367 0.18797,0.42466 0.43162,0.42466 0.2367,0 0.42466,-0.18796 0.42466,-0.42466 v -4.09345 c 0,-0.2367 -0.18796,-0.42466 -0.42466,-0.42466 -0.24365,0 -0.43162,0.18796 -0.43162,0.42466 z"
       style="font-style:normal;font-variant:normal;font-weight:300;font-stretch:normal;font-family:'Gotham Rounded';-inkscape-font-specification:'Gotham Rounded Light';text-align:center;text-anchor:middle;fill:#cccccc;fill-opacity:1;stroke-width:1.00001252"
       id="path1842" />
    <path
       d="m 130.01247,313.56413 c 0,0.22974 0.18797,0.4177 0.42466,0.4177 0.22974,0 0.4177,-0.18796 0.4177,-0.4177 v -3.09097 l 2.50619,3.24413 c 0.11835,0.15315 0.24366,0.25758 0.44555,0.25758 h 0.0348 c 0.23669,0 0.4177,-0.18797 0.4177,-0.42466 v -4.09345 c 0,-0.22974 -0.18797,-0.4177 -0.42466,-0.4177 -0.22974,0 -0.4177,0.18796 -0.4177,0.4177 v 2.99351 l -2.43658,-3.15363 c -0.11835,-0.14619 -0.2367,-0.25062 -0.44555,-0.25062 h -0.0905 c -0.24365,0 -0.43162,0.19493 -0.43162,0.43162 z"
       style="font-style:normal;font-variant:normal;font-weight:300;font-stretch:normal;font-family:'Gotham Rounded';-inkscape-font-specification:'Gotham Rounded Light';text-align:center;text-anchor:middle;fill:#cccccc;fill-opacity:1;stroke-width:1.00001252"
       id="path1844" />
    <path
       d="m 137.52586,314.03056 c 0.73097,0 1.31575,-0.25062 1.73345,-0.52908 0.20189,-0.12531 0.29935,-0.29935 0.29935,-0.54301 v -1.30183 c 0,-0.24366 -0.18797,-0.43162 -0.43162,-0.43162 h -1.35753 c -0.20884,0 -0.38289,0.16708 -0.38289,0.37593 0,0.20885 0.17405,0.36896 0.38289,0.36896 h 0.96071 v 0.91198 c -0.29935,0.22277 -0.71705,0.36897 -1.17652,0.36897 -0.99551,0 -1.65687,-0.73794 -1.65687,-1.74042 v -0.0139 c 0,-0.93286 0.68224,-1.71953 1.5803,-1.71953 0.52908,0 0.8702,0.15316 1.18348,0.3829 0.0696,0.0487 0.15315,0.0975 0.26454,0.0975 0.23669,0 0.42466,-0.19493 0.42466,-0.42466 0,-0.16708 -0.0905,-0.28543 -0.17404,-0.34808 -0.44555,-0.32024 -0.93286,-0.49428 -1.66384,-0.49428 -1.4689,0 -2.51315,1.15563 -2.51315,2.52011 v 0.0139 c 0,1.42017 1.00248,2.50619 2.52708,2.50619 z"
       style="font-style:normal;font-variant:normal;font-weight:300;font-stretch:normal;font-family:'Gotham Rounded';-inkscape-font-specification:'Gotham Rounded Light';text-align:center;text-anchor:middle;fill:#cccccc;fill-opacity:1;stroke-width:1.00001252"
       id="path1846" />
  </g>
  <g
     style="fill:#b3b3b3;stroke:#808080;stroke-width:1.08830786;stroke-opacity:1;fill-opacity:1"
     transform="matrix(3.4833206,0,0,3.4624064,32.54921,-639.22137)"
     id="g2207">
    <path
       style="color:#000000;font-style:normal;font-variant:normal;font-weight:normal;font-stretch:normal;font-size:medium;line-height:normal;font-family:sans-serif;font-variant-ligatures:normal;font-variant-position:normal;font-variant-caps:normal;font-variant-numeric:normal;font-variant-alternates:normal;font-feature-settings:normal;text-indent:0;text-align:start;text-decoration:none;text-decoration-line:none;text-decoration-style:solid;text-decoration-color:#000000;letter-spacing:normal;word-spacing:normal;text-transform:none;writing-mode:lr-tb;direction:ltr;text-orientation:mixed;dominant-baseline:auto;baseline-shift:baseline;text-anchor:start;white-space:normal;shape-padding:0;clip-rule:nonzero;display:inline;overflow:visible;visibility:visible;opacity:1;isolation:auto;mix-blend-mode:normal;color-interpolation:sRGB;color-interpolation-filters:linearRGB;solid-color:#000000;solid-opacity:1;vector-effect:none;fill:#b3b3b3;fill-opacity:1;fill-rule:evenodd;stroke:none;stroke-width:0.53669477;stroke-linecap:butt;stroke-linejoin:bevel;stroke-miterlimit:0;stroke-dasharray:none;stroke-dashoffset:0;stroke-opacity:1;color-rendering:auto;image-rendering:auto;shape-rendering:auto;text-rendering:auto;enable-background:accumulate"
       d="m 11.640625,288.51172 c -0.136141,0.11687 -0.502862,0.26885 -0.792969,0.41016 -0.249038,0.0915 -0.513291,0.18263 -0.814453,0.25195 -0.7481113,0.17218 -1.5872324,0.2422 -2.0976561,0.13672 l -0.109375,0.52539 c 0.4380502,0.0905 1.0069942,-0.0207 1.5488281,-0.0918 -0.00711,0.006 -0.020422,0.009 -0.027344,0.0156 -0.0937,0.0853 -0.1835532,0.18731 -0.2109374,0.34179 -0.027384,0.15448 0.050367,0.32636 0.1582031,0.42774 0.1115826,0.1049 0.2294936,0.12757 0.3496093,0.14258 0.1201158,0.015 0.2500582,0.0127 0.392578,0 0.28504,-0.0254 0.620052,-0.0947 0.964844,-0.19727 l -0.152344,-0.51367 c -0.316607,0.0942 -0.627496,0.15691 -0.861328,0.17773 -0.1053894,0.009 -0.1872275,0.008 -0.25,0.002 0.1029597,-0.0866 0.311035,-0.21056 0.572266,-0.33593 0.23424,-0.11243 0.458959,-0.25712 0.716797,-0.37696 0.06953,-0.0255 0.15767,-0.0435 0.222656,-0.0703 0.272522,-0.11241 0.473374,-0.24269 0.646484,-0.39062 0.02502,-0.0194 0.07047,-0.0288 0.09375,-0.0488 l -0.0039,-0.004 c 0.0053,-0.005 0.0163,-0.008 0.02148,-0.0137 z"
       id="path2200"
       inkscape:connector-curvature="0" />
    <path
       style="color:#000000;font-style:normal;font-variant:normal;font-weight:normal;font-stretch:normal;font-size:medium;line-height:normal;font-family:sans-serif;font-variant-ligatures:normal;font-variant-position:normal;font-variant-caps:normal;font-variant-numeric:normal;font-variant-alternates:normal;font-feature-settings:normal;text-indent:0;text-align:start;text-decoration:none;text-decoration-line:none;text-decoration-style:solid;text-decoration-color:#000000;letter-spacing:normal;word-spacing:normal;text-transform:none;writing-mode:lr-tb;direction:ltr;text-orientation:mixed;dominant-baseline:auto;baseline-shift:baseline;text-anchor:start;white-space:normal;shape-padding:0;clip-rule:nonzero;display:inline;overflow:visible;visibility:visible;opacity:1;isolation:auto;mix-blend-mode:normal;color-interpolation:sRGB;color-interpolation-filters:linearRGB;solid-color:#000000;solid-opacity:1;vector-effect:none;fill:#b3b3b3;fill-opacity:1;fill-rule:evenodd;stroke:none;stroke-width:0.55421764;stroke-linecap:butt;stroke-linejoin:bevel;stroke-miterlimit:0;stroke-dasharray:none;stroke-dashoffset:0;stroke-opacity:1;color-rendering:auto;image-rendering:auto;shape-rendering:auto;text-rendering:auto;enable-background:accumulate"
       d="m 14.433594,288.49414 c -0.497415,0.62122 -0.398927,1.34849 0.01758,1.75195 0.416505,0.40347 1.117985,0.52073 1.705078,0.14258 l -0.300781,-0.46679 c -0.377635,0.24323 -0.784866,0.1531 -1.019531,-0.0742 -0.174451,-0.16899 -0.201132,-0.41568 -0.0918,-0.70508 0.150163,0.17192 0.27108,0.38586 0.470703,0.48242 0.343198,0.16601 0.746871,0.20138 1.179687,0.11328 l -0.111328,-0.54297 c -0.341141,0.0694 -0.607485,0.0364 -0.828125,-0.0703 -0.22064,-0.10673 -0.406822,-0.29438 -0.560547,-0.58594 z"
       id="path2202"
       inkscape:connector-curvature="0" />
    <path
       style="color:#000000;font-style:normal;font-variant:normal;font-weight:normal;font-stretch:normal;font-size:medium;line-height:normal;font-family:sans-serif;font-variant-ligatures:normal;font-variant-position:normal;font-variant-caps:normal;font-variant-numeric:normal;font-variant-alternates:normal;font-feature-settings:normal;text-indent:0;text-align:start;text-decoration:none;text-decoration-line:none;text-decoration-style:solid;text-decoration-color:#000000;letter-spacing:normal;word-spacing:normal;text-transform:none;writing-mode:lr-tb;direction:ltr;text-orientation:mixed;dominant-baseline:auto;baseline-shift:baseline;text-anchor:start;white-space:normal;shape-padding:0;clip-rule:nonzero;display:inline;overflow:visible;visibility:visible;opacity:1;isolation:auto;mix-blend-mode:normal;color-interpolation:sRGB;color-interpolation-filters:linearRGB;solid-color:#000000;solid-opacity:1;vector-effect:none;fill:#b3b3b3;fill-opacity:1;fill-rule:evenodd;stroke:none;stroke-width:0.53669477;stroke-linecap:butt;stroke-linejoin:bevel;stroke-miterlimit:0;stroke-dasharray:none;stroke-dashoffset:0;stroke-opacity:1;color-rendering:auto;image-rendering:auto;shape-rendering:auto;text-rendering:auto;enable-background:accumulate"
       d="m 13.447266,288.3418 c -0.42931,0.48516 -1.295642,1.38777 -2.642578,1.62695 l 0.09375,0.52734 c 0.274973,-0.0488 0.435024,-0.20142 0.673828,-0.29101 l 0.205078,0.42187 c 0.291223,-0.1158 0.684899,-0.22457 1.044922,-0.25195 0.360022,-0.0274 0.67217,0.0317 0.845703,0.17578 l 0.341797,-0.41211 c -0.34072,-0.28282 -0.793976,-0.33187 -1.228516,-0.29883 -0.07417,0.006 -0.131585,0.0384 -0.205078,0.0488 0.291539,-0.24465 0.572914,-0.48077 0.810547,-0.76562 0.145565,-0.14458 0.364447,-0.31674 0.460937,-0.42578 l -0.0059,-0.004 c 0.0076,-0.0115 0.02378,-0.0177 0.03125,-0.0293 z"
       id="path2205"
       inkscape:connector-curvature="0" />
  </g>
</svg>
