<?xml version="1.0" encoding="UTF-8"?>
<svg width="150" height="380" version="1.1" viewBox="0 0 150 380" xmlns="http://www.w3.org/2000/svg">
 <path d="m0 0h150v380h-150z" fill="#202223"/>
 <path d="m79.4 359.1c-1.479 1.661-4.45 4.734-9.057 5.604l-0.0039-0.0137c-1.103 0.3262-2.181 0.545-2.996 0.6172-0.364 0.0322-0.6462 0.0252-0.8652 6e-3 0.3616-0.2997 1.078-0.7228 1.982-1.154 1.914-0.913 4.391-1.825 5.848-3.068l-0.01172-0.0137c0.01904-0.0189 0.05956-0.0277 0.07813-0.0469l-1.275-1.357c-0.4742 0.4046-1.75 0.9328-2.76 1.422-0.8674 0.317-1.789 0.633-2.838 0.873-2.606 0.5964-5.53 0.8383-7.311 0.4727l-0.375 1.826c1.491 0.3063 3.301 0.2081 5.145-0.0234-0.2468 0.2574-0.506 0.5152-0.582 0.9414-0.09586 0.5376 0.1713 1.134 0.5469 1.484 0.3885 0.363 0.8012 0.4423 1.219 0.4941 0.4175 0.0519 0.8673 0.0439 1.363 0 0.8925-0.079 1.935-0.2973 3.008-0.5957v4e-3c0.9074-0.1602 1.678-0.4756 2.473-0.7637l0.5938 1.213c1.015-0.4012 2.382-0.7762 3.637-0.8711s2.344 0.1123 2.949 0.6113l1.188-1.438c-1.139-0.9399-2.641-1.113-4.098-1.025 1.344-1.195 2.546-2.504 3.488-3.916 0.0099-0.0111 0.03708-0.032 0.04687-0.043l-0.0059-4e-3c0.025-0.0378 0.06521-0.0696 0.08984-0.1074zm3.432 0.502c-1.733 2.152-1.388 4.673 0.0625 6.07s3.884 1.801 5.928 0.4922l-1.037-1.621c-1.316 0.8432-2.739 0.5293-3.557-0.2578-0.551-0.5305-0.6638-1.286-0.4375-2.154 0.5133 0.5723 1.087 1.064 1.762 1.389 1.194 0.5742 2.598 0.6971 4.104 0.3926l-0.3809-1.887c-1.189 0.2405-2.119 0.1279-2.889-0.2422-0.7698-0.3701-1.42-1.021-1.955-2.029z" color="#000000" color-rendering="auto" dominant-baseline="auto" fill="#eaeae3" image-rendering="auto" shape-rendering="auto" solid-color="#000000" style="font-feature-settings:normal;font-variant-alternates:normal;font-variant-caps:normal;font-variant-ligatures:normal;font-variant-numeric:normal;font-variant-position:normal;isolation:auto;mix-blend-mode:normal;shape-padding:0;text-decoration-color:#000000;text-decoration-line:none;text-decoration-style:solid;text-indent:0;text-orientation:mixed;text-transform:none;white-space:normal"/>
 <g fill-opacity=".3765">
  <rect x="118" y="3.005" width="19" height="9" rx="4.5" ry="4.5"/>
  <rect x="13" y="3.005" width="19" height="9" rx="4.5" ry="4.5"/>
  <rect x="13" y="368" width="19" height="9" rx="4.5" ry="4.5"/>
  <rect x="118" y="368" width="19" height="9" rx="4.5" ry="4.5"/>
 </g>
 <g transform="translate(0,5)">
  <g fill="none" stroke="#8a8a76">
   <g stroke-width=".7">
    <path d="m75 111v-36.74"/>
    <path d="m75 111-38.25-15.84"/>
    <path d="m75 111 38.25-15.84"/>
   </g>
   <path d="m49.14 136.9a36.57 36.59 0 0 1 0-51.75 36.57 36.59 0 0 1 51.71 1e-6 36.57 36.59 0 0 1 0 51.75" stroke-linecap="round" stroke-linejoin="round" stroke-width=".6"/>
   <g stroke-width=".7">
    <path d="m75 111-29.27 29.27"/>
    <path d="m75 111 29.27 29.27"/>
    <path d="m75 111-23-34.42"/>
    <path d="m75 111-40.61 8.077"/>
    <path d="m75 111 23-34.42"/>
    <path d="m75 111 40.61 8.077"/>
    <path d="m68.45 78.08-0.614-3.087"/>
    <path d="m62.15 79.99-1.204-2.908"/>
    <path d="m51.25 87.27-2.226-2.226"/>
    <path d="m47.07 92.36-2.617-1.749"/>
    <path d="m42.06 104.5-3.087-0.614"/>
    <path d="m41.41 111h-3.147"/>
    <path d="m43.97 123.9-2.908 1.204"/>
    <path d="m47.07 129.7-2.617 1.749"/>
    <path d="m81.55 78.08 0.614-3.087"/>
    <path d="m87.86 79.99 1.204-2.908"/>
    <path d="m98.75 87.27 2.226-2.226"/>
    <path d="m102.9 92.36 2.617-1.749"/>
    <path d="m107.9 104.5 3.087-0.614"/>
    <path d="m108.6 111h3.147"/>
    <path d="m106 123.9 2.908 1.204"/>
    <path d="m102.9 129.7 2.617 1.749"/>
   </g>
  </g>
 </g>
 <path d="m75 80v-20" fill="none" stroke="#8a8a76" stroke-width=".7"/>
 <path d="m23 259c-0.02866-15.36 0.0046-33.89 2.21-47.88" fill="none" stroke="#8a8a76" stroke-width=".7"/>
 <g fill="#585a4e">
  <rect x="8.593" y="256.7" width="29.08" height="43.22" rx="2.652" ry="2.652"/>
  <rect x="43.18" y="304.7" width="29.08" height="43.22" rx="2.652" ry="2.652"/>
  <rect x="77.77" y="304.7" width="29.08" height="43.22" rx="2.652" ry="2.652"/>
  <rect x="112.4" y="304.7" width="29.08" height="43.22" rx="2.652" ry="2.652"/>
  <rect x="8.593" y="304.7" width="29.08" height="43.22" rx="2.652" ry="2.652"/>
 </g>
 <g fill="none" stroke-width=".7">
  <g stroke-linecap="round" stroke-linejoin="round">
   <path d="m126.5 157.2c-8.53 10.65-20.29 18.6-33.8 22.35m-34.48 0.2644c-13.82-3.616-25.87-11.6-34.6-22.39" stroke="#8a8a76"/>
   <path d="m51.5 217.5v-6h2v6h5v-6h2v6h6" stroke="#eaeae3"/>
   <path d="m85.5 217.5 6-6v6l6-6v6" stroke="#eaeae3"/>
  </g>
  <path d="m57.67 259v-16" stroke="#8a8a76"/>
  <path d="m92.33 259v-16" stroke="#8a8a76"/>
 </g>
 <rect x="43.18" y="256.7" width="29.08" height="43.22" rx="2.652" ry="2.652" fill="#585a4e"/>
 <rect x="77.77" y="256.7" width="29.08" height="43.22" rx="2.652" ry="2.652" fill="#585a4e"/>
 <path d="m127.2 259c0.0287-15.36-5e-3 -33.89-2.21-47.88" fill="none" stroke="#8a8a76" stroke-width=".7"/>
 <rect x="112.4" y="256.7" width="29.08" height="43.22" rx="2.652" ry="2.652" fill="#585a4e"/>
 <g transform="matrix(.4427 0 0 .4423 -6.202 150.2)" fill="none" stroke="#8a8a76">
  <path d="m75 111v-36.74" stroke-width="1.582"/>
  <path d="m49.14 136.9a36.57 36.59 0 0 1 0-51.75 36.57 36.59 0 0 1 51.71 1e-6 36.57 36.59 0 0 1 0 51.75" stroke-linecap="round" stroke-linejoin="round" stroke-width="1.356"/>
  <g stroke-width="1.582">
   <path d="m75 111-29.27 29.27"/>
   <path d="m75 111 29.27 29.27"/>
   <path d="m75 111 25.96-25.98"/>
   <path d="m75 111 33.91-14.06"/>
   <path d="m75 111-25.96-25.98"/>
   <path d="m75 111-33.91-14.06"/>
  </g>
 </g>
 <g transform="translate(96)">
  <g transform="matrix(.4427 0 0 .4423 -6.202 150.2)" fill="none" stroke="#8a8a76">
   <path d="m75 111v-36.74" stroke-width="1.582"/>
   <path d="m49.14 136.9a36.57 36.59 0 0 1 0-51.75 36.57 36.59 0 0 1 51.71 1e-6 36.57 36.59 0 0 1 0 51.75" stroke-linecap="round" stroke-linejoin="round" stroke-width="1.356"/>
   <g stroke-width="1.582">
    <path d="m75 111-29.27 29.27"/>
    <path d="m75 111 29.27 29.27"/>
    <path d="m75 111 25.96-25.98"/>
    <path d="m75 111 33.91-14.06"/>
    <path d="m75 111-25.96-25.98"/>
    <path d="m75 111-33.91-14.06"/>
   </g>
  </g>
 </g>
 <g fill="#eaeae3">
  <path d="m61.7 27.68c0.4863 0.07935 0.5324-0.8401 1.04-0.3095 0.9093 0.4039-0.5595 1.603-0.4002 1.765 0.7517-0.7157-0.4375 0.6911-0.779 0.8875-0.737 0.7773-1.834 0.9093-2.843 0.7761-1.351-0.238-2.25-1.554-2.616-2.795-0.6593-2.542 0.492-5.13 1.787-7.273 1.459-2.359 3.535-4.489 6.174-5.474 1.34-0.3457 2.714 0.237 3.897 0.8227 1.561 0.6624-0.0963 1.801-0.8513 2.334-0.8849 0.6083-1.556 1.49-2.296 2.28-0.7063 0.8413-1.547 1.672-1.885 2.734 0.3902-0.5777 1.045-1.69 1.716-2.358 0.6263-0.7158 1.285-1.406 1.847-2.175 0.541-0.1592-0.7877 0.8983-0.9235 1.202-1.075 1.21-2.171 2.476-2.786 3.976-0.59 0.2853-1.942 0.4281-1.942-0.6373 0.4758-1.732 1.862-2.993 2.993-4.319 0.7931-0.8299 1.661-1.59 2.605-2.245-1.089-0.501-2.049 0.5351-2.884 1.091-1.779 1.446-3.02 3.434-4.089 5.431-0.4664 1.002-0.9507 2.007-1.002 2.974-0.1748 0.8027 0.171 1.649 0.3764 2.43 0.57 1.419 1.882-0.2571 2.391-0.9159 0.2102-0.6144 0.989-0.8693 0.3901-0.05072-0.3098 0.3668-0.7279 1.276-0.0964 0.4624 0.1042-0.1711 0.3041-0.4086 0.1762-0.6128zm0.0888-8.712c-0.88 0.7299-1.829 2.346-2.118 2.959 0.7563-1.087 1.48-2.204 2.337-3.214-0.1022 0.05154-0.1857 0.1445-0.2192 0.255zm-3.073 5.856c0.9095-2.159 2.053-4.257 3.694-5.951 0.499-0.6784-0.9076 0.7232-1.124 1.092-1.07 1.483-2.08 3.083-2.569 4.858zm3.028-2.362c0.6966-0.742 1.273-1.637 1.996-2.38 0.4435-0.5298 1.59-1.676 1.581-1.807-1.284 1.07-2.371 2.375-3.335 3.734-0.0888 0.1464-0.1704 0.2972-0.2423 0.4525zm-3.035-1.883c0.896-1.178 1.958-2.214 2.963-3.296-1.23 0.8451-2.231 2.001-2.963 3.296zm0.6127 0.4404c0.4865-0.3648 1.138-1.534 1.23-1.637-0.5251 0.4497-0.8473 1.074-1.23 1.637zm3.529 1.976c0.3485-0.5437 1.199-1.643 1.225-1.824-0.4789 0.5533-0.9892 1.116-1.225 1.824zm-0.4769-0.4333c0.4407-0.1487 0.9256-1.483 0.3138-0.4664-0.1046 0.1555-0.2092 0.3109-0.3138 0.4664zm-0.01929 6.06c0.5206-0.333 0.223-0.4405 0 0z"/>
  <path d="m69.37 23.12c-0.7605 1.324-1.482 2.671-2.195 4.02-0.46 0.8401-0.8543 1.714-1.272 2.576-0.05649-0.2844-0.05248-0.3965-0.2624-0.08295-0.3155 0.3541-0.3516-0.5083-0.3865-0.04752-0.02955 0.4167-0.7253 0.5775-0.478 0.01326 0.3137-0.8429 0.7266-1.646 1.076-2.476 1.257-2.799 2.757-5.48 4.26-8.152 0.07945-0.282 0.6564-0.7424 0.3739-0.9571-0.3655 0.5271-0.6593 1.126-0.975 1.694-1.619 2.795-3.057 5.693-4.412 8.624-0.2907 0.4267-0.1659 1.287-0.6903 1.436-0.2962-0.4725 0.2076-1.038 0.3293-1.515 1.018-2.431 2.189-4.796 3.422-7.124 0.6383-1.151 1.265-2.318 1.999-3.409 0.1818-0.3266 0.8382-0.9126 0.8792-0.2595 0.2415-0.2995 0.7614-0.4197 0.4959 0.1247-0.09589 0.2083-0.3787 0.697-0.05702 0.2485 0.1625-0.4074 0.5741-0.7757 0.8053-0.2438 0.308 0.1896-0.2934 0.7465-0.3756 1.061-0.8658 1.479-1.677 2.988-2.536 4.47zm0.694-1.681c0.2356-0.2471-0.1001-0.1904 0 0zm1.777-3.021c-0.5086 0.696-0.9169 1.457-1.322 2.216 0.5091-0.6955 0.9219-1.455 1.322-2.216zm-1.546 1.332c-0.1925 0.363 0.2901-0.3989 0.3585-0.5286 0.1836-0.3382 0.4731-0.6406 0.5626-1.017-0.284 0.533-0.7671 0.9439-0.921 1.546zm1.895-1.232c0.04587-0.2154 0.5365-0.8039 0.2199-0.2549-0.5032 1.019-1.135 1.967-1.696 2.953-1.611 2.631-3.114 5.328-4.491 8.088-0.1228 0.1137 0.2349-0.5557 0.291-0.7062 0.4002-0.8529 0.865-1.674 1.268-2.523 1.008-1.637 1.918-3.334 2.902-4.986 0.5-0.8583 1.002-1.715 1.507-2.571z"/>
  <path d="m75.95 27.76-8.79e-4 0.02265zm-2.829-3.082c0.05243-0.07553-0.0124 0.07629 0 0zm3.183 2.732c-0.3109 0.2591-0.5595 0.6694-0.9944 0.4451-0.5435 0.3132-1.168 0.5808-1.505 1.12-0.5241-0.056-0.7339 0.4805-1.311 0.5534-0.7226 0.1123-1.573 0.2571-2.193-0.2395-0.5396-0.3962-0.8066-1.062-0.7435-1.723 0.06055-0.6964 0.289-1.38 0.6465-1.983 0.9017-1.507 2.214-2.838 3.847-3.532 0.6673 0.2257 1.319-0.04118 1.979-0.1126 0.9204-0.07811 1.99 0.2103 2.504 1.031 0.3243 0.7245-0.1353 1.512-0.5019 2.129-0.4784 0.8361-1.027 1.645-1.728 2.312zm1.52-2.346c-0.4756 0.6074-0.912 1.244-1.388 1.852 0.5792-0.5149 1.104-1.121 1.388-1.852zm-0.4834-0.4044c-0.2828 0.4082-0.8391 1.301-0.8664 1.454 0.3591-0.4073 0.7898-0.915 0.8664-1.454zm-6.86 1.412c0.5227-0.8152 1.139-1.559 1.786-2.277 0.3304-0.4111-0.5346 0.4207-0.7024 0.5854-0.5146 0.5157-0.9723 1.11-1.224 1.8l0.0732-0.04952zm0.5148 0.1788c0.1899-0.3376 0.6885-1 0.7089-1.114-0.3072 0.315-0.5724 0.6928-0.7089 1.114zm1.671-1.546c-0.4543 0.3725-1.149 1.442-1.125 1.616 0.3783-0.5363 0.7453-1.081 1.125-1.616zm-0.3925 3.682c1.838-0.8252 3.273-2.422 4.087-4.247 0.2912-0.486 0.2197-1.39-0.5463-0.957-0.3996 0.04765-1.087 0.7045-1.234 0.4877-0.471-0.09723-1.209 0.8707-1.374 0.9188 0.1728-0.149 0.4212-0.5975 0.05666-0.215-0.9705 0.9174-1.883 2.09-1.895 3.487 0.02722 0.6919 0.3017 0.8426 0.9049 0.5255zm2.187-0.8225c0.8047-0.7388 1.597-1.541 2.05-2.552-0.4794 0.3227-0.6517 0.9671-1.087 1.361-0.3833 0.4299-0.8143 0.8145-1.192 1.25l0.1165-0.02281 0.1127-0.03637zm1.035 0.2216c0.2189-0.1211 0.9474-0.8117 0.3833-0.3847-0.1463 0.1074-0.2821 0.2329-0.3833 0.3847zm2.95-2.948c-0.08623-0.3213 0.2291-0.5188 0 0zm-0.1874 0.1515c0.3652-0.3533-0.2489 0.5399-0.3154 0.6856-0.1157 0.2383-0.5825 0.8633-0.6019 0.7539 0.2993-0.4854 0.6839-0.9138 0.9173-1.44zm-1.822 2.515c0.09007-0.2783 0.9869-1.147 0.4514-0.4821-0.1368 0.1729-0.2947 0.3275-0.4514 0.4821zm-0.3268 0.2369c-0.0819 0.2297-0.2743-0.03467 0 0zm-4.207-1.479c0.1927-0.3348 0.6955-0.9988 0.7909-1.053-0.2666 0.3324-0.4807 0.8164-0.7909 1.053zm0.8394-1.17c0.07673-0.01102-0.04741 0.07972 0 0zm-1.163 1.906c0.1196-0.5207 0.2505-0.238 0 0zm1.209-1.927c0.1442-0.4232 0.5292-0.3802 0 0zm-0.04619 0.02089c0.07207-0.08336 0.04476 0.02085 0 0z"/>
  <path d="m84.05 27.78c0.3459-0.1444-0.3255 0.3718-0.3738 0.5262-0.3512 0.2484-0.7533 0.5116-1.188 0.6972-0.6068 0.3166-1.269 0.5382-1.93 0.6964-0.7626 0.02728-1.691-0.03675-2.209-0.6707-0.5894-0.8875-0.2807-2.037 0.2618-2.865 0.9485-1.555 2.358-2.786 3.891-3.745 0.5522-0.3139 1.17-0.536 1.801-0.5964 0.6066 0.09415 1.201 0.5006 1.438 1.078 0.07795 0.6778-0.6888 1.052-1.077 1.499-0.3347 0.3809-0.8416 0.8917-1.342 0.4975-0.2468 0.06564-0.46 0.01182-0.1885-0.2494 0.3556-0.2608 0.665-0.5818 0.9387-0.9274-0.5016 0.06793-0.7927 0.9461-1.207 0.8884-0.01729-0.2839 0.737-0.736 0.512-0.7925-1.41 0.8906-2.601 2.124-3.407 3.587-0.2501 0.3436-0.4684 1.335 0.2727 1.033 0.673-0.1435 1.298-0.4597 1.934-0.7189 0.4042-0.06398 1.031-0.7472 1.253-0.5802-0.1817 0.1895-0.4936 0.6168-0.03028 0.3197 0.1684-0.2014 0.5919-0.407 0.3255 0.03084-0.2217 0.2375 0.5954-0.3518 0.2843 0.1605-0.06769 0.1521-0.3156 0.4285 0.04024 0.132zm1.017-3.999c-0.2245 0.1669-0.5871 0.6207-0.13 0.2297 0.04619-0.05725 0.19-0.1375 0.13-0.2297zm-0.5656 0.5452c-0.2824 0.1402 0.1107 0.1011 0 0zm-1.552-0.3551c-1.011 0.6273-1.921 1.454-2.524 2.488 0.7204-0.9416 1.584-1.768 2.524-2.488zm-2.173 1.64c0.3891-0.3477 1.146-1.034 1.239-1.238-0.4371 0.3821-0.8928 0.7709-1.239 1.238zm1.529-1.415c-0.1498-0.09728-0.2695 0.2522 0 0zm0.2313-1.284c-0.8954 0.4029-1.647 1.077-2.297 1.801-0.4255 0.5373 0.3657-0.3095 0.5623-0.436 0.5606-0.4771 1.154-0.9134 1.735-1.365zm-2.066 2.393c0.1922-0.2715 0.7945-0.6983 0.7525-0.8518-0.2747 0.2533-0.6479 0.4696-0.7525 0.8518zm4.251-0.8105c-0.1472 0.2163-0.5052 0.2711-0.08582 0.06416zm0.6597-0.6323c0.3307-0.488 0.2104 0.01022 0 0zm-0.38 0.439c-0.07984-0.1524 0.2099-0.06504 0 0z"/>
  <path d="m94.89 21.48c0.119 0.8502-0.6768 1.401-1.057 2.061-0.8883 0.964-1.984 1.733-3.143 2.338-0.4014 0.2313-0.8448 0.3981-0.901 0.2688-0.2671 0.6671 0.1016 1.531 0.5124 2.109 0.1501 0.4387 0.6708 0.253 0.7638 0.5089 0.456-0.09506 0.138 0.2086 0.5457 0.156-0.1353 0.4211 0.2663 0.1663-0.1015 0.5299-0.7324 0.5033-1.707-0.1662-2.274-0.6927-0.6562-0.5664-0.9444-1.385-1.194-2.186-0.4962 0.09759-0.6064 1.142-0.8523 1.192 0.1352-0.3391 0.6295-1.033 0.5403-1.224-0.6376 1.134-1.248 2.299-1.723 3.514 0.0436 0.7359-0.7736 0.4124-1.124 0.7596-0.8852-0.4088-0.04117-1.453 0.1056-2.102 1.326-3.164 2.778-6.283 4.472-9.268 0.4523-0.5654 0.8121-1.821 1.571-1.755 0.1772 0.3941 0.7609-0.4784 0.5958 0.3509 0.423-0.7154 1.02 0.3483 0.43 0.7146-0.7184 1.305-1.491 2.58-2.201 3.89 0.6741-0.7371 1.031-1.704 1.572-2.536 0.3071-0.4722 0.6918-1.326 0.9678-1.556-0.6397 1.332-1.489 2.563-2.168 3.879 0.3033-0.1889 1.364-0.9188 0.6643-0.2124-0.4498 0.1215-1.485 1.233-0.4904 0.5399 0.8973-0.594 1.784-1.227 2.769-1.665-0.02932-0.2799 0.0043-0.4867 0.3402-0.2402 0.3377-0.3192 1.28 0.1403 1.382 0.624zm-0.8 0.7403c-0.3434 0.559-1.236 1.27-1.383 1.669 0.6469-0.4929 1.219-0.8666 1.383-1.669zm-1.142-0.3846c-0.4919-0.07327-0.3519 0.3642 0 0zm-1.766 1.088c-0.3131 0.1507-0.1814 0.2604 0 0zm-0.2335 0.1724c-0.3348 0.1197-0.928 0.6996-0.236 0.217l0.1396-0.09528zm-0.8627 0.6017c-0.31 0.1062 0.1039 0.1682 0 0zm-4.4 4.661c0.9315-2.434 2.227-4.707 3.383-7.037 0.5287-1.022 1.091-2.033 1.751-2.971-0.4517-0.07386-0.7423 1.086-1.113 1.505-0.8765 1.422-1.562 2.955-2.305 4.45-0.6867 1.441-1.409 2.863-2.114 4.295-0.1353 0.3915-0.6605 1.471-0.3971 1.489 0.3902-0.5146 0.4385-1.197 0.7944-1.731zm-0.268 1.646c0.5376-1.201 1.061-2.409 1.592-3.613-0.5893 1.103-1.238 2.202-1.601 3.401l-0.0045 0.1091zm2.01-3.279c0.2887-0.8153-0.3647 0.556-0.4676 0.7576-0.3347 0.7539-1.214 2.078-1.069 2.545 0.4928-1.11 1.022-2.202 1.537-3.302zm1.495-2.868c0.2294-0.1949-0.08217-0.1608 0 0zm-0.6125-0.0011c0.9693-1.684 1.95-3.362 2.896-5.06-0.5178 0.5294-0.9536 1.554-1.417 2.284-0.5123 0.9149-1.005 1.841-1.479 2.776zm1.032-0.8674c0.6658-0.9052 1.195-1.91 1.77-2.876 0.1885-0.3831 0.8758-1.476 0.6999-1.382-0.8793 1.382-1.624 2.853-2.47 4.257zm0.02772 0.4548c0.3274-0.2169 0.27-0.4572 0 0zm-0.4108 1.232c0.3855-0.1849 1.003-0.9339 0.2647-0.3576-0.1136 0.09702-0.2105 0.2172-0.2647 0.3576zm1.113 0.5423c0.1247-0.4696-0.807 0.4122-0.04633 0.02088l0.04608-0.02085 1.92e-4 -8.7e-5zm-0.3851-0.01494c-0.1253-0.2024-0.168 0.08076 0 0zm0.5412-0.5008c1.016-0.5952 2.096-1.244 2.784-2.213 0.3498-0.2353 0.5715-1.299-0.01854-0.6785 0.18 0.3683-1.461 0.2263-1.404 1.066-0.8062 0.5348-1.588 1.13-2.369 1.702-0.4937 0.822 0.7569 0.3762 1.007 0.1231zm-0.1433 1.356c0.9556-5.29e-4 -0.112-0.5162 0 0zm0.976-0.5973c0.1959-0.1031-0.2081-0.1507 0 0zm0.21-0.1506c0.3025-0.05188-0.0913-0.1698 0 0zm0.4726-1.071c0.6246-0.4358 1.213-0.9346 1.645-1.563 0.6622-0.6949-0.5679 0.05316-0.6672 0.4325-0.6091 0.814-1.538 1.26-2.317 1.843 0.1649 0.09429 1-0.5675 1.34-0.7128zm-0.1746 0.9914c0.4302-0.1086 0.05804-0.4358 0 0zm0.2371-0.263c0.603-0.1692 0.3049-0.3946 0 0zm2.177-1.73c0.5437-0.9102-0.4411 0.216-0.6481 0.4821-0.3186 0.2664-1.515 1.308-0.5387 0.67 0.4187-0.3628 0.8601-0.6927 1.187-1.152zm-2.393-1.477c-1.017 0.2505 1.313-0.8967 0.3209-0.2378-0.1193 0.0599-0.2343 0.1345-0.3209 0.2378zm1.488-0.9404c-0.2499 0.5489-0.9699 0.2276-0.1552 0.05689zm0.4174-0.2333c0.3679-0.1589 0.1907 0.223 0 0zm-7.155 9.001c0.02132-0.1297 0.09686-0.0393 0 0zm6.095-7.408c-0.0078 0.3503-0.5609 0.2459 0 0z"/>
  <g aria-label="180">
   <path d="m115.4 95.97v4.705h-0.8738v-3.972h-0.9948v-0.7327z"/>
   <path d="m119.4 98.2q0.3697 0.168 0.5646 0.4571 0.2016 0.2823 0.2016 0.6654 0 0.4302-0.242 0.7528-0.2353 0.3226-0.6722 0.4974-0.4369 0.168-1.015 0.168t-1.015-0.168q-0.4302-0.1748-0.6654-0.4974t-0.2352-0.7528q0-0.3831 0.1949-0.6654 0.1949-0.289 0.5579-0.4571-0.2823-0.1546-0.4369-0.4033-0.1479-0.2554-0.1479-0.5848 0-0.3966 0.2151-0.6923 0.2218-0.2958 0.6184-0.4571t0.9141-0.1613q0.5243 0 0.9209 0.1613t0.6184 0.4571 0.2218 0.6923q0 0.3294-0.1546 0.5781t-0.4436 0.41zm-1.163-1.613q-0.41 0-0.652 0.1748-0.2352 0.1748-0.2352 0.4907 0 0.3025 0.2352 0.484 0.242 0.1748 0.652 0.1748 0.4167 0 0.6587-0.1748 0.242-0.1815 0.242-0.484 0-0.3159-0.2487-0.4907-0.242-0.1748-0.652-0.1748zm0 3.468q0.484 0 0.7663-0.2017 0.2823-0.2016 0.2823-0.5579 0-0.3495-0.2823-0.5512t-0.7663-0.2016-0.7595 0.2016q-0.2756 0.2016-0.2756 0.5512 0 0.3562 0.2756 0.5579t0.7595 0.2017z"/>
   <path d="m122.7 100.7q-0.5646 0-1.008-0.2823-0.4436-0.289-0.699-0.8335-0.2554-0.5512-0.2554-1.304t0.2554-1.297q0.2554-0.5512 0.699-0.8335 0.4436-0.289 1.008-0.289 0.5646 0 1.008 0.289 0.4504 0.2823 0.7058 0.8335 0.2554 0.5445 0.2554 1.297 0 0.7528-0.2554 1.304-0.2554 0.5444-0.7058 0.8335-0.4436 0.2823-1.008 0.2823zm0-0.7595q0.5041 0 0.7932-0.4167 0.2958-0.4167 0.2958-1.244 0-0.8268-0.2958-1.244-0.289-0.4167-0.7932-0.4167-0.4974 0-0.7932 0.4167-0.289 0.4167-0.289 1.244 0 0.8268 0.289 1.244 0.2958 0.4167 0.7932 0.4167z"/>
  </g>
  <g aria-label="60">
   <path d="m29.29 97.59q0.4638 0 0.8335 0.1815 0.3697 0.1748 0.5781 0.5041 0.2084 0.3294 0.2084 0.7595 0 0.4571-0.2285 0.8066-0.2285 0.3428-0.6184 0.531t-0.8738 0.1882q-0.9679 0-1.506-0.605-0.531-0.6049-0.531-1.734 0-0.7932 0.289-1.351 0.289-0.5646 0.8066-0.8536 0.5243-0.2958 1.21-0.2958 0.363 0 0.6789 0.08066 0.3226 0.07394 0.5579 0.2218l-0.3226 0.6587q-0.3495-0.2285-0.894-0.2285-0.6789 0-1.062 0.4167t-0.3831 1.203v0.0067q0.2084-0.242 0.531-0.363 0.3226-0.1277 0.7259-0.1277zm-0.1479 2.285q0.41 0 0.6654-0.2151 0.2554-0.2218 0.2554-0.5848 0-0.3697-0.2554-0.5848t-0.6856-0.2151q-0.4235 0-0.6923 0.2285-0.2621 0.2285-0.2621 0.5781 0 0.3428 0.2554 0.5713 0.2621 0.2218 0.7192 0.2218z"/>
   <path d="m33.33 100.6q-0.5646 0-1.008-0.2823-0.4436-0.289-0.699-0.8335-0.2554-0.5512-0.2554-1.304t0.2554-1.297q0.2554-0.5512 0.699-0.8335 0.4436-0.289 1.008-0.289t1.008 0.289q0.4504 0.2823 0.7058 0.8335 0.2554 0.5445 0.2554 1.297 0 0.7528-0.2554 1.304-0.2554 0.5445-0.7058 0.8335-0.4436 0.2823-1.008 0.2823zm0-0.7595q0.5041 0 0.7932-0.4167 0.2958-0.4167 0.2958-1.244 0-0.8268-0.2958-1.244-0.289-0.4167-0.7932-0.4167-0.4974 0-0.7932 0.4167-0.289 0.4167-0.289 1.244 0 0.8268 0.289 1.244 0.2958 0.4167 0.7932 0.4167z"/>
  </g>
  <g aria-label="30">
   <path d="m26.3 124.6q0.652 0.0807 0.9948 0.4436 0.3428 0.363 0.3428 0.9074 0 0.41-0.2084 0.7461t-0.6318 0.5377q-0.4167 0.1949-1.022 0.1949-0.5041 0-0.9746-0.1412-0.4638-0.1479-0.7932-0.4033l0.3764-0.6789q0.2554 0.2151 0.6184 0.3428 0.3697 0.121 0.7595 0.121 0.4638 0 0.7259-0.1882 0.2689-0.1949 0.2689-0.5243t-0.2554-0.5108q-0.2487-0.1882-0.7663-0.1882h-0.4302v-0.5982l1.069-1.27h-2.137v-0.7327h3.206v0.5848z"/>
   <path d="m30.17 127.4q-0.5646 0-1.008-0.2823-0.4436-0.289-0.699-0.8335-0.2554-0.5512-0.2554-1.304t0.2554-1.297q0.2554-0.5512 0.699-0.8335 0.4436-0.289 1.008-0.289t1.008 0.289q0.4503 0.2823 0.7058 0.8335 0.2554 0.5444 0.2554 1.297 0 0.7528-0.2554 1.304-0.2554 0.5444-0.7058 0.8335-0.4436 0.2823-1.008 0.2823zm0-0.7595q0.5041 0 0.7932-0.4168 0.2958-0.4167 0.2958-1.244t-0.2958-1.244q-0.289-0.4167-0.7932-0.4167-0.4974 0-0.7932 0.4167-0.289 0.4167-0.289 1.244t0.289 1.244q0.2958 0.4168 0.7932 0.4168z"/>
  </g>
  <g aria-label="90">
   <path d="m46.55 73.85q0.9679 0 1.499 0.6049 0.5377 0.6049 0.5377 1.734 0 0.7932-0.289 1.358-0.289 0.5579-0.8133 0.8536-0.5176 0.289-1.203 0.289-0.363 0-0.6856-0.07394-0.3159-0.08066-0.5512-0.2285l0.3226-0.6587q0.3495 0.2285 0.894 0.2285 0.6789 0 1.062-0.4167t0.3831-1.203v-0.0067q-0.2084 0.242-0.531 0.3697-0.3226 0.121-0.7259 0.121-0.4638 0-0.8335-0.1748-0.3697-0.1815-0.5781-0.5108-0.2084-0.3294-0.2084-0.7595 0-0.4571 0.2285-0.7999 0.2285-0.3495 0.6184-0.5377t0.8738-0.1882zm0.06722 2.285q0.4235 0 0.6856-0.2285 0.2689-0.2285 0.2689-0.5781 0-0.3428-0.2621-0.5646-0.2554-0.2285-0.7125-0.2285-0.41 0-0.6654 0.2218-0.2554 0.2151-0.2554 0.5781 0 0.3697 0.2554 0.5848t0.6856 0.2151z"/>
   <path d="m51.14 78.69q-0.5646 0-1.008-0.2823-0.4436-0.289-0.699-0.8335-0.2554-0.5512-0.2554-1.304t0.2554-1.297q0.2554-0.5512 0.699-0.8335 0.4436-0.289 1.008-0.289t1.008 0.289q0.4504 0.2823 0.7058 0.8335 0.2554 0.5445 0.2554 1.297 0 0.7528-0.2554 1.304-0.2554 0.5445-0.7058 0.8335-0.4436 0.2823-1.008 0.2823zm0-0.7595q0.5041 0 0.7932-0.4167 0.2958-0.4167 0.2958-1.244 0-0.8268-0.2958-1.244-0.289-0.4167-0.7932-0.4167-0.4974 0-0.7932 0.4167-0.289 0.4167-0.289 1.244 0 0.8268 0.289 1.244 0.2958 0.4167 0.7932 0.4167z"/>
  </g>
  <g aria-label="150">
   <path d="m97.56 74.05v4.705h-0.8738v-3.972h-0.9948v-0.7327z"/>
   <path d="m99.96 75.87q0.9948 0 1.472 0.3899 0.4772 0.3831 0.4772 1.049 0 0.4235-0.2084 0.7663t-0.6251 0.5445-1.028 0.2016q-0.5041 0-0.9746-0.1412-0.4705-0.1479-0.7932-0.4033l0.3697-0.6789q0.2621 0.2151 0.6251 0.3428 0.3697 0.121 0.7595 0.121 0.4638 0 0.7259-0.1882 0.2689-0.1949 0.2689-0.531 0-0.363-0.289-0.5445-0.2823-0.1882-0.9746-0.1882h-1.136l0.242-2.561h2.763v0.7327h-2.023l-0.1008 1.089z"/>
   <path d="m104.4 78.82q-0.5646 0-1.008-0.2823-0.4436-0.289-0.699-0.8335-0.2554-0.5512-0.2554-1.304t0.2554-1.297q0.2554-0.5512 0.699-0.8335 0.4436-0.289 1.008-0.289 0.5646 0 1.008 0.289 0.4504 0.2823 0.7058 0.8335 0.2554 0.5445 0.2554 1.297 0 0.7528-0.2554 1.304-0.2554 0.5445-0.7058 0.8335-0.4436 0.2823-1.008 0.2823zm0-0.7595q0.5041 0 0.7932-0.4167 0.2958-0.4167 0.2958-1.244 0-0.8268-0.2958-1.244-0.289-0.4167-0.7932-0.4167-0.4974 0-0.7932 0.4167-0.289 0.4167-0.289 1.244 0 0.8268 0.289 1.244 0.2958 0.4167 0.7932 0.4167z"/>
  </g>
  <g aria-label="210">
   <path d="m120.2 126.4v0.7394h-3.468v-0.5848l1.869-1.775q0.3159-0.3025 0.4235-0.5243 0.1143-0.2285 0.1143-0.4504 0-0.3294-0.2218-0.5041-0.2218-0.1748-0.652-0.1748-0.7192 0-1.102 0.4907l-0.6117-0.4705q0.2756-0.3697 0.7394-0.5713 0.4705-0.2084 1.049-0.2084 0.7663 0 1.223 0.363 0.4571 0.363 0.4571 0.9881 0 0.3831-0.1613 0.7192t-0.6184 0.7663l-1.257 1.196z"/>
   <path d="m122.3 122.4v4.705h-0.8738v-3.972h-0.9948v-0.7327z"/>
   <path d="m125.2 127.2q-0.5646 0-1.008-0.2823-0.4436-0.289-0.699-0.8335-0.2554-0.5512-0.2554-1.304t0.2554-1.297q0.2554-0.5512 0.699-0.8335 0.4436-0.289 1.008-0.289 0.5646 0 1.008 0.289 0.4504 0.2823 0.7058 0.8335 0.2554 0.5444 0.2554 1.297 0 0.7528-0.2554 1.304-0.2554 0.5444-0.7058 0.8335-0.4436 0.2823-1.008 0.2823zm0-0.7595q0.5041 0 0.7932-0.4168 0.2958-0.4167 0.2958-1.244t-0.2958-1.244q-0.289-0.4167-0.7932-0.4167-0.4974 0-0.7932 0.4167-0.289 0.4167-0.289 1.244t0.289 1.244q0.2958 0.4168 0.7932 0.4168z"/>
  </g>
  <g aria-label="REV">
   <path d="m123.2 46.91-0.9955-1.427q-0.0627 7e-3 -0.188 7e-3h-1.1v1.42h-0.905v-4.873h2.005q0.6335 0 1.1 0.2088 0.4734 0.2088 0.724 0.5987t0.2506 0.9259q0 0.55-0.2715 0.9468-0.2645 0.3968-0.7658 0.5917l1.121 1.601zm-0.0209-3.14q0-0.4664-0.3063-0.717t-0.898-0.2506h-1.058v1.942h1.058q0.5917 0 0.898-0.2506 0.3063-0.2576 0.3063-0.724z"/>
   <path d="m128.8 46.16v0.7588h-3.655v-4.873h3.557v0.7588h-2.652v1.267h2.353v0.7449h-2.353v1.344z"/>
   <path d="m134.2 42.04-2.123 4.873h-0.8911l-2.13-4.873h0.9816l1.622 3.759 1.636-3.759z"/>
  </g>
  <g aria-label="RUN">
   <path d="m53.47 161.9-0.9955-1.427q-0.06265 7e-3 -0.188 7e-3h-1.1v1.42h-0.905v-4.873h2.005q0.6335 0 1.1 0.2088 0.4734 0.2088 0.724 0.5987 0.2506 0.3898 0.2506 0.9259 0 0.55-0.2715 0.9468-0.2645 0.3968-0.7658 0.5917l1.121 1.601zm-0.02088-3.14q0-0.4664-0.3063-0.717t-0.8981-0.2506h-1.058v1.942h1.058q0.5917 0 0.8981-0.2506 0.3063-0.2576 0.3063-0.724z"/>
   <path d="m57.46 162q-1.009 0-1.573-0.5639-0.5639-0.5708-0.5639-1.629v-2.75h0.905v2.715q0 1.434 1.239 1.434 1.232 0 1.232-1.434v-2.715h0.8911v2.75q0 1.058-0.5639 1.629-0.5569 0.5639-1.566 0.5639z"/>
   <path d="m65.19 157v4.873h-0.7449l-2.687-3.3v3.3h-0.8981v-4.873h0.7449l2.687 3.3v-3.3z"/>
  </g>
 </g>
 <g fill="#fff" stroke="#fff" stroke-width=".1" aria-label="×2">
  <path d="m21.42 264.6 0.8321 0.8387-0.4521 0.4783-0.8452-0.8518-0.8452 0.8518-0.439-0.4783 0.8256-0.8387-0.8256-0.8387 0.439-0.4783 0.8452 0.8518 0.8452-0.8518 0.4521 0.4783z"/>
  <path d="m26.5 266.2v0.7207h-3.381v-0.57l1.822-1.73q0.308-0.2948 0.4128-0.5111 0.1114-0.2228 0.1114-0.439 0-0.3211-0.2162-0.4914t-0.6356-0.1704q-0.7011 0-1.075 0.4783l-0.5963-0.4587q0.2686-0.3604 0.7207-0.5569 0.4587-0.2031 1.022-0.2031 0.747 0 1.193 0.3538 0.4456 0.3538 0.4456 0.9632 0 0.3735-0.1573 0.7011t-0.6028 0.747l-1.225 1.166z"/>
 </g>
 <g fill="#eaeae3" aria-label="RST">
  <path d="m89.44 161.9-0.9955-1.427q-0.06265 7e-3 -0.188 7e-3h-1.1v1.42h-0.905v-4.873h2.005q0.6335 0 1.1 0.2088 0.4734 0.2088 0.724 0.5987 0.2506 0.3898 0.2506 0.9259 0 0.55-0.2715 0.9468-0.2645 0.3968-0.7658 0.5917l1.121 1.601zm-0.02089-3.14q0-0.4664-0.3063-0.717t-0.8981-0.2506h-1.058v1.942h1.058q0.5917 0 0.8981-0.2506 0.3063-0.2576 0.3063-0.724z"/>
  <path d="m92.85 162q-0.5639 0-1.093-0.1601-0.5221-0.1601-0.8284-0.4247l0.3133-0.7031q0.2994 0.2367 0.731 0.3898 0.4386 0.1462 0.8772 0.1462 0.543 0 0.8076-0.174 0.2715-0.174 0.2715-0.4595 0-0.2088-0.1532-0.3411-0.1462-0.1392-0.3759-0.2158t-0.6265-0.174q-0.5569-0.1323-0.905-0.2645-0.3411-0.1323-0.5917-0.4107-0.2437-0.2854-0.2437-0.7658 0-0.4038 0.2158-0.731 0.2228-0.3342 0.6614-0.5291 0.4455-0.1949 1.086-0.1949 0.4455 0 0.8772 0.1114 0.4316 0.1114 0.7449 0.3202l-0.2854 0.7031q-0.3202-0.188-0.6683-0.2854-0.3481-0.0975-0.6753-0.0975-0.536 0-0.8006 0.181-0.2576 0.181-0.2576 0.4804 0 0.2088 0.1462 0.3411 0.1532 0.1323 0.3829 0.2088 0.2297 0.0766 0.6265 0.174 0.543 0.1253 0.8911 0.2646 0.3481 0.1323 0.5917 0.4107 0.2506 0.2785 0.2506 0.7519 0 0.4038-0.2228 0.731-0.2158 0.3272-0.6614 0.5221-0.4455 0.1949-1.086 0.1949z"/>
  <path d="m96.64 157.8h-1.615v-0.7658h4.135v0.7658h-1.615v4.107h-0.905z"/>
 </g>
 <g fill="#eaeae3" aria-label="XTRNL">
  <path d="m66.76 203-1.323-1.852-1.309 1.852h-1.03l1.81-2.485-1.713-2.388h1.023l1.246 1.733 1.232-1.733h0.9816l-1.706 2.353 1.831 2.52z"/>
  <path d="m69.3 198.9h-1.615v-0.7658h4.135v0.7658h-1.615v4.107h-0.905z"/>
  <path d="m75.69 203-0.9955-1.427q-0.06265 7e-3 -0.188 7e-3h-1.1v1.42h-0.905v-4.873h2.005q0.6335 0 1.1 0.2088 0.4734 0.2088 0.724 0.5987 0.2506 0.3898 0.2506 0.9259 0 0.55-0.2715 0.9468-0.2645 0.3968-0.7658 0.5917l1.121 1.601zm-0.02089-3.14q0-0.4664-0.3063-0.717t-0.8981-0.2506h-1.058v1.942h1.058q0.5917 0 0.8981-0.2506 0.3063-0.2576 0.3063-0.724z"/>
  <path d="m81.92 198.1v4.873h-0.7449l-2.687-3.3v3.3h-0.8981v-4.873h0.7449l2.687 3.3v-3.3z"/>
  <path d="m83.23 198.1h0.905v4.107h2.548v0.7658h-3.453z"/>
 </g>
 <g fill="#fff" stroke="#fff" stroke-width=".1">
  <g aria-label="RUN">
   <path d="m53.75 314.9-0.937-1.343q-0.05897 7e-3 -0.1769 7e-3h-1.035v1.337h-0.8518v-4.587h1.887q0.5963 0 1.035 0.1966 0.4456 0.1966 0.6814 0.5635 0.2359 0.3669 0.2359 0.8714 0 0.5176-0.2555 0.8911-0.249 0.3735-0.7207 0.5569l1.055 1.507zm-0.01966-2.955q0-0.439-0.2883-0.6749t-0.8452-0.2359h-0.9959v1.828h0.9959q0.5569 0 0.8452-0.2359 0.2883-0.2424 0.2883-0.6814z"/>
   <path d="m57.51 315q-0.9501 0-1.481-0.5307-0.5307-0.5373-0.5307-1.533v-2.588h0.8518v2.555q0 1.35 1.166 1.35 1.16 0 1.16-1.35v-2.555h0.8387v2.588q0 0.996-0.5307 1.533-0.5242 0.5307-1.474 0.5307z"/>
   <path d="m64.79 310.3v4.587h-0.7011l-2.529-3.106v3.106h-0.8452v-4.587h0.7011l2.529 3.106v-3.106z"/>
  </g>
  <g aria-label="RESET">
   <path d="m85.17 314.9-0.937-1.343q-0.05897 7e-3 -0.1769 7e-3h-1.035v1.337h-0.8518v-4.587h1.887q0.5963 0 1.035 0.1966 0.4456 0.1966 0.6814 0.5635 0.2359 0.3669 0.2359 0.8714 0 0.5176-0.2555 0.8911-0.249 0.3735-0.7207 0.5569l1.055 1.507zm-0.01966-2.955q0-0.439-0.2883-0.6749t-0.8452-0.2359h-0.9959v1.828h0.9959q0.5569 0 0.8452-0.2359 0.2883-0.2424 0.2883-0.6814z"/>
   <path d="m90.4 314.2v0.7142h-3.44v-4.587h3.348v0.7142h-2.496v1.193h2.215v0.7011h-2.215v1.265z"/>
   <path d="m92.77 315q-0.5307 0-1.029-0.1507-0.4914-0.1507-0.7797-0.3997l0.2949-0.6618q0.2817 0.2228 0.688 0.3669 0.4128 0.1376 0.8256 0.1376 0.5111 0 0.7601-0.1638 0.2555-0.1638 0.2555-0.4324 0-0.1966-0.1442-0.3211-0.1376-0.131-0.3538-0.2031t-0.5897-0.1638q-0.5242-0.1245-0.8518-0.249-0.3211-0.1245-0.5569-0.3866-0.2293-0.2686-0.2293-0.7208 0-0.38 0.2031-0.688 0.2097-0.3145 0.6225-0.498 0.4193-0.1835 1.022-0.1835 0.4193 0 0.8256 0.1048 0.4062 0.1048 0.7011 0.3014l-0.2686 0.6618q-0.3014-0.1769-0.629-0.2686t-0.6356-0.0917q-0.5045 0-0.7535 0.1704-0.2424 0.1704-0.2424 0.4521 0 0.1966 0.1376 0.3211 0.1441 0.1245 0.3604 0.1966 0.2162 0.0721 0.5897 0.1638 0.5111 0.1179 0.8387 0.249 0.3276 0.1245 0.5569 0.3866 0.2359 0.2621 0.2359 0.7076 0 0.38-0.2097 0.688-0.2031 0.308-0.6225 0.4914-0.4193 0.1835-1.022 0.1835z"/>
   <path d="m98.91 314.2v0.7142h-3.44v-4.587h3.348v0.7142h-2.496v1.193h2.215v0.7011h-2.215v1.265z"/>
   <path d="m100.8 311h-1.52v-0.7207h3.892v0.7207h-1.52v3.866h-0.8518z"/>
  </g>
  <g aria-label="V/SPB">
   <path d="m121.4 310.3-1.998 4.587h-0.8387l-2.005-4.587h0.9239l1.527 3.538 1.54-3.538z"/>
   <path d="m123.1 309.4h0.7338l-2.162 6.172h-0.7338z"/>
   <path d="m125.5 315q-0.5307 0-1.029-0.1507-0.4914-0.1507-0.7797-0.3997l0.2948-0.6618q0.2818 0.2228 0.688 0.3669 0.4128 0.1376 0.8256 0.1376 0.5111 0 0.7601-0.1638 0.2555-0.1638 0.2555-0.4324 0-0.1966-0.1442-0.3211-0.1376-0.131-0.3538-0.2031t-0.5897-0.1638q-0.5242-0.1245-0.8518-0.249-0.3211-0.1245-0.5569-0.3866-0.2293-0.2686-0.2293-0.7207 0-0.38 0.2031-0.688 0.2097-0.3145 0.6225-0.498 0.4193-0.1835 1.022-0.1835 0.4193 0 0.8256 0.1048 0.4062 0.1048 0.7011 0.3014l-0.2686 0.6618q-0.3014-0.1769-0.629-0.2686t-0.6356-0.0917q-0.5045 0-0.7535 0.1704-0.2424 0.1704-0.2424 0.4521 0 0.1966 0.1376 0.3211 0.1442 0.1245 0.3604 0.1966t0.5897 0.1638q0.5111 0.1179 0.8387 0.249 0.3276 0.1245 0.557 0.3866 0.2359 0.2621 0.2359 0.7076 0 0.38-0.2097 0.688-0.2031 0.308-0.6225 0.4914t-1.022 0.1835z"/>
   <path d="m130.1 310.3q0.5962 0 1.035 0.1966 0.4456 0.1966 0.6814 0.5635t0.2359 0.8714q0 0.498-0.2359 0.8714-0.2359 0.3669-0.6814 0.5635-0.439 0.1966-1.035 0.1966h-1.035v1.324h-0.8518v-4.587zm-0.0393 2.542q0.557 0 0.8452-0.2359 0.2883-0.2359 0.2883-0.6749t-0.2883-0.6749q-0.2883-0.2359-0.8452-0.2359h-0.9959v1.822z"/>
   <path d="m136.1 312.5q0.38 0.1245 0.6028 0.4194 0.2228 0.2883 0.2228 0.7208 0 0.5962-0.4587 0.9239-0.4587 0.3211-1.337 0.3211h-2.28v-4.587h2.149q0.8125 0 1.251 0.3211 0.439 0.3145 0.439 0.8714 0 0.3407-0.1573 0.6028-0.1572 0.2621-0.4324 0.4062zm-2.398-1.533v1.265h1.206q0.4456 0 0.6814-0.1572 0.2424-0.1638 0.2424-0.4718 0-0.3145-0.2424-0.4718-0.2359-0.1638-0.6814-0.1638zm1.376 3.25q0.9894 0 0.9894-0.6618t-0.9894-0.6618h-1.376v1.324z"/>
  </g>
  <g aria-label="V/BPS">
   <path d="m17.25 310.3-1.998 4.587h-0.8387l-2.005-4.587h0.9239l1.527 3.538 1.54-3.538z"/>
   <path d="m18.92 309.4h0.7339l-2.162 6.172h-0.7339z"/>
   <path d="m23.25 312.5q0.38 0.1245 0.6028 0.4194 0.2228 0.2883 0.2228 0.7208 0 0.5962-0.4587 0.9239-0.4587 0.3211-1.337 0.3211h-2.28v-4.587h2.149q0.8125 0 1.251 0.3211 0.439 0.3145 0.439 0.8714 0 0.3407-0.1573 0.6028t-0.4324 0.4062zm-2.398-1.533v1.265h1.206q0.4456 0 0.6814-0.1572 0.2424-0.1638 0.2424-0.4718 0-0.3145-0.2424-0.4718-0.2359-0.1638-0.6814-0.1638zm1.376 3.25q0.9894 0 0.9894-0.6618t-0.9894-0.6618h-1.376v1.324z"/>
   <path d="m26.88 310.3q0.5963 0 1.035 0.1966 0.4456 0.1966 0.6814 0.5635t0.2359 0.8714q0 0.498-0.2359 0.8714-0.2359 0.3669-0.6814 0.5635-0.439 0.1966-1.035 0.1966h-1.035v1.324h-0.8518v-4.587zm-0.03931 2.542q0.5569 0 0.8452-0.2359t0.2883-0.6749-0.2883-0.6749q-0.2883-0.2359-0.8452-0.2359h-0.9959v1.822z"/>
   <path d="m31.18 315q-0.5307 0-1.029-0.1507-0.4914-0.1507-0.7797-0.3997l0.2949-0.6618q0.2817 0.2228 0.688 0.3669 0.4128 0.1376 0.8256 0.1376 0.5111 0 0.7601-0.1638 0.2555-0.1638 0.2555-0.4324 0-0.1966-0.1441-0.3211-0.1376-0.131-0.3538-0.2031t-0.5897-0.1638q-0.5242-0.1245-0.8518-0.249-0.3211-0.1245-0.5569-0.3866-0.2293-0.2686-0.2293-0.7207 0-0.38 0.2031-0.688 0.2097-0.3145 0.6225-0.498 0.4193-0.1835 1.022-0.1835 0.4193 0 0.8256 0.1048 0.4062 0.1048 0.7011 0.3014l-0.2686 0.6618q-0.3014-0.1769-0.629-0.2686t-0.6356-0.0917q-0.5045 0-0.7535 0.1704-0.2424 0.1704-0.2424 0.4521 0 0.1966 0.1376 0.3211 0.1441 0.1245 0.3604 0.1966 0.2162 0.0721 0.5897 0.1638 0.5111 0.1179 0.8387 0.249 0.3276 0.1245 0.5569 0.3866 0.2359 0.2621 0.2359 0.7076 0 0.38-0.2097 0.688-0.2031 0.308-0.6225 0.4914-0.4193 0.1835-1.022 0.1835z"/>
  </g>
  <g aria-label="CLK">
   <path d="m53.78 267q-0.6945 0-1.258-0.3014-0.5569-0.308-0.878-0.8452-0.3145-0.5373-0.3145-1.212t0.3211-1.212q0.3211-0.5373 0.878-0.8387 0.5635-0.308 1.258-0.308 0.5635 0 1.029 0.1966 0.4652 0.1966 0.7863 0.57l-0.5504 0.5176q-0.498-0.5373-1.225-0.5373-0.4718 0-0.8452 0.2097-0.3735 0.2031-0.5832 0.57t-0.2097 0.8321 0.2097 0.8321q0.2097 0.3669 0.5832 0.5766 0.3735 0.2031 0.8452 0.2031 0.7273 0 1.225-0.5438l0.5504 0.5242q-0.3211 0.3735-0.7928 0.57-0.4652 0.1966-1.029 0.1966z"/>
   <path d="m56.42 262.3h0.8518v3.866h2.398v0.7208h-3.25z"/>
   <path d="m61.93 265-0.7273 0.747v1.173h-0.8518v-4.587h0.8518v2.352l2.267-2.352h0.9566l-1.926 2.051 2.044 2.536h-0.9959z"/>
  </g>
  <g aria-label="PHASE">
   <path d="m83.16 262.3q0.5963 0 1.035 0.1966 0.4456 0.1966 0.6814 0.5635 0.2359 0.3669 0.2359 0.8714 0 0.498-0.2359 0.8714-0.2359 0.3669-0.6814 0.5635-0.439 0.1966-1.035 0.1966h-1.035v1.324h-0.8518v-4.587zm-0.03931 2.542q0.5569 0 0.8452-0.2359t0.2883-0.6749q0-0.439-0.2883-0.6749t-0.8452-0.2359h-0.9959v1.822z"/>
   <path d="m90.04 262.3v4.587h-0.8518v-1.966h-2.372v1.966h-0.8518v-4.587h0.8518v1.894h2.372v-1.894z"/>
   <path d="m94.25 265.8h-2.293l-0.4521 1.061h-0.878l2.064-4.587h0.8387l2.071 4.587h-0.8911zm-0.2817-0.6683-0.8649-2.005-0.8583 2.005z"/>
   <path d="m97.6 267q-0.5307 0-1.029-0.1507-0.4914-0.1507-0.7797-0.3997l0.2949-0.6618q0.2817 0.2228 0.688 0.3669 0.4128 0.1376 0.8256 0.1376 0.5111 0 0.7601-0.1638 0.2555-0.1638 0.2555-0.4324 0-0.1966-0.1441-0.3211-0.1376-0.131-0.3538-0.2031t-0.5897-0.1638q-0.5242-0.1245-0.8518-0.249-0.3211-0.1245-0.5569-0.3866-0.2293-0.2686-0.2293-0.7208 0-0.38 0.2031-0.688 0.2097-0.3145 0.6225-0.498 0.4193-0.1835 1.022-0.1835 0.4193 0 0.8256 0.1048 0.4062 0.1048 0.7011 0.3014l-0.2686 0.6618q-0.3014-0.1769-0.629-0.2686t-0.6356-0.0917q-0.5045 0-0.7535 0.1704-0.2424 0.1704-0.2424 0.4521 0 0.1966 0.1376 0.3211 0.1441 0.1245 0.3604 0.1966 0.2162 0.0721 0.5897 0.1638 0.5111 0.1179 0.8387 0.249 0.3276 0.1245 0.5569 0.3866 0.2359 0.2621 0.2359 0.7076 0 0.38-0.2097 0.688-0.2031 0.308-0.6225 0.4914-0.4193 0.1835-1.022 0.1835z"/>
   <path d="m103.7 266.2v0.7142h-3.44v-4.587h3.348v0.7142h-2.496v1.193h2.215v0.7011h-2.215v1.265z"/>
  </g>
  <g aria-label="×4">
   <path d="m125.2 264.6 0.8321 0.8387-0.4521 0.4783-0.8452-0.8518-0.8452 0.8518-0.439-0.4783 0.8256-0.8387-0.8256-0.8387 0.439-0.4783 0.8452 0.8518 0.8452-0.8518 0.4521 0.4783z"/>
   <path d="m131 265.9h-0.8125v1.042h-0.8256v-1.042h-2.516v-0.5897l2.261-2.955h0.9108l-2.129 2.824h1.5v-0.9239h0.7994v0.9239h0.8125z"/>
  </g>
 </g>
</svg>
