<?xml version="1.0" encoding="UTF-8" standalone="no"?>
<!-- Created with Inkscape (http://www.inkscape.org/) -->

<svg
   xmlns:dc="http://purl.org/dc/elements/1.1/"
   xmlns:cc="http://creativecommons.org/ns#"
   xmlns:rdf="http://www.w3.org/1999/02/22-rdf-syntax-ns#"
   xmlns:svg="http://www.w3.org/2000/svg"
   xmlns="http://www.w3.org/2000/svg"
   xmlns:sodipodi="http://sodipodi.sourceforge.net/DTD/sodipodi-0.dtd"
   xmlns:inkscape="http://www.inkscape.org/namespaces/inkscape"
   width="75"
   height="380"
   viewBox="0 0 75 380"
   version="1.1"
   id="svg8"
   inkscape:version="0.92.3 (2405546, 2018-03-11)"
   sodipodi:docname="Divider.svg">
  <defs
     id="defs2">
    <clipPath
       clipPathUnits="userSpaceOnUse"
       id="clipPath1763">
      <path
         inkscape:connector-curvature="0"
         id="path1765"
         d="M 0,196.45831 H 23.8125 V 296.99999 H 0 Z"
         style="opacity:1;vector-effect:none;fill:#28220b;fill-opacity:1;fill-rule:evenodd;stroke:none;stroke-width:0.48607069;stroke-linecap:butt;stroke-linejoin:round;stroke-miterlimit:4;stroke-dasharray:none;stroke-dashoffset:0;stroke-opacity:1;paint-order:normal" />
    </clipPath>
    <clipPath
       clipPathUnits="userSpaceOnUse"
       id="clipPath3293">
      <path
         style="opacity:1;vector-effect:none;fill:#28220b;fill-opacity:1;fill-rule:evenodd;stroke:none;stroke-width:0.48607066;stroke-linecap:butt;stroke-linejoin:round;stroke-miterlimit:4;stroke-dasharray:none;stroke-dashoffset:0;stroke-opacity:1;paint-order:normal"
         d="M -1.5460537e-7,196.45831 H 19.843751 V 296.99999 H -1.5460537e-7 Z"
         id="path3295"
         inkscape:connector-curvature="0" />
    </clipPath>
  </defs>
  <sodipodi:namedview
     id="base"
     pagecolor="#ffffff"
     bordercolor="#666666"
     borderopacity="1.0"
     inkscape:pageopacity="0.0"
     inkscape:pageshadow="2"
     inkscape:zoom="2.8284271"
     inkscape:cx="-31.091177"
     inkscape:cy="162.06328"
     inkscape:document-units="px"
     inkscape:current-layer="svg8"
     showgrid="false"
     units="px"
     inkscape:snap-bbox="true"
     inkscape:snap-page="true"
     inkscape:bbox-nodes="true"
     inkscape:snap-bbox-edge-midpoints="true"
     inkscape:window-width="2088"
     inkscape:window-height="1671"
     inkscape:window-x="784"
     inkscape:window-y="178"
     inkscape:window-maximized="0"
     showguides="true"
     inkscape:guide-bbox="true"
     inkscape:snap-global="false">
    <inkscape:grid
       type="xygrid"
       id="grid985" />
  </sodipodi:namedview>
  <metadata
     id="metadata5">
    <rdf:RDF>
      <cc:Work
         rdf:about="">
        <dc:format>image/svg+xml</dc:format>
        <dc:type
           rdf:resource="http://purl.org/dc/dcmitype/StillImage" />
        <dc:title />
      </cc:Work>
    </rdf:RDF>
  </metadata>
  <path
     inkscape:export-ydpi="192"
     inkscape:export-xdpi="192"
     inkscape:connector-curvature="0"
     id="path9764"
     d="M 0,0 H 75 V 380 H 0 Z"
     style="opacity:1;fill:#202223;fill-opacity:1;stroke:none;stroke-width:1.99999988;stroke-linecap:round;stroke-linejoin:round;stroke-miterlimit:4;stroke-dasharray:none;stroke-dashoffset:0;stroke-opacity:0.58802819"
     sodipodi:nodetypes="ccccc" />
  <path
     inkscape:export-ydpi="192"
     inkscape:export-xdpi="192"
     inkscape:connector-curvature="0"
     id="path9768"
     d="m 42.39648,353.14648 c -1.47909,1.66132 -4.45034,4.73431 -9.05664,5.60352 l -0.004,-0.0137 c -1.10325,0.32619 -2.1809,0.54505 -2.99609,0.61719 -0.36405,0.0322 -0.64618,0.0252 -0.86524,0.006 0.36165,-0.29969 1.07798,-0.7228 1.98243,-1.1543 1.91376,-0.91304 4.39078,-1.82527 5.84765,-3.06836 l -0.0117,-0.0137 c 0.019,-0.0189 0.0596,-0.0277 0.0781,-0.0469 l -1.27539,-1.35742 c -0.47423,0.40465 -1.74986,0.93284 -2.75976,1.42187 -0.86741,0.31698 -1.78876,0.63299 -2.83789,0.87305 -2.60646,0.59642 -5.53028,0.83833 -7.31055,0.47266 l -0.375,1.82617 c 1.49114,0.30628 3.30065,0.20811 5.14453,-0.0234 -0.24682,0.25743 -0.50604,0.51523 -0.58203,0.94141 -0.0959,0.53762 0.17128,1.13357 0.54687,1.48437 0.3885,0.36304 0.80124,0.44227 1.21875,0.49414 0.41752,0.0519 0.86726,0.0439 1.36329,0 0.89246,-0.079 1.93474,-0.29731 3.00781,-0.5957 v 0.004 c 0.90735,-0.16015 1.67836,-0.47557 2.47265,-0.76367 l 0.59375,1.21289 c 1.01516,-0.40119 2.38162,-0.77624 3.63672,-0.8711 1.25511,-0.0949 2.34443,0.11227 2.94922,0.61133 l 1.1875,-1.4375 c -1.13905,-0.93993 -2.64102,-1.11276 -4.09765,-1.02539 1.34364,-1.19486 2.54636,-2.50362 3.48828,-3.91602 0.01,-0.0111 0.0371,-0.032 0.0469,-0.043 l -0.006,-0.004 c 0.025,-0.0378 0.0652,-0.0696 0.0898,-0.10742 z m 3.43164,0.50196 c -1.73314,2.15165 -1.3884,4.67345 0.0625,6.07031 1.45091,1.39686 3.88423,1.80101 5.92774,0.49219 l -1.03711,-1.6211 c -1.31649,0.84318 -2.73905,0.52933 -3.55664,-0.25781 -0.551,-0.53047 -0.6638,-1.2861 -0.4375,-2.1543 0.51332,0.57234 1.0865,1.06405 1.76172,1.38868 1.19423,0.57416 2.59764,0.6971 4.10351,0.39257 l -0.38086,-1.88671 c -1.18912,0.24047 -2.1189,0.12789 -2.88867,-0.24219 -0.76976,-0.37009 -1.41993,-1.02056 -1.95508,-2.0293 z"
     style="color:#000000;font-style:normal;font-variant:normal;font-weight:normal;font-stretch:normal;font-size:medium;line-height:normal;font-family:sans-serif;font-variant-ligatures:normal;font-variant-position:normal;font-variant-caps:normal;font-variant-numeric:normal;font-variant-alternates:normal;font-feature-settings:normal;text-indent:0;text-align:start;text-decoration:none;text-decoration-line:none;text-decoration-style:solid;text-decoration-color:#000000;letter-spacing:normal;word-spacing:normal;text-transform:none;writing-mode:lr-tb;direction:ltr;text-orientation:mixed;dominant-baseline:auto;baseline-shift:baseline;text-anchor:start;white-space:normal;shape-padding:0;clip-rule:nonzero;display:inline;overflow:visible;visibility:visible;opacity:1;isolation:auto;mix-blend-mode:normal;color-interpolation:sRGB;color-interpolation-filters:linearRGB;solid-color:#000000;solid-opacity:1;vector-effect:none;fill:#eaeae3;fill-opacity:1;fill-rule:nonzero;stroke:none;stroke-width:1.86399996;stroke-linecap:butt;stroke-linejoin:miter;stroke-miterlimit:0;stroke-dasharray:none;stroke-dashoffset:0;stroke-opacity:1;color-rendering:auto;image-rendering:auto;shape-rendering:auto;text-rendering:auto;enable-background:accumulate" />
  <g
     aria-label="DIVIDER"
     style="font-style:normal;font-variant:normal;font-weight:normal;font-stretch:normal;font-size:11.94451904px;line-height:1.25;font-family:'Gotham Rounded';-inkscape-font-specification:'Gotham Rounded';letter-spacing:0px;word-spacing:0px;fill:#eaeae3;fill-opacity:1;stroke:none;stroke-width:0.94821429"
     id="text9772">
    <path
       d="m 12.511926,27.730876 c 0,0.513615 0.406113,0.919728 0.919728,0.919728 h 2.341125 c 2.627794,0 4.443361,-1.827511 4.443361,-4.180581 v -0.02389 c 0,-2.353071 -1.815567,-4.156693 -4.443361,-4.156693 h -2.341125 c -0.513615,0 -0.919728,0.406114 -0.919728,0.919728 z m 1.839456,-0.74056 v -5.040587 h 1.421397 c 1.50501,0 2.520294,1.039173 2.520294,2.520294 v 0.02389 c 0,1.48112 -1.015284,2.496404 -2.520294,2.496404 z"
       style="font-style:normal;font-variant:normal;font-weight:normal;font-stretch:normal;font-family:'Gotham Rounded';-inkscape-font-specification:'Gotham Rounded';text-align:center;text-anchor:middle;fill:#eaeae3;fill-opacity:1;stroke-width:0.94821429"
       id="path1083" />
    <path
       d="m 21.927193,27.802543 c 0,0.513615 0.406113,0.919728 0.919728,0.919728 0.513614,0 0.919728,-0.406113 0.919728,-0.919728 v -6.665041 c 0,-0.513615 -0.406114,-0.919728 -0.919728,-0.919728 -0.513615,0 -0.919728,0.406113 -0.919728,0.919728 z"
       style="font-style:normal;font-variant:normal;font-weight:normal;font-stretch:normal;font-family:'Gotham Rounded';-inkscape-font-specification:'Gotham Rounded';text-align:center;text-anchor:middle;fill:#eaeae3;fill-opacity:1;stroke-width:0.94821429"
       id="path1085" />
    <path
       d="m 29.128991,28.781994 h 0.119445 c 0.50167,0 0.848061,-0.274724 1.039173,-0.728616 l 2.735295,-6.545596 c 0.04778,-0.107501 0.09556,-0.26278 0.09556,-0.406114 0,-0.50167 -0.406114,-0.883894 -0.907783,-0.883894 -0.441948,0 -0.76445,0.286668 -0.883895,0.585281 l -2.11418,5.47059 -2.090291,-5.410867 c -0.143334,-0.37028 -0.453891,-0.645004 -0.931672,-0.645004 -0.513614,0 -0.919728,0.394169 -0.919728,0.907783 0,0.155279 0.04778,0.298613 0.107501,0.441947 l 2.711406,6.485874 c 0.191112,0.453892 0.537503,0.728616 1.039173,0.728616 z"
       style="font-style:normal;font-variant:normal;font-weight:normal;font-stretch:normal;font-family:'Gotham Rounded';-inkscape-font-specification:'Gotham Rounded';text-align:center;text-anchor:middle;fill:#eaeae3;fill-opacity:1;stroke-width:0.94821429"
       id="path1087" />
    <path
       d="m 34.618244,27.802543 c 0,0.513615 0.406114,0.919728 0.919728,0.919728 0.513614,0 0.919728,-0.406113 0.919728,-0.919728 v -6.665041 c 0,-0.513615 -0.406114,-0.919728 -0.919728,-0.919728 -0.513614,0 -0.919728,0.406113 -0.919728,0.919728 z"
       style="font-style:normal;font-variant:normal;font-weight:normal;font-stretch:normal;font-family:'Gotham Rounded';-inkscape-font-specification:'Gotham Rounded';text-align:center;text-anchor:middle;fill:#eaeae3;fill-opacity:1;stroke-width:0.94821429"
       id="path1089" />
    <path
       d="m 38.547246,27.730876 c 0,0.513615 0.406114,0.919728 0.919728,0.919728 H 41.8081 c 2.627794,0 4.443361,-1.827511 4.443361,-4.180581 v -0.02389 c 0,-2.353071 -1.815567,-4.156693 -4.443361,-4.156693 h -2.341126 c -0.513614,0 -0.919728,0.406114 -0.919728,0.919728 z m 1.839456,-0.74056 V 21.949729 H 41.8081 c 1.505009,0 2.520293,1.039173 2.520293,2.520294 v 0.02389 c 0,1.48112 -1.015284,2.496404 -2.520293,2.496404 z"
       style="font-style:normal;font-variant:normal;font-weight:normal;font-stretch:normal;font-family:'Gotham Rounded';-inkscape-font-specification:'Gotham Rounded';text-align:center;text-anchor:middle;fill:#eaeae3;fill-opacity:1;stroke-width:0.94821429"
       id="path1091" />
    <path
       d="m 48.798627,28.650604 h 4.694196 c 0.453892,0 0.824172,-0.358335 0.824172,-0.812227 0,-0.453892 -0.37028,-0.824172 -0.824172,-0.824172 h -3.786412 v -1.755844 h 3.189186 c 0.453892,0 0.824172,-0.358336 0.824172,-0.812227 0,-0.453892 -0.37028,-0.824172 -0.824172,-0.824172 H 49.706411 V 21.92584 h 3.72669 c 0.453892,0 0.824172,-0.358336 0.824172,-0.812227 0,-0.453892 -0.37028,-0.824172 -0.824172,-0.824172 h -4.634474 c -0.513614,0 -0.919728,0.406114 -0.919728,0.919728 v 6.521707 c 0,0.513615 0.406114,0.919728 0.919728,0.919728 z"
       style="font-style:normal;font-variant:normal;font-weight:normal;font-stretch:normal;font-family:'Gotham Rounded';-inkscape-font-specification:'Gotham Rounded';text-align:center;text-anchor:middle;fill:#eaeae3;fill-opacity:1;stroke-width:0.94821429"
       id="path1093" />
    <path
       d="m 55.880795,27.802543 c 0,0.513615 0.406114,0.919728 0.919728,0.919728 0.513615,0 0.919728,-0.406113 0.919728,-0.919728 v -1.827511 h 1.469176 l 1.791678,2.269459 c 0.215001,0.274724 0.489725,0.47778 0.907783,0.47778 0.441948,0 0.87195,-0.334446 0.87195,-0.84806 0,-0.286669 -0.119445,-0.477781 -0.298613,-0.704727 l -1.278063,-1.552788 c 1.015284,-0.418058 1.672232,-1.230285 1.672232,-2.544182 v -0.02389 c 0,-0.788338 -0.250834,-1.445287 -0.716671,-1.911123 -0.549448,-0.549448 -1.373619,-0.848061 -2.436682,-0.848061 h -2.902518 c -0.513614,0 -0.919728,0.406114 -0.919728,0.919728 z m 1.839456,-3.451966 v -2.400848 h 1.827512 c 0.895839,0 1.445287,0.406114 1.445287,1.194452 v 0.02389 c 0,0.704727 -0.513615,1.182507 -1.409454,1.182507 z"
       style="font-style:normal;font-variant:normal;font-weight:normal;font-stretch:normal;font-family:'Gotham Rounded';-inkscape-font-specification:'Gotham Rounded';text-align:center;text-anchor:middle;fill:#eaeae3;fill-opacity:1;stroke-width:0.94821429"
       id="path1095" />
  </g>
  <rect
     style="opacity:1;fill:#000000;fill-opacity:0.37647059;stroke:none;stroke-width:1.24348032;stroke-linecap:round;stroke-linejoin:round;stroke-miterlimit:4;stroke-dasharray:none;stroke-dashoffset:0;stroke-opacity:1"
     id="rect10085"
     width="19"
     height="9.0000944"
     x="13"
     y="3.0047913"
     rx="4.5000472"
     ry="4.5000472" />
  <rect
     style="opacity:1;fill:#000000;fill-opacity:0.37647059;stroke:none;stroke-width:1.24348032;stroke-linecap:round;stroke-linejoin:round;stroke-miterlimit:4;stroke-dasharray:none;stroke-dashoffset:0;stroke-opacity:1"
     id="rect10129"
     width="19"
     height="9.0000944"
     x="13"
     y="368.00476"
     rx="4.5000472"
     ry="4.5000472" />
  <rect
     style="opacity:1;fill:#000000;fill-opacity:0.37647059;stroke:none;stroke-width:1.24348032;stroke-linecap:round;stroke-linejoin:round;stroke-miterlimit:4;stroke-dasharray:none;stroke-dashoffset:0;stroke-opacity:1"
     id="rect10063"
     width="19"
     height="9.0000944"
     x="43"
     y="368.00476"
     rx="4.5000472"
     ry="4.5000472" />
  <rect
     inkscape:export-ydpi="192"
     inkscape:export-xdpi="192"
     ry="2.6516504"
     rx="2.6516504"
     y="304.73596"
     x="5.6551514"
     height="43.215649"
     width="29.076094"
     id="rect9780"
     style="opacity:1;fill:#585a4e;fill-opacity:1;stroke:none;stroke-width:0.54100001;stroke-linecap:round;stroke-linejoin:round;stroke-miterlimit:0;stroke-dasharray:none;stroke-dashoffset:0;stroke-opacity:1" />
  <g
     aria-label="CLK"
     style="font-style:normal;font-variant:normal;font-weight:300;font-stretch:normal;font-size:6.55224657px;line-height:1.25;font-family:'Gotham Rounded';-inkscape-font-specification:'Gotham Rounded Light';letter-spacing:0px;word-spacing:0px;fill:#ffffff;fill-opacity:1;stroke:#ffffff;stroke-width:0.10001242;stroke-miterlimit:4;stroke-dasharray:none;stroke-opacity:1"
     id="text9784">
    <path
       d="m 15.853545,314.97182 c 0.740404,0 1.231822,-0.23589 1.664271,-0.61592 0.07207,-0.0655 0.131045,-0.1638 0.131045,-0.28829 0,-0.20312 -0.176911,-0.37348 -0.380031,-0.37348 -0.09828,0 -0.183463,0.0393 -0.242433,0.0917 -0.334164,0.28175 -0.661777,0.439 -1.146643,0.439 -0.878001,0 -1.513569,-0.7273 -1.513569,-1.62496 v -0.0131 c 0,-0.89766 0.64212,-1.61841 1.513569,-1.61841 0.439001,0 0.779717,0.15726 1.094225,0.41279 0.05242,0.0393 0.131045,0.0786 0.242433,0.0786 0.222777,0 0.399687,-0.17036 0.399687,-0.39313 0,-0.14415 -0.07207,-0.25554 -0.157254,-0.32106 -0.399687,-0.30796 -0.864896,-0.51763 -1.572539,-0.51763 -1.389076,0 -2.365361,1.06802 -2.365361,2.37191 v 0.0131 c 0,1.317 0.995942,2.35881 2.3326,2.35881 z"
       style="font-style:normal;font-variant:normal;font-weight:300;font-stretch:normal;font-family:'Gotham Rounded';-inkscape-font-specification:'Gotham Rounded Light';text-align:center;text-anchor:middle;fill:#ffffff;fill-opacity:1;stroke:#ffffff;stroke-width:0.10001242;stroke-miterlimit:4;stroke-dasharray:none;stroke-opacity:1"
       id="path1076" />
    <path
       d="m 18.561466,314.48695 c 0,0.22933 0.17691,0.40624 0.406239,0.40624 h 2.476749 c 0.20312,0 0.366926,-0.16381 0.366926,-0.36693 0,-0.20312 -0.163806,-0.36692 -0.366926,-0.36692 h -2.077062 v -3.4858 c 0,-0.22277 -0.176911,-0.39969 -0.399687,-0.39969 -0.229329,0 -0.406239,0.17692 -0.406239,0.39969 z"
       style="font-style:normal;font-variant:normal;font-weight:300;font-stretch:normal;font-family:'Gotham Rounded';-inkscape-font-specification:'Gotham Rounded Light';text-align:center;text-anchor:middle;fill:#ffffff;fill-opacity:1;stroke:#ffffff;stroke-width:0.10001242;stroke-miterlimit:4;stroke-dasharray:none;stroke-opacity:1"
       id="path1078" />
    <path
       d="m 22.618228,314.52626 c 0,0.22278 0.176911,0.39969 0.406239,0.39969 0.222777,0 0.399687,-0.17691 0.399687,-0.39969 v -0.95007 l 0.746956,-0.72075 1.474256,1.88049 c 0.08518,0.11139 0.183463,0.19002 0.340717,0.19002 0.229328,0 0.406239,-0.17036 0.406239,-0.39314 0,-0.12449 -0.04587,-0.20311 -0.111388,-0.28829 l -1.54633,-1.91981 1.428389,-1.37597 c 0.09173,-0.0852 0.14415,-0.17691 0.14415,-0.30141 0,-0.19656 -0.150702,-0.37348 -0.373478,-0.37348 -0.14415,0 -0.242433,0.0524 -0.334165,0.15071 l -2.175346,2.18845 v -1.93947 c 0,-0.22277 -0.17691,-0.39969 -0.399687,-0.39969 -0.229328,0 -0.406239,0.17692 -0.406239,0.39969 z"
       style="font-style:normal;font-variant:normal;font-weight:300;font-stretch:normal;font-family:'Gotham Rounded';-inkscape-font-specification:'Gotham Rounded Light';text-align:center;text-anchor:middle;fill:#ffffff;fill-opacity:1;stroke:#ffffff;stroke-width:0.10001242;stroke-miterlimit:4;stroke-dasharray:none;stroke-opacity:1"
       id="path1080" />
  </g>
  <rect
     inkscape:export-ydpi="192"
     inkscape:export-xdpi="192"
     style="opacity:1;fill:#585a4e;fill-opacity:1;stroke:none;stroke-width:0.54100001;stroke-linecap:round;stroke-linejoin:round;stroke-miterlimit:0;stroke-dasharray:none;stroke-dashoffset:0;stroke-opacity:1"
     id="rect9786"
     width="29.076094"
     height="43.215649"
     x="40.241425"
     y="304.73596"
     rx="2.6516504"
     ry="2.6516504" />
  <g
     aria-label="PHASE"
     style="font-style:normal;font-variant:normal;font-weight:300;font-stretch:normal;font-size:6.55224657px;line-height:1.25;font-family:'Gotham Rounded';-inkscape-font-specification:'Gotham Rounded Light';letter-spacing:0px;word-spacing:0px;fill:#ffffff;fill-opacity:1;stroke:#ffffff;stroke-width:0.10001242;stroke-miterlimit:4;stroke-dasharray:none;stroke-opacity:1"
     id="text9790">
    <path
       d="m 43.952545,314.52626 c 0,0.22278 0.176911,0.39969 0.406239,0.39969 0.222777,0 0.399687,-0.17691 0.399687,-0.39969 v -1.10733 h 0.910762 c 1.009046,0 1.83463,-0.53728 1.83463,-1.56598 v -0.0131 c 0,-0.92387 -0.66833,-1.53322 -1.742898,-1.53322 h -1.402181 c -0.229328,0 -0.406239,0.17691 -0.406239,0.40624 z m 0.805926,-1.83463 v -1.65116 h 0.936971 c 0.602807,0 0.98939,0.28174 0.98939,0.81903 v 0.0131 c 0,0.47832 -0.380031,0.81903 -0.98939,0.81903 z"
       style="font-style:normal;font-variant:normal;font-weight:300;font-stretch:normal;font-family:'Gotham Rounded';-inkscape-font-specification:'Gotham Rounded Light';text-align:center;text-anchor:middle;fill:#ffffff;fill-opacity:1;stroke:#ffffff;stroke-width:0.10001242;stroke-miterlimit:4;stroke-dasharray:none;stroke-opacity:1"
       id="path1065" />
    <path
       d="m 48.329241,314.52626 c 0,0.22278 0.176911,0.39969 0.406239,0.39969 0.222777,0 0.399687,-0.17691 0.399687,-0.39969 v -1.56598 h 2.188451 v 1.56598 c 0,0.22278 0.17691,0.39969 0.399687,0.39969 0.229328,0 0.406239,-0.17691 0.406239,-0.39969 v -3.85272 c 0,-0.22277 -0.176911,-0.39969 -0.406239,-0.39969 -0.222777,0 -0.399687,0.17692 -0.399687,0.39969 v 1.53978 h -2.188451 v -1.53978 c 0,-0.22277 -0.17691,-0.39969 -0.399687,-0.39969 -0.229328,0 -0.406239,0.17692 -0.406239,0.39969 z"
       style="font-style:normal;font-variant:normal;font-weight:300;font-stretch:normal;font-family:'Gotham Rounded';-inkscape-font-specification:'Gotham Rounded Light';text-align:center;text-anchor:middle;fill:#ffffff;fill-opacity:1;stroke:#ffffff;stroke-width:0.10001242;stroke-miterlimit:4;stroke-dasharray:none;stroke-opacity:1"
       id="path1067" />
    <path
       d="m 52.992905,314.55247 c 0,0.20967 0.163806,0.37348 0.373478,0.37348 0.170358,0 0.307956,-0.0917 0.373478,-0.25554 l 0.386583,-0.88455 h 2.227763 l 0.373479,0.85834 c 0.07207,0.17036 0.203119,0.28175 0.393134,0.28175 0.216224,0 0.380031,-0.17036 0.380031,-0.38658 0,-0.0524 -0.0131,-0.11139 -0.04587,-0.17036 l -1.703584,-3.8003 c -0.09173,-0.20312 -0.248986,-0.32762 -0.478314,-0.32762 h -0.03931 c -0.229328,0 -0.393134,0.1245 -0.484866,0.32762 l -1.703584,3.8003 c -0.03276,0.0655 -0.05242,0.12449 -0.05242,0.18346 z m 1.441494,-1.48081 0.805927,-1.85428 0.805926,1.85428 z"
       style="font-style:normal;font-variant:normal;font-weight:300;font-stretch:normal;font-family:'Gotham Rounded';-inkscape-font-specification:'Gotham Rounded Light';text-align:center;text-anchor:middle;fill:#ffffff;fill-opacity:1;stroke:#ffffff;stroke-width:0.10001242;stroke-miterlimit:4;stroke-dasharray:none;stroke-opacity:1"
       id="path1069" />
    <path
       d="m 59.929277,314.95871 c 0.96318,0 1.638061,-0.51107 1.638061,-1.36942 v -0.0131 c 0,-0.76006 -0.49797,-1.10733 -1.467703,-1.34321 -0.884553,-0.20968 -1.094225,-0.36693 -1.094225,-0.72075 v -0.0131 c 0,-0.3014 0.275194,-0.54383 0.746956,-0.54383 0.360374,0 0.70109,0.11794 1.054912,0.34727 0.06552,0.0393 0.131045,0.059 0.209672,0.059 0.209671,0 0.38003,-0.16381 0.38003,-0.37348 0,-0.15725 -0.08518,-0.26864 -0.176911,-0.32106 -0.412791,-0.27519 -0.878001,-0.4259 -1.454599,-0.4259 -0.910762,0 -1.565986,0.54384 -1.565986,1.33011 v 0.0131 c 0,0.84524 0.550388,1.13354 1.526673,1.36942 0.851792,0.19657 1.035255,0.37348 1.035255,0.70109 v 0.0131 c 0,0.34072 -0.314508,0.5766 -0.812479,0.5766 -0.49797,0 -0.90421,-0.17036 -1.28424,-0.47177 -0.05242,-0.0393 -0.124493,-0.0721 -0.235881,-0.0721 -0.209672,0 -0.38003,0.16381 -0.38003,0.37348 0,0.13104 0.06552,0.24243 0.157254,0.30795 0.511075,0.38003 1.100777,0.5766 1.723241,0.5766 z"
       style="font-style:normal;font-variant:normal;font-weight:300;font-stretch:normal;font-family:'Gotham Rounded';-inkscape-font-specification:'Gotham Rounded Light';text-align:center;text-anchor:middle;fill:#ffffff;fill-opacity:1;stroke:#ffffff;stroke-width:0.10001242;stroke-miterlimit:4;stroke-dasharray:none;stroke-opacity:1"
       id="path1071" />
    <path
       d="m 62.92775,314.89319 h 2.699526 c 0.196567,0 0.360373,-0.15726 0.360373,-0.36038 0,-0.19656 -0.163806,-0.36037 -0.360373,-0.36037 h -2.299839 v -1.23182 h 1.972226 c 0.196568,0 0.360374,-0.15725 0.360374,-0.35382 0,-0.20312 -0.163806,-0.36693 -0.360374,-0.36693 h -1.972226 v -1.19251 h 2.267077 c 0.196568,0 0.360374,-0.15725 0.360374,-0.36037 0,-0.19657 -0.163806,-0.36037 -0.360374,-0.36037 H 62.92775 c -0.229329,0 -0.406239,0.17691 -0.406239,0.40624 v 3.77409 c 0,0.22933 0.17691,0.40624 0.406239,0.40624 z"
       style="font-style:normal;font-variant:normal;font-weight:300;font-stretch:normal;font-family:'Gotham Rounded';-inkscape-font-specification:'Gotham Rounded Light';text-align:center;text-anchor:middle;fill:#ffffff;fill-opacity:1;stroke:#ffffff;stroke-width:0.10001242;stroke-miterlimit:4;stroke-dasharray:none;stroke-opacity:1"
       id="path1073" />
  </g>
  <g
     aria-label="PHASE"
     style="font-style:normal;font-variant:normal;font-weight:300;font-stretch:normal;font-size:6.96164751px;line-height:1.25;font-family:'Gotham Rounded';-inkscape-font-specification:'Gotham Rounded Light';letter-spacing:0px;word-spacing:0px;fill:#eaeae3;fill-opacity:1;stroke:none;stroke-width:1.00001252"
     id="text9794">
    <path
       d="m 8.6344139,269.52513 c 0,0.23669 0.1879645,0.42466 0.4316221,0.42466 0.236696,0 0.4246605,-0.18797 0.4246605,-0.42466 v -1.17652 h 0.9676695 c 1.072093,0 1.949261,-0.57086 1.949261,-1.66384 v -0.0139 c 0,-0.98159 -0.710088,-1.62903 -1.851798,-1.62903 H 9.066036 c -0.2436576,0 -0.4316221,0.18797 -0.4316221,0.43163 z m 0.8562826,-1.94927 v -1.75433 h 0.9955155 c 0.640472,0 1.051209,0.29935 1.051209,0.87021 v 0.0139 c 0,0.5082 -0.403776,0.8702 -1.051209,0.8702 z"
       style="font-style:normal;font-variant:normal;font-weight:300;font-stretch:normal;font-family:'Gotham Rounded';-inkscape-font-specification:'Gotham Rounded Light';text-align:center;text-anchor:middle;fill:#eaeae3;fill-opacity:1;stroke-width:1.00001252"
       id="path1054" />
    <path
       d="m 13.284577,269.52513 c 0,0.23669 0.187965,0.42466 0.431622,0.42466 0.236696,0 0.424661,-0.18797 0.424661,-0.42466 v -1.66384 h 2.32519 v 1.66384 c 0,0.23669 0.187964,0.42466 0.42466,0.42466 0.243658,0 0.431623,-0.18797 0.431623,-0.42466 v -4.09345 c 0,-0.2367 -0.187965,-0.42466 -0.431623,-0.42466 -0.236696,0 -0.42466,0.18796 -0.42466,0.42466 v 1.63598 h -2.32519 v -1.63598 c 0,-0.2367 -0.187965,-0.42466 -0.424661,-0.42466 -0.243657,0 -0.431622,0.18796 -0.431622,0.42466 z"
       style="font-style:normal;font-variant:normal;font-weight:300;font-stretch:normal;font-family:'Gotham Rounded';-inkscape-font-specification:'Gotham Rounded Light';text-align:center;text-anchor:middle;fill:#eaeae3;fill-opacity:1;stroke-width:1.00001252"
       id="path1056" />
    <path
       d="m 18.239638,269.55297 c 0,0.22278 0.174041,0.39682 0.396814,0.39682 0.181003,0 0.327198,-0.0975 0.396814,-0.27151 l 0.410737,-0.93982 h 2.36696 l 0.396814,0.91198 c 0.07658,0.181 0.215811,0.29935 0.417699,0.29935 0.229735,0 0.403776,-0.18101 0.403776,-0.41074 0,-0.0557 -0.01392,-0.11835 -0.04873,-0.181 l -1.810028,-4.03776 c -0.09746,-0.21581 -0.264543,-0.34808 -0.5082,-0.34808 h -0.04177 c -0.243658,0 -0.417699,0.13227 -0.515162,0.34808 l -1.810029,4.03776 c -0.03481,0.0696 -0.05569,0.13227 -0.05569,0.19492 z m 1.531563,-1.57333 0.856282,-1.97015 0.856283,1.97015 z"
       style="font-style:normal;font-variant:normal;font-weight:300;font-stretch:normal;font-family:'Gotham Rounded';-inkscape-font-specification:'Gotham Rounded Light';text-align:center;text-anchor:middle;fill:#eaeae3;fill-opacity:1;stroke-width:1.00001252"
       id="path1058" />
    <path
       d="m 25.609412,269.98459 c 1.023363,0 1.740412,-0.543 1.740412,-1.45498 v -0.0139 c 0,-0.80755 -0.529085,-1.17652 -1.559409,-1.42714 -0.939822,-0.22277 -1.162595,-0.38985 -1.162595,-0.76578 v -0.0139 c 0,-0.32023 0.292389,-0.57781 0.793628,-0.57781 0.382891,0 0.744896,0.12531 1.120825,0.36897 0.06962,0.0418 0.139233,0.0626 0.222773,0.0626 0.222773,0 0.403775,-0.17404 0.403775,-0.39681 0,-0.16708 -0.0905,-0.28543 -0.187964,-0.34112 -0.438584,-0.29239 -0.932861,-0.45251 -1.545486,-0.45251 -0.967669,0 -1.663834,0.57782 -1.663834,1.41321 v 0.0139 c 0,0.89805 0.584779,1.20436 1.622064,1.45498 0.905014,0.20885 1.099941,0.39681 1.099941,0.7449 v 0.0139 c 0,0.36201 -0.334159,0.61262 -0.863245,0.61262 -0.529085,0 -0.960707,-0.181 -1.364483,-0.50123 -0.05569,-0.0418 -0.132271,-0.0766 -0.250619,-0.0766 -0.222773,0 -0.403775,0.17404 -0.403775,0.39681 0,0.13924 0.06962,0.25758 0.167079,0.3272 0.543009,0.40378 1.169557,0.61262 1.830913,0.61262 z"
       style="font-style:normal;font-variant:normal;font-weight:300;font-stretch:normal;font-family:'Gotham Rounded';-inkscape-font-specification:'Gotham Rounded Light';text-align:center;text-anchor:middle;fill:#eaeae3;fill-opacity:1;stroke-width:1.00001252"
       id="path1060" />
    <path
       d="m 28.795236,269.91498 h 2.868199 c 0.20885,0 0.382891,-0.16708 0.382891,-0.38289 0,-0.20885 -0.174041,-0.38289 -0.382891,-0.38289 h -2.443538 v -1.30879 h 2.095456 c 0.208849,0 0.38289,-0.16708 0.38289,-0.37593 0,-0.21581 -0.174041,-0.38985 -0.38289,-0.38985 h -2.095456 v -1.26702 h 2.40873 c 0.208849,0 0.382891,-0.16708 0.382891,-0.38289 0,-0.20885 -0.174042,-0.3829 -0.382891,-0.3829 h -2.833391 c -0.243657,0 -0.431622,0.18797 -0.431622,0.43163 v 4.00991 c 0,0.24365 0.187965,0.43162 0.431622,0.43162 z"
       style="font-style:normal;font-variant:normal;font-weight:300;font-stretch:normal;font-family:'Gotham Rounded';-inkscape-font-specification:'Gotham Rounded Light';text-align:center;text-anchor:middle;fill:#eaeae3;fill-opacity:1;stroke-width:1.00001252"
       id="path1062" />
  </g>
  <g
     aria-label="RESET"
     style="font-style:normal;font-variant:normal;font-weight:300;font-stretch:normal;font-size:6.96164751px;line-height:1.25;font-family:'Gotham Rounded';-inkscape-font-specification:'Gotham Rounded Light';letter-spacing:0px;word-spacing:0px;fill:#eaeae3;fill-opacity:1;stroke:none;stroke-width:1.00001252"
     id="text9798">
    <path
       d="m 43.783409,269.52513 c 0,0.23669 0.187964,0.42466 0.431622,0.42466 0.236696,0 0.424661,-0.18797 0.424661,-0.42466 v -1.30879 h 1.079055 l 1.18348,1.51067 c 0.09746,0.13227 0.222773,0.22278 0.417699,0.22278 0.208849,0 0.410737,-0.16012 0.410737,-0.39682 0,-0.13227 -0.05569,-0.22277 -0.139233,-0.3272 l -0.932861,-1.17651 c 0.654395,-0.20189 1.106902,-0.67528 1.106902,-1.45499 v -0.0139 c 0,-0.42466 -0.146194,-0.78667 -0.403775,-1.05121 -0.313274,-0.30631 -0.793628,-0.48732 -1.406253,-0.48732 h -1.740412 c -0.243658,0 -0.431622,0.18797 -0.431622,0.43163 z m 0.856283,-2.06761 v -1.63599 h 1.246135 c 0.633509,0 1.009438,0.28543 1.009438,0.80755 v 0.0139 c 0,0.49428 -0.389852,0.81452 -1.002477,0.81452 z"
       style="font-style:normal;font-variant:normal;font-weight:300;font-stretch:normal;font-family:'Gotham Rounded';-inkscape-font-specification:'Gotham Rounded Light';text-align:center;text-anchor:middle;fill:#eaeae3;fill-opacity:1;stroke-width:1.00001252"
       id="path1043" />
    <path
       d="m 49.245909,269.91498 h 2.868199 c 0.208849,0 0.382891,-0.16708 0.382891,-0.38289 0,-0.20885 -0.174042,-0.38289 -0.382891,-0.38289 H 49.67057 v -1.30879 h 2.095456 c 0.208849,0 0.38289,-0.16708 0.38289,-0.37593 0,-0.21581 -0.174041,-0.38985 -0.38289,-0.38985 H 49.67057 v -1.26702 h 2.40873 c 0.208849,0 0.38289,-0.16708 0.38289,-0.38289 0,-0.20885 -0.174041,-0.3829 -0.38289,-0.3829 h -2.833391 c -0.243657,0 -0.431622,0.18797 -0.431622,0.43163 v 4.00991 c 0,0.24365 0.187965,0.43162 0.431622,0.43162 z"
       style="font-style:normal;font-variant:normal;font-weight:300;font-stretch:normal;font-family:'Gotham Rounded';-inkscape-font-specification:'Gotham Rounded Light';text-align:center;text-anchor:middle;fill:#eaeae3;fill-opacity:1;stroke-width:1.00001252"
       id="path1045" />
    <path
       d="m 55.183651,269.98459 c 1.023362,0 1.740412,-0.543 1.740412,-1.45498 v -0.0139 c 0,-0.80755 -0.529085,-1.17652 -1.559409,-1.42714 -0.939823,-0.22277 -1.162595,-0.38985 -1.162595,-0.76578 v -0.0139 c 0,-0.32023 0.292389,-0.57781 0.793627,-0.57781 0.382891,0 0.744897,0.12531 1.120826,0.36897 0.06962,0.0418 0.139233,0.0626 0.222772,0.0626 0.222773,0 0.403776,-0.17404 0.403776,-0.39681 0,-0.16708 -0.0905,-0.28543 -0.187965,-0.34112 -0.438583,-0.29239 -0.93286,-0.45251 -1.545485,-0.45251 -0.967669,0 -1.663834,0.57782 -1.663834,1.41321 v 0.0139 c 0,0.89805 0.584778,1.20436 1.622064,1.45498 0.905014,0.20885 1.09994,0.39681 1.09994,0.7449 v 0.0139 c 0,0.36201 -0.334159,0.61262 -0.863244,0.61262 -0.529085,0 -0.960708,-0.181 -1.364483,-0.50123 -0.05569,-0.0418 -0.132271,-0.0766 -0.250619,-0.0766 -0.222773,0 -0.403776,0.17404 -0.403776,0.39681 0,0.13924 0.06962,0.25758 0.16708,0.3272 0.543008,0.40378 1.169556,0.61262 1.830913,0.61262 z"
       style="font-style:normal;font-variant:normal;font-weight:300;font-stretch:normal;font-family:'Gotham Rounded';-inkscape-font-specification:'Gotham Rounded Light';text-align:center;text-anchor:middle;fill:#eaeae3;fill-opacity:1;stroke-width:1.00001252"
       id="path1047" />
    <path
       d="m 58.369475,269.91498 h 2.868199 c 0.208849,0 0.38289,-0.16708 0.38289,-0.38289 0,-0.20885 -0.174041,-0.38289 -0.38289,-0.38289 h -2.443539 v -1.30879 h 2.095456 c 0.20885,0 0.382891,-0.16708 0.382891,-0.37593 0,-0.21581 -0.174041,-0.38985 -0.382891,-0.38985 h -2.095456 v -1.26702 h 2.40873 c 0.20885,0 0.382891,-0.16708 0.382891,-0.38289 0,-0.20885 -0.174041,-0.3829 -0.382891,-0.3829 h -2.83339 c -0.243658,0 -0.431622,0.18797 -0.431622,0.43163 v 4.00991 c 0,0.24365 0.187964,0.43162 0.431622,0.43162 z"
       style="font-style:normal;font-variant:normal;font-weight:300;font-stretch:normal;font-family:'Gotham Rounded';-inkscape-font-specification:'Gotham Rounded Light';text-align:center;text-anchor:middle;fill:#eaeae3;fill-opacity:1;stroke-width:1.00001252"
       id="path1049" />
    <path
       d="m 63.799015,269.52513 c 0,0.23669 0.194926,0.42466 0.431622,0.42466 0.236696,0 0.431623,-0.18797 0.431623,-0.42466 v -3.68968 h 1.190441 c 0.215811,0 0.389853,-0.181 0.389853,-0.39681 0,-0.21581 -0.174042,-0.39682 -0.389853,-0.39682 h -3.237166 c -0.222772,0 -0.396814,0.18101 -0.396814,0.39682 0,0.21581 0.174042,0.39681 0.396814,0.39681 h 1.18348 z"
       style="font-style:normal;font-variant:normal;font-weight:300;font-stretch:normal;font-family:'Gotham Rounded';-inkscape-font-specification:'Gotham Rounded Light';text-align:center;text-anchor:middle;fill:#eaeae3;fill-opacity:1;stroke-width:1.00001252"
       id="path1051" />
  </g>
  <g
     aria-label="SWING"
     style="font-style:normal;font-variant:normal;font-weight:300;font-stretch:normal;font-size:6.96164751px;line-height:1.25;font-family:'Gotham Rounded';-inkscape-font-specification:'Gotham Rounded Light';letter-spacing:0px;word-spacing:0px;fill:#eaeae3;fill-opacity:1;stroke:none;stroke-width:1.00001252"
     id="text9802">
    <path
       d="m 11.231268,185.98459 c 1.023362,0 1.740412,-0.543 1.740412,-1.45498 v -0.0139 c 0,-0.80755 -0.529085,-1.17652 -1.559409,-1.42714 -0.939822,-0.22277 -1.162595,-0.38985 -1.162595,-0.76578 v -0.0139 c 0,-0.32023 0.292389,-0.57781 0.793628,-0.57781 0.38289,0 0.744896,0.12531 1.120825,0.36897 0.06962,0.0418 0.139233,0.0627 0.222773,0.0627 0.222772,0 0.403775,-0.17404 0.403775,-0.39681 0,-0.16708 -0.0905,-0.28543 -0.187964,-0.34112 -0.438584,-0.29239 -0.932861,-0.45251 -1.545486,-0.45251 -0.967669,0 -1.6638338,0.57782 -1.6638338,1.41321 v 0.0139 c 0,0.89805 0.5847784,1.20436 1.6220638,1.45498 0.905014,0.20885 1.09994,0.39681 1.09994,0.7449 v 0.0139 c 0,0.36201 -0.334159,0.61262 -0.863244,0.61262 -0.529085,0 -0.960707,-0.181 -1.3644828,-0.50123 -0.055693,-0.0418 -0.1322713,-0.0766 -0.2506193,-0.0766 -0.2227728,0 -0.4037756,0.17404 -0.4037756,0.39681 0,0.13924 0.069616,0.25758 0.1670795,0.3272 0.5430085,0.40378 1.1695572,0.61262 1.8309132,0.61262 z"
       style="font-style:normal;font-variant:normal;font-weight:300;font-stretch:normal;font-family:'Gotham Rounded';-inkscape-font-specification:'Gotham Rounded Light';text-align:center;text-anchor:middle;fill:#eaeae3;fill-opacity:1;stroke-width:1.00001252"
       id="path1032" />
    <path
       d="m 15.004808,185.62955 c 0.08354,0.22277 0.236696,0.35504 0.445545,0.35504 h 0.08354 c 0.208849,0 0.368967,-0.13227 0.445545,-0.35504 l 1.086017,-3.18147 1.086017,3.18147 c 0.07658,0.22277 0.229735,0.35504 0.438584,0.35504 h 0.08354 c 0.208849,0 0.368967,-0.13923 0.445545,-0.35504 l 1.441061,-4.03776 c 0.02088,-0.0487 0.04177,-0.11834 0.04177,-0.17404 0,-0.22973 -0.194926,-0.41073 -0.42466,-0.41073 -0.20885,0 -0.355044,0.13227 -0.417699,0.30631 l -1.120825,3.35551 -1.099941,-3.33463 c -0.06265,-0.20188 -0.215811,-0.34112 -0.431622,-0.34112 h -0.06265 c -0.215811,0 -0.362005,0.13924 -0.431622,0.34112 l -1.09994,3.33463 -1.120825,-3.34855 c -0.05569,-0.181 -0.215812,-0.31327 -0.424661,-0.31327 -0.236696,0 -0.438584,0.181 -0.438584,0.4177 0,0.0557 0.01392,0.11834 0.03481,0.16707 z"
       style="font-style:normal;font-variant:normal;font-weight:300;font-stretch:normal;font-family:'Gotham Rounded';-inkscape-font-specification:'Gotham Rounded Light';text-align:center;text-anchor:middle;fill:#eaeae3;fill-opacity:1;stroke-width:1.00001252"
       id="path1034" />
    <path
       d="m 21.566921,185.52513 c 0,0.23669 0.187965,0.42466 0.431622,0.42466 0.236696,0 0.424661,-0.18797 0.424661,-0.42466 v -4.09345 c 0,-0.2367 -0.187965,-0.42466 -0.424661,-0.42466 -0.243657,0 -0.431622,0.18796 -0.431622,0.42466 z"
       style="font-style:normal;font-variant:normal;font-weight:300;font-stretch:normal;font-family:'Gotham Rounded';-inkscape-font-specification:'Gotham Rounded Light';text-align:center;text-anchor:middle;fill:#eaeae3;fill-opacity:1;stroke-width:1.00001252"
       id="path1036" />
    <path
       d="m 23.720899,185.53209 c 0,0.22973 0.187964,0.4177 0.42466,0.4177 0.229735,0 0.417699,-0.18797 0.417699,-0.4177 v -3.09097 l 2.506193,3.24412 c 0.118348,0.15316 0.243658,0.25758 0.445546,0.25758 h 0.03481 c 0.236696,0 0.417699,-0.18796 0.417699,-0.42466 v -4.09344 c 0,-0.22974 -0.187965,-0.4177 -0.424661,-0.4177 -0.229734,0 -0.417699,0.18796 -0.417699,0.4177 v 2.9935 l -2.436576,-3.15362 c -0.118348,-0.1462 -0.236696,-0.25062 -0.445546,-0.25062 h -0.0905 c -0.243658,0 -0.431622,0.19492 -0.431622,0.43162 z"
       style="font-style:normal;font-variant:normal;font-weight:300;font-stretch:normal;font-family:'Gotham Rounded';-inkscape-font-specification:'Gotham Rounded Light';text-align:center;text-anchor:middle;fill:#eaeae3;fill-opacity:1;stroke-width:1.00001252"
       id="path1038" />
    <path
       d="m 31.525341,185.99852 c 0.730973,0 1.315752,-0.25062 1.73345,-0.52909 0.201888,-0.12531 0.299351,-0.29935 0.299351,-0.54301 v -1.30182 c 0,-0.24366 -0.187964,-0.43163 -0.431622,-0.43163 h -1.357521 c -0.208849,0 -0.382891,0.16708 -0.382891,0.37593 0,0.20885 0.174042,0.36897 0.382891,0.36897 h 0.960707 v 0.91198 c -0.299351,0.22277 -0.717049,0.36896 -1.176518,0.36896 -0.995516,0 -1.656872,-0.73793 -1.656872,-1.74041 v -0.0139 c 0,-0.93286 0.682241,-1.71953 1.580294,-1.71953 0.529085,0 0.870206,0.15316 1.18348,0.38289 0.06962,0.0487 0.153156,0.0975 0.264542,0.0975 0.236696,0 0.424661,-0.19492 0.424661,-0.42466 0,-0.16708 -0.0905,-0.28542 -0.174041,-0.34808 -0.445546,-0.32023 -0.932861,-0.49428 -1.663834,-0.49428 -1.468908,0 -2.513155,1.15564 -2.513155,2.52012 v 0.0139 c 0,1.42018 1.002477,2.5062 2.527078,2.5062 z"
       style="font-style:normal;font-variant:normal;font-weight:300;font-stretch:normal;font-family:'Gotham Rounded';-inkscape-font-specification:'Gotham Rounded Light';text-align:center;text-anchor:middle;fill:#eaeae3;fill-opacity:1;stroke-width:1.00001252"
       id="path1040" />
  </g>
  <path
     inkscape:export-ydpi="192"
     inkscape:export-xdpi="192"
     inkscape:connector-curvature="0"
     id="path9804"
     d="M 26.51949,203.49999 H 40.13258"
     style="fill:none;stroke:#8a8a76;stroke-width:0.69999999;stroke-linecap:butt;stroke-linejoin:miter;stroke-miterlimit:4;stroke-dasharray:none;stroke-opacity:1"
     sodipodi:nodetypes="cc" />
  <g
     inkscape:export-ydpi="192"
     inkscape:export-xdpi="192"
     inkscape:transform-center-x="-2.8782142e-06"
     inkscape:transform-center-y="-1.5231395"
     style="stroke:#8a8a76;stroke-width:2.44869947;stroke-opacity:1"
     id="g9822"
     transform="matrix(0.40857815,0,0,0.40818205,24.22531,158.0072)">
    <path
       inkscape:transform-center-y="-8.1252193"
       sodipodi:nodetypes="cc"
       inkscape:connector-curvature="0"
       id="path9806"
       d="M 75.001018,111.02563 V 74.287913"
       style="fill:none;stroke:#8a8a76;stroke-width:1.71408963;stroke-linecap:butt;stroke-linejoin:miter;stroke-miterlimit:4;stroke-dasharray:none;stroke-opacity:1" />
    <path
       sodipodi:open="true"
       d="m 49.14441,136.9003 a 36.566761,36.592316 0 0 1 0,-51.749348 36.566761,36.592316 0 0 1 51.71321,10e-7 36.566761,36.592316 0 0 1 0,51.749347"
       sodipodi:end="0.78539816"
       sodipodi:start="2.3561945"
       sodipodi:ry="36.592316"
       sodipodi:rx="36.566761"
       sodipodi:cy="111.02563"
       sodipodi:cx="75.001015"
       sodipodi:type="arc"
       style="opacity:1;fill:none;fill-opacity:1;stroke:#8a8a76;stroke-width:1.46921968;stroke-linecap:round;stroke-linejoin:round;stroke-miterlimit:4;stroke-dasharray:none;stroke-dashoffset:0;stroke-opacity:1"
       id="path9808" />
    <path
       sodipodi:nodetypes="cc"
       inkscape:connector-curvature="0"
       id="path9810"
       d="M 75.001018,111.02563 45.726352,140.3003"
       style="fill:none;stroke:#8a8a76;stroke-width:1.71408963;stroke-linecap:butt;stroke-linejoin:miter;stroke-miterlimit:4;stroke-dasharray:none;stroke-opacity:1"
       inkscape:transform-center-y="14.637335"
       inkscape:transform-center-x="14.637333" />
    <path
       inkscape:transform-center-x="-14.637336"
       inkscape:transform-center-y="14.637335"
       style="fill:none;stroke:#8a8a76;stroke-width:1.71408963;stroke-linecap:butt;stroke-linejoin:miter;stroke-miterlimit:4;stroke-dasharray:none;stroke-opacity:1"
       d="M 75.001018,111.02563 104.27569,140.3003"
       id="path9812"
       inkscape:connector-curvature="0"
       sodipodi:nodetypes="cc" />
    <path
       inkscape:transform-center-x="-5.7453977"
       style="fill:none;stroke:#8a8a76;stroke-width:1.71408963;stroke-linecap:butt;stroke-linejoin:miter;stroke-miterlimit:4;stroke-dasharray:none;stroke-opacity:1"
       d="M 75.001018,111.02563 100.9573,85.048141"
       id="path9814"
       inkscape:connector-curvature="0"
       sodipodi:nodetypes="cc"
       inkscape:transform-center-y="-5.7453977" />
    <path
       inkscape:transform-center-x="-7.5067228"
       style="fill:none;stroke:#8a8a76;stroke-width:1.71408963;stroke-linecap:butt;stroke-linejoin:miter;stroke-miterlimit:4;stroke-dasharray:none;stroke-opacity:1"
       d="M 75.001018,111.02563 108.91453,96.966714"
       id="path9816"
       inkscape:connector-curvature="0"
       sodipodi:nodetypes="cc"
       inkscape:transform-center-y="-3.1093869" />
    <path
       inkscape:transform-center-y="-5.7453977"
       sodipodi:nodetypes="cc"
       inkscape:connector-curvature="0"
       id="path9818"
       d="M 75.001021,111.02563 49.044736,85.048141"
       style="fill:none;stroke:#8a8a76;stroke-width:1.71408963;stroke-linecap:butt;stroke-linejoin:miter;stroke-miterlimit:4;stroke-dasharray:none;stroke-opacity:1"
       inkscape:transform-center-x="5.7453969" />
    <path
       inkscape:transform-center-y="-3.1093869"
       sodipodi:nodetypes="cc"
       inkscape:connector-curvature="0"
       id="path9820"
       d="M 75.001021,111.02563 41.087506,96.966714"
       style="fill:none;stroke:#8a8a76;stroke-width:1.71408963;stroke-linecap:butt;stroke-linejoin:miter;stroke-miterlimit:4;stroke-dasharray:none;stroke-opacity:1"
       inkscape:transform-center-x="7.506722" />
  </g>
  <rect
     style="opacity:1;fill:#000000;fill-opacity:0.37647059;stroke:none;stroke-width:1.24348032;stroke-linecap:round;stroke-linejoin:round;stroke-miterlimit:4;stroke-dasharray:none;stroke-dashoffset:0;stroke-opacity:1"
     id="rect10107"
     width="19"
     height="9.0000944"
     x="43"
     y="3.0047913"
     rx="4.5000472"
     ry="4.5000472" />
  <path
     inkscape:export-ydpi="192"
     inkscape:export-xdpi="192"
     sodipodi:nodetypes="cc"
     inkscape:connector-curvature="0"
     id="path9840"
     d="m 25.32155,95.23053 c 0,-7.16641 2.02792,-13.85917 5.54121,-19.53574"
     style="opacity:1;fill:none;fill-opacity:0.08771931;stroke:#8a8a76;stroke-width:0.69999999;stroke-linecap:round;stroke-linejoin:round;stroke-miterlimit:0;stroke-dasharray:none;stroke-dashoffset:0;stroke-opacity:1" />
  <path
     inkscape:export-ydpi="192"
     inkscape:export-xdpi="192"
     style="opacity:1;fill:none;fill-opacity:0.08771931;stroke:#8a8a76;stroke-width:0.69999999;stroke-linecap:round;stroke-linejoin:round;stroke-miterlimit:0;stroke-dasharray:none;stroke-dashoffset:0;stroke-opacity:1"
     d="m 47.86537,113.69553 c 0,5.33994 -1.12595,10.4169 -3.1534,15.00642"
     id="path9842"
     inkscape:connector-curvature="0"
     sodipodi:nodetypes="cc" />
  <g
     inkscape:transform-center-x="-1.8989978e-06"
     transform="matrix(0.57601399,0,0,0.57580493,-6.20063,0.39425)"
     id="g9874"
     style="stroke:#8a8a76;stroke-width:1.73638391;stroke-opacity:1"
     inkscape:transform-center-y="-2.1486358">
    <path
       id="path9868"
       style="opacity:1;fill:none;fill-opacity:1;stroke:#8a8a76;stroke-width:1.04183054;stroke-linecap:round;stroke-linejoin:round;stroke-miterlimit:4;stroke-dasharray:none;stroke-dashoffset:0;stroke-opacity:1"
       sodipodi:type="arc"
       sodipodi:cx="75.001015"
       sodipodi:cy="111.02563"
       sodipodi:rx="36.566761"
       sodipodi:ry="36.592316"
       sodipodi:start="2.3561945"
       sodipodi:end="0.78539816"
       d="m 49.14441,136.9003 a 36.566761,36.592316 0 0 1 0,-51.749348 36.566761,36.592316 0 0 1 51.71321,10e-7 36.566761,36.592316 0 0 1 0,51.749347"
       sodipodi:open="true" />
    <path
       inkscape:transform-center-x="14.637333"
       inkscape:transform-center-y="14.637335"
       style="fill:none;stroke:#8a8a76;stroke-width:1.21546888;stroke-linecap:butt;stroke-linejoin:miter;stroke-miterlimit:4;stroke-dasharray:none;stroke-opacity:1"
       d="M 75.001018,111.02563 45.726352,140.3003"
       id="path9870"
       inkscape:connector-curvature="0"
       sodipodi:nodetypes="cc" />
    <path
       sodipodi:nodetypes="cc"
       inkscape:connector-curvature="0"
       id="path9872"
       d="M 75.001018,111.02563 104.27569,140.3003"
       style="fill:none;stroke:#8a8a76;stroke-width:1.21546888;stroke-linecap:butt;stroke-linejoin:miter;stroke-miterlimit:4;stroke-dasharray:none;stroke-opacity:1"
       inkscape:transform-center-y="14.637335"
       inkscape:transform-center-x="-14.637336" />
  </g>
  <g
     aria-label="1"
     style="font-style:normal;font-variant:normal;font-weight:300;font-stretch:normal;font-size:6.72162962px;line-height:1.25;font-family:'Gotham Rounded';-inkscape-font-specification:'Gotham Rounded Light';text-align:center;letter-spacing:0px;word-spacing:0px;text-anchor:middle;fill:#eaeae3;fill-opacity:1;stroke:none;stroke-width:1.00001252"
     id="text9884">
    <path
       d="m 11.415209,81.522637 c 0,0.228535 0.188206,0.410019 0.410019,0.410019 0.228536,0 0.41002,-0.181484 0.41002,-0.410019 v -3.979205 c 0,-0.228536 -0.174763,-0.41002 -0.41002,-0.41002 h -0.01344 c -0.120989,0 -0.241978,0.02689 -0.403298,0.07394 l -0.712492,0.228536 c -0.168041,0.04705 -0.275587,0.181484 -0.275587,0.356246 0,0.188206 0.168041,0.349525 0.362968,0.349525 0.04033,0 0.100824,-0.0067 0.147876,-0.02016 l 0.483957,-0.147876 z"
       style="font-style:normal;font-variant:normal;font-weight:300;font-stretch:normal;font-family:'Gotham Rounded';-inkscape-font-specification:'Gotham Rounded Light';text-align:center;text-anchor:middle;fill:#eaeae3;fill-opacity:1;stroke-width:1.00001252"
       id="path1029" />
  </g>
  <g
     aria-label="99"
     style="font-style:normal;font-variant:normal;font-weight:300;font-stretch:normal;font-size:6.72162962px;line-height:1.25;font-family:'Gotham Rounded';-inkscape-font-specification:'Gotham Rounded Light';text-align:center;letter-spacing:0px;word-spacing:0px;text-anchor:middle;fill:#eaeae3;fill-opacity:1;stroke:none;stroke-width:1.00001252"
     id="text9888">
    <path
       d="m 60.149967,81.979707 c 1.270388,0 2.016489,-1.048574 2.016489,-2.56094 v -0.01344 c 0,-0.927585 -0.221814,-1.44515 -0.564617,-1.794675 -0.336081,-0.32936 -0.719214,-0.4974 -1.310717,-0.4974 -1.041853,0 -1.754346,0.705771 -1.754346,1.626634 v 0.01344 c 0,0.90742 0.665442,1.492202 1.666964,1.492202 0.504123,0 0.867091,-0.215092 1.102348,-0.497401 -0.02689,0.867091 -0.443628,1.478759 -1.135956,1.478759 -0.322638,0 -0.584782,-0.0941 -0.860368,-0.28903 -0.06722,-0.04033 -0.141155,-0.06722 -0.228536,-0.06722 -0.215092,0 -0.389854,0.161319 -0.389854,0.376411 0,0.154597 0.07394,0.268865 0.188205,0.342803 0.349525,0.235257 0.73938,0.389854 1.270388,0.389854 z m 0.174763,-2.426508 c -0.584782,0 -0.961193,-0.349525 -0.961193,-0.840204 v -0.01344 c 0,-0.483957 0.349524,-0.873812 0.934306,-0.873812 0.598225,0 0.981358,0.376412 0.981358,0.867091 v 0.01344 c 0,0.457071 -0.356246,0.846925 -0.954471,0.846925 z"
       style="font-style:normal;font-variant:normal;font-weight:300;font-stretch:normal;font-family:'Gotham Rounded';-inkscape-font-specification:'Gotham Rounded Light';text-align:center;text-anchor:middle;fill:#eaeae3;fill-opacity:1;stroke-width:1.00001252"
       id="path1024" />
    <path
       d="m 64.561037,81.979707 c 1.270388,0 2.016489,-1.048574 2.016489,-2.56094 v -0.01344 c 0,-0.927585 -0.221814,-1.44515 -0.564617,-1.794675 -0.336082,-0.32936 -0.719215,-0.4974 -1.310718,-0.4974 -1.041853,0 -1.754345,0.705771 -1.754345,1.626634 v 0.01344 c 0,0.90742 0.665441,1.492202 1.666964,1.492202 0.504122,0 0.86709,-0.215092 1.102347,-0.497401 -0.02689,0.867091 -0.443628,1.478759 -1.135955,1.478759 -0.322639,0 -0.584782,-0.0941 -0.860369,-0.28903 -0.06722,-0.04033 -0.141154,-0.06722 -0.228535,-0.06722 -0.215093,0 -0.389855,0.161319 -0.389855,0.376411 0,0.154597 0.07394,0.268865 0.188206,0.342803 0.349524,0.235257 0.739379,0.389854 1.270388,0.389854 z m 0.174762,-2.426508 c -0.584782,0 -0.961193,-0.349525 -0.961193,-0.840204 v -0.01344 c 0,-0.483957 0.349525,-0.873812 0.934307,-0.873812 0.598225,0 0.981358,0.376412 0.981358,0.867091 v 0.01344 c 0,0.457071 -0.356247,0.846925 -0.954472,0.846925 z"
       style="font-style:normal;font-variant:normal;font-weight:300;font-stretch:normal;font-family:'Gotham Rounded';-inkscape-font-specification:'Gotham Rounded Light';text-align:center;text-anchor:middle;fill:#eaeae3;fill-opacity:1;stroke-width:1.00001252"
       id="path1026" />
  </g>
  <g
     inkscape:transform-center-y="-2.1486358"
     style="stroke:#8a8a76;stroke-width:1.73638391;stroke-opacity:1"
     id="g10009"
     transform="matrix(0.57601399,0,0,0.57580493,-6.20063,84.39425)"
     inkscape:transform-center-x="-1.8989978e-06">
    <path
       sodipodi:open="true"
       d="m 49.14441,136.9003 a 36.566761,36.592316 0 0 1 0,-51.749348 36.566761,36.592316 0 0 1 51.71321,10e-7 36.566761,36.592316 0 0 1 0,51.749347"
       sodipodi:end="0.78539816"
       sodipodi:start="2.3561945"
       sodipodi:ry="36.592316"
       sodipodi:rx="36.566761"
       sodipodi:cy="111.02563"
       sodipodi:cx="75.001015"
       sodipodi:type="arc"
       style="opacity:1;fill:none;fill-opacity:1;stroke:#8a8a76;stroke-width:1.04183054;stroke-linecap:round;stroke-linejoin:round;stroke-miterlimit:4;stroke-dasharray:none;stroke-dashoffset:0;stroke-opacity:1"
       id="path10003" />
    <path
       sodipodi:nodetypes="cc"
       inkscape:connector-curvature="0"
       id="path10005"
       d="M 75.001018,111.02563 45.726352,140.3003"
       style="fill:none;stroke:#8a8a76;stroke-width:1.21546888;stroke-linecap:butt;stroke-linejoin:miter;stroke-miterlimit:4;stroke-dasharray:none;stroke-opacity:1"
       inkscape:transform-center-y="14.637335"
       inkscape:transform-center-x="14.637333" />
    <path
       inkscape:transform-center-x="-14.637336"
       inkscape:transform-center-y="14.637335"
       style="fill:none;stroke:#8a8a76;stroke-width:1.21546888;stroke-linecap:butt;stroke-linejoin:miter;stroke-miterlimit:4;stroke-dasharray:none;stroke-opacity:1"
       d="M 75.001018,111.02563 104.27569,140.3003"
       id="path10007"
       inkscape:connector-curvature="0"
       sodipodi:nodetypes="cc" />
  </g>
  <g
     aria-label="1"
     style="font-style:normal;font-variant:normal;font-weight:300;font-stretch:normal;font-size:6.72162962px;line-height:1.25;font-family:'Gotham Rounded';-inkscape-font-specification:'Gotham Rounded Light';text-align:center;letter-spacing:0px;word-spacing:0px;text-anchor:middle;fill:#eaeae3;fill-opacity:1;stroke:none;stroke-width:1.00001252"
     id="text10019">
    <path
       d="m 11.415209,165.52264 c 0,0.22853 0.188206,0.41002 0.410019,0.41002 0.228536,0 0.41002,-0.18149 0.41002,-0.41002 v -3.97921 c 0,-0.22853 -0.174763,-0.41002 -0.41002,-0.41002 h -0.01344 c -0.120989,0 -0.241978,0.0269 -0.403298,0.0739 l -0.712492,0.22854 c -0.168041,0.0471 -0.275587,0.18148 -0.275587,0.35624 0,0.18821 0.168041,0.34953 0.362968,0.34953 0.04033,0 0.100824,-0.007 0.147876,-0.0202 l 0.483957,-0.14787 z"
       style="font-style:normal;font-variant:normal;font-weight:300;font-stretch:normal;font-family:'Gotham Rounded';-inkscape-font-specification:'Gotham Rounded Light';text-align:center;text-anchor:middle;fill:#eaeae3;fill-opacity:1;stroke-width:1.00001252"
       id="path1021" />
  </g>
  <g
     aria-label="99"
     style="font-style:normal;font-variant:normal;font-weight:300;font-stretch:normal;font-size:6.72162962px;line-height:1.25;font-family:'Gotham Rounded';-inkscape-font-specification:'Gotham Rounded Light';text-align:center;letter-spacing:0px;word-spacing:0px;text-anchor:middle;fill:#eaeae3;fill-opacity:1;stroke:none;stroke-width:1.00001252"
     id="text10023">
    <path
       d="m 60.149967,165.97971 c 1.270388,0 2.016489,-1.04858 2.016489,-2.56094 v -0.0135 c 0,-0.92758 -0.221814,-1.44515 -0.564617,-1.79467 -0.336081,-0.32936 -0.719214,-0.4974 -1.310717,-0.4974 -1.041853,0 -1.754346,0.70577 -1.754346,1.62663 v 0.0135 c 0,0.90742 0.665442,1.4922 1.666964,1.4922 0.504123,0 0.867091,-0.2151 1.102348,-0.4974 -0.02689,0.86709 -0.443628,1.47875 -1.135956,1.47875 -0.322638,0 -0.584782,-0.0941 -0.860368,-0.28903 -0.06722,-0.0403 -0.141155,-0.0672 -0.228536,-0.0672 -0.215092,0 -0.389854,0.16132 -0.389854,0.37641 0,0.1546 0.07394,0.26886 0.188205,0.3428 0.349525,0.23526 0.73938,0.38986 1.270388,0.38986 z m 0.174763,-2.42651 c -0.584782,0 -0.961193,-0.34953 -0.961193,-0.8402 v -0.0135 c 0,-0.48396 0.349524,-0.87381 0.934306,-0.87381 0.598225,0 0.981358,0.37641 0.981358,0.86709 v 0.0134 c 0,0.45707 -0.356246,0.84693 -0.954471,0.84693 z"
       style="font-style:normal;font-variant:normal;font-weight:300;font-stretch:normal;font-family:'Gotham Rounded';-inkscape-font-specification:'Gotham Rounded Light';text-align:center;text-anchor:middle;fill:#eaeae3;fill-opacity:1;stroke-width:1.00001252"
       id="path1016" />
    <path
       d="m 64.561037,165.97971 c 1.270388,0 2.016489,-1.04858 2.016489,-2.56094 v -0.0135 c 0,-0.92758 -0.221814,-1.44515 -0.564617,-1.79467 -0.336082,-0.32936 -0.719215,-0.4974 -1.310718,-0.4974 -1.041853,0 -1.754345,0.70577 -1.754345,1.62663 v 0.0135 c 0,0.90742 0.665441,1.4922 1.666964,1.4922 0.504122,0 0.86709,-0.2151 1.102347,-0.4974 -0.02689,0.86709 -0.443628,1.47875 -1.135955,1.47875 -0.322639,0 -0.584782,-0.0941 -0.860369,-0.28903 -0.06722,-0.0403 -0.141154,-0.0672 -0.228535,-0.0672 -0.215093,0 -0.389855,0.16132 -0.389855,0.37641 0,0.1546 0.07394,0.26886 0.188206,0.3428 0.349524,0.23526 0.739379,0.38986 1.270388,0.38986 z m 0.174762,-2.42651 c -0.584782,0 -0.961193,-0.34953 -0.961193,-0.8402 v -0.0135 c 0,-0.48396 0.349525,-0.87381 0.934307,-0.87381 0.598225,0 0.981358,0.37641 0.981358,0.86709 v 0.0134 c 0,0.45707 -0.356247,0.84693 -0.954472,0.84693 z"
       style="font-style:normal;font-variant:normal;font-weight:300;font-stretch:normal;font-family:'Gotham Rounded';-inkscape-font-specification:'Gotham Rounded Light';text-align:center;text-anchor:middle;fill:#eaeae3;fill-opacity:1;stroke-width:1.00001252"
       id="path1018" />
  </g>
  <g
     aria-label="FROM"
     style="font-style:normal;font-variant:normal;font-weight:300;font-stretch:normal;font-size:6.96164751px;line-height:1.25;font-family:'Gotham Rounded';-inkscape-font-specification:'Gotham Rounded Light';letter-spacing:0px;word-spacing:0px;fill:#eaeae3;fill-opacity:1;stroke:none;stroke-width:1.00001252"
     id="text9898">
    <path
       d="m 10.055297,227.52513 c 0,0.23669 0.187964,0.42466 0.431622,0.42466 0.236696,0 0.424661,-0.18797 0.424661,-0.42466 v -1.59422 h 2.102417 c 0.215811,0 0.389852,-0.17404 0.389852,-0.38985 0,-0.21581 -0.174041,-0.38986 -0.389852,-0.38986 H 10.91158 v -1.32967 h 2.415691 c 0.215811,0 0.389853,-0.17404 0.389853,-0.38985 0,-0.21581 -0.174042,-0.38986 -0.389853,-0.38986 h -2.840352 c -0.243658,0 -0.431622,0.18797 -0.431622,0.43163 z"
       style="font-style:normal;font-variant:normal;font-weight:300;font-stretch:normal;font-family:'Gotham Rounded';-inkscape-font-specification:'Gotham Rounded Light';text-align:center;text-anchor:middle;fill:#eaeae3;fill-opacity:1;stroke-width:1.00001252"
       id="path1007" />
    <path
       d="m 14.623878,227.52513 c 0,0.23669 0.187965,0.42466 0.431622,0.42466 0.236696,0 0.424661,-0.18797 0.424661,-0.42466 v -1.30879 h 1.079055 l 1.18348,1.51067 c 0.09746,0.13227 0.222773,0.22278 0.417699,0.22278 0.208849,0 0.410737,-0.16012 0.410737,-0.39682 0,-0.13227 -0.05569,-0.22277 -0.139233,-0.3272 l -0.93286,-1.17651 c 0.654394,-0.20189 1.106901,-0.67528 1.106901,-1.45499 v -0.0139 c 0,-0.42466 -0.146194,-0.78667 -0.403775,-1.05121 -0.313274,-0.30631 -0.793628,-0.48732 -1.406253,-0.48732 H 15.0555 c -0.243657,0 -0.431622,0.18797 -0.431622,0.43163 z m 0.856283,-2.06761 v -1.63599 h 1.246135 c 0.63351,0 1.009439,0.28543 1.009439,0.80755 v 0.0139 c 0,0.49428 -0.389853,0.81452 -1.002478,0.81452 z"
       style="font-style:normal;font-variant:normal;font-weight:300;font-stretch:normal;font-family:'Gotham Rounded';-inkscape-font-specification:'Gotham Rounded Light';text-align:center;text-anchor:middle;fill:#eaeae3;fill-opacity:1;stroke-width:1.00001252"
       id="path1009" />
    <path
       d="m 21.979946,227.99852 c 1.496754,0 2.554925,-1.14867 2.554925,-2.52012 v -0.0139 c 0,-1.37145 -1.044248,-2.5062 -2.541002,-2.5062 -1.496754,0 -2.554924,1.14868 -2.554924,2.52012 v 0.0139 c 0,1.37145 1.044247,2.5062 2.541001,2.5062 z m 0.01392,-0.79363 c -0.967669,0 -1.656872,-0.7797 -1.656872,-1.72649 v -0.0139 c 0,-0.94679 0.67528,-1.71953 1.642949,-1.71953 0.967669,0 1.656872,0.78667 1.656872,1.73345 v 0.0139 c 0,0.94679 -0.67528,1.71257 -1.642949,1.71257 z"
       style="font-style:normal;font-variant:normal;font-weight:300;font-stretch:normal;font-family:'Gotham Rounded';-inkscape-font-specification:'Gotham Rounded Light';text-align:center;text-anchor:middle;fill:#eaeae3;fill-opacity:1;stroke-width:1.00001252"
       id="path1011" />
    <path
       d="m 25.569437,227.53209 c 0,0.23669 0.181003,0.4177 0.417699,0.4177 0.236696,0 0.42466,-0.18101 0.42466,-0.4177 v -2.91693 l 1.183481,1.77522 c 0.0905,0.13923 0.201887,0.22277 0.355044,0.22277 0.160117,0 0.271504,-0.0835 0.362005,-0.22277 l 1.190442,-1.78915 v 2.9239 c 0,0.22973 0.194926,0.42466 0.42466,0.42466 0.243658,0 0.431623,-0.18797 0.431623,-0.42466 v -4.07953 c 0,-0.2367 -0.187965,-0.43162 -0.431623,-0.43162 h -0.0905 c -0.174041,0 -0.299351,0.0766 -0.389852,0.22277 l -1.482831,2.31823 -1.475869,-2.31127 c -0.08354,-0.13227 -0.20885,-0.22973 -0.396814,-0.22973 h -0.0905 c -0.243657,0 -0.431622,0.19492 -0.431622,0.43162 z"
       style="font-style:normal;font-variant:normal;font-weight:300;font-stretch:normal;font-family:'Gotham Rounded';-inkscape-font-specification:'Gotham Rounded Light';text-align:center;text-anchor:middle;fill:#eaeae3;fill-opacity:1;stroke-width:1.00001252"
       id="path1013" />
  </g>
  <g
     aria-label="TO"
     style="font-style:normal;font-variant:normal;font-weight:300;font-stretch:normal;font-size:6.96164751px;line-height:1.25;font-family:'Gotham Rounded';-inkscape-font-specification:'Gotham Rounded Light';letter-spacing:0px;word-spacing:0px;fill:#eaeae3;fill-opacity:1;stroke:none;stroke-width:1.00001252"
     id="text9902">
    <path
       d="m 51.561745,227.52513 c 0,0.23669 0.194926,0.42466 0.431622,0.42466 0.236696,0 0.431622,-0.18797 0.431622,-0.42466 v -3.68968 h 1.190442 c 0.215811,0 0.389852,-0.181 0.389852,-0.39681 0,-0.21581 -0.174041,-0.39682 -0.389852,-0.39682 h -3.237166 c -0.222773,0 -0.396814,0.18101 -0.396814,0.39682 0,0.21581 0.174041,0.39681 0.396814,0.39681 h 1.18348 z"
       style="font-style:normal;font-variant:normal;font-weight:300;font-stretch:normal;font-family:'Gotham Rounded';-inkscape-font-specification:'Gotham Rounded Light';text-align:center;text-anchor:middle;fill:#eaeae3;fill-opacity:1;stroke-width:1.00001252"
       id="path1002" />
    <path
       d="m 56.945382,227.99852 c 1.496755,0 2.554925,-1.14867 2.554925,-2.52012 v -0.0139 c 0,-1.37145 -1.044247,-2.5062 -2.541001,-2.5062 -1.496754,0 -2.554925,1.14868 -2.554925,2.52012 v 0.0139 c 0,1.37145 1.044247,2.5062 2.541001,2.5062 z m 0.01392,-0.79363 c -0.967669,0 -1.656872,-0.7797 -1.656872,-1.72649 v -0.0139 c 0,-0.94679 0.675279,-1.71953 1.642948,-1.71953 0.967669,0 1.656873,0.78667 1.656873,1.73345 v 0.0139 c 0,0.94679 -0.67528,1.71257 -1.642949,1.71257 z"
       style="font-style:normal;font-variant:normal;font-weight:300;font-stretch:normal;font-family:'Gotham Rounded';-inkscape-font-specification:'Gotham Rounded Light';text-align:center;text-anchor:middle;fill:#eaeae3;fill-opacity:1;stroke-width:1.00001252"
       id="path1004" />
  </g>
</svg>
