<?xml version="1.0" encoding="UTF-8" standalone="no"?>
<!-- Created with Inkscape (http://www.inkscape.org/) -->

<svg
   xmlns:dc="http://purl.org/dc/elements/1.1/"
   xmlns:cc="http://creativecommons.org/ns#"
   xmlns:rdf="http://www.w3.org/1999/02/22-rdf-syntax-ns#"
   xmlns:svg="http://www.w3.org/2000/svg"
   xmlns="http://www.w3.org/2000/svg"
   xmlns:sodipodi="http://sodipodi.sourceforge.net/DTD/sodipodi-0.dtd"
   xmlns:inkscape="http://www.inkscape.org/namespaces/inkscape"
   width="45"
   height="380"
   viewBox="0 0 45 380"
   version="1.1"
   id="svg8"
   inkscape:version="0.92.3 (2405546, 2018-03-11)"
   sodipodi:docname="FN-3.svg">
  <defs
     id="defs2">
    <clipPath
       clipPathUnits="userSpaceOnUse"
       id="clipPath1763">
      <path
         inkscape:connector-curvature="0"
         id="path1765"
         d="M 0,196.45831 H 23.8125 V 296.99999 H 0 Z"
         style="opacity:1;vector-effect:none;fill:#28220b;fill-opacity:1;fill-rule:evenodd;stroke:none;stroke-width:0.48607069;stroke-linecap:butt;stroke-linejoin:round;stroke-miterlimit:4;stroke-dasharray:none;stroke-dashoffset:0;stroke-opacity:1;paint-order:normal" />
    </clipPath>
    <clipPath
       clipPathUnits="userSpaceOnUse"
       id="clipPath3293">
      <path
         style="opacity:1;vector-effect:none;fill:#28220b;fill-opacity:1;fill-rule:evenodd;stroke:none;stroke-width:0.48607066;stroke-linecap:butt;stroke-linejoin:round;stroke-miterlimit:4;stroke-dasharray:none;stroke-dashoffset:0;stroke-opacity:1;paint-order:normal"
         d="M -1.5460537e-7,196.45831 H 19.843751 V 296.99999 H -1.5460537e-7 Z"
         id="path3295"
         inkscape:connector-curvature="0" />
    </clipPath>
  </defs>
  <sodipodi:namedview
     id="base"
     pagecolor="#ffffff"
     bordercolor="#666666"
     borderopacity="1.0"
     inkscape:pageopacity="0.0"
     inkscape:pageshadow="2"
     inkscape:zoom="2.8068211"
     inkscape:cx="17.50804"
     inkscape:cy="213.89588"
     inkscape:document-units="px"
     inkscape:current-layer="svg8"
     showgrid="false"
     units="px"
     inkscape:snap-bbox="true"
     inkscape:snap-page="true"
     inkscape:bbox-nodes="true"
     inkscape:snap-bbox-edge-midpoints="true"
     inkscape:window-width="2088"
     inkscape:window-height="1671"
     inkscape:window-x="974"
     inkscape:window-y="253"
     inkscape:window-maximized="0"
     showguides="true"
     inkscape:guide-bbox="true"
     inkscape:snap-global="false">
    <inkscape:grid
       type="xygrid"
       id="grid985" />
  </sodipodi:namedview>
  <metadata
     id="metadata5">
    <rdf:RDF>
      <cc:Work
         rdf:about="">
        <dc:format>image/svg+xml</dc:format>
        <dc:type
           rdf:resource="http://purl.org/dc/dcmitype/StillImage" />
        <dc:title />
      </cc:Work>
    </rdf:RDF>
  </metadata>
  <path
     inkscape:export-ydpi="192"
     inkscape:export-xdpi="192"
     sodipodi:nodetypes="ccccc"
     style="opacity:1;fill:#202223;fill-opacity:1;stroke:none;stroke-width:1.99999988;stroke-linecap:round;stroke-linejoin:round;stroke-miterlimit:4;stroke-dasharray:none;stroke-dashoffset:0;stroke-opacity:0.58802819"
     d="M 0,0 H 45 V 380 H 0 Z"
     id="path10494"
     inkscape:connector-curvature="0" />
  <path
     inkscape:export-ydpi="192"
     inkscape:export-xdpi="192"
     style="fill:none;stroke:#8a8a76;stroke-width:0.69999999;stroke-linecap:butt;stroke-linejoin:miter;stroke-miterlimit:4;stroke-dasharray:none;stroke-opacity:1"
     d="M 22.5,97 V 77"
     id="path10496"
     inkscape:connector-curvature="0" />
  <path
     inkscape:export-ydpi="192"
     inkscape:export-xdpi="192"
     style="color:#000000;font-style:normal;font-variant:normal;font-weight:normal;font-stretch:normal;font-size:medium;line-height:normal;font-family:sans-serif;font-variant-ligatures:normal;font-variant-position:normal;font-variant-caps:normal;font-variant-numeric:normal;font-variant-alternates:normal;font-feature-settings:normal;text-indent:0;text-align:start;text-decoration:none;text-decoration-line:none;text-decoration-style:solid;text-decoration-color:#000000;letter-spacing:normal;word-spacing:normal;text-transform:none;writing-mode:lr-tb;direction:ltr;text-orientation:mixed;dominant-baseline:auto;baseline-shift:baseline;text-anchor:start;white-space:normal;shape-padding:0;clip-rule:nonzero;display:inline;overflow:visible;visibility:visible;opacity:1;isolation:auto;mix-blend-mode:normal;color-interpolation:sRGB;color-interpolation-filters:linearRGB;solid-color:#000000;solid-opacity:1;vector-effect:none;fill:#eaeae3;fill-opacity:1;fill-rule:nonzero;stroke:none;stroke-width:1.86399996;stroke-linecap:butt;stroke-linejoin:miter;stroke-miterlimit:0;stroke-dasharray:none;stroke-dashoffset:0;stroke-opacity:1;color-rendering:auto;image-rendering:auto;shape-rendering:auto;text-rendering:auto;enable-background:accumulate"
     d="m 27.39648,353.14648 c -1.47909,1.66132 -4.45034,4.73431 -9.05664,5.60352 l -0.004,-0.0137 c -1.10325,0.32619 -2.1809,0.54505 -2.99609,0.61719 -0.36405,0.0322 -0.64618,0.0252 -0.86524,0.006 0.36165,-0.29969 1.07798,-0.7228 1.98243,-1.1543 1.91376,-0.91304 4.39078,-1.82527 5.84765,-3.06836 l -0.0117,-0.0137 c 0.019,-0.0189 0.0596,-0.0277 0.0781,-0.0469 l -1.27539,-1.35742 c -0.47423,0.40465 -1.74986,0.93284 -2.75976,1.42187 -0.86741,0.31698 -1.78876,0.63299 -2.83789,0.87305 -2.60646,0.59642 -5.53028,0.83833 -7.31055,0.47266 l -0.375,1.82617 c 1.49114,0.30628 3.30065,0.20811 5.14453,-0.0234 -0.24682,0.25743 -0.50604,0.51523 -0.58203,0.94141 -0.0959,0.53762 0.17128,1.13357 0.54687,1.48437 0.3885,0.36304 0.80124,0.44227 1.21875,0.49414 0.41752,0.0519 0.86726,0.0439 1.36329,0 0.89246,-0.079 1.93474,-0.29731 3.00781,-0.5957 v 0.004 c 0.90735,-0.16015 1.67836,-0.47557 2.47265,-0.76367 l 0.59375,1.21289 c 1.01516,-0.40119 2.38162,-0.77624 3.63672,-0.8711 1.25511,-0.0949 2.34443,0.11227 2.94922,0.61133 l 1.1875,-1.4375 c -1.13905,-0.93993 -2.64102,-1.11276 -4.09765,-1.02539 1.34364,-1.19486 2.54636,-2.50362 3.48828,-3.91602 0.01,-0.0111 0.0371,-0.032 0.0469,-0.043 l -0.006,-0.004 c 0.025,-0.0378 0.0652,-0.0696 0.0898,-0.10742 z m 3.43164,0.50196 c -1.73314,2.15165 -1.3884,4.67345 0.0625,6.07031 1.45091,1.39686 3.88423,1.80101 5.92774,0.49219 l -1.03711,-1.6211 c -1.31649,0.84318 -2.73905,0.52933 -3.55664,-0.25781 -0.551,-0.53047 -0.6638,-1.2861 -0.4375,-2.1543 0.51332,0.57234 1.0865,1.06405 1.76172,1.38868 1.19423,0.57416 2.59764,0.6971 4.10351,0.39257 l -0.38086,-1.88671 c -1.18912,0.24047 -2.1189,0.12789 -2.88867,-0.24219 -0.76976,-0.37009 -1.41993,-1.02056 -1.95508,-2.0293 z"
     id="path10500"
     inkscape:connector-curvature="0" />
  <g
     aria-label="FN-3"
     style="font-style:normal;font-variant:normal;font-weight:normal;font-stretch:normal;font-size:11.94451904px;line-height:1.25;font-family:'Gotham Rounded';-inkscape-font-specification:'Gotham Rounded';letter-spacing:0px;word-spacing:0px;fill:#eaeae3;fill-opacity:1;stroke:none;stroke-width:0.94821429"
     id="text10504">
    <path
       d="m 8.7915642,27.802543 c 0,0.513615 0.4061136,0.919728 0.9197279,0.919728 0.5136139,0 0.9197279,-0.406113 0.9197279,-0.919728 V 25.41364 h 3.22502 c 0.465836,0 0.836117,-0.370281 0.836117,-0.836117 0,-0.465836 -0.370281,-0.836116 -0.836117,-0.836116 h -3.22502 v -1.779733 h 3.762524 c 0.465836,0 0.836116,-0.370281 0.836116,-0.836117 0,-0.465836 -0.37028,-0.836116 -0.836116,-0.836116 H 9.7112921 c -0.5136143,0 -0.9197279,0.406114 -0.9197279,0.919728 z"
       style="font-style:normal;font-variant:normal;font-weight:normal;font-stretch:normal;font-family:'Gotham Rounded';-inkscape-font-specification:'Gotham Rounded';text-align:center;text-anchor:middle;fill:#eaeae3;fill-opacity:1;stroke-width:0.94821429"
       id="path977" />
    <path
       d="m 16.630155,27.814488 c 0,0.50167 0.406113,0.907783 0.907783,0.907783 0.50167,0 0.907784,-0.406113 0.907784,-0.907783 v -4.479195 l 3.678912,4.825586 c 0.250834,0.322502 0.513614,0.537503 0.955561,0.537503 h 0.05972 c 0.513614,0 0.919728,-0.406113 0.919728,-0.919728 v -6.653097 c 0,-0.50167 -0.406114,-0.907783 -0.907784,-0.907783 -0.50167,0 -0.907783,0.406113 -0.907783,0.907783 v 4.311972 l -3.547522,-4.658363 c -0.250835,-0.322502 -0.513615,-0.537503 -0.955562,-0.537503 h -0.191112 c -0.513615,0 -0.919728,0.406113 -0.919728,0.919728 z"
       style="font-style:normal;font-variant:normal;font-weight:normal;font-stretch:normal;font-family:'Gotham Rounded';-inkscape-font-specification:'Gotham Rounded';text-align:center;text-anchor:middle;fill:#eaeae3;fill-opacity:1;stroke-width:0.94821429"
       id="path979" />
    <path
       d="m 26.449296,25.819753 h 2.078347 c 0.477781,0 0.87195,-0.394169 0.87195,-0.87195 0,-0.47778 -0.394169,-0.87195 -0.87195,-0.87195 h -2.078347 c -0.47778,0 -0.871949,0.39417 -0.871949,0.87195 0,0.477781 0.394169,0.87195 0.871949,0.87195 z"
       style="font-style:normal;font-variant:normal;font-weight:normal;font-stretch:normal;font-family:'Gotham Rounded';-inkscape-font-specification:'Gotham Rounded';text-align:center;text-anchor:middle;fill:#eaeae3;fill-opacity:1;stroke-width:0.94821429"
       id="path981" />
    <path
       d="m 33.525677,28.793938 c 1.863345,0 3.010019,-1.158618 3.010019,-2.735294 v -0.02389 c 0,-1.552788 -1.11084,-2.150014 -2.24557,-2.341126 l 1.636399,-1.564732 c 0.334447,-0.322502 0.549448,-0.573337 0.549448,-1.027229 0,-0.50167 -0.394169,-0.812227 -0.931672,-0.812227 H 31.47122 c -0.430003,0 -0.788339,0.358335 -0.788339,0.788338 0,0.430003 0.358336,0.788338 0.788339,0.788338 h 2.568071 l -1.624454,1.6364 c -0.286669,0.286668 -0.394169,0.501669 -0.394169,0.752504 0,0.430003 0.358335,0.788338 0.788338,0.788338 h 0.286668 c 1.027229,0 1.636399,0.382225 1.636399,1.063063 v 0.02389 c 0,0.621115 -0.489725,1.015284 -1.182507,1.015284 -0.656949,0 -1.158618,-0.215001 -1.636399,-0.621115 -0.143334,-0.119445 -0.322502,-0.226946 -0.585282,-0.226946 -0.47778,0 -0.883894,0.406114 -0.883894,0.883894 0,0.26278 0.143334,0.513615 0.310558,0.656949 0.680837,0.585281 1.576676,0.955561 2.771128,0.955561 z"
       style="font-style:normal;font-variant:normal;font-weight:normal;font-stretch:normal;font-family:'Gotham Rounded';-inkscape-font-specification:'Gotham Rounded';text-align:center;text-anchor:middle;fill:#eaeae3;fill-opacity:1;stroke-width:0.94821429"
       id="path983" />
  </g>
  <rect
     style="opacity:1;fill:#000000;fill-opacity:0.37647059;stroke:none;stroke-width:1.24348032;stroke-linecap:round;stroke-linejoin:round;stroke-miterlimit:4;stroke-dasharray:none;stroke-dashoffset:0;stroke-opacity:1"
     id="rect10728"
     width="19"
     height="9.0000944"
     x="13"
     y="3.0047913"
     rx="4.5000472"
     ry="4.5000472" />
  <rect
     style="opacity:1;fill:#000000;fill-opacity:0.37647059;stroke:none;stroke-width:1.24348032;stroke-linecap:round;stroke-linejoin:round;stroke-miterlimit:4;stroke-dasharray:none;stroke-dashoffset:0;stroke-opacity:1"
     id="rect10706"
     width="19"
     height="9.0000944"
     x="13"
     y="368.00476"
     rx="4.5000472"
     ry="4.5000472" />
  <rect
     inkscape:export-ydpi="192"
     inkscape:export-xdpi="192"
     style="opacity:1;fill:#585a4e;fill-opacity:1;stroke:none;stroke-width:0.54100001;stroke-linecap:round;stroke-linejoin:round;stroke-miterlimit:0;stroke-dasharray:none;stroke-dashoffset:0;stroke-opacity:1"
     id="rect10510"
     width="29.076094"
     height="43.215649"
     x="7.9392395"
     y="304.73596"
     rx="2.6516504"
     ry="2.6516504" />
  <g
     aria-label="WAVE"
     style="font-style:normal;font-variant:normal;font-weight:300;font-stretch:normal;font-size:6.55224657px;line-height:1.25;font-family:'Gotham Rounded';-inkscape-font-specification:'Gotham Rounded Light';letter-spacing:0px;word-spacing:0px;fill:#ffffff;fill-opacity:1;stroke:#ffffff;stroke-width:0.10001242;stroke-miterlimit:4;stroke-dasharray:none;stroke-opacity:1"
     id="text10514">
    <path
       d="m 13.610304,314.62455 c 0.07863,0.20967 0.222777,0.33416 0.419344,0.33416 h 0.07863 c 0.196567,0 0.347269,-0.12449 0.419344,-0.33416 l 1.02215,-2.99438 1.022151,2.99438 c 0.07207,0.20967 0.216224,0.33416 0.412791,0.33416 h 0.07863 c 0.196568,0 0.347269,-0.13104 0.419344,-0.33416 l 1.356315,-3.80031 c 0.01966,-0.0459 0.03931,-0.11138 0.03931,-0.1638 0,-0.21623 -0.183463,-0.38659 -0.399687,-0.38659 -0.196568,0 -0.334165,0.1245 -0.393135,0.2883 l -1.054912,3.15819 -1.035255,-3.13853 c -0.05897,-0.19001 -0.20312,-0.32106 -0.406239,-0.32106 h -0.05897 c -0.20312,0 -0.340717,0.13105 -0.40624,0.32106 l -1.035255,3.13853 -1.054911,-3.15163 c -0.05242,-0.17036 -0.20312,-0.29486 -0.399687,-0.29486 -0.222777,0 -0.412792,0.17036 -0.412792,0.39314 0,0.0524 0.0131,0.11139 0.03276,0.15725 z"
       style="font-style:normal;font-variant:normal;font-weight:300;font-stretch:normal;font-family:'Gotham Rounded';-inkscape-font-specification:'Gotham Rounded Light';text-align:center;text-anchor:middle;fill:#ffffff;fill-opacity:1;stroke:#ffffff;stroke-width:0.10001242;stroke-miterlimit:4;stroke-dasharray:none;stroke-opacity:1"
       id="path968" />
    <path
       d="m 18.978232,314.55247 c 0,0.20967 0.163806,0.37348 0.373478,0.37348 0.170359,0 0.307956,-0.0917 0.373478,-0.25554 l 0.386583,-0.88455 h 2.227764 l 0.373478,0.85834 c 0.07207,0.17036 0.203119,0.28175 0.393135,0.28175 0.216224,0 0.38003,-0.17036 0.38003,-0.38658 0,-0.0524 -0.0131,-0.11139 -0.04587,-0.17036 l -1.703584,-3.8003 c -0.09173,-0.20312 -0.248985,-0.32762 -0.478314,-0.32762 h -0.03931 c -0.229329,0 -0.393135,0.1245 -0.484867,0.32762 l -1.703584,3.8003 c -0.03276,0.0655 -0.05242,0.12449 -0.05242,0.18346 z m 1.441495,-1.48081 0.805926,-1.85428 0.805926,1.85428 z"
       style="font-style:normal;font-variant:normal;font-weight:300;font-stretch:normal;font-family:'Gotham Rounded';-inkscape-font-specification:'Gotham Rounded Light';text-align:center;text-anchor:middle;fill:#ffffff;fill-opacity:1;stroke:#ffffff;stroke-width:0.10001242;stroke-miterlimit:4;stroke-dasharray:none;stroke-opacity:1"
       id="path970" />
    <path
       d="m 25.637363,314.95871 h 0.04586 c 0.229329,0 0.380031,-0.12449 0.46521,-0.32761 l 1.611852,-3.8003 c 0.01966,-0.0459 0.03931,-0.11139 0.03931,-0.17036 0,-0.21623 -0.176911,-0.38659 -0.399687,-0.38659 -0.190015,0 -0.334165,0.1245 -0.386583,0.26209 l -1.34321,3.3351 -1.323554,-3.30889 c -0.06552,-0.17035 -0.20312,-0.2883 -0.412792,-0.2883 -0.229328,0 -0.406239,0.17692 -0.406239,0.39314 0,0.0721 0.01966,0.13104 0.04587,0.19001 l 1.6053,3.7741 c 0.08518,0.20312 0.235881,0.32761 0.458658,0.32761 z"
       style="font-style:normal;font-variant:normal;font-weight:300;font-stretch:normal;font-family:'Gotham Rounded';-inkscape-font-specification:'Gotham Rounded Light';text-align:center;text-anchor:middle;fill:#ffffff;fill-opacity:1;stroke:#ffffff;stroke-width:0.10001242;stroke-miterlimit:4;stroke-dasharray:none;stroke-opacity:1"
       id="path972" />
    <path
       d="m 29.053847,314.89319 h 2.699525 c 0.196568,0 0.360374,-0.15726 0.360374,-0.36038 0,-0.19656 -0.163806,-0.36037 -0.360374,-0.36037 h -2.299838 v -1.23182 h 1.972226 c 0.196568,0 0.360374,-0.15725 0.360374,-0.35382 0,-0.20312 -0.163806,-0.36693 -0.360374,-0.36693 h -1.972226 v -1.19251 h 2.267077 c 0.196568,0 0.360374,-0.15725 0.360374,-0.36037 0,-0.19657 -0.163806,-0.36037 -0.360374,-0.36037 h -2.666764 c -0.229329,0 -0.406239,0.17691 -0.406239,0.40624 v 3.77409 c 0,0.22933 0.17691,0.40624 0.406239,0.40624 z"
       style="font-style:normal;font-variant:normal;font-weight:300;font-stretch:normal;font-family:'Gotham Rounded';-inkscape-font-specification:'Gotham Rounded Light';text-align:center;text-anchor:middle;fill:#ffffff;fill-opacity:1;stroke:#ffffff;stroke-width:0.10001242;stroke-miterlimit:4;stroke-dasharray:none;stroke-opacity:1"
       id="path974" />
  </g>
  <g
     aria-label="PHASE"
     style="font-style:normal;font-variant:normal;font-weight:300;font-stretch:normal;font-size:6.96164751px;line-height:1.25;font-family:'Gotham Rounded';-inkscape-font-specification:'Gotham Rounded Light';letter-spacing:0px;word-spacing:0px;fill:#eaeae3;fill-opacity:1;stroke:none;stroke-width:1.00001252"
     id="text10534">
    <path
       d="m 10.918502,269.52513 c 0,0.23669 0.187964,0.42466 0.431622,0.42466 0.236696,0 0.424661,-0.18797 0.424661,-0.42466 v -1.17652 h 0.967669 c 1.072093,0 1.949261,-0.57086 1.949261,-1.66384 v -0.0139 c 0,-0.98159 -0.710088,-1.62903 -1.851798,-1.62903 h -1.489793 c -0.243658,0 -0.431622,0.18797 -0.431622,0.43163 z m 0.856283,-1.94927 v -1.75433 H 12.7703 c 0.640472,0 1.051209,0.29935 1.051209,0.87021 v 0.0139 c 0,0.5082 -0.403776,0.8702 -1.051209,0.8702 z"
       style="font-style:normal;font-variant:normal;font-weight:300;font-stretch:normal;font-family:'Gotham Rounded';-inkscape-font-specification:'Gotham Rounded Light';text-align:center;text-anchor:middle;fill:#eaeae3;fill-opacity:1;stroke-width:1.00001252"
       id="path957" />
    <path
       d="m 15.568665,269.52513 c 0,0.23669 0.187965,0.42466 0.431622,0.42466 0.236696,0 0.424661,-0.18797 0.424661,-0.42466 v -1.66384 h 2.32519 v 1.66384 c 0,0.23669 0.187965,0.42466 0.424661,0.42466 0.243657,0 0.431622,-0.18797 0.431622,-0.42466 v -4.09345 c 0,-0.2367 -0.187965,-0.42466 -0.431622,-0.42466 -0.236696,0 -0.424661,0.18796 -0.424661,0.42466 v 1.63598 h -2.32519 v -1.63598 c 0,-0.2367 -0.187965,-0.42466 -0.424661,-0.42466 -0.243657,0 -0.431622,0.18796 -0.431622,0.42466 z"
       style="font-style:normal;font-variant:normal;font-weight:300;font-stretch:normal;font-family:'Gotham Rounded';-inkscape-font-specification:'Gotham Rounded Light';text-align:center;text-anchor:middle;fill:#eaeae3;fill-opacity:1;stroke-width:1.00001252"
       id="path959" />
    <path
       d="m 20.523726,269.55297 c 0,0.22278 0.174042,0.39682 0.396814,0.39682 0.181003,0 0.327198,-0.0975 0.396814,-0.27151 l 0.410737,-0.93982 h 2.366961 l 0.396814,0.91198 c 0.07658,0.181 0.215811,0.29935 0.417698,0.29935 0.229735,0 0.403776,-0.18101 0.403776,-0.41074 0,-0.0557 -0.01392,-0.11835 -0.04873,-0.181 l -1.810028,-4.03776 c -0.09746,-0.21581 -0.264543,-0.34808 -0.5082,-0.34808 h -0.04177 c -0.243658,0 -0.417699,0.13227 -0.515162,0.34808 l -1.810028,4.03776 c -0.03481,0.0696 -0.05569,0.13227 -0.05569,0.19492 z m 1.531563,-1.57333 0.856283,-1.97015 0.856282,1.97015 z"
       style="font-style:normal;font-variant:normal;font-weight:300;font-stretch:normal;font-family:'Gotham Rounded';-inkscape-font-specification:'Gotham Rounded Light';text-align:center;text-anchor:middle;fill:#eaeae3;fill-opacity:1;stroke-width:1.00001252"
       id="path961" />
    <path
       d="m 27.893501,269.98459 c 1.023362,0 1.740411,-0.543 1.740411,-1.45498 v -0.0139 c 0,-0.80755 -0.529085,-1.17652 -1.559409,-1.42714 -0.939822,-0.22277 -1.162595,-0.38985 -1.162595,-0.76578 v -0.0139 c 0,-0.32023 0.292389,-0.57781 0.793628,-0.57781 0.382891,0 0.744896,0.12531 1.120825,0.36897 0.06962,0.0418 0.139233,0.0626 0.222773,0.0626 0.222773,0 0.403776,-0.17404 0.403776,-0.39681 0,-0.16708 -0.0905,-0.28543 -0.187965,-0.34112 -0.438584,-0.29239 -0.932861,-0.45251 -1.545486,-0.45251 -0.967669,0 -1.663833,0.57782 -1.663833,1.41321 v 0.0139 c 0,0.89805 0.584778,1.20436 1.622063,1.45498 0.905015,0.20885 1.099941,0.39681 1.099941,0.7449 v 0.0139 c 0,0.36201 -0.334159,0.61262 -0.863245,0.61262 -0.529085,0 -0.960707,-0.181 -1.364482,-0.50123 -0.05569,-0.0418 -0.132272,-0.0766 -0.25062,-0.0766 -0.222772,0 -0.403775,0.17404 -0.403775,0.39681 0,0.13924 0.06962,0.25758 0.167079,0.3272 0.543009,0.40378 1.169557,0.61262 1.830914,0.61262 z"
       style="font-style:normal;font-variant:normal;font-weight:300;font-stretch:normal;font-family:'Gotham Rounded';-inkscape-font-specification:'Gotham Rounded Light';text-align:center;text-anchor:middle;fill:#eaeae3;fill-opacity:1;stroke-width:1.00001252"
       id="path963" />
    <path
       d="m 31.079325,269.91498 h 2.868198 c 0.20885,0 0.382891,-0.16708 0.382891,-0.38289 0,-0.20885 -0.174041,-0.38289 -0.382891,-0.38289 h -2.443538 v -1.30879 h 2.095456 c 0.208849,0 0.382891,-0.16708 0.382891,-0.37593 0,-0.21581 -0.174042,-0.38985 -0.382891,-0.38985 h -2.095456 v -1.26702 h 2.40873 c 0.208849,0 0.382891,-0.16708 0.382891,-0.38289 0,-0.20885 -0.174042,-0.3829 -0.382891,-0.3829 h -2.83339 c -0.243658,0 -0.431623,0.18797 -0.431623,0.43163 v 4.00991 c 0,0.24365 0.187965,0.43162 0.431623,0.43162 z"
       style="font-style:normal;font-variant:normal;font-weight:300;font-stretch:normal;font-family:'Gotham Rounded';-inkscape-font-specification:'Gotham Rounded Light';text-align:center;text-anchor:middle;fill:#eaeae3;fill-opacity:1;stroke-width:1.00001252"
       id="path965" />
  </g>
  <g
     transform="matrix(0.44269805,0,0,0.44233665,-10.7028,22.21049)"
     id="g10554"
     style="stroke:#8a8a76;stroke-width:2.25979853;stroke-opacity:1"
     inkscape:transform-center-y="-1.6505928">
    <path
       style="fill:none;stroke:#8a8a76;stroke-width:1.58185899;stroke-linecap:butt;stroke-linejoin:miter;stroke-miterlimit:4;stroke-dasharray:none;stroke-opacity:1"
       d="M 75.001018,111.02563 V 74.287913"
       id="path10538"
       inkscape:connector-curvature="0"
       sodipodi:nodetypes="cc"
       inkscape:transform-center-y="-8.1252193" />
    <path
       id="path10540"
       style="opacity:1;fill:none;fill-opacity:1;stroke:#8a8a76;stroke-width:1.35587919;stroke-linecap:round;stroke-linejoin:round;stroke-miterlimit:4;stroke-dasharray:none;stroke-dashoffset:0;stroke-opacity:1"
       sodipodi:type="arc"
       sodipodi:cx="75.001015"
       sodipodi:cy="111.02563"
       sodipodi:rx="36.566761"
       sodipodi:ry="36.592316"
       sodipodi:start="2.3561945"
       sodipodi:end="0.78539816"
       d="m 49.14441,136.9003 a 36.566761,36.592316 0 0 1 0,-51.749348 36.566761,36.592316 0 0 1 51.71321,10e-7 36.566761,36.592316 0 0 1 0,51.749347"
       sodipodi:open="true" />
    <path
       inkscape:transform-center-x="14.637333"
       inkscape:transform-center-y="14.637335"
       style="fill:none;stroke:#8a8a76;stroke-width:1.58185899;stroke-linecap:butt;stroke-linejoin:miter;stroke-miterlimit:4;stroke-dasharray:none;stroke-opacity:1"
       d="M 75.001018,111.02563 45.726352,140.3003"
       id="path10542"
       inkscape:connector-curvature="0"
       sodipodi:nodetypes="cc" />
    <path
       sodipodi:nodetypes="cc"
       inkscape:connector-curvature="0"
       id="path10544"
       d="M 75.001018,111.02563 104.27569,140.3003"
       style="fill:none;stroke:#8a8a76;stroke-width:1.58185899;stroke-linecap:butt;stroke-linejoin:miter;stroke-miterlimit:4;stroke-dasharray:none;stroke-opacity:1"
       inkscape:transform-center-y="14.637335"
       inkscape:transform-center-x="-14.637336" />
    <path
       inkscape:transform-center-y="-5.7453977"
       sodipodi:nodetypes="cc"
       inkscape:connector-curvature="0"
       id="path10546"
       d="M 75.001018,111.02563 100.9573,85.048141"
       style="fill:none;stroke:#8a8a76;stroke-width:1.58185899;stroke-linecap:butt;stroke-linejoin:miter;stroke-miterlimit:4;stroke-dasharray:none;stroke-opacity:1"
       inkscape:transform-center-x="-5.7453977" />
    <path
       inkscape:transform-center-y="-3.1093869"
       sodipodi:nodetypes="cc"
       inkscape:connector-curvature="0"
       id="path10548"
       d="M 75.001018,111.02563 108.91453,96.966714"
       style="fill:none;stroke:#8a8a76;stroke-width:1.58185899;stroke-linecap:butt;stroke-linejoin:miter;stroke-miterlimit:4;stroke-dasharray:none;stroke-opacity:1"
       inkscape:transform-center-x="-7.5067228" />
    <path
       inkscape:transform-center-x="5.7453969"
       style="fill:none;stroke:#8a8a76;stroke-width:1.58185899;stroke-linecap:butt;stroke-linejoin:miter;stroke-miterlimit:4;stroke-dasharray:none;stroke-opacity:1"
       d="M 75.001021,111.02563 49.044736,85.048141"
       id="path10550"
       inkscape:connector-curvature="0"
       sodipodi:nodetypes="cc"
       inkscape:transform-center-y="-5.7453977" />
    <path
       inkscape:transform-center-x="7.506722"
       style="fill:none;stroke:#8a8a76;stroke-width:1.58185899;stroke-linecap:butt;stroke-linejoin:miter;stroke-miterlimit:4;stroke-dasharray:none;stroke-opacity:1"
       d="M 75.001021,111.02563 41.087506,96.966714"
       id="path10552"
       inkscape:connector-curvature="0"
       sodipodi:nodetypes="cc"
       inkscape:transform-center-y="-3.1093869" />
  </g>
  <g
     aria-label="SHIFT"
     style="font-style:normal;font-variant:normal;font-weight:300;font-stretch:normal;font-size:6.96164751px;line-height:1.25;font-family:'Gotham Rounded';-inkscape-font-specification:'Gotham Rounded Light';letter-spacing:0px;word-spacing:0px;fill:#eaeae3;fill-opacity:1;stroke:none;stroke-width:1.00001252"
     id="text10570">
    <path
       d="m 14.303331,188.98459 c 1.023362,0 1.740412,-0.543 1.740412,-1.45498 v -0.0139 c 0,-0.80755 -0.529085,-1.17652 -1.559409,-1.42714 -0.939822,-0.22277 -1.162595,-0.38985 -1.162595,-0.76578 v -0.0139 c 0,-0.32023 0.292389,-0.57781 0.793628,-0.57781 0.38289,0 0.744896,0.12531 1.120825,0.36897 0.06962,0.0418 0.139233,0.0627 0.222773,0.0627 0.222772,0 0.403775,-0.17404 0.403775,-0.39681 0,-0.16708 -0.0905,-0.28543 -0.187964,-0.34112 -0.438584,-0.29239 -0.932861,-0.45251 -1.545486,-0.45251 -0.967669,0 -1.663834,0.57782 -1.663834,1.41321 v 0.0139 c 0,0.89805 0.584779,1.20436 1.622064,1.45498 0.905014,0.20885 1.09994,0.39681 1.09994,0.7449 v 0.0139 c 0,0.36201 -0.334159,0.61262 -0.863244,0.61262 -0.529085,0 -0.960707,-0.181 -1.364483,-0.50123 -0.05569,-0.0418 -0.132271,-0.0766 -0.250619,-0.0766 -0.222773,0 -0.403776,0.17404 -0.403776,0.39681 0,0.13924 0.06962,0.25758 0.16708,0.3272 0.543008,0.40378 1.169557,0.61262 1.830913,0.61262 z"
       style="font-style:normal;font-variant:normal;font-weight:300;font-stretch:normal;font-family:'Gotham Rounded';-inkscape-font-specification:'Gotham Rounded Light';text-align:center;text-anchor:middle;fill:#eaeae3;fill-opacity:1;stroke-width:1.00001252"
       id="path946" />
    <path
       d="m 17.057533,188.52513 c 0,0.23669 0.187964,0.42466 0.431622,0.42466 0.236696,0 0.424661,-0.18797 0.424661,-0.42466 v -1.66384 h 2.32519 v 1.66384 c 0,0.23669 0.187964,0.42466 0.42466,0.42466 0.243658,0 0.431623,-0.18797 0.431623,-0.42466 v -4.09345 c 0,-0.2367 -0.187965,-0.42466 -0.431623,-0.42466 -0.236696,0 -0.42466,0.18796 -0.42466,0.42466 v 1.63598 h -2.32519 v -1.63598 c 0,-0.2367 -0.187965,-0.42466 -0.424661,-0.42466 -0.243658,0 -0.431622,0.18796 -0.431622,0.42466 z"
       style="font-style:normal;font-variant:normal;font-weight:300;font-stretch:normal;font-family:'Gotham Rounded';-inkscape-font-specification:'Gotham Rounded Light';text-align:center;text-anchor:middle;fill:#eaeae3;fill-opacity:1;stroke-width:1.00001252"
       id="path948" />
    <path
       d="m 22.395484,188.52513 c 0,0.23669 0.187965,0.42466 0.431623,0.42466 0.236696,0 0.42466,-0.18797 0.42466,-0.42466 v -4.09345 c 0,-0.2367 -0.187964,-0.42466 -0.42466,-0.42466 -0.243658,0 -0.431623,0.18796 -0.431623,0.42466 z"
       style="font-style:normal;font-variant:normal;font-weight:300;font-stretch:normal;font-family:'Gotham Rounded';-inkscape-font-specification:'Gotham Rounded Light';text-align:center;text-anchor:middle;fill:#eaeae3;fill-opacity:1;stroke-width:1.00001252"
       id="path950" />
    <path
       d="m 24.549462,188.52513 c 0,0.23669 0.187965,0.42466 0.431622,0.42466 0.236696,0 0.424661,-0.18797 0.424661,-0.42466 v -1.59422 h 2.102417 c 0.215811,0 0.389853,-0.17404 0.389853,-0.38985 0,-0.21581 -0.174042,-0.38986 -0.389853,-0.38986 h -2.102417 v -1.32967 h 2.415691 c 0.215811,0 0.389853,-0.17404 0.389853,-0.38985 0,-0.21581 -0.174042,-0.38986 -0.389853,-0.38986 h -2.840352 c -0.243657,0 -0.431622,0.18797 -0.431622,0.43163 z"
       style="font-style:normal;font-variant:normal;font-weight:300;font-stretch:normal;font-family:'Gotham Rounded';-inkscape-font-specification:'Gotham Rounded Light';text-align:center;text-anchor:middle;fill:#eaeae3;fill-opacity:1;stroke-width:1.00001252"
       id="path952" />
    <path
       d="m 30.315446,188.52513 c 0,0.23669 0.194926,0.42466 0.431622,0.42466 0.236696,0 0.431622,-0.18797 0.431622,-0.42466 v -3.68968 h 1.190442 c 0.215811,0 0.389852,-0.181 0.389852,-0.39681 0,-0.21581 -0.174041,-0.39682 -0.389852,-0.39682 h -3.237166 c -0.222773,0 -0.396814,0.18101 -0.396814,0.39682 0,0.21581 0.174041,0.39681 0.396814,0.39681 h 1.18348 z"
       style="font-style:normal;font-variant:normal;font-weight:300;font-stretch:normal;font-family:'Gotham Rounded';-inkscape-font-specification:'Gotham Rounded Light';text-align:center;text-anchor:middle;fill:#eaeae3;fill-opacity:1;stroke-width:1.00001252"
       id="path954" />
  </g>
  <g
     transform="matrix(0.40857815,0,0,0.40818205,-8.1431,196.0072)"
     id="g10600"
     style="stroke:#8a8a76;stroke-width:2.44869947;stroke-opacity:1"
     inkscape:transform-center-y="-1.5231395"
     inkscape:transform-center-x="-2.8782142e-06">
    <path
       style="fill:none;stroke:#8a8a76;stroke-width:1.71408963;stroke-linecap:butt;stroke-linejoin:miter;stroke-miterlimit:4;stroke-dasharray:none;stroke-opacity:1"
       d="M 75.001018,111.02563 V 74.287913"
       id="path10572"
       inkscape:connector-curvature="0"
       sodipodi:nodetypes="cc"
       inkscape:transform-center-y="-7.5001291"
       inkscape:transform-center-x="-7.1825567e-06" />
    <path
       id="path10574"
       style="opacity:1;fill:none;fill-opacity:1;stroke:#8a8a76;stroke-width:1.46921968;stroke-linecap:round;stroke-linejoin:round;stroke-miterlimit:4;stroke-dasharray:none;stroke-dashoffset:0;stroke-opacity:1"
       sodipodi:type="arc"
       sodipodi:cx="75.001015"
       sodipodi:cy="111.02563"
       sodipodi:rx="36.566761"
       sodipodi:ry="36.592316"
       sodipodi:start="2.3561945"
       sodipodi:end="0.78539816"
       d="m 49.14441,136.9003 a 36.566761,36.592316 0 0 1 0,-51.749348 36.566761,36.592316 0 0 1 51.71321,10e-7 36.566761,36.592316 0 0 1 0,51.749347"
       sodipodi:open="true" />
    <path
       inkscape:transform-center-x="14.637333"
       inkscape:transform-center-y="14.637335"
       style="fill:none;stroke:#8a8a76;stroke-width:1.71408963;stroke-linecap:butt;stroke-linejoin:miter;stroke-miterlimit:4;stroke-dasharray:none;stroke-opacity:1"
       d="M 75.001018,111.02563 45.726352,140.3003"
       id="path10576"
       inkscape:connector-curvature="0"
       sodipodi:nodetypes="cc" />
    <path
       sodipodi:nodetypes="cc"
       inkscape:connector-curvature="0"
       id="path10578"
       d="M 75.001018,111.02563 104.27569,140.3003"
       style="fill:none;stroke:#8a8a76;stroke-width:1.71408963;stroke-linecap:butt;stroke-linejoin:miter;stroke-miterlimit:4;stroke-dasharray:none;stroke-opacity:1"
       inkscape:transform-center-y="14.637335"
       inkscape:transform-center-x="-14.637336" />
    <path
       inkscape:transform-center-x="-5.3033967"
       inkscape:transform-center-y="-5.3033864"
       sodipodi:nodetypes="cc"
       inkscape:connector-curvature="0"
       id="path10580"
       d="M 75.004977,111.02729 100.95728,85.049797"
       style="fill:none;stroke:#8a8a76;stroke-width:1.71408963;stroke-linecap:butt;stroke-linejoin:miter;stroke-miterlimit:4;stroke-dasharray:none;stroke-opacity:1" />
    <path
       style="fill:none;stroke:#8a8a76;stroke-width:1.71408963;stroke-linecap:butt;stroke-linejoin:miter;stroke-miterlimit:4;stroke-dasharray:none;stroke-opacity:1"
       d="M 75.006604,111.03126 H 111.70871"
       id="path10582"
       inkscape:connector-curvature="0"
       sodipodi:nodetypes="cc"
       inkscape:transform-center-y="7.2560389e-06"
       inkscape:transform-center-x="-7.5001288" />
    <path
       inkscape:transform-center-x="-4.7599359"
       inkscape:transform-center-y="-7.1222864"
       sodipodi:nodetypes="cc"
       inkscape:connector-curvature="0"
       id="path10584"
       d="m 95.396148,80.419221 2.827658,-4.235136"
       style="fill:none;stroke:#8a8a76;stroke-width:1.71408963;stroke-linecap:butt;stroke-linejoin:miter;stroke-miterlimit:4;stroke-dasharray:none;stroke-opacity:1" />
    <path
       style="fill:none;stroke:#8a8a76;stroke-width:1.71408963;stroke-linecap:butt;stroke-linejoin:miter;stroke-miterlimit:4;stroke-dasharray:none;stroke-opacity:1"
       d="m 109.04627,96.93303 4.62163,-1.915808"
       id="path10586"
       inkscape:connector-curvature="0"
       sodipodi:nodetypes="cc"
       inkscape:transform-center-y="-3.2780244"
       inkscape:transform-center-x="-7.915475" />
    <path
       inkscape:transform-center-x="-8.4030198"
       inkscape:transform-center-y="1.6711316"
       sodipodi:nodetypes="cc"
       inkscape:connector-curvature="0"
       id="path10588"
       d="m 111.08338,118.27377 4.97071,0.9895"
       style="fill:none;stroke:#8a8a76;stroke-width:1.71408963;stroke-linecap:butt;stroke-linejoin:miter;stroke-miterlimit:4;stroke-dasharray:none;stroke-opacity:1" />
    <path
       style="fill:none;stroke:#8a8a76;stroke-width:1.71408963;stroke-linecap:butt;stroke-linejoin:miter;stroke-miterlimit:4;stroke-dasharray:none;stroke-opacity:1"
       d="M 74.997061,111.02729 49.044758,85.049797"
       id="path10590"
       inkscape:connector-curvature="0"
       sodipodi:nodetypes="cc"
       inkscape:transform-center-y="-5.3010956"
       inkscape:transform-center-x="5.3033896" />
    <path
       inkscape:transform-center-x="7.5001217"
       inkscape:transform-center-y="0.0022980649"
       sodipodi:nodetypes="cc"
       inkscape:connector-curvature="0"
       id="path10592"
       d="M 74.995434,111.03126 H 38.293328"
       style="fill:none;stroke:#8a8a76;stroke-width:1.71408963;stroke-linecap:butt;stroke-linejoin:miter;stroke-miterlimit:4;stroke-dasharray:none;stroke-opacity:1" />
    <path
       style="fill:none;stroke:#8a8a76;stroke-width:1.71408963;stroke-linecap:butt;stroke-linejoin:miter;stroke-miterlimit:4;stroke-dasharray:none;stroke-opacity:1"
       d="M 54.60589,80.419221 51.778232,76.184085"
       id="path10594"
       inkscape:connector-curvature="0"
       sodipodi:nodetypes="cc"
       inkscape:transform-center-y="-13.35734"
       inkscape:transform-center-x="8.9106642" />
    <path
       inkscape:transform-center-x="14.854295"
       inkscape:transform-center-y="-6.1433456"
       sodipodi:nodetypes="cc"
       inkscape:connector-curvature="0"
       id="path10596"
       d="m 40.955768,96.93303 -4.62163,-1.915808"
       style="fill:none;stroke:#8a8a76;stroke-width:1.71408963;stroke-linecap:butt;stroke-linejoin:miter;stroke-miterlimit:4;stroke-dasharray:none;stroke-opacity:1" />
    <path
       style="fill:none;stroke:#8a8a76;stroke-width:1.71408963;stroke-linecap:butt;stroke-linejoin:miter;stroke-miterlimit:4;stroke-dasharray:none;stroke-opacity:1"
       d="m 38.918658,118.27377 -4.97071,0.9895"
       id="path10598"
       inkscape:connector-curvature="0"
       sodipodi:nodetypes="cc"
       inkscape:transform-center-y="3.1605087"
       inkscape:transform-center-x="15.757926" />
  </g>
  <path
     inkscape:export-ydpi="192"
     inkscape:export-xdpi="192"
     sodipodi:nodetypes="cc"
     inkscape:connector-curvature="0"
     id="path10616"
     d="M 22.5,226.3125 V 213"
     style="fill:none;stroke:#8a8a76;stroke-width:0.69999999;stroke-linecap:butt;stroke-linejoin:miter;stroke-miterlimit:4;stroke-dasharray:none;stroke-opacity:1" />
  <g
     aria-label="PWM"
     style="font-style:normal;font-variant:normal;font-weight:300;font-stretch:normal;font-size:8.52938557px;line-height:1.25;font-family:'Gotham Rounded';-inkscape-font-specification:'Gotham Rounded Light';letter-spacing:0px;word-spacing:0px;fill:#eaeae3;fill-opacity:1;stroke:none;stroke-width:1.00001252"
     id="text10620">
    <path
       d="m 11.950851,46.550614 c 0,0.289999 0.230293,0.520292 0.528822,0.520292 0.289999,0 0.520292,-0.230293 0.520292,-0.520292 v -1.441466 h 1.185585 c 1.313525,0 2.388228,-0.69941 2.388228,-2.038524 v -0.01706 c 0,-1.202644 -0.869997,-1.995877 -2.268817,-1.995877 h -1.825288 c -0.298529,0 -0.528822,0.230294 -0.528822,0.528822 z m 1.049114,-2.388228 v -2.149405 h 1.219703 c 0.784703,0 1.287937,0.366763 1.287937,1.066173 v 0.01706 c 0,0.622645 -0.494705,1.066173 -1.287937,1.066173 z"
       style="text-align:center;text-anchor:middle;fill:#eaeae3;fill-opacity:1;stroke-width:1.00001252"
       id="path939" />
    <path
       d="m 18.997056,46.678554 c 0.102353,0.272941 0.289999,0.434999 0.545881,0.434999 h 0.102353 c 0.255881,0 0.452057,-0.162058 0.54588,-0.434999 l 1.330584,-3.897929 1.330585,3.897929 c 0.09382,0.272941 0.281469,0.434999 0.537351,0.434999 h 0.102353 c 0.255881,0 0.452057,-0.170588 0.54588,-0.434999 l 1.765583,-4.947043 c 0.02559,-0.05971 0.05118,-0.145 0.05118,-0.213235 0,-0.28147 -0.238822,-0.503234 -0.520292,-0.503234 -0.255882,0 -0.434999,0.162059 -0.511763,0.375293 l -1.373231,4.111164 -1.347643,-4.085575 c -0.07676,-0.247353 -0.264411,-0.41794 -0.528822,-0.41794 h -0.07677 c -0.264411,0 -0.443528,0.170587 -0.528822,0.41794 l -1.347643,4.085575 -1.373231,-4.102634 c -0.06823,-0.221764 -0.264411,-0.383823 -0.520292,-0.383823 -0.289999,0 -0.537351,0.221764 -0.537351,0.511764 0,0.06824 0.01706,0.144999 0.04265,0.204705 z"
       style="text-align:center;text-anchor:middle;fill:#eaeae3;fill-opacity:1;stroke-width:1.00001252"
       id="path941" />
    <path
       d="m 26.97723,46.559143 c 0,0.289999 0.221764,0.511763 0.511763,0.511763 0.289999,0 0.520292,-0.221764 0.520292,-0.511763 v -3.573812 l 1.449996,2.174993 c 0.110882,0.170588 0.247352,0.27294 0.434999,0.27294 0.196175,0 0.332646,-0.102352 0.443528,-0.27294 l 1.458525,-2.192052 v 3.582342 c 0,0.281469 0.238822,0.520292 0.520292,0.520292 0.298529,0 0.528822,-0.230293 0.528822,-0.520292 v -4.99822 c 0,-0.289999 -0.230293,-0.528822 -0.528822,-0.528822 h -0.110882 c -0.213235,0 -0.366764,0.09382 -0.477646,0.27294 l -1.816759,2.840286 -1.808229,-2.831756 c -0.102353,-0.162059 -0.255882,-0.28147 -0.486175,-0.28147 h -0.110882 c -0.298529,0 -0.528822,0.238823 -0.528822,0.528822 z"
       style="text-align:center;text-anchor:middle;fill:#eaeae3;fill-opacity:1;stroke-width:1.00001252"
       id="path943" />
  </g>
</svg>
