<?xml version="1.0" encoding="UTF-8"?>
<svg width="900" height="380" version="1.1" viewBox="0 0 900 380" xmlns="http://www.w3.org/2000/svg">
 <path d="m0 0h900v380h-900z" fill="#202223"/>
 <path d="m454.4 358.1c-1.479 1.661-4.45 4.734-9.057 5.604l-4e-3 -0.0137c-1.103 0.3262-2.181 0.545-2.996 0.6172-0.364 0.0322-0.6462 0.0252-0.8652 6e-3 0.3616-0.2997 1.078-0.7228 1.982-1.154 1.914-0.913 4.391-1.825 5.848-3.068l-0.0117-0.0137c0.019-0.0189 0.0596-0.0277 0.0781-0.0469l-1.275-1.357c-0.4742 0.4046-1.75 0.9328-2.76 1.422-0.8674 0.317-1.789 0.633-2.838 0.873-2.606 0.5964-5.53 0.8383-7.311 0.4727l-0.375 1.826c1.491 0.3063 3.301 0.2081 5.145-0.0234-0.2468 0.2574-0.506 0.5152-0.582 0.9414-0.0959 0.5376 0.1713 1.134 0.5469 1.484 0.3885 0.363 0.8012 0.4423 1.219 0.4941 0.4175 0.0519 0.8673 0.0439 1.363 0 0.8925-0.079 1.935-0.2973 3.008-0.5957v4e-3c0.9074-0.1602 1.678-0.4756 2.473-0.7637l0.5938 1.213c1.015-0.4012 2.382-0.7762 3.637-0.8711s2.344 0.1123 2.949 0.6113l1.188-1.438c-1.139-0.9399-2.641-1.113-4.098-1.025 1.344-1.195 2.546-2.504 3.488-3.916 0.01-0.0111 0.0371-0.032 0.0469-0.043l-6e-3 -4e-3c0.025-0.0378 0.0652-0.0696 0.0898-0.1074zm3.432 0.502c-1.733 2.152-1.388 4.673 0.0625 6.07 1.451 1.397 3.884 1.801 5.928 0.4922l-1.037-1.621c-1.316 0.8432-2.739 0.5293-3.557-0.2578-0.551-0.5305-0.6638-1.286-0.4375-2.154 0.5133 0.5723 1.086 1.064 1.762 1.389 1.194 0.5742 2.598 0.6971 4.104 0.3926l-0.3809-1.887c-1.189 0.2405-2.119 0.1279-2.889-0.2422-0.7698-0.3701-1.42-1.021-1.955-2.029z" color="#000000" color-rendering="auto" dominant-baseline="auto" fill="#eaeae3" image-rendering="auto" shape-rendering="auto" solid-color="#000000" style="font-feature-settings:normal;font-variant-alternates:normal;font-variant-caps:normal;font-variant-ligatures:normal;font-variant-numeric:normal;font-variant-position:normal;isolation:auto;mix-blend-mode:normal;shape-padding:0;text-decoration-color:#000000;text-decoration-line:none;text-decoration-style:solid;text-indent:0;text-orientation:mixed;text-transform:none;white-space:normal"/>
 <g fill-opacity=".3765">
  <rect x="13" y="3.005" width="19" height="9" rx="4.5" ry="4.5"/>
  <rect x="13" y="368" width="19" height="9" rx="4.5" ry="4.5"/>
  <rect x="868" y="368" width="19" height="9" rx="4.5" ry="4.5"/>
  <rect x="868" y="3.005" width="19" height="9" rx="4.5" ry="4.5"/>
 </g>
 <g fill="none">
  <g stroke="#8a8a76" stroke-width=".7">
   <path d="m347.5 327v-21"/>
   <path d="m381.5 327v-21"/>
   <path d="m415.5 327v-21"/>
   <path d="m449.5 327v-21"/>
   <path d="m483.5 327v-21"/>
   <path d="m517.5 327v-21"/>
   <path d="m551.5 327v-21"/>
  </g>
  <g stroke="#eaeae3" stroke-linecap="round" stroke-width="1px">
   <path d="m515 293.5h5"/>
   <path d="m517.5 291v5"/>
   <path d="m480.6 295.6c2.855-0.1746 5.043-1.262 5.875-4.203"/>
  </g>
 </g>
 <g fill="#585a4e">
  <rect x="332.8" y="317" width="29.37" height="30.53" rx="2.652" ry="2.652"/>
  <rect x="366.8" y="317" width="29.37" height="30.53" rx="2.652" ry="2.652"/>
  <rect x="400.7" y="317" width="29.37" height="30.53" rx="2.652" ry="2.652"/>
  <rect x="434.7" y="317" width="29.37" height="30.53" rx="2.652" ry="2.652"/>
  <rect x="468.6" y="317" width="29.37" height="30.53" rx="2.652" ry="2.652"/>
  <rect x="502.5" y="317" width="29.37" height="30.53" rx="2.652" ry="2.652"/>
  <rect x="536.5" y="317" width="29.37" height="30.53" rx="2.652" ry="2.652"/>
 </g>
 <g fill="none">
  <path d="m237 62.51h-130" stroke="#8a8a76" stroke-width=".7"/>
  <g stroke="#eaeae3" stroke-linecap="round" stroke-width="1px">
   <path d="m129 269.5h5"/>
   <path d="m131.6 267.2-2.602 2.286 2.602 2.286" stroke-linejoin="round"/>
   <path d="m204 269.5h-5"/>
   <path d="m201.4 267.2 2.602 2.286-2.602 2.286" stroke-linejoin="round"/>
  </g>
  <g stroke="#8a8a76" stroke-width=".7">
   <path d="m137 289.5h14.5"/>
   <path d="m181.5 289.5h13.5"/>
   <path d="m47 93.51h-13"/>
   <path d="m281 72.48c-15.97-8.966-25.15-10.14-36.28-9.969"/>
   <path d="m166.5 86.01v-15"/>
   <path d="m236.5 83.01v-12"/>
   <path d="m201.5 83.01v-12"/>
   <path d="m87 93.51h-11"/>
   <path d="m96.5 86.01v-15"/>
   <path d="m94.21 80.39 2.286-2.602 2.286 2.602" stroke-linecap="round" stroke-linejoin="round"/>
   <path d="m26.5 86.01v-15"/>
   <path d="m79.43 91.22 2.602 2.286-2.602 2.286" stroke-linecap="round" stroke-linejoin="round"/>
   <path d="m41.26 91.22 2.602 2.286-2.602 2.286" stroke-linecap="round" stroke-linejoin="round"/>
   <path d="m61.5 86.01v-15"/>
   <g stroke-linecap="round" stroke-linejoin="round">
    <path d="m113.8 60.22 2.602 2.286-2.602 2.286"/>
    <path d="m145.9 60.22 2.602 2.286-2.602 2.286"/>
    <path d="m184.9 60.22 2.602 2.286-2.602 2.286"/>
    <path d="m217.9 60.22 2.602 2.286-2.602 2.286"/>
    <path d="m251.1 60.32 2.48 2.419-2.717 2.148"/>
   </g>
   <path d="m166.5 119v-18"/>
  </g>
  <g stroke="#eaeae3" stroke-linecap="round" stroke-width="1px">
   <path d="m94 212.5h5"/>
   <path d="m96.6 210.2-2.602 2.286 2.602 2.286" stroke-linejoin="round"/>
   <path d="m204 212.5h-5"/>
   <path d="m201.4 210.2 2.602 2.286-2.602 2.286" stroke-linejoin="round"/>
   <path d="m166.5 210v5"/>
   <path d="m168.8 212.6-2.286-2.602-2.286 2.602" stroke-linejoin="round"/>
   <path d="m131.5 215v-5"/>
   <path d="m133.8 212.4-2.286 2.602-2.286-2.602" stroke-linejoin="round"/>
  </g>
  <g stroke="#8a8a76" stroke-width=".7">
   <path d="m52 138.5h-18"/>
   <path d="m191 232.5h-84"/>
   <path d="m321 255.5h-309"/>
   <path d="m53 232.5h-18"/>
   <path d="m138 331.5h21"/>
   <path d="m174 331.5h21"/>
  </g>
  <g stroke="#eaeae3" stroke-linecap="round" stroke-width="1px">
   <path d="m129 311.5h5"/>
   <path d="m199 311.5h5"/>
   <path d="m201.5 309v5"/>
  </g>
  <g stroke="#8a8a76">
   <path d="m19.07 276.7c-1.059 0.6205-2.036 1.371-2.908 2.234-5.741 5.74-5.741 15.05 0 20.79m20.79 0c5.741-5.74 5.741-15.05 0-20.79-0.8681-0.8623-1.84-1.613-2.895-2.234" stroke-linecap="round" stroke-linejoin="round" stroke-width=".6"/>
   <path d="m26.56 289.3-11.77 11.76" stroke-width=".7"/>
   <path d="m26.56 289.3 11.77 11.76" stroke-width=".7"/>
   <path d="m54.07 276.7c-1.059 0.6205-2.036 1.371-2.908 2.234-5.741 5.74-5.741 15.05 0 20.79m20.79 0c5.741-5.74 5.741-15.05 0-20.79-0.8681-0.8623-1.84-1.613-2.895-2.234" stroke-linecap="round" stroke-linejoin="round" stroke-width=".6"/>
   <path d="m61.56 289.3-11.77 11.76" stroke-width=".7"/>
   <path d="m61.56 289.3 11.77 11.76" stroke-width=".7"/>
  </g>
 </g>
 <g fill="#585a4e">
  <rect x="292" y="158.7" width="29.08" height="43.22" rx="2.652" ry="2.652"/>
  <rect x="257" y="158.7" width="29.08" height="43.22" rx="2.652" ry="2.652"/>
  <rect x="292" y="110.7" width="29.08" height="43.22" rx="2.652" ry="2.652"/>
  <rect x="257" y="110.7" width="29.08" height="43.22" rx="2.652" ry="2.652"/>
  <rect x="46.96" y="158.7" width="29.08" height="43.22" rx="2.652" ry="2.652"/>
  <rect x="11.96" y="158.7" width="29.08" height="43.22" rx="2.652" ry="2.652"/>
 </g>
 <g fill="none" stroke="#8a8a76">
  <path d="m54.07 80.69c-1.059 0.6205-2.036 1.371-2.908 2.234-5.741 5.74-5.741 15.05 0 20.79m20.79 0c5.741-5.74 5.741-15.05 0-20.79-0.8681-0.8623-1.84-1.613-2.895-2.234" stroke-linecap="round" stroke-linejoin="round" stroke-width=".6"/>
  <g stroke-width=".7">
   <path d="m61.56 93.32-11.77 11.76"/>
   <path d="m61.56 93.32 11.77 11.76"/>
   <circle cx="312.3" cy="56.43" r="2.563" stroke-linecap="round" stroke-linejoin="round"/>
   <path d="m309.5 59.31 5.656-5.656" stroke-linecap="round"/>
   <path d="m628.5 142v-11"/>
   <path d="m628.5 111v-9"/>
   <path d="m628.5 241v-13"/>
   <path d="m628.5 327v-21"/>
   <path d="m628.5 209v-14"/>
  </g>
 </g>
 <rect x="613.5" y="317" width="29.37" height="30.53" rx="2.652" ry="2.652" fill="#585a4e"/>
 <g fill="none" stroke="#8a8a76" stroke-width=".7">
  <path d="m663.5 142v-11"/>
  <path d="m663.5 111v-9"/>
  <path d="m663.5 241v-13"/>
  <path d="m663.5 327v-21"/>
  <path d="m663.5 209v-14"/>
 </g>
 <rect x="648.5" y="317" width="29.37" height="30.53" rx="2.652" ry="2.652" fill="#585a4e"/>
 <g fill="none" stroke="#8a8a76" stroke-width=".7">
  <path d="m698.5 142v-11"/>
  <path d="m698.5 111v-9"/>
  <path d="m698.5 241v-13"/>
  <path d="m698.5 327v-21"/>
  <path d="m698.5 209v-14"/>
 </g>
 <rect x="683.5" y="317" width="29.37" height="30.53" rx="2.652" ry="2.652" fill="#585a4e"/>
 <g fill="none" stroke="#8a8a76" stroke-width=".7">
  <path d="m733.5 142v-11"/>
  <path d="m733.5 111v-9"/>
  <path d="m733.5 241v-13"/>
  <path d="m733.5 327v-21"/>
  <path d="m733.5 209v-14"/>
 </g>
 <rect x="718.5" y="317" width="29.37" height="30.53" rx="2.652" ry="2.652" fill="#585a4e"/>
 <g fill="none" stroke="#8a8a76" stroke-width=".7">
  <path d="m768.5 142v-11"/>
  <path d="m768.5 111v-9"/>
  <path d="m768.5 241v-13"/>
  <path d="m768.5 327v-21"/>
  <path d="m768.5 209v-14"/>
 </g>
 <rect x="753.5" y="317" width="29.37" height="30.53" rx="2.652" ry="2.652" fill="#585a4e"/>
 <g fill="none" stroke="#8a8a76" stroke-width=".7">
  <path d="m803.5 142v-11"/>
  <path d="m803.5 111v-9"/>
  <path d="m803.5 241v-13"/>
  <path d="m803.5 327v-21"/>
  <path d="m803.5 209v-14"/>
 </g>
 <rect x="788.5" y="317" width="29.37" height="30.53" rx="2.652" ry="2.652" fill="#585a4e"/>
 <g fill="none" stroke="#8a8a76" stroke-width=".7">
  <path d="m838.5 142v-11"/>
  <path d="m838.5 111v-9"/>
  <path d="m838.5 241v-13"/>
  <path d="m838.5 327v-21"/>
  <path d="m838.5 209v-14"/>
 </g>
 <rect x="823.5" y="317" width="29.37" height="30.53" rx="2.652" ry="2.652" fill="#585a4e"/>
 <g fill="none" stroke="#8a8a76" stroke-width=".7">
  <path d="m873.5 142v-11"/>
  <path d="m873.5 111v-9"/>
  <path d="m873.5 241v-13"/>
  <path d="m873.5 327v-21"/>
  <path d="m873.5 209v-14"/>
 </g>
 <rect x="858.5" y="317" width="29.37" height="30.53" rx="2.652" ry="2.652" fill="#585a4e"/>
 <g fill="#eaeae3">
  <g aria-label="GATE">
   <path d="m341.8 293.4h0.8563v1.942q-0.3759 0.2994-0.8772 0.4595-0.5012 0.1601-1.03 0.1601-0.7449 0-1.344-0.3202-0.5987-0.3272-0.9398-0.8981-0.3411-0.5708-0.3411-1.288t0.3411-1.288q0.3411-0.5709 0.9398-0.8911 0.6057-0.3272 1.358-0.3272 0.6126 0 1.114 0.2019 0.5012 0.2019 0.8424 0.5917l-0.5709 0.5569q-0.5569-0.5569-1.344-0.5569-0.5152 0-0.9189 0.2158-0.3968 0.2158-0.6266 0.6057-0.2228 0.3898-0.2228 0.8911 0 0.4873 0.2228 0.8772 0.2297 0.3898 0.6266 0.6126 0.4038 0.2228 0.912 0.2228 0.5709 0 1.002-0.2506z"/>
   <path d="m347 294.8h-2.437l-0.4804 1.128h-0.9329l2.193-4.873h0.8911l2.2 4.873h-0.9468zm-0.2994-0.7101-0.9189-2.13-0.912 2.13z"/>
   <path d="m349.8 291.8h-1.615v-0.7658h4.135v0.7658h-1.615v4.107h-0.905z"/>
   <path d="m356.6 295.2v0.7588h-3.655v-4.873h3.557v0.7588h-2.652v1.267h2.353v0.7449h-2.353v1.344z"/>
  </g>
  <g aria-label="V">
   <path d="m384 291.1-2.123 4.873h-0.8911l-2.13-4.873h0.9816l1.622 3.759 1.636-3.759z" fill="#eaeae3"/>
  </g>
  <g aria-label="SHIFT">
   <path d="m407.1 296q-0.5639 0-1.093-0.1601-0.5221-0.1601-0.8284-0.4247l0.3133-0.7031q0.2994 0.2367 0.731 0.3898 0.4386 0.1462 0.8772 0.1462 0.543 0 0.8076-0.174 0.2715-0.174 0.2715-0.4595 0-0.2088-0.1532-0.3411-0.1462-0.1392-0.3759-0.2158t-0.6266-0.174q-0.5569-0.1323-0.905-0.2645-0.3411-0.1323-0.5917-0.4107-0.2436-0.2854-0.2436-0.7658 0-0.4038 0.2158-0.731 0.2228-0.3342 0.6614-0.5291 0.4456-0.1949 1.086-0.1949 0.4456 0 0.8772 0.1114t0.7449 0.3202l-0.2854 0.7031q-0.3202-0.188-0.6683-0.2854-0.3481-0.0975-0.6753-0.0975-0.536 0-0.8006 0.181-0.2576 0.181-0.2576 0.4804 0 0.2088 0.1462 0.3411 0.1532 0.1323 0.3829 0.2088 0.2297 0.0766 0.6266 0.174 0.543 0.1253 0.8911 0.2646 0.3481 0.1323 0.5917 0.4107 0.2506 0.2785 0.2506 0.7519 0 0.4038-0.2228 0.731-0.2158 0.3272-0.6614 0.5221-0.4455 0.1949-1.086 0.1949z"/>
   <path d="m414.3 291.1v4.873h-0.905v-2.088h-2.52v2.088h-0.905v-4.873h0.905v2.012h2.52v-2.012z"/>
   <path d="m415.6 291.1h0.905v4.873h-0.905z"/>
   <path d="m418.7 291.8v1.483h2.353v0.7658h-2.353v1.866h-0.905v-4.873h3.557v0.7588z"/>
   <path d="m423.3 291.8h-1.615v-0.7658h4.135v0.7658h-1.615v4.107h-0.905z"/>
  </g>
  <g aria-label="LEN">
   <path d="m442.8 291.1h0.905v4.107h2.548v0.7658h-3.453z"/>
   <path d="m450.6 295.2v0.7588h-3.655v-4.873h3.557v0.7588h-2.652v1.267h2.353v0.7449h-2.353v1.344z"/>
   <path d="m456 291.1v4.873h-0.7449l-2.687-3.3v3.3h-0.898v-4.873h0.7449l2.687 3.3v-3.3z"/>
  </g>
  <g aria-label="EXPR">
   <path d="m496 295.2v0.7588h-3.655v-4.873h3.557v0.7588h-2.652v1.267h2.353v0.7449h-2.353v1.344z"/>
   <path d="m500.1 295.9-1.323-1.852-1.309 1.852h-1.03l1.81-2.485-1.713-2.388h1.023l1.246 1.733 1.232-1.733h0.9816l-1.706 2.353 1.831 2.52z"/>
   <path d="m503.7 291.1q0.6335 0 1.1 0.2088 0.4734 0.2088 0.724 0.5987t0.2506 0.9259q0 0.5291-0.2506 0.9259-0.2506 0.3899-0.724 0.5987-0.4664 0.2088-1.1 0.2088h-1.1v1.406h-0.905v-4.873zm-0.0418 2.701q0.5917 0 0.898-0.2506t0.3063-0.717-0.3063-0.717-0.898-0.2506h-1.058v1.935z"/>
   <path d="m509.8 295.9-0.9955-1.427q-0.0627 7e-3 -0.188 7e-3h-1.1v1.42h-0.905v-4.873h2.005q0.6335 0 1.1 0.2088 0.4734 0.2088 0.724 0.5987t0.2506 0.9259q0 0.55-0.2715 0.9468-0.2645 0.3968-0.7658 0.5917l1.121 1.601zm-0.0209-3.14q0-0.4664-0.3063-0.717t-0.8981-0.2506h-1.058v1.942h1.058q0.5917 0 0.8981-0.2506 0.3063-0.2576 0.3063-0.724z"/>
  </g>
  <g aria-label="PHASE">
   <path d="m541.6 291.1q0.6335 0 1.1 0.2088 0.4734 0.2088 0.724 0.5987t0.2506 0.9259q0 0.5291-0.2506 0.9259-0.2506 0.3899-0.724 0.5987-0.4664 0.2088-1.1 0.2088h-1.1v1.406h-0.905v-4.873zm-0.0418 2.701q0.5917 0 0.8981-0.2506 0.3063-0.2506 0.3063-0.717t-0.3063-0.717q-0.3063-0.2506-0.8981-0.2506h-1.058v1.935z"/>
   <path d="m548.9 291.1v4.873h-0.905v-2.088h-2.52v2.088h-0.905v-4.873h0.905v2.012h2.52v-2.012z"/>
   <path d="m553.4 294.8h-2.437l-0.4804 1.128h-0.9329l2.193-4.873h0.8911l2.2 4.873h-0.9468zm-0.2994-0.7101-0.9189-2.13-0.912 2.13z"/>
   <path d="m557 296q-0.5639 0-1.093-0.1601-0.5221-0.1601-0.8284-0.4247l0.3133-0.7031q0.2994 0.2367 0.731 0.3898 0.4386 0.1462 0.8772 0.1462 0.543 0 0.8076-0.174 0.2715-0.174 0.2715-0.4595 0-0.2088-0.1532-0.3411-0.1462-0.1392-0.3759-0.2158t-0.6265-0.174q-0.5569-0.1323-0.905-0.2645-0.3411-0.1323-0.5917-0.4107-0.2437-0.2854-0.2437-0.7658 0-0.4038 0.2158-0.731 0.2228-0.3342 0.6614-0.5291 0.4456-0.1949 1.086-0.1949 0.4455 0 0.8772 0.1114 0.4316 0.1114 0.7449 0.3202l-0.2854 0.7031q-0.3202-0.188-0.6683-0.2854-0.3481-0.0975-0.6753-0.0975-0.536 0-0.8006 0.181-0.2576 0.181-0.2576 0.4804 0 0.2088 0.1462 0.3411 0.1532 0.1323 0.3829 0.2088 0.2297 0.0766 0.6266 0.174 0.543 0.1253 0.8911 0.2646 0.3481 0.1323 0.5917 0.4107 0.2506 0.2785 0.2506 0.7519 0 0.4038-0.2228 0.731-0.2158 0.3272-0.6614 0.5221-0.4455 0.1949-1.086 0.1949z"/>
   <path d="m563.5 295.2v0.7588h-3.655v-4.873h3.557v0.7588h-2.652v1.267h2.353v0.7449h-2.353v1.344z"/>
  </g>
  <g aria-label="SHIFT">
   <path d="m158.4 271q-0.5639 0-1.093-0.1601-0.5221-0.1601-0.8284-0.4247l0.3133-0.7031q0.2994 0.2367 0.731 0.3898 0.4386 0.1462 0.8772 0.1462 0.543 0 0.8076-0.174 0.2715-0.174 0.2715-0.4595 0-0.2088-0.1532-0.3411-0.1462-0.1392-0.3759-0.2158t-0.6266-0.174q-0.5569-0.1323-0.905-0.2646-0.3411-0.1323-0.5917-0.4107-0.2436-0.2854-0.2436-0.7658 0-0.4038 0.2158-0.731 0.2228-0.3342 0.6614-0.5291 0.4456-0.1949 1.086-0.1949 0.4456 0 0.8772 0.1114t0.7449 0.3202l-0.2854 0.7031q-0.3202-0.188-0.6683-0.2854-0.3481-0.0975-0.6753-0.0975-0.536 0-0.8006 0.181-0.2576 0.181-0.2576 0.4804 0 0.2088 0.1462 0.3411 0.1532 0.1323 0.3829 0.2088 0.2297 0.0766 0.6266 0.174 0.543 0.1253 0.8911 0.2645 0.3481 0.1323 0.5917 0.4107 0.2506 0.2785 0.2506 0.7518 0 0.4038-0.2228 0.731-0.2158 0.3272-0.6614 0.5221-0.4455 0.1949-1.086 0.1949z"/>
   <path d="m165.6 266.1v4.873h-0.905v-2.088h-2.52v2.088h-0.905v-4.873h0.905v2.012h2.52v-2.012z"/>
   <path d="m166.9 266.1h0.905v4.873h-0.905z"/>
   <path d="m170 266.8v1.483h2.353v0.7658h-2.353v1.866h-0.905v-4.873h3.557v0.7588z"/>
   <path d="m174.6 266.8h-1.615v-0.7658h4.135v0.7658h-1.615v4.107h-0.905z"/>
  </g>
  <g aria-label="MANUAL">
   <path d="m273.5 44.04-0.01-4.623-2.292 3.826h-0.5778l-2.292-3.766v4.563h-1.235v-6.974h1.066l2.77 4.623 2.72-4.623h1.066l0.01 6.974z"/>
   <path d="m281.1 42.42h-3.487l-0.6874 1.614h-1.335l3.138-6.974h1.275l3.148 6.974h-1.355zm-0.4284-1.016-1.315-3.049-1.305 3.049z"/>
   <path d="m290.2 37.06v6.974h-1.066l-3.846-4.722v4.722h-1.285v-6.974h1.066l3.846 4.722v-4.722z"/>
   <path d="m295.1 44.14q-1.445 0-2.252-0.807-0.807-0.817-0.807-2.331v-3.935h1.295v3.886q0 2.052 1.773 2.052 1.763 0 1.763-2.052v-3.886h1.275v3.935q0 1.514-0.807 2.331-0.797 0.807-2.242 0.807z"/>
   <path d="m304.3 42.42h-3.487l-0.6874 1.614h-1.335l3.138-6.974h1.275l3.148 6.974h-1.355zm-0.4284-1.016-1.315-3.049-1.305 3.049z"/>
   <path d="m307.3 37.06h1.295v5.878h3.646v1.096h-4.942z"/>
  </g>
  <g aria-label="RESO">
   <path d="m160.3 42.94-0.9955-1.427q-0.0626 7e-3 -0.188 7e-3h-1.1v1.42h-0.905v-4.873h2.005q0.6335 0 1.1 0.2088 0.4734 0.2088 0.724 0.5987t0.2506 0.9259q0 0.55-0.2715 0.9468-0.2645 0.3968-0.7658 0.5917l1.121 1.601zm-0.0209-3.14q0-0.4664-0.3063-0.717t-0.898-0.2506h-1.058v1.942h1.058q0.5917 0 0.898-0.2506 0.3063-0.2576 0.3063-0.724z"/>
   <path d="m165.9 42.18v0.7588h-3.655v-4.873h3.557v0.7588h-2.652v1.267h2.353v0.7449h-2.353v1.344z"/>
   <path d="m168.4 43.01q-0.5639 0-1.093-0.1601-0.5221-0.1601-0.8284-0.4247l0.3133-0.7031q0.2994 0.2367 0.731 0.3899 0.4386 0.1462 0.8772 0.1462 0.543 0 0.8076-0.174 0.2715-0.174 0.2715-0.4595 0-0.2088-0.1532-0.3411-0.1462-0.1392-0.3759-0.2158-0.2297-0.07658-0.6266-0.174-0.5569-0.1323-0.905-0.2645-0.3411-0.1323-0.5917-0.4107-0.2436-0.2854-0.2436-0.7658 0-0.4038 0.2158-0.731 0.2228-0.3342 0.6614-0.5291 0.4456-0.1949 1.086-0.1949 0.4456 0 0.8772 0.1114t0.7449 0.3202l-0.2854 0.7031q-0.3202-0.188-0.6683-0.2854-0.3481-0.09746-0.6753-0.09746-0.536 0-0.8006 0.181-0.2576 0.181-0.2576 0.4804 0 0.2088 0.1462 0.3411 0.1532 0.1323 0.3829 0.2088 0.2297 0.07658 0.6266 0.174 0.543 0.1253 0.8911 0.2645 0.3481 0.1323 0.5917 0.4107 0.2506 0.2785 0.2506 0.7519 0 0.4038-0.2228 0.731-0.2158 0.3272-0.6614 0.5221-0.4455 0.1949-1.086 0.1949z"/>
   <path d="m173.5 43.01q-0.7449 0-1.344-0.3202-0.5987-0.3272-0.9398-0.8981-0.3411-0.5778-0.3411-1.288t0.3411-1.281q0.3411-0.5778 0.9398-0.8981 0.5987-0.3272 1.344-0.3272t1.344 0.3272q0.5987 0.3202 0.9398 0.8911t0.3411 1.288q0 0.717-0.3411 1.288-0.3411 0.5709-0.9398 0.8981-0.5987 0.3202-1.344 0.3202zm0-0.7936q0.4873 0 0.8772-0.2158 0.3898-0.2228 0.6126-0.6126 0.2228-0.3968 0.2228-0.8841t-0.2228-0.8772q-0.2228-0.3968-0.6126-0.6126-0.3898-0.2228-0.8772-0.2228t-0.8772 0.2228q-0.3898 0.2158-0.6126 0.6126-0.2228 0.3899-0.2228 0.8772t0.2228 0.8841q0.2228 0.3899 0.6126 0.6126 0.3898 0.2158 0.8772 0.2158z"/>
  </g>
  <g aria-label="RESET">
   <path d="m228.8 42.94-0.9955-1.427q-0.0627 7e-3 -0.188 7e-3h-1.1v1.42h-0.905v-4.873h2.005q0.6335 0 1.1 0.2088 0.4734 0.2088 0.724 0.5987t0.2506 0.9259q0 0.55-0.2715 0.9468-0.2645 0.3968-0.7658 0.5917l1.121 1.601zm-0.0209-3.14q0-0.4664-0.3063-0.717t-0.8981-0.2506h-1.058v1.942h1.058q0.5917 0 0.8981-0.2506 0.3063-0.2576 0.3063-0.724z"/>
   <path d="m234.4 42.18v0.7588h-3.655v-4.873h3.557v0.7588h-2.652v1.267h2.353v0.7449h-2.353v1.344z"/>
   <path d="m236.9 43.01q-0.5639 0-1.093-0.1601-0.5221-0.1601-0.8284-0.4247l0.3133-0.7031q0.2994 0.2367 0.731 0.3899 0.4386 0.1462 0.8772 0.1462 0.543 0 0.8076-0.174 0.2715-0.174 0.2715-0.4595 0-0.2088-0.1532-0.3411-0.1462-0.1392-0.3759-0.2158-0.2297-0.07658-0.6265-0.174-0.5569-0.1323-0.905-0.2645-0.3411-0.1323-0.5917-0.4107-0.2437-0.2854-0.2437-0.7658 0-0.4038 0.2158-0.731 0.2228-0.3342 0.6614-0.5291 0.4456-0.1949 1.086-0.1949 0.4455 0 0.8772 0.1114 0.4316 0.1114 0.7449 0.3202l-0.2854 0.7031q-0.3202-0.188-0.6683-0.2854-0.3481-0.09746-0.6753-0.09746-0.536 0-0.8006 0.181-0.2576 0.181-0.2576 0.4804 0 0.2088 0.1462 0.3411 0.1532 0.1323 0.3829 0.2088 0.2297 0.07658 0.6266 0.174 0.543 0.1253 0.8911 0.2645 0.3481 0.1323 0.5917 0.4107 0.2506 0.2785 0.2506 0.7519 0 0.4038-0.2228 0.731-0.2158 0.3272-0.6614 0.5221-0.4455 0.1949-1.086 0.1949z"/>
   <path d="m243.4 42.18v0.7588h-3.655v-4.873h3.557v0.7588h-2.652v1.267h2.353v0.7449h-2.353v1.344z"/>
   <path d="m245.4 38.83h-1.615v-0.7658h4.135v0.7658h-1.615v4.107h-0.905z"/>
  </g>
  <g aria-label="CLTCH">
   <path d="m192.6 43.01q-0.7379 0-1.337-0.3202-0.5917-0.3272-0.9329-0.8981-0.3342-0.5709-0.3342-1.288t0.3411-1.288 0.9329-0.8911q0.5987-0.3272 1.337-0.3272 0.5987 0 1.093 0.2088t0.8354 0.6057l-0.5848 0.55q-0.5291-0.5709-1.302-0.5709-0.5012 0-0.8981 0.2228-0.3968 0.2158-0.6196 0.6057t-0.2228 0.8841 0.2228 0.8841q0.2228 0.3899 0.6196 0.6126 0.3968 0.2158 0.8981 0.2158 0.7727 0 1.302-0.5778l0.5848 0.5569q-0.3411 0.3968-0.8424 0.6057-0.4943 0.2088-1.093 0.2088z"/>
   <path d="m195.4 38.07h0.905v4.107h2.548v0.7658h-3.453z"/>
   <path d="m200.1 38.83h-1.615v-0.7658h4.135v0.7658h-1.615v4.107h-0.905z"/>
   <path d="m205.5 43.01q-0.7379 0-1.337-0.3202-0.5917-0.3272-0.9329-0.8981-0.3342-0.5709-0.3342-1.288t0.3411-1.288 0.9329-0.8911q0.5987-0.3272 1.337-0.3272 0.5987 0 1.093 0.2088t0.8354 0.6057l-0.5848 0.55q-0.5291-0.5709-1.302-0.5709-0.5012 0-0.898 0.2228-0.3968 0.2158-0.6196 0.6057t-0.2228 0.8841 0.2228 0.8841 0.6196 0.6126q0.3968 0.2158 0.898 0.2158 0.7727 0 1.302-0.5778l0.5848 0.5569q-0.3411 0.3968-0.8424 0.6057-0.4943 0.2088-1.093 0.2088z"/>
   <path d="m212.6 38.07v4.873h-0.905v-2.088h-2.52v2.088h-0.905v-4.873h0.905v2.012h2.52v-2.012z"/>
  </g>
  <g aria-label="ABS">
   <path d="m127.8 41.81h-2.437l-0.4804 1.128h-0.9329l2.193-4.873h0.8911l2.2 4.873h-0.9468zm-0.2994-0.7101-0.9189-2.13-0.912 2.13z"/>
   <path d="m133.3 40.41q0.4038 0.1323 0.6405 0.4455 0.2367 0.3063 0.2367 0.7658 0 0.6335-0.4873 0.9816-0.4873 0.3411-1.42 0.3411h-2.423v-4.873h2.283q0.8632 0 1.33 0.3411 0.4664 0.3342 0.4664 0.9259 0 0.362-0.1671 0.6405t-0.4595 0.4316zm-2.548-1.629v1.344h1.281q0.4734 0 0.724-0.1671 0.2576-0.174 0.2576-0.5012 0-0.3342-0.2576-0.5012-0.2506-0.174-0.724-0.174zm1.462 3.453q1.051 0 1.051-0.7031t-1.051-0.7031h-1.462v1.406z"/>
   <path d="m136.7 43.01q-0.5639 0-1.093-0.1601-0.5221-0.1601-0.8284-0.4247l0.3133-0.7031q0.2994 0.2367 0.731 0.3899 0.4386 0.1462 0.8772 0.1462 0.543 0 0.8076-0.174 0.2715-0.174 0.2715-0.4595 0-0.2088-0.1532-0.3411-0.1462-0.1392-0.3759-0.2158-0.2297-0.07658-0.6266-0.174-0.5569-0.1323-0.905-0.2645-0.3411-0.1323-0.5917-0.4107-0.2437-0.2854-0.2437-0.7658 0-0.4038 0.2158-0.731 0.2228-0.3342 0.6614-0.5291 0.4456-0.1949 1.086-0.1949 0.4456 0 0.8772 0.1114t0.7449 0.3202l-0.2854 0.7031q-0.3202-0.188-0.6683-0.2854-0.3481-0.09746-0.6753-0.09746-0.536 0-0.8006 0.181-0.2576 0.181-0.2576 0.4804 0 0.2088 0.1462 0.3411 0.1532 0.1323 0.3829 0.2088 0.2297 0.07658 0.6266 0.174 0.543 0.1253 0.8911 0.2645 0.3481 0.1323 0.5917 0.4107 0.2506 0.2785 0.2506 0.7519 0 0.4038-0.2228 0.731-0.2158 0.3272-0.6614 0.5221-0.4455 0.1949-1.086 0.1949z"/>
  </g>
  <g aria-label="/">
   <path d="m148.4 37.08h0.7797l-2.297 6.558h-0.7797z" fill="#eaeae3"/>
  </g>
  <g aria-label="PHASE">
   <path d="m86.67 38.07q0.6335 0 1.1 0.2088 0.4734 0.2088 0.724 0.5987t0.2506 0.9259q0 0.5291-0.2506 0.9259-0.2506 0.3899-0.724 0.5987-0.4664 0.2088-1.1 0.2088h-1.1v1.406h-0.905v-4.873zm-0.04177 2.701q0.5917 0 0.8981-0.2506 0.3063-0.2506 0.3063-0.717t-0.3063-0.717-0.8981-0.2506h-1.058v1.935z"/>
   <path d="m93.99 38.07v4.873h-0.905v-2.088h-2.52v2.088h-0.905v-4.873h0.905v2.012h2.52v-2.012z"/>
   <path d="m98.46 41.81h-2.437l-0.4804 1.128h-0.9329l2.193-4.873h0.8911l2.2 4.873h-0.9468zm-0.2994-0.7101-0.9189-2.13-0.912 2.13z"/>
   <path d="m102 43.01q-0.5639 0-1.093-0.1601-0.5221-0.1601-0.8284-0.4247l0.3133-0.7031q0.2994 0.2367 0.731 0.3899 0.4386 0.1462 0.8772 0.1462 0.543 0 0.8076-0.174 0.2715-0.174 0.2715-0.4595 0-0.2088-0.1532-0.3411-0.1462-0.1392-0.3759-0.2158-0.2297-0.07658-0.6266-0.174-0.5569-0.1323-0.905-0.2645-0.3411-0.1323-0.5917-0.4107-0.2437-0.2854-0.2437-0.7658 0-0.4038 0.2158-0.731 0.2228-0.3342 0.6614-0.5291 0.4455-0.1949 1.086-0.1949 0.4455 0 0.8772 0.1114t0.7449 0.3202l-0.2854 0.7031q-0.3202-0.188-0.6683-0.2854-0.3481-0.09746-0.6753-0.09746-0.536 0-0.8006 0.181-0.2576 0.181-0.2576 0.4804 0 0.2088 0.1462 0.3411 0.1532 0.1323 0.3829 0.2088 0.2297 0.07658 0.6266 0.174 0.543 0.1253 0.8911 0.2645 0.3481 0.1323 0.5917 0.4107 0.2506 0.2785 0.2506 0.7519 0 0.4038-0.2228 0.731-0.2158 0.3272-0.6614 0.5221t-1.086 0.1949z"/>
   <path d="m108.5 42.18v0.7588h-3.655v-4.873h3.557v0.7588h-2.652v1.267h2.353v0.7449h-2.353v1.344z"/>
  </g>
  <g aria-label="CLOCK">
   <path d="m16.8 43.01q-0.7379 0-1.337-0.3202-0.5917-0.3272-0.9329-0.8981-0.3342-0.5709-0.3342-1.288 0-0.717 0.3411-1.288t0.9329-0.8911q0.5987-0.3272 1.337-0.3272 0.5987 0 1.093 0.2088t0.8354 0.6057l-0.5848 0.55q-0.5291-0.5709-1.302-0.5709-0.5012 0-0.8981 0.2228-0.3968 0.2158-0.6196 0.6057t-0.2228 0.8841 0.2228 0.8841 0.6196 0.6126q0.3968 0.2158 0.8981 0.2158 0.7727 0 1.302-0.5778l0.5848 0.5569q-0.3411 0.3968-0.8424 0.6057-0.4943 0.2088-1.093 0.2088z"/>
   <path d="m19.6 38.07h0.905v4.107h2.548v0.7658h-3.453z"/>
   <path d="m25.96 43.01q-0.7449 0-1.344-0.3202-0.5987-0.3272-0.9398-0.8981-0.3411-0.5778-0.3411-1.288t0.3411-1.281q0.3411-0.5778 0.9398-0.8981 0.5987-0.3272 1.344-0.3272 0.7449 0 1.344 0.3272 0.5987 0.3202 0.9398 0.8911t0.3411 1.288q0 0.717-0.3411 1.288-0.3411 0.5709-0.9398 0.8981-0.5987 0.3202-1.344 0.3202zm0-0.7936q0.4873 0 0.8772-0.2158 0.3899-0.2228 0.6126-0.6126 0.2228-0.3968 0.2228-0.8841t-0.2228-0.8772q-0.2228-0.3968-0.6126-0.6126-0.3899-0.2228-0.8772-0.2228t-0.8772 0.2228q-0.3899 0.2158-0.6126 0.6126-0.2228 0.3899-0.2228 0.8772t0.2228 0.8841q0.2228 0.3899 0.6126 0.6126 0.3899 0.2158 0.8772 0.2158z"/>
   <path d="m31.8 43.01q-0.7379 0-1.337-0.3202-0.5917-0.3272-0.9329-0.8981-0.3342-0.5709-0.3342-1.288 0-0.717 0.3411-1.288 0.3411-0.5709 0.9329-0.8911 0.5987-0.3272 1.337-0.3272 0.5987 0 1.093 0.2088t0.8354 0.6057l-0.5848 0.55q-0.5291-0.5709-1.302-0.5709-0.5012 0-0.8981 0.2228-0.3968 0.2158-0.6196 0.6057t-0.2228 0.8841 0.2228 0.8841q0.2228 0.3899 0.6196 0.6126 0.3968 0.2158 0.8981 0.2158 0.7727 0 1.302-0.5778l0.5848 0.5569q-0.3411 0.3968-0.8424 0.6057-0.4943 0.2088-1.093 0.2088z"/>
   <path d="m36.28 40.9-0.7727 0.7936v1.246h-0.905v-4.873h0.905v2.499l2.409-2.499h1.016l-2.047 2.179 2.172 2.694h-1.058z"/>
  </g>
  <g aria-label="GOTO">
   <path d="m20.08 118.5h0.8563v1.942q-0.3759 0.2994-0.8772 0.4595-0.5012 0.1601-1.03 0.1601-0.7449 0-1.344-0.3202-0.5987-0.3272-0.9398-0.898-0.3411-0.5709-0.3411-1.288t0.3411-1.288q0.3411-0.5709 0.9398-0.8911 0.6057-0.3272 1.358-0.3272 0.6126 0 1.114 0.2019 0.5012 0.2019 0.8424 0.5917l-0.5709 0.5569q-0.5569-0.5569-1.344-0.5569-0.5152 0-0.9189 0.2158-0.3968 0.2158-0.6265 0.6057-0.2228 0.3899-0.2228 0.8911 0 0.4873 0.2228 0.8772 0.2297 0.3898 0.6265 0.6126 0.4038 0.2228 0.912 0.2228 0.5709 0 1.002-0.2506z"/>
   <path d="m24.4 121q-0.7449 0-1.344-0.3202-0.5987-0.3272-0.9398-0.898-0.3411-0.5778-0.3411-1.288 0-0.7101 0.3411-1.281 0.3411-0.5778 0.9398-0.898 0.5987-0.3272 1.344-0.3272t1.344 0.3272q0.5987 0.3202 0.9398 0.8911 0.3411 0.5708 0.3411 1.288t-0.3411 1.288q-0.3411 0.5708-0.9398 0.898-0.5987 0.3202-1.344 0.3202zm0-0.7936q0.4873 0 0.8772-0.2158 0.3899-0.2228 0.6126-0.6126 0.2228-0.3968 0.2228-0.8841t-0.2228-0.8772q-0.2228-0.3968-0.6126-0.6126-0.3899-0.2228-0.8772-0.2228t-0.8772 0.2228q-0.3899 0.2158-0.6126 0.6126-0.2228 0.3898-0.2228 0.8772 0 0.4873 0.2228 0.8841 0.2228 0.3899 0.6126 0.6126 0.3899 0.2158 0.8772 0.2158z"/>
   <path d="m28.91 116.8h-1.615v-0.7658h4.135v0.7658h-1.615v4.107h-0.905z"/>
   <path d="m34.31 121q-0.7449 0-1.344-0.3202-0.5987-0.3272-0.9398-0.898-0.3411-0.5778-0.3411-1.288 0-0.7101 0.3411-1.281 0.3411-0.5778 0.9398-0.898 0.5987-0.3272 1.344-0.3272t1.344 0.3272q0.5987 0.3202 0.9398 0.8911 0.3411 0.5708 0.3411 1.288t-0.3411 1.288q-0.3411 0.5708-0.9398 0.898-0.5987 0.3202-1.344 0.3202zm0-0.7936q0.4873 0 0.8772-0.2158 0.3899-0.2228 0.6126-0.6126 0.2228-0.3968 0.2228-0.8841t-0.2228-0.8772q-0.2228-0.3968-0.6126-0.6126-0.3899-0.2228-0.8772-0.2228t-0.8772 0.2228q-0.3899 0.2158-0.6126 0.6126-0.2228 0.3898-0.2228 0.8772 0 0.4873 0.2228 0.8841 0.2228 0.3899 0.6126 0.6126 0.3899 0.2158 0.8772 0.2158z"/>
  </g>
  <g aria-label="V/12P">
   <path d="m57.11 116.1-2.123 4.873h-0.8911l-2.13-4.873h0.9816l1.622 3.759 1.636-3.759z"/>
   <path d="m58.89 115.1h0.7797l-2.297 6.558h-0.7797z"/>
   <path d="m61.58 116.1v4.873h-0.905v-4.114h-1.03v-0.7588z"/>
   <path d="m66.07 120.2v0.7658h-3.592v-0.6057l1.935-1.838q0.3272-0.3133 0.4386-0.543 0.1183-0.2367 0.1183-0.4664 0-0.3411-0.2297-0.5221t-0.6753-0.181q-0.7449 0-1.142 0.5082l-0.6335-0.4873q0.2854-0.3829 0.7658-0.5917 0.4873-0.2158 1.086-0.2158 0.7936 0 1.267 0.3759t0.4734 1.023q0 0.3968-0.1671 0.7449t-0.6405 0.7936l-1.302 1.239z"/>
   <path d="m68.95 116.1q0.6335 0 1.1 0.2088 0.4734 0.2088 0.724 0.5987 0.2506 0.3898 0.2506 0.9259 0 0.5291-0.2506 0.9259-0.2506 0.3899-0.724 0.5987-0.4664 0.2088-1.1 0.2088h-1.1v1.406h-0.905v-4.873zm-0.04177 2.701q0.5917 0 0.8981-0.2506 0.3063-0.2506 0.3063-0.717t-0.3063-0.717-0.8981-0.2506h-1.058v1.935z"/>
  </g>
  <g aria-label="SEQ">
   <path d="m231.2 215q-0.5639 0-1.093-0.1601-0.5221-0.1601-0.8284-0.4247l0.3133-0.7031q0.2994 0.2367 0.731 0.3898 0.4386 0.1462 0.8772 0.1462 0.543 0 0.8076-0.174 0.2715-0.174 0.2715-0.4595 0-0.2088-0.1532-0.3411-0.1462-0.1392-0.3759-0.2158t-0.6266-0.174q-0.5569-0.1323-0.905-0.2645-0.3411-0.1323-0.5917-0.4107-0.2437-0.2854-0.2437-0.7658 0-0.4038 0.2158-0.731 0.2228-0.3342 0.6614-0.5291 0.4455-0.1949 1.086-0.1949 0.4456 0 0.8772 0.1114t0.7449 0.3202l-0.2854 0.7031q-0.3202-0.188-0.6683-0.2854-0.3481-0.0975-0.6753-0.0975-0.536 0-0.8006 0.181-0.2576 0.181-0.2576 0.4804 0 0.2088 0.1462 0.3411 0.1532 0.1323 0.3829 0.2088 0.2297 0.0766 0.6265 0.174 0.543 0.1253 0.8911 0.2645 0.3481 0.1323 0.5917 0.4107 0.2506 0.2785 0.2506 0.7519 0 0.4038-0.2228 0.731-0.2158 0.3272-0.6614 0.5221t-1.086 0.1949z"/>
   <path d="m237.7 214.2v0.7588h-3.655v-4.873h3.557v0.7588h-2.652v1.267h2.353v0.7449h-2.353v1.344z"/>
   <path d="m243.8 215.4q-0.2437 0.2854-0.5709 0.4316-0.3202 0.1462-0.7031 0.1462-0.5012 0-0.9189-0.2297-0.4177-0.2228-0.9538-0.7797-0.6753-0.0557-1.211-0.3898-0.536-0.3411-0.8354-0.8841-0.2994-0.55-0.2994-1.218 0-0.7101 0.3411-1.281 0.3411-0.5778 0.9398-0.898 0.5987-0.3272 1.344-0.3272t1.344 0.3272q0.5987 0.3202 0.9398 0.8911 0.3411 0.5708 0.3411 1.288 0 0.5778-0.2297 1.072-0.2297 0.4873-0.6405 0.8354-0.4107 0.3411-0.9537 0.4943 0.2019 0.2158 0.3968 0.3133t0.4177 0.0975q0.4804 0 0.8354-0.3898zm-4.581-2.924q0 0.4873 0.2228 0.8841 0.2228 0.3898 0.6126 0.6126 0.3898 0.2158 0.8772 0.2158t0.8772-0.2158q0.3898-0.2228 0.6126-0.6126 0.2228-0.3968 0.2228-0.8841t-0.2228-0.8772q-0.2228-0.3968-0.6126-0.6126-0.3898-0.2228-0.8772-0.2228t-0.8772 0.2228q-0.3898 0.2158-0.6126 0.6126-0.2228 0.3899-0.2228 0.8772z"/>
  </g>
 </g>
 <g fill="#ffd42a" aria-label="QNT">
  <path d="m94.38 272.4q-0.2437 0.2854-0.5709 0.4316-0.3202 0.1462-0.7031 0.1462-0.5012 0-0.9189-0.2297-0.4177-0.2228-0.9537-0.7797-0.6753-0.0557-1.211-0.3899-0.536-0.3411-0.8354-0.8841-0.2994-0.55-0.2994-1.218 0-0.7101 0.3411-1.281 0.3411-0.5778 0.9398-0.898 0.5987-0.3272 1.344-0.3272t1.344 0.3272q0.5987 0.3202 0.9398 0.8911t0.3411 1.288q0 0.5778-0.2297 1.072-0.2297 0.4873-0.6405 0.8354-0.4107 0.3411-0.9537 0.4943 0.2019 0.2158 0.3968 0.3133t0.4177 0.0975q0.4804 0 0.8354-0.3898zm-4.581-2.924q0 0.4873 0.2228 0.8841 0.2228 0.3898 0.6126 0.6126 0.3899 0.2158 0.8772 0.2158t0.8772-0.2158q0.3899-0.2228 0.6126-0.6126 0.2228-0.3968 0.2228-0.8841t-0.2228-0.8772q-0.2228-0.3968-0.6126-0.6126-0.3899-0.2228-0.8772-0.2228t-0.8772 0.2228q-0.3899 0.2158-0.6126 0.6126-0.2228 0.3898-0.2228 0.8772z"/>
  <path d="m99.42 267.1v4.873h-0.7449l-2.687-3.3v3.3h-0.8981v-4.873h0.7449l2.687 3.3v-3.3z"/>
  <path d="m101.7 267.8h-1.615v-0.7658h4.135v0.7658h-1.615v4.107h-0.905z"/>
 </g>
 <g fill="#eaeae3">
  <g aria-label="PREV">
   <path d="m19.21 210.1q0.6335 0 1.1 0.2088 0.4734 0.2088 0.724 0.5987 0.2506 0.3898 0.2506 0.9259 0 0.5291-0.2506 0.9259-0.2506 0.3898-0.724 0.5987-0.4664 0.2088-1.1 0.2088h-1.1v1.406h-0.905v-4.873zm-0.04177 2.701q0.5917 0 0.8981-0.2506 0.3063-0.2506 0.3063-0.717t-0.3063-0.717q-0.3063-0.2506-0.8981-0.2506h-1.058v1.935z"/>
   <path d="m25.38 214.9-0.9955-1.427q-0.06265 7e-3 -0.188 7e-3h-1.1v1.42h-0.905v-4.873h2.005q0.6335 0 1.1 0.2088 0.4734 0.2088 0.724 0.5987 0.2506 0.3898 0.2506 0.9259 0 0.55-0.2715 0.9468-0.2645 0.3968-0.7658 0.5917l1.121 1.601zm-0.02088-3.14q0-0.4664-0.3063-0.717t-0.8981-0.2506h-1.058v1.942h1.058q0.5917 0 0.8981-0.2506 0.3063-0.2576 0.3063-0.724z"/>
   <path d="m30.93 214.2v0.7588h-3.655v-4.873h3.557v0.7588h-2.652v1.267h2.353v0.7449h-2.353v1.344z"/>
   <path d="m36.33 210.1-2.123 4.873h-0.8911l-2.13-4.873h0.9816l1.622 3.759 1.636-3.759z"/>
  </g>
  <g transform="translate(0,1)" aria-label="NEXT">
   <path d="m56.88 209.1v4.873h-0.7449l-2.687-3.3v3.3h-0.8981v-4.873h0.7449l2.687 3.3v-3.3z"/>
   <path d="m61.84 213.2v0.7588h-3.655v-4.873h3.557v0.7588h-2.652v1.267h2.353v0.7449h-2.353v1.344z"/>
   <path d="m65.87 213.9-1.323-1.852-1.309 1.852h-1.03l1.81-2.485-1.713-2.388h1.023l1.246 1.733 1.232-1.733h0.9816l-1.706 2.353 1.831 2.52z"/>
   <path d="m68.41 209.8h-1.615v-0.7658h4.135v0.7658h-1.615v4.107h-0.905z"/>
  </g>
  <g aria-label="RND">
   <path d="m267 214.9-0.9955-1.427q-0.0627 7e-3 -0.188 7e-3h-1.1v1.42h-0.905v-4.873h2.005q0.6335 0 1.1 0.2088 0.4734 0.2088 0.724 0.5987 0.2506 0.3898 0.2506 0.9259 0 0.55-0.2715 0.9468-0.2645 0.3968-0.7658 0.5917l1.121 1.601zm-0.0209-3.14q0-0.4664-0.3063-0.717t-0.898-0.2506h-1.058v1.942h1.058q0.5917 0 0.898-0.2506 0.3063-0.2576 0.3063-0.724z"/>
   <path d="m273.3 210.1v4.873h-0.7449l-2.687-3.3v3.3h-0.8981v-4.873h0.7449l2.687 3.3v-3.3z"/>
   <path d="m274.6 210.1h2.13q0.7797 0 1.385 0.3063 0.6057 0.2994 0.9398 0.8563 0.3342 0.55 0.3342 1.274t-0.3342 1.281q-0.3342 0.55-0.9398 0.8563-0.6057 0.2994-1.385 0.2994h-2.13zm2.088 4.107q0.536 0 0.9398-0.2019 0.4107-0.2088 0.6266-0.5848 0.2228-0.3829 0.2228-0.8841t-0.2228-0.8772q-0.2158-0.3829-0.6266-0.5848-0.4038-0.2088-0.9398-0.2088h-1.183v3.342z"/>
  </g>
  <g aria-label="WAIT">
   <path d="m304.5 210.1-1.615 4.873h-0.9607l-1.204-3.606-1.225 3.606h-0.9677l-1.615-4.873h0.9398l1.211 3.704 1.26-3.704h0.8354l1.232 3.724 1.246-3.724z"/>
   <path d="m308.3 213.8h-2.437l-0.4804 1.128h-0.9329l2.193-4.873h0.8911l2.2 4.873h-0.9468zm-0.2994-0.7101-0.9189-2.13-0.912 2.13z"/>
   <path d="m310.3 210.1h0.905v4.873h-0.905z"/>
   <path d="m313.5 210.8h-1.615v-0.7658h4.135v0.7658h-1.615v4.107h-0.905z"/>
  </g>
 </g>
 <g fill="#ffd42a" aria-label="LEN">
  <path d="m229.8 267.1h0.905v4.107h2.548v0.7658h-3.453z"/>
  <path d="m237.7 271.2v0.7588h-3.655v-4.873h3.557v0.7588h-2.652v1.267h2.353v0.7449h-2.353v1.344z"/>
  <path d="m243 267.1v4.873h-0.7449l-2.687-3.3v3.3h-0.898v-4.873h0.7449l2.687 3.3v-3.3z"/>
 </g>
 <g fill="#eaeae3">
  <g aria-label="REV">
   <path d="m92.89 313.9-0.9955-1.427q-0.06265 7e-3 -0.188 7e-3h-1.1v1.42h-0.905v-4.873h2.005q0.6335 0 1.1 0.2088 0.4734 0.2088 0.724 0.5987 0.2506 0.3898 0.2506 0.9259 0 0.55-0.2715 0.9468-0.2645 0.3968-0.7658 0.5917l1.121 1.601zm-0.02088-3.14q0-0.4664-0.3063-0.717t-0.8981-0.2506h-1.058v1.942h1.058q0.5917 0 0.8981-0.2506 0.3063-0.2576 0.3063-0.724z"/>
   <path d="m98.44 313.2v0.7588h-3.655v-4.873h3.557v0.7588h-2.652v1.267h2.353v0.7449h-2.353v1.344z"/>
   <path d="m103.8 309.1-2.123 4.873h-0.8911l-2.13-4.873h0.9816l1.622 3.759 1.636-3.759z"/>
  </g>
  <g aria-label="MUTA">
   <path d="m161 312.9-7e-3 -3.23-1.601 2.673h-0.4038l-1.601-2.632v3.188h-0.8632v-4.873h0.7449l1.935 3.23 1.901-3.23h0.7449l7e-3 4.873z"/>
   <path d="m165.2 313q-1.009 0-1.573-0.5639-0.5639-0.5709-0.5639-1.629v-2.75h0.905v2.715q0 1.434 1.239 1.434 1.232 0 1.232-1.434v-2.715h0.8911v2.75q0 1.058-0.5639 1.629-0.5569 0.5639-1.566 0.5639z"/>
   <path d="m169.5 308.8h-1.615v-0.7658h4.135v0.7658h-1.615v4.107h-0.905z"/>
   <path d="m175.6 311.8h-2.437l-0.4804 1.128h-0.9329l2.193-4.873h0.8911l2.2 4.873h-0.9468zm-0.2994-0.7101-0.9189-2.13-0.912 2.13z"/>
  </g>
  <g aria-label="FLIP">
   <path d="m230 309.8v1.483h2.353v0.7658h-2.353v1.866h-0.905v-4.873h3.557v0.7588z"/>
   <path d="m233.6 309.1h0.905v4.107h2.548v0.7658h-3.453z"/>
   <path d="m237.7 309.1h0.905v4.873h-0.905z"/>
   <path d="m242 309.1q0.6335 0 1.1 0.2088 0.4734 0.2088 0.724 0.5987t0.2506 0.9259q0 0.5291-0.2506 0.9259-0.2506 0.3898-0.724 0.5987-0.4664 0.2088-1.1 0.2088h-1.1v1.406h-0.905v-4.873zm-0.0418 2.701q0.5917 0 0.898-0.2506t0.3063-0.717-0.3063-0.717-0.898-0.2506h-1.058v1.935z"/>
  </g>
  <g aria-label="SHIFT">
   <path d="m18.14 314q-0.5639 0-1.093-0.1601-0.5221-0.1601-0.8284-0.4247l0.3133-0.7031q0.2994 0.2367 0.731 0.3898 0.4386 0.1462 0.8772 0.1462 0.543 0 0.8076-0.174 0.2715-0.174 0.2715-0.4595 0-0.2088-0.1532-0.3411-0.1462-0.1392-0.3759-0.2158t-0.6265-0.174q-0.5569-0.1323-0.905-0.2646-0.3411-0.1323-0.5917-0.4107-0.2437-0.2854-0.2437-0.7658 0-0.4038 0.2158-0.731 0.2228-0.3342 0.6614-0.5291 0.4455-0.1949 1.086-0.1949 0.4455 0 0.8772 0.1114 0.4316 0.1114 0.7449 0.3202l-0.2854 0.7031q-0.3202-0.188-0.6683-0.2854-0.3481-0.0975-0.6753-0.0975-0.536 0-0.8006 0.181-0.2576 0.181-0.2576 0.4804 0 0.2088 0.1462 0.3411 0.1532 0.1323 0.3829 0.2088 0.2297 0.0766 0.6265 0.174 0.543 0.1253 0.8911 0.2645 0.3481 0.1323 0.5917 0.4107 0.2506 0.2785 0.2506 0.7518 0 0.4038-0.2228 0.731-0.2158 0.3272-0.6614 0.5221-0.4455 0.1949-1.086 0.1949z"/>
   <path d="m25.34 309.1v4.873h-0.905v-2.088h-2.52v2.088h-0.905v-4.873h0.905v2.012h2.52v-2.012z"/>
   <path d="m26.65 309.1h0.905v4.873h-0.905z"/>
   <path d="m29.77 309.8v1.483h2.353v0.7658h-2.353v1.866h-0.905v-4.873h3.557v0.7588z"/>
   <path d="m34.33 309.8h-1.615v-0.7658h4.135v0.7658h-1.615v4.107h-0.905z"/>
  </g>
  <g aria-label="LEN">
   <path d="m54.84 309.1h0.905v4.107h2.548v0.7658h-3.453z"/>
   <path d="m62.67 313.2v0.7588h-3.655v-4.873h3.557v0.7588h-2.652v1.267h2.353v0.7449h-2.353v1.344z"/>
   <path d="m68 309.1v4.873h-0.7449l-2.687-3.3v3.3h-0.8981v-4.873h0.7449l2.687 3.3v-3.3z"/>
  </g>
  <g aria-label="LEN">
   <path d="m54.84 267.1h0.905v4.107h2.548v0.7658h-3.453z"/>
   <path d="m62.67 271.2v0.7588h-3.655v-4.873h3.557v0.7588h-2.652v1.267h2.353v0.7449h-2.353v1.344z"/>
   <path d="m68 267.1v4.873h-0.7449l-2.687-3.3v3.3h-0.8981v-4.873h0.7449l2.687 3.3v-3.3z"/>
  </g>
  <g aria-label="SHIFT">
   <path d="m18.14 272q-0.5639 0-1.093-0.1601-0.5221-0.1601-0.8284-0.4247l0.3133-0.7031q0.2994 0.2367 0.731 0.3898 0.4386 0.1462 0.8772 0.1462 0.543 0 0.8076-0.174 0.2715-0.174 0.2715-0.4595 0-0.2088-0.1532-0.3411-0.1462-0.1392-0.3759-0.2158t-0.6265-0.174q-0.5569-0.1323-0.905-0.2645-0.3411-0.1323-0.5917-0.4107-0.2437-0.2854-0.2437-0.7658 0-0.4038 0.2158-0.731 0.2228-0.3342 0.6614-0.5291 0.4455-0.1949 1.086-0.1949 0.4455 0 0.8772 0.1114 0.4316 0.1114 0.7449 0.3202l-0.2854 0.7031q-0.3202-0.188-0.6683-0.2854-0.3481-0.0975-0.6753-0.0975-0.536 0-0.8006 0.181-0.2576 0.181-0.2576 0.4804 0 0.2088 0.1462 0.3411 0.1532 0.1323 0.3829 0.2088 0.2297 0.0766 0.6265 0.174 0.543 0.1253 0.8911 0.2646 0.3481 0.1323 0.5917 0.4107 0.2506 0.2785 0.2506 0.7519 0 0.4038-0.2228 0.731-0.2158 0.3272-0.6614 0.5221-0.4455 0.1949-1.086 0.1949z"/>
   <path d="m25.34 267.1v4.873h-0.905v-2.088h-2.52v2.088h-0.905v-4.873h0.905v2.012h2.52v-2.012z"/>
   <path d="m26.65 267.1h0.905v4.873h-0.905z"/>
   <path d="m29.77 267.8v1.483h2.353v0.7658h-2.353v1.866h-0.905v-4.873h3.557v0.7588z"/>
   <path d="m34.33 267.8h-1.615v-0.7658h4.135v0.7658h-1.615v4.107h-0.905z"/>
  </g>
  <g aria-label="GATE">
   <path d="m265.8 269.5h0.8563v1.942q-0.3759 0.2994-0.8772 0.4595-0.5012 0.1601-1.03 0.1601-0.7449 0-1.344-0.3202-0.5987-0.3272-0.9398-0.898t-0.3411-1.288 0.3411-1.288q0.3411-0.5708 0.9398-0.8911 0.6057-0.3272 1.358-0.3272 0.6126 0 1.114 0.2019t0.8424 0.5917l-0.5709 0.5569q-0.5569-0.5569-1.344-0.5569-0.5152 0-0.9189 0.2158-0.3968 0.2158-0.6266 0.6057-0.2228 0.3899-0.2228 0.8911 0 0.4873 0.2228 0.8772 0.2297 0.3899 0.6266 0.6126 0.4038 0.2228 0.912 0.2228 0.5709 0 1.002-0.2506z"/>
   <path d="m271 270.8h-2.437l-0.4804 1.128h-0.9329l2.193-4.873h0.8911l2.2 4.873h-0.9468zm-0.2994-0.7101-0.9189-2.13-0.912 2.13z"/>
   <path d="m273.8 267.8h-1.615v-0.7658h4.135v0.7658h-1.615v4.107h-0.905z"/>
   <path d="m280.7 271.2v0.7588h-3.655v-4.873h3.557v0.7588h-2.652v1.267h2.353v0.7449h-2.353v1.344z"/>
  </g>
  <g aria-label="GATE">
   <path d="m265.8 311.5h0.8563v1.942q-0.3759 0.2994-0.8772 0.4595-0.5012 0.1601-1.03 0.1601-0.7449 0-1.344-0.3202-0.5987-0.3272-0.9398-0.898-0.3411-0.5709-0.3411-1.288t0.3411-1.288q0.3411-0.5709 0.9398-0.8911 0.6057-0.3272 1.358-0.3272 0.6126 0 1.114 0.2019t0.8424 0.5917l-0.5709 0.5569q-0.5569-0.5569-1.344-0.5569-0.5152 0-0.9189 0.2158-0.3968 0.2158-0.6266 0.6057-0.2228 0.3899-0.2228 0.8911 0 0.4873 0.2228 0.8772 0.2297 0.3898 0.6266 0.6126 0.4038 0.2228 0.912 0.2228 0.5709 0 1.002-0.2506z"/>
   <path d="m271 312.8h-2.437l-0.4804 1.128h-0.9329l2.193-4.873h0.8911l2.2 4.873h-0.9468zm-0.2994-0.7101-0.9189-2.13-0.912 2.13z"/>
   <path d="m273.8 309.8h-1.615v-0.7658h4.135v0.7658h-1.615v4.107h-0.905z"/>
   <path d="m280.7 313.2v0.7588h-3.655v-4.873h3.557v0.7588h-2.652v1.267h2.353v0.7449h-2.353v1.344z"/>
  </g>
  <g aria-label="X PWR">
   <path d="m297.8 313.9-1.323-1.852-1.309 1.852h-1.03l1.81-2.485-1.713-2.388h1.023l1.246 1.733 1.232-1.733h0.9816l-1.706 2.353 1.831 2.52z"/>
   <path d="m303.5 309.1q0.6335 0 1.1 0.2088 0.4734 0.2088 0.724 0.5987t0.2506 0.9259q0 0.5291-0.2506 0.9259-0.2506 0.3898-0.724 0.5987-0.4664 0.2088-1.1 0.2088h-1.1v1.406h-0.905v-4.873zm-0.0418 2.701q0.5917 0 0.898-0.2506t0.3063-0.717-0.3063-0.717-0.898-0.2506h-1.058v1.935z"/>
   <path d="m313.6 309.1-1.615 4.873h-0.9607l-1.204-3.606-1.225 3.606h-0.9677l-1.615-4.873h0.9398l1.211 3.704 1.26-3.704h0.8354l1.232 3.724 1.246-3.724z"/>
   <path d="m317.5 313.9-0.9955-1.427q-0.0627 7e-3 -0.188 7e-3h-1.1v1.42h-0.905v-4.873h2.005q0.6335 0 1.1 0.2088 0.4734 0.2088 0.724 0.5987t0.2506 0.9259q0 0.55-0.2715 0.9468-0.2645 0.3968-0.7658 0.5917l1.121 1.601zm-0.0209-3.14q0-0.4664-0.3063-0.717t-0.898-0.2506h-1.058v1.942h1.058q0.5917 0 0.898-0.2506 0.3063-0.2576 0.3063-0.724z"/>
  </g>
  <g aria-label="X CRV">
   <path d="m299.2 271.9-1.323-1.852-1.309 1.852h-1.03l1.81-2.485-1.713-2.388h1.023l1.246 1.733 1.232-1.733h0.9816l-1.706 2.353 1.831 2.52z"/>
   <path d="m305.1 272q-0.7379 0-1.337-0.3202-0.5917-0.3272-0.9329-0.898-0.3342-0.5709-0.3342-1.288t0.3411-1.288q0.3411-0.5709 0.9329-0.8911 0.5987-0.3272 1.337-0.3272 0.5987 0 1.093 0.2088t0.8354 0.6057l-0.5848 0.55q-0.5291-0.5708-1.302-0.5708-0.5012 0-0.898 0.2228-0.3968 0.2158-0.6196 0.6057-0.2228 0.3898-0.2228 0.8841t0.2228 0.8841q0.2228 0.3898 0.6196 0.6126 0.3968 0.2158 0.898 0.2158 0.7727 0 1.302-0.5778l0.5848 0.5569q-0.3411 0.3968-0.8424 0.6057-0.4943 0.2088-1.093 0.2088z"/>
   <path d="m311.1 271.9-0.9955-1.427q-0.0627 7e-3 -0.188 7e-3h-1.1v1.42h-0.905v-4.873h2.005q0.6335 0 1.1 0.2088 0.4734 0.2088 0.724 0.5987 0.2506 0.3898 0.2506 0.9259 0 0.55-0.2715 0.9468-0.2645 0.3968-0.7658 0.5917l1.121 1.601zm-0.0209-3.14q0-0.4664-0.3063-0.717t-0.8981-0.2506h-1.058v1.942h1.058q0.5917 0 0.8981-0.2506 0.3063-0.2576 0.3063-0.724z"/>
   <path d="m317.4 267.1-2.123 4.873h-0.8911l-2.13-4.873h0.9816l1.622 3.759 1.636-3.759z"/>
  </g>
 </g>
 <g fill="#fff" stroke="#fff" stroke-width=".1">
  <g aria-label="START">
   <path d="m262.8 168.8q-0.5307 0-1.029-0.1507-0.4914-0.1507-0.7797-0.3997l0.2948-0.6618q0.2817 0.2228 0.688 0.3669 0.4128 0.1376 0.8256 0.1376 0.5111 0 0.7601-0.1638 0.2555-0.1638 0.2555-0.4324 0-0.1966-0.1441-0.3211-0.1376-0.131-0.3538-0.2031t-0.5897-0.1638q-0.5242-0.1245-0.8518-0.249-0.3211-0.1245-0.5569-0.3866-0.2293-0.2686-0.2293-0.7208 0-0.38 0.2031-0.688 0.2097-0.3145 0.6225-0.498 0.4194-0.1835 1.022-0.1835 0.4194 0 0.8256 0.1048t0.7011 0.3014l-0.2686 0.6618q-0.3014-0.1769-0.629-0.2686t-0.6356-0.0917q-0.5045 0-0.7535 0.1704-0.2424 0.1704-0.2424 0.4521 0 0.1966 0.1376 0.3211 0.1442 0.1245 0.3604 0.1966t0.5897 0.1638q0.5111 0.1179 0.8387 0.249 0.3276 0.1245 0.5569 0.3866 0.2359 0.2621 0.2359 0.7076 0 0.38-0.2097 0.688-0.2031 0.308-0.6225 0.4914-0.4194 0.1835-1.022 0.1835z"/>
   <path d="m266.3 164.9h-1.52v-0.7208h3.892v0.7208h-1.52v3.866h-0.8518z"/>
   <path d="m272.1 167.7h-2.293l-0.4521 1.061h-0.878l2.064-4.587h0.8387l2.071 4.587h-0.8911zm-0.2817-0.6683-0.8649-2.005-0.8583 2.005z"/>
   <path d="m277 168.8-0.937-1.343q-0.059 7e-3 -0.1769 7e-3h-1.035v1.337h-0.8518v-4.587h1.887q0.5962 0 1.035 0.1966 0.4456 0.1966 0.6814 0.5635 0.2359 0.3669 0.2359 0.8714 0 0.5176-0.2555 0.8911-0.249 0.3735-0.7208 0.5569l1.055 1.507zm-0.0197-2.955q0-0.439-0.2883-0.6749t-0.8452-0.2359h-0.996v1.828h0.996q0.5569 0 0.8452-0.2359 0.2883-0.2424 0.2883-0.6814z"/>
   <path d="m279.7 164.9h-1.52v-0.7208h3.892v0.7208h-1.52v3.866h-0.8518z"/>
  </g>
  <g aria-label="END">
   <path d="m302.9 168.1v0.7142h-3.44v-4.587h3.348v0.7142h-2.496v1.193h2.215v0.7011h-2.215v1.265z"/>
   <path d="m307.9 164.2v4.587h-0.7011l-2.529-3.106v3.106h-0.8452v-4.587h0.7011l2.529 3.106v-3.106z"/>
   <path d="m309.2 164.2h2.005q0.7338 0 1.304 0.2883 0.57 0.2818 0.8846 0.8059 0.3145 0.5176 0.3145 1.199t-0.3145 1.206q-0.3145 0.5176-0.8846 0.8059-0.57 0.2818-1.304 0.2818h-2.005zm1.966 3.866q0.5045 0 0.8846-0.19 0.3866-0.1966 0.5897-0.5504 0.2097-0.3604 0.2097-0.8321t-0.2097-0.8256q-0.2031-0.3604-0.5897-0.5504-0.38-0.1966-0.8846-0.1966h-1.114v3.145z"/>
  </g>
  <g aria-label="PHASE">
   <path d="m262.2 116.2q0.5963 0 1.035 0.1966 0.4456 0.1966 0.6814 0.5635 0.2359 0.3669 0.2359 0.8714 0 0.498-0.2359 0.8714-0.2359 0.3669-0.6814 0.5635-0.439 0.1966-1.035 0.1966h-1.035v1.324h-0.8518v-4.587zm-0.0393 2.542q0.5569 0 0.8452-0.2359t0.2883-0.6749-0.2883-0.6749-0.8452-0.2359h-0.9959v1.822z"/>
   <path d="m269.1 116.2v4.587h-0.8518v-1.966h-2.372v1.966h-0.8518v-4.587h0.8518v1.894h2.372v-1.894z"/>
   <path d="m273.3 119.7h-2.293l-0.4521 1.061h-0.878l2.064-4.587h0.8387l2.071 4.587h-0.8911zm-0.2818-0.6683-0.8649-2.005-0.8583 2.005z"/>
   <path d="m276.6 120.8q-0.5307 0-1.029-0.1507-0.4914-0.1507-0.7797-0.3997l0.2948-0.6618q0.2818 0.2228 0.688 0.3669 0.4128 0.1376 0.8256 0.1376 0.5111 0 0.7601-0.1638 0.2555-0.1638 0.2555-0.4324 0-0.1966-0.1442-0.3211-0.1376-0.131-0.3538-0.2031t-0.5897-0.1638q-0.5242-0.1245-0.8518-0.249-0.3211-0.1245-0.557-0.3866-0.2293-0.2686-0.2293-0.7208 0-0.38 0.2031-0.688 0.2097-0.3145 0.6225-0.498 0.4193-0.1835 1.022-0.1835 0.4193 0 0.8256 0.1048 0.4062 0.1048 0.7011 0.3014l-0.2686 0.6618q-0.3014-0.1769-0.629-0.2686t-0.6356-0.0917q-0.5045 0-0.7535 0.1704-0.2424 0.1704-0.2424 0.4521 0 0.1966 0.1376 0.3211 0.1442 0.1245 0.3604 0.1966t0.5897 0.1638q0.5111 0.1179 0.8387 0.249 0.3276 0.1245 0.5569 0.3866 0.2359 0.2621 0.2359 0.7076 0 0.38-0.2097 0.688-0.2031 0.308-0.6225 0.4914-0.4193 0.1835-1.022 0.1835z"/>
   <path d="m282.8 120.1v0.7142h-3.44v-4.587h3.348v0.7142h-2.496v1.192h2.215v0.7011h-2.215v1.265z"/>
  </g>
  <g aria-label="WRAP">
   <path d="m302.8 116.2-1.52 4.587h-0.9042l-1.134-3.394-1.153 3.394h-0.9108l-1.52-4.587h0.8846l1.14 3.486 1.186-3.486h0.7863l1.16 3.505 1.173-3.505z"/>
   <path d="m306.5 120.8-0.937-1.343q-0.059 7e-3 -0.1769 7e-3h-1.035v1.337h-0.8518v-4.587h1.887q0.5963 0 1.035 0.1966 0.4456 0.1966 0.6814 0.5635 0.2359 0.3669 0.2359 0.8714 0 0.5176-0.2555 0.8911-0.249 0.3735-0.7208 0.5569l1.055 1.507zm-0.0197-2.955q0-0.439-0.2883-0.6749t-0.8452-0.2359h-0.9959v1.828h0.9959q0.5569 0 0.8452-0.2359 0.2883-0.2424 0.2883-0.6814z"/>
   <path d="m311.2 119.7h-2.293l-0.4521 1.061h-0.878l2.064-4.587h0.8387l2.071 4.587h-0.8911zm-0.2818-0.6683-0.8649-2.005-0.8584 2.005z"/>
   <path d="m315.1 116.2q0.5963 0 1.035 0.1966 0.4456 0.1966 0.6814 0.5635 0.2359 0.3669 0.2359 0.8714 0 0.498-0.2359 0.8714-0.2359 0.3669-0.6814 0.5635-0.439 0.1966-1.035 0.1966h-1.035v1.324h-0.8518v-4.587zm-0.0393 2.542q0.5569 0 0.8452-0.2359t0.2883-0.6749-0.2883-0.6749-0.8452-0.2359h-0.9959v1.822z"/>
  </g>
  <g aria-label="V/12P">
   <path d="m57.1 164.2-1.998 4.587h-0.8387l-2.005-4.587h0.9239l1.527 3.538 1.54-3.538z"/>
   <path d="m58.77 163.3h0.7339l-2.162 6.172h-0.7339z"/>
   <path d="m61.3 164.2v4.587h-0.8518v-3.872h-0.9697v-0.7142z"/>
   <path d="m65.53 168.1v0.7208h-3.381v-0.57l1.822-1.73q0.308-0.2948 0.4128-0.5111 0.1114-0.2228 0.1114-0.439 0-0.3211-0.2162-0.4914-0.2162-0.1704-0.6356-0.1704-0.7011 0-1.075 0.4783l-0.5963-0.4587q0.2686-0.3604 0.7207-0.5569 0.4587-0.2031 1.022-0.2031 0.747 0 1.193 0.3538 0.4456 0.3538 0.4456 0.9632 0 0.3735-0.1573 0.7011t-0.6028 0.747l-1.225 1.166z"/>
   <path d="m68.24 164.2q0.5963 0 1.035 0.1966 0.4456 0.1966 0.6814 0.5635 0.2359 0.3669 0.2359 0.8714 0 0.498-0.2359 0.8714-0.2359 0.3669-0.6814 0.5635-0.439 0.1966-1.035 0.1966h-1.035v1.324h-0.8518v-4.587zm-0.03931 2.542q0.5569 0 0.8452-0.2359t0.2883-0.6749-0.2883-0.6749q-0.2883-0.2359-0.8452-0.2359h-0.9959v1.822z"/>
  </g>
  <g aria-label="WENT">
   <path d="m23.19 164.2-1.52 4.587h-0.9042l-1.134-3.394-1.153 3.394h-0.9108l-1.52-4.587h0.8846l1.14 3.486 1.186-3.486h0.7863l1.16 3.505 1.173-3.505z"/>
   <path d="m27.33 168.1v0.7142h-3.44v-4.587h3.348v0.7142h-2.496v1.193h2.215v0.7011h-2.215v1.265z"/>
   <path d="m32.35 164.2v4.587h-0.7011l-2.529-3.106v3.106h-0.8452v-4.587h0.7011l2.529 3.106v-3.106z"/>
   <path d="m34.52 164.9h-1.52v-0.7208h3.892v0.7208h-1.52v3.866h-0.8518z"/>
  </g>
 </g>
 <g fill="#eaeae3">
  <g transform="matrix(3.78 0 0 3.78 637 -742.5)" aria-label="V">
   <path d="m-11.99 212.3-0.5618 1.289h-0.2358l-0.5636-1.289h0.2597l0.4292 0.9946 0.4328-0.9946z" fill="#eaeae3" stroke-width=".2646"/>
  </g>
  <g stroke-width=".2646">
   <g transform="matrix(3.78 0 0 3.78 637 -742.5)" aria-label="SHIFT">
    <path d="m-14.51 230.1q-0.1492 0-0.2892-0.0424-0.1381-0.0424-0.2192-0.1124l0.08289-0.186q0.0792 0.0626 0.1934 0.1031 0.116 0.0387 0.2321 0.0387 0.1437 0 0.2137-0.046 0.07183-0.0461 0.07183-0.1216 0-0.0553-0.04052-0.0902-0.03868-0.0368-0.09946-0.0571t-0.1658-0.046q-0.1474-0.035-0.2394-0.07-0.09025-0.035-0.1566-0.1087-0.06447-0.0755-0.06447-0.2026 0-0.1068 0.0571-0.1934 0.05894-0.0884 0.175-0.14 0.1179-0.0516 0.2873-0.0516 0.1179 0 0.2321 0.0295t0.1971 0.0847l-0.07552 0.186q-0.08473-0.0497-0.1768-0.0755-0.0921-0.0258-0.1787-0.0258-0.1418 0-0.2118 0.0479-0.06815 0.0479-0.06815 0.1271 0 0.0553 0.03868 0.0902 0.04052 0.035 0.1013 0.0553t0.1658 0.0461q0.1437 0.0331 0.2358 0.07 0.0921 0.035 0.1566 0.1087 0.06631 0.0737 0.06631 0.1989 0 0.1068-0.05894 0.1934-0.0571 0.0866-0.175 0.1382t-0.2873 0.0516z"/>
    <path d="m-12.6 228.8v1.289h-0.2394v-0.5526h-0.6668v0.5526h-0.2394v-1.289h0.2394v0.5323h0.6668v-0.5323z"/>
    <path d="m-12.26 228.8h0.2394v1.289h-0.2394z"/>
    <path d="m-11.43 229v0.3923h0.6226v0.2026h-0.6226v0.4936h-0.2394v-1.289h0.9412v0.2008z"/>
    <path d="m-10.22 229h-0.4273v-0.2026h1.094v0.2026h-0.4273v1.087h-0.2394z"/>
   </g>
   <g transform="matrix(3.78,0,0,3.78,637,-742.5)" aria-label="LEN">
    <path d="m-14.05 237h0.2394v1.087h0.6741v0.2026h-0.9136z"/>
    <path d="m-11.97 238.1v0.2008h-0.967v-1.289h0.9412v0.2008h-0.7018v0.3352h0.6226v0.1971h-0.6226v0.3555z"/>
    <path d="m-10.56 237v1.289h-0.1971l-0.711-0.8731v0.8731h-0.2376v-1.289h0.1971l0.711 0.8731v-0.8731z"/>
   </g>
   <g transform="matrix(3.78 0 0 3.78 637 -742.5)" aria-label="OUT">
    <path d="m-13.48 263.9q-0.1971 0-0.3555-0.0847-0.1584-0.0866-0.2487-0.2376-0.09025-0.1529-0.09025-0.3408t0.09025-0.3389q0.09025-0.1529 0.2487-0.2376 0.1584-0.0866 0.3555-0.0866t0.3555 0.0866q0.1584 0.0847 0.2487 0.2358 0.09025 0.151 0.09025 0.3408 0 0.1897-0.09025 0.3408t-0.2487 0.2376q-0.1584 0.0847-0.3555 0.0847zm0-0.21q0.1289 0 0.2321-0.0571 0.1031-0.0589 0.1621-0.1621 0.05894-0.105 0.05894-0.2339t-0.05894-0.2321q-0.05894-0.105-0.1621-0.1621-0.1031-0.0589-0.2321-0.0589t-0.2321 0.0589q-0.1031 0.0571-0.1621 0.1621-0.05894 0.1031-0.05894 0.2321 0 0.1289 0.05894 0.2339 0.05894 0.1032 0.1621 0.1621 0.1031 0.0571 0.2321 0.0571z"/>
    <path d="m-11.98 263.9q-0.2671 0-0.4163-0.1492-0.1492-0.151-0.1492-0.431v-0.7276h0.2394v0.7183q0 0.3794 0.3279 0.3794 0.326 0 0.326-0.3794v-0.7183h0.2358v0.7276q0 0.28-0.1492 0.431-0.1474 0.1492-0.4144 0.1492z"/>
    <path d="m-10.84 262.8h-0.4273v-0.2026h1.094v0.2026h-0.4273v1.087h-0.2394z"/>
   </g>
   <g transform="matrix(3.78,0,0,3.78,637,-742.5)" aria-label="GATE">
    <path d="m-13.94 221.1h0.2266v0.5139q-0.09946 0.0792-0.2321 0.1216-0.1326 0.0424-0.2726 0.0424-0.1971 0-0.3555-0.0847-0.1584-0.0866-0.2487-0.2376-0.09025-0.151-0.09025-0.3408 0-0.1897 0.09025-0.3408t0.2487-0.2358q0.1602-0.0866 0.3592-0.0866 0.1621 0 0.2947 0.0534t0.2229 0.1566l-0.151 0.1474q-0.1474-0.1474-0.3555-0.1474-0.1363 0-0.2431 0.0571-0.105 0.0571-0.1658 0.1602-0.05894 0.1032-0.05894 0.2358 0 0.1289 0.05894 0.2321 0.06078 0.1031 0.1658 0.1621 0.1068 0.0589 0.2413 0.0589 0.151 0 0.2652-0.0663z"/>
    <path d="m-12.56 221.5h-0.6447l-0.1271 0.2984h-0.2468l0.5802-1.289h0.2358l0.582 1.289h-0.2505zm-0.0792-0.1879-0.2431-0.5636-0.2413 0.5636z"/>
    <path d="m-11.82 220.7h-0.4273v-0.2026h1.094v0.2026h-0.4273v1.087h-0.2394z"/>
    <path d="m-10.01 221.6v0.2008h-0.967v-1.289h0.9412v0.2008h-0.7018v0.3352h0.6226v0.1971h-0.6226v0.3555z"/>
   </g>
   <g transform="matrix(3.78 0 0 3.78 637 -742.5)" aria-label="IN">
    <path d="m-13.14 245.7h0.2394v1.289h-0.2394z"/>
    <path d="m-11.41 245.7v1.289h-0.1971l-0.711-0.8731v0.8731h-0.2376v-1.289h0.1971l0.711 0.8731v-0.8731z"/>
   </g>
   <g transform="matrix(3.78 0 0 3.78 637 -742.5)" aria-label="JMP">
    <path d="m-13.89 272.1q-0.1234 0-0.2284-0.0479-0.1031-0.0497-0.1695-0.1381l0.1363-0.1639q0.1068 0.1474 0.256 0.1474 0.2008 0 0.2008-0.2376v-0.6668h-0.4586v-0.2008h0.6981v0.8546q0 0.2266-0.1105 0.3408-0.1105 0.1124-0.3242 0.1124z"/>
    <path d="m-11.93 272.1-0.0018-0.8546-0.4236 0.7073h-0.1068l-0.4236-0.6962v0.8436h-0.2284v-1.289h0.1971l0.5121 0.8546 0.5028-0.8546h0.1971l0.0018 1.289z"/>
    <path d="m-10.83 270.8q0.1676 0 0.291 0.0553 0.1252 0.0553 0.1916 0.1584 0.06631 0.1032 0.06631 0.245 0 0.14-0.06631 0.245-0.06631 0.1032-0.1916 0.1584-0.1234 0.0553-0.291 0.0553h-0.291v0.3721h-0.2394v-1.289zm-0.01105 0.7147q0.1566 0 0.2376-0.0663 0.08104-0.0663 0.08104-0.1897t-0.08104-0.1897-0.2376-0.0663h-0.28v0.5121z"/>
   </g>
   <g transform="matrix(3.78,0,0,3.78,637,-742.5)" aria-label="EXPR">
    <path d="m-13.76 255.2v0.2008h-0.967v-1.289h0.9412v0.2008h-0.7018v0.3352h0.6226v0.1971h-0.6226v0.3555z"/>
    <path d="m-12.7 255.4-0.35-0.49-0.3463 0.49h-0.2726l0.4789-0.6576-0.4531-0.6318h0.2708l0.3297 0.4586 0.326-0.4586h0.2597l-0.4513 0.6226 0.4844 0.6668z"/>
    <path d="m-11.74 254.1q0.1676 0 0.291 0.0553 0.1252 0.0553 0.1916 0.1584 0.06631 0.1032 0.06631 0.245 0 0.14-0.06631 0.245-0.06631 0.1032-0.1916 0.1584-0.1234 0.0553-0.291 0.0553h-0.291v0.3721h-0.2394v-1.289zm-0.01105 0.7147q0.1566 0 0.2376-0.0663 0.08104-0.0663 0.08104-0.1897t-0.08104-0.1897-0.2376-0.0663h-0.28v0.512z"/>
    <path d="m-10.11 255.4-0.2634-0.3776q-0.01658 2e-3 -0.04973 2e-3h-0.291v0.3758h-0.2394v-1.289h0.5305q0.1676 0 0.291 0.0553 0.1252 0.0553 0.1916 0.1584 0.06631 0.1032 0.06631 0.245 0 0.1455-0.07184 0.2505-0.06999 0.105-0.2026 0.1566l0.2965 0.4236zm-0.0055-0.8307q0-0.1234-0.08104-0.1897t-0.2376-0.0663h-0.28v0.5139h0.28q0.1566 0 0.2376-0.0663 0.08104-0.0682 0.08104-0.1916z"/>
   </g>
  </g>
  <g aria-label="1">
   <path d="m629.5 32.06v6.974h-1.295v-5.888h-1.475v-1.086z" fill="#eaeae3"/>
  </g>
  <g aria-label="3">
   <path d="m699 34.94q0.9664 0.1196 1.475 0.6576t0.5081 1.345q0 0.6077-0.3089 1.106t-0.9365 0.797q-0.6177 0.2889-1.514 0.2889-0.7472 0-1.445-0.2092-0.6874-0.2192-1.176-0.5978l0.5579-1.006q0.3786 0.3188 0.9166 0.5081 0.548 0.1793 1.126 0.1793 0.6874 0 1.076-0.279 0.3985-0.2889 0.3985-0.7771t-0.3786-0.7572q-0.3686-0.279-1.136-0.279h-0.6376v-0.8867l1.584-1.883h-3.168v-1.086h4.752v0.8668z" fill="#eaeae3"/>
  </g>
  <g aria-label="2">
   <path d="m666.1 37.94v1.096h-5.141v-0.8668l2.77-2.63q0.4683-0.4483 0.6277-0.7771 0.1694-0.3387 0.1694-0.6675 0-0.4882-0.3288-0.7472t-0.9664-0.259q-1.066 0-1.634 0.7273l-0.9066-0.6974q0.4085-0.548 1.096-0.8469 0.6974-0.3089 1.554-0.3089 1.136 0 1.813 0.538t0.6775 1.465q0 0.5679-0.2391 1.066-0.2391 0.4982-0.9166 1.136l-1.863 1.773z" fill="#eaeae3"/>
  </g>
  <g aria-label="4">
   <path d="m736.8 37.45h-1.235v1.584h-1.255v-1.584h-3.826v-0.8967l3.437-4.493h1.385l-3.238 4.294h2.282v-1.405h1.215v1.405h1.235z" fill="#eaeae3"/>
  </g>
  <g aria-label="5">
   <path d="m768.2 34.76q1.475 0 2.182 0.5779 0.7074 0.5679 0.7074 1.554 0 0.6277-0.3089 1.136-0.3088 0.5081-0.9266 0.807-0.6177 0.2989-1.524 0.2989-0.7472 0-1.445-0.2092-0.6974-0.2192-1.176-0.5978l0.548-1.006q0.3886 0.3188 0.9266 0.5081 0.548 0.1793 1.126 0.1793 0.6874 0 1.076-0.279 0.3985-0.2889 0.3985-0.7871 0-0.538-0.4284-0.807-0.4184-0.279-1.445-0.279h-1.684l0.3587-3.796h4.095v1.086h-2.999l-0.1494 1.614z" fill="#eaeae3"/>
  </g>
  <g aria-label="7">
   <path d="m841.2 32.06v0.8668l-2.71 6.107h-1.385l2.62-5.878h-2.74v1.186h-1.206v-2.282z" fill="#eaeae3"/>
  </g>
  <g aria-label="6">
   <path d="m804 34.73q0.6874 0 1.235 0.269 0.548 0.259 0.8568 0.7472t0.3088 1.126q0 0.6775-0.3387 1.196-0.3388 0.5081-0.9166 0.7871t-1.295 0.279q-1.435 0-2.232-0.8967-0.7871-0.8967-0.7871-2.57 0-1.176 0.4284-2.003 0.4284-0.8369 1.196-1.265 0.7771-0.4384 1.793-0.4384 0.538 0 1.006 0.1196 0.4782 0.1096 0.8269 0.3288l-0.4782 0.9764q-0.5181-0.3387-1.325-0.3387-1.006 0-1.574 0.6177-0.5679 0.6177-0.5679 1.783v0.01q0.3088-0.3587 0.7871-0.538 0.4782-0.1893 1.076-0.1893zm-0.2192 3.387q0.6078 0 0.9864-0.3188 0.3786-0.3288 0.3786-0.8668 0-0.548-0.3786-0.8668t-1.016-0.3188q-0.6277 0-1.026 0.3387-0.3886 0.3387-0.3886 0.8568 0 0.5081 0.3786 0.8469 0.3886 0.3288 1.066 0.3288z" fill="#eaeae3"/>
  </g>
  <g aria-label="8">
   <path d="m875.2 35.37q0.548 0.2491 0.8369 0.6775 0.2989 0.4184 0.2989 0.9863 0 0.6376-0.3587 1.116-0.3487 0.4782-0.9963 0.7373-0.6476 0.2491-1.504 0.2491-0.8568 0-1.504-0.2491-0.6376-0.259-0.9863-0.7373-0.3487-0.4782-0.3487-1.116 0-0.5679 0.2889-0.9863 0.2889-0.4284 0.8269-0.6775-0.4184-0.2292-0.6476-0.5978-0.2192-0.3786-0.2192-0.8668 0-0.5878 0.3188-1.026 0.3288-0.4384 0.9166-0.6775t1.355-0.2391q0.7771 0 1.365 0.2391 0.5878 0.2391 0.9166 0.6775t0.3288 1.026q0 0.4882-0.2292 0.8568t-0.6576 0.6077zm-1.724-2.391q-0.6078 0-0.9664 0.259-0.3487 0.259-0.3487 0.7273 0 0.4483 0.3487 0.7173 0.3587 0.259 0.9664 0.259 0.6177 0 0.9764-0.259 0.3587-0.269 0.3587-0.7173 0-0.4683-0.3686-0.7273-0.3587-0.259-0.9664-0.259zm0 5.141q0.7173 0 1.136-0.2989t0.4184-0.8269q0-0.5181-0.4184-0.817t-1.136-0.2989-1.126 0.2989q-0.4085 0.2989-0.4085 0.817 0 0.528 0.4085 0.8269t1.126 0.2989z" fill="#eaeae3"/>
  </g>
  <g aria-label="RND">
   <path d="m587 313.9-0.9955-1.427q-0.0627 7e-3 -0.188 7e-3h-1.1v1.42h-0.905v-4.873h2.005q0.6335 0 1.1 0.2088 0.4734 0.2088 0.724 0.5987 0.2506 0.3898 0.2506 0.9259 0 0.55-0.2715 0.9468-0.2645 0.3968-0.7658 0.5917l1.121 1.601zm-0.0209-3.14q0-0.4664-0.3063-0.717t-0.8981-0.2506h-1.058v1.942h1.058q0.5917 0 0.8981-0.2506 0.3063-0.2576 0.3063-0.724z"/>
   <path d="m593.3 309.1v4.873h-0.7449l-2.687-3.3v3.3h-0.8981v-4.873h0.7449l2.687 3.3v-3.3z"/>
   <path d="m594.6 309.1h2.13q0.7797 0 1.385 0.3063 0.6057 0.2994 0.9398 0.8563 0.3342 0.55 0.3342 1.274t-0.3342 1.281q-0.3342 0.55-0.9398 0.8563-0.6057 0.2994-1.385 0.2994h-2.13zm2.088 4.107q0.536 0 0.9398-0.2019 0.4107-0.2088 0.6266-0.5848 0.2228-0.3829 0.2228-0.8841t-0.2228-0.8772q-0.2158-0.3829-0.6266-0.5848-0.4038-0.2088-0.9398-0.2088h-1.183v3.342z"/>
  </g>
  <g stroke-width=".9482" aria-label="Phaseque">
   <path d="m431.2 20.17q-0.1064 0.553-0.3403 1.064-0.2127 0.4892-0.5743 0.9784-0.4254 0.6168-0.9359 1.149-0.5105 0.5105-1.064 0.9997-0.2552 0.2127-0.5318 0.4467-0.2552 0.2127-0.6168 0.234-0.0213 0.2552-0.1914 0.3191-0.1489 0.06381-0.2978 0.1276-0.3829 0.2127-0.787 0.3829-0.3829 0.1702-0.787 0.3403-0.1914 0.06381-0.3829 0.2127-0.1064 0.06381-0.2127 0.1276-0.0851 0.06381-0.1914 0.06381-0.2127 0.02127-0.4254 0.1276-0.1914 0.1064-0.4041 0.1064-0.1914 0.2552-0.234 0.5105-0.0425 0.2552-0.1489 0.4892 0.0425-0.1702 0.0638-0.3403 0.0425-0.1702 0.0851-0.3403-0.2127 0.5105-0.319 1.021t-0.1702 1.021q-0.0425 0.3191-0.0851 0.6381-0.0213 0.3191-0.0425 0.6381-0.0425 0.3403 0.0638 0.6594 0.0638 0.234-0.1702 0.468-0.1489-0.02127-0.2978-0.02127-0.1276-0.02127-0.2978-0.02127-0.0638 0.06381-0.1276 0.1489-0.0425 0.06381-0.1489 0.1702-0.0425-0.04254-0.0851-0.08508-0.0425-0.04254-0.1064-0.06381-0.3616-0.1489-0.4254-0.468-0.0425-0.3403-0.0638-0.6807-0.0425-0.5318 0-1.042 0.0638-0.5318 0.1702-1.085 0.0425-0.2552 0.0851-0.5105 0.0425-0.2552 0.0851-0.5105 0.0213-0.04254 0.0213-0.1064 0-0.06381 0.0213-0.1702-0.1702 0-0.3403 0-0.1489-0.02127-0.3191-0.04254-0.0425 0-0.0851 0-0.0425 0-0.0638-0.02127-0.1276-0.04254-0.234-0.1276-0.0851-0.1064-0.2552-0.06381-0.0213-0.1276-0.1489-0.1702-0.1064-0.06381-0.0638-0.234 0-0.06381-0.0213-0.1064 0-0.06381-0.0213-0.1276 0.0425 0 0.0638 0 0.0425-0.02127 0.0851-0.02127 0.1702-0.1489 0.2765-0.2765 0.1276-0.1489 0.2765-0.2765 0.0426-0.04254 0.1064-0.04254t0.0851 0.08508q0 0.04254 0 0.08508 0.0213 0.02127 0.0213 0.08508 0.0851-0.04254 0.1489-0.08508 0.0851-0.04254 0.1276-0.08508 0.1489 0.02127 0.2552 0.04254t0.234 0.02127q0.2127-0.04254 0.2765-0.2765 0.0425-0.1702 0.0638-0.3403 0.0425-0.1702 0.0851-0.3403 0.0638-0.2127-0.1914-0.2127 0.0213 0.08508 0.0851 0.2127-0.0638 0.06381-0.1914 0.234-0.0851-0.04254-0.0851-0.04254-0.0638-0.1914-0.2765-0.2127-0.1489-0.04254-0.234-0.2127-0.1276-0.1914-0.234-0.4041t-0.2552-0.4467q0.0426-0.04254 0.0851-0.06381 0.0638-0.02127 0.1064-0.06381-0.0213 0-0.0213-0.02127t-0.0213-0.02127 0-0.02127q-0.1064 0.08508-0.1914 0.08508-0.0638 0-0.1276-0.02127-0.0425-0.04254-0.0851-0.08508-0.0425-0.06381-0.0851-0.1064-0.0213-0.02127-0.0213-0.04254 0-0.06381 0.0425-0.1064 0.0425-0.04254 0.0851-0.06381 0.0638-0.04254 0.0851-0.08508t-0.0213-0.1064q-0.3616 0.234-0.6168-0.02127-0.3829-0.3616-0.7232-0.787-0.234-0.2978-0.2978-0.6807-0.1064-0.3403 0.0213-0.6807 0.1276-0.3616 0.3829-0.7232 0.3616-0.4892 0.8083-0.8295t0.9572-0.6381 1.021-0.5105q0.5318-0.234 1.085-0.4041 1.085-0.3616 2.148-0.5318 1.085-0.1914 2.127-0.1276 0.8721 0.04254 1.617 0.2552 0.7657 0.2127 1.383 0.7019 0.4041 0.2978 0.6594 0.7232 0.2978 0.4041 0.234 0.8934-0.0425 0.4892-0.2552 0.9784-0.6594 1.404-1.68 2.552-0.0638 0.06381-0.1276 0.1489-0.0425 0.06381-0.0851 0.1276 0.0851-0.04254 0.1489-0.08508 0.0851-0.04254 0.1276-0.1064 0.4892-0.553 0.8934-1.127 0.4041-0.5743 0.6806-1.234 0.0851-0.1914 0.1702-0.3829 0.0851-0.1914 0.1914-0.3829zm-0.9784 1.127q-0.2127 0.2978-0.4041 0.5956-0.1914 0.2765-0.4041 0.5743 0.2765-0.2552 0.4892-0.5318 0.2127-0.2978 0.3191-0.6381zm-10.87-0.5105q0.4254-0.2978 0.5743-0.7445-0.2765 0.1276-0.3829 0.3191-0.1064 0.1702-0.1914 0.4254zm1.489-0.1914q-0.0425 0.06381-0.0638 0.1276-0.0213 0.04254-0.0638 0.1064h0.0851q0.0213-0.04254 0.0425-0.1064 0.0213-0.06381 0.0425-0.1064-0.0213 0-0.0213 0 0-0.02127-0.0213-0.02127zm-0.5956 2.255q0.0213 0 0.1064-0.04254-0.0638-0.06381-0.0425-0.06381-0.0851 0-0.0851 0.04254 0 0.06381 0.0213 0.06381zm0.7232-1.787q0.1064-0.1276 0.1276-0.1702 0.0213-0.04254 0.0638-0.2127-0.0851 0.1064-0.1489 0.1914-0.0638 0.08508-0.1064 0.1489 0.0213 0.02127 0.0213 0.02127 0.0213 0 0.0426 0.02127zm-0.2127 2.021q0.0638 0.02127 0.1064 0.04254 0.0425 0 0.1276 0.02127-0.0426-0.1489-0.0851-0.1489t-0.1489 0.08508zm0.5105-0.4467q0.0425-0.04254 0.0851-0.04254 0.0425-0.02127 0.0851-0.04254-0.0426-0.04254-0.0213-0.04254-0.0638 0-0.1489 0.04254zm3.169-1.787q0.0638-0.1276 0.1064-0.234 0.0425-0.1276 0.1064-0.2552h-0.0638q-0.0425 0.1064-0.1064 0.234-0.0638 0.1276-0.1064 0.234 0.0638 0 0.0638 0.02127zm0.1276 5.296q0.0425-0.1064 0.0638-0.1702 0.0213-0.08508-0.1276-0.1064 0.0213 0.04254 0.0213 0.1064 0 0.06381 0.0425 0.1702zm0.7019-0.5105q0-0.02127 0-0.02127 0.0213-0.02127 0.0213-0.04254h-0.1489q0 0.02127-0.0213 0.04254 0.0425 0.02127 0.1489 0.02127zm-0.8296-1.234q0.3616-0.2765 0.7445-0.5318 0.3829-0.2765 0.7445-0.5743 0.5743-0.4892 1.106-1.021 0.553-0.553 0.9784-1.17 0.2552-0.3616 0.4254-0.7232 0.1914-0.3616 0.2765-0.7445 0.0426-0.4041-0.0638-0.6168-0.1064-0.234-0.468-0.3616-0.2978-0.1064-0.6168-0.1064-0.2978-0.02127-0.6381 0.02127-0.553 0.04254-1.149 0.1702-0.5743 0.1276-1.149 0.2978-1.191 0.3403-2.318 0.9572-0.3403 0.1702-0.6381 0.4041-0.2765 0.234-0.5105 0.5743-0.234 0.2978-0.1064 0.553 0.1276 0.1914 0 0.4254 0.0638 0.02127 0.1276 0.02127 0.0851-0.02127 0.0851 0 0.0425 0.1064 0.1276 0.1702 0.1064 0.06381 0.1702 0.1489 0.0851 0.06381 0.1064 0.1702 0.0425 0.1064-0.0425 0.2765 0.0851 0 0.1489-0.02127 0.0851-0.02127 0.1276 0.02127 0.1702 0.1064 0.234 0.2552 0.0638 0.1702 0.2765 0.1489 0.0425-0.2127 0.0851-0.2978 0.1914-0.553 0.3829-1.085 0.2127-0.5318 0.4467-1.085 0.1064-0.2552 0.2552-0.4892 0.1702-0.234 0.3403-0.468 0.0425-0.1064 0.1276-0.1914 0.1064-0.08508 0.2552-0.08508 0.0638 0.1914-0.0425 0.3616-0.0851 0.1489-0.2127 0.2978-0.2127 0.2552-0.1914 0.5743 0.0425-0.08508 0.0851-0.1276 0.0425-0.06381 0.0851-0.1064 0.1064-0.1702 0.234-0.3616 0.1489-0.1914 0.2552-0.3616 0.0851-0.1064 0.1489-0.1914 0.0851-0.08508 0.2552-0.04254 0.0213 0.06381 0 0.1276 0 0.06381 0.0213 0.1489 0.1064-0.1064 0.234-0.1914 0.0851 0 0.1276 0.06381 0.0425 0.04254 0.0638 0.1064 0.0213 0.06381 0.0638 0.1064 0.0425 0.04254 0.1702 0-0.468 1.212-0.9572 2.425-0.468 1.191-0.8083 2.446 0.1702-0.1064 0.2978-0.1702 0.1489-0.06381 0.2978-0.1489zm0.6381-3.701q0.0213-0.04254 0.0213-0.1064 0.0213-0.06381 0.0425-0.1064h-0.0425q-0.0213 0.08508-0.0638 0.2127zm1.893 2.382q0.2765-0.1489 0.553-0.4041t0.5318-0.553q0.2552-0.2978 0.4467-0.5956 0.1914-0.3191 0.2978-0.6168-0.3829 0.5743-0.8508 1.106-0.4467 0.5318-0.9784 1.064zm2.084-1.276q0.0213 0.02127 0.0213 0.02127 0.0213 0 0.0425 0.02127 0.1064-0.1489 0.1914-0.2765 0.1064-0.1489 0.2127-0.2978-0.0213-0.02127-0.0425-0.02127 0 0-0.0213-0.02127-0.1064 0.1489-0.2127 0.2978-0.0851 0.1276-0.1914 0.2765zm-0.2127 1.914q0.0425-0.08508 0.1276-0.2127-0.1276 0.06381-0.1276 0.2127zm-8.934 2.233q-0.1276 0.1276-0.1276 0.3191l-0.1489 0.1489q0.0213-0.1276-0.0213-0.2127-0.0426-0.1064 0.1064-0.2127 0.0851-0.08508 0.1489-0.1489 0.0638-0.08508 0.1489-0.1702h0.0638q-0.0425 0.08508-0.0851 0.1702-0.0213 0.06381-0.0851 0.1064zm2.872 3.488q-0.0213-0.04254-0.0213-0.1064 0-0.06381-0.0213-0.1276 0.0425-0.1276 0.0638-0.2552 0.0425-0.1276 0.0851-0.2552h0.0425q-0.0851 0.3829-0.1276 0.7445zm1.829-6.721q0.1064-0.2765 0.2127-0.553 0.1276-0.2765 0.234-0.553 0.0213-0.04254 0.0426-0.06381 0.0425-0.04254 0.0851-0.08508-0.1489 0.3616-0.2978 0.7232-0.1276 0.3403-0.2552 0.7019-0.0638 0.06381-0.0638 0.1489h-0.0638q0.0213-0.08508 0.0425-0.1489 0.0425-0.08508 0.0638-0.1702zm0.5743-1.255q0.0425-0.1489 0.0638-0.2765t0.0638-0.2552h0.0638q-0.0425 0.06381-0.0638 0.1276 0 0.06381-0.0425 0.1064-0.0213 0.08508-0.0425 0.1489-0.0213 0.06381-0.0425 0.1276zm-1.127 2.872q0.0425-0.1064 0.0425-0.1702 0.0213-0.08508 0.0638-0.1914h0.0426q-0.0426 0.1064-0.0638 0.1914 0 0.06381-0.0425 0.1702zm1.489-3.978q0.0213 0 0.0213 0.02127 0 0.04254-0.0426 0.1064-0.0213 0.06381-0.0425 0.1276h-0.0638zm-1.191 3.105q0.0425-0.08508 0.0425-0.1276h0.0425q0 0.04254-0.0425 0.1276z"/>
   <path d="m435.8 28.73q0.0213 0.04254 0.1064 0.1276-0.0425 0.04254-0.0851 0.1064-0.0213 0.06381-0.0851 0.1489-0.1064 0.1489-0.1489 0.1489t-0.2127-0.04254q-0.1064-0.02127-0.234-0.02127-0.1064-0.02127-0.2552 0-0.234 0.06381-0.4041-0.1064-0.2127-0.2127-0.2765-0.4892-0.0426-0.2765-0.0213-0.5956 0.0851-1.085 0.4254-2.276 0.0426-0.1914 0.1064-0.3829 0.0638-0.2127 0.1064-0.4041 0.0425-0.1489-0.0638-0.1702 0.0425-0.08508 0.1064-0.1489 0.0638-0.06381 0.0425-0.1702l-0.3403 0.3403q-1.489 1.489-2.723 3.105-0.0851 0.08508-0.1276 0.1702-0.0425 0.08508-0.0851 0.1914 0.0638-0.06381 0.1276-0.1276 0.0638-0.06381 0.1489-0.1276-0.0426 0.08508-0.0851 0.1489-0.0425 0.06381-0.0851 0.1276-0.0851 0.1064-0.1276 0-0.0851 0.06381-0.1702 0.1276-0.0851 0.06381-0.1914 0.1702-0.1276-0.3191-0.4892-0.1276-0.0213-0.04254-0.0213-0.1489-0.1276 0.04254-0.234 0.1064-0.1064 0.04254-0.2127 0.06381-0.1276 0-0.1702-0.08508-0.0425-0.1064-0.0213-0.2127-0.1914-0.04254-0.234-0.1064-0.0425-0.06381 0-0.234 0-0.1489 0.0425-0.234 0.1702-0.6168 0.3403-1.234 0.1914-0.6381 0.4041-1.255 0.2552-0.787 0.5318-1.553 0.2765-0.7657 0.6381-1.531 0.234-0.5318 0.468-1.064 0.234-0.5318 0.4892-1.064 0.2552-0.5105 0.5318-0.9997 0.2978-0.4892 0.5743-0.9784 0.1064-0.1489 0.1914-0.2765 0.1064-0.1489 0.2127-0.2765 0.1064-0.1064 0.2127-0.2127 0.1276-0.1064 0.2978-0.1064 0.0425 0.1276 0.0213 0.2127-0.0213 0.06381-0.1489 0.3616 0.1064-0.02127 0.1702-0.08508t0.1276-0.1489q0.0638-0.08508 0.1276-0.1276 0.0638-0.06381 0.1914-0.04254-0.0425 0.1064-0.0851 0.234-0.0425 0.1064-0.1064 0.2552 0.1064-0.1064 0.1914-0.1702 0.0851-0.06381 0.1914-0.1702 0.0425 0.1064 0.0638 0.234 0.0425 0.1064 0.0851 0.2127h0.0213q0.0213 0 0.0638-0.02127-0.0638 0.1702-0.1489 0.2765-0.0851 0.02127-0.1489 0.02127t-0.1276 0.02127q-0.0851 0.08508-0.1489 0.2127 0.1064-0.04254 0.1702-0.06381 0.0851-0.04254 0.234-0.08508-1.659 2.957-2.723 5.998 0.0213 0 0.0213 0.02127 0.1064-0.06381 0.1914-0.1064 0.0851-0.06381 0.1914-0.1489 0.6807-0.6807 1.404-1.276 0.7232-0.6168 1.489-1.212 0.1489-0.1064 0.2765-0.2127 0.1276-0.1064 0.2765-0.2127 0.1914-0.1914 0.3403-0.04254-0.0213 0.06381-0.0425 0.1489-0.0213 0.08508-0.0425 0.1914 0.1276-0.1064 0.234-0.1702 0.1276-0.08508 0.2552-0.1914 0.0638 0.06381 0.1064 0.1276 0.0425 0.06381 0.0851 0.1276 0.2127-0.08508 0.2552-0.06381t0.1064 0.1914q0.0213 0.04254 0.1064 0.08508 0.1702 0.1276 0.0851 0.2978-0.0851 0.2127-0.1702 0.4254-0.0638 0.2127-0.1489 0.4467 0.0638-0.1064 0.1276-0.2127 0.0851-0.1064 0.1702-0.2127-0.2978 0.787-0.6806 1.531-0.3829 0.7445-0.7445 1.51 0.0425-0.1276 0.0638-0.2552 0.0213-0.1489 0.0638-0.2765-0.1064 0.234-0.2127 0.4467-0.1064 0.2127-0.1914 0.4467-0.1489 0.4892-0.2978 0.9784-0.1276 0.4892-0.2765 0.9784-0.0425 0.1702-0.0851 0.3191-0.0213 0.1489-0.0425 0.3191-0.0213 0.1064 0.0213 0.2765 0.0213 0.06381 0.0213 0.1489 0 0.06381 0.0213 0.1276zm1.021-4.02 0.0213-0.02127zm-2.574-5.573t0.0425 0.02127q0.0425-0.04254 0.0425-0.08508 0-0.06381 0.0425-0.1064 0 0 0-0.02127zm-1.595 7.53q0.1914-0.2127 0.3616-0.4041 0.1914-0.2127 0.3829-0.4467-0.1064 0-0.1702 0.06381t-0.1276 0.1276q-0.3191 0.3829-0.6381 0.7657-0.2978 0.3616-0.5956 0.7445-0.0851 0.1276-0.1064 0.1914 0.234-0.2552 0.4467-0.5105 0.234-0.2765 0.4467-0.5318zm0.7445-0.8508q0.0425-0.06381 0.0851-0.1276 0.0425-0.06381 0.0851-0.1489-0.234 0.1276-0.1702 0.2765zm0.6806-0.8295q0.234-0.1064 0.2978-0.3191-0.1064 0.06381-0.1914 0.1276-0.0638 0.04254-0.1064 0.1914zm0.468-0.468q0.0425-0.04254 0.0851-0.06381 0.0425-0.02127 0.0851-0.06381-0.1489-0.06381-0.1702 0.1276zm0.3191-0.3403q-0.1276 0-0.1276 0.06381t0 0.1276zm0.0213 0q0.0638-0.04254 0.1276-0.08508 0.0851-0.04254 0.0638-0.1702-0.0426 0.08508-0.1064 0.1489-0.0425 0.04254-0.0851 0.1064zm0.5318-1.638q0.1064-0.1064 0.2552-0.1702 0.1489-0.08508 0.234-0.2765-0.0851 0.04254-0.1489 0.06381-0.0425 0.02127-0.0851 0.06381-0.234 0.2127-0.468 0.4041t-0.4892 0.3829q-0.2978 0.2552-0.5743 0.5105-0.2765 0.2552-0.5743 0.553-0.1914 0.2127-0.4041 0.4041-0.1914 0.1914-0.3616 0.4041-0.2127 0.1702-0.2127 0.4254 0.1489-0.1702 0.2552-0.2765 0.1276-0.1276 0.234-0.234 0.2127-0.2552 0.468-0.468 0.1064-0.1064 0.2127-0.2127 0.1064-0.1276 0.2127-0.234 0.1489-0.1276 0.2552-0.234 0.1276-0.1276 0.2552-0.234 0.1064-0.1064 0.234-0.2127 0.1276-0.1064 0.234-0.2127 0.1276-0.1064 0.234-0.2127 0.1276-0.1276 0.234-0.234zm-2.999 4.871q-0.1064 0.1276-0.1914 0.2552-0.0638 0.1064-0.1702 0.2127 0.1064-0.2765 0.3616-0.468z"/>
   <path d="m445.1 28.43q-0.1064 0.1276-0.1276 0.2552-0.0213 0.1064-0.1914 0.2127-0.0851 0.04254-0.1702 0.08508-0.0638 0.04254-0.1702 0.02127-0.1702-0.04254-0.3191-0.04254t-0.3403 0.04254q-0.1489 0.04254-0.2552 0-0.0851-0.06381-0.1914-0.1276-0.3829-0.3191-0.4892-0.8508-0.1702-0.7019-0.1064-1.468v-0.1702q-0.0638 0-0.0638 0-0.3403 0.2552-0.6807 0.5318-0.319 0.2552-0.6806 0.5105-0.4467 0.3191-0.9146 0.5956-0.4467 0.2552-0.9572 0.468-0.4467 0.1702-0.8083 0.1064h-0.2552q-0.553 0.04254-0.8296-0.234-0.2765-0.2978-0.234-0.8295 0.0425-0.3616 0.1702-0.6807 0.1276-0.3403 0.2978-0.6807 0.2978-0.553 0.6594-0.9997 0.3829-0.468 0.8083-0.8934 0.7019-0.7019 1.446-1.297 0.7445-0.6168 1.595-1.127 0.4254-0.2765 0.8721-0.468 0.468-0.1914 0.9572-0.2552 0.0851-0.02127 0.1702 0t0.1702 0.04254q0.0638 0 0.1064 0.02127 0.0638 0.02127 0.1064 0.02127 0.2765-0.02127 0.4254 0.1276 0.1702 0.1276 0.3403 0.2978 0.0638 0.08508 0 0.1702-0.0638 0.06381-0.1064 0.1489 0.1064-0.06381 0.1702-0.1064 0.0851-0.06381 0.1914-0.1276 0.0425 0.04254 0.0851 0.1064 0.0425 0.06381 0.0851 0.1276 0.2765-0.1276 0.3616 0.1489 0.0425 0.04254 0.0425 0.1276 0.0213 0.08508 0.1276 0.08508 0.0213 0 0 0.06381 0 0.06381-0.0213 0.1064-0.0851 0.1702-0.1489 0.3191-0.0638 0.1276-0.1702 0.2765-0.234 0.4892-0.4892 0.9784t-0.5105 0.9784q-0.1064 0.1914-0.1702 0.3829-0.0638 0.1914-0.1064 0.4041 0.0638-0.1702 0.1276-0.2978 0.0851-0.1489 0.1489-0.2765h0.0425q-0.234 0.6168-0.4254 1.212-0.0425-0.04254-0.0425-0.1489-0.0425 0.1064-0.0851 0.1702-0.0425 0.06381-0.0425 0.1276-0.0425 0.234-0.0638 0.4892 0 0.2552-0.0213 0.5105 0 0.1276 0 0.2552t0.1702 0.1914q0.0213 0.02127 0 0.08508 0 0.04254 0 0.08508 0.234-0.04254 0.2765 0 0.0425 0.02127 0.0638 0.1914zm0.3829-4.722h0.0425q0-0.02127-0.0213-0.02127-0.0213-0.02127-0.0213-0.04254zm-6.955 2.765q0.1064-0.1702 0.2127-0.3403 0.1276-0.1702 0.234-0.3403 0 0-0.0425-0.02127-0.1064 0.1702-0.234 0.3403-0.1064 0.1702-0.2127 0.3403zm-0.4467-0.1064q0.6168-0.8934 1.319-1.638 0.7019-0.7657 1.489-1.446-0.3829 0.234-0.8508 0.6381-0.4467 0.4041-0.8721 0.8508-0.4041 0.4467-0.7232 0.8934-0.2978 0.4254-0.3616 0.7019zm2.17-1.489q-0.0213 0-0.0213 0.02127 0 0-0.0213 0-0.0213 0.02127-0.0425 0.02127 0 0.02127 0.0425 0.02127l0.0638-0.06381zm-0.6168 0.7019q-0.234 0.234-0.4254 0.468-0.1702 0.234-0.2765 0.5318 0.1702-0.234 0.3403-0.4892 0.1914-0.2765 0.3616-0.5105zm3.786-1.383q0.0425-0.04254 0.0851-0.1064 0.0638-0.08508 0.1064-0.1702l-0.0213-0.02127q-0.0213 0-0.0425-0.02127-0.468 0.5105-0.9572 1.021-0.468 0.5105-0.9359 0.9997l-0.0213 0.04254q0.0425 0 0.0638-0.02127t0.0638-0.04254q0.4254-0.4254 0.8296-0.8295 0.4041-0.4254 0.8296-0.8508zm0.9784-1.808q0.0425-0.04254 0.0638-0.08508t0.0638-0.08508q-0.3191 0.04254-0.5956 0.1914-0.2765 0.1489-0.5318 0.3191-0.4254 0.2552-0.8083 0.553t-0.8083 0.5956q-0.234 0.234-0.4892 0.4254h-0.1064q-0.0638 0.04254-0.1276 0.1064-0.0425 0.06381-0.1064 0.1064h-0.0425 0.0425q-0.1702 0.1276-0.3191 0.2552-0.1489 0.1064-0.2552 0.2765-0.3191 0.3191-0.6168 0.6594-0.2765 0.3191-0.553 0.6807-0.3829 0.4467-0.4467 1.021-0.0213 0.08508-0.0213 0.1489 0.0213 0.04254 0.0213 0.1489 0.2127-0.1276 0.3829-0.234 0.1914-0.1064 0.3829-0.2127 1.021-0.7019 1.851-1.531 0.8083-0.8083 1.553-1.617 0.7445-0.8295 1.468-1.723zm0.6806-0.1702q0.2127-0.06381 0.234-0.234-0.0638 0.06381-0.1064 0.1276-0.0425 0.04254-0.1276 0.1064zm0.6168 1.914v0.04254zm-0.1489 0.1064q0.0425-0.04254 0.1489-0.06381-0.1702 0.2552-0.3403 0.5956h-0.0213q0.0213-0.04254 0-0.06381 0-0.04254 0.0425-0.08508 0.0425-0.08508 0.0638-0.1702 0.0425-0.1064 0.1064-0.2127zm0.4041-0.6807q0 0.1702-0.1064 0.2978-0.0851 0.1276-0.1489 0.2765-0.0213-0.1702 0.0638-0.2978t0.1914-0.2765zm-0.2552 0.5743v0.04254zm0.4467-0.8934q0.0213-0.04254 0.0425-0.06381 0.0213-0.04254 0.0213-0.06381h0.0425q-0.0425 0.04254-0.0425 0.06381t-0.0425 0.06381zm-4.85 1.064q-0.1064 0.08508-0.1914 0.1702-0.0638 0.06381-0.1702 0.1702 0.0213-0.08508 0.0213-0.1276 0.0638-0.04254 0.1064-0.1064 0.0638-0.06381 0.1276-0.1064zm-1.234 1.212q-0.3616 0.4254-0.6594 0.8508t-0.5318 0.9146q0.1702-0.4892 0.468-0.9146 0.319-0.4254 0.7232-0.8508z"/>
   <path d="m451.6 27.53q-0.1489 0.2978-0.3829 0.5105t-0.5105 0.3829q-0.6806 0.4254-1.404 0.4254-1.064 0.04254-1.936-0.2552-0.5105-0.1702-0.8296-0.5105-0.3191-0.3616-0.5318-0.8083-0.1702-0.3616 0.0425-0.7019 0.2127-0.3616 0.6381-0.5318 0 0 0.0851 0-0.0851 0.1489-0.1702 0.2978-0.0638 0.1276-0.1702 0.2978 0.234-0.1064 0.3616-0.2978t0.3616-0.234q0.0425 0.1064-0.0638 0.2127-0.0851 0.08508-0.0851 0.1914 0.1064-0.08508 0.1914-0.1489 0.0851-0.06381 0.1914-0.1276 0.1702 0.1276 0.0425 0.2765-0.1276 0.1489-0.2127 0.3191 0.1064-0.1064 0.1914-0.1702 0.0851-0.08508 0.1489-0.1489 0.0213 0.02127 0.0213 0.02127 0.0213 0 0.0426 0.02127-0.0851 0.08508-0.1489 0.1702-0.0425 0.06381-0.1276 0.1702 0.0638 0.06381 0.0638 0.08508 0.0213 0.3191 0.2127 0.4254 0.1914 0.1064 0.468 0.1276 0.6381 0.04254 1.255-0.2765 0.1914-0.08508 0.4041-0.2552 0.3616-0.2978 0.4041-0.6594 0.0638-0.3829-0.234-0.6168-0.2765-0.2127-0.6807-0.3829-0.6168-0.2765-0.9997-0.8508-0.3616-0.468 0-1.149 0.2127-0.3829 0.468-0.7019 0.2765-0.3403 0.6168-0.6381 0.3616-0.2978 0.7232-0.5318 0.3829-0.2552 0.8296-0.4041 0.3616-0.1276 0.7019-0.1489 0.3403-0.04254 0.6381 0.06381 0.234 0.1064 0.468 0.1914 0.234 0.06381 0.4041 0.234 0.1064 0.1064 0.1914 0.1914 0.0851 0.06381 0.1702 0.1702 0.1489 0.1489 0.0213 0.4254-0.0425 0.04254-0.0425 0.1064 0 0.04254-0.0425 0.08508t-0.0851 0.1064q-0.0213 0.04254-0.1064 0.1064 0.0213 0.02127 0.0213 0.04254 0 0.04254-0.0213 0.06381-0.2552 0.3616-0.553 0.7232-0.2765 0.3403-0.6381 0.6381l-0.0425 0.02127q0.0425-0.1276 0.1276-0.1914 0.0851-0.08508 0.1702-0.1914 0.1276-0.1702 0.2765-0.3403 0.1489-0.1702 0.2978-0.3403 0.0851-0.08508 0.1276-0.234-0.2978 0.2978-0.553 0.6381-0.234 0.3403-0.6168 0.5743-0.0213 0-0.0425 0-0.0213-0.02127-0.0638-0.02127 0.0213-0.04254 0.0213-0.1064 0.0213-0.06381 0.0638-0.1489-0.0851 0.06381-0.1276 0.1064-0.0425 0.04254-0.0851 0.08508-0.0638 0.04254-0.1489 0.1064-0.0638 0.06381-0.1064 0-0.0638-0.06381-0.0213-0.1276 0.0638-0.06381 0.1064-0.1276 0.0851-0.1276 0.1702-0.234 0.0851-0.1276 0.1702-0.2552 0.0425-0.06381 0.0425-0.2127-0.1702 0.1914-0.3191 0.3829-0.1276 0.1914-0.2978 0.4041-0.0851-0.1276-0.0213-0.234t0.1064-0.2127q0.1064-0.1702 0.1914-0.3403 0.1064-0.1702 0.2127-0.3403 0.0638-0.1276 0.1064-0.2552 0.0638-0.1276 0.1064-0.2552-0.1276-0.04254-0.2552 0.02127-0.1064 0.04254-0.2127 0.1064-0.2978 0.1489-0.5318 0.3403-0.234 0.1702-0.468 0.3829 0-0.04254 0-0.06381 0.0213-0.02127 0.0213-0.06381-0.2552 0.1702-0.4892 0.4254-0.2127 0.2552-0.2765 0.4892 0.0851-0.1064 0.1702-0.1914 0.0851-0.08508 0.1702-0.1702-0.0851 0.1064-0.1489 0.234-0.0638 0.1064-0.1276 0.2127-0.1914 0.3191 0.0425 0.4892 0.0851 0.04254 0.1489 0.08508 0.0638 0.02127 0.1702 0.06381 0.3829 0.1702 0.7232 0.4041 0.3403 0.234 0.6168 0.553 0.1702 0.1914 0.2765 0.4254 0.1276 0.234 0.1064 0.5318 0 0.234-0.0638 0.4892-0.0638 0.234-0.2552 0.468-0.1064 0.1489-0.234 0.2978-0.1064 0.1276-0.234 0.2765 0.0425 0.04254 0.0638 0.04254 0.0425-0.04254 0.1064-0.1064 0.0638-0.06381 0.1064-0.1064 0.1064-0.08508 0.1702-0.1489 0.0851-0.08508 0.1702-0.1489zm-1.702-5.615q-0.234 0.1702-0.4467 0.3616-0.1914 0.1914-0.4254 0.3829-0.3403 0.2765-0.3403 0.6168 0.0851-0.06381 0.2765-0.2552 0.1914-0.1914 0.3829-0.4041 0.2127-0.234 0.3616-0.4254 0.1702-0.2127 0.1914-0.2765zm0.2552 0.9784q-0.1914 0.1276-0.3403 0.2978-0.1489 0.1489-0.234 0.3829 0.1489-0.1702 0.2765-0.3403 0.1489-0.1702 0.2978-0.3403zm2.233 0.1064t-0.0425-0.04254q-0.1276 0.1702-0.2552 0.3191-0.1064 0.1489-0.234 0.3191 0.0213 0 0.0213 0.02127 0.0213 0 0.0425 0 0.1064-0.1702 0.234-0.3191t0.234-0.2978zm-2.085 3.978q-0.234 0.1064-0.2978 0.3403 0.1276-0.04254 0.1914-0.1276 0.0638-0.08508 0.1064-0.2127zm-0.9146-3.829q-0.1702 0.1064-0.2127 0.1702-0.0213 0.04254-0.0425 0.1489 0.0851-0.08508 0.1276-0.1489 0.0638-0.08508 0.1276-0.1702zm1.872 4.318q-0.0425-0.02127-0.0425-0.02127-0.0213 0.02127-0.0425 0.04254-0.0213 0-0.0425 0.04254-0.0213 0.02127-0.0213 0.04254t-0.0213 0.06381h0.0425q0.0851-0.1276 0.1276-0.1702z"/>
   <path d="m459.3 25.68q-0.0213 0.02127 0.0213 0.02127-0.0425 0.1064-0.0851 0.1914-0.0213 0.08508-0.0638 0.1702-0.0638 0.1276-0.1276 0.2552-0.0425 0.1276-0.1064 0.234-0.1064 0.1702-0.2127 0.2765-0.4467 0.4467-0.9359 0.8508-0.468 0.4041-1.021 0.7232-0.1276 0.08508-0.2552 0.1489-0.1276 0.06381-0.2552 0.08508-0.3616 0.06381-0.7232 0.1489-0.3616 0.06381-0.7019 0.04254-0.6381-0.04254-1.042-0.3616-0.3829-0.3403-0.5956-0.8934-0.1276-0.3403-0.1489-0.7019-0.0213-0.3829 0.0213-0.7657 0.1489-0.8934 0.4892-1.744 0.3403-0.8508 0.9146-1.659 0.3403-0.468 0.7445-0.8295 0.4254-0.3616 0.9572-0.5956 0.6381-0.2765 1.17-0.1489 0.787 0.1276 1.446 0.6168 0.0425 0.04254 0.1064 0.1064 0.0851 0.04254 0.1276 0.1064 0.3829 0.3829 0.0213 0.9997-0.234 0.4041-0.5105 0.8083-0.2765 0.3829-0.6168 0.7445-0.1276 0.1276-0.234 0.2765-0.1064 0.1276-0.234 0.2765 0 0.1914-0.1702 0.1914-0.1064 0.1064-0.2127 0.234-0.0851 0.1064-0.1914 0.2127-0.2978 0.2978-0.6168 0.5743-0.2978 0.2765-0.6168 0.5743-0.0638 0.04254-0.1489 0.1064-0.0638 0.04254-0.1489 0.08508-0.0638 0.02127-0.234 0.02127-0.0425 0.1276-0.0425 0.234 0 0.3616 0.1914 0.468 0.1064 0.06381 0.2127 0 0.1276-0.06381 0.234-0.1276 1.085-0.553 2.042-1.51 0.1064-0.1064 0.1702-0.2127 0.0851-0.1064 0.1702-0.2127 0.0851-0.08508 0.1489-0.1489 0.0638-0.06381 0.1489-0.1064-0.0425 0.1914-0.1489 0.3829-0.0851 0.1702-0.1276 0.3616 0.1064-0.1064 0.1702-0.1914 0.0638-0.1064 0.1702-0.2127 0.1064-0.08508 0.1489-0.1914 0.0425-0.1064 0.1914-0.1702 0.0638 0.1064-0.0213 0.2127t-0.0425 0.234q0.0851-0.1064 0.1489-0.1914 0.0851-0.1064 0.1489-0.1914 0.1276 0.08508 0.1276 0.1489 0.0213 0.06381-0.0851 0.3616 0.0425-0.08508 0.1064-0.1489 0.0638-0.08508 0.1276-0.1702zm-1.468-1.34q0.0638-0.08508 0.1489-0.1276 0.0851-0.06381 0.0851-0.1702-0.1914 0.1489-0.234 0.2978zm0.8083-1.085q-0.1276 0.1914-0.2765 0.3829-0.1276 0.1914-0.2552 0.3829 0.234-0.1489 0.3403-0.3403 0.1276-0.2127 0.2552-0.4041-0.0213-0.02127-0.0638-0.02127zm-0.4467-0.08508q-0.1064 0.1276-0.1914 0.2552-0.0638 0.1276-0.1489 0.2552 0.0425 0 0.0638 0.02127 0.0851-0.1276 0.1489-0.2552 0.0851-0.1276 0.1914-0.2552-0.0213 0-0.0425 0 0-0.02127-0.0213-0.02127zm-3.722 0.3403q0.6168-0.7445 1.17-1.361-0.0425-0.04254-0.0425-0.04254-0.3403 0.1702-0.5956 0.4892-0.234 0.3191-0.5318 0.9146zm0.5956 0.1489q0.1702-0.234 0.2978-0.4467 0.1489-0.2127 0.2978-0.4467-0.0425 0-0.0425-0.02127-0.3829 0.3829-0.6168 0.8934 0.0213 0.02127 0.0638 0.02127zm1.212-0.9146q-0.2765 0.234-0.4467 0.5318-0.1702 0.2765-0.2765 0.5743 0.1702-0.2765 0.3616-0.553t0.3616-0.553zm0.3616 0q-0.2127 0.1276-0.468 0.4467-0.234 0.2978-0.4467 0.6807-0.1914 0.3616-0.3616 0.7657-0.1489 0.3829-0.1702 0.6807 0.234-0.6807 0.5743-1.319 0.3403-0.6381 0.8721-1.255zm-1.361 2.68q-0.0425 0.04254-0.0425 0.1064 0.0213 0.06381 0 0.1702 0.1489-0.1702 0.2552-0.2978t0.2127-0.2552q0.4254-0.468 0.8083-0.9359 0.4041-0.4892 0.7232-1.021 0.1914-0.2765 0.3403-0.6807 0.0638-0.3616-0.2978-0.1702-0.0851 0.04254-0.1276 0.08508-0.4892 0.3403-0.8295 0.8721-0.3616 0.5105-0.6168 1.042-0.2552 0.5318-0.4254 1.085zm-0.1489 0.8934q0.0425-0.04254 0.0638-0.06381 0.0425-0.04254 0.0638-0.08508 0.3403-0.3616 0.6594-0.7019 0.3403-0.3616 0.6381-0.7232 0.2552-0.2978 0.5105-0.6168 0.2552-0.3403 0.4892-0.6594 0.0638-0.08508 0.1064-0.1702 0.0638-0.08508 0.0213-0.1914-0.1276 0.04254-0.1702 0.1276-0.0425 0.08508-0.1064 0.1702-0.1702 0.2552-0.3403 0.5105-0.1702 0.234-0.3616 0.468-0.3616 0.4254-0.7232 0.8295t-0.7232 0.8295q-0.0425 0.06381-0.1064 0.1276-0.0425 0.04254-0.0213 0.1489zm3.488-2.382q-0.0213 0-0.0425 0 0-0.02127-0.0213-0.02127 0.1489-0.234 0.2978-0.468 0.1489-0.2552 0.3191-0.5105 0.0213 0.02127 0.0425 0.02127-0.1489 0.2552-0.2978 0.5105-0.1489 0.234-0.2978 0.468z"/>
   <path d="m464.2 31.3q0.7657-2.404 1.914-4.807 0.5743-1.212 1.149-2.382 0.5743-1.17 1.149-2.361h0.0638v0.1276q-0.4892 0.9784-0.9784 1.957-0.468 0.9572-0.9359 1.914-0.6168 1.297-1.191 2.595-0.553 1.276-0.9784 2.616-0.0425 0.1064-0.0638 0.2127t-0.0638 0.2127q-0.0425 0.1064-0.1276 0.1914-0.0638 0.08508-0.1489 0.1914-0.0851-0.04254-0.0638-0.1276 0.0213-0.1064 0-0.1702-0.1064 0.234-0.234 0.2552t-0.2978-0.08508q-0.0425 0.1064-0.0851 0.1914-0.0425 0.08508-0.0851 0.1914-0.2127 0.02127-0.2552-0.1064-0.0426-0.1276-0.0851-0.2552-0.0425 0.06381-0.0638 0.1276 0 0.04254-0.0425 0.1064-0.2127-0.06381-0.2127-0.2978 0.0213-0.1489 0.0213-0.2978 0.0213-0.1489 0.0638-0.2978 0.1276-0.5318 0.2765-1.042 0.1489-0.5318 0.3191-1.064 0.1276-0.468 0.3191-1.021-0.1064 0.04254-0.1702 0.06381t-0.1064 0.04254q-0.0851 0.04254-0.1702 0.1064-0.0638 0.04254-0.1276 0.08508-0.8508 0.553-1.702 0.4254-0.1276-0.02127-0.2765 0-0.1276 0-0.234-0.04254-0.6168-0.1489-0.9359-0.553-0.3191-0.4254-0.3403-1.064 0-0.7232 0.2978-1.383 0.319-0.6594 0.8295-1.276 1.383-1.595 3.254-2.552 0.234-0.1064 0.468-0.1702 0.2552-0.08508 0.4892-0.1702 0.4467-0.1064 0.7445 0.04254 0.1276 0.04254 0.2552 0.08508 0.1489 0.04254 0.2978 0.08508 0.0426-0.04254 0.0426-0.08508 0.0213-0.04254 0.0638-0.08508 0.1064-0.1276 0.1914-0.2552 0.0851-0.1489 0.1914-0.2978 0.1276-0.1276 0.2978-0.2552 0.1489-0.1064 0.2127-0.06381 0.0638 0.02127 0.1276 0.1276 0 0.06381-0.0213 0.1064 0.0425 0.04254 0.0638 0.08508 0.1064-0.06381 0.1914-0.2127 0.1064-0.1489 0.2978-0.04254 0.0425 0.1702-0.0425 0.3191-0.0638 0.1489-0.1064 0.3191l0.3829-0.5743q0.1702 0.08508 0.2552 0.1702 0.0851 0.08508 0.0213 0.2978h0.0425q0.0213-0.02127 0.0425-0.04254 0.0213-0.04254 0.0851-0.08508 0 0.06381 0.0213 0.1064 0.0213 0.04254 0 0.08508-0.0638 0.1489-0.1276 0.2978-0.0425 0.1276-0.1064 0.2765-0.8296 1.638-1.617 3.276-0.7657 1.638-1.468 3.297-0.2765 0.6594-0.5105 1.319-0.234 0.6594-0.468 1.34-0.0425 0.08508-0.0425 0.1489 0 0.06381-0.0213 0.1276zm0.7445-4.297q0.0851-0.1276 0.1489-0.2127h-0.0425q-0.0851 0.1064-0.1064 0.234-0.0851 0.1489-0.1064 0.2978h0.0425q0-0.08508 0.0213-0.1489 0.0213-0.08508 0.0425-0.1702zm-0.3191 0.9784q-0.1489 0.1064-0.1489 0.234t-0.0213 0.2552q-0.1276 0.1276-0.1489 0.1914-0.0851 0.2127-0.1702 0.4254-0.0638 0.1914-0.1276 0.4041-0.1276 0.3829-0.2552 0.7657-0.1064 0.3829-0.234 0.7657 0 0.08508 0.0213 0.1276 0.1276-0.3403 0.1914-0.5956 0.1702-0.5105 0.3403-1.021 0.1914-0.5318 0.3616-1.064 0.0425-0.1276 0.0851-0.234 0.0638-0.1276 0.1064-0.2552 0.0213-0.08508 0.0425-0.1702 0.0425-0.08508 0.0638-0.1702h-0.0425q-0.0213 0.08508-0.0425 0.1702 0 0.08508-0.0213 0.1702zm1.085-4.509q-0.1702 0.234-0.234 0.5105-0.0425 0.2552-0.1489 0.4892 0.1489-0.04254 0.1702-0.1276 0.0425-0.06381 0.1489-0.3191 0.1276-0.2552 0.2552-0.553 0.1276-0.3191 0.234-0.5743t0.1064-0.3191q-0.0851 0.1064-0.1489 0.1914-0.0425 0.06381-0.1276 0.1489 0.0638-0.08508 0.0851-0.1702-0.1064 0.1702-0.2127 0.3616-0.1064 0.1702-0.1276 0.3616zm-0.1489-0.6381q-0.1064 0.04254-0.1702 0.04254-0.0425 0-0.0851 0.04254-0.1489 0.08508-0.2978 0.1702-0.1276 0.06381-0.2978 0.1702-1.425 0.9146-2.467 2.127-0.3403 0.4041-0.5743 0.8508-0.234 0.4254-0.3403 0.9146-0.0425 0.2978 0.0425 0.3616 0.0851 0.06381 0.3829-0.06381 1.319-0.5318 2.404-1.553 0.0638-0.06381 0.1064-0.1276 0.0638-0.08508 0.1064-0.1702 0.234-0.553 0.4467-1.085 0.234-0.5318 0.468-1.085 0.0425-0.1276 0.1064-0.2765 0.0851-0.1489 0.1702-0.3191zm-1.617 8.381h0.0425l0.0638-0.1276q0.1702-0.5318 0.3403-1.042 0.1702-0.5318 0.3616-1.064 0.4041-1.064 0.8508-2.085 0.468-1.042 0.9784-2.085 0.3616-0.7445 0.7232-1.468 0.3616-0.7445 0.7232-1.489 0.0213-0.04254 0.0425-0.1064 0.0213-0.06381 0.0425-0.1276-0.1064 0.08508-0.1489 0.1914-0.2978 0.6168-0.6168 1.234-0.3191 0.6168-0.6168 1.234-0.5105 1.085-0.9997 2.148-0.468 1.064-0.8934 2.148-0.1702 0.4254-0.3403 0.8721-0.1489 0.4254-0.3191 0.8721-0.0851 0.234-0.1276 0.4467t-0.1064 0.4467zm0.3403-3.829q-0.0425 0-0.0638-0.02127-0.0213 0.04254-0.0425 0.06381-0.0213 0-0.0425 0.04254-0.0638 0.1276-0.1276 0.2552-0.0425 0.1276-0.1064 0.2765-0.0213 0.1064-0.0425 0.1914-0.0213 0.08508-0.0638 0.1914-0.1489 0.234-0.2127 0.4892-0.0425 0.234-0.1276 0.468-0.1702 0.4041-0.2552 0.787-0.0851 0.3829-0.1702 0.787-0.0425 0.08508-0.0425 0.1489 0 0.06381-0.0213 0.1489h0.0213q0.319-0.9572 0.6381-1.914 0.3403-0.9572 0.6594-1.914zm-1.851-4.169q-0.2765 0.1489-0.5956 0.4041-0.2978 0.2552-0.5743 0.5318-0.2552 0.2765-0.4467 0.553-0.1914 0.2552-0.2127 0.4041 0.4467-0.468 0.8934-0.9359t0.9359-0.9572zm4.892-1.276q-0.0213 0-0.0425 0 0-0.02127-0.0213-0.02127-0.6807 1.234-1.276 2.595 0.0425 0 0.0425 0.02127 0.0213 0 0.0425 0 0.3191-0.6594 0.6168-1.297 0.319-0.6381 0.6381-1.297zm-5.807 4.233q0.3191-0.5318 0.7445-0.9784 0.4467-0.4467 0.8721-0.8934-0.4892 0.4254-0.9359 0.8508t-0.6807 1.021zm-0.0213-0.3829q0.1064-0.1276 0.1914-0.2552 0.1064-0.1489 0.2127-0.2765 0.0851-0.1276 0.1702-0.2552 0.1064-0.1276 0.2127-0.2552-0.2552 0.234-0.468 0.4892-0.2127 0.2552-0.3191 0.553zm0.1064-1.042q-0.1489 0.06381-0.3616 0.3616-0.2127 0.2765-0.2978 0.553 0.1914-0.2552 0.3403-0.468 0.1489-0.2127 0.3191-0.4467zm5.339-3.51q-0.2978 0.2978-0.3616 0.6807 0.1064-0.1276 0.1914-0.2765 0.1064-0.1489 0.1914-0.2978 0.0213-0.02127 0-0.04254t-0.0213-0.06381zm-1.787 3.978q-0.0213 0-0.0425 0 0-0.02127-0.0213-0.02127-0.0851 0.1064-0.1489 0.2127-0.0638 0.08508-0.0851 0.1914 0 0.02127 0.0425 0.02127 0.0638-0.1064 0.1276-0.1914 0.0638-0.1064 0.1276-0.2127zm-2.042 5.084 0.0213-0.02127-0.0638 0.1914q0.0425-0.08508 0.0425-0.1702zm2.084-5.722q0.0213-0.02127 0.0426-0.02127 0-0.04254 0-0.06381 0.0213-0.02127 0.0213-0.06381h-0.0426q0 0.04254-0.0213 0.08508 0 0.02127 0 0.06381z"/>
   <path d="m473.5 28.58q0 0.02127 0.0213 0.04254-0.0425 0.06381-0.0851 0.1276-0.0213 0.04254-0.0638 0.08508-0.1276 0.1702-0.2127 0.2127-0.0638 0.02127-0.234-0.04254-0.2127-0.04254-0.3616-0.02127-0.234 0.02127-0.4041-0.1702-0.2765-0.3403-0.234-0.787 0.0425-0.3616 0.0851-0.7019 0.0425-0.3616 0.0851-0.7232 0-0.08508 0.0213-0.1702 0.0213-0.08508 0.0425-0.1914-0.1064 0.02127-0.1702 0.08508-0.0425 0.06381-0.0851 0.1064-0.2552 0.2552-0.5318 0.5318-0.2552 0.2552-0.5318 0.4892-0.1702 0.1702-0.3616 0.2978-0.1702 0.1276-0.3616 0.234-0.4467 0.2765-0.8934 0.1702-0.1702-0.04254-0.3403-0.04254-0.1489-0.02127-0.3191-0.04254-0.2127-0.02127-0.3616-0.1064-0.1276-0.1064-0.2552-0.234-0.2552-0.2978-0.3191-0.6594-0.0425-0.3829 0.0213-0.8083 0.1489-0.8934 0.5318-1.723t0.9784-1.638q0.1064-0.1489 0.2127-0.2552 0.1064-0.1276 0.234-0.234 0.0638-0.06381 0.1489-0.1064 0.0851-0.04254 0.1914 0-0.0638 0.2552-0.2765 0.4892-0.1914 0.2127-0.2765 0.5105 0.1489-0.1489 0.2765-0.2765 0.1489-0.1276 0.2765-0.2552 0.0638-0.06381 0.1064-0.1276 0.0638-0.08508 0.1276-0.1489 0.1489-0.234 0.319-0.02127-0.1702 0.234-0.3403 0.5105-0.1489 0.2552-0.3191 0.5105 0.0425 0 0.0425 0.02127 0.1914-0.234 0.3829-0.4892 0.1914-0.2552 0.3829-0.4892 0.1914 0.1064 0.2127 0.2127 0.0213 0.08508-0.1064 0.2552-0.0425 0.08508-0.1064 0.1489-0.0425 0.06381-0.0851 0.1276-0.0426 0.06381-0.0851 0.1276-0.0213 0.06381-0.0213 0.1276 0.0425-0.08508 0.1064-0.1489 0.0638-0.08508 0.1276-0.1702 0.0638-0.08508 0.1276-0.1702 0.0851-0.08508 0.1276-0.1702 0.0425 0 0.0638 0.02127-0.0213 0.04254-0.0213 0.08508 0 0.02127-0.0213 0.06381-0.2978 0.4254-0.5318 0.8508-0.2127 0.4254-0.4467 0.8721 0 0.08508 0 0.08508 0.0638-0.08508 0.0851-0.1702l0.1276-0.1914q0.1064-0.234 0.234-0.4467 0.1276-0.234 0.2765-0.468 0.1489-0.2127 0.3403-0.3829-0.468 0.7445-0.8721 1.489t-0.6381 1.553q0.1064-0.02127 0.1702-0.08508t0.1276-0.1064q1.17-1.234 2.297-2.489 0.468-0.5105 0.9146-1.021 0.4467-0.5318 0.8721-1.042 0.1702-0.1702 0.4467-0.3403 0.0851-0.04254 0.1702 0v0.1702q-0.0851 0.1064-0.1702 0.3191 0.1702-0.06381 0.234-0.1489 0.0638-0.1064 0.1702-0.1702 0.1064-0.1064 0.1702-0.06381 0.0851 0.02127 0.1064 0.1276-0.0213 0.04254-0.0213 0.06381 0 0-0.0213 0.04254 0.1702-0.06381 0.234-0.04254 0.0638 0 0.1702 0.1276 0.0425 0.04254 0.0851 0.1064 0.0638 0.04254 0.0851 0.1064 0.0425 0.1914-0.1276 0.4254-0.1914 0.3616-0.3829 0.7232-0.1914 0.3616-0.3829 0.7232-0.0851 0.1276-0.1702 0.2552-0.0638 0.1276-0.1276 0.234-0.0638 0.06381-0.0638 0.08508-0.234 0.7657-0.5105 1.531-0.2765 0.7445-0.3829 1.51-0.1064 0.3616-0.1276 0.6594-0.0213 0.08508-0.0213 0.1702 0.0213 0.06381 0.0213 0.1276 0.0425 0.1064 0.0425 0.1914 0.0213 0.08508 0.0638 0.1914zm-3.935-2.552h-0.0213q0 0.02127-0.0213 0.04254 0 0 0 0.02127h0.0425zm1.255 1.276q0.1914-0.1276 0.4254-0.3403t0.4254-0.4254q0.2127-0.2127 0.3616-0.4041 0.1702-0.1914 0.2127-0.2978-0.3829 0.4041-0.7232 0.7657-0.3403 0.3403-0.7019 0.7019zm1.425-1.787q-0.1489 0.06381-0.1702 0.234 0.1489-0.1489 0.1914-0.2127 0-0.02127-0.0213-0.02127 0-0.02127 0 0zm-2.574 1.234q0.1276-0.04254 0.4467-0.3191 0.319-0.2765 0.7019-0.6594 0.4041-0.4041 0.8083-0.8721 0.4254-0.468 0.787-0.8934 0.3829-0.4254 0.6168-0.7657 0.2552-0.3403 0.3191-0.5105 0 0-0.0213 0.02127-0.8934 1.021-1.765 2.021-0.8721 0.9784-1.872 1.936 0 0-0.0213 0.04254zm4.935-2.744q0.1914-0.4254 0.4041-0.8508t0.4467-0.8508h0.0851l-0.8934 1.723q-0.0213-0.02127-0.0425-0.02127zm-0.5743 1.34q0.0425-0.1276 0.0425-0.1702h0.0213q0 0.04254-0.0425 0.1702z"/>
   <path d="m481.4 25.68q-0.0213 0.02127 0.0213 0.02127-0.0425 0.1064-0.0851 0.1914-0.0213 0.08508-0.0638 0.1702-0.0638 0.1276-0.1276 0.2552-0.0425 0.1276-0.1064 0.234-0.1064 0.1702-0.2127 0.2765-0.4467 0.4467-0.9359 0.8508-0.468 0.4041-1.021 0.7232-0.1276 0.08508-0.2552 0.1489-0.1276 0.06381-0.2552 0.08508-0.3616 0.06381-0.7232 0.1489-0.3616 0.06381-0.7019 0.04254-0.6381-0.04254-1.042-0.3616-0.3829-0.3403-0.5956-0.8934-0.1276-0.3403-0.1489-0.7019-0.0213-0.3829 0.0213-0.7657 0.1489-0.8934 0.4892-1.744t0.9146-1.659q0.3403-0.468 0.7445-0.8295 0.4254-0.3616 0.9572-0.5956 0.6381-0.2765 1.17-0.1489 0.787 0.1276 1.446 0.6168 0.0425 0.04254 0.1064 0.1064 0.0851 0.04254 0.1276 0.1064 0.3829 0.3829 0.0213 0.9997-0.234 0.4041-0.5105 0.8083-0.2765 0.3829-0.6168 0.7445-0.1276 0.1276-0.234 0.2765-0.1064 0.1276-0.234 0.2765 0 0.1914-0.1702 0.1914-0.1064 0.1064-0.2127 0.234-0.0851 0.1064-0.1914 0.2127-0.2978 0.2978-0.6168 0.5743-0.2978 0.2765-0.6168 0.5743-0.0638 0.04254-0.1489 0.1064-0.0638 0.04254-0.1489 0.08508-0.0638 0.02127-0.234 0.02127-0.0426 0.1276-0.0426 0.234 0 0.3616 0.1914 0.468 0.1064 0.06381 0.2127 0 0.1276-0.06381 0.234-0.1276 1.085-0.553 2.042-1.51 0.1064-0.1064 0.1702-0.2127 0.0851-0.1064 0.1702-0.2127 0.0851-0.08508 0.1489-0.1489 0.0638-0.06381 0.1489-0.1064-0.0425 0.1914-0.1489 0.3829-0.0851 0.1702-0.1276 0.3616 0.1064-0.1064 0.1702-0.1914 0.0638-0.1064 0.1702-0.2127 0.1064-0.08508 0.1489-0.1914 0.0425-0.1064 0.1914-0.1702 0.0638 0.1064-0.0213 0.2127t-0.0426 0.234q0.0851-0.1064 0.1489-0.1914 0.0851-0.1064 0.1489-0.1914 0.1276 0.08508 0.1276 0.1489 0.0213 0.06381-0.0851 0.3616 0.0425-0.08508 0.1064-0.1489 0.0638-0.08508 0.1276-0.1702zm-1.468-1.34q0.0638-0.08508 0.1489-0.1276 0.0851-0.06381 0.0851-0.1702-0.1914 0.1489-0.234 0.2978zm0.8083-1.085q-0.1276 0.1914-0.2765 0.3829-0.1276 0.1914-0.2552 0.3829 0.234-0.1489 0.3403-0.3403 0.1276-0.2127 0.2552-0.4041-0.0213-0.02127-0.0638-0.02127zm-0.4467-0.08508q-0.1064 0.1276-0.1914 0.2552-0.0638 0.1276-0.1489 0.2552 0.0425 0 0.0638 0.02127 0.0851-0.1276 0.1489-0.2552 0.0851-0.1276 0.1914-0.2552-0.0213 0-0.0425 0 0-0.02127-0.0213-0.02127zm-3.722 0.3403q0.6168-0.7445 1.17-1.361-0.0425-0.04254-0.0425-0.04254-0.3403 0.1702-0.5956 0.4892-0.234 0.3191-0.5318 0.9146zm0.5956 0.1489q0.1702-0.234 0.2978-0.4467 0.1489-0.2127 0.2978-0.4467-0.0425 0-0.0425-0.02127-0.3829 0.3829-0.6168 0.8934 0.0213 0.02127 0.0638 0.02127zm1.212-0.9146q-0.2765 0.234-0.4467 0.5318-0.1702 0.2765-0.2765 0.5743 0.1702-0.2765 0.3616-0.553t0.3616-0.553zm0.3616 0q-0.2127 0.1276-0.468 0.4467-0.234 0.2978-0.4467 0.6807-0.1914 0.3616-0.3616 0.7657-0.1489 0.3829-0.1702 0.6807 0.234-0.6807 0.5743-1.319t0.8721-1.255zm-1.361 2.68q-0.0425 0.04254-0.0425 0.1064 0.0213 0.06381 0 0.1702 0.1489-0.1702 0.2552-0.2978 0.1064-0.1276 0.2127-0.2552 0.4254-0.468 0.8083-0.9359 0.4041-0.4892 0.7232-1.021 0.1914-0.2765 0.3403-0.6807 0.0638-0.3616-0.2978-0.1702-0.0851 0.04254-0.1276 0.08508-0.4892 0.3403-0.8296 0.8721-0.3616 0.5105-0.6168 1.042-0.2552 0.5318-0.4254 1.085zm-0.1489 0.8934q0.0425-0.04254 0.0638-0.06381 0.0425-0.04254 0.0638-0.08508 0.3403-0.3616 0.6594-0.7019 0.3403-0.3616 0.6381-0.7232 0.2552-0.2978 0.5105-0.6168 0.2552-0.3403 0.4892-0.6594 0.0638-0.08508 0.1064-0.1702 0.0638-0.08508 0.0213-0.1914-0.1276 0.04254-0.1702 0.1276-0.0425 0.08508-0.1064 0.1702-0.1702 0.2552-0.3403 0.5105-0.1702 0.234-0.3616 0.468-0.3616 0.4254-0.7232 0.8295t-0.7232 0.8295q-0.0425 0.06381-0.1064 0.1276-0.0425 0.04254-0.0213 0.1489zm3.488-2.382q-0.0213 0-0.0425 0 0-0.02127-0.0213-0.02127 0.1489-0.234 0.2978-0.468 0.1489-0.2552 0.319-0.5105 0.0213 0.02127 0.0426 0.02127-0.1489 0.2552-0.2978 0.5105-0.1489 0.234-0.2978 0.468z"/>
  </g>
 </g>
</svg>
