<?xml version="1.0" encoding="UTF-8" standalone="no"?>
<!-- Created with Inkscape (http://www.inkscape.org/) -->

<svg
   xmlns:dc="http://purl.org/dc/elements/1.1/"
   xmlns:cc="http://creativecommons.org/ns#"
   xmlns:rdf="http://www.w3.org/1999/02/22-rdf-syntax-ns#"
   xmlns:svg="http://www.w3.org/2000/svg"
   xmlns="http://www.w3.org/2000/svg"
   xmlns:sodipodi="http://sodipodi.sourceforge.net/DTD/sodipodi-0.dtd"
   xmlns:inkscape="http://www.inkscape.org/namespaces/inkscape"
   width="75"
   height="380"
   viewBox="0 0 19.843751 100.54167"
   version="1.1"
   id="svg8"
   inkscape:version="0.92.3 (2405546, 2018-03-11)"
   sodipodi:docname="SH-8.svg">
  <defs
     id="defs2">
    <clipPath
       clipPathUnits="userSpaceOnUse"
       id="clipPath1763">
      <path
         inkscape:connector-curvature="0"
         id="path1765"
         d="M 0,196.45831 H 23.8125 V 296.99999 H 0 Z"
         style="opacity:1;vector-effect:none;fill:#28220b;fill-opacity:1;fill-rule:evenodd;stroke:none;stroke-width:0.48607069;stroke-linecap:butt;stroke-linejoin:round;stroke-miterlimit:4;stroke-dasharray:none;stroke-dashoffset:0;stroke-opacity:1;paint-order:normal" />
    </clipPath>
    <clipPath
       clipPathUnits="userSpaceOnUse"
       id="clipPath3293">
      <path
         style="opacity:1;vector-effect:none;fill:#28220b;fill-opacity:1;fill-rule:evenodd;stroke:none;stroke-width:0.48607066;stroke-linecap:butt;stroke-linejoin:round;stroke-miterlimit:4;stroke-dasharray:none;stroke-dashoffset:0;stroke-opacity:1;paint-order:normal"
         d="M -1.5460537e-7,196.45831 H 19.843751 V 296.99999 H -1.5460537e-7 Z"
         id="path3295"
         inkscape:connector-curvature="0" />
    </clipPath>
  </defs>
  <sodipodi:namedview
     id="base"
     pagecolor="#ffffff"
     bordercolor="#666666"
     borderopacity="1.0"
     inkscape:pageopacity="0.0"
     inkscape:pageshadow="2"
     inkscape:zoom="5.6568542"
     inkscape:cx="23.013459"
     inkscape:cy="53.534405"
     inkscape:document-units="mm"
     inkscape:current-layer="layer1"
     showgrid="false"
     units="px"
     inkscape:snap-bbox="true"
     inkscape:snap-page="true"
     inkscape:bbox-nodes="true"
     inkscape:snap-bbox-edge-midpoints="true"
     inkscape:window-width="1663"
     inkscape:window-height="1463"
     inkscape:window-x="1170"
     inkscape:window-y="410"
     inkscape:window-maximized="0"
     showguides="true"
     inkscape:guide-bbox="true"
     inkscape:snap-global="false">
    <inkscape:grid
       type="xygrid"
       id="grid985" />
  </sodipodi:namedview>
  <metadata
     id="metadata5">
    <rdf:RDF>
      <cc:Work
         rdf:about="">
        <dc:format>image/svg+xml</dc:format>
        <dc:type
           rdf:resource="http://purl.org/dc/dcmitype/StillImage" />
        <dc:title />
      </cc:Work>
    </rdf:RDF>
  </metadata>
  <g
     inkscape:label="Layer 1"
     inkscape:groupmode="layer"
     id="layer1"
     transform="translate(0,-196.45832)">
    <path
       inkscape:connector-curvature="0"
       id="path8142"
       d="M 0,196.45865 H 19.84377 V 297.00032 H 0 Z"
       style="opacity:1;vector-effect:none;fill:#202321;fill-opacity:1;fill-rule:evenodd;stroke:none;stroke-width:0.48607066;stroke-linecap:butt;stroke-linejoin:round;stroke-miterlimit:4;stroke-dasharray:none;stroke-dashoffset:0;stroke-opacity:1;paint-order:normal" />
    <path
       sodipodi:nodetypes="cc"
       inkscape:connector-curvature="0"
       id="path8272"
       d="m 7.155185,228.6056 h 5.556249"
       style="fill:none;fill-rule:evenodd;stroke:#3a3c3b;stroke-width:0.26458332px;stroke-linecap:butt;stroke-linejoin:miter;stroke-opacity:1" />
    <path
       style="fill:none;fill-rule:evenodd;stroke:#3a3c3b;stroke-width:0.26458332px;stroke-linecap:butt;stroke-linejoin:miter;stroke-opacity:1"
       d="m 7.155185,236.54309 h 5.556249"
       id="path8479"
       inkscape:connector-curvature="0"
       sodipodi:nodetypes="cc" />
    <path
       style="fill:none;fill-rule:evenodd;stroke:#3a3c3b;stroke-width:0.26458332px;stroke-linecap:butt;stroke-linejoin:miter;stroke-opacity:1"
       d="m 7.155185,244.48058 h 5.556249"
       id="path8499"
       inkscape:connector-curvature="0"
       sodipodi:nodetypes="cc" />
    <path
       sodipodi:nodetypes="cc"
       inkscape:connector-curvature="0"
       id="path8509"
       d="m 7.155185,252.41807 h 5.556249"
       style="fill:none;fill-rule:evenodd;stroke:#3a3c3b;stroke-width:0.26458332px;stroke-linecap:butt;stroke-linejoin:miter;stroke-opacity:1" />
    <path
       sodipodi:nodetypes="cc"
       inkscape:connector-curvature="0"
       id="path8519"
       d="m 7.155185,260.35556 h 5.556249"
       style="fill:none;fill-rule:evenodd;stroke:#3a3c3b;stroke-width:0.26458332px;stroke-linecap:butt;stroke-linejoin:miter;stroke-opacity:1" />
    <path
       style="fill:none;fill-rule:evenodd;stroke:#3a3c3b;stroke-width:0.26458332px;stroke-linecap:butt;stroke-linejoin:miter;stroke-opacity:1"
       d="m 7.155185,268.29305 h 5.556249"
       id="path8529"
       inkscape:connector-curvature="0"
       sodipodi:nodetypes="cc" />
    <path
       style="fill:none;fill-rule:evenodd;stroke:#3a3c3b;stroke-width:0.26458332px;stroke-linecap:butt;stroke-linejoin:miter;stroke-opacity:1"
       d="m 7.155185,276.23054 h 5.556249"
       id="path8539"
       inkscape:connector-curvature="0"
       sodipodi:nodetypes="cc" />
    <path
       sodipodi:nodetypes="cc"
       inkscape:connector-curvature="0"
       id="path8549"
       d="m 7.155185,284.16802 h 5.556249"
       style="fill:none;fill-rule:evenodd;stroke:#3a3c3b;stroke-width:0.26458332px;stroke-linecap:butt;stroke-linejoin:miter;stroke-opacity:1" />
    <rect
       ry="0.79375178"
       rx="0.79375178"
       y="221.85794"
       x="10.583402"
       height="66.410416"
       width="7.6729159"
       id="rect8222"
       style="opacity:1;fill:#b3b3b3;fill-opacity:1;stroke:none;stroke-width:0.26458332;stroke-linecap:round;stroke-linejoin:round;stroke-miterlimit:0;stroke-dasharray:none;stroke-dashoffset:0;stroke-opacity:1" />
    <g
       aria-label="OUT"
       style="font-style:normal;font-variant:normal;font-weight:300;font-stretch:normal;font-size:1.84191251px;line-height:1.25;font-family:'Gotham Rounded';-inkscape-font-specification:'Gotham Rounded Light';text-align:center;letter-spacing:0px;word-spacing:0px;text-anchor:middle;fill:#000000;fill-opacity:1;stroke:none;stroke-width:0.26458329"
       id="text8226">
      <path
         d="m 13.227842,224.25568 c 0.396011,0 0.675982,-0.30391 0.675982,-0.66677 v -0.004 c 0,-0.36286 -0.276287,-0.66309 -0.672298,-0.66309 -0.396011,0 -0.675982,0.30392 -0.675982,0.66677 v 0.004 c 0,0.36285 0.276287,0.66308 0.672298,0.66308 z m 0.0037,-0.20997 c -0.256026,0 -0.438375,-0.2063 -0.438375,-0.4568 v -0.004 c 0,-0.2505 0.178665,-0.45495 0.434691,-0.45495 0.256026,0 0.438375,0.20813 0.438375,0.45863 v 0.004 c 0,0.2505 -0.178665,0.45311 -0.434691,0.45311 z"
         style="font-style:normal;font-variant:normal;font-weight:300;font-stretch:normal;font-family:'Gotham Rounded';-inkscape-font-specification:'Gotham Rounded Light';text-align:center;text-anchor:middle;fill:#000000;fill-opacity:1;stroke-width:0.26458329"
         id="path1477" />
      <path
         d="m 14.706178,224.25384 c 0.33707,0 0.554416,-0.1934 0.554416,-0.57836 v -0.62809 c 0,-0.0626 -0.04973,-0.11236 -0.112357,-0.11236 -0.06447,0 -0.114198,0.0497 -0.114198,0.11236 v 0.63914 c 0,0.23761 -0.123409,0.35733 -0.324177,0.35733 -0.20261,0 -0.326019,-0.12709 -0.326019,-0.36654 v -0.62993 c 0,-0.0626 -0.04973,-0.11236 -0.112356,-0.11236 -0.06447,0 -0.114199,0.0497 -0.114199,0.11236 v 0.63914 c 0,0.37391 0.213662,0.56731 0.54889,0.56731 z"
         style="font-style:normal;font-variant:normal;font-weight:300;font-stretch:normal;font-family:'Gotham Rounded';-inkscape-font-specification:'Gotham Rounded Light';text-align:center;text-anchor:middle;fill:#000000;fill-opacity:1;stroke-width:0.26458329"
         id="path1479" />
      <path
         d="m 15.890183,224.13043 c 0,0.0626 0.05157,0.11236 0.114198,0.11236 0.06263,0 0.114199,-0.0497 0.114199,-0.11236 v -0.97621 h 0.314967 c 0.0571,0 0.103147,-0.0479 0.103147,-0.10499 0,-0.0571 -0.04605,-0.10499 -0.103147,-0.10499 h -0.856489 c -0.05894,0 -0.104989,0.0479 -0.104989,0.10499 0,0.0571 0.04605,0.10499 0.104989,0.10499 h 0.313125 z"
         style="font-style:normal;font-variant:normal;font-weight:300;font-stretch:normal;font-family:'Gotham Rounded';-inkscape-font-specification:'Gotham Rounded Light';text-align:center;text-anchor:middle;fill:#000000;fill-opacity:1;stroke-width:0.26458329"
         id="path1481" />
    </g>
    <g
       aria-label="TRIG"
       style="font-style:normal;font-variant:normal;font-weight:300;font-stretch:normal;font-size:1.84191251px;line-height:1.25;font-family:'Gotham Rounded';-inkscape-font-specification:'Gotham Rounded Light';text-align:center;letter-spacing:0px;word-spacing:0px;text-anchor:middle;fill:#cccccc;fill-opacity:1;stroke:none;stroke-width:0.26458329"
       id="text8244">
      <path
         d="m 3.4478763,224.11624 c 0,0.0626 0.051574,0.11236 0.1141986,0.11236 0.062625,0 0.1141986,-0.0497 0.1141986,-0.11236 v -0.97621 h 0.314967 c 0.057099,0 0.1031471,-0.0479 0.1031471,-0.10499 0,-0.0571 -0.046048,-0.10499 -0.1031471,-0.10499 H 3.1347512 c -0.058941,0 -0.104989,0.0479 -0.104989,0.10499 0,0.0571 0.046048,0.10499 0.104989,0.10499 h 0.3131251 z"
         style="font-style:normal;font-variant:normal;font-weight:300;font-stretch:normal;font-family:'Gotham Rounded';-inkscape-font-specification:'Gotham Rounded Light';text-align:center;text-anchor:middle;fill:#cccccc;fill-opacity:1;stroke-width:0.26458329"
         id="path1468" />
      <path
         d="m 4.2510185,224.11624 c 0,0.0626 0.049732,0.11236 0.1141986,0.11236 0.062625,0 0.1123566,-0.0497 0.1123566,-0.11236 v -0.34628 h 0.2854965 l 0.3131251,0.3997 c 0.025787,0.035 0.058941,0.0589 0.1105148,0.0589 0.055257,0 0.1086728,-0.0424 0.1086728,-0.10499 0,-0.035 -0.014735,-0.0589 -0.036838,-0.0866 l -0.2468163,-0.31128 c 0.1731398,-0.0534 0.2928641,-0.17867 0.2928641,-0.38496 v -0.004 c 0,-0.11235 -0.03868,-0.20813 -0.106831,-0.27812 -0.082886,-0.0811 -0.209978,-0.12894 -0.3720663,-0.12894 H 4.3652171 c -0.064467,0 -0.1141986,0.0497 -0.1141986,0.1142 z m 0.2265552,-0.54704 v -0.43285 h 0.3297024 c 0.167614,0 0.2670773,0.0755 0.2670773,0.21366 v 0.004 c 0,0.13078 -0.1031471,0.21551 -0.2652354,0.21551 z"
         style="font-style:normal;font-variant:normal;font-weight:300;font-stretch:normal;font-family:'Gotham Rounded';-inkscape-font-specification:'Gotham Rounded Light';text-align:center;text-anchor:middle;fill:#cccccc;fill-opacity:1;stroke-width:0.26458329"
         id="path1470" />
      <path
         d="m 5.5743108,224.11624 c 0,0.0626 0.049732,0.11236 0.1141986,0.11236 0.062625,0 0.1123567,-0.0497 0.1123567,-0.11236 v -1.08304 c 0,-0.0626 -0.049732,-0.11236 -0.1123567,-0.11236 -0.064467,0 -0.1141986,0.0497 -0.1141986,0.11236 z"
         style="font-style:normal;font-variant:normal;font-weight:300;font-stretch:normal;font-family:'Gotham Rounded';-inkscape-font-specification:'Gotham Rounded Light';text-align:center;text-anchor:middle;fill:#cccccc;fill-opacity:1;stroke-width:0.26458329"
         id="path1472" />
      <path
         d="m 6.7557252,224.24149 c 0.1934008,0 0.3481214,-0.0663 0.4586362,-0.13998 0.053415,-0.0332 0.079202,-0.0792 0.079202,-0.14367 v -0.34444 c 0,-0.0645 -0.049732,-0.1142 -0.1141986,-0.1142 H 6.8201921 c -0.055257,0 -0.1013052,0.0442 -0.1013052,0.0995 0,0.0553 0.046048,0.0976 0.1013052,0.0976 H 7.074376 v 0.24129 c -0.079202,0.0589 -0.189717,0.0976 -0.3112832,0.0976 -0.2633935,0 -0.4383752,-0.19524 -0.4383752,-0.46048 v -0.004 c 0,-0.24682 0.1805075,-0.45495 0.4181142,-0.45495 0.1399853,0 0.230239,0.0405 0.3131251,0.1013 0.018419,0.0129 0.040522,0.0258 0.069993,0.0258 0.062625,0 0.1123566,-0.0516 0.1123566,-0.11236 0,-0.0442 -0.023945,-0.0755 -0.046048,-0.0921 -0.1178824,-0.0847 -0.2468163,-0.13077 -0.4402171,-0.13077 -0.3886435,0 -0.6649304,0.30576 -0.6649304,0.66677 v 0.004 c 0,0.37575 0.2652354,0.66308 0.6686143,0.66308 z"
         style="font-style:normal;font-variant:normal;font-weight:300;font-stretch:normal;font-family:'Gotham Rounded';-inkscape-font-specification:'Gotham Rounded Light';text-align:center;text-anchor:middle;fill:#cccccc;fill-opacity:1;stroke-width:0.26458329"
         id="path1474" />
    </g>
    <path
       sodipodi:nodetypes="cccc"
       inkscape:connector-curvature="0"
       id="path8246"
       d="M 5.159385,232.70658 4.365643,231.38366 H 5.953145 Z"
       style="fill:#b3b3b3;fill-opacity:1;stroke:none;stroke-width:0.26458332px;stroke-linecap:butt;stroke-linejoin:miter;stroke-opacity:1" />
    <g
       aria-label="NOISE"
       transform="scale(0.96141681,1.0401316)"
       style="font-style:normal;font-variant:normal;font-weight:300;font-stretch:normal;font-size:1.77084577px;line-height:1.25;font-family:'Gotham Rounded';-inkscape-font-specification:'Gotham Rounded Light';text-align:center;letter-spacing:0px;word-spacing:0px;text-anchor:middle;fill:#cccccc;fill-opacity:1;stroke:none;stroke-width:0.25437486"
       id="text8290">
      <path
         d="m 7.4538501,200.71703 c 0,0.0584 0.047813,0.10625 0.1080216,0.10625 0.058438,0 0.1062508,-0.0478 0.1062508,-0.10625 v -0.78626 l 0.6375044,0.82521 c 0.030104,0.039 0.06198,0.0655 0.1133342,0.0655 h 0.00885 c 0.060209,0 0.1062507,-0.0478 0.1062507,-0.10803 v -1.04125 c 0,-0.0584 -0.047813,-0.10625 -0.1080215,-0.10625 -0.058438,0 -0.1062508,0.0478 -0.1062508,0.10625 v 0.76146 l -0.619796,-0.80219 c -0.030104,-0.0372 -0.060209,-0.0637 -0.1133341,-0.0637 h -0.023021 c -0.06198,0 -0.1097925,0.0496 -0.1097925,0.10979 z"
         style="font-style:normal;font-variant:normal;font-weight:300;font-stretch:normal;font-family:'Gotham Rounded';-inkscape-font-specification:'Gotham Rounded Light';text-align:center;text-anchor:middle;fill:#cccccc;fill-opacity:1;stroke-width:0.25437486"
         id="path1457" />
      <path
         d="m 9.4426206,200.83567 c 0.3807318,0 0.6499004,-0.29219 0.6499004,-0.64104 v -0.004 c 0,-0.34885 -0.2656269,-0.6375 -0.6463587,-0.6375 -0.3807318,0 -0.6499004,0.29219 -0.6499004,0.64105 v 0.004 c 0,0.34885 0.2656269,0.6375 0.6463587,0.6375 z m 0.00354,-0.20187 c -0.2461476,0 -0.4214613,-0.19834 -0.4214613,-0.43917 v -0.004 c 0,-0.24083 0.171772,-0.43739 0.4179196,-0.43739 0.2461476,0 0.4214613,0.2001 0.4214613,0.44094 v 0.004 c 0,0.24083 -0.171772,0.43563 -0.4179196,0.43563 z"
         style="font-style:normal;font-variant:normal;font-weight:300;font-stretch:normal;font-family:'Gotham Rounded';-inkscape-font-specification:'Gotham Rounded Light';text-align:center;text-anchor:middle;fill:#cccccc;fill-opacity:1;stroke-width:0.25437486"
         id="path1459" />
      <path
         d="m 10.368081,200.71526 c 0,0.0602 0.04781,0.10802 0.109793,0.10802 0.06021,0 0.108021,-0.0478 0.108021,-0.10802 V 199.674 c 0,-0.0602 -0.04781,-0.10802 -0.108021,-0.10802 -0.06198,0 -0.109793,0.0478 -0.109793,0.10802 z"
         style="font-style:normal;font-variant:normal;font-weight:300;font-stretch:normal;font-family:'Gotham Rounded';-inkscape-font-specification:'Gotham Rounded Light';text-align:center;text-anchor:middle;fill:#cccccc;fill-opacity:1;stroke-width:0.25437486"
         id="path1461" />
      <path
         d="m 11.349849,200.83213 c 0.260315,0 0.442712,-0.13812 0.442712,-0.37011 v -0.004 c 0,-0.20542 -0.134585,-0.29927 -0.39667,-0.36302 -0.239064,-0.0567 -0.295731,-0.0992 -0.295731,-0.19479 v -0.004 c 0,-0.0814 0.07438,-0.14698 0.201876,-0.14698 0.0974,0 0.189481,0.0319 0.285107,0.0939 0.01771,0.0106 0.03542,0.0159 0.05667,0.0159 0.05667,0 0.102709,-0.0443 0.102709,-0.10094 0,-0.0425 -0.02302,-0.0726 -0.04781,-0.0868 -0.111563,-0.0744 -0.237293,-0.11511 -0.393128,-0.11511 -0.246147,0 -0.423232,0.14698 -0.423232,0.35948 v 0.004 c 0,0.22843 0.148751,0.30635 0.412607,0.3701 0.23021,0.0531 0.279794,0.10094 0.279794,0.18948 v 0.004 c 0,0.0921 -0.085,0.15584 -0.219585,0.15584 -0.134584,0 -0.244377,-0.046 -0.347086,-0.1275 -0.01417,-0.0106 -0.03365,-0.0195 -0.06375,-0.0195 -0.05667,0 -0.102709,0.0443 -0.102709,0.10094 0,0.0354 0.01771,0.0655 0.0425,0.0832 0.138126,0.10271 0.297502,0.15583 0.465732,0.15583 z"
         style="font-style:normal;font-variant:normal;font-weight:300;font-stretch:normal;font-family:'Gotham Rounded';-inkscape-font-specification:'Gotham Rounded Light';text-align:center;text-anchor:middle;fill:#cccccc;fill-opacity:1;stroke-width:0.25437486"
         id="path1463" />
      <path
         d="m 12.160233,200.81442 h 0.729588 c 0.05312,0 0.0974,-0.0425 0.0974,-0.0974 0,-0.0531 -0.04427,-0.0974 -0.0974,-0.0974 h -0.621567 v -0.33292 h 0.533025 c 0.05313,0 0.0974,-0.0425 0.0974,-0.0956 0,-0.0549 -0.04427,-0.0992 -0.0974,-0.0992 h -0.533025 v -0.3223 h 0.612713 c 0.05312,0 0.0974,-0.0425 0.0974,-0.0974 0,-0.0531 -0.04427,-0.0974 -0.0974,-0.0974 h -0.720734 c -0.06198,0 -0.109793,0.0478 -0.109793,0.10979 v 1.02001 c 0,0.062 0.04781,0.10979 0.109793,0.10979 z"
         style="font-style:normal;font-variant:normal;font-weight:300;font-stretch:normal;font-family:'Gotham Rounded';-inkscape-font-specification:'Gotham Rounded Light';text-align:center;text-anchor:middle;fill:#cccccc;fill-opacity:1;stroke-width:0.25437486"
         id="path1465" />
    </g>
    <path
       style="fill:none;fill-rule:evenodd;stroke:#3a3c3b;stroke-width:0.26458332px;stroke-linecap:butt;stroke-linejoin:miter;stroke-opacity:1"
       d="M 1.08112,219.34513 H 18.78549"
       id="path8294"
       inkscape:connector-curvature="0"
       sodipodi:nodetypes="cc" />
    <g
       aria-label="SH-8"
       style="font-style:normal;font-variant:normal;font-weight:normal;font-stretch:normal;font-size:3.16028047px;line-height:1.25;font-family:'Gotham Rounded';-inkscape-font-specification:'Gotham Rounded';letter-spacing:0px;word-spacing:0px;fill:#b3b3b3;fill-opacity:1;stroke:none;stroke-width:0.25087854"
       id="text8416">
      <path
         d="m 6.9951397,204.07001 c 0.4772024,0 0.8121921,-0.2465 0.8121921,-0.68578 v -0.006 c 0,-0.38556 -0.2528224,-0.54673 -0.7015823,-0.66366 -0.3823939,-0.098 -0.4772023,-0.14537 -0.4772023,-0.29075 v -0.006 c 0,-0.10745 0.097969,-0.19277 0.2844252,-0.19277 0.1516935,0 0.3033869,0.0537 0.4645612,0.14853 0.037923,0.0221 0.075847,0.0348 0.123251,0.0348 0.1264112,0 0.2275402,-0.098 0.2275402,-0.22438 0,-0.0948 -0.053725,-0.16117 -0.1074496,-0.19278 -0.1990976,-0.12641 -0.4329584,-0.19593 -0.7015822,-0.19593 -0.4519201,0 -0.7742687,0.26546 -0.7742687,0.66682 v 0.006 c 0,0.43928 0.2875855,0.56253 0.733185,0.6763 0.3697528,0.0948 0.4455996,0.15801 0.4455996,0.28126 v 0.006 c 0,0.12957 -0.1200907,0.20858 -0.3191883,0.20858 -0.2148991,0 -0.3981954,-0.0759 -0.5656903,-0.1991 -0.031603,-0.0221 -0.075847,-0.0442 -0.1390523,-0.0442 -0.1264112,0 -0.2275402,0.098 -0.2275402,0.22438 0,0.0759 0.037923,0.14537 0.091648,0.1833 0.2465019,0.17697 0.540408,0.26546 0.8311538,0.26546 z"
         style="font-style:normal;font-variant:normal;font-weight:normal;font-stretch:normal;font-family:'Gotham Rounded';-inkscape-font-specification:'Gotham Rounded';text-align:center;text-anchor:middle;fill:#b3b3b3;fill-opacity:1;stroke-width:0.25087854"
         id="path1448" />
      <path
         d="m 8.2327846,203.81403 c 0,0.13589 0.1074495,0.24334 0.2433416,0.24334 0.1358921,0 0.2433416,-0.10745 0.2433416,-0.24334 v -0.66366 h 0.8975196 v 0.66366 c 0,0.13589 0.1074496,0.24334 0.2433416,0.24334 0.1358921,0 0.243342,-0.10745 0.243342,-0.24334 v -1.76344 c 0,-0.13589 -0.1074499,-0.24334 -0.243342,-0.24334 -0.135892,0 -0.2433416,0.10745 -0.2433416,0.24334 v 0.65102 H 8.7194678 v -0.65102 c 0,-0.13589 -0.1074495,-0.24334 -0.2433416,-0.24334 -0.1358921,0 -0.2433416,0.10745 -0.2433416,0.24334 z"
         style="font-style:normal;font-variant:normal;font-weight:normal;font-stretch:normal;font-family:'Gotham Rounded';-inkscape-font-specification:'Gotham Rounded';text-align:center;text-anchor:middle;fill:#b3b3b3;fill-opacity:1;stroke-width:0.25087854"
         id="path1450" />
      <path
         d="m 10.738146,203.28942 h 0.549889 c 0.126411,0 0.230701,-0.10429 0.230701,-0.2307 0,-0.12641 -0.10429,-0.2307 -0.230701,-0.2307 h -0.549889 c -0.126411,0 -0.2307,0.10429 -0.2307,0.2307 0,0.12641 0.104289,0.2307 0.2307,0.2307 z"
         style="font-style:normal;font-variant:normal;font-weight:normal;font-stretch:normal;font-family:'Gotham Rounded';-inkscape-font-specification:'Gotham Rounded';text-align:center;text-anchor:middle;fill:#b3b3b3;fill-opacity:1;stroke-width:0.25087854"
         id="path1452" />
      <path
         d="m 12.653918,204.07001 c 0.489844,0 0.853276,-0.24018 0.853276,-0.65102 v -0.006 c 0,-0.2623 -0.132732,-0.40452 -0.357112,-0.52145 0.170655,-0.10428 0.281265,-0.2465 0.281265,-0.48352 v -0.006 c 0,-0.34131 -0.309707,-0.60677 -0.777429,-0.60677 -0.467721,0 -0.777429,0.26862 -0.777429,0.60677 v 0.006 c 0,0.23702 0.11061,0.37924 0.281265,0.48352 -0.233861,0.10745 -0.357112,0.26547 -0.357112,0.53409 v 0.006 c 0,0.38556 0.363433,0.63838 0.853276,0.63838 z m 0,-1.33996 c -0.192777,0 -0.316028,-0.11693 -0.316028,-0.27178 v -0.006 c 0,-0.1359 0.11693,-0.25599 0.316028,-0.25599 0.199098,0 0.316028,0.12325 0.316028,0.25915 v 0.006 c 0,0.15485 -0.123251,0.26862 -0.316028,0.26862 z m 0,0.9386 c -0.240181,0 -0.382394,-0.12325 -0.382394,-0.27494 v -0.006 c 0,-0.17066 0.161174,-0.27179 0.382394,-0.27179 0.22122,0 0.382394,0.10113 0.382394,0.27179 v 0.006 c 0,0.15485 -0.142213,0.27494 -0.382394,0.27494 z"
         style="font-style:normal;font-variant:normal;font-weight:normal;font-stretch:normal;font-family:'Gotham Rounded';-inkscape-font-specification:'Gotham Rounded';text-align:center;text-anchor:middle;fill:#b3b3b3;fill-opacity:1;stroke-width:0.25087854"
         id="path1454" />
    </g>
    <rect
       ry="1.1906224"
       rx="1.1906224"
       y="197.25223"
       x="3.7041769"
       height="2.3812449"
       width="4.4979172"
       id="rect1087"
       style="opacity:1;fill:#000000;fill-opacity:0.37647059;stroke:none;stroke-width:0.32900003;stroke-linecap:round;stroke-linejoin:round;stroke-miterlimit:4;stroke-dasharray:none;stroke-dashoffset:0;stroke-opacity:1" />
    <rect
       ry="1.1906224"
       rx="1.1906224"
       y="293.82516"
       x="3.7041769"
       height="2.3812449"
       width="4.4979172"
       id="rect1097"
       style="opacity:1;fill:#000000;fill-opacity:0.37647059;stroke:none;stroke-width:0.32900003;stroke-linecap:round;stroke-linejoin:round;stroke-miterlimit:4;stroke-dasharray:none;stroke-dashoffset:0;stroke-opacity:1" />
    <rect
       ry="1.1906224"
       rx="1.1906224"
       y="197.25223"
       x="11.641658"
       height="2.3812449"
       width="4.4979172"
       id="rect1107"
       style="opacity:1;fill:#000000;fill-opacity:0.37647059;stroke:none;stroke-width:0.32900003;stroke-linecap:round;stroke-linejoin:round;stroke-miterlimit:4;stroke-dasharray:none;stroke-dashoffset:0;stroke-opacity:1" />
    <rect
       ry="1.1906224"
       rx="1.1906224"
       y="293.82516"
       x="11.641658"
       height="2.3812449"
       width="4.4979172"
       id="rect1119"
       style="opacity:1;fill:#000000;fill-opacity:0.37647059;stroke:none;stroke-width:0.32900003;stroke-linecap:round;stroke-linejoin:round;stroke-miterlimit:4;stroke-dasharray:none;stroke-dashoffset:0;stroke-opacity:1" />
    <path
       style="fill:#b3b3b3;fill-opacity:1;stroke:none;stroke-width:0.26458332px;stroke-linecap:butt;stroke-linejoin:miter;stroke-opacity:1"
       d="M 5.159385,240.64407 4.365643,239.32115 H 5.953145 Z"
       id="path8477"
       inkscape:connector-curvature="0"
       sodipodi:nodetypes="cccc" />
    <path
       style="fill:#b3b3b3;fill-opacity:1;stroke:none;stroke-width:0.26458332px;stroke-linecap:butt;stroke-linejoin:miter;stroke-opacity:1"
       d="M 5.159385,248.58156 4.365643,247.25864 H 5.953145 Z"
       id="path8497"
       inkscape:connector-curvature="0"
       sodipodi:nodetypes="cccc" />
    <path
       sodipodi:nodetypes="cccc"
       inkscape:connector-curvature="0"
       id="path8507"
       d="M 5.159385,256.51905 4.365643,255.19613 H 5.953145 Z"
       style="fill:#b3b3b3;fill-opacity:1;stroke:none;stroke-width:0.26458332px;stroke-linecap:butt;stroke-linejoin:miter;stroke-opacity:1" />
    <path
       sodipodi:nodetypes="cccc"
       inkscape:connector-curvature="0"
       id="path8517"
       d="M 5.159385,264.45654 4.365643,263.13362 H 5.953145 Z"
       style="fill:#b3b3b3;fill-opacity:1;stroke:none;stroke-width:0.26458332px;stroke-linecap:butt;stroke-linejoin:miter;stroke-opacity:1" />
    <path
       style="fill:#b3b3b3;fill-opacity:1;stroke:none;stroke-width:0.26458332px;stroke-linecap:butt;stroke-linejoin:miter;stroke-opacity:1"
       d="M 5.159385,272.39403 4.365643,271.07111 H 5.953145 Z"
       id="path8527"
       inkscape:connector-curvature="0"
       sodipodi:nodetypes="cccc" />
    <path
       style="fill:#b3b3b3;fill-opacity:1;stroke:none;stroke-width:0.26458332px;stroke-linecap:butt;stroke-linejoin:miter;stroke-opacity:1"
       d="M 5.159385,280.33152 4.365643,279.0086 h 1.587502 z"
       id="path8537"
       inkscape:connector-curvature="0"
       sodipodi:nodetypes="cccc" />
    <path
       style="color:#000000;font-style:normal;font-variant:normal;font-weight:normal;font-stretch:normal;font-size:medium;line-height:normal;font-family:sans-serif;font-variant-ligatures:normal;font-variant-position:normal;font-variant-caps:normal;font-variant-numeric:normal;font-variant-alternates:normal;font-feature-settings:normal;text-indent:0;text-align:start;text-decoration:none;text-decoration-line:none;text-decoration-style:solid;text-decoration-color:#000000;letter-spacing:normal;word-spacing:normal;text-transform:none;writing-mode:lr-tb;direction:ltr;text-orientation:mixed;dominant-baseline:auto;baseline-shift:baseline;text-anchor:start;white-space:normal;shape-padding:0;clip-rule:nonzero;display:inline;overflow:visible;visibility:visible;opacity:1;isolation:auto;mix-blend-mode:normal;color-interpolation:sRGB;color-interpolation-filters:linearRGB;solid-color:#000000;solid-opacity:1;vector-effect:none;fill:#b3b3b3;fill-opacity:1;fill-rule:evenodd;stroke:none;stroke-width:0.49314609;stroke-linecap:butt;stroke-linejoin:bevel;stroke-miterlimit:0;stroke-dasharray:none;stroke-dashoffset:0;stroke-opacity:1;color-rendering:auto;image-rendering:auto;shape-rendering:auto;text-rendering:auto;enable-background:accumulate"
       d="m 9.2861979,290.04688 c -0.4632482,0.29295 -0.9973403,0.49324 -1.4804687,0.60546 -0.6896659,0.15779 -1.4645622,0.22371 -1.9355469,0.12696 l -0.097656,0.48242 c 0.4029035,0.0828 0.9368652,0.0452 1.3536698,-0.0109 -0.082472,0.072 -0.1193603,0.14668 -0.1466381,0.25312 -0.025366,0.14223 0.04517,0.29972 0.1445313,0.39257 0.1027938,0.0961 0.2117928,0.11714 0.3222656,0.13086 0.1104728,0.0137 0.23008,0.0116 0.3613281,0 0.2624963,-0.0232 0.5709931,-0.0858 0.8886719,-0.17968 L 8.5576823,291.375 c -0.2918854,0.0863 -0.5772582,0.14302 -0.7929687,0.16211 -0.491867,0.0681 0.1512501,-0.27434 0.261849,-0.32748 0.4909844,-0.29468 0.9791895,-0.452 1.5057291,-0.7486 0.019699,-0.0154 0.055717,-0.0233 0.074219,-0.0391 l -0.00391,-0.004 c 0.00512,-0.005 0.016496,-0.007 0.021484,-0.0117 z"
       id="path2197"
       inkscape:connector-curvature="0"
       sodipodi:nodetypes="ccccccccsccccccccc" />
    <path
       style="color:#000000;font-style:normal;font-variant:normal;font-weight:normal;font-stretch:normal;font-size:medium;line-height:normal;font-family:sans-serif;font-variant-ligatures:normal;font-variant-position:normal;font-variant-caps:normal;font-variant-numeric:normal;font-variant-alternates:normal;font-feature-settings:normal;text-indent:0;text-align:start;text-decoration:none;text-decoration-line:none;text-decoration-style:solid;text-decoration-color:#000000;letter-spacing:normal;word-spacing:normal;text-transform:none;writing-mode:lr-tb;direction:ltr;text-orientation:mixed;dominant-baseline:auto;baseline-shift:baseline;text-anchor:start;white-space:normal;shape-padding:0;clip-rule:nonzero;display:inline;overflow:visible;visibility:visible;opacity:1;isolation:auto;mix-blend-mode:normal;color-interpolation:sRGB;color-interpolation-filters:linearRGB;solid-color:#000000;solid-opacity:1;vector-effect:none;fill:#b3b3b3;fill-opacity:1;fill-rule:evenodd;stroke:none;stroke-width:0.50924712;stroke-linecap:butt;stroke-linejoin:bevel;stroke-miterlimit:0;stroke-dasharray:none;stroke-dashoffset:0;stroke-opacity:1;color-rendering:auto;image-rendering:auto;shape-rendering:auto;text-rendering:auto;enable-background:accumulate"
       d="m 11.860417,290.03125 c -0.458554,0.56925 -0.366259,1.23588 0.01758,1.60547 0.383837,0.36959 1.02764,0.47704 1.56836,0.13086 l -0.275391,-0.42969 c -0.348402,0.22306 -0.723153,0.13991 -0.939453,-0.0684 -0.127484,-0.12275 -0.236438,-0.41201 -0.133456,-0.63455 0.06797,0.16568 0.341491,0.36531 0.48307,0.43338 0.315985,0.15193 0.687393,0.18415 1.085938,0.10352 l -0.101563,-0.5 c -0.314756,0.0637 -0.560007,0.0354 -0.763672,-0.0625 -0.203664,-0.0979 -0.375999,-0.2702 -0.517578,-0.53711 z"
       id="path2199"
       inkscape:connector-curvature="0"
       sodipodi:nodetypes="cccccccccccc" />
    <path
       style="color:#000000;font-style:normal;font-variant:normal;font-weight:normal;font-stretch:normal;font-size:medium;line-height:normal;font-family:sans-serif;font-variant-ligatures:normal;font-variant-position:normal;font-variant-caps:normal;font-variant-numeric:normal;font-variant-alternates:normal;font-feature-settings:normal;text-indent:0;text-align:start;text-decoration:none;text-decoration-line:none;text-decoration-style:solid;text-decoration-color:#000000;letter-spacing:normal;word-spacing:normal;text-transform:none;writing-mode:lr-tb;direction:ltr;text-orientation:mixed;dominant-baseline:auto;baseline-shift:baseline;text-anchor:start;white-space:normal;shape-padding:0;clip-rule:nonzero;display:inline;overflow:visible;visibility:visible;opacity:1;isolation:auto;mix-blend-mode:normal;color-interpolation:sRGB;color-interpolation-filters:linearRGB;solid-color:#000000;solid-opacity:1;vector-effect:none;fill:#b3b3b3;fill-opacity:1;fill-rule:evenodd;stroke:none;stroke-width:0.49314609;stroke-linecap:butt;stroke-linejoin:bevel;stroke-miterlimit:0;stroke-dasharray:none;stroke-dashoffset:0;stroke-opacity:1;color-rendering:auto;image-rendering:auto;shape-rendering:auto;text-rendering:auto;enable-background:accumulate"
       d="m 10.952214,289.89062 c -0.395654,0.44445 -1.1953873,1.271 -2.4375004,1.49024 l 0.085937,0.48633 c 0.2540111,-0.0448 0.429385,-0.13147 0.6499185,-0.21384 l 0.1625815,0.33298 c 0.2685338,-0.10614 0.6288264,-0.20537 0.9609384,-0.23047 0.332112,-0.0251 0.621187,0.03 0.781249,0.16211 l 0.314454,-0.38086 c -0.313886,-0.25899 -0.732633,-0.30368 -1.132814,-0.27344 -0.06789,0.005 -0.120217,0.0355 -0.1875,0.0449 0.454478,-0.37479 0.900489,-0.75227 1.193363,-1.11924 z"
       id="path2201"
       inkscape:connector-curvature="0"
       sodipodi:nodetypes="cccccscccccc" />
  </g>
</svg>
