<?xml version="1.0" encoding="UTF-8" standalone="no"?>
<!-- Created with Inkscape (http://www.inkscape.org/) -->

<svg
   xmlns:dc="http://purl.org/dc/elements/1.1/"
   xmlns:cc="http://creativecommons.org/ns#"
   xmlns:rdf="http://www.w3.org/1999/02/22-rdf-syntax-ns#"
   xmlns:svg="http://www.w3.org/2000/svg"
   xmlns="http://www.w3.org/2000/svg"
   xmlns:sodipodi="http://sodipodi.sourceforge.net/DTD/sodipodi-0.dtd"
   xmlns:inkscape="http://www.inkscape.org/namespaces/inkscape"
   width="75"
   height="380"
   viewBox="0 0 19.843751 100.54167"
   version="1.1"
   id="svg8"
   inkscape:version="0.92.3 (2405546, 2018-03-11)"
   sodipodi:docname="SH-8.svg">
  <defs
     id="defs2">
    <clipPath
       clipPathUnits="userSpaceOnUse"
       id="clipPath1763">
      <path
         inkscape:connector-curvature="0"
         id="path1765"
         d="M 0,196.45831 H 23.8125 V 296.99999 H 0 Z"
         style="opacity:1;vector-effect:none;fill:#28220b;fill-opacity:1;fill-rule:evenodd;stroke:none;stroke-width:0.48607069;stroke-linecap:butt;stroke-linejoin:round;stroke-miterlimit:4;stroke-dasharray:none;stroke-dashoffset:0;stroke-opacity:1;paint-order:normal" />
    </clipPath>
    <clipPath
       clipPathUnits="userSpaceOnUse"
       id="clipPath3293">
      <path
         style="opacity:1;vector-effect:none;fill:#28220b;fill-opacity:1;fill-rule:evenodd;stroke:none;stroke-width:0.48607066;stroke-linecap:butt;stroke-linejoin:round;stroke-miterlimit:4;stroke-dasharray:none;stroke-dashoffset:0;stroke-opacity:1;paint-order:normal"
         d="M -1.5460537e-7,196.45831 H 19.843751 V 296.99999 H -1.5460537e-7 Z"
         id="path3295"
         inkscape:connector-curvature="0" />
    </clipPath>
  </defs>
  <sodipodi:namedview
     id="base"
     pagecolor="#ffffff"
     bordercolor="#666666"
     borderopacity="1.0"
     inkscape:pageopacity="0.0"
     inkscape:pageshadow="2"
     inkscape:zoom="5.6568542"
     inkscape:cx="12.854559"
     inkscape:cy="304.37369"
     inkscape:document-units="mm"
     inkscape:current-layer="svg8"
     showgrid="false"
     units="px"
     inkscape:snap-bbox="true"
     inkscape:snap-page="true"
     inkscape:bbox-nodes="true"
     inkscape:snap-bbox-edge-midpoints="true"
     inkscape:window-width="1663"
     inkscape:window-height="1147"
     inkscape:window-x="354"
     inkscape:window-y="438"
     inkscape:window-maximized="0"
     showguides="true"
     inkscape:guide-bbox="true"
     inkscape:snap-global="false">
    <inkscape:grid
       type="xygrid"
       id="grid985" />
  </sodipodi:namedview>
  <metadata
     id="metadata5">
    <rdf:RDF>
      <cc:Work
         rdf:about="">
        <dc:format>image/svg+xml</dc:format>
        <dc:type
           rdf:resource="http://purl.org/dc/dcmitype/StillImage" />
        <dc:title />
      </cc:Work>
    </rdf:RDF>
  </metadata>
  <path
     inkscape:export-ydpi="192"
     inkscape:export-xdpi="192"
     style="opacity:1;vector-effect:none;fill:#202223;fill-opacity:1;fill-rule:evenodd;stroke:none;stroke-width:0.4860768;stroke-linecap:butt;stroke-linejoin:round;stroke-miterlimit:4;stroke-dasharray:none;stroke-dashoffset:0;stroke-opacity:1;paint-order:normal"
     d="M 0,-0.00129333 H 19.843999 V 100.54167 H 0 Z"
     id="path9368"
     inkscape:connector-curvature="0" />
  <path
     inkscape:export-ydpi="192"
     inkscape:export-xdpi="192"
     style="fill:none;fill-rule:evenodd;stroke:#8a8a76;stroke-width:0.18520834;stroke-linecap:butt;stroke-linejoin:miter;stroke-miterlimit:4;stroke-dasharray:none;stroke-opacity:1"
     d="m 7.15527,32.146087 h 5.556311"
     id="path9372"
     inkscape:connector-curvature="0"
     sodipodi:nodetypes="cc" />
  <path
     inkscape:export-ydpi="192"
     inkscape:export-xdpi="192"
     sodipodi:nodetypes="cc"
     inkscape:connector-curvature="0"
     id="path9374"
     d="m 7.15527,40.083667 h 5.556311"
     style="fill:none;fill-rule:evenodd;stroke:#8a8a76;stroke-width:0.18520834;stroke-linecap:butt;stroke-linejoin:miter;stroke-miterlimit:4;stroke-dasharray:none;stroke-opacity:1" />
  <path
     inkscape:export-ydpi="192"
     inkscape:export-xdpi="192"
     sodipodi:nodetypes="cc"
     inkscape:connector-curvature="0"
     id="path9376"
     d="m 7.15527,48.021247 h 5.556311"
     style="fill:none;fill-rule:evenodd;stroke:#8a8a76;stroke-width:0.18520834;stroke-linecap:butt;stroke-linejoin:miter;stroke-miterlimit:4;stroke-dasharray:none;stroke-opacity:1" />
  <path
     inkscape:export-ydpi="192"
     inkscape:export-xdpi="192"
     style="fill:none;fill-rule:evenodd;stroke:#8a8a76;stroke-width:0.18520834;stroke-linecap:butt;stroke-linejoin:miter;stroke-miterlimit:4;stroke-dasharray:none;stroke-opacity:1"
     d="m 7.15527,55.958847 h 5.556311"
     id="path9378"
     inkscape:connector-curvature="0"
     sodipodi:nodetypes="cc" />
  <path
     inkscape:export-ydpi="192"
     inkscape:export-xdpi="192"
     style="fill:none;fill-rule:evenodd;stroke:#8a8a76;stroke-width:0.18520834;stroke-linecap:butt;stroke-linejoin:miter;stroke-miterlimit:4;stroke-dasharray:none;stroke-opacity:1"
     d="m 7.15527,63.896427 h 5.556311"
     id="path9380"
     inkscape:connector-curvature="0"
     sodipodi:nodetypes="cc" />
  <path
     inkscape:export-ydpi="192"
     inkscape:export-xdpi="192"
     sodipodi:nodetypes="cc"
     inkscape:connector-curvature="0"
     id="path9382"
     d="m 7.15527,71.834037 h 5.556311"
     style="fill:none;fill-rule:evenodd;stroke:#8a8a76;stroke-width:0.18520834;stroke-linecap:butt;stroke-linejoin:miter;stroke-miterlimit:4;stroke-dasharray:none;stroke-opacity:1" />
  <path
     inkscape:export-ydpi="192"
     inkscape:export-xdpi="192"
     sodipodi:nodetypes="cc"
     inkscape:connector-curvature="0"
     id="path9384"
     d="m 7.15527,79.771617 h 5.556311"
     style="fill:none;fill-rule:evenodd;stroke:#8a8a76;stroke-width:0.18520834;stroke-linecap:butt;stroke-linejoin:miter;stroke-miterlimit:4;stroke-dasharray:none;stroke-opacity:1" />
  <path
     inkscape:export-ydpi="192"
     inkscape:export-xdpi="192"
     style="fill:none;fill-rule:evenodd;stroke:#8a8a76;stroke-width:0.18520834;stroke-linecap:butt;stroke-linejoin:miter;stroke-miterlimit:4;stroke-dasharray:none;stroke-opacity:1"
     d="m 7.15527,87.709197 h 5.556311"
     id="path9386"
     inkscape:connector-curvature="0"
     sodipodi:nodetypes="cc" />
  <rect
     inkscape:export-ydpi="192"
     inkscape:export-xdpi="192"
     style="opacity:1;fill:#585a4e;fill-opacity:1;stroke:none;stroke-width:0.26458669;stroke-linecap:round;stroke-linejoin:round;stroke-miterlimit:0;stroke-dasharray:none;stroke-dashoffset:0;stroke-opacity:1"
     id="rect9388"
     width="7.6730132"
     height="66.411255"
     x="10.583488"
     y="25.399017"
     rx="0.79376179"
     ry="0.79376179" />
  <g
     aria-label="OUT"
     style="font-style:normal;font-variant:normal;font-weight:300;font-stretch:normal;font-size:1.73361528px;line-height:1.25;font-family:'Gotham Rounded';-inkscape-font-specification:'Gotham Rounded Light';text-align:center;letter-spacing:0px;word-spacing:0px;text-anchor:middle;fill:#ffffff;fill-opacity:1;stroke:#ffffff;stroke-width:0.02646162;stroke-miterlimit:4;stroke-dasharray:none;stroke-opacity:1"
     id="text9392">
    <path
       d="m 13.305497,27.757566 c 0.372728,0 0.636237,-0.286046 0.636237,-0.627568 v -0.0035 c 0,-0.341522 -0.260042,-0.624101 -0.632769,-0.624101 -0.372728,0 -0.636237,0.286046 -0.636237,0.627569 v 0.0035 c 0,0.341522 0.260042,0.624101 0.632769,0.624101 z m 0.0035,-0.197632 c -0.240973,0 -0.412601,-0.194165 -0.412601,-0.429936 v -0.0035 c 0,-0.235771 0.168161,-0.428203 0.409133,-0.428203 0.240973,0 0.412601,0.195899 0.412601,0.431671 v 0.0035 c 0,0.235772 -0.168161,0.426469 -0.409133,0.426469 z"
       style="font-style:normal;font-variant:normal;font-weight:300;font-stretch:normal;font-family:'Gotham Rounded';-inkscape-font-specification:'Gotham Rounded Light';text-align:center;text-anchor:middle;fill:#ffffff;fill-opacity:1;stroke:#ffffff;stroke-width:0.02646162;stroke-miterlimit:4;stroke-dasharray:none;stroke-opacity:1"
       id="path1027" />
    <path
       d="m 14.696913,27.755833 c 0.317252,0 0.521819,-0.18203 0.521819,-0.544355 v -0.591163 c 0,-0.05894 -0.04681,-0.105751 -0.105751,-0.105751 -0.06068,0 -0.107484,0.04681 -0.107484,0.105751 v 0.601564 c 0,0.223637 -0.116152,0.336322 -0.305116,0.336322 -0.190698,0 -0.30685,-0.11962 -0.30685,-0.34499 v -0.592896 c 0,-0.05894 -0.04681,-0.105751 -0.105751,-0.105751 -0.06068,0 -0.107484,0.04681 -0.107484,0.105751 v 0.601564 c 0,0.351924 0.201099,0.533954 0.516617,0.533954 z"
       style="font-style:normal;font-variant:normal;font-weight:300;font-stretch:normal;font-family:'Gotham Rounded';-inkscape-font-specification:'Gotham Rounded Light';text-align:center;text-anchor:middle;fill:#ffffff;fill-opacity:1;stroke:#ffffff;stroke-width:0.02646162;stroke-miterlimit:4;stroke-dasharray:none;stroke-opacity:1"
       id="path1029" />
    <path
       d="m 15.811303,27.639681 c 0,0.05894 0.04854,0.10575 0.107484,0.10575 0.05894,0 0.107484,-0.04681 0.107484,-0.10575 v -0.918817 h 0.296448 c 0.05374,0 0.09708,-0.04507 0.09708,-0.09882 0,-0.05374 -0.04334,-0.09882 -0.09708,-0.09882 h -0.806131 c -0.05548,0 -0.09882,0.04507 -0.09882,0.09882 0,0.05374 0.04334,0.09882 0.09882,0.09882 h 0.294715 z"
       style="font-style:normal;font-variant:normal;font-weight:300;font-stretch:normal;font-family:'Gotham Rounded';-inkscape-font-specification:'Gotham Rounded Light';text-align:center;text-anchor:middle;fill:#ffffff;fill-opacity:1;stroke:#ffffff;stroke-width:0.02646162;stroke-miterlimit:4;stroke-dasharray:none;stroke-opacity:1"
       id="path1031" />
  </g>
  <g
     aria-label="TRIG"
     style="font-style:normal;font-variant:normal;font-weight:300;font-stretch:normal;font-size:1.84193587px;line-height:1.25;font-family:'Gotham Rounded';-inkscape-font-specification:'Gotham Rounded Light';text-align:center;letter-spacing:0px;word-spacing:0px;text-anchor:middle;fill:#eaeae3;fill-opacity:1;stroke:none;stroke-width:0.26458666"
     id="text9396">
    <path
       d="m 3.4478528,27.657357 c 0,0.06263 0.051574,0.112358 0.1142,0.112358 0.062626,0 0.1142,-0.04973 0.1142,-0.112358 v -0.976226 h 0.314971 c 0.0571,0 0.1031485,-0.04789 0.1031485,-0.10499 0,-0.0571 -0.046048,-0.10499 -0.1031485,-0.10499 H 3.1347237 c -0.058942,0 -0.1049904,0.04789 -0.1049904,0.10499 0,0.0571 0.046048,0.10499 0.1049904,0.10499 h 0.3131291 z"
       style="font-style:normal;font-variant:normal;font-weight:300;font-stretch:normal;font-family:'Gotham Rounded';-inkscape-font-specification:'Gotham Rounded Light';text-align:center;text-anchor:middle;fill:#eaeae3;fill-opacity:1;stroke-width:0.26458666"
       id="path1018" />
    <path
       d="m 4.2510051,27.657357 c 0,0.06263 0.049732,0.112358 0.1142,0.112358 0.062626,0 0.1123581,-0.04973 0.1123581,-0.112358 v -0.346284 h 0.2855001 l 0.3131291,0.3997 c 0.025787,0.035 0.058942,0.05894 0.1105161,0.05894 0.055258,0 0.1086742,-0.04236 0.1086742,-0.10499 0,-0.035 -0.014735,-0.05894 -0.036839,-0.08657 L 5.0117246,27.266867 c 0.173142,-0.05342 0.2928678,-0.178668 0.2928678,-0.384965 v -0.0037 c 0,-0.112358 -0.038681,-0.208138 -0.1068323,-0.278132 -0.082887,-0.08104 -0.2099806,-0.128935 -0.372071,-0.128935 h -0.460484 c -0.064468,0 -0.1142,0.04973 -0.1142,0.1142 z m 0.2265581,-0.547055 v -0.432855 h 0.3297065 c 0.1676162,0 0.2670807,0.07552 0.2670807,0.213665 v 0.0037 c 0,0.130777 -0.1031484,0.215506 -0.2652387,0.215506 z"
       style="font-style:normal;font-variant:normal;font-weight:300;font-stretch:normal;font-family:'Gotham Rounded';-inkscape-font-specification:'Gotham Rounded Light';text-align:center;text-anchor:middle;fill:#eaeae3;fill-opacity:1;stroke-width:0.26458666"
       id="path1020" />
    <path
       d="m 5.5743144,27.657357 c 0,0.06263 0.049732,0.112358 0.1142,0.112358 0.062626,0 0.1123581,-0.04973 0.1123581,-0.112358 v -1.083058 c 0,-0.06263 -0.049732,-0.112358 -0.1123581,-0.112358 -0.064468,0 -0.1142,0.04973 -0.1142,0.112358 z"
       style="font-style:normal;font-variant:normal;font-weight:300;font-stretch:normal;font-family:'Gotham Rounded';-inkscape-font-specification:'Gotham Rounded Light';text-align:center;text-anchor:middle;fill:#eaeae3;fill-opacity:1;stroke-width:0.26458666"
       id="path1022" />
    <path
       d="m 6.7557435,27.782609 c 0.1934032,0 0.3481259,-0.06631 0.458642,-0.139987 0.053416,-0.03316 0.079203,-0.0792 0.079203,-0.143671 v -0.344442 c 0,-0.06447 -0.049732,-0.1142 -0.1142,-0.1142 H 6.8202112 c -0.055258,0 -0.1013064,0.04421 -0.1013064,0.09946 0,0.05526 0.046048,0.09762 0.1013064,0.09762 h 0.2541872 v 0.241293 c -0.079203,0.05894 -0.1897194,0.09762 -0.3112872,0.09762 -0.2633968,0 -0.4383807,-0.195245 -0.4383807,-0.460484 v -0.0037 c 0,-0.246819 0.1805097,-0.454958 0.4181194,-0.454958 0.1399871,0 0.230242,0.04052 0.3131291,0.101307 0.018419,0.01289 0.040523,0.02579 0.069994,0.02579 0.062626,0 0.1123581,-0.05157 0.1123581,-0.112358 0,-0.04421 -0.023945,-0.07552 -0.046048,-0.0921 -0.1178839,-0.08473 -0.2468194,-0.130778 -0.4402227,-0.130778 -0.3886485,0 -0.6649388,0.305762 -0.6649388,0.666781 v 0.0037 c 0,0.375755 0.2652387,0.663097 0.6686227,0.663097 z"
       style="font-style:normal;font-variant:normal;font-weight:300;font-stretch:normal;font-family:'Gotham Rounded';-inkscape-font-specification:'Gotham Rounded Light';text-align:center;text-anchor:middle;fill:#eaeae3;fill-opacity:1;stroke-width:0.26458666"
       id="path1024" />
  </g>
  <path
     inkscape:export-ydpi="192"
     inkscape:export-xdpi="192"
     style="fill:#9b9b7e;fill-opacity:1;stroke:none;stroke-width:0.26458669px;stroke-linecap:butt;stroke-linejoin:miter;stroke-opacity:1"
     d="m 5.159444,36.511687 -0.79375,-1.32295 h 1.587521 z"
     id="path9398"
     inkscape:connector-curvature="0"
     sodipodi:nodetypes="cccc" />
  <g
     aria-label="NOISE"
     transform="scale(0.9614168,1.0401316)"
     style="font-style:normal;font-variant:normal;font-weight:300;font-stretch:normal;font-size:1.77086806px;line-height:1.25;font-family:'Gotham Rounded';-inkscape-font-specification:'Gotham Rounded Light';text-align:center;letter-spacing:0px;word-spacing:0px;text-anchor:middle;fill:#eaeae3;fill-opacity:1;stroke:none;stroke-width:0.25437808"
     id="text9402">
    <path
       d="m 7.4538634,11.83831 c 0,0.05844 0.047813,0.106252 0.108023,0.106252 0.058439,0 0.106252,-0.04781 0.106252,-0.106252 v -0.786265 l 0.6375126,0.825224 c 0.030105,0.03896 0.06198,0.06552 0.1133355,0.06552 h 0.00885 c 0.06021,0 0.1062521,-0.04781 0.1062521,-0.108023 v -1.041271 c 0,-0.05844 -0.047813,-0.106252 -0.1080229,-0.106252 -0.058439,0 -0.1062521,0.04781 -0.1062521,0.106252 v 0.761473 L 7.7000141,10.752768 c -0.030105,-0.03719 -0.06021,-0.06375 -0.1133356,-0.06375 h -0.023021 c -0.06198,0 -0.1097938,0.04958 -0.1097938,0.109794 z"
       style="font-style:normal;font-variant:normal;font-weight:300;font-stretch:normal;font-family:'Gotham Rounded';-inkscape-font-specification:'Gotham Rounded Light';text-align:center;text-anchor:middle;fill:#eaeae3;fill-opacity:1;stroke-width:0.25437808"
       id="path1007" />
    <path
       d="m 9.442659,11.956958 c 0.3807366,0 0.649909,-0.292193 0.649909,-0.641054 v -0.0035 c 0,-0.348861 -0.2656306,-0.637512 -0.6463673,-0.637512 -0.3807366,0 -0.6499086,0.292193 -0.6499086,0.641054 v 0.0035 c 0,0.348861 0.2656302,0.637512 0.6463669,0.637512 z m 0.00354,-0.201878 c -0.2461506,0 -0.4214666,-0.198338 -0.4214666,-0.439176 v -0.0035 c 0,-0.240838 0.1717742,-0.437404 0.4179249,-0.437404 0.2461506,0 0.4214666,0.200108 0.4214666,0.440946 v 0.0035 c 0,0.240838 -0.1717742,0.435634 -0.4179249,0.435634 z"
       style="font-style:normal;font-variant:normal;font-weight:300;font-stretch:normal;font-family:'Gotham Rounded';-inkscape-font-specification:'Gotham Rounded Light';text-align:center;text-anchor:middle;fill:#eaeae3;fill-opacity:1;stroke-width:0.25437808"
       id="path1009" />
    <path
       d="m 10.368131,11.836539 c 0,0.06021 0.04781,0.108023 0.109794,0.108023 0.06021,0 0.108023,-0.04781 0.108023,-0.108023 v -1.04127 c 0,-0.06021 -0.04781,-0.108023 -0.108023,-0.108023 -0.06198,0 -0.109794,0.04781 -0.109794,0.108023 z"
       style="font-style:normal;font-variant:normal;font-weight:300;font-stretch:normal;font-family:'Gotham Rounded';-inkscape-font-specification:'Gotham Rounded Light';text-align:center;text-anchor:middle;fill:#eaeae3;fill-opacity:1;stroke-width:0.25437808"
       id="path1011" />
    <path
       d="m 11.349911,11.953417 c 0.260318,0 0.442717,-0.138128 0.442717,-0.370112 v -0.0035 c 0,-0.205421 -0.134585,-0.299277 -0.396674,-0.363028 -0.239067,-0.05667 -0.295735,-0.09917 -0.295735,-0.194796 v -0.0035 c 0,-0.08146 0.07438,-0.146982 0.201879,-0.146982 0.0974,0 0.189483,0.03188 0.28511,0.09386 0.01771,0.01063 0.03542,0.01594 0.05667,0.01594 0.05667,0 0.10271,-0.04427 0.10271,-0.100939 0,-0.0425 -0.02302,-0.07261 -0.04781,-0.08677 -0.111564,-0.07438 -0.237296,-0.115106 -0.393132,-0.115106 -0.246151,0 -0.423238,0.146982 -0.423238,0.359486 v 0.0035 c 0,0.228442 0.148753,0.30636 0.412613,0.370111 0.230212,0.05313 0.279797,0.10094 0.279797,0.189483 v 0.0035 c 0,0.09208 -0.085,0.155836 -0.219588,0.155836 -0.134586,0 -0.24438,-0.04604 -0.34709,-0.127502 -0.01417,-0.01063 -0.03365,-0.01948 -0.06375,-0.01948 -0.05667,0 -0.102711,0.04427 -0.102711,0.10094 0,0.03542 0.01771,0.06552 0.0425,0.08323 0.138128,0.102711 0.297506,0.155837 0.465738,0.155837 z"
       style="font-style:normal;font-variant:normal;font-weight:300;font-stretch:normal;font-family:'Gotham Rounded';-inkscape-font-specification:'Gotham Rounded Light';text-align:center;text-anchor:middle;fill:#eaeae3;fill-opacity:1;stroke-width:0.25437808"
       id="path1013" />
    <path
       d="m 12.160305,11.935708 h 0.729598 c 0.05313,0 0.0974,-0.0425 0.0974,-0.0974 0,-0.05313 -0.04427,-0.0974 -0.0974,-0.0974 h -0.621575 v -0.332924 h 0.533031 c 0.05313,0 0.0974,-0.0425 0.0974,-0.09563 0,-0.0549 -0.04427,-0.09917 -0.0974,-0.09917 h -0.533031 v -0.322298 h 0.61272 c 0.05313,0 0.0974,-0.0425 0.0974,-0.0974 0,-0.05313 -0.04427,-0.0974 -0.0974,-0.0974 h -0.720743 c -0.06198,0 -0.109794,0.04781 -0.109794,0.109794 v 1.02002 c 0,0.06198 0.04781,0.109794 0.109794,0.109794 z"
       style="font-style:normal;font-variant:normal;font-weight:300;font-stretch:normal;font-family:'Gotham Rounded';-inkscape-font-specification:'Gotham Rounded Light';text-align:center;text-anchor:middle;fill:#eaeae3;fill-opacity:1;stroke-width:0.25437808"
       id="path1015" />
  </g>
  <path
     inkscape:export-ydpi="192"
     inkscape:export-xdpi="192"
     sodipodi:nodetypes="cc"
     inkscape:connector-curvature="0"
     id="path9404"
     d="M 1.610299,22.885487 H 18.256541"
     style="fill:none;fill-rule:evenodd;stroke:#8a8a76;stroke-width:0.18520834;stroke-linecap:butt;stroke-linejoin:miter;stroke-miterlimit:4;stroke-dasharray:none;stroke-opacity:1" />
  <g
     aria-label="SH-8"
     style="font-style:normal;font-variant:normal;font-weight:normal;font-stretch:normal;font-size:3.16032076px;line-height:1.25;font-family:'Gotham Rounded';-inkscape-font-specification:'Gotham Rounded';letter-spacing:0px;word-spacing:0px;fill:#eaeae3;fill-opacity:1;stroke:none;stroke-width:0.2508817"
     id="text9408">
    <path
       d="m 6.9951831,7.610782 c 0.4772085,0 0.8122025,-0.246505 0.8122025,-0.6857896 v -0.00632 c 0,-0.3855592 -0.2528257,-0.5467355 -0.7015912,-0.6636674 C 6.7233956,6.1570345 6.6285859,6.1096297 6.6285859,5.9642549 v -0.00632 c 0,-0.1074509 0.09797,-0.1927796 0.2844289,-0.1927796 0.1516954,0 0.3033908,0.053725 0.4645671,0.1485351 0.037924,0.022122 0.075848,0.034763 0.1232526,0.034763 0.1264128,0 0.2275431,-0.09797 0.2275431,-0.2243828 0,-0.09481 -0.053725,-0.1611763 -0.107451,-0.1927795 C 7.4218264,5.4048781 7.1879627,5.3353511 6.9193354,5.3353511 c -0.4519258,0 -0.7742785,0.2654669 -0.7742785,0.6668277 v 0.00632 c 0,0.4392846 0.2875891,0.5625371 0.7331944,0.6763086 0.3697575,0.09481 0.4456052,0.1580161 0.4456052,0.2812686 v 0.00632 c 0,0.1295732 -0.1200922,0.2085812 -0.3191924,0.2085812 -0.2149018,0 -0.3982004,-0.075848 -0.5656974,-0.1991002 -0.031603,-0.022122 -0.075848,-0.044244 -0.1390541,-0.044244 -0.1264129,0 -0.2275431,0.09797 -0.2275431,0.2243828 0,0.075848 0.037924,0.1453747 0.091649,0.1832986 0.246505,0.1769779 0.5404148,0.2654669 0.8311643,0.2654669 z"
       style="font-style:normal;font-variant:normal;font-weight:normal;font-stretch:normal;font-family:'Gotham Rounded';-inkscape-font-specification:'Gotham Rounded';text-align:center;text-anchor:middle;fill:#eaeae3;fill-opacity:1;stroke-width:0.2508817"
       id="path998" />
    <path
       d="m 8.2328437,7.354796 c 0,0.1358938 0.107451,0.2433447 0.2433447,0.2433447 0.1358938,0 0.2433447,-0.1074509 0.2433447,-0.2433447 V 6.6911287 H 9.6170642 V 7.354796 c 0,0.1358938 0.1074509,0.2433447 0.2433447,0.2433447 0.1358938,0 0.2433451,-0.1074509 0.2433451,-0.2433447 V 5.5913371 c 0,-0.1358938 -0.1074513,-0.2433447 -0.2433451,-0.2433447 -0.1358938,0 -0.2433447,0.1074509 -0.2433447,0.2433447 v 0.651026 H 8.7195331 v -0.651026 c 0,-0.1358938 -0.1074509,-0.2433447 -0.2433447,-0.2433447 -0.1358937,0 -0.2433447,0.1074509 -0.2433447,0.2433447 z"
       style="font-style:normal;font-variant:normal;font-weight:normal;font-stretch:normal;font-family:'Gotham Rounded';-inkscape-font-specification:'Gotham Rounded';text-align:center;text-anchor:middle;fill:#eaeae3;fill-opacity:1;stroke-width:0.2508817"
       id="path1000" />
    <path
       d="m 10.738237,6.8301828 h 0.549896 c 0.126413,0 0.230704,-0.1042906 0.230704,-0.2307034 0,-0.1264129 -0.104291,-0.2307034 -0.230704,-0.2307034 h -0.549896 c -0.126412,0 -0.230703,0.1042905 -0.230703,0.2307034 0,0.1264128 0.104291,0.2307034 0.230703,0.2307034 z"
       style="font-style:normal;font-variant:normal;font-weight:normal;font-stretch:normal;font-family:'Gotham Rounded';-inkscape-font-specification:'Gotham Rounded';text-align:center;text-anchor:middle;fill:#eaeae3;fill-opacity:1;stroke-width:0.2508817"
       id="path1002" />
    <path
       d="m 12.654034,7.610782 c 0.489849,0 0.853286,-0.2401844 0.853286,-0.6510261 v -0.00632 c 0,-0.2623066 -0.132733,-0.4045211 -0.357116,-0.5214529 0.170657,-0.1042906 0.281269,-0.246505 0.281269,-0.4835291 v -0.00632 c 0,-0.3413147 -0.309712,-0.6067816 -0.777439,-0.6067816 -0.467728,0 -0.777439,0.2686272 -0.777439,0.6067816 v 0.00632 c 0,0.2370241 0.110611,0.3792385 0.281268,0.4835291 C 11.924,6.5394333 11.800747,6.6974493 11.800747,6.9660766 v 0.00632 c 0,0.3855592 0.363437,0.6383848 0.853287,0.6383848 z m 0,-1.339976 c -0.19278,0 -0.316032,-0.1169319 -0.316032,-0.2717876 v -0.00632 c 0,-0.1358938 0.116932,-0.255986 0.316032,-0.255986 0.1991,0 0.316032,0.1232525 0.316032,0.2591463 v 0.00632 c 0,0.1548557 -0.123253,0.2686272 -0.316032,0.2686272 z m 0,0.9386153 c -0.240185,0 -0.382399,-0.1232525 -0.382399,-0.2749479 v -0.00632 c 0,-0.1706573 0.161176,-0.2717876 0.382399,-0.2717876 0.221222,0 0.382399,0.1011303 0.382399,0.2717876 v 0.00632 c 0,0.1548557 -0.142215,0.2749479 -0.382399,0.2749479 z"
       style="font-style:normal;font-variant:normal;font-weight:normal;font-stretch:normal;font-family:'Gotham Rounded';-inkscape-font-specification:'Gotham Rounded';text-align:center;text-anchor:middle;fill:#eaeae3;fill-opacity:1;stroke-width:0.2508817"
       id="path1004" />
  </g>
  <path
     inkscape:export-ydpi="192"
     inkscape:export-xdpi="192"
     sodipodi:nodetypes="cccc"
     inkscape:connector-curvature="0"
     id="path9410"
     d="m 5.159444,44.449287 -0.79375,-1.32294 h 1.587521 z"
     style="fill:#9b9b7e;fill-opacity:1;stroke:none;stroke-width:0.26458669px;stroke-linecap:butt;stroke-linejoin:miter;stroke-opacity:1" />
  <path
     inkscape:export-ydpi="192"
     inkscape:export-xdpi="192"
     sodipodi:nodetypes="cccc"
     inkscape:connector-curvature="0"
     id="path9412"
     d="m 5.159444,52.386867 -0.79375,-1.32294 h 1.587521 z"
     style="fill:#9b9b7e;fill-opacity:1;stroke:none;stroke-width:0.26458669px;stroke-linecap:butt;stroke-linejoin:miter;stroke-opacity:1" />
  <path
     inkscape:export-ydpi="192"
     inkscape:export-xdpi="192"
     style="fill:#9b9b7e;fill-opacity:1;stroke:none;stroke-width:0.26458669px;stroke-linecap:butt;stroke-linejoin:miter;stroke-opacity:1"
     d="m 5.159444,60.324447 -0.79375,-1.32292 h 1.587521 z"
     id="path9414"
     inkscape:connector-curvature="0"
     sodipodi:nodetypes="cccc" />
  <path
     inkscape:export-ydpi="192"
     inkscape:export-xdpi="192"
     style="fill:#9b9b7e;fill-opacity:1;stroke:none;stroke-width:0.26458669px;stroke-linecap:butt;stroke-linejoin:miter;stroke-opacity:1"
     d="m 5.159444,68.262057 -0.79375,-1.32295 h 1.587521 z"
     id="path9416"
     inkscape:connector-curvature="0"
     sodipodi:nodetypes="cccc" />
  <path
     inkscape:export-ydpi="192"
     inkscape:export-xdpi="192"
     sodipodi:nodetypes="cccc"
     inkscape:connector-curvature="0"
     id="path9418"
     d="m 5.159444,76.199637 -0.79375,-1.32295 h 1.587521 z"
     style="fill:#9b9b7e;fill-opacity:1;stroke:none;stroke-width:0.26458669px;stroke-linecap:butt;stroke-linejoin:miter;stroke-opacity:1" />
  <path
     inkscape:export-ydpi="192"
     inkscape:export-xdpi="192"
     sodipodi:nodetypes="cccc"
     inkscape:connector-curvature="0"
     id="path9420"
     d="m 5.159444,84.137237 -0.79375,-1.32294 h 1.587521 z"
     style="fill:#9b9b7e;fill-opacity:1;stroke:none;stroke-width:0.26458669px;stroke-linecap:butt;stroke-linejoin:miter;stroke-opacity:1" />
  <path
     inkscape:export-ydpi="192"
     inkscape:export-xdpi="192"
     inkscape:connector-curvature="0"
     id="path9422"
     d="m 11.217402,93.436677 c -0.391343,0.43956 -1.177486,1.25262 -2.396236,1.4826 l -0.0011,-0.004 c -0.291902,0.0863 -0.57703,0.14421 -0.792716,0.1633 -0.09632,0.008 -0.170968,0.007 -0.228928,0.002 0.09569,-0.0793 0.285216,-0.19124 0.524518,-0.30541 0.506349,-0.24158 1.161727,-0.48294 1.547191,-0.81184 l -0.0031,-0.004 c 0.005,-0.005 0.01577,-0.007 0.02066,-0.0124 L 9.55025,93.587717 c -0.125473,0.10706 -0.462984,0.24681 -0.730186,0.3762 -0.229503,0.0839 -0.473276,0.16748 -0.750859,0.231 -0.689626,0.1578 -1.46322,0.2218 -1.934249,0.12505 l -0.09922,0.48318 c 0.39453,0.081 0.873297,0.0551 1.361156,-0.006 -0.0653,0.0681 -0.133889,0.13632 -0.153995,0.24908 -0.02537,0.14224 0.04532,0.29992 0.144693,0.39274 0.10279,0.0961 0.211994,0.11702 0.322461,0.13074 0.110468,0.0137 0.229462,0.0116 0.360703,0 0.236131,-0.0209 0.5119,-0.0787 0.795817,-0.15761 v 10e-4 c 0.24007,-0.0424 0.444066,-0.12583 0.654222,-0.20206 l 0.157096,0.32091 c 0.268595,-0.10614 0.630137,-0.20538 0.962216,-0.23047 0.332081,-0.0251 0.620297,0.0297 0.780314,0.16174 l 0.314193,-0.38033 c -0.301374,-0.24869 -0.69877,-0.29442 -1.08417,-0.27131 0.355505,-0.31614 0.673725,-0.66241 0.922941,-1.03611 0.0026,-0.003 0.0098,-0.008 0.01241,-0.0114 l -0.0016,-10e-4 c 0.0066,-0.01 0.01725,-0.0184 0.02376,-0.0284 z m 0.907955,0.13281 c -0.45856,0.56929 -0.367348,1.23652 0.01654,1.6061 0.383887,0.36959 1.027703,0.47652 1.568381,0.13023 l -0.274402,-0.42892 c -0.348321,0.22309 -0.724707,0.14005 -0.941027,-0.0682 -0.145786,-0.14035 -0.175631,-0.34028 -0.115755,-0.56999 0.135815,0.15143 0.287469,0.28153 0.466121,0.36742 0.315974,0.15192 0.687293,0.18444 1.085721,0.10387 l -0.10077,-0.49919 c -0.314621,0.0636 -0.560625,0.0338 -0.764294,-0.0641 -0.203665,-0.0979 -0.375689,-0.27002 -0.517281,-0.53692 z"
     style="color:#000000;font-style:normal;font-variant:normal;font-weight:normal;font-stretch:normal;font-size:medium;line-height:normal;font-family:sans-serif;font-variant-ligatures:normal;font-variant-position:normal;font-variant-caps:normal;font-variant-numeric:normal;font-variant-alternates:normal;font-feature-settings:normal;text-indent:0;text-align:start;text-decoration:none;text-decoration-line:none;text-decoration-style:solid;text-decoration-color:#000000;letter-spacing:normal;word-spacing:normal;text-transform:none;writing-mode:lr-tb;direction:ltr;text-orientation:mixed;dominant-baseline:auto;baseline-shift:baseline;text-anchor:start;white-space:normal;shape-padding:0;clip-rule:nonzero;display:inline;overflow:visible;visibility:visible;opacity:1;isolation:auto;mix-blend-mode:normal;color-interpolation:sRGB;color-interpolation-filters:linearRGB;solid-color:#000000;solid-opacity:1;vector-effect:none;fill:#eaeae3;fill-opacity:1;fill-rule:nonzero;stroke:none;stroke-width:0.49318331;stroke-linecap:butt;stroke-linejoin:miter;stroke-miterlimit:0;stroke-dasharray:none;stroke-dashoffset:0;stroke-opacity:1;color-rendering:auto;image-rendering:auto;shape-rendering:auto;text-rendering:auto;enable-background:accumulate" />
  <rect
     style="opacity:1;fill:#000000;fill-opacity:0.37647059;stroke:none;stroke-width:0.32900417;stroke-linecap:round;stroke-linejoin:round;stroke-miterlimit:4;stroke-dasharray:none;stroke-dashoffset:0;stroke-opacity:1"
     id="rect9539"
     width="5.0270834"
     height="2.3812749"
     x="3.4395828"
     y="0.79502946"
     rx="1.1906375"
     ry="1.1906375" />
  <rect
     style="opacity:1;fill:#000000;fill-opacity:0.37647059;stroke:none;stroke-width:0.32900417;stroke-linecap:round;stroke-linejoin:round;stroke-miterlimit:4;stroke-dasharray:none;stroke-dashoffset:0;stroke-opacity:1"
     id="rect9561"
     width="5.0270834"
     height="2.3812749"
     x="3.4395828"
     y="97.367928"
     rx="1.1906375"
     ry="1.1906375" />
  <rect
     style="opacity:1;fill:#000000;fill-opacity:0.37647059;stroke:none;stroke-width:0.32900417;stroke-linecap:round;stroke-linejoin:round;stroke-miterlimit:4;stroke-dasharray:none;stroke-dashoffset:0;stroke-opacity:1"
     id="rect9583"
     width="5.0270834"
     height="2.3812749"
     x="11.377083"
     y="97.367928"
     rx="1.1906375"
     ry="1.1906375" />
  <rect
     style="opacity:1;fill:#000000;fill-opacity:0.37647059;stroke:none;stroke-width:0.32900417;stroke-linecap:round;stroke-linejoin:round;stroke-miterlimit:4;stroke-dasharray:none;stroke-dashoffset:0;stroke-opacity:1"
     id="rect9517"
     width="5.0270834"
     height="2.3812749"
     x="11.377083"
     y="0.79502946"
     rx="1.1906375"
     ry="1.1906375" />
</svg>
