<?xml version="1.0" encoding="UTF-8" standalone="no"?>
<!-- Created with Inkscape (http://www.inkscape.org/) -->

<svg
   xmlns:dc="http://purl.org/dc/elements/1.1/"
   xmlns:cc="http://creativecommons.org/ns#"
   xmlns:rdf="http://www.w3.org/1999/02/22-rdf-syntax-ns#"
   xmlns:svg="http://www.w3.org/2000/svg"
   xmlns="http://www.w3.org/2000/svg"
   xmlns:sodipodi="http://sodipodi.sourceforge.net/DTD/sodipodi-0.dtd"
   xmlns:inkscape="http://www.inkscape.org/namespaces/inkscape"
   width="45"
   height="380"
   viewBox="0 0 45 380"
   version="1.1"
   id="svg8"
   inkscape:version="0.92.3 (2405546, 2018-03-11)"
   sodipodi:docname="SRC.svg">
  <defs
     id="defs2">
    <clipPath
       clipPathUnits="userSpaceOnUse"
       id="clipPath1763">
      <path
         inkscape:connector-curvature="0"
         id="path1765"
         d="M 0,196.45831 H 23.8125 V 296.99999 H 0 Z"
         style="opacity:1;vector-effect:none;fill:#28220b;fill-opacity:1;fill-rule:evenodd;stroke:none;stroke-width:0.48607069;stroke-linecap:butt;stroke-linejoin:round;stroke-miterlimit:4;stroke-dasharray:none;stroke-dashoffset:0;stroke-opacity:1;paint-order:normal" />
    </clipPath>
    <clipPath
       clipPathUnits="userSpaceOnUse"
       id="clipPath3293">
      <path
         style="opacity:1;vector-effect:none;fill:#28220b;fill-opacity:1;fill-rule:evenodd;stroke:none;stroke-width:0.48607066;stroke-linecap:butt;stroke-linejoin:round;stroke-miterlimit:4;stroke-dasharray:none;stroke-dashoffset:0;stroke-opacity:1;paint-order:normal"
         d="M -1.5460537e-7,196.45831 H 19.843751 V 296.99999 H -1.5460537e-7 Z"
         id="path3295"
         inkscape:connector-curvature="0" />
    </clipPath>
  </defs>
  <sodipodi:namedview
     id="base"
     pagecolor="#ffffff"
     bordercolor="#666666"
     borderopacity="1.0"
     inkscape:pageopacity="0.0"
     inkscape:pageshadow="2"
     inkscape:zoom="16"
     inkscape:cx="10.036553"
     inkscape:cy="77.172167"
     inkscape:document-units="px"
     inkscape:current-layer="svg8"
     showgrid="false"
     units="px"
     inkscape:snap-bbox="true"
     inkscape:snap-page="true"
     inkscape:bbox-nodes="true"
     inkscape:snap-bbox-edge-midpoints="true"
     inkscape:window-width="2088"
     inkscape:window-height="1671"
     inkscape:window-x="1115"
     inkscape:window-y="255"
     inkscape:window-maximized="0"
     showguides="true"
     inkscape:guide-bbox="true"
     inkscape:snap-global="false">
    <inkscape:grid
       type="xygrid"
       id="grid985" />
  </sodipodi:namedview>
  <metadata
     id="metadata5">
    <rdf:RDF>
      <cc:Work
         rdf:about="">
        <dc:format>image/svg+xml</dc:format>
        <dc:type
           rdf:resource="http://purl.org/dc/dcmitype/StillImage" />
        <dc:title />
      </cc:Work>
    </rdf:RDF>
  </metadata>
  <path
     inkscape:export-ydpi="192"
     inkscape:export-xdpi="192"
     inkscape:connector-curvature="0"
     id="path11201"
     d="M 0,0 H 45 V 380 H 0 Z"
     style="opacity:1;fill:#202223;fill-opacity:1;stroke:none;stroke-width:1.99999988;stroke-linecap:round;stroke-linejoin:round;stroke-miterlimit:4;stroke-dasharray:none;stroke-dashoffset:0;stroke-opacity:0.58802819"
     sodipodi:nodetypes="ccccc" />
  <path
     inkscape:export-ydpi="192"
     inkscape:export-xdpi="192"
     inkscape:connector-curvature="0"
     id="path11205"
     d="m 27.39648,353.14648 c -1.47909,1.66132 -4.45034,4.73431 -9.05664,5.60352 l -0.004,-0.0137 c -1.10325,0.32619 -2.1809,0.54505 -2.99609,0.61719 -0.36405,0.0322 -0.64618,0.0252 -0.86524,0.006 0.36165,-0.29969 1.07798,-0.7228 1.98243,-1.1543 1.91376,-0.91304 4.39078,-1.82527 5.84765,-3.06836 l -0.0117,-0.0137 c 0.019,-0.0189 0.0596,-0.0277 0.0781,-0.0469 l -1.27539,-1.35742 c -0.47423,0.40465 -1.74986,0.93284 -2.75976,1.42187 -0.86741,0.31698 -1.78876,0.63299 -2.83789,0.87305 -2.60646,0.59642 -5.53028,0.83833 -7.31055,0.47266 l -0.375,1.82617 c 1.49114,0.30628 3.30065,0.20811 5.14453,-0.0234 -0.24682,0.25743 -0.50604,0.51523 -0.58203,0.94141 -0.0959,0.53762 0.17128,1.13357 0.54687,1.48437 0.3885,0.36304 0.80124,0.44227 1.21875,0.49414 0.41752,0.0519 0.86726,0.0439 1.36329,0 0.89246,-0.079 1.93474,-0.29731 3.00781,-0.5957 v 0.004 c 0.90735,-0.16015 1.67836,-0.47557 2.47265,-0.76367 l 0.59375,1.21289 c 1.01516,-0.40119 2.38162,-0.77624 3.63672,-0.8711 1.25511,-0.0949 2.34443,0.11227 2.94922,0.61133 l 1.1875,-1.4375 c -1.13905,-0.93993 -2.64102,-1.11276 -4.09765,-1.02539 1.34364,-1.19486 2.54636,-2.50362 3.48828,-3.91602 0.01,-0.0111 0.0371,-0.032 0.0469,-0.043 l -0.006,-0.004 c 0.025,-0.0378 0.0652,-0.0696 0.0898,-0.10742 z m 3.43164,0.50196 c -1.73314,2.15165 -1.3884,4.67345 0.0625,6.07031 1.45091,1.39686 3.88423,1.80101 5.92774,0.49219 l -1.03711,-1.6211 c -1.31649,0.84318 -2.73905,0.52933 -3.55664,-0.25781 -0.551,-0.53047 -0.6638,-1.2861 -0.4375,-2.1543 0.51332,0.57234 1.0865,1.06405 1.76172,1.38868 1.19423,0.57416 2.59764,0.6971 4.10351,0.39257 l -0.38086,-1.88671 c -1.18912,0.24047 -2.1189,0.12789 -2.88867,-0.24219 -0.76976,-0.37009 -1.41993,-1.02056 -1.95508,-2.0293 z"
     style="color:#000000;font-style:normal;font-variant:normal;font-weight:normal;font-stretch:normal;font-size:medium;line-height:normal;font-family:sans-serif;font-variant-ligatures:normal;font-variant-position:normal;font-variant-caps:normal;font-variant-numeric:normal;font-variant-alternates:normal;font-feature-settings:normal;text-indent:0;text-align:start;text-decoration:none;text-decoration-line:none;text-decoration-style:solid;text-decoration-color:#000000;letter-spacing:normal;word-spacing:normal;text-transform:none;writing-mode:lr-tb;direction:ltr;text-orientation:mixed;dominant-baseline:auto;baseline-shift:baseline;text-anchor:start;white-space:normal;shape-padding:0;clip-rule:nonzero;display:inline;overflow:visible;visibility:visible;opacity:1;isolation:auto;mix-blend-mode:normal;color-interpolation:sRGB;color-interpolation-filters:linearRGB;solid-color:#000000;solid-opacity:1;vector-effect:none;fill:#eaeae3;fill-opacity:1;fill-rule:nonzero;stroke:none;stroke-width:1.86399996;stroke-linecap:butt;stroke-linejoin:miter;stroke-miterlimit:0;stroke-dasharray:none;stroke-dashoffset:0;stroke-opacity:1;color-rendering:auto;image-rendering:auto;shape-rendering:auto;text-rendering:auto;enable-background:accumulate" />
  <g
     aria-label="SRC"
     style="font-style:normal;font-variant:normal;font-weight:normal;font-stretch:normal;font-size:11.94451904px;line-height:1.25;font-family:'Gotham Rounded';-inkscape-font-specification:'Gotham Rounded';letter-spacing:0px;word-spacing:0px;fill:#eaeae3;fill-opacity:1;stroke:none;stroke-width:0.94821429"
     id="text11209">
    <path
       d="m 13.935359,28.770049 c 1.803623,0 3.069742,-0.931672 3.069742,-2.59196 V 26.1542 c 0,-1.457232 -0.955562,-2.066402 -2.651684,-2.508349 -1.445286,-0.37028 -1.803622,-0.549448 -1.803622,-1.098896 v -0.02389 c 0,-0.406114 0.37028,-0.728616 1.075007,-0.728616 0.573337,0 1.146674,0.203057 1.755844,0.561393 0.143334,0.08361 0.286669,0.131389 0.465836,0.131389 0.477781,0 0.860006,-0.37028 0.860006,-0.84806 0,-0.358336 -0.203057,-0.609171 -0.406114,-0.728616 -0.752505,-0.477781 -1.636399,-0.74056 -2.651683,-0.74056 -1.708066,0 -2.926407,1.003339 -2.926407,2.520293 v 0.02389 c 0,1.660288 1.086951,2.126125 2.771128,2.556127 1.397509,0.358336 1.684177,0.597226 1.684177,1.063063 v 0.02389 c 0,0.489725 -0.453891,0.788338 -1.206396,0.788338 -0.812227,0 -1.50501,-0.286669 -2.138069,-0.752505 -0.119445,-0.08361 -0.286668,-0.167223 -0.525559,-0.167223 -0.477781,0 -0.860005,0.37028 -0.860005,0.848061 0,0.286668 0.143334,0.549448 0.346391,0.692782 0.931672,0.668893 2.042513,1.003339 3.141408,1.003339 z"
       style="font-style:normal;font-variant:normal;font-weight:normal;font-stretch:normal;font-family:'Gotham Rounded';-inkscape-font-specification:'Gotham Rounded';text-align:center;text-anchor:middle;fill:#eaeae3;fill-opacity:1;stroke-width:0.94821429"
       id="path991" />
    <path
       d="m 18.613132,27.802543 c 0,0.513615 0.406113,0.919728 0.919728,0.919728 0.513614,0 0.919728,-0.406113 0.919728,-0.919728 v -1.827511 h 1.469175 l 1.791678,2.269459 c 0.215002,0.274724 0.489726,0.47778 0.907784,0.47778 0.441947,0 0.87195,-0.334446 0.87195,-0.84806 0,-0.286669 -0.119446,-0.477781 -0.298613,-0.704727 l -1.278064,-1.552788 c 1.015284,-0.418058 1.672233,-1.230285 1.672233,-2.544182 v -0.02389 c 0,-0.788338 -0.250835,-1.445287 -0.716671,-1.911123 -0.549448,-0.549448 -1.37362,-0.848061 -2.436682,-0.848061 H 19.53286 c -0.513615,0 -0.919728,0.406114 -0.919728,0.919728 z m 1.839456,-3.451966 v -2.400848 h 1.827511 c 0.895839,0 1.445287,0.406114 1.445287,1.194452 v 0.02389 c 0,0.704727 -0.513615,1.182507 -1.409454,1.182507 z"
       style="font-style:normal;font-variant:normal;font-weight:normal;font-stretch:normal;font-family:'Gotham Rounded';-inkscape-font-specification:'Gotham Rounded';text-align:center;text-anchor:middle;fill:#eaeae3;fill-opacity:1;stroke-width:0.94821429"
       id="path993" />
    <path
       d="m 31.162715,28.793938 c 1.337787,0 2.221681,-0.394169 2.974186,-1.051117 0.167223,-0.143334 0.310557,-0.37028 0.310557,-0.656949 0,-0.465836 -0.394169,-0.848061 -0.860005,-0.848061 -0.215002,0 -0.406114,0.08361 -0.549448,0.203057 -0.525559,0.418058 -1.039173,0.656949 -1.815567,0.656949 -1.433342,0 -2.424737,-1.194452 -2.424737,-2.627794 v -0.02389 c 0,-1.433343 1.015284,-2.603906 2.424737,-2.603906 0.656949,0 1.194452,0.215002 1.708066,0.597226 0.13139,0.08361 0.298613,0.179168 0.549448,0.179168 0.50167,0 0.907784,-0.394169 0.907784,-0.895839 0,-0.322502 -0.167224,-0.585281 -0.358336,-0.728615 -0.692782,-0.513615 -1.540843,-0.848061 -2.795017,-0.848061 -2.568072,0 -4.35975,1.946956 -4.35975,4.323916 v 0.02389 c 0,2.400848 1.827511,4.300026 4.288082,4.300026 z"
       style="font-style:normal;font-variant:normal;font-weight:normal;font-stretch:normal;font-family:'Gotham Rounded';-inkscape-font-specification:'Gotham Rounded';text-align:center;text-anchor:middle;fill:#eaeae3;fill-opacity:1;stroke-width:0.94821429"
       id="path995" />
  </g>
  <rect
     style="opacity:1;fill:#000000;fill-opacity:0.37647059;stroke:none;stroke-width:1.24348032;stroke-linecap:round;stroke-linejoin:round;stroke-miterlimit:4;stroke-dasharray:none;stroke-dashoffset:0;stroke-opacity:1"
     id="rect11384"
     width="19"
     height="9.0000944"
     x="13"
     y="3.0047913"
     rx="4.5000472"
     ry="4.5000472" />
  <rect
     inkscape:export-ydpi="192"
     inkscape:export-xdpi="192"
     ry="2.6516504"
     rx="2.6516504"
     y="304.73596"
     x="7.9392395"
     height="43.215649"
     width="29.076094"
     id="rect11213"
     style="opacity:1;fill:#585a4e;fill-opacity:1;stroke:none;stroke-width:0.54100001;stroke-linecap:round;stroke-linejoin:round;stroke-miterlimit:0;stroke-dasharray:none;stroke-dashoffset:0;stroke-opacity:1" />
  <g
     aria-label="ON"
     style="font-style:normal;font-variant:normal;font-weight:300;font-stretch:normal;font-size:6.96164751px;line-height:1.25;font-family:'Gotham Rounded';-inkscape-font-specification:'Gotham Rounded Light';letter-spacing:0px;word-spacing:0px;fill:#eaeae3;fill-opacity:1;stroke:none;stroke-width:1.00001252"
     id="text11221">
    <path
       d="m 19.736244,236.99852 c 1.496755,0 2.554925,-1.14867 2.554925,-2.52012 v -0.0139 c 0,-1.37145 -1.044247,-2.5062 -2.541001,-2.5062 -1.496755,0 -2.554925,1.14868 -2.554925,2.52012 v 0.0139 c 0,1.37145 1.044247,2.5062 2.541001,2.5062 z m 0.01392,-0.79363 c -0.967669,0 -1.656872,-0.7797 -1.656872,-1.72649 v -0.0139 c 0,-0.94679 0.675279,-1.71953 1.642948,-1.71953 0.967669,0 1.656873,0.78667 1.656873,1.73345 v 0.0139 c 0,0.94679 -0.67528,1.71257 -1.642949,1.71257 z"
       style="font-style:normal;font-variant:normal;font-weight:300;font-stretch:normal;font-family:'Gotham Rounded';-inkscape-font-specification:'Gotham Rounded Light';text-align:center;text-anchor:middle;fill:#eaeae3;fill-opacity:1;stroke-width:1.00001252"
       id="path977" />
    <path
       d="m 23.325735,236.53209 c 0,0.22973 0.187965,0.4177 0.424661,0.4177 0.229734,0 0.417698,-0.18797 0.417698,-0.4177 v -3.09097 l 2.506194,3.24412 c 0.118348,0.15316 0.243657,0.25758 0.445545,0.25758 h 0.03481 c 0.236696,0 0.417699,-0.18796 0.417699,-0.42466 v -4.09344 c 0,-0.22974 -0.187964,-0.4177 -0.42466,-0.4177 -0.229735,0 -0.417699,0.18796 -0.417699,0.4177 v 2.9935 l -2.436577,-3.15362 c -0.118348,-0.1462 -0.236696,-0.25062 -0.445545,-0.25062 h -0.0905 c -0.243657,0 -0.431622,0.19492 -0.431622,0.43162 z"
       style="font-style:normal;font-variant:normal;font-weight:300;font-stretch:normal;font-family:'Gotham Rounded';-inkscape-font-specification:'Gotham Rounded Light';text-align:center;text-anchor:middle;fill:#eaeae3;fill-opacity:1;stroke-width:1.00001252"
       id="path979" />
  </g>
  <g
     aria-label="COARSE"
     style="font-style:normal;font-variant:normal;font-weight:300;font-stretch:normal;font-size:6.96164751px;line-height:1.25;font-family:'Gotham Rounded';-inkscape-font-specification:'Gotham Rounded Light';letter-spacing:0px;word-spacing:0px;fill:#eaeae3;fill-opacity:1;stroke:none;stroke-width:1.00001252"
     id="text11225">
    <path
       d="m 10.25086,95.998518 c 0.786667,0 1.30879,-0.25062 1.768259,-0.654395 0.07658,-0.06962 0.139233,-0.174041 0.139233,-0.306313 0,-0.215811 -0.187965,-0.396813 -0.403776,-0.396813 -0.104424,0 -0.194926,0.04177 -0.257581,0.09746 -0.355044,0.29935 -0.703126,0.46643 -1.218288,0.46643 -0.9328608,0 -1.6081406,-0.772743 -1.6081406,-1.726489 v -0.01392 c 0,-0.953746 0.6822414,-1.719527 1.6081406,-1.719527 0.46643,0 0.828436,0.16708 1.162595,0.438584 0.05569,0.04177 0.139233,0.08354 0.257581,0.08354 0.236696,0 0.424661,-0.181003 0.424661,-0.417699 0,-0.153156 -0.07658,-0.271504 -0.16708,-0.341121 -0.42466,-0.327197 -0.918937,-0.54997 -1.670795,-0.54997 -1.4758697,0 -2.5131551,1.134749 -2.5131551,2.520116 v 0.01392 c 0,1.399291 1.0581704,2.506193 2.4783461,2.506193 z"
       style="font-style:normal;font-variant:normal;font-weight:300;font-stretch:normal;font-family:'Gotham Rounded';-inkscape-font-specification:'Gotham Rounded Light';text-align:center;text-anchor:middle;fill:#eaeae3;fill-opacity:1;stroke-width:1.00001252"
       id="path964" />
    <path
       d="m 15.317199,95.998518 c 1.496754,0 2.554925,-1.148672 2.554925,-2.520117 v -0.01392 c 0,-1.371444 -1.044247,-2.506193 -2.541001,-2.506193 -1.496755,0 -2.554925,1.148672 -2.554925,2.520116 v 0.01392 c 0,1.371444 1.044247,2.506193 2.541001,2.506193 z m 0.01392,-0.793628 c -0.967669,0 -1.656873,-0.779705 -1.656873,-1.726489 v -0.01392 c 0,-0.946784 0.67528,-1.719527 1.642949,-1.719527 0.967669,0 1.656872,0.786666 1.656872,1.73345 v 0.01392 c 0,0.946784 -0.675279,1.712565 -1.642948,1.712565 z"
       style="font-style:normal;font-variant:normal;font-weight:300;font-stretch:normal;font-family:'Gotham Rounded';-inkscape-font-specification:'Gotham Rounded Light';text-align:center;text-anchor:middle;fill:#eaeae3;fill-opacity:1;stroke-width:1.00001252"
       id="path966" />
    <path
       d="m 18.368577,95.552972 c 0,0.222773 0.174041,0.396814 0.396814,0.396814 0.181002,0 0.327197,-0.09746 0.396813,-0.271504 l 0.410738,-0.939822 h 2.36696 l 0.396814,0.911975 c 0.07658,0.181003 0.215811,0.299351 0.417699,0.299351 0.229734,0 0.403775,-0.181003 0.403775,-0.410737 0,-0.05569 -0.01392,-0.118348 -0.04873,-0.181003 L 21.29943,91.320291 c -0.09746,-0.215811 -0.264542,-0.348083 -0.5082,-0.348083 h -0.04177 c -0.243658,0 -0.417699,0.132272 -0.515162,0.348083 l -1.810028,4.037755 c -0.03481,0.06962 -0.05569,0.132272 -0.05569,0.194926 z m 1.531562,-1.573332 0.856283,-1.970146 0.856282,1.970146 z"
       style="font-style:normal;font-variant:normal;font-weight:300;font-stretch:normal;font-family:'Gotham Rounded';-inkscape-font-specification:'Gotham Rounded Light';text-align:center;text-anchor:middle;fill:#eaeae3;fill-opacity:1;stroke-width:1.00001252"
       id="path968" />
    <path
       d="m 24.087135,95.525126 c 0,0.236696 0.187965,0.42466 0.431622,0.42466 0.236696,0 0.424661,-0.187964 0.424661,-0.42466 v -1.30879 h 1.079055 l 1.18348,1.510678 c 0.09746,0.132271 0.222773,0.222772 0.417699,0.222772 0.208849,0 0.410737,-0.160118 0.410737,-0.396814 0,-0.132271 -0.05569,-0.222772 -0.139233,-0.327197 l -0.93286,-1.176519 c 0.654394,-0.201887 1.106901,-0.675279 1.106901,-1.454984 v -0.01392 c 0,-0.424661 -0.146194,-0.786666 -0.403775,-1.051209 -0.313274,-0.306312 -0.793628,-0.487315 -1.406253,-0.487315 h -1.740412 c -0.243657,0 -0.431622,0.187964 -0.431622,0.431622 z m 0.856283,-2.06761 v -1.635987 h 1.246135 c 0.63351,0 1.009439,0.285428 1.009439,0.807551 v 0.01392 c 0,0.494277 -0.389853,0.814512 -1.002478,0.814512 z"
       style="font-style:normal;font-variant:normal;font-weight:300;font-stretch:normal;font-family:'Gotham Rounded';-inkscape-font-specification:'Gotham Rounded Light';text-align:center;text-anchor:middle;fill:#eaeae3;fill-opacity:1;stroke-width:1.00001252"
       id="path970" />
    <path
       d="m 30.823617,95.984595 c 1.023362,0 1.740412,-0.543009 1.740412,-1.454985 v -0.01392 c 0,-0.807551 -0.529086,-1.176519 -1.559409,-1.427138 -0.939823,-0.222773 -1.162595,-0.389852 -1.162595,-0.765781 v -0.01392 c 0,-0.320236 0.292389,-0.577817 0.793627,-0.577817 0.382891,0 0.744897,0.12531 1.120826,0.368967 0.06962,0.04177 0.139233,0.06265 0.222772,0.06265 0.222773,0 0.403776,-0.174041 0.403776,-0.396814 0,-0.167079 -0.0905,-0.285427 -0.187965,-0.341121 -0.438583,-0.292389 -0.93286,-0.452507 -1.545485,-0.452507 -0.967669,0 -1.663834,0.577817 -1.663834,1.413215 v 0.01392 c 0,0.898053 0.584778,1.204365 1.622064,1.454984 0.905014,0.20885 1.09994,0.396814 1.09994,0.744897 v 0.01392 c 0,0.362006 -0.334159,0.612625 -0.863244,0.612625 -0.529085,0 -0.960708,-0.181003 -1.364483,-0.501239 -0.05569,-0.04177 -0.132271,-0.07658 -0.250619,-0.07658 -0.222773,0 -0.403776,0.174041 -0.403776,0.396814 0,0.139233 0.06962,0.257581 0.16708,0.327198 0.543008,0.403775 1.169556,0.612625 1.830913,0.612625 z"
       style="font-style:normal;font-variant:normal;font-weight:300;font-stretch:normal;font-family:'Gotham Rounded';-inkscape-font-specification:'Gotham Rounded Light';text-align:center;text-anchor:middle;fill:#eaeae3;fill-opacity:1;stroke-width:1.00001252"
       id="path972" />
    <path
       d="m 34.00944,95.914978 h 2.868199 c 0.208849,0 0.38289,-0.16708 0.38289,-0.382891 0,-0.208849 -0.174041,-0.38289 -0.38289,-0.38289 H 34.4341 v -1.30879 h 2.095456 c 0.20885,0 0.382891,-0.167079 0.382891,-0.375929 0,-0.215811 -0.174041,-0.389852 -0.382891,-0.389852 H 34.4341 v -1.26702 h 2.40873 c 0.20885,0 0.382891,-0.16708 0.382891,-0.382891 0,-0.208849 -0.174041,-0.38289 -0.382891,-0.38289 h -2.83339 c -0.243658,0 -0.431622,0.187964 -0.431622,0.431622 v 4.009909 c 0,0.243658 0.187964,0.431622 0.431622,0.431622 z"
       style="font-style:normal;font-variant:normal;font-weight:300;font-stretch:normal;font-family:'Gotham Rounded';-inkscape-font-specification:'Gotham Rounded Light';text-align:center;text-anchor:middle;fill:#eaeae3;fill-opacity:1;stroke-width:1.00001252"
       id="path974" />
  </g>
  <path
     inkscape:export-ydpi="192"
     inkscape:export-xdpi="192"
     inkscape:transform-center-y="-8.1252193"
     sodipodi:nodetypes="cc"
     inkscape:connector-curvature="0"
     id="path11229"
     d="M 22.5,118.3212 V 102.07076"
     style="fill:none;stroke:#8a8a76;stroke-width:0.69999999;stroke-linecap:butt;stroke-linejoin:miter;stroke-miterlimit:4;stroke-dasharray:none;stroke-opacity:1" />
  <path
     inkscape:export-ydpi="192"
     inkscape:export-xdpi="192"
     sodipodi:nodetypes="ccccccccc"
     inkscape:connector-curvature="0"
     id="path11231"
     d="m 34.15234,107.10156 c -0.0705,-0.0736 -0.13319,-0.15431 -0.20507,-0.22656 -2.97826,-2.97748 -6.9998,-4.67717 -11.21094,-4.73828 -4.37491,-0.0642 -8.58952,1.64499 -11.6836,4.73828 -0.0719,0.0722 -0.13456,0.15299 -0.20507,0.22656 m -4.51954,10.78321 c -0.12129,4.42517 1.57328,8.72635 4.72461,11.88085 m 22.89454,0 c 3.15129,-3.15454 4.84599,-7.45562 4.72461,-11.88085"
     style="opacity:1;fill:none;fill-opacity:1;stroke:#8a8a76;stroke-width:0.60000002;stroke-linecap:round;stroke-linejoin:round;stroke-miterlimit:4;stroke-dasharray:none;stroke-dashoffset:0;stroke-opacity:1" />
  <path
     inkscape:export-ydpi="192"
     inkscape:export-xdpi="192"
     sodipodi:nodetypes="cc"
     inkscape:connector-curvature="0"
     id="path11233"
     d="M 22.5,118.3212 9.54017,131.27045"
     style="fill:none;stroke:#8a8a76;stroke-width:0.69999999;stroke-linecap:butt;stroke-linejoin:miter;stroke-miterlimit:4;stroke-dasharray:none;stroke-opacity:1"
     inkscape:transform-center-y="14.637335"
     inkscape:transform-center-x="14.637333" />
  <path
     inkscape:export-ydpi="192"
     inkscape:export-xdpi="192"
     inkscape:transform-center-x="-14.637336"
     inkscape:transform-center-y="14.637335"
     style="fill:none;stroke:#8a8a76;stroke-width:0.69999999;stroke-linecap:butt;stroke-linejoin:miter;stroke-miterlimit:4;stroke-dasharray:none;stroke-opacity:1"
     d="m 22.5,118.3212 12.95984,12.94925"
     id="path11235"
     inkscape:connector-curvature="0"
     sodipodi:nodetypes="cc" />
  <g
     aria-label="V"
     style="font-style:normal;font-variant:normal;font-weight:300;font-stretch:normal;font-size:9.96307564px;line-height:1.25;font-family:'Gotham Rounded';-inkscape-font-specification:'Gotham Rounded Light';letter-spacing:0px;word-spacing:0px;fill:#eaeae3;fill-opacity:1;stroke:none;stroke-width:1.00001252"
     id="text11261">
    <path
       d="m 17.1693,48.184653 h 0.06974 c 0.348707,0 0.577858,-0.189299 0.707378,-0.498154 l 2.450917,-5.778584 c 0.02989,-0.06974 0.05978,-0.169372 0.05978,-0.25904 0,-0.328781 -0.269003,-0.587821 -0.607747,-0.587821 -0.28893,0 -0.508117,0.189298 -0.587822,0.398523 l -2.04243,5.071205 -2.012542,-5.031353 c -0.09963,-0.25904 -0.308855,-0.438375 -0.627673,-0.438375 -0.348708,0 -0.617711,0.269003 -0.617711,0.597784 0,0.109594 0.02989,0.199262 0.06974,0.288929 l 2.440954,5.738732 c 0.12952,0.308855 0.358671,0.498154 0.697415,0.498154 z"
       style="fill:#eaeae3;fill-opacity:1;stroke-width:1.00001252"
       id="path961" />
  </g>
  <g
     aria-label="-10"
     style="font-style:normal;font-variant:normal;font-weight:300;font-stretch:normal;font-size:6.96164751px;line-height:1.25;font-family:'Gotham Rounded';-inkscape-font-specification:'Gotham Rounded Light';letter-spacing:0px;word-spacing:0px;fill:#eaeae3;fill-opacity:1;stroke:none;stroke-width:1.00001252"
     id="text11265">
    <path
       d="m 6.0329489,137.19545 h 1.3087897 c 0.2227728,0 0.4107372,-0.18796 0.4107372,-0.41074 0,-0.22973 -0.1879644,-0.41769 -0.4107372,-0.41769 H 6.0329489 c -0.2227727,0 -0.4107372,0.18796 -0.4107372,0.41769 0,0.22278 0.1879645,0.41074 0.4107372,0.41074 z"
       style="font-style:normal;font-variant:normal;font-weight:300;font-stretch:normal;font-family:'Gotham Rounded';-inkscape-font-specification:'Gotham Rounded Light';text-align:center;text-anchor:middle;fill:#eaeae3;fill-opacity:1;stroke-width:1.00001252"
       id="path954" />
    <path
       d="m 9.1441526,138.52513 c 0,0.23669 0.1949261,0.42466 0.4246605,0.42466 0.236696,0 0.4246605,-0.18797 0.4246605,-0.42466 v -4.1213 c 0,-0.2367 -0.1810028,-0.42466 -0.4246605,-0.42466 h -0.013923 c -0.1253096,0 -0.2506193,0.0279 -0.4176988,0.0766 l -0.7379347,0.23669 c -0.1740412,0.0487 -0.2854275,0.18797 -0.2854275,0.36897 0,0.19493 0.1740412,0.36201 0.3759289,0.36201 0.04177,0 0.1044248,-0.007 0.1531563,-0.0209 l 0.5012386,-0.15315 z"
       style="font-style:normal;font-variant:normal;font-weight:300;font-stretch:normal;font-family:'Gotham Rounded';-inkscape-font-specification:'Gotham Rounded Light';text-align:center;text-anchor:middle;fill:#eaeae3;fill-opacity:1;stroke-width:1.00001252"
       id="path956" />
    <path
       d="m 13.178318,138.99852 c 1.280944,0 2.130265,-1.12779 2.130265,-2.52012 v -0.0139 c 0,-1.39233 -0.84236,-2.5062 -2.116341,-2.5062 -1.280943,0 -2.130264,1.12779 -2.130264,2.52012 v 0.0139 c 0,1.39233 0.835397,2.5062 2.11634,2.5062 z m 0.01392,-0.77275 c -0.75882,0 -1.246135,-0.78666 -1.246135,-1.74737 v -0.0139 c 0,-0.96767 0.480353,-1.73345 1.232211,-1.73345 0.751858,0 1.246135,0.78666 1.246135,1.74737 v 0.0139 c 0,0.95375 -0.473392,1.73345 -1.232211,1.73345 z"
       style="font-style:normal;font-variant:normal;font-weight:300;font-stretch:normal;font-family:'Gotham Rounded';-inkscape-font-specification:'Gotham Rounded Light';text-align:center;text-anchor:middle;fill:#eaeae3;fill-opacity:1;stroke-width:1.00001252"
       id="path958" />
  </g>
  <g
     aria-label="+10"
     style="font-style:normal;font-variant:normal;font-weight:300;font-stretch:normal;font-size:6.96164751px;line-height:1.25;font-family:'Gotham Rounded';-inkscape-font-specification:'Gotham Rounded Light';letter-spacing:0px;word-spacing:0px;fill:#eaeae3;fill-opacity:1;stroke:none;stroke-width:1.00001252"
     id="text11269">
    <path
       d="m 30.186595,137.81504 c 0,0.22277 0.174041,0.39681 0.396814,0.39681 0.215811,0 0.396813,-0.17404 0.396813,-0.39681 v -0.96767 h 0.988554 c 0.20885,0 0.382891,-0.16708 0.382891,-0.38289 0,-0.20885 -0.174041,-0.38289 -0.382891,-0.38289 h -0.988554 v -0.96767 c 0,-0.22277 -0.181002,-0.39682 -0.396813,-0.39682 -0.222773,0 -0.396814,0.17405 -0.396814,0.39682 v 0.96767 h -0.988554 c -0.20885,0 -0.382891,0.17404 -0.382891,0.38289 0,0.21581 0.174041,0.38289 0.382891,0.38289 h 0.988554 z"
       style="font-style:normal;font-variant:normal;font-weight:300;font-stretch:normal;font-family:'Gotham Rounded';-inkscape-font-specification:'Gotham Rounded Light';text-align:center;text-anchor:middle;fill:#eaeae3;fill-opacity:1;stroke-width:1.00001252"
       id="path947" />
    <path
       d="m 34.034754,138.52513 c 0,0.23669 0.194926,0.42466 0.424661,0.42466 0.236696,0 0.42466,-0.18797 0.42466,-0.42466 v -4.1213 c 0,-0.2367 -0.181003,-0.42466 -0.42466,-0.42466 h -0.01392 c -0.125309,0 -0.250619,0.0279 -0.417699,0.0766 l -0.737934,0.23669 c -0.174041,0.0487 -0.285428,0.18797 -0.285428,0.36897 0,0.19493 0.174041,0.36201 0.375929,0.36201 0.04177,0 0.104425,-0.007 0.153156,-0.0209 l 0.501239,-0.15315 z"
       style="font-style:normal;font-variant:normal;font-weight:300;font-stretch:normal;font-family:'Gotham Rounded';-inkscape-font-specification:'Gotham Rounded Light';text-align:center;text-anchor:middle;fill:#eaeae3;fill-opacity:1;stroke-width:1.00001252"
       id="path949" />
    <path
       d="m 38.06892,138.99852 c 1.280943,0 2.130264,-1.12779 2.130264,-2.52012 v -0.0139 c 0,-1.39233 -0.842359,-2.5062 -2.11634,-2.5062 -1.280944,0 -2.130265,1.12779 -2.130265,2.52012 v 0.0139 c 0,1.39233 0.835398,2.5062 2.116341,2.5062 z m 0.01392,-0.77275 c -0.75882,0 -1.246135,-0.78666 -1.246135,-1.74737 v -0.0139 c 0,-0.96767 0.480353,-1.73345 1.232211,-1.73345 0.751858,0 1.246135,0.78666 1.246135,1.74737 v 0.0139 c 0,0.95375 -0.473392,1.73345 -1.232211,1.73345 z"
       style="font-style:normal;font-variant:normal;font-weight:300;font-stretch:normal;font-family:'Gotham Rounded';-inkscape-font-specification:'Gotham Rounded Light';text-align:center;text-anchor:middle;fill:#eaeae3;fill-opacity:1;stroke-width:1.00001252"
       id="path951" />
  </g>
  <g
     aria-label="5"
     style="font-style:normal;font-variant:normal;font-weight:300;font-stretch:normal;font-size:6.96164751px;line-height:1.25;font-family:'Gotham Rounded';-inkscape-font-specification:'Gotham Rounded Light';letter-spacing:0px;word-spacing:0px;fill:#eaeae3;fill-opacity:1;stroke:none;stroke-width:1.00001252"
     id="text11273">
    <path
       d="m 38.463874,114.05919 c 1.044248,0 1.782182,-0.66136 1.782182,-1.64991 v -0.0139 c 0,-1.03032 -0.744896,-1.53156 -1.698642,-1.53156 -0.327197,0 -0.543008,0.0557 -0.772743,0.13923 l 0.07658,-1.14171 h 1.830914 c 0.208849,0 0.38289,-0.16708 0.38289,-0.37593 0,-0.20885 -0.174041,-0.38289 -0.38289,-0.38289 H 37.47532 c -0.208849,0 -0.375929,0.16012 -0.389852,0.38289 l -0.104425,1.75434 c -0.007,0.16012 0.04177,0.28543 0.16708,0.37593 0.16708,0.11835 0.271504,0.16708 0.403776,0.16708 0.132271,0 0.362005,-0.16708 0.835397,-0.16708 0.59174,0 1.009439,0.30631 1.009439,0.80755 v 0.0139 c 0,0.51516 -0.396814,0.84236 -0.946784,0.84236 -0.382891,0 -0.724011,-0.13923 -1.05817,-0.41073 -0.06962,-0.0557 -0.146195,-0.0835 -0.25062,-0.0835 -0.222772,0 -0.410737,0.18796 -0.410737,0.41073 0,0.13924 0.06962,0.25062 0.174041,0.33416 0.396814,0.30631 0.898053,0.52909 1.559409,0.52909 z"
       style="font-style:normal;font-variant:normal;font-weight:300;font-stretch:normal;font-family:'Gotham Rounded';-inkscape-font-specification:'Gotham Rounded Light';text-align:center;text-anchor:middle;fill:#eaeae3;fill-opacity:1;stroke-width:1.00001252"
       id="path944" />
  </g>
  <g
     aria-label="5"
     style="font-style:normal;font-variant:normal;font-weight:300;font-stretch:normal;font-size:6.96164751px;line-height:1.25;font-family:'Gotham Rounded';-inkscape-font-specification:'Gotham Rounded Light';letter-spacing:0px;word-spacing:0px;fill:#eaeae3;fill-opacity:1;stroke:none;stroke-width:1.00001252"
     id="text11277">
    <path
       d="m 6.4638744,114.05919 c 1.0442471,0 1.7821818,-0.66136 1.7821818,-1.64991 v -0.0139 c 0,-1.03032 -0.7448963,-1.53156 -1.698642,-1.53156 -0.3271975,0 -0.5430085,0.0557 -0.7727429,0.13923 l 0.076578,-1.14171 h 1.8309133 c 0.2088494,0 0.3828906,-0.16708 0.3828906,-0.37593 0,-0.20885 -0.1740412,-0.38289 -0.3828906,-0.38289 H 5.4753204 c -0.2088494,0 -0.3759289,0.16012 -0.3898522,0.38289 l -0.1044247,1.75434 c -0.00696,0.16012 0.04177,0.28543 0.1670795,0.37593 0.1670796,0.11835 0.2715043,0.16708 0.4037756,0.16708 0.1322713,0 0.3620056,-0.16708 0.8353977,-0.16708 0.59174,0 1.0094389,0.30631 1.0094389,0.80755 v 0.0139 c 0,0.51516 -0.396814,0.84236 -0.9467841,0.84236 -0.3828906,0 -0.7240113,-0.13923 -1.0581704,-0.41073 -0.069617,-0.0557 -0.1461946,-0.0835 -0.2506193,-0.0835 -0.2227728,0 -0.4107372,0.18796 -0.4107372,0.41073 0,0.13924 0.069616,0.25062 0.1740411,0.33416 0.396814,0.30631 0.8980526,0.52909 1.5594091,0.52909 z"
       style="font-style:normal;font-variant:normal;font-weight:300;font-stretch:normal;font-family:'Gotham Rounded';-inkscape-font-specification:'Gotham Rounded Light';text-align:center;text-anchor:middle;fill:#eaeae3;fill-opacity:1;stroke-width:1.00001252"
       id="path941" />
  </g>
  <g
     aria-label="FINE"
     style="font-style:normal;font-variant:normal;font-weight:300;font-stretch:normal;font-size:6.96164751px;line-height:1.25;font-family:'Gotham Rounded';-inkscape-font-specification:'Gotham Rounded Light';letter-spacing:0px;word-spacing:0px;fill:#eaeae3;fill-opacity:1;stroke:none;stroke-width:1.00001252"
     id="text11281">
    <path
       d="m 14.650839,151.52513 c 0,0.23669 0.187965,0.42466 0.431622,0.42466 0.236696,0 0.424661,-0.18797 0.424661,-0.42466 v -1.59422 h 2.102417 c 0.215811,0 0.389853,-0.17404 0.389853,-0.38985 0,-0.21581 -0.174042,-0.38986 -0.389853,-0.38986 h -2.102417 v -1.32967 h 2.415691 c 0.215812,0 0.389853,-0.17404 0.389853,-0.38985 0,-0.21581 -0.174041,-0.38986 -0.389853,-0.38986 h -2.840352 c -0.243657,0 -0.431622,0.18797 -0.431622,0.43163 z"
       style="font-style:normal;font-variant:normal;font-weight:300;font-stretch:normal;font-family:'Gotham Rounded';-inkscape-font-specification:'Gotham Rounded Light';text-align:center;text-anchor:middle;fill:#eaeae3;fill-opacity:1;stroke-width:1.00001252"
       id="path932" />
    <path
       d="m 19.268152,151.52513 c 0,0.23669 0.187964,0.42466 0.431622,0.42466 0.236696,0 0.42466,-0.18797 0.42466,-0.42466 v -4.09345 c 0,-0.2367 -0.187964,-0.42466 -0.42466,-0.42466 -0.243658,0 -0.431622,0.18796 -0.431622,0.42466 z"
       style="font-style:normal;font-variant:normal;font-weight:300;font-stretch:normal;font-family:'Gotham Rounded';-inkscape-font-specification:'Gotham Rounded Light';text-align:center;text-anchor:middle;fill:#eaeae3;fill-opacity:1;stroke-width:1.00001252"
       id="path934" />
    <path
       d="m 21.422129,151.53209 c 0,0.22973 0.187964,0.4177 0.42466,0.4177 0.229735,0 0.417699,-0.18797 0.417699,-0.4177 v -3.09097 l 2.506193,3.24412 c 0.118348,0.15316 0.243658,0.25758 0.445546,0.25758 h 0.03481 c 0.236696,0 0.417699,-0.18796 0.417699,-0.42466 v -4.09344 c 0,-0.22974 -0.187965,-0.4177 -0.424661,-0.4177 -0.229734,0 -0.417698,0.18796 -0.417698,0.4177 v 2.9935 l -2.436577,-3.15362 c -0.118348,-0.1462 -0.236696,-0.25062 -0.445545,-0.25062 h -0.0905 c -0.243658,0 -0.431622,0.19492 -0.431622,0.43162 z"
       style="font-style:normal;font-variant:normal;font-weight:300;font-stretch:normal;font-family:'Gotham Rounded';-inkscape-font-specification:'Gotham Rounded Light';text-align:center;text-anchor:middle;fill:#eaeae3;fill-opacity:1;stroke-width:1.00001252"
       id="path936" />
    <path
       d="m 27.346927,151.91498 h 2.868198 c 0.20885,0 0.382891,-0.16708 0.382891,-0.38289 0,-0.20885 -0.174041,-0.38289 -0.382891,-0.38289 h -2.443538 v -1.30879 h 2.095456 c 0.208849,0 0.382891,-0.16708 0.382891,-0.37593 0,-0.21581 -0.174042,-0.38985 -0.382891,-0.38985 h -2.095456 v -1.26702 h 2.40873 c 0.20885,0 0.382891,-0.16708 0.382891,-0.38289 0,-0.20885 -0.174041,-0.3829 -0.382891,-0.3829 h -2.83339 c -0.243658,0 -0.431623,0.18797 -0.431623,0.43163 v 4.00991 c 0,0.24365 0.187965,0.43162 0.431623,0.43162 z"
       style="font-style:normal;font-variant:normal;font-weight:300;font-stretch:normal;font-family:'Gotham Rounded';-inkscape-font-specification:'Gotham Rounded Light';text-align:center;text-anchor:middle;fill:#eaeae3;fill-opacity:1;stroke-width:1.00001252"
       id="path938" />
  </g>
  <path
     inkscape:export-ydpi="192"
     inkscape:export-xdpi="192"
     style="fill:none;stroke:#8a8a76;stroke-width:0.69999999;stroke-linecap:butt;stroke-linejoin:miter;stroke-miterlimit:4;stroke-dasharray:none;stroke-opacity:1"
     d="M 22.5,280 V 260"
     id="path11283"
     inkscape:connector-curvature="0" />
  <path
     inkscape:export-ydpi="192"
     inkscape:export-xdpi="192"
     sodipodi:nodetypes="cccc"
     inkscape:connector-curvature="0"
     id="path11287"
     d="m 11.94141,157.76758 c -5.8345,5.83298 -5.8345,15.29006 0,21.12304 m 21.1289,0 c 5.8345,-5.83298 5.8345,-15.29006 0,-21.12304"
     style="opacity:1;fill:none;fill-opacity:1;stroke:#8a8a76;stroke-width:0.60000002;stroke-linecap:round;stroke-linejoin:round;stroke-miterlimit:4;stroke-dasharray:none;stroke-dashoffset:0;stroke-opacity:1" />
  <path
     inkscape:export-ydpi="192"
     inkscape:export-xdpi="192"
     sodipodi:nodetypes="cc"
     inkscape:connector-curvature="0"
     id="path11289"
     d="M 22.5061,168.32843 10.54511,180.27782"
     style="fill:none;stroke:#8a8a76;stroke-width:0.69999999;stroke-linecap:butt;stroke-linejoin:miter;stroke-miterlimit:4;stroke-dasharray:none;stroke-opacity:1"
     inkscape:transform-center-y="14.637335"
     inkscape:transform-center-x="14.637333" />
  <path
     inkscape:export-ydpi="192"
     inkscape:export-xdpi="192"
     inkscape:transform-center-x="-14.637336"
     inkscape:transform-center-y="14.637335"
     style="fill:none;stroke:#8a8a76;stroke-width:0.69999999;stroke-linecap:butt;stroke-linejoin:miter;stroke-miterlimit:4;stroke-dasharray:none;stroke-opacity:1"
     d="m 22.5061,168.32843 11.96099,11.94939"
     id="path11291"
     inkscape:connector-curvature="0"
     sodipodi:nodetypes="cc" />
  <g
     aria-label="CV"
     style="font-style:normal;font-variant:normal;font-weight:300;font-stretch:normal;font-size:6.96164751px;line-height:1.25;font-family:'Gotham Rounded';-inkscape-font-specification:'Gotham Rounded Light';letter-spacing:0px;word-spacing:0px;fill:#eaeae3;fill-opacity:1;stroke:none;stroke-width:1.00001252"
     id="text11309">
    <path
       d="m 20.258259,194.99852 c 0.786666,0 1.30879,-0.25062 1.768259,-0.6544 0.07658,-0.0696 0.139233,-0.17404 0.139233,-0.30631 0,-0.21581 -0.187965,-0.39681 -0.403776,-0.39681 -0.104425,0 -0.194926,0.0418 -0.257581,0.0975 -0.355044,0.29935 -0.703126,0.46643 -1.218288,0.46643 -0.932861,0 -1.608141,-0.77274 -1.608141,-1.72649 v -0.0139 c 0,-0.95375 0.682242,-1.71953 1.608141,-1.71953 0.46643,0 0.828436,0.16708 1.162595,0.43858 0.05569,0.0418 0.139233,0.0835 0.257581,0.0835 0.236696,0 0.42466,-0.181 0.42466,-0.41769 0,-0.15316 -0.07658,-0.27151 -0.167079,-0.34112 -0.424661,-0.3272 -0.918938,-0.54998 -1.670796,-0.54998 -1.475869,0 -2.513154,1.13475 -2.513154,2.52012 v 0.0139 c 0,1.3993 1.05817,2.5062 2.478346,2.5062 z"
       style="font-style:normal;font-variant:normal;font-weight:300;font-stretch:normal;font-family:'Gotham Rounded';-inkscape-font-specification:'Gotham Rounded Light';text-align:center;text-anchor:middle;fill:#eaeae3;fill-opacity:1;stroke-width:1.00001252"
       id="path927" />
    <path
       d="m 25.035907,194.98459 h 0.04873 c 0.243657,0 0.403775,-0.13227 0.494277,-0.34808 l 1.712565,-4.03775 c 0.02088,-0.0487 0.04177,-0.11835 0.04177,-0.18101 0,-0.22973 -0.187965,-0.41073 -0.424661,-0.41073 -0.201887,0 -0.355044,0.13227 -0.410737,0.27846 l -1.427138,3.54348 -1.406252,-3.51563 c -0.06962,-0.181 -0.215811,-0.30631 -0.438584,-0.30631 -0.243658,0 -0.431622,0.18796 -0.431622,0.4177 0,0.0766 0.02088,0.13923 0.04873,0.20188 l 1.705604,4.00991 c 0.0905,0.21581 0.250619,0.34808 0.487315,0.34808 z"
       style="font-style:normal;font-variant:normal;font-weight:300;font-stretch:normal;font-family:'Gotham Rounded';-inkscape-font-specification:'Gotham Rounded Light';text-align:center;text-anchor:middle;fill:#eaeae3;fill-opacity:1;stroke-width:1.00001252"
       id="path929" />
  </g>
  <rect
     style="opacity:1;fill:#000000;fill-opacity:0.37647059;stroke:none;stroke-width:1.24348032;stroke-linecap:round;stroke-linejoin:round;stroke-miterlimit:4;stroke-dasharray:none;stroke-dashoffset:0;stroke-opacity:1"
     id="rect11406"
     width="19"
     height="9.0000944"
     x="13"
     y="368.00476"
     rx="4.5000472"
     ry="4.5000472" />
  <g
     aria-label="OUT"
     style="font-style:normal;font-variant:normal;font-weight:300;font-stretch:normal;font-size:6.55224657px;line-height:1.25;font-family:'Gotham Rounded';-inkscape-font-specification:'Gotham Rounded Light';letter-spacing:0px;word-spacing:0px;fill:#ffffff;fill-opacity:1;stroke:#ffffff;stroke-width:0.10001242;stroke-miterlimit:4;stroke-dasharray:none;stroke-opacity:1"
     id="text6624">
    <path
       d="m 17.584395,314.97178 c 1.408733,0 2.404675,-1.08112 2.404675,-2.37191 v -0.0131 c 0,-1.2908 -0.982837,-2.35881 -2.39157,-2.35881 -1.408733,0 -2.404675,1.08112 -2.404675,2.37191 v 0.0131 c 0,1.29079 0.982837,2.3588 2.39157,2.3588 z m 0.0131,-0.74695 c -0.910762,0 -1.559435,-0.73385 -1.559435,-1.62496 v -0.0131 c 0,-0.89111 0.635568,-1.61841 1.54633,-1.61841 0.910763,0 1.559435,0.74041 1.559435,1.63151 v 0.0131 c 0,0.8911 -0.635568,1.61185 -1.54633,1.61185 z"
       style="font-style:normal;font-variant:normal;font-weight:300;font-stretch:normal;font-family:'Gotham Rounded';-inkscape-font-specification:'Gotham Rounded Light';text-align:center;text-anchor:middle;fill:#ffffff;fill-opacity:1;stroke:#ffffff;stroke-width:0.10001242;stroke-miterlimit:4;stroke-dasharray:none;stroke-opacity:1"
       id="path4709"
       inkscape:connector-curvature="0" />
    <path
       d="m 22.84329,314.96523 c 1.199061,0 1.972226,-0.68798 1.972226,-2.0574 v -2.23432 c 0,-0.22278 -0.17691,-0.39969 -0.399687,-0.39969 -0.229328,0 -0.406239,0.17691 -0.406239,0.39969 v 2.27363 c 0,0.84524 -0.439001,1.27114 -1.153195,1.27114 -0.720748,0 -1.159748,-0.45211 -1.159748,-1.3039 v -2.24087 c 0,-0.22278 -0.176911,-0.39969 -0.399687,-0.39969 -0.229329,0 -0.406239,0.17691 -0.406239,0.39969 v 2.27363 c 0,1.33011 0.76006,2.01809 1.952569,2.01809 z"
       style="font-style:normal;font-variant:normal;font-weight:300;font-stretch:normal;font-family:'Gotham Rounded';-inkscape-font-specification:'Gotham Rounded Light';text-align:center;text-anchor:middle;fill:#ffffff;fill-opacity:1;stroke:#ffffff;stroke-width:0.10001242;stroke-miterlimit:4;stroke-dasharray:none;stroke-opacity:1"
       id="path4711"
       inkscape:connector-curvature="0" />
    <path
       d="m 27.055156,314.52623 c 0,0.22278 0.183463,0.39969 0.406239,0.39969 0.222777,0 0.40624,-0.17691 0.40624,-0.39969 v -3.47269 h 1.120434 c 0.20312,0 0.366926,-0.17036 0.366926,-0.37348 0,-0.20312 -0.163806,-0.37347 -0.366926,-0.37347 h -3.046795 c -0.209672,0 -0.373478,0.17035 -0.373478,0.37347 0,0.20312 0.163806,0.37348 0.373478,0.37348 h 1.113882 z"
       style="font-style:normal;font-variant:normal;font-weight:300;font-stretch:normal;font-family:'Gotham Rounded';-inkscape-font-specification:'Gotham Rounded Light';text-align:center;text-anchor:middle;fill:#ffffff;fill-opacity:1;stroke:#ffffff;stroke-width:0.10001242;stroke-miterlimit:4;stroke-dasharray:none;stroke-opacity:1"
       id="path4713"
       inkscape:connector-curvature="0" />
  </g>
</svg>
