<?xml version="1.0" encoding="UTF-8" standalone="no"?>
<!-- Created with Inkscape (http://www.inkscape.org/) -->

<svg
   xmlns:dc="http://purl.org/dc/elements/1.1/"
   xmlns:cc="http://creativecommons.org/ns#"
   xmlns:rdf="http://www.w3.org/1999/02/22-rdf-syntax-ns#"
   xmlns:svg="http://www.w3.org/2000/svg"
   xmlns="http://www.w3.org/2000/svg"
   xmlns:sodipodi="http://sodipodi.sourceforge.net/DTD/sodipodi-0.dtd"
   xmlns:inkscape="http://www.inkscape.org/namespaces/inkscape"
   width="45"
   height="380"
   viewBox="0 0 45 380"
   version="1.1"
   id="svg8"
   inkscape:version="0.92.3 (2405546, 2018-03-11)"
   sodipodi:docname="SRC.svg">
  <defs
     id="defs2">
    <clipPath
       clipPathUnits="userSpaceOnUse"
       id="clipPath1763">
      <path
         inkscape:connector-curvature="0"
         id="path1765"
         d="M 0,196.45831 H 23.8125 V 296.99999 H 0 Z"
         style="opacity:1;vector-effect:none;fill:#28220b;fill-opacity:1;fill-rule:evenodd;stroke:none;stroke-width:0.48607069;stroke-linecap:butt;stroke-linejoin:round;stroke-miterlimit:4;stroke-dasharray:none;stroke-dashoffset:0;stroke-opacity:1;paint-order:normal" />
    </clipPath>
    <clipPath
       clipPathUnits="userSpaceOnUse"
       id="clipPath3293">
      <path
         style="opacity:1;vector-effect:none;fill:#28220b;fill-opacity:1;fill-rule:evenodd;stroke:none;stroke-width:0.48607066;stroke-linecap:butt;stroke-linejoin:round;stroke-miterlimit:4;stroke-dasharray:none;stroke-dashoffset:0;stroke-opacity:1;paint-order:normal"
         d="M -1.5460537e-7,196.45831 H 19.843751 V 296.99999 H -1.5460537e-7 Z"
         id="path3295"
         inkscape:connector-curvature="0" />
    </clipPath>
  </defs>
  <sodipodi:namedview
     id="base"
     pagecolor="#ffffff"
     bordercolor="#666666"
     borderopacity="1.0"
     inkscape:pageopacity="0.0"
     inkscape:pageshadow="2"
     inkscape:zoom="2.8284271"
     inkscape:cx="30.447719"
     inkscape:cy="178.36149"
     inkscape:document-units="px"
     inkscape:current-layer="svg8"
     showgrid="false"
     units="px"
     inkscape:snap-bbox="true"
     inkscape:snap-page="true"
     inkscape:bbox-nodes="true"
     inkscape:snap-bbox-edge-midpoints="true"
     inkscape:window-width="2088"
     inkscape:window-height="1671"
     inkscape:window-x="1115"
     inkscape:window-y="255"
     inkscape:window-maximized="0"
     showguides="true"
     inkscape:guide-bbox="true"
     inkscape:snap-global="false">
    <inkscape:grid
       type="xygrid"
       id="grid985" />
  </sodipodi:namedview>
  <metadata
     id="metadata5">
    <rdf:RDF>
      <cc:Work
         rdf:about="">
        <dc:format>image/svg+xml</dc:format>
        <dc:type
           rdf:resource="http://purl.org/dc/dcmitype/StillImage" />
        <dc:title />
      </cc:Work>
    </rdf:RDF>
  </metadata>
  <path
     sodipodi:nodetypes="ccccc"
     inkscape:connector-curvature="0"
     id="path19926"
     d="M 0,-0.0048 H 45.00053 V 380 H 0 Z"
     style="opacity:1;vector-effect:none;fill:#202321;fill-opacity:1;fill-rule:evenodd;stroke:none;stroke-width:1.83714068;stroke-linecap:butt;stroke-linejoin:round;stroke-miterlimit:4;stroke-dasharray:none;stroke-dashoffset:0;stroke-opacity:1;paint-order:normal" />
  <g
     aria-label="COARSE"
     style="font-style:normal;font-variant:normal;font-weight:300;font-stretch:normal;font-size:6.96164751px;line-height:1.25;font-family:'Gotham Rounded';-inkscape-font-specification:'Gotham Rounded Light';text-align:center;letter-spacing:0px;word-spacing:0px;text-anchor:middle;fill:#cccccc;fill-opacity:1;stroke:none;stroke-width:1.00001252"
     id="text19936">
    <path
       d="m 10.436751,95.004934 c 0.786666,0 1.308789,-0.250619 1.768258,-0.654395 0.07658,-0.06962 0.139233,-0.174041 0.139233,-0.306312 0,-0.215811 -0.187965,-0.396814 -0.403776,-0.396814 -0.104424,0 -0.194926,0.04177 -0.257581,0.09746 -0.355044,0.299351 -0.703126,0.46643 -1.218288,0.46643 -0.9328606,0 -1.6081404,-0.772743 -1.6081404,-1.726488 v -0.01392 c 0,-0.953745 0.6822414,-1.719527 1.6081404,-1.719527 0.466431,0 0.828436,0.16708 1.162595,0.438584 0.05569,0.04177 0.139233,0.08354 0.257581,0.08354 0.236696,0 0.424661,-0.181003 0.424661,-0.417699 0,-0.153156 -0.07658,-0.271504 -0.16708,-0.341121 -0.42466,-0.327197 -0.918937,-0.54997 -1.670795,-0.54997 -1.4758695,0 -2.5131549,1.134749 -2.5131549,2.520117 v 0.01392 c 0,1.399291 1.0581704,2.506193 2.4783469,2.506193 z"
       style="font-style:normal;font-variant:normal;font-weight:300;font-stretch:normal;font-family:'Gotham Rounded';-inkscape-font-specification:'Gotham Rounded Light';text-align:center;text-anchor:middle;fill:#cccccc;fill-opacity:1;stroke-width:1.00001252"
       id="path1020" />
    <path
       d="m 15.503089,95.004934 c 1.496755,0 2.554925,-1.148672 2.554925,-2.520116 v -0.01392 c 0,-1.371444 -1.044247,-2.506193 -2.541001,-2.506193 -1.496754,0 -2.554925,1.148672 -2.554925,2.520117 v 0.01392 c 0,1.371445 1.044247,2.506193 2.541001,2.506193 z m 0.01392,-0.793628 c -0.967669,0 -1.656872,-0.779704 -1.656872,-1.726488 v -0.01392 c 0,-0.946784 0.675279,-1.719527 1.642948,-1.719527 0.967669,0 1.656873,0.786667 1.656873,1.733451 v 0.01392 c 0,0.946784 -0.67528,1.712565 -1.642949,1.712565 z"
       style="font-style:normal;font-variant:normal;font-weight:300;font-stretch:normal;font-family:'Gotham Rounded';-inkscape-font-specification:'Gotham Rounded Light';text-align:center;text-anchor:middle;fill:#cccccc;fill-opacity:1;stroke-width:1.00001252"
       id="path1022" />
    <path
       d="m 18.554467,94.559389 c 0,0.222772 0.174041,0.396814 0.396814,0.396814 0.181003,0 0.327197,-0.09746 0.396814,-0.271505 l 0.410737,-0.939822 h 2.36696 l 0.396814,0.911976 c 0.07658,0.181003 0.215811,0.299351 0.417699,0.299351 0.229734,0 0.403775,-0.181003 0.403775,-0.410738 0,-0.05569 -0.01392,-0.118348 -0.04873,-0.181002 L 21.48532,90.326707 c -0.09746,-0.215811 -0.264542,-0.348082 -0.5082,-0.348082 h -0.04177 c -0.243657,0 -0.417699,0.132271 -0.515162,0.348082 l -1.810028,4.037756 c -0.03481,0.06962 -0.05569,0.132271 -0.05569,0.194926 z m 1.531562,-1.573333 0.856283,-1.970146 0.856283,1.970146 z"
       style="font-style:normal;font-variant:normal;font-weight:300;font-stretch:normal;font-family:'Gotham Rounded';-inkscape-font-specification:'Gotham Rounded Light';text-align:center;text-anchor:middle;fill:#cccccc;fill-opacity:1;stroke-width:1.00001252"
       id="path1024" />
    <path
       d="m 24.273025,94.531542 c 0,0.236696 0.187965,0.424661 0.431622,0.424661 0.236696,0 0.424661,-0.187965 0.424661,-0.424661 v -1.30879 h 1.079055 l 1.18348,1.510678 c 0.09746,0.132271 0.222773,0.222773 0.417699,0.222773 0.20885,0 0.410737,-0.160118 0.410737,-0.396814 0,-0.132272 -0.05569,-0.222773 -0.139232,-0.327198 l -0.932861,-1.176518 c 0.654395,-0.201888 1.106902,-0.67528 1.106902,-1.454985 v -0.01392 c 0,-0.42466 -0.146195,-0.786666 -0.403776,-1.051209 -0.313274,-0.306312 -0.793628,-0.487315 -1.406253,-0.487315 h -1.740412 c -0.243657,0 -0.431622,0.187965 -0.431622,0.431622 z m 0.856283,-2.067609 v -1.635987 h 1.246135 c 0.63351,0 1.009439,0.285427 1.009439,0.807551 v 0.01392 c 0,0.494277 -0.389853,0.814513 -1.002477,0.814513 z"
       style="font-style:normal;font-variant:normal;font-weight:300;font-stretch:normal;font-family:'Gotham Rounded';-inkscape-font-specification:'Gotham Rounded Light';text-align:center;text-anchor:middle;fill:#cccccc;fill-opacity:1;stroke-width:1.00001252"
       id="path1026" />
    <path
       d="m 31.009507,94.991011 c 1.023362,0 1.740412,-0.543009 1.740412,-1.454985 v -0.01392 c 0,-0.807551 -0.529085,-1.176518 -1.559409,-1.427138 -0.939823,-0.222772 -1.162595,-0.389852 -1.162595,-0.765781 v -0.01392 c 0,-0.320236 0.292389,-0.577817 0.793628,-0.577817 0.38289,0 0.744896,0.12531 1.120825,0.368968 0.06962,0.04177 0.139233,0.06265 0.222773,0.06265 0.222772,0 0.403775,-0.174041 0.403775,-0.396814 0,-0.167079 -0.0905,-0.285427 -0.187964,-0.34112 -0.438584,-0.292389 -0.932861,-0.452507 -1.545486,-0.452507 -0.967669,0 -1.663834,0.577816 -1.663834,1.413214 v 0.01392 c 0,0.898053 0.584778,1.204365 1.622064,1.454985 0.905014,0.208849 1.09994,0.396814 1.09994,0.744896 v 0.01392 c 0,0.362006 -0.334159,0.612625 -0.863244,0.612625 -0.529085,0 -0.960707,-0.181003 -1.364483,-0.501238 -0.05569,-0.04177 -0.132271,-0.07658 -0.250619,-0.07658 -0.222773,0 -0.403776,0.174041 -0.403776,0.396813 0,0.139233 0.06962,0.257581 0.16708,0.327198 0.543008,0.403775 1.169557,0.612625 1.830913,0.612625 z"
       style="font-style:normal;font-variant:normal;font-weight:300;font-stretch:normal;font-family:'Gotham Rounded';-inkscape-font-specification:'Gotham Rounded Light';text-align:center;text-anchor:middle;fill:#cccccc;fill-opacity:1;stroke-width:1.00001252"
       id="path1028" />
    <path
       d="m 34.19533,94.921394 h 2.868199 c 0.208849,0 0.38289,-0.167079 0.38289,-0.38289 0,-0.20885 -0.174041,-0.382891 -0.38289,-0.382891 h -2.443538 v -1.30879 h 2.095455 c 0.20885,0 0.382891,-0.167079 0.382891,-0.375929 0,-0.215811 -0.174041,-0.389852 -0.382891,-0.389852 h -2.095455 v -1.26702 h 2.40873 c 0.208849,0 0.38289,-0.167079 0.38289,-0.38289 0,-0.20885 -0.174041,-0.382891 -0.38289,-0.382891 H 34.19533 c -0.243658,0 -0.431622,0.187965 -0.431622,0.431622 v 4.009909 c 0,0.243658 0.187964,0.431622 0.431622,0.431622 z"
       style="font-style:normal;font-variant:normal;font-weight:300;font-stretch:normal;font-family:'Gotham Rounded';-inkscape-font-specification:'Gotham Rounded Light';text-align:center;text-anchor:middle;fill:#cccccc;fill-opacity:1;stroke-width:1.00001252"
       id="path1030" />
  </g>
  <g
     aria-label="V"
     style="font-style:normal;font-variant:normal;font-weight:300;font-stretch:normal;font-size:9.96307564px;line-height:1.25;font-family:'Gotham Rounded';-inkscape-font-specification:'Gotham Rounded Light';letter-spacing:0px;word-spacing:0px;fill:#cccccc;fill-opacity:1;stroke:none;stroke-width:1.00001252"
     id="text19956">
    <path
       d="m 18.17342,49.169947 h 0.06974 c 0.348707,0 0.577858,-0.189298 0.707378,-0.498154 l 2.450917,-5.778584 c 0.02989,-0.06974 0.05978,-0.169372 0.05978,-0.25904 0,-0.328781 -0.269003,-0.587821 -0.607747,-0.587821 -0.28893,0 -0.508117,0.189298 -0.587822,0.398523 l -2.04243,5.071206 -2.012542,-5.031354 c -0.09963,-0.25904 -0.308855,-0.438375 -0.627673,-0.438375 -0.348708,0 -0.617711,0.269003 -0.617711,0.597785 0,0.109593 0.02989,0.199261 0.06974,0.288929 l 2.440954,5.738731 c 0.12952,0.308856 0.358671,0.498154 0.697415,0.498154 z"
       style="fill:#cccccc;fill-opacity:1;stroke-width:1.00001252"
       id="path1017" />
  </g>
  <rect
     style="opacity:1;fill:#b3b3b3;fill-opacity:1;stroke:none;stroke-width:1.00001264;stroke-linecap:round;stroke-linejoin:round;stroke-miterlimit:0;stroke-dasharray:none;stroke-dashoffset:0;stroke-opacity:1"
     id="rect20064"
     width="29.000351"
     height="41.000893"
     x="7.9993896"
     y="305.99854"
     rx="3.0000446"
     ry="3.0000446" />
  <g
     aria-label="OUT"
     style="font-style:normal;font-variant:normal;font-weight:300;font-stretch:normal;font-size:6.96164751px;line-height:1.25;font-family:'Gotham Rounded';-inkscape-font-specification:'Gotham Rounded Light';text-align:center;letter-spacing:0px;word-spacing:0px;text-anchor:middle;fill:#000000;fill-opacity:1;stroke:none;stroke-width:1.00001252"
     id="text19962">
    <path
       d="m 17.773837,314.99956 c 1.496754,0 2.554924,-1.14868 2.554924,-2.52012 v -0.0139 c 0,-1.37145 -1.044247,-2.5062 -2.541001,-2.5062 -1.496754,0 -2.554925,1.14867 -2.554925,2.52012 v 0.0139 c 0,1.37145 1.044247,2.5062 2.541002,2.5062 z m 0.01392,-0.79363 c -0.967669,0 -1.656872,-0.77971 -1.656872,-1.72649 v -0.0139 c 0,-0.94679 0.67528,-1.71953 1.642949,-1.71953 0.967669,0 1.656872,0.78666 1.656872,1.73345 v 0.0139 c 0,0.94679 -0.67528,1.71257 -1.642949,1.71257 z"
       style="font-style:normal;font-variant:normal;font-weight:300;font-stretch:normal;font-family:'Gotham Rounded';-inkscape-font-specification:'Gotham Rounded Light';text-align:center;text-anchor:middle;fill:#000000;fill-opacity:1;stroke-width:1.00001252"
       id="path1010" />
    <path
       d="m 23.36132,314.99259 c 1.273982,0 2.095456,-0.73097 2.095456,-2.18595 v -2.37393 c 0,-0.23669 -0.187964,-0.42466 -0.424661,-0.42466 -0.243657,0 -0.431622,0.18797 -0.431622,0.42466 v 2.4157 c 0,0.89805 -0.46643,1.35056 -1.22525,1.35056 -0.765781,0 -1.232211,-0.48036 -1.232211,-1.38537 v -2.38089 c 0,-0.23669 -0.187965,-0.42466 -0.424661,-0.42466 -0.243657,0 -0.431622,0.18797 -0.431622,0.42466 v 2.4157 c 0,1.41321 0.807551,2.14418 2.074571,2.14418 z"
       style="font-style:normal;font-variant:normal;font-weight:300;font-stretch:normal;font-family:'Gotham Rounded';-inkscape-font-specification:'Gotham Rounded Light';text-align:center;text-anchor:middle;fill:#000000;fill-opacity:1;stroke-width:1.00001252"
       id="path1012" />
    <path
       d="m 27.836353,314.52616 c 0,0.2367 0.194927,0.42466 0.431623,0.42466 0.236696,0 0.431622,-0.18796 0.431622,-0.42466 v -3.68967 h 1.190441 c 0.215812,0 0.389853,-0.181 0.389853,-0.39681 0,-0.21581 -0.174041,-0.39682 -0.389853,-0.39682 h -3.237166 c -0.222772,0 -0.396814,0.18101 -0.396814,0.39682 0,0.21581 0.174042,0.39681 0.396814,0.39681 h 1.18348 z"
       style="font-style:normal;font-variant:normal;font-weight:300;font-stretch:normal;font-family:'Gotham Rounded';-inkscape-font-specification:'Gotham Rounded Light';text-align:center;text-anchor:middle;fill:#000000;fill-opacity:1;stroke-width:1.00001252"
       id="path1014" />
  </g>
  <path
     sodipodi:nodetypes="cc"
     inkscape:connector-curvature="0"
     id="path19964"
     d="M 22.50038,281.9989 V 259.9987"
     style="fill:none;fill-rule:evenodd;stroke:#3a3c3b;stroke-width:1.00001264px;stroke-linecap:butt;stroke-linejoin:miter;stroke-opacity:1" />
  <g
     aria-label="FINE"
     style="font-style:normal;font-variant:normal;font-weight:300;font-stretch:normal;font-size:6.96164751px;line-height:1.25;font-family:'Gotham Rounded';-inkscape-font-specification:'Gotham Rounded Light';text-align:center;letter-spacing:0px;word-spacing:0px;text-anchor:middle;fill:#cccccc;fill-opacity:1;stroke:none;stroke-width:1.00001252"
     id="text19968">
    <path
       d="m 14.836729,146.53202 c 0,0.2367 0.187965,0.42466 0.431622,0.42466 0.236697,0 0.424661,-0.18796 0.424661,-0.42466 v -1.59421 h 2.102418 c 0.215811,0 0.389852,-0.17405 0.389852,-0.38986 0,-0.21581 -0.174041,-0.38985 -0.389852,-0.38985 h -2.102418 v -1.32967 h 2.415692 c 0.215811,0 0.389852,-0.17404 0.389852,-0.38986 0,-0.21581 -0.174041,-0.38985 -0.389852,-0.38985 h -2.840353 c -0.243657,0 -0.431622,0.18797 -0.431622,0.43162 z"
       style="font-style:normal;font-variant:normal;font-weight:300;font-stretch:normal;font-family:'Gotham Rounded';-inkscape-font-specification:'Gotham Rounded Light';text-align:center;text-anchor:middle;fill:#cccccc;fill-opacity:1;stroke-width:1.00001252"
       id="path1001" />
    <path
       d="m 19.454042,146.53202 c 0,0.2367 0.187964,0.42466 0.431622,0.42466 0.236696,0 0.424661,-0.18796 0.424661,-0.42466 v -4.09345 c 0,-0.23669 -0.187965,-0.42466 -0.424661,-0.42466 -0.243658,0 -0.431622,0.18797 -0.431622,0.42466 z"
       style="font-style:normal;font-variant:normal;font-weight:300;font-stretch:normal;font-family:'Gotham Rounded';-inkscape-font-specification:'Gotham Rounded Light';text-align:center;text-anchor:middle;fill:#cccccc;fill-opacity:1;stroke-width:1.00001252"
       id="path1003" />
    <path
       d="m 21.608019,146.53898 c 0,0.22974 0.187965,0.4177 0.424661,0.4177 0.229734,0 0.417699,-0.18796 0.417699,-0.4177 v -3.09097 l 2.506193,3.24413 c 0.118348,0.15316 0.243657,0.25758 0.445545,0.25758 h 0.03481 c 0.236696,0 0.417699,-0.18796 0.417699,-0.42466 v -4.09345 c 0,-0.22973 -0.187964,-0.4177 -0.42466,-0.4177 -0.229735,0 -0.417699,0.18797 -0.417699,0.4177 v 2.99351 l -2.436577,-3.15363 c -0.118348,-0.14619 -0.236696,-0.25061 -0.445545,-0.25061 h -0.0905 c -0.243657,0 -0.431622,0.19492 -0.431622,0.43162 z"
       style="font-style:normal;font-variant:normal;font-weight:300;font-stretch:normal;font-family:'Gotham Rounded';-inkscape-font-specification:'Gotham Rounded Light';text-align:center;text-anchor:middle;fill:#cccccc;fill-opacity:1;stroke-width:1.00001252"
       id="path1005" />
    <path
       d="m 27.532817,146.92187 h 2.868199 c 0.208849,0 0.38289,-0.16707 0.38289,-0.38289 0,-0.20885 -0.174041,-0.38289 -0.38289,-0.38289 h -2.443539 v -1.30879 h 2.095456 c 0.20885,0 0.382891,-0.16708 0.382891,-0.37592 0,-0.21582 -0.174041,-0.38986 -0.382891,-0.38986 h -2.095456 v -1.26702 h 2.40873 c 0.20885,0 0.382891,-0.16708 0.382891,-0.38289 0,-0.20885 -0.174041,-0.38289 -0.382891,-0.38289 h -2.83339 c -0.243658,0 -0.431622,0.18797 -0.431622,0.43162 v 4.00991 c 0,0.24366 0.187964,0.43162 0.431622,0.43162 z"
       style="font-style:normal;font-variant:normal;font-weight:300;font-stretch:normal;font-family:'Gotham Rounded';-inkscape-font-specification:'Gotham Rounded Light';text-align:center;text-anchor:middle;fill:#cccccc;fill-opacity:1;stroke-width:1.00001252"
       id="path1007" />
  </g>
  <g
     aria-label="ON"
     style="font-style:normal;font-variant:normal;font-weight:300;font-stretch:normal;font-size:6.96164751px;line-height:1.25;font-family:'Gotham Rounded';-inkscape-font-specification:'Gotham Rounded Light';text-align:center;letter-spacing:0px;word-spacing:0px;text-anchor:middle;fill:#cccccc;fill-opacity:1;stroke:none;stroke-width:1.00001252"
     id="text19972">
    <path
       d="m 19.422157,237.00664 c 1.496755,0 2.554925,-1.14868 2.554925,-2.52012 v -0.0139 c 0,-1.37145 -1.044247,-2.5062 -2.541001,-2.5062 -1.496754,0 -2.554925,1.14867 -2.554925,2.52012 v 0.0139 c 0,1.37145 1.044247,2.5062 2.541001,2.5062 z m 0.01392,-0.79363 c -0.967669,0 -1.656872,-0.77971 -1.656872,-1.72649 v -0.0139 c 0,-0.94679 0.675279,-1.71953 1.642948,-1.71953 0.967669,0 1.656873,0.78667 1.656873,1.73345 v 0.0139 c 0,0.94679 -0.67528,1.71257 -1.642949,1.71257 z"
       style="font-style:normal;font-variant:normal;font-weight:300;font-stretch:normal;font-family:'Gotham Rounded';-inkscape-font-specification:'Gotham Rounded Light';text-align:center;text-anchor:middle;fill:#cccccc;fill-opacity:1;stroke-width:1.00001252"
       id="path996" />
    <path
       d="m 23.011648,236.54021 c 0,0.22973 0.187965,0.41769 0.424661,0.41769 0.229734,0 0.417699,-0.18796 0.417699,-0.41769 v -3.09098 l 2.506193,3.24413 c 0.118348,0.15316 0.243657,0.25758 0.445545,0.25758 h 0.03481 c 0.236696,0 0.417699,-0.18796 0.417699,-0.42466 v -4.09345 c 0,-0.22973 -0.187964,-0.4177 -0.42466,-0.4177 -0.229735,0 -0.417699,0.18797 -0.417699,0.4177 v 2.99351 l -2.436577,-3.15362 c -0.118348,-0.1462 -0.236696,-0.25062 -0.445545,-0.25062 h -0.0905 c -0.243657,0 -0.431622,0.19492 -0.431622,0.43162 z"
       style="font-style:normal;font-variant:normal;font-weight:300;font-stretch:normal;font-family:'Gotham Rounded';-inkscape-font-specification:'Gotham Rounded Light';text-align:center;text-anchor:middle;fill:#cccccc;fill-opacity:1;stroke-width:1.00001252"
       id="path998" />
  </g>
  <g
     aria-label="CV"
     style="font-style:normal;font-variant:normal;font-weight:300;font-stretch:normal;font-size:6.96164751px;line-height:1.25;font-family:'Gotham Rounded';-inkscape-font-specification:'Gotham Rounded Light';text-align:center;letter-spacing:0px;word-spacing:0px;text-anchor:middle;fill:#cccccc;fill-opacity:1;stroke:none;stroke-width:1.00001252"
     id="text19976">
    <path
       d="m 20.444119,191.00603 c 0.786666,0 1.30879,-0.25062 1.768258,-0.6544 0.07658,-0.0696 0.139233,-0.17404 0.139233,-0.30631 0,-0.21581 -0.187964,-0.39682 -0.403775,-0.39682 -0.104425,0 -0.194926,0.0418 -0.257581,0.0975 -0.355044,0.29935 -0.703127,0.46643 -1.218289,0.46643 -0.93286,0 -1.60814,-0.77275 -1.60814,-1.72649 v -0.0139 c 0,-0.95375 0.682241,-1.71953 1.60814,-1.71953 0.466431,0 0.828437,0.16708 1.162596,0.43858 0.05569,0.0418 0.139233,0.0835 0.257581,0.0835 0.236696,0 0.42466,-0.181 0.42466,-0.4177 0,-0.15315 -0.07658,-0.2715 -0.167079,-0.34112 -0.424661,-0.32719 -0.918938,-0.54997 -1.670796,-0.54997 -1.475869,0 -2.513155,1.13475 -2.513155,2.52012 v 0.0139 c 0,1.39929 1.058171,2.5062 2.478347,2.5062 z"
       style="font-style:normal;font-variant:normal;font-weight:300;font-stretch:normal;font-family:'Gotham Rounded';-inkscape-font-specification:'Gotham Rounded Light';text-align:center;text-anchor:middle;fill:#cccccc;fill-opacity:1;stroke-width:1.00001252"
       id="path991" />
    <path
       d="m 25.221767,190.9921 h 0.04873 c 0.243658,0 0.403776,-0.13227 0.494277,-0.34808 l 1.712566,-4.03776 c 0.02088,-0.0487 0.04177,-0.11834 0.04177,-0.181 0,-0.22973 -0.187965,-0.41074 -0.424661,-0.41074 -0.201888,0 -0.355044,0.13228 -0.410737,0.27847 l -1.427138,3.54348 -1.406253,-3.51563 c -0.06962,-0.18101 -0.215811,-0.30632 -0.438583,-0.30632 -0.243658,0 -0.431623,0.18797 -0.431623,0.4177 0,0.0766 0.02088,0.13924 0.04873,0.20189 l 1.705604,4.00991 c 0.0905,0.21581 0.250619,0.34808 0.487315,0.34808 z"
       style="font-style:normal;font-variant:normal;font-weight:300;font-stretch:normal;font-family:'Gotham Rounded';-inkscape-font-specification:'Gotham Rounded Light';text-align:center;text-anchor:middle;fill:#cccccc;fill-opacity:1;stroke-width:1.00001252"
       id="path993" />
  </g>
  <g
     aria-label="SRC"
     style="font-style:normal;font-variant:normal;font-weight:normal;font-stretch:normal;font-size:11.94451904px;line-height:1.25;font-family:'Gotham Rounded';-inkscape-font-specification:'Gotham Rounded';letter-spacing:0px;word-spacing:0px;fill:#b3b3b3;fill-opacity:1;stroke:none;stroke-width:0.94821429"
     id="text19980">
    <path
       d="m 14.124835,28.765445 c 1.803623,0 3.069742,-0.931672 3.069742,-2.591961 v -0.02389 c 0,-1.457231 -0.955562,-2.066401 -2.651683,-2.508349 -1.445287,-0.37028 -1.803623,-0.549447 -1.803623,-1.098895 v -0.02389 c 0,-0.406114 0.37028,-0.728616 1.075007,-0.728616 0.573337,0 1.146674,0.203057 1.755844,0.561392 0.143334,0.08361 0.286669,0.13139 0.465836,0.13139 0.477781,0 0.860006,-0.37028 0.860006,-0.848061 0,-0.358335 -0.203057,-0.60917 -0.406114,-0.728615 -0.752505,-0.477781 -1.636399,-0.740561 -2.651683,-0.740561 -1.708066,0 -2.926407,1.00334 -2.926407,2.520294 v 0.02389 c 0,1.660288 1.086951,2.126124 2.771128,2.556127 1.397509,0.358336 1.684177,0.597226 1.684177,1.063062 v 0.02389 c 0,0.489726 -0.453891,0.788339 -1.206396,0.788339 -0.812227,0 -1.50501,-0.286669 -2.138069,-0.752505 -0.119445,-0.08361 -0.286668,-0.167223 -0.525559,-0.167223 -0.477781,0 -0.860005,0.37028 -0.860005,0.84806 0,0.286669 0.143334,0.549448 0.346391,0.692782 0.931672,0.668894 2.042513,1.00334 3.141408,1.00334 z"
       style="font-style:normal;font-variant:normal;font-weight:normal;font-stretch:normal;font-family:'Gotham Rounded';-inkscape-font-specification:'Gotham Rounded';text-align:center;text-anchor:middle;fill:#b3b3b3;fill-opacity:1;stroke-width:0.94821429"
       id="path984" />
    <path
       d="m 18.802608,27.797939 c 0,0.513614 0.406113,0.919728 0.919728,0.919728 0.513614,0 0.919728,-0.406114 0.919728,-0.919728 v -1.827511 h 1.469175 l 1.791678,2.269458 c 0.215002,0.274724 0.489726,0.477781 0.907784,0.477781 0.441947,0 0.87195,-0.334447 0.87195,-0.848061 0,-0.286668 -0.119446,-0.477781 -0.298613,-0.704726 l -1.278064,-1.552788 c 1.015284,-0.418058 1.672233,-1.230285 1.672233,-2.544182 v -0.02389 c 0,-0.788338 -0.250835,-1.445286 -0.716671,-1.911123 -0.549448,-0.549447 -1.37362,-0.84806 -2.436682,-0.84806 h -2.902518 c -0.513615,0 -0.919728,0.406113 -0.919728,0.919728 z m 1.839456,-3.451966 v -2.400848 h 1.827511 c 0.895839,0 1.445287,0.406113 1.445287,1.194452 v 0.02389 c 0,0.704726 -0.513615,1.182507 -1.409453,1.182507 z"
       style="font-style:normal;font-variant:normal;font-weight:normal;font-stretch:normal;font-family:'Gotham Rounded';-inkscape-font-specification:'Gotham Rounded';text-align:center;text-anchor:middle;fill:#b3b3b3;fill-opacity:1;stroke-width:0.94821429"
       id="path986" />
    <path
       d="m 31.352191,28.789334 c 1.337787,0 2.221681,-0.394169 2.974186,-1.051118 0.167223,-0.143334 0.310557,-0.37028 0.310557,-0.656948 0,-0.465836 -0.394169,-0.848061 -0.860005,-0.848061 -0.215002,0 -0.406114,0.08361 -0.549448,0.203057 -0.525559,0.418058 -1.039173,0.656948 -1.815567,0.656948 -1.433342,0 -2.424737,-1.194451 -2.424737,-2.627794 v -0.02389 c 0,-1.433342 1.015284,-2.603905 2.424737,-2.603905 0.656949,0 1.194452,0.215001 1.708066,0.597226 0.13139,0.08361 0.298613,0.179168 0.549448,0.179168 0.50167,0 0.907784,-0.394169 0.907784,-0.895839 0,-0.322502 -0.167224,-0.585282 -0.358336,-0.728616 -0.692782,-0.513614 -1.540843,-0.848061 -2.795017,-0.848061 -2.568072,0 -4.35975,1.946957 -4.35975,4.323916 v 0.02389 c 0,2.400849 1.827512,4.300027 4.288082,4.300027 z"
       style="font-style:normal;font-variant:normal;font-weight:normal;font-stretch:normal;font-family:'Gotham Rounded';-inkscape-font-specification:'Gotham Rounded';text-align:center;text-anchor:middle;fill:#b3b3b3;fill-opacity:1;stroke-width:0.94821429"
       id="path988" />
  </g>
  <rect
     ry="4.5000472"
     rx="4.5000472"
     y="2.9956098"
     x="14.000031"
     height="9.0000944"
     width="17.000216"
     id="rect20020"
     style="opacity:1;fill:#000000;fill-opacity:0.37647059;stroke:none;stroke-width:1.24348032;stroke-linecap:round;stroke-linejoin:round;stroke-miterlimit:4;stroke-dasharray:none;stroke-dashoffset:0;stroke-opacity:1" />
  <rect
     ry="4.5000472"
     rx="4.5000472"
     y="368.00012"
     x="14.000031"
     height="9.0000944"
     width="17.000216"
     id="rect20010"
     style="opacity:1;fill:#000000;fill-opacity:0.37647059;stroke:none;stroke-width:1.24348032;stroke-linecap:round;stroke-linejoin:round;stroke-miterlimit:4;stroke-dasharray:none;stroke-dashoffset:0;stroke-opacity:1" />
  <g
     style="fill:#b3b3b3;stroke:#808080;stroke-width:1.08830786;stroke-opacity:1;fill-opacity:1"
     transform="matrix(3.4833206,0,0,3.4624064,-19.45079,-645.22137)"
     id="g2207">
    <path
       style="color:#000000;font-style:normal;font-variant:normal;font-weight:normal;font-stretch:normal;font-size:medium;line-height:normal;font-family:sans-serif;font-variant-ligatures:normal;font-variant-position:normal;font-variant-caps:normal;font-variant-numeric:normal;font-variant-alternates:normal;font-feature-settings:normal;text-indent:0;text-align:start;text-decoration:none;text-decoration-line:none;text-decoration-style:solid;text-decoration-color:#000000;letter-spacing:normal;word-spacing:normal;text-transform:none;writing-mode:lr-tb;direction:ltr;text-orientation:mixed;dominant-baseline:auto;baseline-shift:baseline;text-anchor:start;white-space:normal;shape-padding:0;clip-rule:nonzero;display:inline;overflow:visible;visibility:visible;opacity:1;isolation:auto;mix-blend-mode:normal;color-interpolation:sRGB;color-interpolation-filters:linearRGB;solid-color:#000000;solid-opacity:1;vector-effect:none;fill:#b3b3b3;fill-opacity:1;fill-rule:evenodd;stroke:none;stroke-width:0.53669477;stroke-linecap:butt;stroke-linejoin:bevel;stroke-miterlimit:0;stroke-dasharray:none;stroke-dashoffset:0;stroke-opacity:1;color-rendering:auto;image-rendering:auto;shape-rendering:auto;text-rendering:auto;enable-background:accumulate"
       d="m 11.640625,288.51172 c -0.136141,0.11687 -0.502862,0.26885 -0.792969,0.41016 -0.249038,0.0915 -0.513291,0.18263 -0.814453,0.25195 -0.7481113,0.17218 -1.5872324,0.2422 -2.0976561,0.13672 l -0.109375,0.52539 c 0.4380502,0.0905 1.0069942,-0.0207 1.5488281,-0.0918 -0.00711,0.006 -0.020422,0.009 -0.027344,0.0156 -0.0937,0.0853 -0.1835532,0.18731 -0.2109374,0.34179 -0.027384,0.15448 0.050367,0.32636 0.1582031,0.42774 0.1115826,0.1049 0.2294936,0.12757 0.3496093,0.14258 0.1201158,0.015 0.2500582,0.0127 0.392578,0 0.28504,-0.0254 0.620052,-0.0947 0.964844,-0.19727 l -0.152344,-0.51367 c -0.316607,0.0942 -0.627496,0.15691 -0.861328,0.17773 -0.1053894,0.009 -0.1872275,0.008 -0.25,0.002 0.1029597,-0.0866 0.311035,-0.21056 0.572266,-0.33593 0.23424,-0.11243 0.458959,-0.25712 0.716797,-0.37696 0.06953,-0.0255 0.15767,-0.0435 0.222656,-0.0703 0.272522,-0.11241 0.473374,-0.24269 0.646484,-0.39062 0.02502,-0.0194 0.07047,-0.0288 0.09375,-0.0488 l -0.0039,-0.004 c 0.0053,-0.005 0.0163,-0.008 0.02148,-0.0137 z"
       id="path2200"
       inkscape:connector-curvature="0" />
    <path
       style="color:#000000;font-style:normal;font-variant:normal;font-weight:normal;font-stretch:normal;font-size:medium;line-height:normal;font-family:sans-serif;font-variant-ligatures:normal;font-variant-position:normal;font-variant-caps:normal;font-variant-numeric:normal;font-variant-alternates:normal;font-feature-settings:normal;text-indent:0;text-align:start;text-decoration:none;text-decoration-line:none;text-decoration-style:solid;text-decoration-color:#000000;letter-spacing:normal;word-spacing:normal;text-transform:none;writing-mode:lr-tb;direction:ltr;text-orientation:mixed;dominant-baseline:auto;baseline-shift:baseline;text-anchor:start;white-space:normal;shape-padding:0;clip-rule:nonzero;display:inline;overflow:visible;visibility:visible;opacity:1;isolation:auto;mix-blend-mode:normal;color-interpolation:sRGB;color-interpolation-filters:linearRGB;solid-color:#000000;solid-opacity:1;vector-effect:none;fill:#b3b3b3;fill-opacity:1;fill-rule:evenodd;stroke:none;stroke-width:0.55421764;stroke-linecap:butt;stroke-linejoin:bevel;stroke-miterlimit:0;stroke-dasharray:none;stroke-dashoffset:0;stroke-opacity:1;color-rendering:auto;image-rendering:auto;shape-rendering:auto;text-rendering:auto;enable-background:accumulate"
       d="m 14.433594,288.49414 c -0.497415,0.62122 -0.398927,1.34849 0.01758,1.75195 0.416505,0.40347 1.117985,0.52073 1.705078,0.14258 l -0.300781,-0.46679 c -0.377635,0.24323 -0.784866,0.1531 -1.019531,-0.0742 -0.174451,-0.16899 -0.201132,-0.41568 -0.0918,-0.70508 0.150163,0.17192 0.27108,0.38586 0.470703,0.48242 0.343198,0.16601 0.746871,0.20138 1.179687,0.11328 l -0.111328,-0.54297 c -0.341141,0.0694 -0.607485,0.0364 -0.828125,-0.0703 -0.22064,-0.10673 -0.406822,-0.29438 -0.560547,-0.58594 z"
       id="path2202"
       inkscape:connector-curvature="0" />
    <path
       style="color:#000000;font-style:normal;font-variant:normal;font-weight:normal;font-stretch:normal;font-size:medium;line-height:normal;font-family:sans-serif;font-variant-ligatures:normal;font-variant-position:normal;font-variant-caps:normal;font-variant-numeric:normal;font-variant-alternates:normal;font-feature-settings:normal;text-indent:0;text-align:start;text-decoration:none;text-decoration-line:none;text-decoration-style:solid;text-decoration-color:#000000;letter-spacing:normal;word-spacing:normal;text-transform:none;writing-mode:lr-tb;direction:ltr;text-orientation:mixed;dominant-baseline:auto;baseline-shift:baseline;text-anchor:start;white-space:normal;shape-padding:0;clip-rule:nonzero;display:inline;overflow:visible;visibility:visible;opacity:1;isolation:auto;mix-blend-mode:normal;color-interpolation:sRGB;color-interpolation-filters:linearRGB;solid-color:#000000;solid-opacity:1;vector-effect:none;fill:#b3b3b3;fill-opacity:1;fill-rule:evenodd;stroke:none;stroke-width:0.53669477;stroke-linecap:butt;stroke-linejoin:bevel;stroke-miterlimit:0;stroke-dasharray:none;stroke-dashoffset:0;stroke-opacity:1;color-rendering:auto;image-rendering:auto;shape-rendering:auto;text-rendering:auto;enable-background:accumulate"
       d="m 13.447266,288.3418 c -0.42931,0.48516 -1.295642,1.38777 -2.642578,1.62695 l 0.09375,0.52734 c 0.274973,-0.0488 0.435024,-0.20142 0.673828,-0.29101 l 0.205078,0.42187 c 0.291223,-0.1158 0.684899,-0.22457 1.044922,-0.25195 0.360022,-0.0274 0.67217,0.0317 0.845703,0.17578 l 0.341797,-0.41211 c -0.34072,-0.28282 -0.793976,-0.33187 -1.228516,-0.29883 -0.07417,0.006 -0.131585,0.0384 -0.205078,0.0488 0.291539,-0.24465 0.572914,-0.48077 0.810547,-0.76562 0.145565,-0.14458 0.364447,-0.31674 0.460937,-0.42578 l -0.0059,-0.004 c 0.0076,-0.0115 0.02378,-0.0177 0.03125,-0.0293 z"
       id="path2205"
       inkscape:connector-curvature="0" />
  </g>
</svg>
