<?xml version="1.0" encoding="UTF-8" standalone="no"?>
<svg
   xmlns:dc="http://purl.org/dc/elements/1.1/"
   xmlns:cc="http://creativecommons.org/ns#"
   xmlns:rdf="http://www.w3.org/1999/02/22-rdf-syntax-ns#"
   xmlns:svg="http://www.w3.org/2000/svg"
   xmlns="http://www.w3.org/2000/svg"
   xmlns:sodipodi="http://sodipodi.sourceforge.net/DTD/sodipodi-0.dtd"
   xmlns:inkscape="http://www.inkscape.org/namespaces/inkscape"
   width="120"
   height="380"
   version="1.1"
   viewBox="0 0 120 380"
   id="svg324"
   sodipodi:docname="WavetablePlayer.svg"
   inkscape:version="0.92.5 (2060ec1f9f, 2020-04-08)">
  <metadata
     id="metadata330">
    <rdf:RDF>
      <cc:Work
         rdf:about="">
        <dc:format>image/svg+xml</dc:format>
        <dc:type
           rdf:resource="http://purl.org/dc/dcmitype/StillImage" />
        <dc:title />
      </cc:Work>
    </rdf:RDF>
  </metadata>
  <defs
     id="defs328" />
  <sodipodi:namedview
     pagecolor="#ffffff"
     bordercolor="#666666"
     borderopacity="1"
     objecttolerance="10"
     gridtolerance="10"
     guidetolerance="10"
     inkscape:pageopacity="0"
     inkscape:pageshadow="2"
     inkscape:window-width="2108"
     inkscape:window-height="1699"
     id="namedview326"
     showgrid="false"
     inkscape:zoom="6.0368421"
     inkscape:cx="53.585795"
     inkscape:cy="65.49648"
     inkscape:window-x="669"
     inkscape:window-y="105"
     inkscape:window-maximized="0"
     inkscape:current-layer="svg324"
     inkscape:document-rotation="0">
    <inkscape:grid
       type="xygrid"
       id="grid2078" />
  </sodipodi:namedview>
  <path
     sodipodi:nodetypes="ccccc"
     style="fill:#202223;fill-opacity:1;stroke:none;stroke-width:2;stroke-linecap:round;stroke-linejoin:round;stroke-miterlimit:4;stroke-dasharray:none;stroke-dashoffset:0;stroke-opacity:0.588028"
     d="M 0,0 H 120 V 380 H 0 Z"
     id="path2916"
     inkscape:connector-curvature="0"
     inkscape:export-xdpi="192"
     inkscape:export-ydpi="192" />
  <path
     sodipodi:nodetypes="cc"
     inkscape:connector-curvature="0"
     id="path3729"
     d="m 60.00057,229.92227 v 14.34741"
     style="fill:none;stroke:#8a8a76;stroke-width:0.7;stroke-linecap:butt;stroke-linejoin:miter;stroke-miterlimit:4;stroke-dasharray:none;stroke-opacity:1"
     inkscape:export-xdpi="192"
     inkscape:export-ydpi="192" />
  <path
     sodipodi:nodetypes="cc"
     inkscape:connector-curvature="0"
     id="path3162"
     d="m 60.00057,262.92227 v 14.79756"
     style="fill:none;stroke:#8a8a76;stroke-width:0.7;stroke-linecap:butt;stroke-linejoin:miter;stroke-miterlimit:4;stroke-dasharray:none;stroke-opacity:1"
     inkscape:export-xdpi="192"
     inkscape:export-ydpi="192" />
  <g
     id="g3727"
     transform="matrix(0.84248596,0,0,0.84232009,-79.020736,10.907536)"
     inkscape:transform-center-x="7.4610052e-05"
     inkscape:transform-center-y="-2.5139326"
     style="stroke-width:1.18708">
    <path
       id="path3721"
       style="fill:none;fill-opacity:1;stroke:#8a8a76;stroke-width:0.712248;stroke-linecap:round;stroke-linejoin:round;stroke-miterlimit:4;stroke-dasharray:none;stroke-dashoffset:0;stroke-opacity:1"
       sodipodi:type="arc"
       sodipodi:cx="165.01245"
       sodipodi:cy="237.86627"
       sodipodi:rx="29.825703"
       sodipodi:ry="29.848837"
       sodipodi:start="2.3561945"
       sodipodi:end="0.78539816"
       sodipodi:open="true"
       sodipodi:arc-type="arc"
       d="m 143.92249,258.97259 a 29.825703,29.848837 0 0 1 0,-42.21263 29.825703,29.848837 0 0 1 42.17992,0 29.825703,29.848837 0 0 1 0,42.21263" />
    <path
       inkscape:transform-center-x="20.726819"
       inkscape:transform-center-y="20.735972"
       style="fill:none;stroke:#8a8a76;stroke-width:0.830957;stroke-linecap:butt;stroke-linejoin:miter;stroke-miterlimit:4;stroke-dasharray:none;stroke-opacity:1"
       d="m 165.01254,237.86624 -23.8779,23.87974"
       id="path3723"
       inkscape:connector-curvature="0"
       sodipodi:nodetypes="cc" />
    <path
       sodipodi:nodetypes="cc"
       inkscape:connector-curvature="0"
       id="path3725"
       d="m 165.01254,237.86624 23.87791,23.87974"
       style="fill:none;stroke:#8a8a76;stroke-width:0.830957;stroke-linecap:butt;stroke-linejoin:miter;stroke-miterlimit:4;stroke-dasharray:none;stroke-opacity:1"
       inkscape:transform-center-y="11.935942"
       inkscape:transform-center-x="-11.931909" />
  </g>
  <rect
     style="fill:#000000;fill-opacity:0.376471;stroke:none;stroke-width:1.24348;stroke-linecap:round;stroke-linejoin:round;stroke-miterlimit:4;stroke-dasharray:none;stroke-dashoffset:0;stroke-opacity:1"
     id="rect2922"
     width="19"
     height="9.0000944"
     x="13"
     y="3.0047913"
     rx="4.5000472"
     ry="4.5000472" />
  <g
     aria-label="Wavetable"
     id="text2946"
     style="font-style:normal;font-variant:normal;font-weight:normal;font-stretch:normal;font-size:19.6076px;line-height:1.25;font-family:'Parkway Lush';-inkscape-font-specification:'Parkway Lush';letter-spacing:0px;word-spacing:0px;fill:#eaeae3;fill-opacity:1;stroke:none;stroke-width:0.948214">
    <path
       d="m 43.69406,18.656197 q 0.03921,0.09804 -0.03921,0.215683 -0.07843,0.117646 0.05882,0.176469 0,0.01961 -0.01961,0.03921 l -0.03921,0.03921 q -0.05882,0.117646 -0.137253,0.235291 -0.05882,0.09804 -0.137253,0.215684 -0.03922,0.03922 -0.07843,0.07843 -0.01961,0.01961 -0.05882,0.05882 -0.176469,0.09804 -0.137254,0.294114 -0.07843,-0.03921 -0.117645,0.01961 -0.01961,0.03922 -0.05882,0.07843 0,0 0.05882,0.05882 0.01961,-0.03921 0.03921,-0.05882 0.01961,-0.03921 0.05882,-0.07843 -0.137253,0.215683 -0.254899,0.411759 -0.117646,0.196076 -0.313722,0.352937 -0.07843,0.05882 -0.117645,0.156861 -0.03922,0.07843 -0.07843,0.176468 l -0.05882,0.117646 q -0.03922,0.117645 -0.09804,0.235291 -0.05882,0.117646 -0.117646,0.235291 -0.05882,0.09804 -0.137253,0.215684 -0.07843,0.117645 -0.156861,0.235291 0,-0.09804 0.01961,-0.156861 H 41.7333 q -0.03921,0.07843 -0.07843,0.156861 -0.03922,0.07843 -0.07843,0.176468 -0.01961,0.03922 -0.03922,0.05882 -0.01961,0 -0.03921,0.03922 -0.09804,0.156861 -0.196076,0.33333 -0.07843,0.15686 -0.176468,0.313721 0.09804,-0.156861 0.176468,-0.313721 0.09804,-0.176469 0.196076,-0.33333 0.01961,-0.03922 0.03921,-0.03922 0.01961,-0.01961 0.03922,-0.05882 l 0.137253,-0.137253 q -0.07843,0.156861 -0.156861,0.333329 -0.07843,0.156861 -0.176468,0.313722 -0.627444,1.176456 -1.274494,2.372519 -0.627444,1.176456 -1.254887,2.352912 -0.196076,0.352937 -0.352937,0.725482 -0.137253,0.352936 -0.352936,0.686266 0.15686,-0.33333 0.274506,-0.647051 0.137253,-0.333329 0.294114,-0.666659 0.117646,-0.274506 0.235291,-0.529405 0.137253,-0.254899 0.274507,-0.529405 -0.156861,0.235291 -0.313722,0.549013 -0.333329,0.627443 -0.647051,1.274494 -0.294114,0.647051 -0.529405,1.313709 -0.03921,0.05882 -0.03921,0.137253 0,0.05882 -0.03922,0.117646 -0.09804,0.215683 -0.196076,0.372544 -0.529405,-0.03921 -0.921557,0.313722 -0.137254,0.117645 -0.235292,0.137253 -0.07843,0 -0.196076,-0.07843 -0.05882,-0.09804 -0.137253,-0.07843 -0.176468,0.05882 -0.235291,-0.01961 -0.05882,-0.09804 -0.07843,-0.215683 -0.03922,-0.156861 -0.05882,-0.294114 -0.01961,-0.156861 -0.03921,-0.313722 -0.05882,-1.05881 -0.07843,-2.11762 0,-1.058811 0.05882,-2.156836 0.01961,-0.117646 0.01961,-0.215684 0,-0.117646 0,-0.215684 -0.03922,0 -0.07843,-0.01961 -0.03921,0.09804 -0.09804,0.176468 -0.05882,0.05882 -0.09804,0.156861 -0.235291,0.392152 -0.49019,0.784304 -0.235291,0.392152 -0.470582,0.784304 -0.450975,0.745089 -0.90195,1.490178 -0.431367,0.725481 -0.882342,1.47057 -0.15686,0.274506 -0.274506,0.549012 -0.117646,0.274507 -0.254899,0.549013 -0.05882,0.117646 -0.156861,0.196076 0.05882,-0.156861 0.117646,-0.294114 0.07843,-0.156861 0.137253,-0.313722 -0.01961,-0.01961 -0.03921,-0.01961 -0.09804,0.215683 -0.215684,0.431367 -0.09804,0.196076 -0.215683,0.41176 h 0.215683 q -0.117645,0.137253 -0.235291,0.254898 -0.09804,0.117646 -0.235291,0.254899 l -0.137253,-0.137253 q -0.09804,0.07843 -0.176469,0.156861 -0.07843,0.05882 -0.176468,0.156861 -0.07843,-0.03922 -0.137253,-0.05882 -0.05882,-0.01961 -0.117646,-0.05882 -0.07843,0.117646 -0.156861,0.254899 -0.05882,0.137253 -0.235291,0.09804 -0.09804,-0.01961 -0.117645,-0.07843 -0.01961,-0.03921 -0.01961,-0.117645 0,-0.05882 0,-0.117646 0.01961,-0.07843 -0.01961,-0.137253 -0.05882,0.09804 -0.117645,0.176468 -0.03922,0.07843 -0.09804,0.176469 -0.254899,-0.07843 -0.215684,-0.372545 0.03922,-0.549012 0.07843,-1.078418 0.05882,-0.529405 0.09804,-1.078417 0.15686,-1.529393 0.411759,-3.058786 0.254899,-1.549 0.588228,-3.117608 0.215684,-1.039203 0.509798,-2.058798 0.294114,-1.019595 0.627443,-2.058798 0.09804,-0.313722 0.235291,-0.549013 0.137253,-0.274506 0.372545,-0.333329 0.137253,0.117646 0.03921,0.294114 -0.07843,0.176468 -0.03921,0.313722 0.117645,0 0.15686,-0.05882 0.03921,-0.05882 0.07843,-0.137253 0.03921,-0.07843 0.03921,-0.137254 0.01961,-0.07843 0.07843,-0.15686 0.03921,-0.09804 0.137253,-0.156861 0.05882,-0.01961 0.09804,0.01961 0.05882,0.01961 0.03922,0.09804 v 0.137254 q 0.07843,-0.05882 0.117645,-0.09804 0.05882,-0.05882 0.09804,-0.09804 0.196076,-0.07843 0.431367,0.254898 0.03922,-0.01961 0.03922,-0.01961 0.01961,-0.01961 0.05882,-0.03921 0.01961,0.03921 0.01961,0.09804 -0.09804,0.49019 -0.196076,0.980379 -0.09804,0.470583 -0.215684,0.960773 -0.352936,1.333317 -0.666658,2.647026 -0.313721,1.313709 -0.549013,2.647026 -0.03921,0.235291 -0.09804,0.470582 -0.03922,0.215684 -0.09804,0.470582 0.117646,-0.137253 0.137254,-0.176468 0.03921,-0.03922 0.05882,-0.196076 0.09804,-0.509798 0.196076,-1.039203 0.09804,-0.529405 0.235291,-1.039202 0.215684,-0.941165 0.431368,-1.843115 0.235291,-0.921557 0.450974,-1.862722 0.07843,-0.333329 0.156861,-0.627443 0.07843,-0.313722 0.156861,-0.647051 0.03921,-0.09804 0.05882,-0.176468 0.01961,-0.07843 0.09804,-0.176468 -0.07843,0.313721 -0.156861,0.627443 -0.05882,0.294114 -0.117646,0.607835 -0.313721,1.313709 -0.607835,2.627419 -0.294114,1.313709 -0.607836,2.647025 -0.03921,0.196076 -0.07843,0.392152 -0.01961,0.196076 -0.05882,0.41176 0.09804,-0.03921 0.137253,-0.117646 0.05882,-0.07843 0.09804,-0.137253 0.568621,-0.784304 1.156849,-1.549 0.607835,-0.784304 1.196063,-1.568608 0.254899,-0.352937 0.588228,-0.705874 0.196076,-0.215683 0.196076,-0.470582 0.07843,-0.529405 0.156861,-1.05881 0.09804,-0.549013 0.254899,-1.078418 0.05882,-0.215684 0.176468,-0.392152 0.03922,-0.07843 0.117646,-0.137253 0.07843,-0.05882 0.137253,-0.137254 0.156861,0.137254 0.117646,0.313722 -0.01961,0.156861 -0.117646,0.372544 0.196076,-0.117645 0.196076,-0.137253 0.05882,-0.09804 0.07843,-0.196076 0.03922,-0.09804 0.07843,-0.196076 0.03921,-0.07843 0.05882,-0.137253 0.03921,-0.05882 0.137253,-0.05882 0.09804,-0.01961 0.09804,0.03921 0,0.05882 0.01961,0.117646 0,0 0,0.09804 0.05882,-0.05882 0.09804,-0.117646 0.05882,-0.05882 0.117646,-0.117645 0.156861,-0.03921 0.235291,0.09804 0.07843,0.117645 0.235291,0.09804 0.01961,0.137253 0.03921,0.274506 0.03922,0.117646 0.01961,0.274506 0,0.215684 -0.01961,0.450975 0,0.235291 -0.01961,0.470583 0,0.03921 -0.01961,0.09804 0,0.05882 0.01961,0.09804 0.156861,0.117645 0.117645,0.294114 -0.03921,0.176468 -0.07843,0.352936 -0.01961,0.03922 -0.01961,0.07843 0.01961,0.03921 0,0.07843 v -0.01961 q -0.03921,0.509797 -0.09804,0.999987 -0.03922,0.470583 -0.07843,0.98038 -0.03921,0.41176 -0.07843,0.843127 -0.01961,0.411759 -0.05882,0.862734 0.05882,-0.03921 0.07843,-0.05882 0.03922,-0.03921 0.07843,-0.05882 0.686266,-1.372532 1.568608,-2.647026 0.901949,-1.274494 1.803899,-2.568596 0.254899,-0.352937 0.509797,-0.705873 0.254899,-0.352937 0.509798,-0.705874 0.05882,-0.07843 0.117646,-0.137253 0.07843,-0.05882 0.137253,-0.137253 0.05882,0 0.07843,0.01961 l -0.117645,0.41176 q 0.01961,0.01961 0.05882,0.01961 l 0.41176,-0.529406 q 0.03921,0 0.07843,0.01961 v 0.254899 q 0.05882,-0.05882 0.09804,-0.117646 0.05882,-0.05882 0.09804,-0.09804 0.156861,0.01961 0.176469,0.03922 0.03921,0.01961 0.07843,0.156861 0.03921,-0.03921 0.137253,-0.07843 z m -11.548876,1.568608 q 0,0.03921 -0.01961,0.07843 0,0.01961 -0.01961,0.09804 0.07843,-0.07843 0.07843,-0.117646 0,0 0,-0.07843 -0.01961,0.01961 -0.03922,0.01961 z m -1.039202,4.470532 q -0.117646,0.588228 -0.235292,1.176456 -0.09804,0.588228 -0.215683,1.176456 0.01961,0 0.01961,0.01961 0.01961,0 0.05882,0 0.215684,-1.529393 0.549013,-3.039178 0.352937,-1.529393 0.725481,-3.058786 -0.07843,0.05882 -0.07843,0.07843 -0.05882,0.215683 -0.117646,0.431367 -0.03922,0.196076 -0.09804,0.41176 -0.03921,0.196076 -0.09804,0.372544 -0.03921,0.176468 -0.09804,0.352937 -0.03922,0.176468 -0.07843,0.352937 -0.03921,0.176468 -0.117646,0.352936 -0.09804,0.176469 -0.07843,0.33333 0.01961,0.15686 -0.01961,0.313721 -0.03922,0.196076 -0.05882,0.372545 -0.01961,0.176468 -0.05882,0.352936 z m -0.568621,3.450938 q 0.03921,-0.176469 0.05882,-0.352937 0.03921,-0.176468 0.07843,-0.352937 h -0.07843 q -0.03922,0.176469 -0.05882,0.352937 -0.01961,0.176468 -0.03922,0.352937 z m 2.019583,-6.764622 q -0.529405,1.88233 -0.882342,3.725444 -0.333329,1.823507 -0.607836,3.686229 0.313722,-1.862722 0.686266,-3.705837 0.372545,-1.843114 0.803912,-3.705836 z m -0.647051,6.196001 q 0.294114,-1.764684 0.666659,-3.490152 0.392151,-1.745077 0.803911,-3.509761 -0.509798,1.725469 -0.882342,3.43133 -0.352937,1.686254 -0.666658,3.411723 -0.03921,0.07843 0,0.137253 l 0.01961,0.01961 z m 6.117571,-5.803849 q -0.05882,0.156861 -0.137253,0.764696 -0.07843,0.588228 -0.137253,1.274494 -0.05882,0.686266 -0.09804,1.294102 -0.03921,0.588228 0,0.745089 l 0.05882,-0.647051 q 0.03921,-0.686266 0.09804,-1.352924 0.07843,-0.666659 0.15686,-1.352925 0.01961,-0.156861 0.05882,-0.294114 0.03921,-0.156861 0.07843,-0.313721 -0.03921,-0.07843 -0.07843,-0.117646 z m -0.274506,7.490103 q 0.01961,-0.09804 0.03921,-0.176468 0.01961,-0.09804 0.05882,-0.196076 h -0.01961 q -0.03921,0.09804 -0.07843,0.196076 -0.01961,0.07843 -0.03921,0.176468 z m 0.09804,-2.490165 q 1.019595,-2.176444 2.372519,-4.294064 -0.07843,0.03921 -0.117645,0.07843 -0.627444,0.941165 -1.176456,1.901937 -0.549013,0.960772 -1.058811,1.96076 -0.03922,0.09804 -0.05882,0.176468 -0.01961,0.07843 -0.03922,0.176469 z m 3.274469,-3.686229 q -0.156861,0.274507 -0.294114,0.529405 -0.117646,0.235292 -0.274507,0.509798 -0.03921,0.05882 -0.09804,0.137253 -0.05882,0.05882 -0.09804,0.117646 -0.215683,0.392152 -0.411759,0.784304 -0.196076,0.372544 -0.41176,0.764696 -0.09804,0.176468 -0.176468,0.352937 -0.05882,0.176468 -0.137253,0.333329 0.01961,-0.03921 0.03921,-0.05882 0.01961,-0.01961 0.03921,-0.05882 l 1.176456,-2.176443 q 0.03921,-0.05882 0.07843,-0.215684 v 0.01961 -0.01961 0.01961 q 0.156861,-0.274506 0.274507,-0.509798 0.137253,-0.254898 0.294114,-0.529405 z m 0.627443,-0.921557 -0.01961,0.01961 -0.01961,0.01961 z m -3.960735,7.764609 q 0.03921,-0.117645 0.09804,-0.235291 0.05882,-0.137253 0.09804,-0.274506 h 0.03921 q -0.03921,0.137253 -0.09804,0.274506 -0.03921,0.117646 -0.09804,0.254899 -0.03921,0 -0.03921,-0.01961 z m 0.372544,-9.137141 q 0.01961,-0.03921 0.01961,-0.05882 0,-0.01961 0.01961,-0.05882 0,-0.01961 0.03922,-0.01961 0,0.09804 -0.01961,0.137253 z m 4.274457,0.294114 q -0.03921,0.07843 -0.176468,0.156861 l 0.05882,-0.117646 0.07843,-0.07843 q 0.03921,0.03921 0.03921,0.03921 z"
       style="font-style:normal;font-variant:normal;font-weight:normal;font-stretch:normal;font-size:19.6076px;font-family:'Parkway Lush';-inkscape-font-specification:'Parkway Lush';text-align:center;text-anchor:middle;fill:#eaeae3;fill-opacity:1;stroke-width:0.948214"
       id="path2138" />
    <path
       d="m 47.988092,28.793326 q -0.09804,0.117645 -0.117645,0.235291 -0.01961,0.09804 -0.176469,0.196076 -0.07843,0.03922 -0.15686,0.07843 -0.05882,0.03922 -0.156861,0.01961 -0.156861,-0.03922 -0.294114,-0.03922 -0.137253,0 -0.313722,0.03922 -0.137253,0.03921 -0.235291,0 -0.07843,-0.05882 -0.176468,-0.117646 -0.352937,-0.294114 -0.450975,-0.784304 -0.156861,-0.647051 -0.09804,-1.352924 v -0.156861 q -0.05882,0 -0.05882,0 -0.313721,0.235291 -0.627443,0.49019 -0.294114,0.235291 -0.627443,0.470582 -0.41176,0.294114 -0.843127,0.549013 -0.41176,0.235291 -0.882342,0.431367 -0.41176,0.156861 -0.745089,0.09804 h -0.235291 q -0.509797,0.03922 -0.764696,-0.215683 -0.254899,-0.274507 -0.215684,-0.764697 0.03921,-0.333329 0.156861,-0.627443 0.117646,-0.313721 0.274506,-0.627443 0.274507,-0.509798 0.607836,-0.921557 0.352937,-0.431367 0.745089,-0.823519 0.64705,-0.647051 1.333316,-1.196064 0.686266,-0.56862 1.47057,-1.039203 0.392152,-0.254898 0.803912,-0.431367 0.431367,-0.176468 0.882342,-0.235291 0.07843,-0.01961 0.156861,0 0.07843,0.01961 0.156861,0.03921 0.05882,0 0.09804,0.01961 0.05882,0.01961 0.09804,0.01961 0.254899,-0.01961 0.392152,0.117646 0.156861,0.117646 0.313722,0.274506 0.05882,0.07843 0,0.156861 -0.05882,0.05882 -0.09804,0.137253 0.09804,-0.05882 0.156861,-0.09804 0.07843,-0.05882 0.176468,-0.117645 0.03922,0.03922 0.07843,0.09804 0.03921,0.05882 0.07843,0.117645 0.254899,-0.117645 0.333329,0.137254 0.03921,0.03922 0.03921,0.117645 0.01961,0.07843 0.117646,0.07843 0.01961,0 0,0.05882 0,0.05882 -0.01961,0.09804 -0.07843,0.156861 -0.137253,0.294114 -0.05882,0.117646 -0.156861,0.254899 -0.215683,0.450975 -0.450974,0.90195 -0.235292,0.450974 -0.470583,0.901949 -0.09804,0.176469 -0.156861,0.352937 -0.05882,0.176468 -0.09804,0.372544 0.05882,-0.15686 0.117646,-0.274506 0.07843,-0.137253 0.137253,-0.254899 h 0.03921 q -0.215683,0.568621 -0.392152,1.117633 -0.03921,-0.03922 -0.03921,-0.137253 -0.03921,0.09804 -0.07843,0.156861 -0.03922,0.05882 -0.03922,0.117646 -0.03921,0.215683 -0.05882,0.450974 0,0.235292 -0.01961,0.470583 0,0.117645 0,0.235291 0,0.117646 0.156861,0.176468 0.01961,0.01961 0,0.07843 0,0.03922 0,0.07843 0.215684,-0.03921 0.254899,0 0.03921,0.01961 0.05882,0.176469 z m 0.352937,-4.352887 h 0.03921 q 0,-0.01961 -0.01961,-0.01961 -0.01961,-0.01961 -0.01961,-0.03921 z m -6.411685,2.548987 q 0.09804,-0.15686 0.196076,-0.313721 0.117646,-0.156861 0.215684,-0.313722 0,0 -0.03921,-0.01961 -0.09804,0.15686 -0.215684,0.313721 -0.09804,0.156861 -0.196076,0.313722 z m -0.411759,-0.09804 q 0.56862,-0.823519 1.215671,-1.509785 0.647051,-0.705873 1.372532,-1.333316 -0.352937,0.215683 -0.784304,0.588228 -0.41176,0.372544 -0.803912,0.784303 -0.372544,0.41176 -0.666658,0.82352 -0.274506,0.392152 -0.333329,0.64705 z m 1.999975,-1.372532 q -0.01961,0 -0.01961,0.01961 0,0 -0.01961,0 -0.01961,0.01961 -0.03922,0.01961 0,0.01961 0.03922,0.01961 l 0.05882,-0.05882 z m -0.568621,0.647051 q -0.215683,0.215684 -0.392152,0.431367 -0.15686,0.215684 -0.254898,0.49019 0.15686,-0.215683 0.313721,-0.450974 0.176469,-0.254899 0.333329,-0.470583 z m 3.490153,-1.274494 q 0.03921,-0.03921 0.07843,-0.09804 0.05882,-0.07843 0.09804,-0.15686 l -0.01961,-0.01961 q -0.01961,0 -0.03921,-0.01961 -0.431367,0.470583 -0.882342,0.941165 -0.431367,0.470582 -0.862735,0.921557 l -0.01961,0.03921 q 0.03921,0 0.05882,-0.01961 0.01961,-0.01961 0.05882,-0.03921 0.392152,-0.392152 0.764697,-0.764697 0.372544,-0.392152 0.764696,-0.784304 z m 0.90195,-1.666646 q 0.03921,-0.03921 0.05882,-0.07843 0.01961,-0.03921 0.05882,-0.07843 -0.294114,0.03921 -0.549012,0.176468 -0.254899,0.137253 -0.49019,0.294114 -0.392152,0.235291 -0.745089,0.509798 -0.352937,0.274506 -0.745089,0.549012 -0.215684,0.215684 -0.450975,0.392152 h -0.09804 q -0.05882,0.03922 -0.117645,0.09804 -0.03922,0.05882 -0.09804,0.09804 h -0.03922 0.03922 q -0.156861,0.117646 -0.294114,0.235291 -0.137254,0.09804 -0.235292,0.254899 -0.294114,0.294114 -0.56862,0.607836 -0.254899,0.294114 -0.509798,0.627443 -0.352936,0.41176 -0.411759,0.941165 -0.01961,0.07843 -0.01961,0.137253 0.01961,0.03921 0.01961,0.137253 0.196076,-0.117645 0.352937,-0.215683 0.176468,-0.09804 0.352936,-0.196076 0.941165,-0.647051 1.705862,-1.411748 0.745088,-0.745088 1.431354,-1.490177 0.686266,-0.764696 1.352925,-1.588216 z m 0.627443,-0.15686 q 0.196076,-0.05882 0.215683,-0.215684 -0.05882,0.05882 -0.09804,0.117646 -0.03921,0.03922 -0.117645,0.09804 z m 0.56862,1.764684 v 0.03921 z m -0.137253,0.09804 q 0.03921,-0.03922 0.137253,-0.05882 -0.156861,0.235291 -0.313721,0.549012 h -0.01961 q 0.01961,-0.03922 0,-0.05882 0,-0.03922 0.03922,-0.07843 0.03921,-0.07843 0.05882,-0.156861 0.03921,-0.09804 0.09804,-0.196075 z m 0.372544,-0.627444 q 0,0.156861 -0.09804,0.274507 -0.07843,0.117645 -0.137253,0.254899 -0.01961,-0.156861 0.05882,-0.274507 0.07843,-0.117645 0.176468,-0.254899 z m -0.235291,0.529406 v 0.03921 z m 0.41176,-0.82352 q 0.01961,-0.03921 0.03921,-0.05882 0.01961,-0.03922 0.01961,-0.05882 h 0.03921 q -0.03921,0.03922 -0.03921,0.05882 0,0.01961 -0.03922,0.05882 z m -4.470533,0.98038 q -0.09804,0.07843 -0.176468,0.156861 -0.05882,0.05882 -0.156861,0.156861 0.01961,-0.07843 0.01961,-0.117646 0.05882,-0.03921 0.09804,-0.09804 0.05882,-0.05882 0.117645,-0.09804 z m -1.137241,1.117633 q -0.333329,0.392152 -0.607835,0.784304 -0.274507,0.392152 -0.49019,0.843127 0.156861,-0.450975 0.431367,-0.843127 0.294114,-0.392152 0.666658,-0.784304 z"
       style="font-style:normal;font-variant:normal;font-weight:normal;font-stretch:normal;font-size:19.6076px;font-family:'Parkway Lush';-inkscape-font-specification:'Parkway Lush';text-align:center;text-anchor:middle;fill:#eaeae3;fill-opacity:1;stroke-width:0.948214"
       id="path2140" />
    <path
       d="m 52.850774,27.6953 q 0.03921,-0.05882 0.07843,-0.117646 0.03921,-0.05882 0.137253,-0.03921 -0.09804,0.117646 -0.176468,0.254899 -0.07843,0.117646 -0.176469,0.254899 -0.09804,0.117645 -0.215683,0.254899 -0.09804,0.117645 -0.215684,0.254898 -0.137253,0.176469 -0.333329,0.235292 -0.176468,0.05882 -0.372544,0.15686 -0.07843,0.03922 -0.176469,0.01961 -0.07843,-0.01961 -0.176468,-0.03921 -0.156861,-0.03922 -0.294114,-0.05882 -0.137253,-0.03922 -0.313722,0 -0.294114,0.03921 -0.411759,-0.137253 -0.156861,-0.156861 -0.274507,-0.333329 -0.117645,-0.176469 -0.15686,-0.41176 -0.07843,-0.529405 -0.09804,-1.05881 -0.01961,-0.549013 0.07843,-1.117634 0.09804,-0.784303 0.313722,-1.568607 0.215683,-0.784304 0.529405,-1.568608 0.137253,-0.313722 0.411759,-0.49019 0.254899,-0.137254 0.254899,0.117645 0,0.05882 -0.01961,0.117646 0,0.05882 0,0.117645 0.01961,0 0.03921,0.01961 0.07843,-0.07843 0.137253,-0.137253 0.05882,-0.07843 0.117646,-0.156861 0.09804,0 0.117645,0.03921 0.03921,0.01961 0.03921,0.07843 0,0.03922 -0.01961,0.09804 0,0.05882 0.01961,0.09804 0.05882,-0.03922 0.09804,-0.07843 0.05882,-0.05882 0.137254,-0.117645 0.09804,0.117645 0.15686,0.235291 0.07843,0.09804 0.176469,0.215683 -0.09804,0.274507 -0.176469,0.588228 -0.05882,0.294114 -0.15686,0.627444 0.05882,-0.05882 0.07843,-0.07843 0.01961,-0.03921 0.05882,-0.07843 -0.09804,0.274506 -0.176469,0.529405 -0.07843,0.254899 -0.15686,0.509798 h -0.01961 q 0.03921,-0.156861 0.07843,-0.294114 0.03922,-0.156861 0.07843,-0.313722 -0.117646,0.235291 -0.235291,0.607836 -0.09804,0.372544 -0.176469,0.764696 -0.07843,0.372544 -0.117645,0.686266 -0.01961,0.313721 0.03921,0.411759 0.09804,-0.01961 0.137253,-0.07843 0.05882,-0.07843 0.09804,-0.137253 0.352937,-0.509798 0.686266,-1.019595 0.352937,-0.529405 0.686266,-1.039203 0.313721,-0.450975 0.588228,-0.921557 0.294114,-0.470583 0.627443,-0.921557 0.156861,-0.274507 0.372544,-0.529406 0.07843,-0.09804 0.156861,-0.176468 0.09804,-0.07843 0.274507,-0.09804 -0.09804,0.156861 -0.176469,0.313722 -0.07843,0.137253 -0.176468,0.294114 0.117645,0 0.196076,-0.05882 0.09804,-0.05882 0.156861,-0.137253 l 0.176468,-0.235292 q 0.117646,-0.15686 0.196076,-0.01961 -0.05882,0.117645 -0.117646,0.254899 -0.05882,0.117645 -0.117645,0.254898 0.01961,0 0,0.01961 0,0 0.01961,0 0.09804,-0.117646 0.196076,-0.235291 0.09804,-0.117646 0.176469,-0.215684 0.137253,0.09804 0.137253,0.156861 0,0.03921 -0.09804,0.313722 0.05882,-0.05882 0.117646,-0.09804 0.05882,-0.05882 0.09804,-0.09804 0,0 0.01961,0.01961 -0.05882,0.137253 -0.117645,0.274507 -0.05882,0.137253 -0.137254,0.254898 -0.509797,0.90195 -1.039202,1.784292 -0.509798,0.882342 -1.019596,1.764684 -0.333329,0.509797 -0.64705,1.039203 -0.313722,0.509797 -0.725481,0.98038 -0.01961,0 -0.01961,0.01961 0.01961,0.01961 0,0.03921 0.09804,-0.01961 0.156861,-0.07843 0.07843,-0.05882 0.117645,-0.137253 0.117646,-0.156861 0.235291,-0.313722 0.117646,-0.176468 0.235292,-0.333329 z m 0.05882,-0.588228 q 0,-0.01961 -0.03921,-0.01961 -0.03921,0.07843 -0.07843,0.156861 -0.03921,0.07843 -0.07843,0.156861 0.03922,-0.07843 0.09804,-0.137253 0.05882,-0.07843 0.09804,-0.156861 z m -0.49019,-0.215684 q 0,0.09804 -0.03921,0.254899 0.03921,-0.05882 0.03921,-0.117645 0.01961,-0.07843 0.05882,-0.137254 z m -0.901949,0.588228 q 0.156861,-0.215683 0.294114,-0.431367 0.137253,-0.215683 0.294114,-0.431367 -0.686266,0.56862 -0.686266,0.941165 0.03922,-0.01961 0.09804,-0.07843 z m 0.333329,0.372545 q 0.07843,-0.09804 0.137253,-0.196076 0.05882,-0.09804 0.156861,-0.196076 0.05882,-0.07843 0.117646,-0.137253 0.05882,-0.07843 0.09804,-0.156861 -0.05882,0 -0.05882,0.01961 -0.137253,0.156861 -0.274506,0.313722 -0.117646,0.156861 -0.254899,0.313722 0.03921,0 0.07843,0.03921 z m 0.823519,-0.392152 q -0.117645,0.117645 -0.313721,0.392152 -0.196076,0.254899 -0.235291,0.392152 0.352936,-0.333329 0.549012,-0.784304 z m 0.392152,0.05882 v 0.01961 z m 2.411735,-4.313672 q 0.03921,-0.05882 0.09804,-0.09804 0.05882,-0.05882 0.09804,-0.117646 -0.156861,0.313722 -0.333329,0.607836 -0.549013,0.941165 -1.098026,1.862722 -0.529405,0.921557 -1.078418,1.862722 -0.03922,0.03922 -0.05882,0.09804 0,0.05882 -0.03921,0.09804 -0.01961,-0.09804 0.01961,-0.196076 0.05882,-0.117646 0.117645,-0.215684 0.294114,-0.470582 0.568621,-0.941165 0.294114,-0.49019 0.56862,-0.98038 0.294114,-0.49019 0.568621,-0.98038 0.294114,-0.49019 0.56862,-0.999987 z m -2.411735,4.333279 v -0.01961 z"
       style="font-style:normal;font-variant:normal;font-weight:normal;font-stretch:normal;font-size:19.6076px;font-family:'Parkway Lush';-inkscape-font-specification:'Parkway Lush';text-align:center;text-anchor:middle;fill:#eaeae3;fill-opacity:1;stroke-width:0.948214"
       id="path2142" />
    <path
       d="m 61.046724,26.263945 q -0.01961,0.01961 0.01961,0.01961 -0.03922,0.09804 -0.07843,0.176468 -0.01961,0.07843 -0.05882,0.156861 -0.05882,0.117646 -0.117645,0.235291 -0.03921,0.117646 -0.09804,0.215684 -0.09804,0.156861 -0.196076,0.254899 -0.41176,0.411759 -0.862735,0.784304 -0.431367,0.372544 -0.941164,0.666658 -0.117646,0.07843 -0.235292,0.137253 -0.117645,0.05882 -0.235291,0.07843 -0.333329,0.05882 -0.666658,0.137253 -0.333329,0.05882 -0.647051,0.03922 -0.588228,-0.03922 -0.960772,-0.333329 -0.352937,-0.313722 -0.549013,-0.823519 -0.117646,-0.313722 -0.137253,-0.647051 -0.01961,-0.352937 0.01961,-0.705874 0.137254,-0.823519 0.450975,-1.607823 0.313722,-0.784304 0.843127,-1.529393 0.313722,-0.431367 0.686266,-0.764696 0.392152,-0.333329 0.882342,-0.549013 0.588228,-0.254899 1.078418,-0.137253 0.725481,0.117646 1.333317,0.56862 0.03922,0.03922 0.09804,0.09804 0.07843,0.03922 0.117645,0.09804 0.352937,0.352937 0.01961,0.921558 -0.215684,0.372544 -0.470583,0.745088 -0.254898,0.352937 -0.56862,0.686266 -0.117646,0.117646 -0.215684,0.254899 -0.09804,0.117646 -0.215683,0.254899 0,0.176468 -0.156861,0.176468 -0.09804,0.09804 -0.196076,0.215684 -0.07843,0.09804 -0.176468,0.196076 -0.274507,0.274506 -0.568621,0.529405 -0.274506,0.254899 -0.56862,0.529405 -0.05882,0.03922 -0.137253,0.09804 -0.05882,0.03921 -0.137253,0.07843 -0.05882,0.01961 -0.215684,0.01961 -0.03921,0.117646 -0.03921,0.215684 0,0.333329 0.176468,0.431367 0.09804,0.05882 0.196076,0 0.117646,-0.05882 0.215684,-0.117646 0.999987,-0.509797 1.882329,-1.392139 0.09804,-0.09804 0.156861,-0.196076 0.07843,-0.09804 0.156861,-0.196076 0.07843,-0.07843 0.137253,-0.137253 0.05882,-0.05882 0.137253,-0.09804 -0.03921,0.176468 -0.137253,0.352936 -0.07843,0.156861 -0.117646,0.33333 0.09804,-0.09804 0.156861,-0.176469 0.05882,-0.09804 0.156861,-0.196076 0.09804,-0.07843 0.137253,-0.176468 0.03921,-0.09804 0.176469,-0.156861 0.05882,0.09804 -0.01961,0.196076 -0.07843,0.09804 -0.03921,0.215684 0.07843,-0.09804 0.137253,-0.176469 0.07843,-0.09804 0.137253,-0.176468 0.117646,0.07843 0.117646,0.137253 0.01961,0.05882 -0.07843,0.333329 0.03922,-0.07843 0.09804,-0.137253 0.05882,-0.07843 0.117646,-0.156861 z M 59.6938,25.028667 q 0.05882,-0.07843 0.137253,-0.117646 0.07843,-0.05882 0.07843,-0.156861 -0.176468,0.137253 -0.215683,0.274507 z m 0.745088,-0.999988 q -0.117645,0.176468 -0.254898,0.352937 -0.117646,0.176468 -0.235292,0.352937 0.215684,-0.137254 0.313722,-0.313722 0.117646,-0.196076 0.235291,-0.372544 -0.01961,-0.01961 -0.05882,-0.01961 z m -0.411759,-0.07843 q -0.09804,0.117645 -0.176469,0.235291 -0.05882,0.117645 -0.137253,0.235291 0.03922,0 0.05882,0.01961 0.07843,-0.117646 0.137253,-0.235292 0.07843,-0.117645 0.176469,-0.235291 -0.01961,0 -0.03922,0 0,-0.01961 -0.01961,-0.01961 z m -3.43133,0.313721 q 0.56862,-0.686266 1.078418,-1.254886 -0.03921,-0.03922 -0.03921,-0.03922 -0.313722,0.15686 -0.549013,0.450974 -0.215684,0.294114 -0.49019,0.843127 z m 0.549013,0.137253 q 0.156861,-0.215683 0.274506,-0.411759 0.137253,-0.196076 0.274507,-0.41176 -0.03922,0 -0.03922,-0.01961 -0.352936,0.352936 -0.56862,0.823519 0.01961,0.01961 0.05882,0.01961 z m 1.117633,-0.843126 q -0.254899,0.215683 -0.41176,0.49019 -0.15686,0.254898 -0.254898,0.529405 0.15686,-0.254899 0.333329,-0.509798 0.176468,-0.254899 0.333329,-0.509797 z m 0.333329,0 q -0.196076,0.117645 -0.431367,0.411759 -0.215684,0.274507 -0.41176,0.627443 -0.176468,0.33333 -0.333329,0.705874 -0.137253,0.352937 -0.156861,0.627443 0.215684,-0.627443 0.529406,-1.215671 0.313721,-0.588228 0.803911,-1.156848 z m -1.254886,2.470557 q -0.03921,0.03922 -0.03921,0.09804 0.01961,0.05882 0,0.156861 0.137253,-0.156861 0.235291,-0.274507 0.09804,-0.117645 0.196076,-0.235291 0.392152,-0.431367 0.745088,-0.862734 0.372545,-0.450975 0.666659,-0.941165 0.176468,-0.254899 0.313721,-0.627443 0.05882,-0.333329 -0.274506,-0.156861 -0.07843,0.03921 -0.117646,0.07843 -0.450974,0.313721 -0.764696,0.803911 -0.333329,0.470583 -0.56862,0.960773 -0.235291,0.490189 -0.392152,0.999987 z m -0.137253,0.823519 q 0.03921,-0.03922 0.05882,-0.05882 0.03922,-0.03921 0.05882,-0.07843 0.313722,-0.333329 0.607836,-0.647051 0.313721,-0.333329 0.588228,-0.666658 0.235291,-0.274507 0.470582,-0.56862 0.235291,-0.313722 0.450975,-0.607836 0.05882,-0.07843 0.09804,-0.156861 0.05882,-0.07843 0.01961,-0.176468 -0.117645,0.03922 -0.15686,0.117645 -0.03922,0.07843 -0.09804,0.156861 -0.156861,0.235291 -0.313722,0.470583 -0.156861,0.215683 -0.333329,0.431367 -0.333329,0.392152 -0.666659,0.764696 -0.333329,0.372544 -0.666658,0.764696 -0.03921,0.05882 -0.09804,0.117646 -0.03921,0.03922 -0.01961,0.137253 z m 3.215646,-2.196051 q -0.01961,0 -0.03921,0 0,-0.01961 -0.01961,-0.01961 0.137253,-0.215684 0.274506,-0.431368 0.137254,-0.235291 0.294114,-0.470582 0.01961,0.01961 0.03922,0.01961 -0.137254,0.235291 -0.274507,0.470582 -0.137253,0.215684 -0.274506,0.431367 z"
       style="font-style:normal;font-variant:normal;font-weight:normal;font-stretch:normal;font-size:19.6076px;font-family:'Parkway Lush';-inkscape-font-specification:'Parkway Lush';text-align:center;text-anchor:middle;fill:#eaeae3;fill-opacity:1;stroke-width:0.948214"
       id="path2144" />
    <path
       d="m 67.693679,21.636552 q 0.03921,0.09804 -0.09804,0.235291 -0.117645,0.137253 -0.274506,0.137253 -0.254899,0.01961 -0.49019,0.01961 -0.235291,0 -0.470583,0.01961 -0.215683,0 -0.431367,0.01961 -0.215683,0 -0.431367,0.01961 -0.196076,0.01961 -0.254899,0.05882 -0.03921,0.03922 -0.137253,0.196076 -0.117646,0.215684 -0.235291,0.450975 -0.117646,0.215684 -0.274507,0.431367 0.01961,-0.05882 0.03922,-0.117645 0.01961,-0.07843 0.03921,-0.156861 h -0.03921 q -0.156861,0.333329 -0.313722,0.647051 -0.156861,0.313721 -0.313722,0.647051 0.156861,0.03921 0.137254,0.03921 -0.117646,0.313721 -0.235292,0.627443 -0.117645,0.294114 -0.235291,0.588228 0,0.07843 -0.01961,0.09804 -0.215684,0.156861 -0.254899,0.333329 -0.01961,0.176468 -0.09804,0.352937 -0.09804,0.313721 -0.176469,0.627443 -0.05882,0.294114 -0.15686,0.607836 -0.03922,0.176468 -0.07843,0.352936 -0.01961,0.176469 -0.05882,0.352937 -0.117645,0.352937 0.07843,0.666659 0.03921,0.117645 -0.09804,0.196076 0,-0.03922 -0.01961,-0.05882 0,-0.03922 0.01961,-0.07843 h -0.05882 q -0.05882,0.117646 -0.156861,0.156861 -0.09804,0.01961 -0.176468,-0.01961 -0.07843,-0.01961 -0.117646,0 -0.03921,0 -0.117645,0.03921 -0.215684,0.156861 -0.372545,0.01961 -0.352936,-0.333329 -0.333329,-0.843126 0.01961,-0.470583 0.09804,-0.941165 0.07843,-0.470583 0.215684,-0.960773 0.372544,-1.411747 0.823519,-2.823494 0.09804,-0.274506 0.196076,-0.529405 0.117645,-0.274506 0.215683,-0.549013 0.05882,-0.07843 0.05882,-0.176468 -0.03921,-0.03922 -0.05882,-0.03922 -0.431367,0.03922 -0.803911,-0.05882 -0.352937,-0.09804 -0.745089,-0.137253 -0.156861,-0.01961 -0.215683,-0.07843 -0.03922,-0.05882 0,-0.235291 -0.01961,-0.01961 -0.03922,-0.01961 -0.01961,0 -0.03921,-0.01961 -0.156861,-0.03922 -0.176468,-0.176469 -0.01961,-0.137253 0.117645,-0.274506 0.235292,-0.274506 0.49019,-0.274506 0.274507,-0.01961 0.549013,-0.01961 0.274507,-0.01961 0.549013,-0.03922 h 0.862734 q 0.156861,0 0.196076,-0.01961 0.05882,-0.03921 0.156861,-0.196076 0.274506,-0.431367 0.529405,-0.843127 0.274507,-0.431367 0.549013,-0.862734 0.137253,-0.196076 0.333329,-0.392152 0.05882,-0.05882 0.117646,-0.117645 0.05882,-0.05882 0.137253,-0.117646 0.313722,-0.215684 0.333329,0.09804 -0.01961,0.01961 0.03921,0.156861 0.117646,-0.156861 0.137254,-0.176469 0.09804,-0.09804 0.196076,-0.03922 0.01961,0.01961 0,0.05882 0,0.03921 0.01961,0.07843 -0.03921,0.117646 -0.05882,0.196076 0.05882,-0.05882 0.117646,-0.09804 0.05882,-0.05882 0.137253,-0.117645 0.05882,0.09804 0.117646,0.196076 0.05882,0.09804 0.156861,0.196076 -0.07843,0.156861 -0.176469,0.333329 -0.07843,0.156861 -0.176468,0.333329 l 0.294114,-0.294114 q -0.176469,0.431367 -0.41176,0.823519 -0.215683,0.372545 -0.431367,0.784304 0.07843,0.01961 0.137253,0.03921 0.05882,0 0.117646,0 0.372544,0.01961 0.686266,0.09804 0.333329,0.07843 0.607835,0.274507 0.09804,0.03921 0.137254,0.117645 0.05882,0.07843 0.117645,0.176469 z m -3.764659,2.921532 q -0.01961,0.03921 -0.01961,0.07843 0,0.03922 -0.01961,0.07843 0.01961,0 0.01961,-0.01961 0.01961,-0.03921 0.01961,-0.05882 0,-0.03922 0.01961,-0.07843 z m 1.901937,-3.745051 q 0.03921,-0.117646 0.03921,-0.156861 -0.01961,0.03921 -0.03921,0.07843 -0.01961,0.03922 -0.03921,0.07843 z m 0.05882,-0.196076 q 0.03921,-0.03922 0.05882,-0.05882 0.03921,-0.01961 0.05882,-0.05882 0.09804,-0.176468 0.196076,-0.333329 0.09804,-0.176469 0.196076,-0.352937 0.01961,-0.03921 0.01961,-0.07843 0,-0.03922 0.01961,-0.07843 -0.137253,0.235291 -0.274507,0.49019 -0.137253,0.235291 -0.274506,0.470583 z m -1.686254,3.411722 q 0.03922,-0.09804 0.07843,-0.215684 0.05882,-0.117645 0.09804,-0.235291 0.01961,0 0.01961,0.01961 0.01961,0 0.05882,0 -0.05882,0.09804 -0.117645,0.215683 -0.03922,0.117646 -0.07843,0.235292 -0.01961,-0.01961 -0.05882,-0.01961 z"
       style="font-style:normal;font-variant:normal;font-weight:normal;font-stretch:normal;font-size:19.6076px;font-family:'Parkway Lush';-inkscape-font-specification:'Parkway Lush';text-align:center;text-anchor:middle;fill:#eaeae3;fill-opacity:1;stroke-width:0.948214"
       id="path2146" />
    <path
       d="m 71.968066,28.793326 q -0.09804,0.117645 -0.117645,0.235291 -0.01961,0.09804 -0.176469,0.196076 -0.07843,0.03922 -0.156861,0.07843 -0.05882,0.03922 -0.15686,0.01961 -0.156861,-0.03922 -0.294114,-0.03922 -0.137253,0 -0.313722,0.03922 -0.137253,0.03921 -0.235291,0 -0.07843,-0.05882 -0.176468,-0.117646 -0.352937,-0.294114 -0.450975,-0.784304 -0.156861,-0.647051 -0.09804,-1.352924 v -0.156861 q -0.05882,0 -0.05882,0 -0.313722,0.235291 -0.627443,0.49019 -0.294114,0.235291 -0.627443,0.470582 -0.41176,0.294114 -0.843127,0.549013 -0.41176,0.235291 -0.882342,0.431367 -0.41176,0.156861 -0.745089,0.09804 h -0.235291 q -0.509798,0.03922 -0.764696,-0.215683 -0.254899,-0.274507 -0.215684,-0.764697 0.03921,-0.333329 0.156861,-0.627443 0.117645,-0.313721 0.274506,-0.627443 0.274507,-0.509798 0.607836,-0.921557 0.352936,-0.431367 0.745088,-0.823519 0.647051,-0.647051 1.333317,-1.196064 0.686266,-0.56862 1.47057,-1.039203 0.392152,-0.254898 0.803912,-0.431367 0.431367,-0.176468 0.882342,-0.235291 0.07843,-0.01961 0.156861,0 0.07843,0.01961 0.15686,0.03921 0.05882,0 0.09804,0.01961 0.05882,0.01961 0.09804,0.01961 0.254899,-0.01961 0.392152,0.117646 0.156861,0.117646 0.313722,0.274506 0.05882,0.07843 0,0.156861 -0.05882,0.05882 -0.09804,0.137253 0.09804,-0.05882 0.156861,-0.09804 0.07843,-0.05882 0.176468,-0.117645 0.03921,0.03922 0.07843,0.09804 0.03922,0.05882 0.07843,0.117645 0.254899,-0.117645 0.333329,0.137254 0.03922,0.03922 0.03922,0.117645 0.01961,0.07843 0.117646,0.07843 0.01961,0 0,0.05882 0,0.05882 -0.01961,0.09804 -0.07843,0.156861 -0.137253,0.294114 -0.05882,0.117646 -0.156861,0.254899 -0.215683,0.450975 -0.450975,0.90195 -0.235291,0.450974 -0.470582,0.901949 -0.09804,0.176469 -0.156861,0.352937 -0.05882,0.176468 -0.09804,0.372544 0.05882,-0.15686 0.117646,-0.274506 0.07843,-0.137253 0.137253,-0.254899 h 0.03921 q -0.215683,0.568621 -0.392152,1.117633 -0.03921,-0.03922 -0.03921,-0.137253 -0.03921,0.09804 -0.07843,0.156861 -0.03922,0.05882 -0.03922,0.117646 -0.03921,0.215683 -0.05882,0.450974 0,0.235292 -0.01961,0.470583 0,0.117645 0,0.235291 0,0.117646 0.156861,0.176468 0.01961,0.01961 0,0.07843 0,0.03922 0,0.07843 0.215683,-0.03921 0.254899,0 0.03921,0.01961 0.05882,0.176469 z m 0.352937,-4.352887 h 0.03921 q 0,-0.01961 -0.01961,-0.01961 -0.01961,-0.01961 -0.01961,-0.03921 z m -6.411685,2.548987 q 0.09804,-0.15686 0.196076,-0.313721 0.117646,-0.156861 0.215684,-0.313722 0,0 -0.03922,-0.01961 -0.09804,0.15686 -0.215683,0.313721 -0.09804,0.156861 -0.196076,0.313722 z m -0.411759,-0.09804 q 0.56862,-0.823519 1.215671,-1.509785 0.64705,-0.705873 1.372532,-1.333316 -0.352937,0.215683 -0.784304,0.588228 -0.41176,0.372544 -0.803912,0.784303 -0.372544,0.41176 -0.666658,0.82352 -0.274507,0.392152 -0.333329,0.64705 z m 1.999975,-1.372532 q -0.01961,0 -0.01961,0.01961 0,0 -0.01961,0 -0.01961,0.01961 -0.03921,0.01961 0,0.01961 0.03921,0.01961 l 0.05882,-0.05882 z m -0.568621,0.647051 q -0.215683,0.215684 -0.392152,0.431367 -0.156861,0.215684 -0.254899,0.49019 0.156861,-0.215683 0.313722,-0.450974 0.176468,-0.254899 0.333329,-0.470583 z m 3.490153,-1.274494 q 0.03921,-0.03921 0.07843,-0.09804 0.05882,-0.07843 0.09804,-0.15686 l -0.01961,-0.01961 q -0.01961,0 -0.03921,-0.01961 -0.431368,0.470583 -0.882342,0.941165 -0.431368,0.470582 -0.862735,0.921557 l -0.01961,0.03921 q 0.03921,0 0.05882,-0.01961 0.01961,-0.01961 0.05882,-0.03921 0.392152,-0.392152 0.764697,-0.764697 0.372544,-0.392152 0.764696,-0.784304 z m 0.90195,-1.666646 q 0.03921,-0.03921 0.05882,-0.07843 0.01961,-0.03921 0.05882,-0.07843 -0.294114,0.03921 -0.549013,0.176468 -0.254898,0.137253 -0.49019,0.294114 -0.392152,0.235291 -0.745088,0.509798 -0.352937,0.274506 -0.745089,0.549012 -0.215684,0.215684 -0.450975,0.392152 h -0.09804 q -0.05882,0.03922 -0.117646,0.09804 -0.03921,0.05882 -0.09804,0.09804 h -0.03921 0.03921 q -0.15686,0.117646 -0.294114,0.235291 -0.137253,0.09804 -0.235291,0.254899 -0.294114,0.294114 -0.56862,0.607836 -0.254899,0.294114 -0.509798,0.627443 -0.352937,0.41176 -0.411759,0.941165 -0.01961,0.07843 -0.01961,0.137253 0.01961,0.03921 0.01961,0.137253 0.196076,-0.117645 0.352936,-0.215683 0.176469,-0.09804 0.352937,-0.196076 0.941165,-0.647051 1.705861,-1.411748 0.745089,-0.745088 1.431355,-1.490177 0.686266,-0.764696 1.352925,-1.588216 z m 0.627443,-0.15686 q 0.196076,-0.05882 0.215683,-0.215684 -0.05882,0.05882 -0.09804,0.117646 -0.03921,0.03922 -0.117645,0.09804 z m 0.56862,1.764684 v 0.03921 z m -0.137253,0.09804 q 0.03922,-0.03922 0.137253,-0.05882 -0.156861,0.235291 -0.313722,0.549012 h -0.01961 q 0.01961,-0.03922 0,-0.05882 0,-0.03922 0.03921,-0.07843 0.03921,-0.07843 0.05882,-0.156861 0.03921,-0.09804 0.09804,-0.196075 z m 0.372544,-0.627444 q 0,0.156861 -0.09804,0.274507 -0.07843,0.117645 -0.137253,0.254899 -0.01961,-0.156861 0.05882,-0.274507 0.07843,-0.117645 0.176468,-0.254899 z m -0.235291,0.529406 v 0.03921 z m 0.41176,-0.82352 q 0.01961,-0.03921 0.03921,-0.05882 0.01961,-0.03922 0.01961,-0.05882 h 0.03922 q -0.03922,0.03922 -0.03922,0.05882 0,0.01961 -0.03921,0.05882 z m -4.470533,0.98038 q -0.09804,0.07843 -0.176468,0.156861 -0.05882,0.05882 -0.156861,0.156861 0.01961,-0.07843 0.01961,-0.117646 0.05882,-0.03921 0.09804,-0.09804 0.05882,-0.05882 0.117646,-0.09804 z m -1.137241,1.117633 q -0.333329,0.392152 -0.607835,0.784304 -0.274507,0.392152 -0.49019,0.843127 0.15686,-0.450975 0.431367,-0.843127 0.294114,-0.392152 0.666658,-0.784304 z"
       style="font-style:normal;font-variant:normal;font-weight:normal;font-stretch:normal;font-size:19.6076px;font-family:'Parkway Lush';-inkscape-font-specification:'Parkway Lush';text-align:center;text-anchor:middle;fill:#eaeae3;fill-opacity:1;stroke-width:0.948214"
       id="path2148" />
    <path
       d="m 79.144443,27.381578 q -0.01961,0.03922 -0.03921,0.07843 -0.01961,0.01961 -0.01961,0.05882 0.450975,-0.392152 0.803912,-0.862735 0.352937,-0.470582 0.686266,-0.960772 -0.05882,0.137253 -0.137253,0.274506 -0.274507,0.470583 -0.627443,0.90195 -0.352937,0.411759 -0.764697,0.803911 -0.235291,0.254899 -0.509797,0.450975 -0.274507,0.196076 -0.568621,0.352937 -0.215683,0.137253 -0.450975,0.196076 -0.215683,0.03921 -0.450974,0.03921 -0.215684,0 -0.431367,0 -0.196076,0 -0.41176,-0.01961 -0.843127,-0.05882 -1.372532,-0.509798 -0.07843,-0.05882 -0.156861,-0.117646 -0.05882,-0.05882 -0.156861,-0.117645 -0.03921,0.117645 -0.137253,0.235291 -0.09804,0.09804 0,0.215684 v 0.03921 q -0.176468,0.352937 -0.411759,0.705873 0.03921,-0.07843 0.05882,-0.137253 0.01961,-0.07843 0.05882,-0.156861 0,-0.01961 -0.01961,-0.01961 l -0.352937,0.588228 h -0.01961 q 0.03921,-0.07843 0.07843,-0.235291 -0.09804,0.05882 -0.215684,0.117645 -0.09804,0.03922 -0.215684,0.09804 0.03922,-0.117645 0.05882,-0.196076 0.01961,-0.07843 0.05882,-0.156861 0,-0.01961 -0.01961,-0.01961 -0.03922,0.03921 -0.05882,0.09804 -0.01961,0.05882 -0.05882,0.09804 -0.03921,0.05882 -0.07843,0.117645 -0.03921,0.03922 -0.07843,0.07843 -0.03921,0.03921 -0.09804,0.05882 -0.03921,0.01961 -0.05882,0 -0.07843,-0.03922 -0.03921,-0.137254 0.01961,-0.09804 0.03921,-0.176468 0.01961,-0.07843 0.05882,-0.176468 -0.137253,0.03922 -0.156861,0.15686 -0.01961,0.09804 -0.117645,0.156861 -0.09804,-0.01961 -0.09804,-0.07843 0,-0.05882 0.01961,-0.156861 0.03921,-0.09804 0.07843,-0.215684 0.05882,-0.117645 0.09804,-0.215683 0.294114,-0.627443 0.49019,-1.235279 0.215683,-0.607836 0.431367,-1.235279 0.392152,-1.13724 0.803911,-2.254874 0.41176,-1.117633 0.921558,-2.235266 0.254898,-0.56862 0.509797,-1.117633 0.254899,-0.549013 0.529405,-1.117633 0.09804,-0.156861 0.176469,-0.294114 0.07843,-0.137253 0.176468,-0.294114 0.137253,-0.254899 0.41176,-0.313722 -0.03922,0.117646 -0.07843,0.235291 -0.03921,0.09804 -0.07843,0.215684 0.137253,-0.03922 0.176468,-0.09804 0.05882,-0.07843 0.117646,-0.137253 0.03921,-0.03922 0.05882,-0.09804 0.03921,-0.05882 0.09804,-0.01961 0.03921,0.01961 0.03921,0.176469 l 0.176468,-0.05882 q 0.294114,0.294114 0.07843,0.745089 -0.274507,0.509797 -0.509798,1.019595 -0.235291,0.49019 -0.470582,0.999987 -0.215684,0.450975 -0.392152,0.882342 -0.176469,0.431367 -0.372545,0.882342 -0.03921,0.137253 -0.09804,0.274507 -0.05882,0.117645 -0.117645,0.274506 -0.03922,0.07843 -0.07843,0.235291 h 0.05882 q 0.117646,-0.313721 0.235291,-0.607835 0.137254,-0.294114 0.254899,-0.607836 0.01961,0 0.03921,0.01961 -0.09804,0.254898 -0.215683,0.509797 -0.09804,0.254899 -0.196076,0.509798 l 0.03921,0.03922 q 0.117646,-0.117646 0.196076,-0.176468 0.882342,-0.843127 1.882329,-1.39214 0.529406,-0.294114 0.999988,-0.333329 0.49019,-0.03922 0.941165,0.137253 0.450975,0.176468 0.745089,0.529405 0.215683,0.235291 0.235291,0.529405 0.01961,0.294114 -0.01961,0.627444 -0.07843,0.56862 -0.333329,1.117633 -0.254899,0.529405 -0.588228,1.05881 -0.235291,0.352937 -0.49019,0.705874 -0.235291,0.333329 -0.549013,0.64705 z m -2.647026,-3.411722 q -0.215683,0.215684 -0.450974,0.431367 -0.215684,0.196076 -0.352937,0.470583 0,0 0.03921,0.03922 0.196076,-0.235291 0.392152,-0.450975 0.196076,-0.235291 0.41176,-0.450975 0,0 -0.03922,-0.03921 z m -0.56862,1.764684 q -0.01961,0 -0.03921,0 0,-0.01961 -0.01961,-0.01961 -0.137253,0.196076 -0.294114,0.392152 -0.137253,0.196076 -0.294114,0.41176 0.215684,-0.156861 0.333329,-0.372544 0.117646,-0.215684 0.313722,-0.41176 z m -0.49019,-0.549013 h 0.03921 q 0.03921,-0.07843 0.07843,-0.117645 h -0.05882 z m -0.176468,1.372532 q -0.196076,0.196076 -0.274507,0.333329 -0.05882,0.117646 -0.07843,0.254899 0.07843,-0.156861 0.196076,-0.294114 0.117645,-0.137253 0.156861,-0.294114 z m 1.901937,0.568621 q 0.470582,-0.352937 0.843126,-0.764697 0.372545,-0.431367 0.705874,-0.901949 0.627443,-0.921557 0.823519,-1.901937 0.01961,-0.117646 0.01961,-0.235292 0,-0.117645 -0.05882,-0.215683 -0.09804,0.03921 -0.176468,0.05882 -0.07843,0.01961 -0.156861,0.05882 -0.666659,0.313722 -1.156849,0.725482 -0.176468,0.15686 -0.372544,0.313721 -0.176468,0.156861 -0.352937,0.313722 l -0.01961,0.01961 h -0.01961 l 0.03921,-0.01961 q -0.05882,-0.05882 -0.117645,0 -0.03921,0.03922 -0.05882,0.05882 0,0.01961 -0.03921,0.05882 v -0.01961 q -1.215671,1.215671 -2.156836,2.686241 0.09804,-0.03922 0.117645,0.01961 0.01961,0.03922 0.03922,0.07843 0.05882,-0.05882 0.09804,-0.09804 0.05882,-0.05882 0.117645,-0.137253 0.05882,0.176468 0.09804,0.196076 0.03921,0.01961 0.196076,-0.03922 0.07843,0.07843 0.137253,0.117646 0.117646,0.137253 0.294114,0.176468 0.196076,0.01961 0.41176,-0.09804 0.196076,-0.09804 0.372544,-0.196076 0.196076,-0.117645 0.372545,-0.254898 z m 1.313709,-0.588228 q 0.215683,-0.274507 0.411759,-0.529406 0.215684,-0.254898 0.33333,-0.588228 -0.254899,0.01961 -0.352937,0.294114 -0.07843,0.215684 -0.215684,0.392152 -0.137253,0.176469 -0.294114,0.352937 -0.09804,0.137253 -0.215683,0.254899 -0.09804,0.117646 -0.196076,0.254899 0.03921,0.03921 0.03921,0.03921 0.137253,-0.117646 0.254899,-0.215684 0.117645,-0.117645 0.235291,-0.254898 z m 0.764696,-1.137241 q 0.09804,-0.176469 0.07843,-0.274507 h -0.07843 q 0.01961,0.137254 0,0.274507 z m 0.549013,0.803911 q -0.03921,0.07843 -0.09804,0.137254 -0.03921,0.05882 -0.07843,0.137253 -0.03922,0.05882 -0.07843,0.117645 -0.03921,0.05882 -0.09804,0.137254 0.274507,-0.274507 0.49019,-0.549013 0.215684,-0.294114 0.372545,-0.666659 -0.196076,0.156861 -0.215684,0.215684 -0.03921,0.137253 -0.117646,0.254899 -0.07843,0.09804 -0.176468,0.215683 z m -0.607836,0.07843 q 0.01961,0.01961 0.05882,0.01961 0.313722,-0.352936 0.568621,-0.843126 -0.01961,0 -0.03922,0 0,-0.01961 -0.01961,-0.01961 -0.156861,0.215684 -0.294114,0.431367 -0.117646,0.196076 -0.274507,0.41176 z M 77.04643,24.793375 q 0,-0.03922 0,-0.05882 0.01961,-0.01961 0.01961,-0.03922 0.05882,-0.03921 0.09804,-0.05882 0.03921,-0.01961 0.07843,-0.03922 -0.07843,0.117646 -0.156861,0.196076 z m -1.745076,2.137229 q 0.01961,-0.03922 0.03921,-0.07843 0.03921,-0.05882 0.07843,-0.09804 0,0.01961 0.01961,0.01961 -0.03921,0.03921 -0.05882,0.07843 -0.01961,0.03921 -0.03921,0.07843 z m 0.862734,-1.137241 q 0.03921,-0.03921 0.03921,-0.05882 0.01961,-0.01961 0.05882,-0.05882 h 0.03921 q -0.03921,0.03922 -0.07843,0.07843 -0.01961,0.01961 -0.03921,0.05882 0,-0.01961 -0.01961,-0.01961 z"
       style="font-style:normal;font-variant:normal;font-weight:normal;font-stretch:normal;font-size:19.6076px;font-family:'Parkway Lush';-inkscape-font-specification:'Parkway Lush';text-align:center;text-anchor:middle;fill:#eaeae3;fill-opacity:1;stroke-width:0.948214"
       id="path2150" />
    <path
       d="m 83.830653,23.28359 q -0.215684,0.705874 -0.431367,1.411747 -0.196076,0.705874 -0.41176,1.39214 -0.01961,0.09804 -0.03921,0.176468 0,0.07843 -0.01961,0.156861 -0.09804,0.294114 -0.196076,0.607836 -0.07843,0.294114 -0.15686,0.588228 -0.117646,0.450974 -0.215684,0.882342 -0.09804,0.431367 -0.215684,0.882342 0.01961,0.03921 0,0.05882 -0.01961,0.01961 -0.01961,0.05882 -0.09804,-0.03922 -0.07843,-0.117645 0.01961,-0.09804 0,-0.176469 -0.07843,0.117646 -0.15686,0.254899 -0.05882,0.117646 -0.215684,0.137253 -0.03921,-0.05882 -0.05882,-0.117645 -0.01961,-0.05882 -0.05882,-0.137254 -0.03922,0.235292 -0.05882,0.41176 -0.01961,0.137253 -0.176469,0.176468 -0.176468,0.03922 -0.176468,-0.117645 -0.01961,-0.09804 -0.01961,-0.176469 0.01961,-0.07843 0.03921,-0.176468 0.137254,-0.686266 0.274507,-1.352924 0.137253,-0.686266 0.294114,-1.372532 0.372544,-1.725469 0.862734,-3.411723 0.49019,-1.686253 0.999988,-3.411722 0.07843,-0.215683 0.137253,-0.411759 0.07843,-0.215684 0.156861,-0.431368 0.03921,-0.09804 0.03921,-0.176468 0.01961,-0.09804 -0.07843,-0.196076 -0.07843,0.196076 -0.137254,0.372544 -0.05882,0.156861 -0.117645,0.313722 -0.156861,0.627443 -0.352937,1.235279 -0.196076,0.588228 -0.372544,1.196063 -0.33333,1.176456 -0.647051,2.352912 -0.313722,1.156848 -0.588228,2.352912 l -0.470583,2.058798 q -0.01961,0.215684 -0.03921,0.450975 -0.01961,0.215683 -0.03921,0.431367 0,0.03922 -0.01961,0.09804 0,0.05882 0,0.09804 0,0.156861 -0.137253,0.176468 -0.117645,0.03922 -0.156861,-0.05882 -0.05882,-0.235292 -0.03921,-0.470583 0.05882,-0.333329 0.09804,-0.647051 0.05882,-0.313721 0.117646,-0.64705 0.176468,-0.882342 0.372544,-1.745077 0.196076,-0.882342 0.41176,-1.764684 0.333329,-1.352924 0.705873,-2.686241 0.392152,-1.333317 0.843127,-2.686241 0.05882,-0.176468 0.117646,-0.352937 0.07843,-0.196076 0.176468,-0.372544 0.05882,-0.09804 0.137253,-0.196076 0.07843,-0.117646 0.176469,-0.215684 0.176468,-0.196076 0.235291,0.03922 0.03921,0.117645 0.03921,0.196076 h 0.01961 q 0.07843,-0.09804 0.137253,-0.176469 0.05882,-0.09804 0.156861,-0.196076 0,0 0.137253,0 0.05882,0.215684 0,0.431367 -0.05882,0.215684 -0.117646,0.431368 0.05882,-0.156861 0.156861,-0.313722 0.05882,-0.137253 0.09804,-0.274506 0.03921,-0.137254 0.07843,-0.254899 0.196076,-0.03921 0.254898,0.05882 0.05882,0.07843 0.117646,0.176468 0.03921,-0.01961 0.05882,-0.01961 0.03921,-0.01961 0.07843,-0.05882 l 0.03921,0.03922 q 0,0.09804 -0.01961,0.196076 0,0.09804 -0.03921,0.196076 -0.372545,1.196063 -0.745089,2.392127 -0.352937,1.196063 -0.745089,2.431342 z m 0.274506,-1.549 q 0.01961,-0.03922 0.01961,-0.05882 0,-0.03922 0.01961,-0.07843 0,0 -0.03922,-0.01961 -0.01961,0.03921 -0.01961,0.07843 0,0.03922 -0.01961,0.07843 z m 0.941165,-2.882317 q -0.215683,0.509797 -0.392152,1.039202 -0.156861,0.529406 -0.313721,1.078418 0.235291,-0.529405 0.392152,-1.05881 0.176468,-0.529405 0.313721,-1.05881 z m -1.05881,1.411747 q -0.03921,0.05882 -0.03921,0.117645 0.01961,0.03922 -0.01961,0.07843 0.156861,-0.372545 0.274506,-0.745089 0.137254,-0.372544 0.274507,-0.764696 0.01961,-0.07843 0.01961,-0.235291 -0.03921,0.15686 -0.05882,0.215683 -0.117646,0.294114 -0.254899,0.588228 -0.137253,0.274506 -0.176469,0.588228 0.01961,0.03922 0,0.07843 -0.01961,0.03922 -0.01961,0.07843 z m 1.372532,-1.39214 q 0.03921,-0.15686 0.07843,-0.294114 0.05882,-0.137253 0.137253,-0.274506 -0.05882,0.215684 -0.09804,0.41176 -0.03921,0.196076 -0.09804,0.392152 -0.274506,0.784303 -0.509797,1.549 -0.235291,0.745089 -0.509798,1.509785 -0.509797,1.529393 -0.98038,3.058785 -0.450975,1.529393 -0.843127,3.058786 -0.07843,0.235291 -0.137253,0.49019 -0.03921,0.235291 -0.137253,0.470582 0.03921,-0.176468 0.07843,-0.372544 0.03922,-0.196076 0.07843,-0.392152 0.117645,-0.450975 0.235291,-0.921557 0.117646,-0.470583 0.254899,-0.921557 0,-0.156861 0.01961,-0.215684 0.07843,-0.215684 0.137254,-0.431367 0.07843,-0.215684 0.15686,-0.431367 0.294114,-0.921557 0.568621,-1.803899 0.274506,-0.882342 0.56862,-1.8039 0.235291,-0.745088 0.49019,-1.509785 0.254899,-0.784304 0.509798,-1.568608 z"
       style="font-style:normal;font-variant:normal;font-weight:normal;font-stretch:normal;font-size:19.6076px;font-family:'Parkway Lush';-inkscape-font-specification:'Parkway Lush';text-align:center;text-anchor:middle;fill:#eaeae3;fill-opacity:1;stroke-width:0.948214"
       id="path2152" />
    <path
       d="m 90.163871,26.263945 q -0.01961,0.01961 0.01961,0.01961 -0.03921,0.09804 -0.07843,0.176468 -0.01961,0.07843 -0.05882,0.156861 -0.05882,0.117646 -0.117646,0.235291 -0.03921,0.117646 -0.09804,0.215684 -0.09804,0.156861 -0.196076,0.254899 -0.411759,0.411759 -0.862734,0.784304 -0.431367,0.372544 -0.941165,0.666658 -0.117645,0.07843 -0.235291,0.137253 -0.117646,0.05882 -0.235291,0.07843 -0.333329,0.05882 -0.666659,0.137253 -0.333329,0.05882 -0.64705,0.03922 -0.588228,-0.03922 -0.960773,-0.333329 -0.352937,-0.313722 -0.549013,-0.823519 -0.117645,-0.313722 -0.137253,-0.647051 -0.01961,-0.352937 0.01961,-0.705874 0.137253,-0.823519 0.450975,-1.607823 0.313721,-0.784304 0.843126,-1.529393 0.313722,-0.431367 0.686266,-0.764696 0.392152,-0.333329 0.882342,-0.549013 0.588228,-0.254899 1.078418,-0.137253 0.725481,0.117646 1.333317,0.56862 0.03922,0.03922 0.09804,0.09804 0.07843,0.03922 0.117646,0.09804 0.352936,0.352937 0.01961,0.921558 -0.215683,0.372544 -0.470582,0.745088 -0.254899,0.352937 -0.568621,0.686266 -0.117645,0.117646 -0.215683,0.254899 -0.09804,0.117646 -0.215684,0.254899 0,0.176468 -0.156861,0.176468 -0.09804,0.09804 -0.196075,0.215684 -0.07843,0.09804 -0.176469,0.196076 -0.274506,0.274506 -0.56862,0.529405 -0.274507,0.254899 -0.568621,0.529405 -0.05882,0.03922 -0.137253,0.09804 -0.05882,0.03921 -0.137253,0.07843 -0.05882,0.01961 -0.215684,0.01961 -0.03921,0.117646 -0.03921,0.215684 0,0.333329 0.176469,0.431367 0.09804,0.05882 0.196076,0 0.117645,-0.05882 0.215683,-0.117646 0.999988,-0.509797 1.88233,-1.392139 0.09804,-0.09804 0.15686,-0.196076 0.07843,-0.09804 0.156861,-0.196076 0.07843,-0.07843 0.137253,-0.137253 0.05882,-0.05882 0.137254,-0.09804 -0.03922,0.176468 -0.137254,0.352936 -0.07843,0.156861 -0.117645,0.33333 0.09804,-0.09804 0.156861,-0.176469 0.05882,-0.09804 0.15686,-0.196076 0.09804,-0.07843 0.137254,-0.176468 0.03922,-0.09804 0.176468,-0.156861 0.05882,0.09804 -0.01961,0.196076 -0.07843,0.09804 -0.03921,0.215684 0.07843,-0.09804 0.137253,-0.176469 0.07843,-0.09804 0.137254,-0.176468 0.117645,0.07843 0.117645,0.137253 0.01961,0.05882 -0.07843,0.333329 0.03921,-0.07843 0.09804,-0.137253 0.05882,-0.07843 0.117645,-0.156861 z m -1.352924,-1.235278 q 0.05882,-0.07843 0.137253,-0.117646 0.07843,-0.05882 0.07843,-0.156861 -0.176469,0.137253 -0.215684,0.274507 z m 0.745089,-0.999988 q -0.117646,0.176468 -0.254899,0.352937 -0.117646,0.176468 -0.235291,0.352937 0.215683,-0.137254 0.313721,-0.313722 0.117646,-0.196076 0.235292,-0.372544 -0.01961,-0.01961 -0.05882,-0.01961 z m -0.41176,-0.07843 q -0.09804,0.117645 -0.176468,0.235291 -0.05882,0.117645 -0.137253,0.235291 0.03921,0 0.05882,0.01961 0.07843,-0.117646 0.137254,-0.235292 0.07843,-0.117645 0.176468,-0.235291 -0.01961,0 -0.03921,0 0,-0.01961 -0.01961,-0.01961 z m -3.43133,0.313721 q 0.568621,-0.686266 1.078418,-1.254886 -0.03921,-0.03922 -0.03921,-0.03922 -0.313721,0.15686 -0.549013,0.450974 -0.215683,0.294114 -0.49019,0.843127 z m 0.549013,0.137253 q 0.156861,-0.215683 0.274507,-0.411759 0.137253,-0.196076 0.274506,-0.41176 -0.03922,0 -0.03922,-0.01961 -0.352937,0.352936 -0.568621,0.823519 0.01961,0.01961 0.05882,0.01961 z m 1.117633,-0.843126 q -0.254898,0.215683 -0.411759,0.49019 -0.156861,0.254898 -0.254899,0.529405 0.156861,-0.254899 0.333329,-0.509798 0.176469,-0.254899 0.333329,-0.509797 z m 0.33333,0 q -0.196076,0.117645 -0.431368,0.411759 -0.215683,0.274507 -0.411759,0.627443 -0.176469,0.33333 -0.333329,0.705874 -0.137254,0.352937 -0.156861,0.627443 0.215683,-0.627443 0.529405,-1.215671 0.313722,-0.588228 0.803912,-1.156848 z m -1.254887,2.470557 q -0.03921,0.03922 -0.03921,0.09804 0.01961,0.05882 0,0.156861 0.137253,-0.156861 0.235291,-0.274507 0.09804,-0.117645 0.196076,-0.235291 0.392152,-0.431367 0.745089,-0.862734 0.372544,-0.450975 0.666658,-0.941165 0.176469,-0.254899 0.313722,-0.627443 0.05882,-0.333329 -0.274507,-0.156861 -0.07843,0.03921 -0.117645,0.07843 -0.450975,0.313721 -0.764696,0.803911 -0.33333,0.470583 -0.568621,0.960773 -0.235291,0.490189 -0.392152,0.999987 z m -0.137253,0.823519 q 0.03922,-0.03922 0.05882,-0.05882 0.03921,-0.03921 0.05882,-0.07843 0.313721,-0.333329 0.607835,-0.647051 0.313722,-0.333329 0.588228,-0.666658 0.235291,-0.274507 0.470583,-0.56862 0.235291,-0.313722 0.450974,-0.607836 0.05882,-0.07843 0.09804,-0.156861 0.05882,-0.07843 0.01961,-0.176468 -0.117646,0.03922 -0.156861,0.117645 -0.03921,0.07843 -0.09804,0.156861 -0.156861,0.235291 -0.313721,0.470583 -0.156861,0.215683 -0.33333,0.431367 -0.333329,0.392152 -0.666658,0.764696 -0.333329,0.372544 -0.666658,0.764696 -0.03922,0.05882 -0.09804,0.117646 -0.03922,0.03922 -0.01961,0.137253 z m 3.215646,-2.196051 q -0.01961,0 -0.03921,0 0,-0.01961 -0.01961,-0.01961 0.137254,-0.215684 0.274507,-0.431368 0.137253,-0.235291 0.294114,-0.470582 0.01961,0.01961 0.03921,0.01961 -0.137253,0.235291 -0.274506,0.470582 -0.137254,0.215684 -0.274507,0.431367 z"
       style="font-style:normal;font-variant:normal;font-weight:normal;font-stretch:normal;font-size:19.6076px;font-family:'Parkway Lush';-inkscape-font-specification:'Parkway Lush';text-align:center;text-anchor:middle;fill:#eaeae3;fill-opacity:1;stroke-width:0.948214"
       id="path2154" />
  </g>
  <rect
     style="fill:#000000;fill-opacity:0.376471;stroke:none;stroke-width:1.24348;stroke-linecap:round;stroke-linejoin:round;stroke-miterlimit:4;stroke-dasharray:none;stroke-dashoffset:0;stroke-opacity:1"
     id="rect2948"
     width="19"
     height="9.0000944"
     x="88"
     y="368.00479"
     rx="4.5000472"
     ry="4.5000472" />
  <rect
     style="fill:#000000;fill-opacity:0.376471;stroke:none;stroke-width:1.24348;stroke-linecap:round;stroke-linejoin:round;stroke-miterlimit:4;stroke-dasharray:none;stroke-dashoffset:0;stroke-opacity:1"
     id="rect2984"
     width="19"
     height="9.0000944"
     x="88"
     y="3.0047913"
     rx="4.5000472"
     ry="4.5000472" />
  <rect
     style="fill:#000000;fill-opacity:0.376471;stroke:none;stroke-width:1.24348;stroke-linecap:round;stroke-linejoin:round;stroke-miterlimit:4;stroke-dasharray:none;stroke-dashoffset:0;stroke-opacity:1"
     id="rect3006"
     width="19"
     height="9.0000944"
     x="13"
     y="368.00479"
     rx="4.5000472"
     ry="4.5000472" />
  <path
     inkscape:connector-curvature="0"
     id="path3072"
     d="m 64.39648,359.14648 c -1.47909,1.66132 -4.45034,4.73431 -9.05664,5.60352 l -0.004,-0.0137 c -1.10325,0.32619 -2.1809,0.54505 -2.99609,0.61719 -0.36404,0.0322 -0.64618,0.0252 -0.86524,0.006 0.36165,-0.29969 1.07799,-0.7228 1.98243,-1.1543 1.91376,-0.91304 4.39078,-1.82527 5.84765,-3.06836 l -0.0117,-0.0137 c 0.019,-0.0189 0.0596,-0.0277 0.0781,-0.0469 l -1.27539,-1.35742 c -0.47423,0.40465 -1.74986,0.93284 -2.75976,1.42187 -0.86741,0.31698 -1.78876,0.63299 -2.83789,0.87305 -2.60646,0.59642 -5.53029,0.83833 -7.31055,0.47266 l -0.375,1.82617 c 1.49114,0.30628 3.30065,0.20811 5.14453,-0.0234 -0.24682,0.25743 -0.50604,0.51523 -0.58203,0.94141 -0.0959,0.53762 0.17128,1.13357 0.54687,1.48437 0.3885,0.36304 0.80124,0.44227 1.21875,0.49414 0.41752,0.0519 0.86726,0.0439 1.36329,0 0.89246,-0.079 1.93474,-0.29731 3.00781,-0.5957 v 0.004 c 0.90735,-0.16015 1.67837,-0.47557 2.47265,-0.76367 l 0.59375,1.21289 c 1.01516,-0.40119 2.38162,-0.77624 3.63672,-0.8711 1.25511,-0.0949 2.34443,0.11227 2.94922,0.61133 l 1.1875,-1.4375 c -1.13905,-0.93993 -2.64102,-1.11276 -4.09765,-1.02539 1.34364,-1.19486 2.54636,-2.50362 3.48828,-3.91602 0.01,-0.0111 0.0371,-0.032 0.0469,-0.043 l -0.006,-0.004 c 0.025,-0.0378 0.0652,-0.0696 0.0898,-0.10742 z m 3.43165,0.50196 c -1.73315,2.15165 -1.38841,4.67345 0.0625,6.07031 1.4509,1.39686 3.88422,1.80101 5.92773,0.49219 l -1.03711,-1.6211 c -1.31649,0.84318 -2.73905,0.52933 -3.55664,-0.25781 -0.551,-0.53047 -0.6638,-1.2861 -0.4375,-2.1543 0.51332,0.57234 1.0865,1.06405 1.76172,1.38868 1.19424,0.57416 2.59764,0.6971 4.10351,0.39257 l -0.38086,-1.88671 c -1.18912,0.24047 -2.1189,0.12789 -2.88867,-0.24219 -0.76976,-0.37009 -1.41993,-1.02056 -1.95508,-2.0293 z"
     style="color:#000000;font-style:normal;font-variant:normal;font-weight:normal;font-stretch:normal;font-size:medium;line-height:normal;font-family:sans-serif;font-variant-ligatures:normal;font-variant-position:normal;font-variant-caps:normal;font-variant-numeric:normal;font-variant-alternates:normal;font-feature-settings:normal;text-indent:0;text-align:start;text-decoration:none;text-decoration-line:none;text-decoration-style:solid;text-decoration-color:#000000;letter-spacing:normal;word-spacing:normal;text-transform:none;writing-mode:lr-tb;direction:ltr;text-orientation:mixed;dominant-baseline:auto;baseline-shift:baseline;text-anchor:start;white-space:normal;shape-padding:0;clip-rule:nonzero;display:inline;overflow:visible;visibility:visible;isolation:auto;mix-blend-mode:normal;color-interpolation:sRGB;color-interpolation-filters:linearRGB;solid-color:#000000;solid-opacity:1;vector-effect:none;fill:#eaeae3;fill-opacity:1;fill-rule:nonzero;stroke:none;stroke-width:1.864;stroke-linecap:butt;stroke-linejoin:miter;stroke-miterlimit:0;stroke-dasharray:none;stroke-dashoffset:0;stroke-opacity:1;color-rendering:auto;image-rendering:auto;shape-rendering:auto;text-rendering:auto;enable-background:accumulate" />
  <g
     aria-label="INDEX"
     id="text3114"
     style="font-style:normal;font-variant:normal;font-weight:600;font-stretch:normal;font-size:8.83619px;line-height:1.25;font-family:Montserrat;-inkscape-font-specification:'Montserrat Semi-Bold';letter-spacing:0px;word-spacing:0px;fill:#eaeae3;fill-opacity:1;stroke:none;stroke-width:1.00001">
    <path
       d="m 46.121469,167.1487 h 1.148705 v 6.18533 h -1.148705 z"
       style="font-style:normal;font-variant:normal;font-weight:600;font-stretch:normal;font-family:Montserrat;-inkscape-font-specification:'Montserrat Semi-Bold';text-align:center;text-anchor:middle;fill:#eaeae3;fill-opacity:1;stroke-width:1.00001"
       id="path2224" />
    <path
       d="m 54.43631,167.1487 v 6.18533 h -0.945473 l -3.410769,-4.18835 v 4.18835 h -1.139869 v -6.18533 h 0.945473 l 3.410769,4.18835 v -4.18835 z"
       style="font-style:normal;font-variant:normal;font-weight:600;font-stretch:normal;font-family:Montserrat;-inkscape-font-specification:'Montserrat Semi-Bold';text-align:center;text-anchor:middle;fill:#eaeae3;fill-opacity:1;stroke-width:1.00001"
       id="path2226" />
    <path
       d="m 56.097509,167.1487 h 2.703874 q 0.989654,0 1.758402,0.38879 0.768749,0.37996 1.192886,1.08685 0.424137,0.69806 0.424137,1.61702 0,0.91897 -0.424137,1.62586 -0.424137,0.69806 -1.192886,1.08685 -0.768748,0.37996 -1.758402,0.37996 h -2.703874 z m 2.650857,5.21335 q 0.680387,0 1.192886,-0.25625 0.521335,-0.26509 0.795257,-0.74224 0.282758,-0.48599 0.282758,-1.1222 0,-0.6362 -0.282758,-1.11336 -0.273922,-0.48599 -0.795257,-0.74224 -0.512499,-0.26508 -1.192886,-0.26508 h -1.502152 v 4.24137 z"
       style="font-style:normal;font-variant:normal;font-weight:600;font-stretch:normal;font-family:Montserrat;-inkscape-font-specification:'Montserrat Semi-Bold';text-align:center;text-anchor:middle;fill:#eaeae3;fill-opacity:1;stroke-width:1.00001"
       id="path2228" />
    <path
       d="m 68.035187,172.37089 v 0.96314 h -4.639 v -6.18533 h 4.515293 v 0.96314 h -3.366589 v 1.60819 h 2.986633 v 0.94547 h -2.986633 v 1.70539 z"
       style="font-style:normal;font-variant:normal;font-weight:600;font-stretch:normal;font-family:Montserrat;-inkscape-font-specification:'Montserrat Semi-Bold';text-align:center;text-anchor:middle;fill:#eaeae3;fill-opacity:1;stroke-width:1.00001"
       id="path2230" />
    <path
       d="m 73.142478,173.33403 -1.678876,-2.35043 -1.661204,2.35043 h -1.307756 l 2.297409,-3.15452 -2.173703,-3.03081 h 1.29892 l 1.581678,2.20021 1.564006,-2.20021 h 1.245903 l -2.164867,2.98663 2.323918,3.1987 z"
       style="font-style:normal;font-variant:normal;font-weight:600;font-stretch:normal;font-family:Montserrat;-inkscape-font-specification:'Montserrat Semi-Bold';text-align:center;text-anchor:middle;fill:#eaeae3;fill-opacity:1;stroke-width:1.00001"
       id="path2232" />
  </g>
  <rect
     ry="2.6516504"
     rx="2.6516504"
     y="304.73599"
     x="45.43927"
     height="43.215649"
     width="29.076094"
     id="rect3116"
     style="fill:#585a4e;fill-opacity:1;stroke:none;stroke-width:0.541;stroke-linecap:round;stroke-linejoin:round;stroke-miterlimit:0;stroke-dasharray:none;stroke-dashoffset:0;stroke-opacity:1" />
  <g
     aria-label="WAVE"
     id="text3120"
     style="font-style:normal;font-variant:normal;font-weight:600;font-stretch:normal;font-size:6.55225px;line-height:1.25;font-family:Montserrat;-inkscape-font-specification:'Montserrat Semi-Bold';letter-spacing:0px;word-spacing:0px;fill:#ffffff;fill-opacity:1;stroke:#ffffff;stroke-width:0.100012;stroke-miterlimit:4;stroke-dasharray:none;stroke-opacity:1">
    <path
       d="m 56.857636,310.30786 -1.520122,4.58658 h -0.90421 l -1.13354,-3.39407 -1.153196,3.39407 h -0.910762 l -1.520122,-4.58658 h 0.884553 l 1.140092,3.4858 1.185957,-3.4858 h 0.78627 l 1.159748,3.50546 1.172853,-3.50546 z"
       style="font-style:normal;font-variant:normal;font-weight:600;font-stretch:normal;font-family:Montserrat;-inkscape-font-specification:'Montserrat Semi-Bold';text-align:center;text-anchor:middle;fill:#ffffff;fill-opacity:1;stroke:#ffffff;stroke-width:0.100012;stroke-miterlimit:4;stroke-dasharray:none;stroke-opacity:1"
       id="path2175" />
    <path
       d="m 60.382736,313.83298 h -2.293287 l -0.452106,1.06146 h -0.878001 l 2.063959,-4.58658 h 0.838688 l 2.07051,4.58658 h -0.891106 z m -0.281747,-0.66833 -0.864897,-2.00499 -0.858344,2.00499 z"
       style="font-style:normal;font-variant:normal;font-weight:600;font-stretch:normal;font-family:Montserrat;-inkscape-font-specification:'Montserrat Semi-Bold';text-align:center;text-anchor:middle;fill:#ffffff;fill-opacity:1;stroke:#ffffff;stroke-width:0.100012;stroke-miterlimit:4;stroke-dasharray:none;stroke-opacity:1"
       id="path2177" />
    <path
       d="m 66.266643,310.30786 -1.998436,4.58658 h -0.838688 l -2.004988,-4.58658 h 0.923867 l 1.526674,3.53822 1.539779,-3.53822 z"
       style="font-style:normal;font-variant:normal;font-weight:600;font-stretch:normal;font-family:Montserrat;-inkscape-font-specification:'Montserrat Semi-Bold';text-align:center;text-anchor:middle;fill:#ffffff;fill-opacity:1;stroke:#ffffff;stroke-width:0.100012;stroke-miterlimit:4;stroke-dasharray:none;stroke-opacity:1"
       id="path2179" />
    <path
       d="m 70.191421,314.18024 v 0.7142 H 66.75149 v -4.58658 h 3.3482 v 0.7142 h -2.496408 v 1.19251 h 2.214661 v 0.70109 h -2.214661 v 1.26458 z"
       style="font-style:normal;font-variant:normal;font-weight:600;font-stretch:normal;font-family:Montserrat;-inkscape-font-specification:'Montserrat Semi-Bold';text-align:center;text-anchor:middle;fill:#ffffff;fill-opacity:1;stroke:#ffffff;stroke-width:0.100012;stroke-miterlimit:4;stroke-dasharray:none;stroke-opacity:1"
       id="path2181" />
  </g>
  <g
     aria-label="PHASE"
     id="text3130"
     style="font-style:normal;font-variant:normal;font-weight:600;font-stretch:normal;font-size:6.55225px;line-height:1.25;font-family:Montserrat;-inkscape-font-specification:'Montserrat Semi-Bold';letter-spacing:0px;word-spacing:0px;fill:#ffffff;fill-opacity:1;stroke:#ffffff;stroke-width:0.100012;stroke-miterlimit:4;stroke-dasharray:none;stroke-opacity:1">
    <path
       d="m 14.903051,264.3133 q 0.596255,0 1.035256,0.19656 0.445553,0.19657 0.681434,0.5635 0.235881,0.36692 0.235881,0.87145 0,0.49797 -0.235881,0.87145 -0.235881,0.36692 -0.681434,0.56349 -0.439001,0.19657 -1.035256,0.19657 h -1.035255 v 1.32355 h -0.851793 v -4.58657 z m -0.03931,2.54227 q 0.556941,0 0.84524,-0.23588 0.288299,-0.23588 0.288299,-0.67488 0,-0.439 -0.288299,-0.67488 -0.288299,-0.23589 -0.84524,-0.23589 h -0.995942 v 1.82153 z"
       style="font-style:normal;font-variant:normal;font-weight:600;font-stretch:normal;font-family:Montserrat;-inkscape-font-specification:'Montserrat Semi-Bold';text-align:center;text-anchor:middle;fill:#ffffff;fill-opacity:1;stroke:#ffffff;stroke-width:0.100012;stroke-miterlimit:4;stroke-dasharray:none;stroke-opacity:1"
       id="path2213" />
    <path
       d="m 21.782911,264.3133 v 4.58657 h -0.851793 v -1.96567 h -2.371914 v 1.96567 h -0.851793 v -4.58657 h 0.851793 v 1.8936 h 2.371914 v -1.8936 z"
       style="font-style:normal;font-variant:normal;font-weight:600;font-stretch:normal;font-family:Montserrat;-inkscape-font-specification:'Montserrat Semi-Bold';text-align:center;text-anchor:middle;fill:#ffffff;fill-opacity:1;stroke:#ffffff;stroke-width:0.100012;stroke-miterlimit:4;stroke-dasharray:none;stroke-opacity:1"
       id="path2215" />
    <path
       d="m 25.989452,267.83841 h -2.293287 l -0.452105,1.06146 h -0.878002 l 2.063959,-4.58657 h 0.838688 l 2.070511,4.58657 H 26.44811 Z m -0.281746,-0.66833 -0.864897,-2.00499 -0.858345,2.00499 z"
       style="font-style:normal;font-variant:normal;font-weight:600;font-stretch:normal;font-family:Montserrat;-inkscape-font-specification:'Montserrat Semi-Bold';text-align:center;text-anchor:middle;fill:#ffffff;fill-opacity:1;stroke:#ffffff;stroke-width:0.100012;stroke-miterlimit:4;stroke-dasharray:none;stroke-opacity:1"
       id="path2217" />
    <path
       d="m 29.344194,268.96539 q -0.530732,0 -1.028703,-0.1507 -0.491419,-0.1507 -0.779718,-0.39968 l 0.294852,-0.66178 q 0.281746,0.22277 0.687986,0.36692 0.412792,0.1376 0.825583,0.1376 0.511076,0 0.760061,-0.1638 0.255538,-0.16381 0.255538,-0.43245 0,-0.19657 -0.144149,-0.32106 -0.137598,-0.13105 -0.353822,-0.20312 -0.216224,-0.0721 -0.589702,-0.16381 -0.52418,-0.12449 -0.851793,-0.24899 -0.32106,-0.12449 -0.556941,-0.38658 -0.229329,-0.26864 -0.229329,-0.72075 0,-0.38003 0.20312,-0.68798 0.209672,-0.31451 0.622464,-0.49797 0.419344,-0.18347 1.022151,-0.18347 0.419344,0 0.825583,0.10484 0.40624,0.10484 0.701091,0.3014 l -0.268642,0.66178 q -0.301404,-0.17691 -0.629016,-0.26864 -0.327613,-0.0917 -0.635569,-0.0917 -0.504523,0 -0.753508,0.17036 -0.242434,0.17035 -0.242434,0.4521 0,0.19657 0.137598,0.32106 0.144149,0.12449 0.360373,0.19657 0.216225,0.0721 0.589703,0.16381 0.511075,0.11794 0.838688,0.24898 0.327612,0.12449 0.556941,0.38658 0.235881,0.26209 0.235881,0.70765 0,0.38003 -0.209672,0.68798 -0.20312,0.30796 -0.622464,0.49142 -0.419344,0.18346 -1.022151,0.18346 z"
       style="font-style:normal;font-variant:normal;font-weight:600;font-stretch:normal;font-family:Montserrat;-inkscape-font-specification:'Montserrat Semi-Bold';text-align:center;text-anchor:middle;fill:#ffffff;fill-opacity:1;stroke:#ffffff;stroke-width:0.100012;stroke-miterlimit:4;stroke-dasharray:none;stroke-opacity:1"
       id="path2219" />
    <path
       d="m 35.483652,268.18568 v 0.71419 h -3.439931 v -4.58657 h 3.348199 v 0.71419 H 32.895513 V 266.22 h 2.214661 v 0.70109 h -2.214661 v 1.26459 z"
       style="font-style:normal;font-variant:normal;font-weight:600;font-stretch:normal;font-family:Montserrat;-inkscape-font-specification:'Montserrat Semi-Bold';text-align:center;text-anchor:middle;fill:#ffffff;fill-opacity:1;stroke:#ffffff;stroke-width:0.100012;stroke-miterlimit:4;stroke-dasharray:none;stroke-opacity:1"
       id="path2221" />
  </g>
  <g
     transform="matrix(0.30646106,0,0,0.30595939,37.01511,221.49611)"
     style="stroke:#8a8a76;stroke-width:3.26573;stroke-opacity:1"
     id="g3170"
     inkscape:transform-center-x="0.00021848387"
     inkscape:transform-center-y="-1.1416065">
    <path
       sodipodi:open="true"
       sodipodi:end="0.78539816"
       sodipodi:start="2.3561945"
       sodipodi:ry="36.592316"
       sodipodi:rx="36.566761"
       sodipodi:cy="111.02563"
       sodipodi:cx="75.001015"
       sodipodi:type="arc"
       style="opacity:1;fill:none;fill-opacity:1;stroke:#8a8a76;stroke-width:1.95944;stroke-linecap:round;stroke-linejoin:round;stroke-miterlimit:4;stroke-dasharray:none;stroke-dashoffset:0;stroke-opacity:1"
       id="path3164"
       sodipodi:arc-type="arc"
       d="m 49.14441,136.9003 a 36.566761,36.592316 0 0 1 0,-51.749348 36.566761,36.592316 0 0 1 51.71321,10e-7 36.566761,36.592316 0 0 1 0,51.749347" />
    <path
       sodipodi:nodetypes="cc"
       inkscape:connector-curvature="0"
       id="path3166"
       d="M 75.001018,111.02563 45.726352,140.3003"
       style="fill:none;stroke:#8a8a76;stroke-width:2.28602;stroke-linecap:butt;stroke-linejoin:miter;stroke-miterlimit:4;stroke-dasharray:none;stroke-opacity:1"
       inkscape:transform-center-y="14.637335"
       inkscape:transform-center-x="14.637333" />
    <path
       inkscape:transform-center-x="-14.637336"
       inkscape:transform-center-y="14.637335"
       style="fill:none;stroke:#8a8a76;stroke-width:2.28602;stroke-linecap:butt;stroke-linejoin:miter;stroke-miterlimit:4;stroke-dasharray:none;stroke-opacity:1"
       d="M 75.001018,111.02563 104.27569,140.3003"
       id="path3168"
       inkscape:connector-curvature="0"
       sodipodi:nodetypes="cc" />
  </g>
  <path
     sodipodi:nodetypes="cc"
     inkscape:connector-curvature="0"
     id="path3229"
     d="m 103.55342,184.88264 -7.23502,7.23503"
     style="fill:none;stroke:#eaeae3;stroke-width:0.7;stroke-linecap:butt;stroke-linejoin:miter;stroke-miterlimit:4;stroke-dasharray:none;stroke-opacity:1"
     inkscape:export-xdpi="192"
     inkscape:export-ydpi="192" />
  <path
     id="path3231"
     style="fill:none;stroke:#eaeae3;stroke-width:0.700001;stroke-linecap:butt;stroke-linejoin:miter;stroke-miterlimit:4;stroke-dasharray:none;stroke-opacity:1"
     d="m 96.67348,237.70745 v -2.68819 h 2.55888 v -2.6882 h 2.55887 v -2.68819 h 2.55888"
     sodipodi:nodetypes="ccccccc" />
  <path
     sodipodi:nodetypes="cc"
     inkscape:connector-curvature="0"
     id="path1828"
     d="m 15.5,185 v 7"
     style="fill:none;stroke:#eaeae3;stroke-width:0.7;stroke-linecap:butt;stroke-linejoin:miter;stroke-miterlimit:4;stroke-dasharray:none;stroke-opacity:1"
     inkscape:export-xdpi="192"
     inkscape:export-ydpi="192" />
  <path
     sodipodi:nodetypes="cc"
     inkscape:connector-curvature="0"
     id="path1833"
     d="m 19.5,186 v 6"
     style="fill:none;stroke:#eaeae3;stroke-width:0.7;stroke-linecap:butt;stroke-linejoin:miter;stroke-miterlimit:4;stroke-dasharray:none;stroke-opacity:1"
     inkscape:export-xdpi="192"
     inkscape:export-ydpi="192" />
  <path
     sodipodi:nodetypes="cc"
     inkscape:connector-curvature="0"
     id="path1837"
     d="m 23.5,187 v 5"
     style="fill:none;stroke:#eaeae3;stroke-width:0.7;stroke-linecap:butt;stroke-linejoin:miter;stroke-miterlimit:4;stroke-dasharray:none;stroke-opacity:1"
     inkscape:export-xdpi="192"
     inkscape:export-ydpi="192" />
  <path
     sodipodi:nodetypes="cc"
     inkscape:connector-curvature="0"
     id="path1839"
     d="m 15.5,230 v 7"
     style="fill:none;stroke:#eaeae3;stroke-width:0.7;stroke-linecap:butt;stroke-linejoin:miter;stroke-miterlimit:4;stroke-dasharray:none;stroke-opacity:1"
     inkscape:export-xdpi="192"
     inkscape:export-ydpi="192" />
  <path
     sodipodi:nodetypes="cc"
     inkscape:connector-curvature="0"
     id="path1841"
     d="m 17.5,234 v 3"
     style="fill:none;stroke:#eaeae3;stroke-width:0.7;stroke-linecap:butt;stroke-linejoin:miter;stroke-miterlimit:4;stroke-dasharray:none;stroke-opacity:1"
     inkscape:export-xdpi="192"
     inkscape:export-ydpi="192" />
  <path
     sodipodi:nodetypes="cc"
     inkscape:connector-curvature="0"
     id="path1843"
     d="m 19.5,231 v 6"
     style="fill:none;stroke:#eaeae3;stroke-width:0.7;stroke-linecap:butt;stroke-linejoin:miter;stroke-miterlimit:4;stroke-dasharray:none;stroke-opacity:1"
     inkscape:export-xdpi="192"
     inkscape:export-ydpi="192" />
  <path
     sodipodi:nodetypes="cc"
     inkscape:connector-curvature="0"
     id="path1845"
     d="m 21.5,233 v 4"
     style="fill:none;stroke:#eaeae3;stroke-width:0.7;stroke-linecap:butt;stroke-linejoin:miter;stroke-miterlimit:4;stroke-dasharray:none;stroke-opacity:1"
     inkscape:export-xdpi="192"
     inkscape:export-ydpi="192" />
  <path
     sodipodi:nodetypes="cc"
     inkscape:connector-curvature="0"
     id="path1847"
     d="m 23.5,232 v 5"
     style="fill:none;stroke:#eaeae3;stroke-width:0.7;stroke-linecap:butt;stroke-linejoin:miter;stroke-miterlimit:4;stroke-dasharray:none;stroke-opacity:1"
     inkscape:export-xdpi="192"
     inkscape:export-ydpi="192" />
  <rect
     ry="0"
     rx="0"
     y="40"
     x="0"
     height="118"
     width="120"
     id="rect2970"
     style="fill:#000000;fill-opacity:0.982332;stroke:none;stroke-width:0.545007;stroke-linecap:round;stroke-linejoin:round;stroke-miterlimit:4;stroke-dasharray:none;stroke-dashoffset:0;stroke-opacity:1" />
  <rect
     style="fill:#131313;fill-opacity:0.982332;stroke:none;stroke-width:0.545008;stroke-linecap:round;stroke-linejoin:round;stroke-miterlimit:4;stroke-dasharray:none;stroke-dashoffset:0;stroke-opacity:1"
     id="rect2972"
     width="114"
     height="114"
     x="3"
     y="42"
     rx="1"
     ry="1" />
  <g
     id="g2980"
     transform="translate(-405,58)">
    <path
       style="fill:none;stroke:#242523;stroke-width:0.999999px;stroke-linecap:butt;stroke-linejoin:miter;stroke-opacity:1"
       d="M 413,96 V 90"
       id="path2976"
       sodipodi:nodetypes="cc" />
    <path
       style="fill:none;stroke:#242523;stroke-width:0.999999px;stroke-linecap:butt;stroke-linejoin:miter;stroke-opacity:1"
       d="m 410,93 h 6"
       id="path2978"
       sodipodi:nodetypes="cc" />
  </g>
  <g
     id="g3032"
     transform="translate(-405,-46)">
    <path
       style="fill:none;stroke:#242523;stroke-width:0.999999px;stroke-linecap:butt;stroke-linejoin:miter;stroke-opacity:1"
       d="M 413,96 V 90"
       id="path3028"
       sodipodi:nodetypes="cc" />
    <path
       style="fill:none;stroke:#242523;stroke-width:0.999999px;stroke-linecap:butt;stroke-linejoin:miter;stroke-opacity:1"
       d="m 410,93 h 6"
       id="path3030"
       sodipodi:nodetypes="cc" />
  </g>
  <g
     id="g3038"
     transform="translate(-301,58)">
    <path
       style="fill:none;stroke:#242523;stroke-width:0.999999px;stroke-linecap:butt;stroke-linejoin:miter;stroke-opacity:1"
       d="M 413,96 V 90"
       id="path3034"
       sodipodi:nodetypes="cc" />
    <path
       style="fill:none;stroke:#242523;stroke-width:0.999999px;stroke-linecap:butt;stroke-linejoin:miter;stroke-opacity:1"
       d="m 410,93 h 6"
       id="path3036"
       sodipodi:nodetypes="cc" />
  </g>
  <g
     id="g3044"
     transform="translate(-301,-46)">
    <path
       style="fill:none;stroke:#242523;stroke-width:0.999999px;stroke-linecap:butt;stroke-linejoin:miter;stroke-opacity:1"
       d="M 413,96 V 90"
       id="path3040"
       sodipodi:nodetypes="cc" />
    <path
       style="fill:none;stroke:#242523;stroke-width:0.999999px;stroke-linecap:butt;stroke-linejoin:miter;stroke-opacity:1"
       d="m 410,93 h 6"
       id="path3042"
       sodipodi:nodetypes="cc" />
  </g>
  <path
     inkscape:export-ydpi="192"
     inkscape:export-xdpi="192"
     style="fill:none;stroke:#585a4e;stroke-width:0.69999999;stroke-linecap:butt;stroke-linejoin:miter;stroke-miterlimit:4;stroke-dasharray:none;stroke-opacity:1"
     d="M 95.580955,304.73599 V 286.21461"
     id="path1799"
     inkscape:connector-curvature="0"
     sodipodi:nodetypes="cc" />
  <rect
     style="fill:none;fill-opacity:1;stroke:#585a4e;stroke-width:0.69999999;stroke-linecap:round;stroke-linejoin:round;stroke-miterlimit:0;stroke-dasharray:none;stroke-dashoffset:0;stroke-opacity:1"
     id="rect1801"
     width="29.076094"
     height="43.215649"
     x="80.935875"
     y="304.73599"
     rx="2.6516504"
     ry="2.6516504" />
  <rect
     style="fill:none;fill-opacity:1;stroke:#585a4e;stroke-width:0.69999999;stroke-linecap:round;stroke-linejoin:round;stroke-miterlimit:0;stroke-dasharray:none;stroke-dashoffset:0;stroke-opacity:1"
     id="rect2047"
     width="29.076094"
     height="43.215649"
     x="9.7635736"
     y="304.73599"
     rx="2.6516504"
     ry="2.6516504" />
  <g
     aria-label="- - - -"
     style="font-style:normal;font-variant:normal;font-weight:600;font-stretch:normal;font-size:6.55224991px;line-height:1.25;font-family:Montserrat;-inkscape-font-specification:'Montserrat Semi-Bold';letter-spacing:0px;word-spacing:0px;fill:#585a4e;fill-opacity:1;stroke:none;stroke-width:0.100012;stroke-miterlimit:4;stroke-dasharray:none;stroke-opacity:1"
     id="text2051">
    <path
       d="m 16.959002,312.7322 h 1.801868 v 0.68143 h -1.801868 z"
       style="font-style:normal;font-variant:normal;font-weight:600;font-stretch:normal;font-family:Montserrat;-inkscape-font-specification:'Montserrat Semi-Bold';text-align:center;text-anchor:middle;fill:#585a4e;fill-opacity:1;stroke:none;stroke-width:0.100012;stroke-miterlimit:4;stroke-dasharray:none;stroke-opacity:1"
       id="path977" />
    <path
       d="m 21.290021,312.7322 h 1.801869 v 0.68143 h -1.801869 z"
       style="font-style:normal;font-variant:normal;font-weight:600;font-stretch:normal;font-family:Montserrat;-inkscape-font-specification:'Montserrat Semi-Bold';text-align:center;text-anchor:middle;fill:#585a4e;fill-opacity:1;stroke:none;stroke-width:0.100012;stroke-miterlimit:4;stroke-dasharray:none;stroke-opacity:1"
       id="path979" />
    <path
       d="m 25.621041,312.7322 h 1.801869 v 0.68143 h -1.801869 z"
       style="font-style:normal;font-variant:normal;font-weight:600;font-stretch:normal;font-family:Montserrat;-inkscape-font-specification:'Montserrat Semi-Bold';text-align:center;text-anchor:middle;fill:#585a4e;fill-opacity:1;stroke:none;stroke-width:0.100012;stroke-miterlimit:4;stroke-dasharray:none;stroke-opacity:1"
       id="path981" />
    <path
       d="m 29.952062,312.7322 h 1.801868 v 0.68143 h -1.801868 z"
       style="font-style:normal;font-variant:normal;font-weight:600;font-stretch:normal;font-family:Montserrat;-inkscape-font-specification:'Montserrat Semi-Bold';text-align:center;text-anchor:middle;fill:#585a4e;fill-opacity:1;stroke:none;stroke-width:0.100012;stroke-miterlimit:4;stroke-dasharray:none;stroke-opacity:1"
       id="path983" />
  </g>
  <g
     aria-label="- - - -"
     style="font-style:normal;font-variant:normal;font-weight:600;font-stretch:normal;font-size:6.55224991px;line-height:1.25;font-family:Montserrat;-inkscape-font-specification:'Montserrat Semi-Bold';letter-spacing:0px;word-spacing:0px;fill:#585a4e;fill-opacity:1;stroke:none;stroke-width:0.100012;stroke-miterlimit:4;stroke-dasharray:none;stroke-opacity:1"
     id="text2057">
    <path
       d="m 88.131319,312.7322 h 1.801869 v 0.68143 h -1.801869 z"
       style="font-style:normal;font-variant:normal;font-weight:600;font-stretch:normal;font-family:Montserrat;-inkscape-font-specification:'Montserrat Semi-Bold';text-align:center;text-anchor:middle;fill:#585a4e;fill-opacity:1;stroke:none;stroke-width:0.100012;stroke-miterlimit:4;stroke-dasharray:none;stroke-opacity:1"
       id="path995" />
    <path
       d="m 92.462339,312.7322 h 1.801869 v 0.68143 h -1.801869 z"
       style="font-style:normal;font-variant:normal;font-weight:600;font-stretch:normal;font-family:Montserrat;-inkscape-font-specification:'Montserrat Semi-Bold';text-align:center;text-anchor:middle;fill:#585a4e;fill-opacity:1;stroke:none;stroke-width:0.100012;stroke-miterlimit:4;stroke-dasharray:none;stroke-opacity:1"
       id="path997" />
    <path
       d="m 96.793359,312.7322 h 1.801869 v 0.68143 h -1.801869 z"
       style="font-style:normal;font-variant:normal;font-weight:600;font-stretch:normal;font-family:Montserrat;-inkscape-font-specification:'Montserrat Semi-Bold';text-align:center;text-anchor:middle;fill:#585a4e;fill-opacity:1;stroke:none;stroke-width:0.100012;stroke-miterlimit:4;stroke-dasharray:none;stroke-opacity:1"
       id="path999" />
    <path
       d="m 101.12438,312.7322 h 1.80187 v 0.68143 h -1.80187 z"
       style="font-style:normal;font-variant:normal;font-weight:600;font-stretch:normal;font-family:Montserrat;-inkscape-font-specification:'Montserrat Semi-Bold';text-align:center;text-anchor:middle;fill:#585a4e;fill-opacity:1;stroke:none;stroke-width:0.100012;stroke-miterlimit:4;stroke-dasharray:none;stroke-opacity:1"
       id="path1001" />
  </g>
  <g
     aria-label="- - - -"
     style="font-style:normal;font-variant:normal;font-weight:600;font-stretch:normal;font-size:6.96164989px;line-height:1.25;font-family:Montserrat;-inkscape-font-specification:'Montserrat Semi-Bold';letter-spacing:0px;word-spacing:0px;fill:#585a4e;fill-opacity:1;stroke:none;stroke-width:1.00001001"
     id="text2063">
    <path
       d="m 87.795138,266.74581 h 1.914454 v 0.72401 h -1.914454 z"
       style="font-style:normal;font-variant:normal;font-weight:600;font-stretch:normal;font-family:Montserrat;-inkscape-font-specification:'Montserrat Semi-Bold';text-align:center;text-anchor:middle;fill:#585a4e;fill-opacity:1;stroke:none;stroke-width:1.00001001"
       id="path986" />
    <path
       d="m 92.396771,266.74581 h 1.914453 v 0.72401 h -1.914453 z"
       style="font-style:normal;font-variant:normal;font-weight:600;font-stretch:normal;font-family:Montserrat;-inkscape-font-specification:'Montserrat Semi-Bold';text-align:center;text-anchor:middle;fill:#585a4e;fill-opacity:1;stroke:none;stroke-width:1.00001001"
       id="path988" />
    <path
       d="m 96.998403,266.74581 h 1.914453 v 0.72401 h -1.914453 z"
       style="font-style:normal;font-variant:normal;font-weight:600;font-stretch:normal;font-family:Montserrat;-inkscape-font-specification:'Montserrat Semi-Bold';text-align:center;text-anchor:middle;fill:#585a4e;fill-opacity:1;stroke:none;stroke-width:1.00001001"
       id="path990" />
    <path
       d="m 101.60004,266.74581 h 1.91445 v 0.72401 h -1.91445 z"
       style="font-style:normal;font-variant:normal;font-weight:600;font-stretch:normal;font-family:Montserrat;-inkscape-font-specification:'Montserrat Semi-Bold';text-align:center;text-anchor:middle;fill:#585a4e;fill-opacity:1;stroke:none;stroke-width:1.00001001"
       id="path992" />
  </g>
  <g
     inkscape:transform-center-y="-1.4987253"
     inkscape:transform-center-x="0.00028154154"
     id="g2087"
     style="stroke:#585a4e;stroke-width:2.48839998;stroke-opacity:1"
     transform="matrix(0.40205881,0,0,0.40167105,65.432565,241.93931)">
    <path
       inkscape:connector-curvature="0"
       sodipodi:nodetypes="ccccsc"
       transform="matrix(2.4871983,0,0,2.4895994,-424.12223,-602.33196)"
       d="m 193.67188,273.61328 c -1.24627,0.67528 -2.3883,1.52719 -3.39063,2.5293 -5.74077,5.73983 -5.74077,15.04532 0,20.78515 m 20.79102,0 c 5.74077,-5.73983 5.74077,-15.04532 0,-20.78515 -1.00233,-1.00211 -2.14436,-1.85402 -3.39063,-2.5293"
       style="opacity:1;fill:none;fill-opacity:1;stroke:#585a4e;stroke-width:0.60000002;stroke-linecap:round;stroke-linejoin:round;stroke-miterlimit:4;stroke-dasharray:none;stroke-dashoffset:0;stroke-opacity:1"
       id="path2081" />
    <path
       inkscape:transform-center-x="14.637333"
       inkscape:transform-center-y="14.637335"
       style="fill:none;stroke:#585a4e;stroke-width:1.74188006;stroke-linecap:butt;stroke-linejoin:miter;stroke-miterlimit:4;stroke-dasharray:none;stroke-opacity:1"
       d="M 75.001018,111.02563 45.726352,140.3003"
       id="path2083"
       inkscape:connector-curvature="0"
       sodipodi:nodetypes="cc" />
    <path
       sodipodi:nodetypes="cc"
       inkscape:connector-curvature="0"
       id="path2085"
       d="M 75.001018,111.02563 104.27569,140.3003"
       style="fill:none;stroke:#585a4e;stroke-width:1.74188006;stroke-linecap:butt;stroke-linejoin:miter;stroke-miterlimit:4;stroke-dasharray:none;stroke-opacity:1"
       inkscape:transform-center-y="14.637335"
       inkscape:transform-center-x="-14.637336" />
  </g>
  <path
     style="fill:none;stroke:#585a4e;stroke-width:0.69999999;stroke-linecap:round;stroke-linejoin:miter;stroke-miterlimit:4;stroke-dasharray:none;stroke-opacity:1"
     d="m 16.472225,340.1729 15.70371,-15.70371"
     id="path2127"
     inkscape:connector-curvature="0" />
  <path
     inkscape:connector-curvature="0"
     id="path2129"
     d="m 16.472225,324.46919 15.70371,15.70371"
     style="fill:none;stroke:#585a4e;stroke-width:0.69999999;stroke-linecap:round;stroke-linejoin:miter;stroke-miterlimit:4;stroke-dasharray:none;stroke-opacity:1" />
  <path
     inkscape:connector-curvature="0"
     id="path2131"
     d="M 87.729105,340.1729 103.43282,324.46919"
     style="fill:none;stroke:#585a4e;stroke-width:0.69999999;stroke-linecap:round;stroke-linejoin:miter;stroke-miterlimit:4;stroke-dasharray:none;stroke-opacity:1" />
  <path
     style="fill:none;stroke:#585a4e;stroke-width:0.69999999;stroke-linecap:round;stroke-linejoin:miter;stroke-miterlimit:4;stroke-dasharray:none;stroke-opacity:1"
     d="M 87.729105,324.46919 103.43282,340.1729"
     id="path2133"
     inkscape:connector-curvature="0" />
</svg>
