<?xml version="1.0" encoding="UTF-8" standalone="no"?>
<!-- Created with Inkscape (http://www.inkscape.org/) -->

<svg
   xmlns:dc="http://purl.org/dc/elements/1.1/"
   xmlns:cc="http://creativecommons.org/ns#"
   xmlns:rdf="http://www.w3.org/1999/02/22-rdf-syntax-ns#"
   xmlns:svg="http://www.w3.org/2000/svg"
   xmlns="http://www.w3.org/2000/svg"
   xmlns:sodipodi="http://sodipodi.sourceforge.net/DTD/sodipodi-0.dtd"
   xmlns:inkscape="http://www.inkscape.org/namespaces/inkscape"
   width="600"
   height="240"
   viewBox="0 0 600 240"
   version="1.1"
   id="svg8"
   inkscape:version="0.92.3 (2405546, 2018-03-11)"
   sodipodi:docname="zzc-phasor.svg">
  <defs
     id="defs2" />
  <sodipodi:namedview
     id="base"
     pagecolor="#f5f5f5"
     bordercolor="#000000"
     borderopacity="0.16470588"
     inkscape:pageopacity="0"
     inkscape:pageshadow="2"
     inkscape:zoom="1"
     inkscape:cx="323.20148"
     inkscape:cy="38.434146"
     inkscape:document-units="px"
     inkscape:current-layer="layer1"
     showgrid="false"
     units="px"
     guidecolor="#00d1ae"
     guideopacity="0.49803922"
     inkscape:window-width="2727"
     inkscape:window-height="1324"
     inkscape:window-x="658"
     inkscape:window-y="479"
     inkscape:window-maximized="0"
     showguides="false"
     inkscape:guide-bbox="true">
    <inkscape:grid
       type="xygrid"
       id="grid815"
       color="#3fb6ff"
       opacity="0.1254902"
       empcolor="#3f96ff"
       empopacity="0.29019608" />
    <sodipodi:guide
       position="240,113.99553"
       orientation="1,0"
       id="guide877"
       inkscape:locked="false" />
    <sodipodi:guide
       position="114,223.00446"
       orientation="0,1"
       id="guide879"
       inkscape:locked="false" />
  </sodipodi:namedview>
  <metadata
     id="metadata5">
    <rdf:RDF>
      <cc:Work
         rdf:about="">
        <dc:format>image/svg+xml</dc:format>
        <dc:type
           rdf:resource="http://purl.org/dc/dcmitype/StillImage" />
        <dc:title></dc:title>
      </cc:Work>
    </rdf:RDF>
  </metadata>
  <g
     inkscape:label="Layer 1"
     inkscape:groupmode="layer"
     id="layer1"
     transform="translate(0,-586.49998)">
    <path
       style="fill:none;stroke:#808080;stroke-width:1.29999995;stroke-linecap:round;stroke-linejoin:round;stroke-miterlimit:4;stroke-dasharray:none;stroke-opacity:1"
       d="M 55.984139,712.49998 H 582.01586"
       id="path815"
       inkscape:connector-curvature="0" />
    <path
       style="fill:none;stroke:#808080;stroke-width:1.29999995;stroke-linecap:round;stroke-linejoin:round;stroke-miterlimit:4;stroke-dasharray:none;stroke-opacity:1"
       d="m 567,707.49998 15,5 -15,5"
       id="path817"
       inkscape:connector-curvature="0" />
    <path
       inkscape:connector-curvature="0"
       id="path819"
       d="M 69.5,813.40143 V 602.59856"
       style="fill:none;stroke:#808080;stroke-width:1.29999995;stroke-linecap:round;stroke-linejoin:round;stroke-miterlimit:4;stroke-dasharray:none;stroke-opacity:1" />
    <path
       inkscape:connector-curvature="0"
       id="path821"
       d="m 64.5,617.99998 5,-15 5,15"
       style="fill:none;stroke:#808080;stroke-width:1.29999995;stroke-linecap:round;stroke-linejoin:round;stroke-miterlimit:4;stroke-dasharray:none;stroke-opacity:1" />
    <g
       aria-label="0V"
       style="font-style:normal;font-variant:normal;font-weight:normal;font-stretch:normal;font-size:19.9008255px;line-height:1.25;font-family:agave;-inkscape-font-specification:agave;letter-spacing:0px;word-spacing:0px;fill:#808080;fill-opacity:1;stroke:none;stroke-width:1"
       id="text825">
      <path
         d="m 31.965522,705.33573 q 1.127196,-1.71023 3.070636,-1.71023 1.94344,0 3.070635,1.71023 1.127195,1.71023 1.127195,4.66426 0,2.95402 -1.127195,4.66425 -1.127195,1.71023 -3.070635,1.71023 -1.94344,0 -3.070636,-1.71023 -1.127195,-1.71023 -1.127195,-4.66425 0,-2.95403 1.127195,-4.66426 z m 4.878035,1.11748 q -0.66077,-1.30211 -1.807399,-1.30211 -1.14663,0 -1.8074,1.30211 -0.660769,1.3021 -0.660769,3.54678 0,2.24467 0.660769,3.54677 0.66077,1.30211 1.8074,1.30211 1.146629,0 1.807399,-1.30211 0.660769,-1.3021 0.660769,-3.54677 0,-2.24468 -0.660769,-3.54678 z m -2.633361,2.30297 h 1.651924 v 2.48761 h -1.651924 z"
         style="stroke-width:1"
         id="path916" />
      <path
         d="m 40.322314,703.78098 h 1.719945 l 2.652795,8.99813 0.291516,1.71994 0.291516,-1.71994 1.63249,-5.53881 0.767659,-2.21552 h -1.243802 v -1.2438 h 3.216393 l -3.673101,12.43801 h -1.982309 z"
         style="stroke-width:1"
         id="path918" />
    </g>
    <g
       aria-label="10V"
       style="font-style:normal;font-variant:normal;font-weight:normal;font-stretch:normal;font-size:19.9008255px;line-height:1.25;font-family:agave;-inkscape-font-specification:agave;letter-spacing:0px;word-spacing:0px;fill:#808080;fill-opacity:1;stroke:none;stroke-width:1"
       id="text829">
      <path
         d="m 25.085745,596.78098 h 1.651924 v 12.43801 h -1.651924 v -10.10588 l -2.254391,2.25439 -1.166064,-1.16607 z"
         style="stroke-width:1"
         id="path921" />
      <path
         d="m 31.965522,598.33573 q 1.127196,-1.71023 3.070636,-1.71023 1.94344,0 3.070635,1.71023 1.127195,1.71023 1.127195,4.66426 0,2.95402 -1.127195,4.66425 -1.127195,1.71023 -3.070635,1.71023 -1.94344,0 -3.070636,-1.71023 -1.127195,-1.71023 -1.127195,-4.66425 0,-2.95403 1.127195,-4.66426 z m 4.878035,1.11748 q -0.66077,-1.30211 -1.807399,-1.30211 -1.14663,0 -1.8074,1.30211 -0.660769,1.3021 -0.660769,3.54678 0,2.24467 0.660769,3.54677 0.66077,1.30211 1.8074,1.30211 1.146629,0 1.807399,-1.30211 0.660769,-1.3021 0.660769,-3.54677 0,-2.24468 -0.660769,-3.54678 z m -2.633361,2.30297 h 1.651924 v 2.48761 h -1.651924 z"
         style="stroke-width:1"
         id="path923" />
      <path
         d="m 40.322314,596.78098 h 1.719945 l 2.652795,8.99813 0.291516,1.71994 0.291516,-1.71994 1.63249,-5.53881 0.767659,-2.21552 h -1.243802 v -1.2438 h 3.216393 l -3.673101,12.43801 h -1.982309 z"
         style="stroke-width:1"
         id="path925" />
    </g>
    <g
       aria-label="t"
       style="font-style:normal;font-variant:normal;font-weight:normal;font-stretch:normal;font-size:19.9008255px;line-height:1.25;font-family:agave;-inkscape-font-specification:agave;letter-spacing:0px;word-spacing:0px;fill:#808080;fill-opacity:1;stroke:none;stroke-width:1"
       id="text833">
      <path
         d="m 578.18076,742.14126 q -0.59275,0.15547 -1.55476,0.15547 -1.72966,0 -2.62364,-0.71907 -0.89398,-0.71907 -0.89398,-2.40987 v -4.41161 H 570.407 v -1.5256 h 2.70138 v -3.4496 h 1.65192 v 3.4496 h 4.04236 v 1.5256 h -4.04236 v 4.41161 q 0,0.82597 0.47614,1.17578 0.47615,0.34982 1.38956,0.34982 h 1.55476 z"
         style="stroke-width:1"
         id="path950" />
    </g>
    <path
       style="fill:none;stroke:#ff2a2a;stroke-width:1.70000005;stroke-linecap:butt;stroke-linejoin:miter;stroke-miterlimit:4;stroke-dasharray:none;stroke-opacity:1"
       d="M 120,712.50445 V 603.49552 h 8 v 109.00893 h 126"
       id="path873"
       inkscape:connector-curvature="0" />
    <path
       style="fill:none;stroke:#37c871;stroke-width:1.60000002;stroke-linecap:butt;stroke-linejoin:miter;stroke-miterlimit:4;stroke-dasharray:none;stroke-opacity:1"
       d="M 120,712.50445 254,603.49552"
       id="path881"
       inkscape:connector-curvature="0" />
    <path
       inkscape:connector-curvature="0"
       id="path883"
       d="M 254,712.50445 V 603.49552 h 8 v 109.00893 h 126"
       style="fill:none;stroke:#ff2a2a;stroke-width:1.70000005;stroke-linecap:butt;stroke-linejoin:miter;stroke-miterlimit:4;stroke-dasharray:none;stroke-opacity:1" />
    <path
       inkscape:connector-curvature="0"
       id="path885"
       d="M 254,712.50445 388,603.49552"
       style="fill:none;stroke:#37c871;stroke-width:1.60000002;stroke-linecap:butt;stroke-linejoin:miter;stroke-miterlimit:4;stroke-dasharray:none;stroke-opacity:1" />
    <path
       style="fill:none;stroke:#ff2a2a;stroke-width:1.70000005;stroke-linecap:butt;stroke-linejoin:miter;stroke-miterlimit:4;stroke-dasharray:none;stroke-opacity:1"
       d="M 388,712.50445 V 603.49552 h 8 v 109.00893 h 126"
       id="path887"
       inkscape:connector-curvature="0" />
    <path
       style="fill:none;stroke:#37c871;stroke-width:1.60000002;stroke-linecap:butt;stroke-linejoin:miter;stroke-miterlimit:4;stroke-dasharray:none;stroke-opacity:1"
       d="M 388,712.50445 522,603.49552"
       id="path889"
       inkscape:connector-curvature="0" />
    <path
       inkscape:connector-curvature="0"
       id="path891"
       d="m 114,751.49998 h 30"
       style="fill:none;stroke:#ff2a2a;stroke-width:1.70000005;stroke-linecap:butt;stroke-linejoin:miter;stroke-miterlimit:4;stroke-dasharray:none;stroke-opacity:1"
       sodipodi:nodetypes="cc" />
    <path
       inkscape:connector-curvature="0"
       id="path893"
       d="m 114,779.49998 h 30"
       style="fill:none;stroke:#37c871;stroke-width:1.60000002;stroke-linecap:butt;stroke-linejoin:miter;stroke-miterlimit:4;stroke-dasharray:none;stroke-opacity:1"
       sodipodi:nodetypes="cc" />
    <g
       aria-label="Pulse"
       style="font-style:normal;font-variant:normal;font-weight:normal;font-stretch:normal;font-size:19.9008255px;line-height:1.25;font-family:agave;-inkscape-font-specification:agave;letter-spacing:0px;word-spacing:0px;fill:#ff2a2a;fill-opacity:1;stroke:none;stroke-width:1"
       id="text897">
      <path
         d="m 164.33988,744.78098 h 4.31443 q 1.5256,0 2.40987,1.00087 0.89398,1.00087 0.89398,2.73053 0,1.72966 -1.15634,2.73054 -1.15635,1.00087 -3.15809,1.00087 h -0.48586 v -1.5256 h 0.48586 q 1.23408,0 1.94344,-0.59275 0.71907,-0.59275 0.71907,-1.61306 0,-1.0203 -0.44699,-1.61305 -0.43728,-0.59275 -1.20494,-0.59275 h -2.66251 v 10.91241 h -1.65192 z"
         style="fill:#ff2a2a;fill-opacity:1;stroke-width:1"
         id="path939" />
      <path
         d="m 173.97934,747.26858 h 1.65192 v 6.39392 q 0,1.17578 0.52473,1.68107 0.53445,0.5053 1.55475,0.5053 0.57332,0 1.08833,-0.10689 0.52473,-0.10689 0.75794,-0.21378 l 0.23322,-0.10689 v -8.15273 h 1.65192 v 9.0953 q -0.0583,0.0389 -0.17491,0.10689 -0.10689,0.068 -0.47614,0.24293 -0.36926,0.17491 -0.77738,0.31095 -0.3984,0.13604 -1.03002,0.24293 -0.63162,0.10689 -1.27296,0.10689 -1.82683,0 -2.77911,-0.85511 -0.95229,-0.85512 -0.95229,-2.85686 z"
         style="fill:#ff2a2a;fill-opacity:1;stroke-width:1"
         id="path941" />
      <path
         d="m 184.2407,744.78098 h 4.24642 v 10.91241 h 2.90544 v 1.5256 h -7.46281 v -1.5256 h 2.90545 v -9.38681 h -2.5945 z"
         style="fill:#ff2a2a;fill-opacity:1;stroke-width:1"
         id="path943" />
      <path
         d="m 198.79707,747.19084 q 0.52473,0 1.00087,0.0389 0.48586,0.0389 0.70936,0.0777 l 0.21377,0.0389 v 1.44786 h -1.924 q -1.5256,0 -2.32241,0.31095 -0.7871,0.30124 -0.7871,1.01059 0,0.42756 0.30124,0.72879 0.30123,0.29152 0.78709,0.46643 0.48586,0.16519 1.06889,0.31095 0.59275,0.14575 1.17578,0.3401 0.59275,0.18463 1.07861,0.46642 0.48586,0.27209 0.7871,0.76766 0.30123,0.49558 0.30123,1.1855 0,1.57419 -1.26324,2.24467 -1.26323,0.67049 -3.69253,0.67049 -0.5636,0 -1.07861,-0.0389 -0.5053,-0.0389 -0.72879,-0.0777 l -0.23321,-0.0389 v -1.44787 h 2.04061 q 1.62277,0 2.45845,-0.30123 0.8454,-0.30123 0.8454,-1.01059 0,-0.37897 -0.24293,-0.66077 -0.23322,-0.2818 -0.6219,-0.43727 -0.37898,-0.15548 -0.87455,-0.30124 -0.49558,-0.15547 -1.01059,-0.27208 -0.51501,-0.1166 -1.01059,-0.32066 -0.49558,-0.21378 -0.88427,-0.47615 -0.37897,-0.27208 -0.6219,-0.72879 -0.23321,-0.46642 -0.23321,-1.06889 0,-1.57419 1.21465,-2.24467 1.21465,-0.68021 3.54678,-0.68021 z"
         style="fill:#ff2a2a;fill-opacity:1;stroke-width:1"
         id="path945" />
      <path
         d="m 208.51427,757.29673 q -2.39043,0 -3.77027,-1.35069 -1.37985,-1.36041 -1.37985,-3.70225 0,-2.38072 1.1272,-3.75084 1.12719,-1.37984 3.07063,-1.37984 1.93373,0 3.02205,0.88426 1.09805,0.87455 1.09805,2.40015 0,0.71907 -0.0389,1.37012 -0.0389,0.65106 -0.0777,0.94257 l -0.0389,0.30124 h -6.43279 q 0,0.0583 0.01,0.15547 0.01,0.0972 0.068,0.37897 0.068,0.27208 0.18463,0.52473 0.12632,0.25265 0.37897,0.5636 0.25265,0.31095 0.60247,0.53444 0.34982,0.2235 0.91341,0.37898 0.5636,0.14575 1.26324,0.14575 h 2.15722 v 1.44787 q -0.82596,0.15547 -2.15722,0.15547 z m 1.51588,-5.8206 v -1.07861 q 0,-0.81625 -0.66077,-1.28267 -0.66077,-0.47614 -1.8074,-0.47614 -0.50529,0 -0.91341,0.15547 -0.40813,0.15548 -0.66077,0.40812 -0.24293,0.25265 -0.42756,0.55388 -0.18463,0.30124 -0.27208,0.60247 -0.0875,0.30123 -0.13604,0.55388 -0.0486,0.25265 -0.0583,0.40812 v 0.15548 z"
         style="fill:#ff2a2a;fill-opacity:1;stroke-width:1"
         id="path947" />
    </g>
    <g
       aria-label="Phase"
       style="font-style:normal;font-variant:normal;font-weight:normal;font-stretch:normal;font-size:19.9008255px;line-height:1.25;font-family:agave;-inkscape-font-specification:agave;letter-spacing:0px;word-spacing:0px;fill:#37c871;fill-opacity:1;stroke:none;stroke-width:1"
       id="text901">
      <path
         d="m 164.3898,772.78098 h 4.31444 q 1.5256,0 2.40987,1.00087 0.89398,1.00087 0.89398,2.73053 0,1.72966 -1.15635,2.73054 -1.15634,1.00087 -3.15809,1.00087 h -0.48586 v -1.5256 h 0.48586 q 1.23409,0 1.94344,-0.59275 0.71908,-0.59275 0.71908,-1.61306 0,-1.0203 -0.447,-1.61305 -0.43727,-0.59275 -1.20493,-0.59275 h -2.66251 v 10.91241 h -1.65193 z"
         style="fill:#37c871;fill-opacity:1;stroke-width:1"
         id="path928" />
      <path
         d="m 181.49208,785.21899 h -1.65193 v -5.5971 q 0,-1.00087 -0.53444,-1.42843 -0.52473,-0.43728 -1.54504,-0.43728 h -2.07948 v 7.46281 h -1.65192 v -12.43801 h 1.65192 v 3.52734 q 0.79681,-0.15547 2.07948,-0.15547 1.82684,0 2.77912,0.80652 0.95229,0.79681 0.95229,2.66252 z"
         style="fill:#37c871;fill-opacity:1;stroke-width:1"
         id="path930" />
      <path
         d="m 186.77823,775.19084 q 2.62365,0 3.64395,0.71908 1.02031,0.70935 1.02031,2.5459 v 6.76317 h -3.30385 q -2.00174,0 -3.15809,-0.85511 -1.15635,-0.85511 -1.15635,-2.33213 0,-1.1855 0.88427,-1.8657 0.88426,-0.68992 2.41958,-0.68992 h 2.66252 v -1.02031 q 0,-0.93285 -0.66077,-1.29238 -0.65106,-0.36926 -2.35157,-0.36926 h -1.8657 v -1.44786 q 0.70936,-0.15548 1.8657,-0.15548 z m 0.34982,5.82061 q -0.76766,0 -1.21465,0.27208 -0.43727,0.27208 -0.43727,0.74822 0,0.76766 0.70935,1.21465 0.71908,0.44699 1.95316,0.44699 h 1.65193 v -2.68194 z"
         style="fill:#37c871;fill-opacity:1;stroke-width:1"
         id="path932" />
      <path
         d="m 198.847,775.19084 q 0.52472,0 1.00087,0.0389 0.48586,0.0389 0.70935,0.0777 l 0.21378,0.0389 v 1.44786 h -1.924 q -1.5256,0 -2.32242,0.31095 -0.78709,0.30124 -0.78709,1.01059 0,0.42756 0.30123,0.72879 0.30124,0.29152 0.7871,0.46643 0.48586,0.16519 1.06889,0.31095 0.59275,0.14575 1.17578,0.3401 0.59275,0.18463 1.07861,0.46642 0.48586,0.27209 0.78709,0.76766 0.30124,0.49558 0.30124,1.1855 0,1.57419 -1.26324,2.24467 -1.26324,0.67049 -3.69254,0.67049 -0.56359,0 -1.0786,-0.0389 -0.5053,-0.0389 -0.72879,-0.0777 l -0.23322,-0.0389 v -1.44787 h 2.04061 q 1.62278,0 2.45846,-0.30123 0.84539,-0.30123 0.84539,-1.01059 0,-0.37897 -0.24293,-0.66077 -0.23321,-0.2818 -0.6219,-0.43727 -0.37897,-0.15548 -0.87455,-0.30124 -0.49557,-0.15547 -1.01058,-0.27208 -0.51502,-0.1166 -1.01059,-0.32066 -0.49558,-0.21378 -0.88427,-0.47615 -0.37897,-0.27208 -0.6219,-0.72879 -0.23321,-0.46642 -0.23321,-1.06889 0,-1.57419 1.21465,-2.24467 1.21465,-0.68021 3.54678,-0.68021 z"
         style="fill:#37c871;fill-opacity:1;stroke-width:1"
         id="path934" />
      <path
         d="m 208.5642,785.29673 q -2.39044,0 -3.77028,-1.35069 -1.37984,-1.36041 -1.37984,-3.70225 0,-2.38072 1.12719,-3.75084 1.1272,-1.37984 3.07064,-1.37984 1.93372,0 3.02205,0.88426 1.09804,0.87455 1.09804,2.40015 0,0.71907 -0.0389,1.37012 -0.0389,0.65106 -0.0777,0.94257 l -0.0389,0.30124 h -6.43279 q 0,0.0583 0.01,0.15547 0.01,0.0972 0.068,0.37897 0.068,0.27208 0.18463,0.52473 0.12632,0.25265 0.37897,0.5636 0.25264,0.31095 0.60246,0.53444 0.34982,0.2235 0.91342,0.37898 0.5636,0.14575 1.26324,0.14575 h 2.15721 v 1.44787 q -0.82596,0.15547 -2.15721,0.15547 z m 1.51588,-5.8206 v -1.07861 q 0,-0.81625 -0.66077,-1.28267 -0.66077,-0.47614 -1.8074,-0.47614 -0.50529,0 -0.91342,0.15547 -0.40812,0.15548 -0.66077,0.40812 -0.24293,0.25265 -0.42755,0.55388 -0.18463,0.30124 -0.27208,0.60247 -0.0875,0.30123 -0.13605,0.55388 -0.0486,0.25265 -0.0583,0.40812 v 0.15548 z"
         style="fill:#37c871;fill-opacity:1;stroke-width:1"
         id="path936" />
    </g>
    <g
       aria-label="-10V"
       style="font-style:normal;font-variant:normal;font-weight:normal;font-stretch:normal;font-size:19.9008255px;line-height:1.25;font-family:agave;-inkscape-font-specification:agave;letter-spacing:0px;word-spacing:0px;fill:#808080;fill-opacity:1;stroke:none;stroke-width:1"
       id="text905">
      <path
         d="m 12.025828,809.23233 h 6.219008 v 1.53531 h -6.219008 z"
         style="stroke-width:1"
         id="path907" />
      <path
         d="m 25.085745,803.78098 h 1.651924 v 12.43801 h -1.651924 v -10.10588 l -2.254391,2.25439 -1.166064,-1.16607 z"
         style="stroke-width:1"
         id="path909" />
      <path
         d="m 31.965522,805.33573 q 1.127196,-1.71023 3.070636,-1.71023 1.94344,0 3.070635,1.71023 1.127195,1.71023 1.127195,4.66426 0,2.95402 -1.127195,4.66425 -1.127195,1.71023 -3.070635,1.71023 -1.94344,0 -3.070636,-1.71023 -1.127195,-1.71023 -1.127195,-4.66425 0,-2.95403 1.127195,-4.66426 z m 4.878035,1.11748 q -0.66077,-1.30211 -1.807399,-1.30211 -1.14663,0 -1.8074,1.30211 -0.660769,1.3021 -0.660769,3.54678 0,2.24467 0.660769,3.54677 0.66077,1.30211 1.8074,1.30211 1.146629,0 1.807399,-1.30211 0.660769,-1.3021 0.660769,-3.54677 0,-2.24468 -0.660769,-3.54678 z m -2.633361,2.30297 h 1.651924 v 2.48761 h -1.651924 z"
         style="stroke-width:1"
         id="path911" />
      <path
         d="m 40.322314,803.78098 h 1.719945 l 2.652795,8.99813 0.291516,1.71994 0.291516,-1.71994 1.63249,-5.53881 0.767659,-2.21552 h -1.243802 v -1.2438 h 3.216393 l -3.673101,12.43801 h -1.982309 z"
         style="stroke-width:1"
         id="path913" />
    </g>
  </g>
</svg>
