<?xml version="1.0" encoding="UTF-8"?>
<svg width="600" height="300" version="1.1" viewBox="0 0 600 300" xmlns="http://www.w3.org/2000/svg">
 <g transform="translate(0 -526.5)">
  <g fill="none" stroke="#808080" stroke-linecap="round" stroke-linejoin="round" stroke-width="1.3">
   <path d="m55.98 664.4h526"/>
   <path d="m567 659.4 15 5-15 5"/>
   <path d="m69.5 668.3v-113.8"/>
   <path d="m64.5 569.9 5-15 5 15"/>
  </g>
  <g fill="#808080">
   <g transform="translate(0 -48.1)" aria-label="0V">
    <path d="m31.97 705.3q1.127-1.71 3.071-1.71t3.071 1.71 1.127 4.664q0 2.954-1.127 4.664t-3.071 1.71-3.071-1.71q-1.127-1.71-1.127-4.664 0-2.954 1.127-4.664zm4.878 1.117q-0.6608-1.302-1.807-1.302-1.147 0-1.807 1.302-0.6608 1.302-0.6608 3.547 0 2.245 0.6608 3.547 0.6608 1.302 1.807 1.302 1.147 0 1.807-1.302 0.6608-1.302 0.6608-3.547 0-2.245-0.6608-3.547zm-2.633 2.303h1.652v2.488h-1.652z"/>
    <path d="m40.32 703.8h1.72l2.653 8.998 0.2915 1.72 0.2915-1.72 1.632-5.539 0.7677-2.216h-1.244v-1.244h3.216l-3.673 12.44h-1.982z"/>
   </g>
   <g transform="translate(0 -48.1)" aria-label="10V">
    <path d="m25.09 596.8h1.652v12.44h-1.652v-10.11l-2.254 2.254-1.166-1.166z"/>
    <path d="m31.97 598.3q1.127-1.71 3.071-1.71t3.071 1.71 1.127 4.664q0 2.954-1.127 4.664t-3.071 1.71-3.071-1.71q-1.127-1.71-1.127-4.664 0-2.954 1.127-4.664zm4.878 1.117q-0.6608-1.302-1.807-1.302-1.147 0-1.807 1.302-0.6608 1.302-0.6608 3.547 0 2.245 0.6608 3.547 0.6608 1.302 1.807 1.302 1.147 0 1.807-1.302 0.6608-1.302 0.6608-3.547 0-2.245-0.6608-3.547zm-2.633 2.303h1.652v2.488h-1.652z"/>
    <path d="m40.32 596.8h1.72l2.653 8.998 0.2915 1.72 0.2915-1.72 1.632-5.539 0.7677-2.216h-1.244v-1.244h3.216l-3.673 12.44h-1.982z"/>
   </g>
   <g transform="translate(0 -48.1)" aria-label="t">
    <path d="m578.2 742.1q-0.5928 0.1555-1.555 0.1555-1.73 0-2.624-0.7191t-0.894-2.41v-4.412h-2.701v-1.526h2.701v-3.45h1.652v3.45h4.042v1.526h-4.042v4.412q0 0.826 0.4761 1.176 0.4762 0.3498 1.39 0.3498h1.555z"/>
   </g>
  </g>
  <g fill="none" stroke="#37c871" stroke-width="1.6">
   <path d="m94.57 664.4 109.4-109v108.5"/>
   <path d="m205.4 664.4 109.4-109v108.5"/>
   <path d="m316.1 664.4 109.4-109v108.5"/>
   <path d="m426.9 664.4 109.4-109v108.5"/>
  </g>
  <g fill="#37c871" aria-label="Input">
   <path d="m98.8 559.3h7.244v1.615h-2.747v9.94h2.747v1.615h-7.244v-1.615h2.747v-9.94h-2.747z"/>
   <path d="m116.9 572.5h-1.749v-6.771q0-1.245-0.5659-1.78-0.5556-0.5351-1.636-0.5351-0.6071 0-1.163 0.1132-0.5454 0.1132-0.7923 0.2264l-0.247 0.1132v8.633h-1.749v-9.631q0.0617-0.0412 0.1749-0.1132 0.1235-0.072 0.5145-0.2572 0.391-0.1852 0.8129-0.3293 0.4322-0.144 1.101-0.2572 0.6688-0.1132 1.348-0.1132 1.934 0 2.943 0.9055 1.008 0.9055 1.008 3.025z"/>
   <path d="m122.2 562h1.934q1.626 0 2.562 0.9158 0.9364 0.9055 0.9364 2.48 0 2.109-1.224 3.313-1.224 1.194-3.344 1.194h-1.749v5.268h-1.749v-10.54q0-1.482 0.5762-2.058 0.5762-0.5762 2.058-0.5762zm0 1.615q-0.4116 0-0.6483 0.2778-0.2367 0.2675-0.2367 0.7409v3.653h1.749q1.307 0 2.058-0.7717 0.7614-0.782 0.7614-2.12 0-0.8232-0.4733-1.297-0.463-0.4836-1.276-0.4836z"/>
   <path d="m130.1 562h1.749v6.771q0 1.245 0.5556 1.78 0.5659 0.5351 1.646 0.5351 0.6071 0 1.152-0.1132 0.5556-0.1132 0.8026-0.2264l0.247-0.1132v-8.633h1.749v9.631q-0.0617 0.0412-0.1852 0.1132-0.1132 0.072-0.5042 0.2572-0.391 0.1852-0.8232 0.3293-0.4219 0.144-1.091 0.2572-0.6688 0.1132-1.348 0.1132-1.934 0-2.943-0.9055-1.008-0.9055-1.008-3.025z"/>
   <path d="m148.2 572.4q-0.6277 0.1646-1.646 0.1646-1.832 0-2.778-0.7614-0.9467-0.7614-0.9467-2.552v-4.672h-2.861v-1.615h2.861v-3.653h1.749v3.653h4.281v1.615h-4.281v4.672q0 0.8746 0.5042 1.245 0.5042 0.3704 1.471 0.3704h1.646z"/>
  </g>
  <g fill="none" stroke="#808080" stroke-linecap="round" stroke-linejoin="round" stroke-width="1.3">
   <path d="m55.98 803.4h526"/>
   <path d="m567 798.4 15 5-15 5"/>
   <path d="m69.5 807.3v-113.8"/>
   <path d="m64.5 708.9 5-15 5 15"/>
  </g>
  <g>
   <g transform="translate(0 90.9)" fill="#808080" aria-label="0V">
    <path d="m31.97 705.3q1.127-1.71 3.071-1.71t3.071 1.71 1.127 4.664q0 2.954-1.127 4.664t-3.071 1.71-3.071-1.71q-1.127-1.71-1.127-4.664 0-2.954 1.127-4.664zm4.878 1.117q-0.6608-1.302-1.807-1.302-1.147 0-1.807 1.302-0.6608 1.302-0.6608 3.547 0 2.245 0.6608 3.547 0.6608 1.302 1.807 1.302 1.147 0 1.807-1.302 0.6608-1.302 0.6608-3.547 0-2.245-0.6608-3.547zm-2.633 2.303h1.652v2.488h-1.652z"/>
    <path d="m40.32 703.8h1.72l2.653 8.998 0.2915 1.72 0.2915-1.72 1.632-5.539 0.7677-2.216h-1.244v-1.244h3.216l-3.673 12.44h-1.982z"/>
   </g>
   <g transform="translate(0 90.9)" fill="#808080" aria-label="10V">
    <path d="m25.09 596.8h1.652v12.44h-1.652v-10.11l-2.254 2.254-1.166-1.166z"/>
    <path d="m31.97 598.3q1.127-1.71 3.071-1.71t3.071 1.71 1.127 4.664q0 2.954-1.127 4.664t-3.071 1.71-3.071-1.71q-1.127-1.71-1.127-4.664 0-2.954 1.127-4.664zm4.878 1.117q-0.6608-1.302-1.807-1.302-1.147 0-1.807 1.302-0.6608 1.302-0.6608 3.547 0 2.245 0.6608 3.547 0.6608 1.302 1.807 1.302 1.147 0 1.807-1.302 0.6608-1.302 0.6608-3.547 0-2.245-0.6608-3.547zm-2.633 2.303h1.652v2.488h-1.652z"/>
    <path d="m40.32 596.8h1.72l2.653 8.998 0.2915 1.72 0.2915-1.72 1.632-5.539 0.7677-2.216h-1.244v-1.244h3.216l-3.673 12.44h-1.982z"/>
   </g>
   <g fill="#95f" aria-label="Swing 75% 1:1">
    <path d="m103.9 695.2q0.6894 0 1.317 0.0412t0.9055 0.0823l0.2881 0.0412v1.533h-2.511q-1.832 0-2.778 0.4425-0.9466 0.4322-0.9466 1.451 0 0.4939 0.2264 0.8746 0.2367 0.3807 0.6174 0.638 0.391 0.2572 0.8952 0.4733 0.5145 0.2058 1.07 0.4013 0.5556 0.1955 1.111 0.4013t1.06 0.5042q0.5145 0.2881 0.8952 0.6688 0.391 0.3704 0.6174 0.9364 0.2367 0.5556 0.2367 1.255 0 1.369-0.5865 2.14-0.5762 0.7717-1.883 1.111-1.296 0.3396-3.622 0.3396-0.7203 0-1.379-0.0412-0.6585-0.0412-0.9569-0.0823l-0.2984-0.0412v-1.533h2.634q2.398 0 3.324-0.4116 0.9364-0.4116 0.9364-1.482 0-0.4939-0.2367-0.8746-0.2264-0.3807-0.6174-0.638-0.3807-0.2572-0.8952-0.463-0.5042-0.2161-1.06-0.4116-0.5556-0.1955-1.111-0.4013-0.5556-0.2058-1.07-0.4939-0.5042-0.2984-0.8952-0.6688-0.3807-0.3807-0.6174-0.9364-0.2264-0.5659-0.2264-1.266 0-1.934 1.41-2.758 1.42-0.8335 4.147-0.8335z"/>
    <path d="m108 698h1.626l0.8232 6.894 0.1646 1.821 0.4322-1.821 1.369-4.26h1.05l1.369 4.26 0.4322 1.821 0.1646-1.821 0.8232-6.894h1.626l-1.255 10.54h-2.099l-1.585-5.515-1.585 5.515h-2.099z"/>
    <path d="m121.9 694.4h2.83v1.749h-2.83zm-1.996 4.527h4.497v7.903h3.077v1.615h-7.902v-1.615h3.077v-6.287h-2.747z"/>
    <path d="m138 708.5h-1.749v-6.771q0-1.245-0.5659-1.78-0.5556-0.5351-1.636-0.5351-0.6071 0-1.163 0.1132-0.5454 0.1132-0.7923 0.2264l-0.247 0.1132v8.633h-1.749v-9.631q0.0617-0.0412 0.1749-0.1132 0.1235-0.072 0.5145-0.2572 0.391-0.1852 0.8129-0.3293 0.4322-0.144 1.101-0.2572t1.348-0.1132q1.934 0 2.943 0.9055t1.008 3.025z"/>
    <path d="m145 698h0.8643q1.482 0 2.058 0.5762 0.5762 0.5762 0.5762 2.058v6.668q0 2.089-1.266 3.015-1.266 0.9364-3.673 0.9364-0.5454 0-1.039-0.0412t-0.71-0.0823l-0.2264-0.0412v-1.533h1.976q1.564 0 2.377-0.5248 0.8129-0.5145 0.8129-1.729v-1.399h-2.819q-1.626 0-2.562-0.8952-0.9364-0.8952-0.9364-2.449 0-2.109 1.224-3.334 1.224-1.224 3.344-1.224zm0 1.615q-1.307 0-2.068 0.7923-0.7512 0.782-0.7512 2.151 0 0.8026 0.463 1.266 0.4733 0.463 1.286 0.463h2.819v-3.653q0-0.4733-0.2367-0.7409-0.2367-0.2778-0.6482-0.2778z"/>
    <path d="m169.9 695.3v1.615l-4.281 11.56h-1.862l4.281-11.56h-6.699v-1.615z"/>
    <path d="m174.3 696.9v3.653h1.873q1.904 0 3.005 0.9158 1.111 0.9055 1.111 2.48 0 2.14-1.513 3.365-1.513 1.224-4.136 1.224-0.6585 0-1.266-0.0412-0.6071-0.0412-0.8849-0.0823l-0.2675-0.0412v-1.533h2.418q1.852 0 2.871-0.7306 1.029-0.7306 1.029-2.161 0-0.8232-0.638-1.297-0.6277-0.4836-1.729-0.4836h-3.622v-6.884h7.244v1.615z"/>
    <path d="m182.8 695.3h2.171v3.509h-2.171zm6.565 0h1.996l-7.223 13.17h-1.996zm-0.8335 9.662h2.171v3.509h-2.171z"/>
    <path d="m102.4 721.7h1.749v13.17h-1.749v-10.7l-2.387 2.387-1.235-1.235z"/>
    <path d="m111.6 722.6h2.634v3.293h-2.634zm0 7.902h2.634v3.293h-2.634z"/>
    <path d="m123.5 721.7h1.749v13.17h-1.749v-10.7l-2.387 2.387-1.235-1.235z"/>
   </g>
  </g>
  <g fill="none" stroke="#95f" stroke-width="1.6">
   <path d="m94.57 803.4 164.4-109v108.5"/>
   <path d="m260.4 803.4 54.42-109v108.5"/>
   <path d="m316.1 803.4 164.4-109v108.5"/>
   <path d="m481.9 803.4 54.42-109v108.5"/>
  </g>
 </g>
</svg>
